<svg width="25" height="52" viewBox="0 0 25 52" fill="none" xmlns="http://www.w3.org/2000/svg" aria-hidden="true">
<path fill-rule="evenodd" clip-rule="evenodd" d="M17.2568 51.5C16.2568 51.5 15.1568 51.3 14.2568 50.8C13.3568 50.3 12.4568 49.7 11.7568 48.9C13.2568 47.8 15.0568 47.2 16.8568 47.4C18.6568 47.6 20.3568 48.5 21.5568 49.9C20.3568 51 18.8568 51.5 17.2568 51.5ZM20.4568 43.1C20.4568 41.5 20.9568 40 21.9568 38.7C23.3568 39.9 24.2568 41.6 24.4568 43.4C24.6568 45.2 24.1568 47.1 23.0568 48.6C22.2568 47.9 21.6568 47.1 21.1568 46.1C20.6568 45.2 20.4568 44.2 20.4568 43.1ZM9.85679 45.1C8.85679 44.8 7.95679 44.3 7.15679 43.7C6.35679 43 5.75679 42.2 5.25679 41.2C6.95679 40.5 8.85679 40.5 10.5568 41.2C12.2568 41.9 13.6568 43.2 14.4568 44.9C12.9568 45.4 11.3568 45.5 9.85679 45.1ZM14.9568 37.8C15.3568 36.3 16.2568 34.9 17.4568 34C18.5568 35.5 18.9568 37.4 18.6568 39.2C18.3568 41 17.4568 42.7 15.9568 43.8C15.3568 42.9 14.9568 41.9 14.7568 40.9C14.6568 39.9 14.7568 38.8 14.9568 37.8ZM3.05679 36.5C2.25679 35.8 1.55679 35 1.15679 34C0.756787 33 0.456787 32 0.456787 31C2.25679 31.1 4.05679 31.8 5.35679 33.2C6.65679 34.5 7.35679 36.3 7.35679 38.2C5.75679 38.1 4.25679 37.5 3.05679 36.5ZM10.7568 32.1C11.7568 30.8 13.1568 30 14.6568 29.7C14.9568 31.5 14.6568 33.4 13.6568 35C12.6568 36.6 11.0568 37.7 9.25679 38.1C9.05679 37.1 9.05679 36 9.35679 35C9.65679 33.8 10.0568 32.9 10.7568 32.1ZM1.85679 26.3C1.25679 25.5 0.856787 24.5 0.656787 23.5C0.456787 22.5 0.456787 21.4 0.756787 20.4C2.55679 20.9 3.95679 22.2 4.85679 23.8C5.75679 25.4 5.95679 27.3 5.55679 29.1C4.05679 28.6 2.75679 27.6 1.85679 26.3ZM10.4568 24.1C11.7568 23.2 13.2568 22.7 14.8568 22.8C14.7568 24.6 13.8568 26.4 12.4568 27.6C11.0568 28.8 9.25679 29.5 7.45679 29.4C7.55679 28.3 7.85679 27.3 8.35679 26.4C8.85679 25.5 9.55679 24.7 10.4568 24.1ZM2.85679 16C2.55679 15 2.45679 13.9 2.65679 12.9C2.75679 11.9 3.15679 10.9 3.75679 10C5.25679 11.1 6.25679 12.7 6.65679 14.5C6.95679 16.3 6.65679 18.2 5.65679 19.8C4.25679 18.9 3.35679 17.5 2.85679 16ZM11.7568 16.6C13.2568 16.1 14.8568 16.2 16.3568 16.7C15.6568 18.4 14.2568 19.8 12.6568 20.5C10.9568 21.2 9.05679 21.3 7.35679 20.6C7.75679 19.6 8.35679 18.8 9.15679 18.1C9.85679 17.5 10.7568 16.9 11.7568 16.6ZM7.25679 7.8C6.95679 5.6 7.75679 3.5 9.05679 2C10.3568 3.3 11.0568 5.1 11.0568 7C11.0568 8.9 10.3568 10.7 9.15679 12C8.15679 10.8 7.45679 9.4 7.25679 7.8ZM15.8568 9.9C17.4568 9.7 18.9568 10 20.3568 10.9C19.3568 12.5 17.7568 13.6 16.0568 14C14.2568 14.4 12.3568 14.1 10.8568 13.2C11.4568 12.3 12.1568 11.6 13.0568 11C13.8568 10.4 14.8568 10.1 15.8568 9.9ZM16.9568 2.1C18.1568 1.1 19.6568 0.6 21.2568 0.5C21.1568 2.4 20.4568 4.1 19.1568 5.4C17.8568 6.7 16.0568 7.4 14.2568 7.5C14.2568 6.4 14.5568 5.4 15.0568 4.5C15.4568 3.5 16.1568 2.7 16.9568 2.1Z" fill="#6B6B6B"></path>
</svg>