<svg width="180" height="180" viewBox="0 0 180 180" fill="none" xmlns="http://www.w3.org/2000/svg">
<path class="logo-svg-bg" d="M0 90C0 66.7381 0 55.1072 2.94314 45.6623C9.29823 25.2681 25.2681 9.29823 45.6623 2.94314C55.1072 0 66.7381 0 90 0V0C113.262 0 124.893 0 134.338 2.94314C154.732 9.29823 170.702 25.2681 177.057 45.6623C180 55.1072 180 66.7381 180 90V90C180 113.262 180 124.893 177.057 134.338C170.702 154.732 154.732 170.702 134.338 177.057C124.893 180 113.262 180 90 180V180C66.7381 180 55.1072 180 45.6623 177.057C25.2681 170.702 9.29823 154.732 2.94314 134.338C0 124.893 0 113.262 0 90V90Z" fill="#FF8E3C"/>
<g clip-path="url(#clip0_482_25752)">
<path d="M106.43 59.0625L112.463 63.2812L109.045 93.9515L97.7814 108.97L96.6423 110.489L96.2625 112.388L94.0689 123.272L84.2814 119.053L94.2376 106.608L95.5876 104.92L95.9671 102.769L103.392 59.0625H106.43ZM109.045 50.625H96.3892L87.9517 101.25L71.0767 122.344L100.608 135L104.827 113.906L117.483 97.0312L121.702 59.0625L109.341 50.625H109.045Z" fill="white"/>
<path d="M91.5381 100.491L43.2334 66.3611L100.608 70.6642L100.018 79.1017L73.0178 77.0767L96.4318 93.572L91.5381 100.491Z" fill="white"/>
<path d="M121.406 59.0625H142.5V63.2812L112.969 67.5L121.406 59.0625Z" fill="white"/>
<path opacity="0.5" d="M87.6562 50.625H75V54.8438H87.6562V50.625Z" fill="white"/>
<path opacity="0.25" d="M70.7812 50.625H66.5625V54.8438H70.7812V50.625Z" fill="white"/>
<path opacity="0.5" d="M70.7812 88.5938H49.6875V92.8125H70.7812V88.5938Z" fill="white"/>
<path opacity="0.25" d="M45.4688 88.5938H41.25V92.8125H45.4688V88.5938Z" fill="white"/>
<path opacity="0.5" d="M75 109.688H66.5625V113.906H75V109.688Z" fill="white"/>
<path opacity="0.25" d="M62.3438 109.688H58.125V113.906H62.3438V109.688Z" fill="white"/>
</g>
<defs>
<clipPath id="clip0_482_25752">
<rect width="101.25" height="84.375" fill="white" transform="translate(41.25 50.625)"/>
</clipPath>
</defs>
</svg>
