<svg width="580" height="269" viewBox="0 0 580 269" fill="none" xmlns="http://www.w3.org/2000/svg">
<g clip-path="url(#clip0_822_40279)">
<path d="M0 9.99999C0 4.47715 4.47715 0 10 0H570C575.523 0 580 4.47715 580 10V259C580 264.523 575.523 269 570 269H9.99999C4.47714 269 0 264.523 0 259V9.99999Z" fill="white"/>
<circle cx="35" cy="35" r="14.5" stroke="#E6E6E6"/>
<path d="M29.0312 31.0625C28.8229 31.1875 28.6562 31.3542 28.5312 31.5625C28.4062 31.7708 28.3438 32 28.3438 32.25V37.75C28.3438 38 28.4062 38.2292 28.5312 38.4375C28.6562 38.6458 28.8229 38.8125 29.0312 38.9375L34.3438 41.9375C34.5521 42.0625 34.7604 42.125 34.9688 42.125C35.2188 42.125 35.4479 42.0625 35.6562 41.9375L41.0312 38.9375C41.2396 38.8125 41.3854 38.6458 41.4688 38.4375C41.5938 38.2292 41.6562 38 41.6562 37.75V32.25C41.6562 32 41.5938 31.7708 41.4688 31.5625C41.3854 31.3542 41.2396 31.1875 41.0312 31.0625L35.6562 28.0625C35.4479 27.9375 35.2188 27.875 34.9688 27.875C34.7604 27.875 34.5521 27.9375 34.3438 28.0625L29.0312 31.0625ZM29.6562 32.25L35.0312 29.1875L40.3438 32.25V37.75L35.0312 40.8125L29.6562 37.75V32.25ZM34.9062 35.0625L34.3438 36.4375C34.2188 36.7292 34.0104 36.8958 33.7188 36.9375C33.4271 36.9375 33.1979 36.8333 33.0312 36.625L32.3438 35.5625C32.2188 35.6458 32.0938 35.6875 31.9688 35.6875H31.0312V34.3125H31.5938L31.7188 34.125C31.8438 33.875 32.0312 33.75 32.2812 33.75C32.5729 33.7083 32.8021 33.8125 32.9688 34.0625L33.5312 34.9375L34.3438 32.9375C34.4271 32.7292 34.5521 32.6042 34.7188 32.5625C34.9271 32.4792 35.1146 32.4792 35.2812 32.5625C35.4896 32.6458 35.6354 32.7917 35.7188 33L36.5312 35.8125L37.0312 34.75C37.1146 34.625 37.2188 34.5208 37.3438 34.4375C37.4688 34.3542 37.5938 34.3125 37.7188 34.3125H39.0312V35.6875H38.0938L37.0312 37.8125C36.9062 38.0208 36.7396 38.1458 36.5312 38.1875C36.3646 38.2292 36.1771 38.2083 35.9688 38.125C35.8021 38.0417 35.6979 37.8958 35.6562 37.6875L34.9062 35.0625Z" fill="#505050"/>
<path d="M61.1426 29.2031H65.915C66.8936 29.2031 67.7344 29.3496 68.4375 29.6426C69.1465 29.9355 69.6914 30.3691 70.0723 30.9434C70.4531 31.5176 70.6436 32.2236 70.6436 33.0615C70.6436 33.7471 70.5264 34.3359 70.292 34.8281C70.0635 35.3145 69.7383 35.7217 69.3164 36.0498C68.9004 36.3721 68.4111 36.6299 67.8486 36.8232L67.0137 37.2627H62.8652L62.8477 35.2061H65.9326C66.3955 35.2061 66.7793 35.124 67.084 34.96C67.3887 34.7959 67.6172 34.5674 67.7695 34.2744C67.9277 33.9814 68.0068 33.6416 68.0068 33.2549C68.0068 32.8447 67.9307 32.4902 67.7783 32.1914C67.626 31.8926 67.3945 31.6641 67.084 31.5059C66.7734 31.3477 66.3838 31.2686 65.915 31.2686H63.7793V42H61.1426V29.2031ZM68.2969 42L65.3789 36.2959L68.165 36.2783L71.1182 41.877V42H68.2969ZM76.6426 42.1758C75.9043 42.1758 75.2422 42.0586 74.6562 41.8242C74.0703 41.584 73.5723 41.2529 73.1621 40.8311C72.7578 40.4092 72.4473 39.9199 72.2305 39.3633C72.0137 38.8008 71.9053 38.2031 71.9053 37.5703V37.2188C71.9053 36.498 72.0078 35.8389 72.2129 35.2412C72.418 34.6436 72.7109 34.125 73.0918 33.6855C73.4785 33.2461 73.9473 32.9092 74.498 32.6748C75.0488 32.4346 75.6699 32.3145 76.3613 32.3145C77.0352 32.3145 77.6328 32.4258 78.1543 32.6484C78.6758 32.8711 79.1123 33.1875 79.4639 33.5977C79.8213 34.0078 80.0908 34.5 80.2725 35.0742C80.4541 35.6426 80.5449 36.2754 80.5449 36.9727V38.0273H72.9863V36.3398H78.0576V36.1465C78.0576 35.7949 77.9932 35.4814 77.8643 35.2061C77.7412 34.9248 77.5537 34.7021 77.3018 34.5381C77.0498 34.374 76.7275 34.292 76.335 34.292C76.001 34.292 75.7139 34.3652 75.4736 34.5117C75.2334 34.6582 75.0371 34.8633 74.8848 35.127C74.7383 35.3906 74.627 35.7012 74.5508 36.0586C74.4805 36.4102 74.4453 36.7969 74.4453 37.2188V37.5703C74.4453 37.9512 74.498 38.3027 74.6035 38.625C74.7148 38.9473 74.8701 39.2256 75.0693 39.46C75.2744 39.6943 75.5205 39.876 75.8076 40.0049C76.1006 40.1338 76.4316 40.1982 76.8008 40.1982C77.2578 40.1982 77.6826 40.1104 78.0752 39.9346C78.4736 39.7529 78.8164 39.4805 79.1035 39.1172L80.334 40.4531C80.1348 40.7402 79.8623 41.0156 79.5166 41.2793C79.1768 41.543 78.7666 41.7598 78.2861 41.9297C77.8057 42.0938 77.2578 42.1758 76.6426 42.1758ZM86.8779 39.3721C86.8779 39.1904 86.8252 39.0264 86.7197 38.8799C86.6143 38.7334 86.418 38.5986 86.1309 38.4756C85.8496 38.3467 85.4424 38.2295 84.9092 38.124C84.4287 38.0186 83.9805 37.8867 83.5645 37.7285C83.1543 37.5645 82.7969 37.3682 82.4922 37.1396C82.1934 36.9111 81.959 36.6416 81.7891 36.3311C81.6191 36.0146 81.5342 35.6543 81.5342 35.25C81.5342 34.8516 81.6191 34.4766 81.7891 34.125C81.9648 33.7734 82.2139 33.4629 82.5361 33.1934C82.8643 32.918 83.2627 32.7041 83.7314 32.5518C84.2061 32.3936 84.7393 32.3145 85.3311 32.3145C86.1572 32.3145 86.8662 32.4463 87.458 32.71C88.0557 32.9736 88.5127 33.3369 88.8291 33.7998C89.1514 34.2568 89.3125 34.7783 89.3125 35.3643H86.7812C86.7812 35.1182 86.7285 34.8984 86.623 34.7051C86.5234 34.5059 86.3652 34.3506 86.1484 34.2393C85.9375 34.1221 85.6621 34.0635 85.3223 34.0635C85.041 34.0635 84.7979 34.1133 84.5928 34.2129C84.3877 34.3066 84.2295 34.4355 84.1182 34.5996C84.0127 34.7578 83.96 34.9336 83.96 35.127C83.96 35.2734 83.9893 35.4053 84.0479 35.5225C84.1123 35.6338 84.2148 35.7363 84.3555 35.8301C84.4961 35.9238 84.6777 36.0117 84.9004 36.0938C85.1289 36.1699 85.4102 36.2402 85.7441 36.3047C86.4297 36.4453 87.042 36.6299 87.5811 36.8584C88.1201 37.0811 88.5479 37.3857 88.8643 37.7725C89.1807 38.1533 89.3389 38.6543 89.3389 39.2754C89.3389 39.6973 89.2451 40.084 89.0576 40.4355C88.8701 40.7871 88.6006 41.0947 88.249 41.3584C87.8975 41.6162 87.4756 41.8184 86.9834 41.9648C86.4971 42.1055 85.9492 42.1758 85.3398 42.1758C84.4551 42.1758 83.7051 42.0176 83.0898 41.7012C82.4805 41.3848 82.0176 40.9834 81.7012 40.4971C81.3906 40.0049 81.2354 39.501 81.2354 38.9854H83.6348C83.6465 39.3311 83.7344 39.6094 83.8984 39.8203C84.0684 40.0312 84.2822 40.1836 84.54 40.2773C84.8037 40.3711 85.0879 40.418 85.3926 40.418C85.7207 40.418 85.9932 40.374 86.21 40.2861C86.4268 40.1924 86.5908 40.0693 86.7021 39.917C86.8193 39.7588 86.8779 39.5771 86.8779 39.3721ZM93.2637 34.3184V45.6562H90.7324V32.4902H93.0791L93.2637 34.3184ZM99.2842 37.1396V37.3242C99.2842 38.0156 99.2021 38.6572 99.0381 39.249C98.8799 39.8408 98.6455 40.3564 98.335 40.7959C98.0244 41.2295 97.6377 41.5693 97.1748 41.8154C96.7178 42.0557 96.1904 42.1758 95.5928 42.1758C95.0127 42.1758 94.5088 42.0586 94.0811 41.8242C93.6533 41.5898 93.293 41.2617 93 40.8398C92.7129 40.4121 92.4814 39.917 92.3057 39.3545C92.1299 38.792 91.9951 38.1885 91.9014 37.5439V37.0605C91.9951 36.3691 92.1299 35.7363 92.3057 35.1621C92.4814 34.582 92.7129 34.0811 93 33.6592C93.293 33.2314 93.6504 32.9004 94.0723 32.666C94.5 32.4316 95.001 32.3145 95.5752 32.3145C96.1787 32.3145 96.709 32.4287 97.166 32.6572C97.6289 32.8857 98.0156 33.2139 98.3262 33.6416C98.6426 34.0693 98.8799 34.5791 99.0381 35.1709C99.2021 35.7627 99.2842 36.4189 99.2842 37.1396ZM96.7441 37.3242V37.1396C96.7441 36.7354 96.709 36.3633 96.6387 36.0234C96.5742 35.6777 96.4688 35.376 96.3223 35.1182C96.1816 34.8604 95.9941 34.6611 95.7598 34.5205C95.5312 34.374 95.2529 34.3008 94.9248 34.3008C94.5791 34.3008 94.2832 34.3564 94.0371 34.4678C93.7969 34.5791 93.6006 34.7402 93.4482 34.9512C93.2959 35.1621 93.1816 35.4141 93.1055 35.707C93.0293 36 92.9824 36.3311 92.9648 36.7002V37.9219C92.9941 38.3555 93.0762 38.7451 93.2109 39.0908C93.3457 39.4307 93.5537 39.7002 93.835 39.8994C94.1162 40.0986 94.4854 40.1982 94.9424 40.1982C95.2764 40.1982 95.5576 40.125 95.7861 39.9785C96.0146 39.8262 96.1992 39.6182 96.3398 39.3545C96.4863 39.0908 96.5889 38.7861 96.6475 38.4404C96.7119 38.0947 96.7441 37.7227 96.7441 37.3242ZM100.203 37.3418V37.1572C100.203 36.46 100.303 35.8184 100.502 35.2324C100.701 34.6406 100.991 34.1279 101.372 33.6943C101.753 33.2607 102.222 32.9238 102.778 32.6836C103.335 32.4375 103.974 32.3145 104.694 32.3145C105.415 32.3145 106.057 32.4375 106.619 32.6836C107.182 32.9238 107.653 33.2607 108.034 33.6943C108.421 34.1279 108.714 34.6406 108.913 35.2324C109.112 35.8184 109.212 36.46 109.212 37.1572V37.3418C109.212 38.0332 109.112 38.6748 108.913 39.2666C108.714 39.8525 108.421 40.3652 108.034 40.8047C107.653 41.2383 107.185 41.5752 106.628 41.8154C106.071 42.0557 105.433 42.1758 104.712 42.1758C103.991 42.1758 103.35 42.0557 102.787 41.8154C102.23 41.5752 101.759 41.2383 101.372 40.8047C100.991 40.3652 100.701 39.8525 100.502 39.2666C100.303 38.6748 100.203 38.0332 100.203 37.3418ZM102.734 37.1572V37.3418C102.734 37.7402 102.77 38.1123 102.84 38.458C102.91 38.8037 103.021 39.1084 103.174 39.3721C103.332 39.6299 103.537 39.832 103.789 39.9785C104.041 40.125 104.349 40.1982 104.712 40.1982C105.063 40.1982 105.365 40.125 105.617 39.9785C105.869 39.832 106.071 39.6299 106.224 39.3721C106.376 39.1084 106.487 38.8037 106.558 38.458C106.634 38.1123 106.672 37.7402 106.672 37.3418V37.1572C106.672 36.7705 106.634 36.4072 106.558 36.0674C106.487 35.7217 106.373 35.417 106.215 35.1533C106.062 34.8838 105.86 34.6729 105.608 34.5205C105.356 34.3682 105.052 34.292 104.694 34.292C104.337 34.292 104.032 34.3682 103.78 34.5205C103.534 34.6729 103.332 34.8838 103.174 35.1533C103.021 35.417 102.91 35.7217 102.84 36.0674C102.77 36.4072 102.734 36.7705 102.734 37.1572ZM112.996 34.5205V42H110.465V32.4902H112.838L112.996 34.5205ZM112.627 36.9111H111.941C111.941 36.208 112.032 35.5752 112.214 35.0127C112.396 34.4443 112.65 33.9609 112.979 33.5625C113.307 33.1582 113.696 32.8506 114.147 32.6396C114.604 32.4229 115.114 32.3145 115.677 32.3145C116.122 32.3145 116.529 32.3789 116.898 32.5078C117.268 32.6367 117.584 32.8418 117.848 33.123C118.117 33.4043 118.322 33.7764 118.463 34.2393C118.609 34.7021 118.683 35.2676 118.683 35.9355V42H116.134V35.9268C116.134 35.5049 116.075 35.1768 115.958 34.9424C115.841 34.708 115.668 34.5439 115.439 34.4502C115.217 34.3506 114.941 34.3008 114.613 34.3008C114.273 34.3008 113.978 34.3682 113.726 34.5029C113.479 34.6377 113.274 34.8252 113.11 35.0654C112.952 35.2998 112.832 35.5752 112.75 35.8916C112.668 36.208 112.627 36.5479 112.627 36.9111ZM125.499 39.3721C125.499 39.1904 125.446 39.0264 125.341 38.8799C125.235 38.7334 125.039 38.5986 124.752 38.4756C124.471 38.3467 124.063 38.2295 123.53 38.124C123.05 38.0186 122.602 37.8867 122.186 37.7285C121.775 37.5645 121.418 37.3682 121.113 37.1396C120.814 36.9111 120.58 36.6416 120.41 36.3311C120.24 36.0146 120.155 35.6543 120.155 35.25C120.155 34.8516 120.24 34.4766 120.41 34.125C120.586 33.7734 120.835 33.4629 121.157 33.1934C121.485 32.918 121.884 32.7041 122.353 32.5518C122.827 32.3936 123.36 32.3145 123.952 32.3145C124.778 32.3145 125.487 32.4463 126.079 32.71C126.677 32.9736 127.134 33.3369 127.45 33.7998C127.772 34.2568 127.934 34.7783 127.934 35.3643H125.402C125.402 35.1182 125.35 34.8984 125.244 34.7051C125.145 34.5059 124.986 34.3506 124.77 34.2393C124.559 34.1221 124.283 34.0635 123.943 34.0635C123.662 34.0635 123.419 34.1133 123.214 34.2129C123.009 34.3066 122.851 34.4355 122.739 34.5996C122.634 34.7578 122.581 34.9336 122.581 35.127C122.581 35.2734 122.61 35.4053 122.669 35.5225C122.733 35.6338 122.836 35.7363 122.977 35.8301C123.117 35.9238 123.299 36.0117 123.521 36.0938C123.75 36.1699 124.031 36.2402 124.365 36.3047C125.051 36.4453 125.663 36.6299 126.202 36.8584C126.741 37.0811 127.169 37.3857 127.485 37.7725C127.802 38.1533 127.96 38.6543 127.96 39.2754C127.96 39.6973 127.866 40.084 127.679 40.4355C127.491 40.7871 127.222 41.0947 126.87 41.3584C126.519 41.6162 126.097 41.8184 125.604 41.9648C125.118 42.1055 124.57 42.1758 123.961 42.1758C123.076 42.1758 122.326 42.0176 121.711 41.7012C121.102 41.3848 120.639 40.9834 120.322 40.4971C120.012 40.0049 119.856 39.501 119.856 38.9854H122.256C122.268 39.3311 122.355 39.6094 122.52 39.8203C122.689 40.0312 122.903 40.1836 123.161 40.2773C123.425 40.3711 123.709 40.418 124.014 40.418C124.342 40.418 124.614 40.374 124.831 40.2861C125.048 40.1924 125.212 40.0693 125.323 39.917C125.44 39.7588 125.499 39.5771 125.499 39.3721ZM133.73 42.1758C132.992 42.1758 132.33 42.0586 131.744 41.8242C131.158 41.584 130.66 41.2529 130.25 40.8311C129.846 40.4092 129.535 39.9199 129.318 39.3633C129.102 38.8008 128.993 38.2031 128.993 37.5703V37.2188C128.993 36.498 129.096 35.8389 129.301 35.2412C129.506 34.6436 129.799 34.125 130.18 33.6855C130.566 33.2461 131.035 32.9092 131.586 32.6748C132.137 32.4346 132.758 32.3145 133.449 32.3145C134.123 32.3145 134.721 32.4258 135.242 32.6484C135.764 32.8711 136.2 33.1875 136.552 33.5977C136.909 34.0078 137.179 34.5 137.36 35.0742C137.542 35.6426 137.633 36.2754 137.633 36.9727V38.0273H130.074V36.3398H135.146V36.1465C135.146 35.7949 135.081 35.4814 134.952 35.2061C134.829 34.9248 134.642 34.7021 134.39 34.5381C134.138 34.374 133.815 34.292 133.423 34.292C133.089 34.292 132.802 34.3652 132.562 34.5117C132.321 34.6582 132.125 34.8633 131.973 35.127C131.826 35.3906 131.715 35.7012 131.639 36.0586C131.568 36.4102 131.533 36.7969 131.533 37.2188V37.5703C131.533 37.9512 131.586 38.3027 131.691 38.625C131.803 38.9473 131.958 39.2256 132.157 39.46C132.362 39.6943 132.608 39.876 132.896 40.0049C133.188 40.1338 133.52 40.1982 133.889 40.1982C134.346 40.1982 134.771 40.1104 135.163 39.9346C135.562 39.7529 135.904 39.4805 136.191 39.1172L137.422 40.4531C137.223 40.7402 136.95 41.0156 136.604 41.2793C136.265 41.543 135.854 41.7598 135.374 41.9297C134.894 42.0938 134.346 42.1758 133.73 42.1758ZM148.462 29.2031V42H145.834V29.2031H148.462ZM152.399 29.2031V31.2686H141.958V29.2031H152.399ZM156.166 32.4902V42H153.626V32.4902H156.166ZM153.468 30.0117C153.468 29.6426 153.597 29.3379 153.854 29.0977C154.112 28.8574 154.458 28.7373 154.892 28.7373C155.319 28.7373 155.662 28.8574 155.92 29.0977C156.184 29.3379 156.315 29.6426 156.315 30.0117C156.315 30.3809 156.184 30.6855 155.92 30.9258C155.662 31.166 155.319 31.2861 154.892 31.2861C154.458 31.2861 154.112 31.166 153.854 30.9258C153.597 30.6855 153.468 30.3809 153.468 30.0117ZM160.539 34.459V42H157.999V32.4902H160.381L160.539 34.459ZM160.188 36.9111H159.484C159.484 36.249 159.563 35.6396 159.722 35.083C159.886 34.5205 160.123 34.0342 160.434 33.624C160.75 33.208 161.14 32.8857 161.603 32.6572C162.065 32.4287 162.602 32.3145 163.211 32.3145C163.633 32.3145 164.02 32.3789 164.371 32.5078C164.723 32.6309 165.024 32.8271 165.276 33.0967C165.534 33.3604 165.733 33.7061 165.874 34.1338C166.015 34.5557 166.085 35.0625 166.085 35.6543V42H163.554V35.9355C163.554 35.502 163.495 35.168 163.378 34.9336C163.261 34.6992 163.094 34.5352 162.877 34.4414C162.666 34.3477 162.411 34.3008 162.112 34.3008C161.784 34.3008 161.497 34.3682 161.251 34.5029C161.011 34.6377 160.812 34.8252 160.653 35.0654C160.495 35.2998 160.378 35.5752 160.302 35.8916C160.226 36.208 160.188 36.5479 160.188 36.9111ZM165.848 36.6211L164.942 36.7354C164.942 36.1143 165.019 35.5371 165.171 35.0039C165.329 34.4707 165.561 34.002 165.865 33.5977C166.176 33.1934 166.56 32.8799 167.017 32.6572C167.474 32.4287 168.001 32.3145 168.599 32.3145C169.056 32.3145 169.472 32.3818 169.847 32.5166C170.222 32.6455 170.541 32.8535 170.805 33.1406C171.074 33.4219 171.279 33.791 171.42 34.248C171.566 34.7051 171.64 35.2646 171.64 35.9268V42H169.1V35.9268C169.1 35.4873 169.041 35.1533 168.924 34.9248C168.812 34.6904 168.648 34.5293 168.432 34.4414C168.221 34.3477 167.969 34.3008 167.676 34.3008C167.371 34.3008 167.104 34.3623 166.876 34.4854C166.647 34.6025 166.457 34.7666 166.305 34.9775C166.152 35.1885 166.038 35.4346 165.962 35.7158C165.886 35.9912 165.848 36.293 165.848 36.6211ZM177.727 42.1758C176.988 42.1758 176.326 42.0586 175.74 41.8242C175.154 41.584 174.656 41.2529 174.246 40.8311C173.842 40.4092 173.531 39.9199 173.314 39.3633C173.098 38.8008 172.989 38.2031 172.989 37.5703V37.2188C172.989 36.498 173.092 35.8389 173.297 35.2412C173.502 34.6436 173.795 34.125 174.176 33.6855C174.562 33.2461 175.031 32.9092 175.582 32.6748C176.133 32.4346 176.754 32.3145 177.445 32.3145C178.119 32.3145 178.717 32.4258 179.238 32.6484C179.76 32.8711 180.196 33.1875 180.548 33.5977C180.905 34.0078 181.175 34.5 181.356 35.0742C181.538 35.6426 181.629 36.2754 181.629 36.9727V38.0273H174.07V36.3398H179.142V36.1465C179.142 35.7949 179.077 35.4814 178.948 35.2061C178.825 34.9248 178.638 34.7021 178.386 34.5381C178.134 34.374 177.812 34.292 177.419 34.292C177.085 34.292 176.798 34.3652 176.558 34.5117C176.317 34.6582 176.121 34.8633 175.969 35.127C175.822 35.3906 175.711 35.7012 175.635 36.0586C175.564 36.4102 175.529 36.7969 175.529 37.2188V37.5703C175.529 37.9512 175.582 38.3027 175.688 38.625C175.799 38.9473 175.954 39.2256 176.153 39.46C176.358 39.6943 176.604 39.876 176.892 40.0049C177.185 40.1338 177.516 40.1982 177.885 40.1982C178.342 40.1982 178.767 40.1104 179.159 39.9346C179.558 39.7529 179.9 39.4805 180.188 39.1172L181.418 40.4531C181.219 40.7402 180.946 41.0156 180.601 41.2793C180.261 41.543 179.851 41.7598 179.37 41.9297C178.89 42.0938 178.342 42.1758 177.727 42.1758Z" fill="#1A1A1A"/>
<rect x="296" y="23" width="74.6667" height="24" rx="4" fill="white"/>
<path d="M315.711 37.5146V39H311.058V37.5146H315.711ZM311.674 29.7578V39H309.77V29.7578H311.674ZM320.146 37.4512V34.3916C320.146 34.1715 320.11 33.9832 320.038 33.8267C319.966 33.6659 319.854 33.541 319.701 33.4521C319.553 33.3633 319.361 33.3188 319.124 33.3188C318.92 33.3188 318.745 33.3548 318.597 33.4268C318.449 33.4945 318.334 33.5939 318.254 33.7251C318.174 33.8521 318.133 34.0023 318.133 34.1758H316.305C316.305 33.8838 316.373 33.6066 316.508 33.3442C316.644 33.0819 316.84 32.8512 317.099 32.6523C317.357 32.4492 317.664 32.2905 318.019 32.1763C318.379 32.062 318.781 32.0049 319.225 32.0049C319.758 32.0049 320.232 32.0938 320.647 32.2715C321.062 32.4492 321.388 32.7158 321.625 33.0713C321.866 33.4268 321.986 33.8711 321.986 34.4043V37.3433C321.986 37.7199 322.01 38.0288 322.056 38.27C322.103 38.507 322.17 38.7144 322.259 38.8921V39H320.412C320.323 38.8138 320.256 38.5811 320.209 38.3018C320.167 38.0182 320.146 37.7347 320.146 37.4512ZM320.387 34.8169L320.399 35.8516H319.377C319.136 35.8516 318.927 35.8791 318.749 35.9341C318.571 35.9891 318.425 36.0674 318.311 36.1689C318.197 36.2663 318.112 36.3805 318.057 36.5117C318.006 36.6429 317.981 36.7868 317.981 36.9434C317.981 37.0999 318.017 37.2417 318.089 37.3687C318.161 37.4914 318.264 37.5887 318.4 37.6606C318.535 37.7284 318.694 37.7622 318.876 37.7622C319.151 37.7622 319.39 37.7072 319.593 37.5972C319.796 37.4871 319.953 37.3517 320.063 37.1909C320.177 37.0301 320.236 36.8778 320.241 36.7339L320.723 37.5083C320.655 37.6818 320.562 37.8617 320.444 38.0479C320.33 38.234 320.184 38.4097 320.006 38.5747C319.828 38.7355 319.614 38.8688 319.365 38.9746C319.115 39.0762 318.819 39.127 318.476 39.127C318.04 39.127 317.645 39.0402 317.289 38.8667C316.938 38.689 316.659 38.4456 316.451 38.1367C316.248 37.8236 316.146 37.4681 316.146 37.0703C316.146 36.7106 316.214 36.3911 316.35 36.1118C316.485 35.8325 316.684 35.5977 316.946 35.4072C317.213 35.2126 317.545 35.0666 317.943 34.9692C318.341 34.8677 318.802 34.8169 319.327 34.8169H320.387ZM326.859 37.1021C326.859 36.9709 326.821 36.8524 326.745 36.7466C326.668 36.6408 326.527 36.5435 326.319 36.4546C326.116 36.3615 325.822 36.2769 325.437 36.2007C325.09 36.1245 324.766 36.0293 324.466 35.915C324.17 35.7965 323.911 35.6548 323.691 35.4897C323.476 35.3247 323.306 35.13 323.184 34.9058C323.061 34.6772 323 34.417 323 34.125C323 33.8372 323.061 33.5664 323.184 33.3125C323.311 33.0586 323.49 32.8343 323.723 32.6396C323.96 32.4408 324.248 32.2863 324.586 32.1763C324.929 32.062 325.314 32.0049 325.742 32.0049C326.338 32.0049 326.85 32.1001 327.278 32.2905C327.709 32.481 328.04 32.7433 328.268 33.0776C328.501 33.4077 328.617 33.7843 328.617 34.2075H326.789C326.789 34.0298 326.751 33.8711 326.675 33.7314C326.603 33.5876 326.489 33.4754 326.332 33.395C326.18 33.3104 325.981 33.2681 325.735 33.2681C325.532 33.2681 325.357 33.304 325.208 33.376C325.06 33.4437 324.946 33.5368 324.866 33.6553C324.79 33.7695 324.751 33.8965 324.751 34.0361C324.751 34.1419 324.773 34.2371 324.815 34.3218C324.861 34.4022 324.936 34.4762 325.037 34.5439C325.139 34.6117 325.27 34.6751 325.431 34.7344C325.596 34.7894 325.799 34.8402 326.04 34.8867C326.535 34.9883 326.977 35.1216 327.367 35.2866C327.756 35.4474 328.065 35.6675 328.293 35.9468C328.522 36.2218 328.636 36.5837 328.636 37.0322C328.636 37.3369 328.569 37.6162 328.433 37.8701C328.298 38.124 328.103 38.3462 327.849 38.5366C327.595 38.7228 327.291 38.8688 326.935 38.9746C326.584 39.0762 326.188 39.127 325.748 39.127C325.109 39.127 324.567 39.0127 324.123 38.7842C323.683 38.5557 323.349 38.2658 323.12 37.9146C322.896 37.5591 322.784 37.1951 322.784 36.8228H324.517C324.525 37.0724 324.589 37.2734 324.707 37.4258C324.83 37.5781 324.984 37.6882 325.17 37.7559C325.361 37.8236 325.566 37.8574 325.786 37.8574C326.023 37.8574 326.22 37.8257 326.376 37.7622C326.533 37.6945 326.652 37.6056 326.732 37.4956C326.817 37.3813 326.859 37.2502 326.859 37.1021ZM332.938 32.1318V33.4268H328.938V32.1318H332.938ZM329.929 30.437H331.757V36.9307C331.757 37.1296 331.782 37.2819 331.833 37.3877C331.888 37.4935 331.968 37.5675 332.074 37.6099C332.18 37.6479 332.313 37.667 332.474 37.667C332.588 37.667 332.69 37.6628 332.779 37.6543C332.872 37.6416 332.95 37.6289 333.014 37.6162L333.02 38.9619C332.863 39.0127 332.694 39.0529 332.512 39.0825C332.33 39.1121 332.129 39.127 331.909 39.127C331.507 39.127 331.156 39.0614 330.855 38.9302C330.559 38.7948 330.331 38.5789 330.17 38.2827C330.009 37.9865 329.929 37.5972 329.929 37.1147V30.437ZM342.962 37.5718V39H336.64V37.7812L339.629 34.5757C339.93 34.2414 340.167 33.9473 340.34 33.6934C340.514 33.4352 340.639 33.2046 340.715 33.0015C340.795 32.7941 340.835 32.5973 340.835 32.4111C340.835 32.1318 340.789 31.8927 340.696 31.6938C340.603 31.4907 340.465 31.3341 340.283 31.2241C340.105 31.1141 339.885 31.0591 339.623 31.0591C339.344 31.0591 339.103 31.1268 338.899 31.2622C338.701 31.3976 338.548 31.5859 338.442 31.8271C338.341 32.0684 338.29 32.3413 338.29 32.646H336.456C336.456 32.0959 336.587 31.5923 336.849 31.1353C337.111 30.674 337.482 30.3079 337.96 30.0371C338.438 29.762 339.005 29.6245 339.661 29.6245C340.309 29.6245 340.854 29.7303 341.299 29.9419C341.747 30.1493 342.086 30.4497 342.314 30.8433C342.547 31.2326 342.664 31.6981 342.664 32.2397C342.664 32.5444 342.615 32.8428 342.518 33.1348C342.42 33.4225 342.281 33.7103 342.099 33.998C341.921 34.2816 341.705 34.5693 341.451 34.8613C341.197 35.1533 340.916 35.4559 340.607 35.769L339.001 37.5718H342.962ZM350.329 35.5469V36.9814H343.67L343.582 35.8706L347.435 29.7578H348.888L347.314 32.3921L345.397 35.5469H350.329ZM349.282 29.7578V39H347.454V29.7578H349.282ZM352.929 29.25V39H351.101V29.25H352.929ZM352.669 35.3247H352.167C352.172 34.8465 352.235 34.4064 352.358 34.0044C352.481 33.5981 352.656 33.2469 352.885 32.9507C353.113 32.6502 353.386 32.4175 353.704 32.2524C354.025 32.0874 354.381 32.0049 354.77 32.0049C355.109 32.0049 355.415 32.0535 355.69 32.1509C355.97 32.244 356.209 32.3963 356.408 32.6079C356.611 32.8153 356.767 33.0882 356.877 33.4268C356.987 33.7653 357.042 34.1758 357.042 34.6582V39H355.202V34.6455C355.202 34.3408 355.157 34.1017 355.068 33.9282C354.984 33.7505 354.859 33.6257 354.694 33.5537C354.533 33.4775 354.334 33.4395 354.097 33.4395C353.835 33.4395 353.611 33.4881 353.424 33.5854C353.242 33.6828 353.096 33.8182 352.986 33.9917C352.876 34.161 352.796 34.3599 352.745 34.5884C352.694 34.8169 352.669 35.0623 352.669 35.3247Z" fill="#1A1A1A"/>
<rect x="375.667" y="23" width="74.6667" height="24" rx="4" fill="#1A1A1A"/>
<path d="M398.966 37.5146V39H394.313V37.5146H398.966ZM394.929 29.7578V39H393.025V29.7578H394.929ZM403.401 37.4512V34.3916C403.401 34.1715 403.365 33.9832 403.293 33.8267C403.221 33.6659 403.109 33.541 402.957 33.4521C402.808 33.3633 402.616 33.3188 402.379 33.3188C402.176 33.3188 402 33.3548 401.852 33.4268C401.704 33.4945 401.59 33.5939 401.509 33.7251C401.429 33.8521 401.389 34.0023 401.389 34.1758H399.561C399.561 33.8838 399.628 33.6066 399.764 33.3442C399.899 33.0819 400.096 32.8512 400.354 32.6523C400.612 32.4492 400.919 32.2905 401.274 32.1763C401.634 32.062 402.036 32.0049 402.48 32.0049C403.014 32.0049 403.488 32.0938 403.902 32.2715C404.317 32.4492 404.643 32.7158 404.88 33.0713C405.121 33.4268 405.242 33.8711 405.242 34.4043V37.3433C405.242 37.7199 405.265 38.0288 405.312 38.27C405.358 38.507 405.426 38.7144 405.515 38.8921V39H403.667C403.579 38.8138 403.511 38.5811 403.464 38.3018C403.422 38.0182 403.401 37.7347 403.401 37.4512ZM403.642 34.8169L403.655 35.8516H402.633C402.392 35.8516 402.182 35.8791 402.004 35.9341C401.827 35.9891 401.681 36.0674 401.566 36.1689C401.452 36.2663 401.368 36.3805 401.312 36.5117C401.262 36.6429 401.236 36.7868 401.236 36.9434C401.236 37.0999 401.272 37.2417 401.344 37.3687C401.416 37.4914 401.52 37.5887 401.655 37.6606C401.791 37.7284 401.949 37.7622 402.131 37.7622C402.406 37.7622 402.646 37.7072 402.849 37.5972C403.052 37.4871 403.208 37.3517 403.318 37.1909C403.433 37.0301 403.492 36.8778 403.496 36.7339L403.979 37.5083C403.911 37.6818 403.818 37.8617 403.699 38.0479C403.585 38.234 403.439 38.4097 403.261 38.5747C403.083 38.7355 402.87 38.8688 402.62 38.9746C402.37 39.0762 402.074 39.127 401.731 39.127C401.296 39.127 400.9 39.0402 400.544 38.8667C400.193 38.689 399.914 38.4456 399.707 38.1367C399.503 37.8236 399.402 37.4681 399.402 37.0703C399.402 36.7106 399.47 36.3911 399.605 36.1118C399.74 35.8325 399.939 35.5977 400.202 35.4072C400.468 35.2126 400.8 35.0666 401.198 34.9692C401.596 34.8677 402.057 34.8169 402.582 34.8169H403.642ZM410.114 37.1021C410.114 36.9709 410.076 36.8524 410 36.7466C409.924 36.6408 409.782 36.5435 409.575 36.4546C409.372 36.3615 409.077 36.2769 408.692 36.2007C408.345 36.1245 408.022 36.0293 407.721 35.915C407.425 35.7965 407.167 35.6548 406.947 35.4897C406.731 35.3247 406.562 35.13 406.439 34.9058C406.316 34.6772 406.255 34.417 406.255 34.125C406.255 33.8372 406.316 33.5664 406.439 33.3125C406.566 33.0586 406.746 32.8343 406.979 32.6396C407.215 32.4408 407.503 32.2863 407.842 32.1763C408.185 32.062 408.57 32.0049 408.997 32.0049C409.594 32.0049 410.106 32.1001 410.533 32.2905C410.965 32.481 411.295 32.7433 411.523 33.0776C411.756 33.4077 411.873 33.7843 411.873 34.2075H410.044C410.044 34.0298 410.006 33.8711 409.93 33.7314C409.858 33.5876 409.744 33.4754 409.587 33.395C409.435 33.3104 409.236 33.2681 408.991 33.2681C408.788 33.2681 408.612 33.304 408.464 33.376C408.316 33.4437 408.201 33.5368 408.121 33.6553C408.045 33.7695 408.007 33.8965 408.007 34.0361C408.007 34.1419 408.028 34.2371 408.07 34.3218C408.117 34.4022 408.191 34.4762 408.292 34.5439C408.394 34.6117 408.525 34.6751 408.686 34.7344C408.851 34.7894 409.054 34.8402 409.295 34.8867C409.791 34.9883 410.233 35.1216 410.622 35.2866C411.011 35.4474 411.32 35.6675 411.549 35.9468C411.777 36.2218 411.892 36.5837 411.892 37.0322C411.892 37.3369 411.824 37.6162 411.688 37.8701C411.553 38.124 411.358 38.3462 411.104 38.5366C410.851 38.7228 410.546 38.8688 410.19 38.9746C409.839 39.0762 409.444 39.127 409.003 39.127C408.364 39.127 407.823 39.0127 407.378 38.7842C406.938 38.5557 406.604 38.2658 406.375 37.9146C406.151 37.5591 406.039 37.1951 406.039 36.8228H407.772C407.78 37.0724 407.844 37.2734 407.962 37.4258C408.085 37.5781 408.24 37.6882 408.426 37.7559C408.616 37.8236 408.821 37.8574 409.042 37.8574C409.278 37.8574 409.475 37.8257 409.632 37.7622C409.788 37.6945 409.907 37.6056 409.987 37.4956C410.072 37.3813 410.114 37.2502 410.114 37.1021ZM416.193 32.1318V33.4268H412.194V32.1318H416.193ZM413.184 30.437H415.012V36.9307C415.012 37.1296 415.038 37.2819 415.088 37.3877C415.143 37.4935 415.224 37.5675 415.33 37.6099C415.435 37.6479 415.569 37.667 415.729 37.667C415.844 37.667 415.945 37.6628 416.034 37.6543C416.127 37.6416 416.206 37.6289 416.269 37.6162L416.275 38.9619C416.119 39.0127 415.95 39.0529 415.768 39.0825C415.586 39.1121 415.385 39.127 415.165 39.127C414.763 39.127 414.411 39.0614 414.111 38.9302C413.815 38.7948 413.586 38.5789 413.425 38.2827C413.264 37.9865 413.184 37.5972 413.184 37.1147V30.437ZM426.173 29.7578V30.7417L422.599 39H420.669L424.243 31.186H419.641V29.7578H426.173ZM431.242 37.502V29.25H433.083V39H431.426L431.242 37.502ZM426.9 35.6484V35.5151C426.9 34.9904 426.96 34.5143 427.078 34.0869C427.197 33.6553 427.37 33.285 427.599 32.9761C427.827 32.6672 428.109 32.4281 428.443 32.2588C428.777 32.0895 429.158 32.0049 429.585 32.0049C429.987 32.0049 430.339 32.0895 430.639 32.2588C430.944 32.4281 431.202 32.6693 431.414 32.9824C431.629 33.2913 431.803 33.6574 431.934 34.0806C432.065 34.4995 432.16 34.9587 432.22 35.458V35.75C432.16 36.2282 432.065 36.6725 431.934 37.083C431.803 37.4935 431.629 37.8532 431.414 38.1621C431.202 38.4668 430.944 38.7038 430.639 38.873C430.334 39.0423 429.979 39.127 429.573 39.127C429.145 39.127 428.764 39.0402 428.43 38.8667C428.1 38.6932 427.821 38.4499 427.592 38.1367C427.368 37.8236 427.197 37.4554 427.078 37.0322C426.96 36.609 426.9 36.1478 426.9 35.6484ZM428.729 35.5151V35.6484C428.729 35.932 428.75 36.1965 428.792 36.4419C428.839 36.6873 428.913 36.9053 429.014 37.0957C429.12 37.2819 429.255 37.4279 429.42 37.5337C429.59 37.6353 429.795 37.686 430.036 37.686C430.349 37.686 430.607 37.6162 430.811 37.4766C431.014 37.3327 431.168 37.1359 431.274 36.8862C431.384 36.6366 431.447 36.3488 431.464 36.0229V35.1914C431.452 34.9248 431.414 34.6857 431.35 34.4741C431.291 34.2583 431.202 34.0742 431.083 33.9219C430.969 33.7695 430.825 33.651 430.652 33.5664C430.483 33.4818 430.282 33.4395 430.049 33.4395C429.812 33.4395 429.609 33.4945 429.439 33.6045C429.27 33.7103 429.133 33.8563 429.027 34.0425C428.925 34.2287 428.849 34.4487 428.798 34.7026C428.752 34.9523 428.729 35.2231 428.729 35.5151Z" fill="white"/>
<path d="M475.025 37.5146V39H470.372V37.5146H475.025ZM470.988 29.7578V39H469.083V29.7578H470.988ZM479.459 37.4512V34.3916C479.459 34.1715 479.424 33.9832 479.352 33.8267C479.28 33.6659 479.167 33.541 479.015 33.4521C478.867 33.3633 478.674 33.3188 478.438 33.3188C478.234 33.3188 478.059 33.3548 477.911 33.4268C477.763 33.4945 477.648 33.5939 477.568 33.7251C477.487 33.8521 477.447 34.0023 477.447 34.1758H475.619C475.619 33.8838 475.687 33.6066 475.822 33.3442C475.958 33.0819 476.154 32.8512 476.413 32.6523C476.671 32.4492 476.978 32.2905 477.333 32.1763C477.693 32.062 478.095 32.0049 478.539 32.0049C479.072 32.0049 479.546 32.0938 479.961 32.2715C480.376 32.4492 480.701 32.7158 480.938 33.0713C481.18 33.4268 481.3 33.8711 481.3 34.4043V37.3433C481.3 37.7199 481.324 38.0288 481.37 38.27C481.417 38.507 481.484 38.7144 481.573 38.8921V39H479.726C479.637 38.8138 479.569 38.5811 479.523 38.3018C479.481 38.0182 479.459 37.7347 479.459 37.4512ZM479.701 34.8169L479.713 35.8516H478.691C478.45 35.8516 478.241 35.8791 478.063 35.9341C477.885 35.9891 477.739 36.0674 477.625 36.1689C477.511 36.2663 477.426 36.3805 477.371 36.5117C477.32 36.6429 477.295 36.7868 477.295 36.9434C477.295 37.0999 477.331 37.2417 477.403 37.3687C477.475 37.4914 477.578 37.5887 477.714 37.6606C477.849 37.7284 478.008 37.7622 478.19 37.7622C478.465 37.7622 478.704 37.7072 478.907 37.5972C479.11 37.4871 479.267 37.3517 479.377 37.1909C479.491 37.0301 479.55 36.8778 479.555 36.7339L480.037 37.5083C479.969 37.6818 479.876 37.8617 479.758 38.0479C479.644 38.234 479.498 38.4097 479.32 38.5747C479.142 38.7355 478.928 38.8688 478.679 38.9746C478.429 39.0762 478.133 39.127 477.79 39.127C477.354 39.127 476.958 39.0402 476.603 38.8667C476.252 38.689 475.972 38.4456 475.765 38.1367C475.562 37.8236 475.46 37.4681 475.46 37.0703C475.46 36.7106 475.528 36.3911 475.664 36.1118C475.799 35.8325 475.998 35.5977 476.26 35.4072C476.527 35.2126 476.859 35.0666 477.257 34.9692C477.655 34.8677 478.116 34.8169 478.641 34.8169H479.701ZM486.173 37.1021C486.173 36.9709 486.135 36.8524 486.059 36.7466C485.982 36.6408 485.841 36.5435 485.633 36.4546C485.43 36.3615 485.136 36.2769 484.751 36.2007C484.404 36.1245 484.08 36.0293 483.78 35.915C483.484 35.7965 483.225 35.6548 483.005 35.4897C482.79 35.3247 482.62 35.13 482.498 34.9058C482.375 34.6772 482.313 34.417 482.313 34.125C482.313 33.8372 482.375 33.5664 482.498 33.3125C482.625 33.0586 482.804 32.8343 483.037 32.6396C483.274 32.4408 483.562 32.2863 483.9 32.1763C484.243 32.062 484.628 32.0049 485.056 32.0049C485.652 32.0049 486.164 32.1001 486.592 32.2905C487.023 32.481 487.354 32.7433 487.582 33.0776C487.815 33.4077 487.931 33.7843 487.931 34.2075H486.103C486.103 34.0298 486.065 33.8711 485.989 33.7314C485.917 33.5876 485.803 33.4754 485.646 33.395C485.494 33.3104 485.295 33.2681 485.049 33.2681C484.846 33.2681 484.671 33.304 484.522 33.376C484.374 33.4437 484.26 33.5368 484.18 33.6553C484.104 33.7695 484.065 33.8965 484.065 34.0361C484.065 34.1419 484.087 34.2371 484.129 34.3218C484.175 34.4022 484.25 34.4762 484.351 34.5439C484.453 34.6117 484.584 34.6751 484.745 34.7344C484.91 34.7894 485.113 34.8402 485.354 34.8867C485.849 34.9883 486.291 35.1216 486.681 35.2866C487.07 35.4474 487.379 35.6675 487.607 35.9468C487.836 36.2218 487.95 36.5837 487.95 37.0322C487.95 37.3369 487.882 37.6162 487.747 37.8701C487.612 38.124 487.417 38.3462 487.163 38.5366C486.909 38.7228 486.604 38.8688 486.249 38.9746C485.898 39.0762 485.502 39.127 485.062 39.127C484.423 39.127 483.881 39.0127 483.437 38.7842C482.997 38.5557 482.663 38.2658 482.434 37.9146C482.21 37.5591 482.098 37.1951 482.098 36.8228H483.831C483.839 37.0724 483.903 37.2734 484.021 37.4258C484.144 37.5781 484.298 37.6882 484.484 37.7559C484.675 37.8236 484.88 37.8574 485.1 37.8574C485.337 37.8574 485.534 37.8257 485.69 37.7622C485.847 37.6945 485.965 37.6056 486.046 37.4956C486.131 37.3813 486.173 37.2502 486.173 37.1021ZM492.251 32.1318V33.4268H488.252V32.1318H492.251ZM489.243 30.437H491.071V36.9307C491.071 37.1296 491.096 37.2819 491.147 37.3877C491.202 37.4935 491.282 37.5675 491.388 37.6099C491.494 37.6479 491.627 37.667 491.788 37.667C491.902 37.667 492.004 37.6628 492.093 37.6543C492.186 37.6416 492.264 37.6289 492.328 37.6162L492.334 38.9619C492.177 39.0127 492.008 39.0529 491.826 39.0825C491.644 39.1121 491.443 39.127 491.223 39.127C490.821 39.127 490.47 39.0614 490.169 38.9302C489.873 38.7948 489.645 38.5789 489.484 38.2827C489.323 37.9865 489.243 37.5972 489.243 37.1147V30.437ZM497.826 33.5854H498.804C499.117 33.5854 499.375 33.5326 499.578 33.4268C499.781 33.3167 499.931 33.1644 500.029 32.9697C500.13 32.7708 500.181 32.5402 500.181 32.2778C500.181 32.0409 500.135 31.8314 500.042 31.6494C499.953 31.4632 499.815 31.3193 499.629 31.2178C499.443 31.112 499.208 31.0591 498.924 31.0591C498.7 31.0591 498.493 31.1035 498.302 31.1924C498.112 31.2812 497.959 31.4061 497.845 31.5669C497.731 31.7277 497.674 31.9224 497.674 32.1509H495.839C495.839 31.6431 495.975 31.2008 496.246 30.8242C496.521 30.4476 496.889 30.1535 497.35 29.9419C497.811 29.7303 498.319 29.6245 498.874 29.6245C499.5 29.6245 500.048 29.7261 500.518 29.9292C500.987 30.1281 501.353 30.4222 501.616 30.8115C501.878 31.2008 502.009 31.6833 502.009 32.2588C502.009 32.5508 501.942 32.8343 501.806 33.1094C501.671 33.3802 501.476 33.6257 501.222 33.8457C500.972 34.0615 500.668 34.235 500.308 34.3662C499.948 34.4932 499.544 34.5566 499.096 34.5566H497.826V33.5854ZM497.826 34.9756V34.0298H499.096C499.599 34.0298 500.042 34.0869 500.422 34.2012C500.803 34.3154 501.123 34.4805 501.381 34.6963C501.639 34.9079 501.834 35.1597 501.965 35.4517C502.096 35.7394 502.162 36.0589 502.162 36.4102C502.162 36.8418 502.079 37.2269 501.914 37.5654C501.749 37.8997 501.516 38.1833 501.216 38.416C500.92 38.6488 500.573 38.8265 500.175 38.9492C499.777 39.0677 499.343 39.127 498.874 39.127C498.484 39.127 498.101 39.0741 497.725 38.9683C497.352 38.8582 497.014 38.6953 496.709 38.4795C496.409 38.2594 496.167 37.9844 495.985 37.6543C495.808 37.32 495.719 36.9243 495.719 36.4673H497.553C497.553 36.7043 497.612 36.9159 497.731 37.1021C497.849 37.2882 498.012 37.4342 498.22 37.54C498.431 37.6458 498.666 37.6987 498.924 37.6987C499.216 37.6987 499.466 37.6458 499.673 37.54C499.885 37.43 500.046 37.2777 500.156 37.083C500.27 36.8841 500.327 36.6535 500.327 36.3911C500.327 36.0526 500.266 35.7817 500.143 35.5786C500.02 35.3713 499.845 35.2189 499.616 35.1216C499.388 35.0243 499.117 34.9756 498.804 34.9756H497.826ZM509.389 33.5664V35.166C509.389 35.86 509.315 36.4588 509.167 36.9624C509.019 37.4618 508.805 37.8722 508.526 38.1938C508.251 38.5112 507.923 38.7461 507.542 38.8984C507.161 39.0508 506.738 39.127 506.272 39.127C505.9 39.127 505.553 39.0804 505.231 38.9873C504.91 38.89 504.62 38.7397 504.362 38.5366C504.108 38.3335 503.888 38.0775 503.702 37.7686C503.52 37.4554 503.38 37.083 503.283 36.6514C503.185 36.2197 503.137 35.7246 503.137 35.166V33.5664C503.137 32.8724 503.211 32.2778 503.359 31.7827C503.511 31.2834 503.725 30.875 504 30.5576C504.279 30.2402 504.609 30.0075 504.99 29.8594C505.371 29.707 505.794 29.6309 506.26 29.6309C506.632 29.6309 506.977 29.6795 507.294 29.7769C507.616 29.87 507.906 30.016 508.164 30.2148C508.422 30.4137 508.642 30.6698 508.824 30.9829C509.006 31.2918 509.146 31.6621 509.243 32.0938C509.34 32.5212 509.389 33.012 509.389 33.5664ZM507.555 35.4072V33.3188C507.555 32.9845 507.536 32.6925 507.498 32.4429C507.464 32.1932 507.411 31.9816 507.339 31.8081C507.267 31.6304 507.178 31.4865 507.072 31.3765C506.966 31.2664 506.846 31.186 506.71 31.1353C506.575 31.0845 506.425 31.0591 506.26 31.0591C506.052 31.0591 505.868 31.0993 505.708 31.1797C505.551 31.2601 505.418 31.3892 505.308 31.5669C505.198 31.7404 505.113 31.9731 505.054 32.2651C504.999 32.5529 504.971 32.9041 504.971 33.3188V35.4072C504.971 35.7415 504.988 36.0356 505.022 36.2896C505.06 36.5435 505.115 36.7614 505.187 36.9434C505.263 37.1211 505.352 37.2671 505.454 37.3813C505.559 37.4914 505.68 37.5718 505.815 37.6226C505.955 37.6733 506.107 37.6987 506.272 37.6987C506.476 37.6987 506.655 37.6585 506.812 37.5781C506.973 37.4935 507.108 37.3623 507.218 37.1846C507.333 37.0026 507.417 36.7656 507.472 36.4736C507.527 36.1816 507.555 35.8262 507.555 35.4072ZM514.516 37.502V29.25H516.356V39H514.7L514.516 37.502ZM510.174 35.6484V35.5151C510.174 34.9904 510.233 34.5143 510.352 34.0869C510.47 33.6553 510.644 33.285 510.872 32.9761C511.101 32.6672 511.382 32.4281 511.716 32.2588C512.051 32.0895 512.431 32.0049 512.859 32.0049C513.261 32.0049 513.612 32.0895 513.913 32.2588C514.217 32.4281 514.475 32.6693 514.687 32.9824C514.903 33.2913 515.076 33.6574 515.208 34.0806C515.339 34.4995 515.434 34.9587 515.493 35.458V35.75C515.434 36.2282 515.339 36.6725 515.208 37.083C515.076 37.4935 514.903 37.8532 514.687 38.1621C514.475 38.4668 514.217 38.7038 513.913 38.873C513.608 39.0423 513.252 39.127 512.846 39.127C512.419 39.127 512.038 39.0402 511.704 38.8667C511.374 38.6932 511.094 38.4499 510.866 38.1367C510.641 37.8236 510.47 37.4554 510.352 37.0322C510.233 36.609 510.174 36.1478 510.174 35.6484ZM512.002 35.5151V35.6484C512.002 35.932 512.023 36.1965 512.065 36.4419C512.112 36.6873 512.186 36.9053 512.288 37.0957C512.393 37.2819 512.529 37.4279 512.694 37.5337C512.863 37.6353 513.068 37.686 513.31 37.686C513.623 37.686 513.881 37.6162 514.084 37.4766C514.287 37.3327 514.442 37.1359 514.547 36.8862C514.657 36.6366 514.721 36.3488 514.738 36.0229V35.1914C514.725 34.9248 514.687 34.6857 514.624 34.4741C514.564 34.2583 514.475 34.0742 514.357 33.9219C514.243 33.7695 514.099 33.651 513.925 33.5664C513.756 33.4818 513.555 33.4395 513.322 33.4395C513.085 33.4395 512.882 33.4945 512.713 33.6045C512.544 33.7103 512.406 33.8563 512.3 34.0425C512.199 34.2287 512.123 34.4487 512.072 34.7026C512.025 34.9523 512.002 35.2231 512.002 35.5151Z" fill="#1A1A1A"/>
<path d="M299 21H527V19H299V21ZM532 26V44H534V26H532ZM527 49H299V51H527V49ZM294 44V26H292V44H294ZM299 49C296.239 49 294 46.7614 294 44H292C292 47.866 295.134 51 299 51V49ZM532 44C532 46.7614 529.761 49 527 49V51C530.866 51 534 47.866 534 44H532ZM527 21C529.761 21 532 23.2386 532 26H534C534 22.134 530.866 19 527 19V21ZM299 19C295.134 19 292 22.134 292 26H294C294 23.2386 296.239 21 299 21V19Z" fill="#1A1A1A"/>
<path d="M546 34.5C546 33.2917 546.292 32.1875 546.875 31.1875C547.5 30.1458 548.312 29.3333 549.312 28.75C550.354 28.125 551.479 27.8125 552.688 27.8125C553.896 27.8125 555 28.125 556 28.75C557.042 29.3333 557.854 30.1458 558.438 31.1875C559.021 32.1875 559.312 33.2917 559.312 34.5C559.312 35.7083 559.021 36.8333 558.438 37.875C557.854 38.875 557.042 39.6875 556 40.3125C555 40.8958 553.896 41.1875 552.688 41.1875C551.479 41.1875 550.354 40.8958 549.312 40.3125C548.312 39.6875 547.5 38.875 546.875 37.875C546.292 36.8333 546 35.7083 546 34.5ZM553.312 37.1875V38.5H552V37.1875H553.312ZM552.688 39.8125C553.646 39.8125 554.521 39.5833 555.312 39.125C556.146 38.625 556.792 37.9792 557.25 37.1875C557.75 36.3542 558 35.4583 558 34.5C558 33.5417 557.75 32.6667 557.25 31.875C556.792 31.0417 556.146 30.3958 555.312 29.9375C554.521 29.4375 553.646 29.1875 552.688 29.1875C551.729 29.1875 550.833 29.4375 550 29.9375C549.167 30.3958 548.5 31.0417 548 31.875C547.542 32.6667 547.312 33.5417 547.312 34.5C547.312 35.4583 547.542 36.3542 548 37.1875C548.5 37.9792 549.167 38.625 550 39.125C550.833 39.5833 551.729 39.8125 552.688 39.8125ZM550 33.1875C550 32.4375 550.25 31.8125 550.75 31.3125C551.292 30.7708 551.917 30.5 552.625 30.5C553.375 30.5 554 30.7708 554.5 31.3125C555.042 31.8125 555.312 32.4375 555.312 33.1875C555.312 33.5625 555.208 33.8958 555 34.1875C554.875 34.3958 554.646 34.6458 554.312 34.9375C553.979 35.2292 553.75 35.4583 553.625 35.625C553.417 35.875 553.312 36.1667 553.312 36.5H552C552 35.9583 552.125 35.5 552.375 35.125C552.542 34.9167 552.812 34.6667 553.188 34.375C553.479 34.1667 553.667 34 553.75 33.875C553.917 33.6667 554 33.4375 554 33.1875C554 32.8125 553.854 32.5 553.562 32.25C553.312 31.9583 553 31.8125 552.625 31.8125C552.292 31.8125 551.979 31.9583 551.688 32.25C551.438 32.5 551.312 32.8125 551.312 33.1875H550Z" fill="#505050"/>
<rect x="20" y="69" width="540" height="180" rx="10" fill="#FAFAFA"/>
<path d="M45.6172 93.5078V85.625H47.9531V93.5078C47.9531 94.2682 47.7865 94.9219 47.4531 95.4688C47.1198 96.0104 46.6641 96.4271 46.0859 96.7188C45.513 97.0104 44.8672 97.1562 44.1484 97.1562C43.4036 97.1562 42.7448 97.0312 42.1719 96.7812C41.599 96.5312 41.1484 96.1484 40.8203 95.6328C40.4922 95.112 40.3281 94.4531 40.3281 93.6562H42.6797C42.6797 94.0729 42.737 94.4036 42.8516 94.6484C42.9714 94.8932 43.1406 95.0677 43.3594 95.1719C43.5781 95.276 43.8411 95.3281 44.1484 95.3281C44.4453 95.3281 44.7031 95.2578 44.9219 95.1172C45.1406 94.9766 45.3099 94.7708 45.4297 94.5C45.5547 94.2292 45.6172 93.8984 45.6172 93.5078ZM54.125 95.0938V91.3281C54.125 91.0573 54.0807 90.8255 53.9922 90.6328C53.9036 90.4349 53.7656 90.2812 53.5781 90.1719C53.3958 90.0625 53.1589 90.0078 52.8672 90.0078C52.6172 90.0078 52.401 90.0521 52.2188 90.1406C52.0365 90.224 51.8958 90.3464 51.7969 90.5078C51.6979 90.6641 51.6484 90.849 51.6484 91.0625H49.3984C49.3984 90.7031 49.4818 90.362 49.6484 90.0391C49.8151 89.7161 50.0573 89.4323 50.375 89.1875C50.6927 88.9375 51.0703 88.7422 51.5078 88.6016C51.9505 88.4609 52.4453 88.3906 52.9922 88.3906C53.6484 88.3906 54.2318 88.5 54.7422 88.7188C55.2526 88.9375 55.6536 89.2656 55.9453 89.7031C56.2422 90.1406 56.3906 90.6875 56.3906 91.3438V94.9609C56.3906 95.4245 56.4193 95.8047 56.4766 96.1016C56.5339 96.3932 56.6172 96.6484 56.7266 96.8672V97H54.4531C54.3438 96.7708 54.2604 96.4844 54.2031 96.1406C54.151 95.7917 54.125 95.4427 54.125 95.0938ZM54.4219 91.8516L54.4375 93.125H53.1797C52.8828 93.125 52.625 93.1589 52.4062 93.2266C52.1875 93.2943 52.0078 93.3906 51.8672 93.5156C51.7266 93.6354 51.6224 93.776 51.5547 93.9375C51.4922 94.099 51.4609 94.276 51.4609 94.4688C51.4609 94.6615 51.5052 94.8359 51.5938 94.9922C51.6823 95.1432 51.8099 95.263 51.9766 95.3516C52.1432 95.4349 52.3385 95.4766 52.5625 95.4766C52.901 95.4766 53.1953 95.4089 53.4453 95.2734C53.6953 95.138 53.888 94.9714 54.0234 94.7734C54.1641 94.5755 54.237 94.388 54.2422 94.2109L54.8359 95.1641C54.7526 95.3776 54.638 95.599 54.4922 95.8281C54.3516 96.0573 54.1719 96.2734 53.9531 96.4766C53.7344 96.6745 53.4714 96.8385 53.1641 96.9688C52.8568 97.0938 52.4922 97.1562 52.0703 97.1562C51.5339 97.1562 51.0469 97.0495 50.6094 96.8359C50.1771 96.6172 49.8333 96.3177 49.5781 95.9375C49.3281 95.5521 49.2031 95.1146 49.2031 94.625C49.2031 94.1823 49.2865 93.7891 49.4531 93.4453C49.6198 93.1016 49.8646 92.8125 50.1875 92.5781C50.5156 92.3385 50.9245 92.1589 51.4141 92.0391C51.9036 91.9141 52.4714 91.8516 53.1172 91.8516H54.4219ZM60.0781 90.3516V97H57.8281V88.5469H59.9375L60.0781 90.3516ZM59.75 92.4766H59.1406C59.1406 91.8516 59.2214 91.2891 59.3828 90.7891C59.5443 90.2839 59.7708 89.8542 60.0625 89.5C60.3542 89.1406 60.7005 88.8672 61.1016 88.6797C61.5078 88.487 61.9609 88.3906 62.4609 88.3906C62.8568 88.3906 63.2188 88.4479 63.5469 88.5625C63.875 88.6771 64.1562 88.8594 64.3906 89.1094C64.6302 89.3594 64.8125 89.6901 64.9375 90.1016C65.0677 90.513 65.1328 91.0156 65.1328 91.6094V97H62.8672V91.6016C62.8672 91.2266 62.8151 90.9349 62.7109 90.7266C62.6068 90.5182 62.4531 90.3724 62.25 90.2891C62.0521 90.2005 61.8073 90.1562 61.5156 90.1562C61.2135 90.1562 60.9505 90.2161 60.7266 90.3359C60.5078 90.4557 60.3255 90.6224 60.1797 90.8359C60.0391 91.0443 59.9323 91.2891 59.8594 91.5703C59.7865 91.8516 59.75 92.1536 59.75 92.4766ZM75.7188 85.6016V97H73.4688V88.1953L70.7656 89.0547V87.2812L75.4766 85.6016H75.7188ZM80.7656 95.2891H80.9141C81.5391 95.2891 82.0755 95.2135 82.5234 95.0625C82.9766 94.9062 83.349 94.6823 83.6406 94.3906C83.9323 94.099 84.1484 93.7422 84.2891 93.3203C84.4297 92.8932 84.5 92.4089 84.5 91.8672V89.7109C84.5 89.2995 84.4583 88.9375 84.375 88.625C84.2969 88.3125 84.1823 88.0547 84.0312 87.8516C83.8854 87.6432 83.7135 87.487 83.5156 87.3828C83.3229 87.2786 83.1094 87.2266 82.875 87.2266C82.625 87.2266 82.4036 87.2891 82.2109 87.4141C82.0182 87.5339 81.8542 87.6979 81.7188 87.9062C81.5885 88.1146 81.487 88.3542 81.4141 88.625C81.3464 88.8906 81.3125 89.1693 81.3125 89.4609C81.3125 89.7526 81.3464 90.0312 81.4141 90.2969C81.4818 90.5573 81.5833 90.7891 81.7188 90.9922C81.8542 91.1901 82.0234 91.349 82.2266 91.4688C82.4297 91.5833 82.6693 91.6406 82.9453 91.6406C83.2109 91.6406 83.4479 91.5911 83.6562 91.4922C83.8698 91.388 84.0495 91.2526 84.1953 91.0859C84.3464 90.9193 84.4609 90.7344 84.5391 90.5312C84.6224 90.3281 84.6641 90.1224 84.6641 89.9141L85.4062 90.3203C85.4062 90.6849 85.3281 91.0443 85.1719 91.3984C85.0156 91.7526 84.7969 92.0755 84.5156 92.3672C84.2396 92.6536 83.9193 92.8828 83.5547 93.0547C83.1901 93.2266 82.7995 93.3125 82.3828 93.3125C81.8516 93.3125 81.3802 93.2161 80.9688 93.0234C80.5573 92.8255 80.2083 92.5547 79.9219 92.2109C79.6406 91.862 79.4271 91.4557 79.2812 90.9922C79.1354 90.5286 79.0625 90.026 79.0625 89.4844C79.0625 88.9323 79.151 88.4141 79.3281 87.9297C79.5104 87.4453 79.7682 87.0182 80.1016 86.6484C80.4401 86.2786 80.8438 85.9896 81.3125 85.7812C81.7865 85.5677 82.3125 85.4609 82.8906 85.4609C83.4688 85.4609 83.9948 85.5729 84.4688 85.7969C84.9427 86.0208 85.349 86.3385 85.6875 86.75C86.026 87.1562 86.2865 87.6432 86.4688 88.2109C86.6562 88.7786 86.75 89.4089 86.75 90.1016V90.8828C86.75 91.6224 86.6693 92.3099 86.5078 92.9453C86.3516 93.5807 86.1146 94.1562 85.7969 94.6719C85.4844 95.1823 85.0938 95.6198 84.625 95.9844C84.1615 96.349 83.6224 96.6276 83.0078 96.8203C82.3932 97.013 81.7057 97.1094 80.9453 97.1094H80.7656V95.2891ZM92.6406 91.2344V93H88.2266V91.2344H92.6406ZM101.953 95.2422V97H94.1719V95.5L97.8516 91.5547C98.2214 91.1432 98.513 90.7812 98.7266 90.4688C98.9401 90.151 99.0938 89.8672 99.1875 89.6172C99.2865 89.362 99.3359 89.1198 99.3359 88.8906C99.3359 88.5469 99.2786 88.2526 99.1641 88.0078C99.0495 87.7578 98.8802 87.5651 98.6562 87.4297C98.4375 87.2943 98.1667 87.2266 97.8438 87.2266C97.5 87.2266 97.2031 87.3099 96.9531 87.4766C96.7083 87.6432 96.5208 87.875 96.3906 88.1719C96.2656 88.4688 96.2031 88.8047 96.2031 89.1797H93.9453C93.9453 88.5026 94.1068 87.8828 94.4297 87.3203C94.7526 86.7526 95.2083 86.3021 95.7969 85.9688C96.3854 85.6302 97.0833 85.4609 97.8906 85.4609C98.6875 85.4609 99.3594 85.5911 99.9062 85.8516C100.458 86.1068 100.875 86.4766 101.156 86.9609C101.443 87.4401 101.586 88.013 101.586 88.6797C101.586 89.0547 101.526 89.4219 101.406 89.7812C101.286 90.1354 101.115 90.4896 100.891 90.8438C100.672 91.1927 100.406 91.5469 100.094 91.9062C99.7812 92.2656 99.4349 92.638 99.0547 93.0234L97.0781 95.2422H101.953ZM108.914 85.5078H109.242V87.3047H109.109C108.516 87.3047 107.987 87.3932 107.523 87.5703C107.06 87.7474 106.667 88 106.344 88.3281C106.026 88.651 105.781 89.0417 105.609 89.5C105.443 89.9583 105.359 90.4714 105.359 91.0391V92.9297C105.359 93.3359 105.398 93.6953 105.477 94.0078C105.56 94.3151 105.677 94.5729 105.828 94.7812C105.984 94.9844 106.167 95.138 106.375 95.2422C106.583 95.3411 106.818 95.3906 107.078 95.3906C107.323 95.3906 107.544 95.3385 107.742 95.2344C107.945 95.1302 108.117 94.9844 108.258 94.7969C108.404 94.6042 108.513 94.3802 108.586 94.125C108.664 93.8646 108.703 93.5807 108.703 93.2734C108.703 92.9661 108.664 92.6823 108.586 92.4219C108.513 92.1615 108.404 91.9375 108.258 91.75C108.112 91.5573 107.935 91.4089 107.727 91.3047C107.518 91.2005 107.284 91.1484 107.023 91.1484C106.669 91.1484 106.357 91.2318 106.086 91.3984C105.82 91.5599 105.612 91.7682 105.461 92.0234C105.31 92.2786 105.229 92.5469 105.219 92.8281L104.539 92.3906C104.555 91.9896 104.638 91.6094 104.789 91.25C104.945 90.8906 105.159 90.5729 105.43 90.2969C105.706 90.0156 106.036 89.7969 106.422 89.6406C106.807 89.4792 107.242 89.3984 107.727 89.3984C108.258 89.3984 108.724 89.5 109.125 89.7031C109.531 89.9062 109.87 90.1849 110.141 90.5391C110.411 90.8932 110.615 91.3021 110.75 91.7656C110.885 92.2292 110.953 92.724 110.953 93.25C110.953 93.8021 110.862 94.3151 110.68 94.7891C110.503 95.263 110.245 95.6771 109.906 96.0312C109.573 96.3854 109.172 96.6615 108.703 96.8594C108.234 97.0573 107.708 97.1562 107.125 97.1562C106.521 97.1562 105.971 97.0469 105.477 96.8281C104.987 96.6042 104.565 96.2917 104.211 95.8906C103.857 95.4896 103.583 95.013 103.391 94.4609C103.203 93.9089 103.109 93.3047 103.109 92.6484V91.7734C103.109 90.8568 103.242 90.0182 103.508 89.2578C103.779 88.4922 104.167 87.8307 104.672 87.2734C105.177 86.7109 105.786 86.276 106.5 85.9688C107.214 85.6615 108.018 85.5078 108.914 85.5078Z" fill="#1A1A1A"/>
<path d="M480.791 94.4414L483.035 87.4688H484.658L481.6 96H480.504L480.791 94.4414ZM478.717 87.4688L480.943 94.4414L481.248 96H480.146L477.1 87.4688H478.717ZM486.734 89.6602V96H485.316V89.6602H486.734ZM485.223 87.9961C485.223 87.7812 485.293 87.6035 485.434 87.4629C485.578 87.3184 485.777 87.2461 486.031 87.2461C486.281 87.2461 486.479 87.3184 486.623 87.4629C486.768 87.6035 486.84 87.7812 486.84 87.9961C486.84 88.207 486.768 88.3828 486.623 88.5234C486.479 88.6641 486.281 88.7344 486.031 88.7344C485.777 88.7344 485.578 88.6641 485.434 88.5234C485.293 88.3828 485.223 88.207 485.223 87.9961ZM490.826 96.1172C490.357 96.1172 489.934 96.041 489.555 95.8887C489.18 95.7324 488.859 95.5156 488.594 95.2383C488.332 94.9609 488.131 94.6348 487.99 94.2598C487.85 93.8848 487.779 93.4805 487.779 93.0469V92.8125C487.779 92.3164 487.852 91.8672 487.996 91.4648C488.141 91.0625 488.342 90.7188 488.6 90.4336C488.857 90.1445 489.162 89.9238 489.514 89.7715C489.865 89.6191 490.246 89.543 490.656 89.543C491.109 89.543 491.506 89.6191 491.846 89.7715C492.186 89.9238 492.467 90.1387 492.689 90.416C492.916 90.6895 493.084 91.0156 493.193 91.3945C493.307 91.7734 493.363 92.1914 493.363 92.6484V93.252H488.465V92.2383H491.969V92.127C491.961 91.873 491.91 91.6348 491.816 91.4121C491.727 91.1895 491.588 91.0098 491.4 90.873C491.213 90.7363 490.963 90.668 490.65 90.668C490.416 90.668 490.207 90.7188 490.023 90.8203C489.844 90.918 489.693 91.0605 489.572 91.248C489.451 91.4355 489.357 91.6621 489.291 91.9277C489.229 92.1895 489.197 92.4844 489.197 92.8125V93.0469C489.197 93.3242 489.234 93.582 489.309 93.8203C489.387 94.0547 489.5 94.2598 489.648 94.4355C489.797 94.6113 489.977 94.75 490.188 94.8516C490.398 94.9492 490.639 94.998 490.908 94.998C491.248 94.998 491.551 94.9297 491.816 94.793C492.082 94.6562 492.312 94.4629 492.508 94.2129L493.252 94.9336C493.115 95.1328 492.938 95.3242 492.719 95.5078C492.5 95.6875 492.232 95.834 491.916 95.9473C491.604 96.0605 491.24 96.1172 490.826 96.1172ZM495.938 94.5938L497.402 89.6602H498.305L498.059 91.1367L496.582 96H495.773L495.938 94.5938ZM495.076 89.6602L496.219 94.6172L496.312 96H495.41L493.693 89.6602H495.076ZM499.676 94.5586L500.783 89.6602H502.16L500.449 96H499.547L499.676 94.5586ZM498.457 89.6602L499.904 94.5352L500.086 96H499.277L497.783 91.1309L497.537 89.6602H498.457ZM509.477 94.6875V87H510.895V96H509.611L509.477 94.6875ZM505.352 92.9004V92.7773C505.352 92.2969 505.408 91.8594 505.521 91.4648C505.635 91.0664 505.799 90.7246 506.014 90.4395C506.229 90.1504 506.49 89.9297 506.799 89.7773C507.107 89.6211 507.455 89.543 507.842 89.543C508.225 89.543 508.561 89.6172 508.85 89.7656C509.139 89.9141 509.385 90.127 509.588 90.4043C509.791 90.6777 509.953 91.0059 510.074 91.3887C510.195 91.7676 510.281 92.1895 510.332 92.6543V93.0469C510.281 93.5 510.195 93.9141 510.074 94.2891C509.953 94.6641 509.791 94.9883 509.588 95.2617C509.385 95.5352 509.137 95.7461 508.844 95.8945C508.555 96.043 508.217 96.1172 507.83 96.1172C507.447 96.1172 507.102 96.0371 506.793 95.877C506.488 95.7168 506.229 95.4922 506.014 95.2031C505.799 94.9141 505.635 94.5742 505.521 94.1836C505.408 93.7891 505.352 93.3613 505.352 92.9004ZM506.764 92.7773V92.9004C506.764 93.1895 506.789 93.459 506.84 93.709C506.895 93.959 506.979 94.1797 507.092 94.3711C507.205 94.5586 507.352 94.707 507.531 94.8164C507.715 94.9219 507.934 94.9746 508.188 94.9746C508.508 94.9746 508.771 94.9043 508.979 94.7637C509.186 94.623 509.348 94.4336 509.465 94.1953C509.586 93.9531 509.668 93.6836 509.711 93.3867V92.3262C509.688 92.0957 509.639 91.8809 509.564 91.6816C509.494 91.4824 509.398 91.3086 509.277 91.1602C509.156 91.0078 509.006 90.8906 508.826 90.8086C508.65 90.7227 508.441 90.6797 508.199 90.6797C507.941 90.6797 507.723 90.7344 507.543 90.8438C507.363 90.9531 507.215 91.1035 507.098 91.2949C506.984 91.4863 506.9 91.709 506.846 91.9629C506.791 92.2168 506.764 92.4883 506.764 92.7773ZM514.916 96.1172C514.447 96.1172 514.023 96.041 513.645 95.8887C513.27 95.7324 512.949 95.5156 512.684 95.2383C512.422 94.9609 512.221 94.6348 512.08 94.2598C511.939 93.8848 511.869 93.4805 511.869 93.0469V92.8125C511.869 92.3164 511.941 91.8672 512.086 91.4648C512.23 91.0625 512.432 90.7188 512.689 90.4336C512.947 90.1445 513.252 89.9238 513.604 89.7715C513.955 89.6191 514.336 89.543 514.746 89.543C515.199 89.543 515.596 89.6191 515.936 89.7715C516.275 89.9238 516.557 90.1387 516.779 90.416C517.006 90.6895 517.174 91.0156 517.283 91.3945C517.396 91.7734 517.453 92.1914 517.453 92.6484V93.252H512.555V92.2383H516.059V92.127C516.051 91.873 516 91.6348 515.906 91.4121C515.816 91.1895 515.678 91.0098 515.49 90.873C515.303 90.7363 515.053 90.668 514.74 90.668C514.506 90.668 514.297 90.7188 514.113 90.8203C513.934 90.918 513.783 91.0605 513.662 91.248C513.541 91.4355 513.447 91.6621 513.381 91.9277C513.318 92.1895 513.287 92.4844 513.287 92.8125V93.0469C513.287 93.3242 513.324 93.582 513.398 93.8203C513.477 94.0547 513.59 94.2598 513.738 94.4355C513.887 94.6113 514.066 94.75 514.277 94.8516C514.488 94.9492 514.729 94.998 514.998 94.998C515.338 94.998 515.641 94.9297 515.906 94.793C516.172 94.6562 516.402 94.4629 516.598 94.2129L517.342 94.9336C517.205 95.1328 517.027 95.3242 516.809 95.5078C516.59 95.6875 516.322 95.834 516.006 95.9473C515.693 96.0605 515.33 96.1172 514.916 96.1172ZM521.211 89.6602V90.6914H517.637V89.6602H521.211ZM518.668 88.1074H520.08V94.248C520.08 94.4434 520.107 94.5938 520.162 94.6992C520.221 94.8008 520.301 94.8691 520.402 94.9043C520.504 94.9395 520.623 94.957 520.76 94.957C520.857 94.957 520.951 94.9512 521.041 94.9395C521.131 94.9277 521.203 94.916 521.258 94.9043L521.264 95.9824C521.146 96.0176 521.01 96.0488 520.854 96.0762C520.701 96.1035 520.525 96.1172 520.326 96.1172C520.002 96.1172 519.715 96.0605 519.465 95.9473C519.215 95.8301 519.02 95.6406 518.879 95.3789C518.738 95.1172 518.668 94.7695 518.668 94.3359V88.1074ZM525.625 94.7285V91.7051C525.625 91.4785 525.584 91.2832 525.502 91.1191C525.42 90.9551 525.295 90.8281 525.127 90.7383C524.963 90.6484 524.756 90.6035 524.506 90.6035C524.275 90.6035 524.076 90.6426 523.908 90.7207C523.74 90.7988 523.609 90.9043 523.516 91.0371C523.422 91.1699 523.375 91.3203 523.375 91.4883H521.969C521.969 91.2383 522.029 90.9961 522.15 90.7617C522.271 90.5273 522.447 90.3184 522.678 90.1348C522.908 89.9512 523.184 89.8066 523.504 89.7012C523.824 89.5957 524.184 89.543 524.582 89.543C525.059 89.543 525.48 89.623 525.848 89.7832C526.219 89.9434 526.51 90.1855 526.721 90.5098C526.936 90.8301 527.043 91.2324 527.043 91.7168V94.5352C527.043 94.8242 527.062 95.084 527.102 95.3145C527.145 95.541 527.205 95.7383 527.283 95.9062V96H525.836C525.77 95.8477 525.717 95.6543 525.678 95.4199C525.643 95.1816 525.625 94.9512 525.625 94.7285ZM525.83 92.1445L525.842 93.0176H524.828C524.566 93.0176 524.336 93.043 524.137 93.0938C523.938 93.1406 523.771 93.2109 523.639 93.3047C523.506 93.3984 523.406 93.5117 523.34 93.6445C523.273 93.7773 523.24 93.9277 523.24 94.0957C523.24 94.2637 523.279 94.418 523.357 94.5586C523.436 94.6953 523.549 94.8027 523.697 94.8809C523.85 94.959 524.033 94.998 524.248 94.998C524.537 94.998 524.789 94.9395 525.004 94.8223C525.223 94.7012 525.395 94.5547 525.52 94.3828C525.645 94.207 525.711 94.041 525.719 93.8848L526.176 94.5117C526.129 94.6719 526.049 94.8438 525.936 95.0273C525.822 95.2109 525.674 95.3867 525.49 95.5547C525.311 95.7188 525.094 95.8535 524.84 95.959C524.59 96.0645 524.301 96.1172 523.973 96.1172C523.559 96.1172 523.189 96.0352 522.865 95.8711C522.541 95.7031 522.287 95.4785 522.104 95.1973C521.92 94.9121 521.828 94.5898 521.828 94.2305C521.828 93.8945 521.891 93.5977 522.016 93.3398C522.145 93.0781 522.332 92.8594 522.578 92.6836C522.828 92.5078 523.133 92.375 523.492 92.2852C523.852 92.1914 524.262 92.1445 524.723 92.1445H525.83ZM529.781 89.6602V96H528.363V89.6602H529.781ZM528.27 87.9961C528.27 87.7812 528.34 87.6035 528.48 87.4629C528.625 87.3184 528.824 87.2461 529.078 87.2461C529.328 87.2461 529.525 87.3184 529.67 87.4629C529.814 87.6035 529.887 87.7812 529.887 87.9961C529.887 88.207 529.814 88.3828 529.67 88.5234C529.525 88.6641 529.328 88.7344 529.078 88.7344C528.824 88.7344 528.625 88.6641 528.48 88.5234C528.34 88.3828 528.27 88.207 528.27 87.9961ZM532.59 87V96H531.172V87H532.59ZM537.443 94.2832C537.443 94.1426 537.408 94.0156 537.338 93.9023C537.268 93.7852 537.133 93.6797 536.934 93.5859C536.738 93.4922 536.449 93.4062 536.066 93.3281C535.73 93.2539 535.422 93.166 535.141 93.0645C534.863 92.959 534.625 92.832 534.426 92.6836C534.227 92.5352 534.072 92.3594 533.963 92.1562C533.854 91.9531 533.799 91.7188 533.799 91.4531C533.799 91.1953 533.855 90.9512 533.969 90.7207C534.082 90.4902 534.244 90.2871 534.455 90.1113C534.666 89.9355 534.922 89.7969 535.223 89.6953C535.527 89.5938 535.867 89.543 536.242 89.543C536.773 89.543 537.229 89.6328 537.607 89.8125C537.99 89.9883 538.283 90.2285 538.486 90.5332C538.689 90.834 538.791 91.1738 538.791 91.5527H537.379C537.379 91.3848 537.336 91.2285 537.25 91.084C537.168 90.9355 537.043 90.8164 536.875 90.7266C536.707 90.6328 536.496 90.5859 536.242 90.5859C536 90.5859 535.799 90.625 535.639 90.7031C535.482 90.7773 535.365 90.875 535.287 90.9961C535.213 91.1172 535.176 91.25 535.176 91.3945C535.176 91.5 535.195 91.5957 535.234 91.6816C535.277 91.7637 535.348 91.8398 535.445 91.9102C535.543 91.9766 535.676 92.0391 535.844 92.0977C536.016 92.1562 536.23 92.2129 536.488 92.2676C536.973 92.3691 537.389 92.5 537.736 92.6602C538.088 92.8164 538.357 93.0195 538.545 93.2695C538.732 93.5156 538.826 93.8281 538.826 94.207C538.826 94.4883 538.766 94.7461 538.645 94.9805C538.527 95.2109 538.355 95.4121 538.129 95.584C537.902 95.752 537.631 95.8828 537.314 95.9766C537.002 96.0703 536.65 96.1172 536.26 96.1172C535.686 96.1172 535.199 96.0156 534.801 95.8125C534.402 95.6055 534.1 95.3418 533.893 95.0215C533.689 94.6973 533.588 94.3613 533.588 94.0137H534.953C534.969 94.2754 535.041 94.4844 535.17 94.6406C535.303 94.793 535.467 94.9043 535.662 94.9746C535.861 95.041 536.066 95.0742 536.277 95.0742C536.531 95.0742 536.744 95.041 536.916 94.9746C537.088 94.9043 537.219 94.8105 537.309 94.6934C537.398 94.5723 537.443 94.4355 537.443 94.2832Z" fill="#505050"/>
<g clip-path="url(#clip1_822_40279)">
<rect x="40" y="111" width="500" height="1" fill="#F2F2F2"/>
<rect x="40" y="140.75" width="500" height="1" fill="#F2F2F2"/>
<rect x="40" y="170.5" width="500" height="1" fill="#F2F2F2"/>
<rect x="40" y="200.25" width="500" height="1" fill="#F2F2F2"/>
<rect x="40" y="230" width="500" height="1" fill="#F2F2F2"/>
<path opacity="0.1" d="M39.094 187.5C37.2225 187.1 35.5849 205.333 35 214.5V231H545V213C544.415 208 534.473 205 532.718 205C530.963 205 532.133 174.5 529.794 173C527.454 171.5 527.454 194.5 525.115 194.5C522.775 194.5 523.36 160.5 521.606 160.5C519.851 160.5 520.436 194.5 515.757 194.5C511.078 194.5 511.663 170.5 511.078 167C510.61 164.2 507.764 168.167 506.399 170.5C505.814 165.5 504.294 155.5 502.89 155.5C501.135 155.5 502.89 205 499.966 205C497.041 205 498.796 207 494.117 191.5C489.438 176 488.268 179 485.929 178C483.589 177 480.08 165.5 478.911 168.5C477.741 171.5 475.401 203 472.477 203C469.553 203 468.968 180.5 467.213 179C465.81 177.8 463.509 181.5 462.534 183.5L457.856 160.5C457.076 174.667 455.165 203 453.761 203C452.007 203 451.422 165.5 449.083 162.5C447.211 160.1 443.624 164.5 442.064 167L440.31 208.5C439.725 207.167 438.204 204.2 436.8 203C435.046 201.5 435.631 217.5 433.291 218C430.952 218.5 431.537 211 429.197 208.5C426.858 206 427.443 182 425.688 180.5C423.934 179 420.424 194.5 414.576 195.5C409.897 196.3 407.557 181.833 406.973 174.5C406.388 183.333 404.867 200.6 403.463 199C402.06 197.4 399.369 199.667 398.2 201L393.521 160.5L388.257 203L384.748 180.5C385.138 186.167 385.216 197.4 382.408 197C378.899 196.5 379.484 182 378.314 183.5C377.145 185 375.39 180.5 373.635 178C372.232 176 370.711 180.833 370.126 183.5C369.736 177.5 368.489 165.5 366.617 165.5C364.278 165.5 367.202 219.5 364.278 219.5C361.353 219.5 358.429 174.5 357.259 174.5C356.089 174.5 350.826 219.5 349.071 219.5C347.317 219.5 344.977 214.5 346.147 207C347.083 201 339.128 196.167 335.034 194.5V174.5L330.356 178C330.356 173.833 329.654 165.5 326.846 165.5C323.337 165.5 325.092 207 320.413 207C315.734 207 314.564 180.5 314.564 176.5C314.564 172.5 311.64 176.5 309.885 176.5C308.482 176.5 306.571 167.167 305.791 162.5L302.867 194.5C303.062 190.833 302.867 183.5 300.528 183.5C298.188 183.5 297.213 190.833 297.018 194.5L293.509 146.5C292.924 156.5 291.638 176.5 291.17 176.5C290.585 176.5 291.755 170.5 288.83 170.5C285.906 170.5 287.661 180.5 285.906 180.5C284.151 180.5 285.906 176.5 282.982 176.5C280.057 176.5 281.812 185.5 280.057 187.5C278.303 189.5 278.303 155.5 276.548 155.5C274.794 155.5 274.209 178 271.284 178C268.945 178 267.97 140 267.775 121L264.266 165.5C263.291 159.833 260.757 148.5 258.417 148.5C256.078 148.5 255.103 183.5 254.908 201C254.128 197.833 252.335 191.2 251.399 190C250.229 188.5 250.229 194 249.645 199C249.06 204 244.966 203 242.626 203C240.755 203 239.507 185.333 239.117 176.5L236.193 207L232.684 187.5L229.759 191.5L228.005 174.5C227.81 177 227.069 182.3 225.665 183.5C224.261 184.7 221.961 168.667 220.986 160.5L213.383 223L210.459 185.5L205.78 201L202.856 170.5C202.661 177.5 201.452 191.5 198.177 191.5C194.083 191.5 197.007 159 194.083 159C191.158 159 192.328 201 189.404 201C186.479 201 186.479 180.5 184.14 180.5C181.8 180.5 184.14 209 181.216 208.5C178.291 208 176.537 180.5 174.782 180.5C173.028 180.5 173.612 219.5 170.688 219.5C168.349 219.5 167.764 211.167 167.764 207C166.594 208.167 164.021 210.6 163.085 211C161.915 211.5 159.576 174.5 157.821 174.5C156.417 174.5 155.287 196.167 154.897 207C154.897 205.667 153.961 202.6 150.218 201C145.539 199 150.803 214.5 145.539 214.5C140.275 214.5 140.86 180.5 136.181 178C131.502 175.5 134.427 155.5 131.502 155.5C128.578 155.5 130.917 170.5 127.993 170.5C125.069 170.5 123.899 166.5 122.729 165.5C121.56 164.5 121.56 176.5 119.805 176.5C118.05 176.5 118.635 172.5 114.541 172.5C110.447 172.5 111.032 213 108.108 213C105.183 213 104.599 170.5 101.089 170.5C97.5803 170.5 97.5803 193.5 94.656 194C91.7317 194.5 92.9014 180 92.3165 178C91.7317 176 89.9771 178 86.4679 178C83.6606 178 82.1789 174.333 81.789 172.5C81.2041 176.833 79.5665 185.5 77.695 185.5C75.3555 185.5 74.1858 176 71.8463 176.5C69.5069 177 70.0917 202.5 67.1674 203C64.2431 203.5 61.9037 183.5 60.1491 182C58.3945 180.5 56.055 182 54.3005 182C52.5459 182 54.8853 161 51.3761 160.5C47.867 160 44.9427 191.5 42.6032 191.5C40.2638 191.5 41.4335 188 39.094 187.5Z" fill="#286EF1"/>
<path d="M35 214.5C35.5849 205.333 37.2225 187.1 39.094 187.5C41.4335 188 40.2638 191.5 42.6032 191.5C44.9427 191.5 47.867 160 51.3761 160.5C54.8853 161 52.5459 182 54.3005 182C56.055 182 58.3945 180.5 60.1491 182C61.9037 183.5 64.2431 203.5 67.1674 203C70.0917 202.5 69.5069 177 71.8463 176.5C74.1858 176 75.3555 185.5 77.695 185.5C79.5665 185.5 81.2041 176.833 81.789 172.5C82.1789 174.333 83.6606 178 86.4679 178C89.9771 178 91.7317 176 92.3165 178C92.9014 180 91.7317 194.5 94.656 194C97.5803 193.5 97.5803 170.5 101.089 170.5C104.599 170.5 105.183 213 108.108 213C111.032 213 110.447 172.5 114.541 172.5C118.635 172.5 118.05 176.5 119.805 176.5C121.56 176.5 121.56 164.5 122.729 165.5C123.899 166.5 125.069 170.5 127.993 170.5C130.917 170.5 128.578 155.5 131.502 155.5C134.427 155.5 131.502 175.5 136.181 178C140.86 180.5 140.275 214.5 145.539 214.5C150.803 214.5 145.539 199 150.218 201C153.961 202.6 154.897 205.667 154.897 207C155.287 196.167 156.417 174.5 157.821 174.5C159.576 174.5 161.915 211.5 163.085 211C164.021 210.6 166.594 208.167 167.764 207C167.764 211.167 168.349 219.5 170.688 219.5C173.612 219.5 173.028 180.5 174.782 180.5C176.537 180.5 178.291 208 181.216 208.5C184.14 209 181.8 180.5 184.14 180.5C186.479 180.5 186.479 201 189.404 201C192.328 201 191.158 159 194.083 159C197.007 159 194.083 191.5 198.177 191.5C201.452 191.5 202.661 177.5 202.856 170.5L205.78 201L210.459 185.5L213.383 223L220.986 160.5C221.961 168.667 224.261 184.7 225.665 183.5C227.069 182.3 227.81 177 228.005 174.5L229.759 191.5L232.683 187.5L236.193 207L239.117 176.5C239.507 185.333 240.755 203 242.626 203C244.966 203 249.06 204 249.645 199C250.229 194 250.229 188.5 251.399 190C252.335 191.2 254.128 197.833 254.908 201C255.103 183.5 256.078 148.5 258.417 148.5C260.757 148.5 263.291 159.833 264.266 165.5L267.775 121C267.97 140 268.945 178 271.284 178C274.209 178 274.794 155.5 276.548 155.5C278.303 155.5 278.303 189.5 280.057 187.5C281.812 185.5 280.057 176.5 282.982 176.5C285.906 176.5 284.151 180.5 285.906 180.5C287.661 180.5 285.906 170.5 288.83 170.5C291.755 170.5 290.585 176.5 291.17 176.5C291.638 176.5 292.924 156.5 293.509 146.5L297.018 194.5C297.213 190.833 298.188 183.5 300.528 183.5C302.867 183.5 303.062 190.833 302.867 194.5L305.791 162.5C306.571 167.167 308.482 176.5 309.885 176.5C311.64 176.5 314.564 172.5 314.564 176.5C314.564 180.5 315.734 207 320.413 207C325.092 207 323.337 165.5 326.846 165.5C329.654 165.5 330.356 173.833 330.356 178L335.034 174.5V194.5C339.128 196.167 347.083 201 346.147 207C344.977 214.5 347.317 219.5 349.071 219.5C350.826 219.5 356.089 174.5 357.259 174.5C358.429 174.5 361.353 219.5 364.278 219.5C367.202 219.5 364.278 165.5 366.617 165.5C368.489 165.5 369.736 177.5 370.126 183.5C370.711 180.833 372.232 176 373.635 178C375.39 180.5 377.145 185 378.314 183.5C379.484 182 378.899 196.5 382.408 197C385.216 197.4 385.138 186.167 384.748 180.5L388.257 203L393.521 160.5L398.2 201C399.369 199.667 402.06 197.4 403.463 199C404.867 200.6 406.388 183.333 406.972 174.5C407.557 181.833 409.897 196.3 414.576 195.5C420.424 194.5 423.934 179 425.688 180.5C427.443 182 426.858 206 429.197 208.5C431.537 211 430.952 218.5 433.291 218C435.631 217.5 435.046 201.5 436.8 203C438.204 204.2 439.725 207.167 440.31 208.5L442.064 167C443.624 164.5 447.211 160.1 449.083 162.5C451.422 165.5 452.007 203 453.761 203C455.165 203 457.076 174.667 457.856 160.5L462.534 183.5C463.509 181.5 465.81 177.8 467.213 179C468.968 180.5 469.553 203 472.477 203C475.401 203 477.741 171.5 478.911 168.5C480.08 165.5 483.589 177 485.929 178C488.268 179 489.438 176 494.117 191.5C498.796 207 497.041 205 499.966 205C502.89 205 501.135 155.5 502.89 155.5C504.294 155.5 505.814 165.5 506.399 170.5C507.764 168.167 510.61 164.2 511.078 167C511.663 170.5 511.078 194.5 515.757 194.5C520.436 194.5 519.851 160.5 521.606 160.5C523.36 160.5 522.775 194.5 525.115 194.5C527.454 194.5 527.454 171.5 529.794 173C532.133 174.5 530.963 205 532.718 205C534.472 205 544.415 208 545 213" stroke="#286EF1" stroke-width="2"/>
<path d="M40 176.8C76.6552 176.8 139.084 184 168.293 184C197.503 184 230.722 172 254.204 172C277.686 172 324.078 181.6 340.115 181.6C356.151 181.6 408.843 184 426.598 184C444.353 184 479.863 181.6 503.918 181.6C523.162 181.6 535.991 183.2 540 184" stroke="#770D98" stroke-width="2"/>
<circle cx="44" cy="177" r="4" fill="#770D98"/>
<circle cx="126" cy="182" r="4" fill="#770D98"/>
<circle cx="208" cy="178" r="4" fill="#770D98"/>
<circle cx="290" cy="175" r="4" fill="#770D98"/>
<circle cx="372" cy="181" r="4" fill="#770D98"/>
<circle cx="454" cy="182" r="4" fill="#770D98"/>
<circle cx="536" cy="183" r="4" fill="#770D98"/>
</g>
</g>
<defs>
<clipPath id="clip0_822_40279">
<path d="M0 9.99999C0 4.47715 4.47715 0 10 0H570C575.523 0 580 4.47715 580 10V259C580 264.523 575.523 269 570 269H9.99999C4.47714 269 0 264.523 0 259V9.99999Z" fill="white"/>
</clipPath>
<clipPath id="clip1_822_40279">
<rect width="500" height="120" fill="white" transform="translate(40 111)"/>
</clipPath>
</defs>
</svg>
