<svg width="500" height="350" viewBox="0 0 500 350" fill="none" xmlns="http://www.w3.org/2000/svg">
<g clip-path="url(#clip0_4704_92429)">
<rect x="66" y="76" width="22" height="4" rx="2" fill="#FF8E3C" fill-opacity="0.7"/>
<rect x="431" y="235" width="40" height="40" rx="10" fill="#1B6169"/>
<path d="M452.723 247.477L452.301 250.219L441.262 249.516L451.457 255.352L451.246 256.477L448.223 260.977L453.496 262.523L454.27 258.727L456.52 255.773L457.082 250.5H460.738V249.727L457.223 249.023L455.043 247.477H452.723ZM454.551 249.023L455.605 249.727L454.973 255.211L452.793 258.164L452.301 260.625L450.543 260.133L452.582 257.109L453.988 249.023H454.551ZM447.59 251.484L452.02 251.695L451.668 253.805L447.59 251.484ZM451.176 247.477H448.926V248.25H451.176V247.477ZM447.449 247.477H448.152V248.25H447.449V247.477ZM448.152 254.227H444.426V255H448.152V254.227ZM442.949 254.227H443.652V255H442.949V254.227ZM447.449 258.023V258.727H448.926V258.023H447.449ZM445.902 258.023H446.676V258.727H445.902V258.023Z" fill="white"/>
<rect x="66" y="108" width="329" height="142" fill="#F2F2F2"/>
<line x1="121.5" y1="108" x2="121.5" y2="250" stroke="white"/>
<line x1="176.5" y1="108" x2="176.5" y2="250" stroke="white"/>
<line x1="231.5" y1="108" x2="231.5" y2="250" stroke="white"/>
<line x1="286.5" y1="108" x2="286.5" y2="250" stroke="white"/>
<line x1="341.5" y1="108" x2="341.5" y2="250" stroke="white"/>
<line x1="65" y1="135.5" x2="395" y2="135.5" stroke="white"/>
<line x1="65" y1="163.5" x2="395" y2="163.5" stroke="white"/>
<line x1="65" y1="191.5" x2="395" y2="191.5" stroke="white"/>
<line x1="65" y1="219.5" x2="395" y2="219.5" stroke="white"/>
<path d="M39 131.976C51.7826 127.715 82.1414 120.472 101.315 125.585C125.283 131.976 130.732 147.109 142.859 151.152C162.033 157.543 173.218 125.583 190.794 131.976C216.359 141.275 221.153 178.315 246.718 181.51C272.283 184.706 309.033 176.717 339.392 215.065C363.679 245.743 404.903 254.478 422.479 255.011" stroke="#FF8E3C" stroke-width="2"/>
<circle cx="93.3263" cy="123.989" r="4.79349" fill="#FF8E3C"/>
<circle cx="147.653" cy="152.75" r="4.79349" fill="#FF8E3C"/>
<circle cx="201.979" cy="136.772" r="4.79349" fill="#FF8E3C"/>
<circle cx="256.305" cy="181.51" r="4.79349" fill="#FF8E3C"/>
<circle cx="310.631" cy="191.098" r="4.79349" fill="#FF8E3C"/>
<circle cx="364.957" cy="235.836" r="4.79349" fill="#FF8E3C"/>
<path d="M351.423 75.3486H349.572V74.377H351.423C351.745 74.377 352.006 74.3249 352.204 74.2207C352.403 74.1165 352.548 73.9733 352.639 73.791C352.733 73.6055 352.78 73.3939 352.78 73.1562C352.78 72.9316 352.733 72.7217 352.639 72.5264C352.548 72.3278 352.403 72.1683 352.204 72.0479C352.006 71.9274 351.745 71.8672 351.423 71.8672H349.948V78H348.723V70.8906H351.423C351.973 70.8906 352.44 70.9883 352.824 71.1836C353.212 71.3757 353.506 71.6426 353.708 71.9844C353.91 72.3229 354.011 72.7103 354.011 73.1465C354.011 73.6055 353.91 73.9993 353.708 74.3281C353.506 74.6569 353.212 74.9092 352.824 75.085C352.44 75.2607 351.973 75.3486 351.423 75.3486ZM357.539 71.8379L355.415 78H354.131L356.807 70.8906H357.627L357.539 71.8379ZM359.317 78L357.188 71.8379L357.095 70.8906H357.92L360.606 78H359.317ZM359.214 75.3633V76.335H355.347V75.3633H359.214ZM367.186 74.3672V77.082C367.085 77.2155 366.928 77.362 366.713 77.5215C366.501 77.6777 366.22 77.8128 365.868 77.9268C365.516 78.0407 365.079 78.0977 364.554 78.0977C364.109 78.0977 363.7 78.0228 363.329 77.873C362.958 77.7201 362.637 77.4971 362.367 77.2041C362.1 76.9111 361.893 76.5547 361.747 76.1348C361.6 75.7116 361.527 75.2298 361.527 74.6895V74.1963C361.527 73.6592 361.594 73.1807 361.727 72.7607C361.864 72.3376 362.059 71.9795 362.313 71.6865C362.567 71.3936 362.873 71.1722 363.231 71.0225C363.593 70.8695 364.001 70.793 364.457 70.793C365.04 70.793 365.521 70.8906 365.902 71.0859C366.286 71.278 366.582 71.5449 366.791 71.8867C366.999 72.2285 367.131 72.6191 367.186 73.0586H365.985C365.946 72.8112 365.87 72.5898 365.756 72.3945C365.645 72.1992 365.485 72.0462 365.277 71.9355C365.072 71.8216 364.805 71.7646 364.476 71.7646C364.193 71.7646 363.944 71.8184 363.729 71.9258C363.514 72.0332 363.335 72.1911 363.192 72.3994C363.052 72.6077 362.946 72.8617 362.875 73.1611C362.803 73.4606 362.767 73.8024 362.767 74.1865V74.6895C362.767 75.0801 362.808 75.4268 362.889 75.7295C362.974 76.0322 363.095 76.2878 363.251 76.4961C363.41 76.7044 363.604 76.8623 363.832 76.9697C364.06 77.0739 364.317 77.126 364.603 77.126C364.883 77.126 365.113 77.1032 365.292 77.0576C365.471 77.0088 365.612 76.9518 365.717 76.8867C365.824 76.8184 365.907 76.7533 365.966 76.6914V75.2803H364.486V74.3672H367.186ZM373.601 77.0283V78H369.826V77.0283H373.601ZM370.173 70.8906V78H368.947V70.8906H370.173ZM373.108 73.8594V74.8164H369.826V73.8594H373.108ZM373.576 70.8906V71.8672H369.826V70.8906H373.576ZM382.353 77.0283V78H378.783V77.0283H382.353ZM379.125 70.8906V78H377.899V70.8906H379.125ZM389.05 74.25V74.6406C389.05 75.1777 388.98 75.6595 388.84 76.0859C388.7 76.5124 388.5 76.8753 388.24 77.1748C387.982 77.4743 387.673 77.7038 387.312 77.8633C386.951 78.0195 386.55 78.0977 386.111 78.0977C385.675 78.0977 385.276 78.0195 384.914 77.8633C384.556 77.7038 384.245 77.4743 383.982 77.1748C383.718 76.8753 383.513 76.5124 383.367 76.0859C383.223 75.6595 383.152 75.1777 383.152 74.6406V74.25C383.152 73.7129 383.223 73.2327 383.367 72.8096C383.51 72.3831 383.712 72.0202 383.972 71.7207C384.236 71.418 384.547 71.1885 384.905 71.0322C385.266 70.8727 385.665 70.793 386.101 70.793C386.54 70.793 386.941 70.8727 387.302 71.0322C387.663 71.1885 387.974 71.418 388.235 71.7207C388.495 72.0202 388.695 72.3831 388.835 72.8096C388.979 73.2327 389.05 73.7129 389.05 74.25ZM387.825 74.6406V74.2402C387.825 73.8431 387.786 73.4932 387.707 73.1904C387.633 72.8844 387.52 72.6289 387.37 72.4238C387.224 72.2155 387.043 72.0592 386.828 71.9551C386.614 71.8477 386.371 71.7939 386.101 71.7939C385.831 71.7939 385.59 71.8477 385.378 71.9551C385.167 72.0592 384.986 72.2155 384.836 72.4238C384.69 72.6289 384.577 72.8844 384.499 73.1904C384.421 73.4932 384.382 73.8431 384.382 74.2402V74.6406C384.382 75.0378 384.421 75.3893 384.499 75.6953C384.577 76.0013 384.691 76.2601 384.841 76.4717C384.994 76.68 385.176 76.8379 385.388 76.9453C385.6 77.0495 385.841 77.1016 386.111 77.1016C386.384 77.1016 386.627 77.0495 386.838 76.9453C387.05 76.8379 387.229 76.68 387.375 76.4717C387.522 76.2601 387.633 76.0013 387.707 75.6953C387.786 75.3893 387.825 75.0378 387.825 74.6406ZM393.341 71.8379L391.217 78H389.932L392.608 70.8906H393.428L393.341 71.8379ZM395.118 78L392.989 71.8379L392.896 70.8906H393.721L396.407 78H395.118ZM395.015 75.3633V76.335H391.148V75.3633H395.015ZM399.672 78H398.153L398.163 77.0283H399.672C400.111 77.0283 400.479 76.9323 400.776 76.7402C401.075 76.5482 401.3 76.2731 401.449 75.915C401.602 75.557 401.679 75.1305 401.679 74.6357V74.25C401.679 73.8659 401.635 73.5257 401.547 73.2295C401.462 72.9333 401.335 72.6842 401.166 72.4824C401 72.2806 400.795 72.1276 400.551 72.0234C400.31 71.9193 400.032 71.8672 399.716 71.8672H398.124V70.8906H399.716C400.188 70.8906 400.619 70.9704 401.01 71.1299C401.401 71.2861 401.737 71.5124 402.021 71.8086C402.307 72.1048 402.527 72.4596 402.68 72.873C402.833 73.2865 402.909 73.7487 402.909 74.2598V74.6357C402.909 75.1468 402.833 75.609 402.68 76.0225C402.527 76.4359 402.307 76.7907 402.021 77.0869C401.734 77.3799 401.392 77.6061 400.995 77.7656C400.601 77.9219 400.16 78 399.672 78ZM398.832 70.8906V78H397.607V70.8906H398.832ZM410.128 70.8906V78H408.912V70.8906H410.128ZM412.359 70.8906V71.8672H406.7V70.8906H412.359ZM415.009 70.8906V78H413.784V70.8906H415.009ZM417.434 70.8906H418.528L420.584 76.374L422.634 70.8906H423.728L421.013 78H420.144L417.434 70.8906ZM416.936 70.8906H417.976L418.157 75.6367V78H416.936V70.8906ZM423.186 70.8906H424.231V78H423.006V75.6367L423.186 70.8906ZM430.743 77.0283V78H426.969V77.0283H430.743ZM427.316 70.8906V78H426.09V70.8906H427.316ZM430.25 73.8594V74.8164H426.969V73.8594H430.25ZM430.719 70.8906V71.8672H426.969V70.8906H430.719Z" fill="#ADBEE0"/>
<path d="M431.296 84.2686H417.167L369.5 225" stroke="#ADBEE0" stroke-width="2.01852"/>
<rect x="66" y="82" width="38" height="4" rx="2" fill="#FF8E3C" fill-opacity="0.7"/>
<path d="M78.0156 46.3672C77 46.2995 76.0182 46.401 75.0703 46.6719L74.4609 44.6406C75.6797 44.3021 76.8984 44.1328 78.1172 44.1328C80.013 44.2682 81.7396 44.8438 83.2969 45.8594C84.9219 46.875 86.1745 48.1953 87.0547 49.8203C87.9349 51.4453 88.3411 53.2396 88.2734 55.2031C88.2734 57.099 87.7995 58.8594 86.8516 60.4844C85.9036 62.1094 84.6172 63.3958 82.9922 64.3438C81.4349 65.2917 79.6745 65.7995 77.7109 65.8672C75.8151 65.8672 74.0208 65.4271 72.3281 64.5469C70.7031 63.6667 69.3828 62.4479 68.3672 60.8906C67.3516 59.2656 66.8099 57.5052 66.7422 55.6094L68.875 55.5078C68.9427 57.0651 69.3828 58.487 70.1953 59.7734C71.0078 60.9922 72.0573 61.974 73.3438 62.7188C74.6979 63.3958 76.1198 63.7344 77.6094 63.7344C79.1667 63.6667 80.5885 63.2604 81.875 62.5156C83.2292 61.7031 84.2786 60.6536 85.0234 59.3672C85.7682 58.0807 86.1406 56.6927 86.1406 55.2031C86.2083 53.6458 85.8698 52.224 85.125 50.9375C84.3802 49.5833 83.3646 48.5 82.0781 47.6875C80.8594 46.875 79.5052 46.4349 78.0156 46.3672ZM75.375 48.5H79.7422V49.6172H75.375V48.5ZM72.125 51.75V50.6328H76.4922V51.75H72.125ZM68.875 52.8672V53.8828H73.2422V52.8672H68.875ZM82.9922 50.6328L74.2578 60.3828L72.125 58.25L81.875 49.6172L82.9922 50.6328ZM73.2422 48.5H74.2578V49.6172H73.2422V48.5ZM71.0078 50.6328H69.9922V51.75H71.0078V50.6328ZM66.7422 52.8672H67.7578V53.8828H66.7422V52.8672Z" fill="#FF8E3C" fill-opacity="0.7"/>
<g filter="url(#filter0_d_4704_92429)">
<rect x="19" y="227" width="205" height="64" rx="10" fill="white"/>
<path d="M43.7695 250.954C43.7695 250.814 43.748 250.689 43.7051 250.578C43.6657 250.463 43.5905 250.359 43.4795 250.266C43.3685 250.169 43.2127 250.075 43.0122 249.981C42.8117 249.888 42.5521 249.792 42.2334 249.691C41.8789 249.577 41.5423 249.448 41.2236 249.305C40.9085 249.161 40.6292 248.995 40.3857 248.805C40.1458 248.612 39.9561 248.388 39.8164 248.134C39.6803 247.88 39.6123 247.584 39.6123 247.248C39.6123 246.922 39.6839 246.626 39.8271 246.361C39.9704 246.093 40.1709 245.864 40.4287 245.674C40.6865 245.48 40.9909 245.332 41.3418 245.228C41.6963 245.124 42.0848 245.072 42.5073 245.072C43.0838 245.072 43.5869 245.176 44.0166 245.384C44.4463 245.591 44.7793 245.876 45.0156 246.238C45.2555 246.599 45.3755 247.013 45.3755 247.479H43.7749C43.7749 247.249 43.7266 247.049 43.6299 246.877C43.5368 246.701 43.3936 246.564 43.2002 246.463C43.0104 246.363 42.7705 246.313 42.4805 246.313C42.2012 246.313 41.9684 246.356 41.7822 246.442C41.596 246.524 41.4564 246.637 41.3633 246.78C41.2702 246.92 41.2236 247.077 41.2236 247.253C41.2236 247.385 41.2559 247.505 41.3203 247.613C41.3883 247.72 41.4886 247.82 41.6211 247.914C41.7536 248.007 41.9165 248.094 42.1099 248.177C42.3032 248.259 42.527 248.34 42.7812 248.418C43.2074 248.547 43.5815 248.692 43.9038 248.854C44.2297 249.015 44.5018 249.195 44.7202 249.396C44.9386 249.597 45.1034 249.824 45.2144 250.078C45.3254 250.332 45.3809 250.621 45.3809 250.943C45.3809 251.283 45.3146 251.587 45.1821 251.856C45.0496 252.125 44.8581 252.352 44.6074 252.538C44.3568 252.724 44.0578 252.866 43.7104 252.962C43.3631 253.059 42.9746 253.107 42.5449 253.107C42.1582 253.107 41.7769 253.057 41.4009 252.957C41.0249 252.853 40.6829 252.697 40.375 252.49C40.0706 252.282 39.8271 252.017 39.6445 251.695C39.4619 251.373 39.3706 250.991 39.3706 250.551H40.9873C40.9873 250.794 41.0249 251 41.1001 251.168C41.1753 251.337 41.2809 251.473 41.417 251.577C41.5566 251.681 41.7214 251.756 41.9111 251.802C42.1045 251.849 42.3158 251.872 42.5449 251.872C42.8242 251.872 43.0534 251.833 43.2324 251.754C43.415 251.675 43.5493 251.566 43.6353 251.426C43.7248 251.287 43.7695 251.129 43.7695 250.954ZM49.7166 251.689V249.101C49.7166 248.914 49.6862 248.755 49.6253 248.623C49.5644 248.486 49.4695 248.381 49.3406 248.306C49.2153 248.23 49.0524 248.193 48.8519 248.193C48.68 248.193 48.5314 248.223 48.4061 248.284C48.2807 248.341 48.184 248.426 48.116 248.537C48.048 248.644 48.014 248.771 48.014 248.918H46.4671C46.4671 248.671 46.5244 248.436 46.639 248.214C46.7535 247.992 46.9201 247.797 47.1385 247.629C47.3569 247.457 47.6165 247.323 47.9173 247.226C48.2216 247.129 48.5618 247.081 48.9378 247.081C49.389 247.081 49.79 247.156 50.1409 247.307C50.4918 247.457 50.7675 247.683 50.9681 247.983C51.1722 248.284 51.2742 248.66 51.2742 249.111V251.598C51.2742 251.917 51.2939 252.178 51.3333 252.382C51.3727 252.583 51.43 252.758 51.5052 252.909V253H49.9422C49.867 252.842 49.8097 252.646 49.7703 252.409C49.7345 252.169 49.7166 251.929 49.7166 251.689ZM49.9207 249.46L49.9314 250.336H49.0667C48.8626 250.336 48.6854 250.359 48.535 250.406C48.3846 250.452 48.261 250.519 48.1644 250.604C48.0677 250.687 47.9961 250.784 47.9495 250.895C47.9065 251.006 47.8851 251.127 47.8851 251.26C47.8851 251.392 47.9155 251.512 47.9764 251.62C48.0372 251.723 48.125 251.806 48.2396 251.867C48.3541 251.924 48.4884 251.953 48.6424 251.953C48.8751 251.953 49.0774 251.906 49.2493 251.813C49.4212 251.72 49.5537 251.605 49.6468 251.469C49.7435 251.333 49.7936 251.204 49.7972 251.083L50.2054 251.738C50.1481 251.885 50.0693 252.037 49.969 252.194C49.8724 252.352 49.7488 252.5 49.5984 252.64C49.448 252.776 49.2672 252.889 49.056 252.979C48.8447 253.064 48.594 253.107 48.304 253.107C47.9352 253.107 47.6004 253.034 47.2996 252.887C47.0024 252.737 46.7661 252.531 46.5906 252.27C46.4187 252.005 46.3328 251.704 46.3328 251.367C46.3328 251.063 46.3901 250.792 46.5047 250.556C46.6193 250.32 46.7876 250.121 47.0096 249.96C47.2352 249.795 47.5162 249.672 47.8528 249.589C48.1894 249.503 48.5797 249.46 49.0237 249.46H49.9207ZM54.6378 253H53.0802V246.673C53.0802 246.232 53.1661 245.862 53.338 245.561C53.5134 245.257 53.7587 245.028 54.0738 244.874C54.3925 244.716 54.7703 244.637 55.2071 244.637C55.3504 244.637 55.4882 244.648 55.6207 244.669C55.7532 244.687 55.8821 244.711 56.0074 244.739L55.9913 245.905C55.9233 245.887 55.8517 245.874 55.7765 245.867C55.7013 245.86 55.6135 245.856 55.5133 245.856C55.3271 245.856 55.1677 245.889 55.0353 245.953C54.9063 246.014 54.8079 246.105 54.7398 246.227C54.6718 246.349 54.6378 246.497 54.6378 246.673V253ZM55.7979 247.188V248.284H52.2154V247.188H55.7979ZM59.3549 253.107C58.9037 253.107 58.4991 253.036 58.141 252.893C57.7829 252.746 57.4786 252.543 57.2279 252.286C56.9809 252.028 56.7911 251.729 56.6586 251.389C56.5261 251.045 56.4599 250.68 56.4599 250.293V250.078C56.4599 249.638 56.5225 249.235 56.6479 248.87C56.7732 248.504 56.9522 248.188 57.185 247.919C57.4213 247.65 57.7077 247.444 58.0443 247.301C58.3809 247.154 58.7605 247.081 59.183 247.081C59.5948 247.081 59.96 247.149 60.2787 247.285C60.5974 247.421 60.8642 247.615 61.079 247.865C61.2974 248.116 61.4621 248.417 61.5731 248.768C61.6841 249.115 61.7396 249.502 61.7396 249.928V250.572H57.1205V249.541H60.2196V249.423C60.2196 249.208 60.1802 249.016 60.1015 248.848C60.0263 248.676 59.9117 248.54 59.7577 248.44C59.6037 248.34 59.4068 248.29 59.1669 248.29C58.9628 248.29 58.7873 248.334 58.6405 248.424C58.4937 248.513 58.3738 248.639 58.2807 248.8C58.1911 248.961 58.1231 249.151 58.0766 249.369C58.0336 249.584 58.0121 249.82 58.0121 250.078V250.293C58.0121 250.526 58.0443 250.741 58.1088 250.938C58.1768 251.134 58.2717 251.305 58.3935 251.448C58.5188 251.591 58.6692 251.702 58.8446 251.781C59.0237 251.86 59.226 251.899 59.4516 251.899C59.7309 251.899 59.9905 251.845 60.2304 251.738C60.4739 251.627 60.6833 251.46 60.8588 251.238L61.6107 252.055C61.489 252.23 61.3225 252.398 61.1112 252.56C60.9035 252.721 60.6529 252.853 60.3593 252.957C60.0657 253.057 59.7309 253.107 59.3549 253.107ZM66.5923 245.18H67.9565L69.9653 250.921L71.9741 245.18H73.3384L70.5132 253H69.4175L66.5923 245.18ZM65.8564 245.18H67.2153L67.4624 250.776V253H65.8564V245.18ZM72.7153 245.18H74.0796V253H72.4683V250.776L72.7153 245.18ZM75.3484 250.153V250.041C75.3484 249.614 75.4093 249.222 75.5311 248.864C75.6528 248.503 75.83 248.189 76.0628 247.924C76.2955 247.659 76.582 247.453 76.9222 247.307C77.2623 247.156 77.6526 247.081 78.0931 247.081C78.5335 247.081 78.9256 247.156 79.2693 247.307C79.6131 247.453 79.9013 247.659 80.1341 247.924C80.3704 248.189 80.5494 248.503 80.6712 248.864C80.7929 249.222 80.8538 249.614 80.8538 250.041V250.153C80.8538 250.576 80.7929 250.968 80.6712 251.33C80.5494 251.688 80.3704 252.001 80.1341 252.27C79.9013 252.535 79.6149 252.74 79.2747 252.887C78.9345 253.034 78.5442 253.107 78.1038 253.107C77.6634 253.107 77.2713 253.034 76.9275 252.887C76.5874 252.74 76.2991 252.535 76.0628 252.27C75.83 252.001 75.6528 251.688 75.5311 251.33C75.4093 250.968 75.3484 250.576 75.3484 250.153ZM76.8953 250.041V250.153C76.8953 250.397 76.9168 250.624 76.9598 250.835C77.0027 251.047 77.0708 251.233 77.1639 251.394C77.2605 251.552 77.3859 251.675 77.5398 251.765C77.6938 251.854 77.8818 251.899 78.1038 251.899C78.3187 251.899 78.5031 251.854 78.657 251.765C78.811 251.675 78.9345 251.552 79.0276 251.394C79.1207 251.233 79.1888 251.047 79.2317 250.835C79.2783 250.624 79.3016 250.397 79.3016 250.153V250.041C79.3016 249.804 79.2783 249.582 79.2317 249.375C79.1888 249.163 79.1189 248.977 79.0223 248.816C78.9292 248.651 78.8056 248.522 78.6517 248.429C78.4977 248.336 78.3115 248.29 78.0931 248.29C77.8746 248.29 77.6884 248.336 77.5345 248.429C77.3841 248.522 77.2605 248.651 77.1639 248.816C77.0708 248.977 77.0027 249.163 76.9598 249.375C76.9168 249.582 76.8953 249.804 76.8953 250.041ZM85.4366 251.732V244.75H86.9942V253H85.5924L85.4366 251.732ZM81.7628 250.164V250.051C81.7628 249.607 81.8129 249.204 81.9132 248.843C82.0134 248.478 82.1603 248.164 82.3536 247.903C82.547 247.641 82.7851 247.439 83.068 247.296C83.3508 247.153 83.6731 247.081 84.0348 247.081C84.3749 247.081 84.6721 247.153 84.9264 247.296C85.1842 247.439 85.4026 247.643 85.5816 247.908C85.7643 248.17 85.9111 248.479 86.0221 248.837C86.1331 249.192 86.2136 249.58 86.2638 250.003V250.25C86.2136 250.655 86.1331 251.031 86.0221 251.378C85.9111 251.725 85.7643 252.03 85.5816 252.291C85.4026 252.549 85.1842 252.749 84.9264 252.893C84.6686 253.036 84.3678 253.107 84.024 253.107C83.6624 253.107 83.3401 253.034 83.0572 252.887C82.7779 252.74 82.5416 252.535 82.3482 252.27C82.1585 252.005 82.0134 251.693 81.9132 251.335C81.8129 250.977 81.7628 250.587 81.7628 250.164ZM83.3097 250.051V250.164C83.3097 250.404 83.3276 250.628 83.3634 250.835C83.4028 251.043 83.4654 251.228 83.5514 251.389C83.6409 251.546 83.7555 251.67 83.8951 251.759C84.0383 251.845 84.212 251.888 84.4161 251.888C84.6811 251.888 84.8995 251.829 85.0714 251.711C85.2433 251.589 85.374 251.423 85.4635 251.211C85.5566 251 85.6103 250.757 85.6246 250.481V249.777C85.6139 249.552 85.5816 249.349 85.5279 249.17C85.4778 248.988 85.4026 248.832 85.3023 248.703C85.2057 248.574 85.0839 248.474 84.9371 248.402C84.7939 248.331 84.6238 248.295 84.4269 248.295C84.2263 248.295 84.0545 248.341 83.9112 248.435C83.768 248.524 83.6516 248.648 83.5621 248.805C83.4762 248.963 83.4117 249.149 83.3688 249.364C83.3294 249.575 83.3097 249.804 83.3097 250.051ZM91.0775 253.107C90.6264 253.107 90.2217 253.036 89.8637 252.893C89.5056 252.746 89.2012 252.543 88.9506 252.286C88.7035 252.028 88.5137 251.729 88.3812 251.389C88.2488 251.045 88.1825 250.68 88.1825 250.293V250.078C88.1825 249.638 88.2452 249.235 88.3705 248.87C88.4958 248.504 88.6749 248.188 88.9076 247.919C89.1439 247.65 89.4304 247.444 89.767 247.301C90.1036 247.154 90.4831 247.081 90.9057 247.081C91.3174 247.081 91.6827 247.149 92.0014 247.285C92.3201 247.421 92.5868 247.615 92.8017 247.865C93.0201 248.116 93.1848 248.417 93.2958 248.768C93.4068 249.115 93.4623 249.502 93.4623 249.928V250.572H88.8432V249.541H91.9423V249.423C91.9423 249.208 91.9029 249.016 91.8241 248.848C91.7489 248.676 91.6343 248.54 91.4804 248.44C91.3264 248.34 91.1295 248.29 90.8895 248.29C90.6854 248.29 90.51 248.334 90.3632 248.424C90.2164 248.513 90.0964 248.639 90.0033 248.8C89.9138 248.961 89.8458 249.151 89.7992 249.369C89.7562 249.584 89.7348 249.82 89.7348 250.078V250.293C89.7348 250.526 89.767 250.741 89.8314 250.938C89.8995 251.134 89.9944 251.305 90.1161 251.448C90.2414 251.591 90.3918 251.702 90.5673 251.781C90.7463 251.86 90.9486 251.899 91.1742 251.899C91.4535 251.899 91.7131 251.845 91.953 251.738C92.1965 251.627 92.406 251.46 92.5814 251.238L93.3334 252.055C93.2117 252.23 93.0451 252.398 92.8339 252.56C92.6262 252.721 92.3756 252.853 92.0819 252.957C91.7883 253.057 91.4535 253.107 91.0775 253.107Z" fill="#1A1A1A"/>
<rect x="175.42" y="239.998" width="38.5801" height="18.004" rx="9.00202" fill="#7DD7F3"/>
<path d="M208.856 249C208.856 251.13 207.129 252.858 204.998 252.858C202.867 252.858 201.14 251.13 201.14 249C201.14 246.869 202.867 245.142 204.998 245.142C207.129 245.142 208.856 246.869 208.856 249Z" fill="#FAFAFA"/>
<circle cx="42" cy="269" r="3" fill="#3DC283"/>
<path d="M53.8027 265.873L51.2139 273H50.1558L53.1367 265.18H53.8188L53.8027 265.873ZM55.9727 273L53.3784 265.873L53.3623 265.18H54.0444L57.0361 273H55.9727ZM55.8384 270.105V270.954H51.4448V270.105H55.8384ZM60.4588 272.291C60.6951 272.291 60.9135 272.243 61.1141 272.146C61.3146 272.049 61.4793 271.917 61.6082 271.749C61.7371 271.577 61.8105 271.382 61.8284 271.163H62.7737C62.7558 271.507 62.6395 271.827 62.4246 272.125C62.2133 272.418 61.9358 272.656 61.5921 272.839C61.2483 273.018 60.8706 273.107 60.4588 273.107C60.0219 273.107 59.6406 273.03 59.3147 272.876C58.9925 272.722 58.7239 272.511 58.5091 272.243C58.2978 271.974 58.1385 271.666 58.0311 271.319C57.9272 270.968 57.8753 270.597 57.8753 270.207V269.981C57.8753 269.591 57.9272 269.222 58.0311 268.875C58.1385 268.524 58.2978 268.214 58.5091 267.946C58.7239 267.677 58.9925 267.466 59.3147 267.312C59.6406 267.158 60.0219 267.081 60.4588 267.081C60.9135 267.081 61.311 267.174 61.6512 267.36C61.9913 267.543 62.2581 267.794 62.4515 268.112C62.6484 268.427 62.7558 268.785 62.7737 269.187H61.8284C61.8105 268.947 61.7425 268.73 61.6243 268.537C61.5097 268.343 61.3522 268.189 61.1517 268.075C60.9547 267.957 60.7238 267.897 60.4588 267.897C60.1544 267.897 59.8984 267.958 59.6907 268.08C59.4866 268.198 59.3237 268.359 59.202 268.563C59.0838 268.764 58.9979 268.988 58.9441 269.235C58.894 269.478 58.8689 269.727 58.8689 269.981V270.207C58.8689 270.461 58.894 270.712 58.9441 270.959C58.9943 271.206 59.0784 271.43 59.1966 271.63C59.3183 271.831 59.4812 271.992 59.6854 272.114C59.893 272.232 60.1508 272.291 60.4588 272.291ZM66.524 267.188V267.951H63.3819V267.188H66.524ZM64.4454 265.776H65.4391V271.561C65.4391 271.757 65.4695 271.906 65.5304 272.006C65.5912 272.107 65.67 272.173 65.7667 272.205C65.8634 272.237 65.9672 272.253 66.0782 272.253C66.1606 272.253 66.2465 272.246 66.336 272.232C66.4291 272.214 66.499 272.2 66.5455 272.189L66.5509 273C66.4721 273.025 66.3683 273.048 66.2394 273.07C66.114 273.095 65.9618 273.107 65.7828 273.107C65.5393 273.107 65.3155 273.059 65.1114 272.962C64.9073 272.866 64.7444 272.705 64.6227 272.479C64.5045 272.25 64.4454 271.942 64.4454 271.555V265.776ZM68.9691 267.188V273H67.9701V267.188H68.9691ZM67.8949 265.647C67.8949 265.486 67.9433 265.35 68.0399 265.239C68.1402 265.128 68.287 265.072 68.4804 265.072C68.6702 265.072 68.8152 265.128 68.9154 265.239C69.0193 265.35 69.0712 265.486 69.0712 265.647C69.0712 265.801 69.0193 265.933 68.9154 266.044C68.8152 266.152 68.6702 266.206 68.4804 266.206C68.287 266.206 68.1402 266.152 68.0399 266.044C67.9433 265.933 67.8949 265.801 67.8949 265.647ZM72.5314 272.103L74.1213 267.188H75.1364L73.0471 273H72.3811L72.5314 272.103ZM71.2048 267.188L72.843 272.13L72.9558 273H72.2897L70.1843 267.188H71.2048ZM79.6333 272.006V269.015C79.6333 268.785 79.5868 268.587 79.4937 268.418C79.4041 268.247 79.2681 268.114 79.0854 268.021C78.9028 267.928 78.6772 267.881 78.4087 267.881C78.158 267.881 77.9378 267.924 77.748 268.01C77.5618 268.096 77.415 268.209 77.3076 268.349C77.2038 268.488 77.1519 268.639 77.1519 268.8H76.1582C76.1582 268.592 76.2119 268.386 76.3193 268.182C76.4268 267.978 76.5807 267.794 76.7812 267.629C76.9854 267.461 77.2288 267.328 77.5117 267.231C77.7982 267.131 78.1169 267.081 78.4678 267.081C78.8903 267.081 79.2627 267.153 79.585 267.296C79.9108 267.439 80.165 267.656 80.3477 267.946C80.5339 268.232 80.627 268.592 80.627 269.025V271.732C80.627 271.926 80.6431 272.132 80.6753 272.35C80.7111 272.569 80.763 272.757 80.8311 272.914V273H79.7944C79.7443 272.885 79.7049 272.733 79.6763 272.543C79.6476 272.35 79.6333 272.171 79.6333 272.006ZM79.8052 269.477L79.8159 270.175H78.8115C78.5286 270.175 78.2762 270.198 78.0542 270.245C77.8322 270.288 77.646 270.354 77.4956 270.443C77.3452 270.533 77.2306 270.646 77.1519 270.782C77.0731 270.914 77.0337 271.07 77.0337 271.249C77.0337 271.432 77.0749 271.598 77.1572 271.749C77.2396 271.899 77.3631 272.019 77.5278 272.108C77.6961 272.194 77.902 272.237 78.1455 272.237C78.4499 272.237 78.7184 272.173 78.9512 272.044C79.1839 271.915 79.3683 271.757 79.5044 271.571C79.644 271.385 79.7192 271.204 79.73 271.029L80.1543 271.507C80.1292 271.657 80.0612 271.824 79.9502 272.006C79.8392 272.189 79.6906 272.364 79.5044 272.533C79.3218 272.697 79.1034 272.835 78.8491 272.946C78.5985 273.054 78.3156 273.107 78.0005 273.107C77.6066 273.107 77.2611 273.03 76.9639 272.876C76.6702 272.722 76.4411 272.517 76.2764 272.259C76.1152 271.997 76.0347 271.706 76.0347 271.383C76.0347 271.072 76.0955 270.798 76.2173 270.562C76.339 270.322 76.5145 270.123 76.7437 269.965C76.9728 269.804 77.2485 269.682 77.5708 269.6C77.8931 269.518 78.2529 269.477 78.6504 269.477H79.8052ZM84.823 267.188V267.951H81.681V267.188H84.823ZM82.7444 265.776H83.7381V271.561C83.7381 271.757 83.7685 271.906 83.8294 272.006C83.8903 272.107 83.969 272.173 84.0657 272.205C84.1624 272.237 84.2662 272.253 84.3772 272.253C84.4596 272.253 84.5455 272.246 84.6351 272.232C84.7282 272.214 84.798 272.2 84.8445 272.189L84.8499 273C84.7711 273.025 84.6673 273.048 84.5384 273.07C84.4131 273.095 84.2609 273.107 84.0818 273.107C83.8383 273.107 83.6146 273.059 83.4104 272.962C83.2063 272.866 83.0434 272.705 82.9217 272.479C82.8035 272.25 82.7444 271.942 82.7444 271.555V265.776ZM88.6002 273.107C88.1956 273.107 87.8285 273.039 87.4991 272.903C87.1733 272.764 86.8922 272.569 86.6559 272.318C86.4231 272.067 86.2441 271.77 86.1188 271.426C85.9934 271.083 85.9308 270.707 85.9308 270.298V270.073C85.9308 269.6 86.0006 269.179 86.1402 268.811C86.2799 268.438 86.4697 268.123 86.7096 267.865C86.9495 267.607 87.2216 267.412 87.526 267.28C87.8303 267.147 88.1454 267.081 88.4713 267.081C88.8867 267.081 89.2447 267.153 89.5455 267.296C89.8499 267.439 90.0987 267.64 90.2921 267.897C90.4855 268.152 90.6287 268.452 90.7218 268.8C90.8149 269.144 90.8614 269.52 90.8614 269.928V270.374H86.5216V269.562H89.8678V269.487C89.8535 269.229 89.7997 268.979 89.7066 268.735C89.6171 268.492 89.4739 268.291 89.277 268.134C89.08 267.976 88.8115 267.897 88.4713 267.897C88.2457 267.897 88.038 267.946 87.8482 268.042C87.6585 268.136 87.4955 268.275 87.3595 268.461C87.2234 268.648 87.1178 268.875 87.0426 269.144C86.9674 269.412 86.9298 269.722 86.9298 270.073V270.298C86.9298 270.574 86.9674 270.834 87.0426 271.077C87.1214 271.317 87.2341 271.528 87.381 271.711C87.5313 271.894 87.7122 272.037 87.9234 272.141C88.1383 272.244 88.3818 272.296 88.6539 272.296C89.0048 272.296 89.302 272.225 89.5455 272.082C89.789 271.938 90.0021 271.747 90.1847 271.507L90.7862 271.985C90.6609 272.175 90.5016 272.355 90.3082 272.527C90.1148 272.699 89.8767 272.839 89.5938 272.946C89.3146 273.054 88.9833 273.107 88.6002 273.107ZM95.8847 271.872V264.75H96.8837V273H95.9706L95.8847 271.872ZM91.9745 270.159V270.046C91.9745 269.602 92.0282 269.199 92.1356 268.837C92.2466 268.472 92.4024 268.159 92.6029 267.897C92.807 267.636 93.0487 267.436 93.328 267.296C93.6109 267.153 93.926 267.081 94.2733 267.081C94.6386 267.081 94.9573 267.146 95.2294 267.274C95.5051 267.4 95.7379 267.584 95.9276 267.828C96.121 268.068 96.2732 268.358 96.3842 268.698C96.4952 269.038 96.5722 269.423 96.6151 269.853V270.347C96.5757 270.773 96.4988 271.156 96.3842 271.496C96.2732 271.836 96.121 272.126 95.9276 272.366C95.7379 272.606 95.5051 272.791 95.2294 272.919C94.9537 273.045 94.6314 273.107 94.2626 273.107C93.9224 273.107 93.6109 273.034 93.328 272.887C93.0487 272.74 92.807 272.535 92.6029 272.27C92.4024 272.005 92.2466 271.693 92.1356 271.335C92.0282 270.973 91.9745 270.581 91.9745 270.159ZM92.9735 270.046V270.159C92.9735 270.449 93.0022 270.721 93.0595 270.975C93.1203 271.229 93.2134 271.453 93.3388 271.646C93.4641 271.84 93.6234 271.992 93.8168 272.103C94.0102 272.21 94.2411 272.264 94.5097 272.264C94.8391 272.264 95.1094 272.194 95.3207 272.055C95.5355 271.915 95.7074 271.731 95.8363 271.501C95.9652 271.272 96.0655 271.023 96.1371 270.755V269.46C96.0941 269.264 96.0315 269.074 95.9491 268.891C95.8703 268.705 95.7665 268.54 95.6376 268.397C95.5123 268.25 95.3565 268.134 95.1703 268.048C94.9877 267.962 94.7711 267.919 94.5204 267.919C94.2483 267.919 94.0137 267.976 93.8168 268.091C93.6234 268.202 93.4641 268.356 93.3388 268.553C93.2134 268.746 93.1203 268.972 93.0595 269.229C93.0022 269.484 92.9735 269.756 92.9735 270.046Z" fill="#505050"/>
<rect x="19.5" y="227.5" width="204" height="63" rx="9.5" stroke="#F2F2F2"/>
</g>
</g>
<defs>
<filter id="filter0_d_4704_92429" x="-1" y="212" width="245" height="104" filterUnits="userSpaceOnUse" color-interpolation-filters="sRGB">
<feFlood flood-opacity="0" result="BackgroundImageFix"/>
<feColorMatrix in="SourceAlpha" type="matrix" values="0 0 0 0 0 0 0 0 0 0 0 0 0 0 0 0 0 0 127 0" result="hardAlpha"/>
<feOffset dy="5"/>
<feGaussianBlur stdDeviation="10"/>
<feColorMatrix type="matrix" values="0 0 0 0 0 0 0 0 0 0 0 0 0 0 0 0 0 0 0.1 0"/>
<feBlend mode="multiply" in2="BackgroundImageFix" result="effect1_dropShadow_4704_92429"/>
<feBlend mode="normal" in="SourceGraphic" in2="effect1_dropShadow_4704_92429" result="shape"/>
</filter>
<clipPath id="clip0_4704_92429">
<rect width="500" height="350" fill="white"/>
</clipPath>
</defs>
</svg>
