<svg width="60" height="60" viewBox="0 0 60 60" fill="none" xmlns="http://www.w3.org/2000/svg">
<path d="M0 30C0 20.6812 0 16.0218 1.52241 12.3463C3.55229 7.44577 7.44577 3.55229 12.3463 1.52241C16.0218 0 20.6812 0 30 0V0C39.3188 0 43.9782 0 47.6537 1.52241C52.5542 3.55229 56.4477 7.44577 58.4776 12.3463C60 16.0218 60 20.6812 60 30V30C60 39.3188 60 43.9782 58.4776 47.6537C56.4477 52.5542 52.5542 56.4477 47.6537 58.4776C43.9782 60 39.3188 60 30 60V60C20.6812 60 16.0218 60 12.3463 58.4776C7.44577 56.4477 3.55229 52.5542 1.52241 47.6537C0 43.9782 0 39.3188 0 30V30Z" fill="#2DC4E0"/>
<g clip-path="url(#clip0_100_2536)">
<path d="M29.9999 17.4995C32.4722 17.4995 34.8889 18.2327 36.9445 19.6062C39.0001 20.9797 40.6023 22.9319 41.5484 25.216C42.4945 27.5001 42.742 30.0134 42.2597 32.4382C41.7774 34.8629 40.5869 37.0902 38.8387 38.8384C37.0906 40.5865 34.8633 41.7771 32.4385 42.2594C30.0138 42.7417 27.5004 42.4941 25.2164 41.548C22.9323 40.6019 20.98 38.9998 19.6065 36.9442C18.233 34.8886 17.4999 32.4718 17.4999 29.9995C17.4999 26.6843 18.8168 23.5049 21.1611 21.1607C23.5053 18.8165 26.6847 17.4995 29.9999 17.4995ZM29.9999 14.3745C26.9096 14.3745 23.8886 15.2909 21.3191 17.0078C18.7496 18.7247 16.7469 21.165 15.5643 24.0201C14.3817 26.8752 14.0722 30.0169 14.6751 33.0478C15.278 36.0788 16.7661 38.8629 18.9513 41.0481C21.1365 43.2333 23.9207 44.7214 26.9516 45.3243C29.9826 45.9272 33.1242 45.6178 35.9793 44.4352C38.8344 43.2526 41.2747 41.2499 42.9916 38.6803C44.7085 36.1108 45.6249 33.0898 45.6249 29.9995C45.6249 25.8555 43.9787 21.8813 41.0484 18.951C38.1182 16.0207 34.1439 14.3745 29.9999 14.3745Z" fill="#61D3E8"/>
<path d="M29.9999 25.3123C31.6996 25.3123 33.3611 25.8163 34.7743 26.7606C36.1876 27.7049 37.289 29.0471 37.9395 30.6174C38.5899 32.1877 38.7601 33.9155 38.4285 35.5826C38.0969 37.2496 37.2784 38.7809 36.0766 39.9827C34.8747 41.1846 33.3435 42.0031 31.6765 42.3347C30.0094 42.6663 28.2815 42.4961 26.7112 41.8456C25.1409 41.1952 23.7987 40.0937 22.8544 38.6805C21.9101 37.2672 21.4061 35.6057 21.4061 33.906C21.4103 31.6281 22.317 29.4446 23.9278 27.8339C25.5385 26.2231 27.722 25.3164 29.9999 25.3123V25.3123ZM29.9999 22.1873C27.6821 22.1873 25.4164 22.8745 23.4893 24.1622C21.5622 25.4499 20.0601 27.2801 19.1732 29.4214C18.2862 31.5628 18.0541 33.919 18.5063 36.1922C18.9585 38.4655 20.0746 40.5535 21.7135 42.1924C23.3524 43.8313 25.4404 44.9474 27.7137 45.3996C29.9869 45.8518 32.3431 45.6197 34.4845 44.7328C36.6258 43.8458 38.456 42.3438 39.7437 40.4166C41.0314 38.4895 41.7186 36.2238 41.7186 33.906C41.7186 30.798 40.484 27.8173 38.2863 25.6196C36.0886 23.4219 33.1079 22.1873 29.9999 22.1873Z" fill="#99E1EE"/>
<path d="M30 33.1246C30.9271 33.1246 31.8334 33.3996 32.6043 33.9147C33.3751 34.4297 33.9759 35.1618 34.3307 36.0184C34.6855 36.8749 34.7783 37.8173 34.5974 38.7266C34.4166 39.6359 33.9701 40.4712 33.3146 41.1267C32.659 41.7823 31.8238 42.2287 30.9145 42.4096C30.0052 42.5905 29.0627 42.4977 28.2062 42.1429C27.3497 41.7881 26.6176 41.1873 26.1025 40.4164C25.5874 39.6456 25.3125 38.7392 25.3125 37.8121C25.3125 36.5689 25.8063 35.3766 26.6854 34.4975C27.5645 33.6185 28.7568 33.1246 30 33.1246ZM30 29.9996C28.4549 29.9996 26.9444 30.4578 25.6596 31.3163C24.3748 32.1747 23.3735 33.3949 22.7822 34.8225C22.1909 36.25 22.0362 37.8208 22.3376 39.3363C22.6391 40.8518 23.3831 42.2438 24.4757 43.3364C25.5683 44.429 26.9604 45.1731 28.4759 45.4745C29.9913 45.776 31.5622 45.6212 32.9897 45.0299C34.4173 44.4386 35.6374 43.4374 36.4959 42.1526C37.3543 40.8678 37.8125 39.3573 37.8125 37.8121C37.8125 35.7401 36.9894 33.753 35.5243 32.2879C34.0591 30.8228 32.072 29.9996 30 29.9996V29.9996Z" fill="white"/>
</g>
<defs>
<clipPath id="clip0_100_2536">
<rect width="31.25" height="31.25" fill="white" transform="translate(14.375 14.3749)"/>
</clipPath>
</defs>
</svg>
