<svg width="25" height="52" viewBox="0 0 25 52" fill="none" xmlns="http://www.w3.org/2000/svg" aria-hidden="true">
<path fill-rule="evenodd" clip-rule="evenodd" d="M7.74315 51.5C8.74315 51.5 9.84315 51.3 10.7432 50.8C11.6432 50.4 12.5432 49.7 13.1432 48.9C11.6432 47.8 9.84315 47.2 8.04315 47.4C6.24315 47.6 4.54316 48.5 3.34316 49.9C4.64316 51 6.14315 51.5 7.74315 51.5ZM4.54315 43.1C4.54315 41.5 4.04315 40 3.04315 38.7C1.64315 39.9 0.743154 41.6 0.543154 43.4C0.343154 45.2 0.843148 47.1 1.94315 48.6C2.74315 47.9 3.34316 47.1 3.84316 46.1C4.34316 45.2 4.54315 44.2 4.54315 43.1ZM15.1432 45.1C16.1432 44.8 17.0432 44.3 17.8432 43.7C18.6432 43 19.2432 42.2 19.7432 41.2C18.0432 40.5 16.1431 40.5 14.4431 41.2C12.7431 41.9 11.3432 43.2 10.5432 44.9C12.0432 45.4 13.6432 45.5 15.1432 45.1ZM10.0432 37.8C9.64315 36.3 8.74315 34.9 7.54315 34C6.44315 35.5 6.04316 37.4 6.34316 39.2C6.64316 41 7.54315 42.7 9.04315 43.8C9.64315 42.9 10.0432 41.9 10.2432 40.9C10.3432 39.9 10.2432 38.8 10.0432 37.8ZM21.9431 36.5C22.7431 35.8 23.4431 35 23.8431 34C24.2431 33 24.5432 32 24.5432 31C22.7432 31.1 20.9432 31.8 19.6432 33.2C18.3432 34.5 17.6432 36.3 17.6432 38.2C19.2432 38.1 20.7431 37.5 21.9431 36.5ZM14.2432 32.1C13.2432 30.8 11.8432 30 10.3432 29.7C10.0432 31.5 10.3432 33.4 11.3432 35C12.3432 36.6 13.9432 37.7 15.7432 38.1C15.9432 37.1 15.9432 36 15.6432 35C15.3432 33.8 14.9432 32.9 14.2432 32.1ZM23.1432 26.3C23.7432 25.4 24.1431 24.5 24.3431 23.4C24.5431 22.4 24.5432 21.3 24.2432 20.3C22.4432 20.8 21.0432 22.1 20.1432 23.7C19.2432 25.3 19.0431 27.2 19.4431 29C20.9431 28.6 22.2432 27.6 23.1432 26.3ZM14.5432 24.1C13.2432 23.2 11.7432 22.7 10.1432 22.8C10.2432 24.6 11.1432 26.4 12.5432 27.6C13.9432 28.8 15.7432 29.5 17.5432 29.4C17.4432 28.3 17.1432 27.3 16.6432 26.4C16.1432 25.5 15.4432 24.7 14.5432 24.1ZM22.1432 16C22.4432 15 22.5431 13.9 22.3431 12.9C22.2431 11.9 21.8432 10.9 21.2432 10C19.7432 11.1 18.7432 12.7 18.3432 14.5C18.0432 16.3 18.3431 18.2 19.3431 19.8C20.7431 18.9 21.6432 17.5 22.1432 16ZM13.2432 16.6C11.7432 16.1 10.1432 16.2 8.64316 16.7C9.34316 18.4 10.7432 19.8 12.3432 20.5C14.0432 21.2 15.9432 21.3 17.6432 20.6C17.2432 19.6 16.6432 18.8 15.8432 18.1C15.1432 17.5 14.2432 16.9 13.2432 16.6ZM17.7432 7.8C18.0431 5.6 17.2432 3.5 15.8432 2C14.5432 3.3 13.8432 5.1 13.8432 7C13.8432 8.9 14.5432 10.7 15.7432 12C16.8432 10.8 17.5431 9.4 17.7432 7.8ZM9.14316 9.9C7.54316 9.7 6.04316 10 4.64316 10.9C5.64316 12.5 7.24315 13.6 8.94315 14C10.7431 14.4 12.6432 14.1 14.1432 13.2C13.5432 12.3 12.8431 11.6 11.9431 11C11.1431 10.4 10.1432 10.1 9.14316 9.9ZM8.04315 2.1C6.84315 1.1 5.34315 0.6 3.74315 0.5C3.84315 2.4 4.54316 4.1 5.84316 5.4C7.14316 6.7 8.94315 7.4 10.7432 7.5C10.7432 6.4 10.4431 5.4 9.94315 4.5C9.54315 3.5 8.84315 2.7 8.04315 2.1Z" fill="#23CCA2"></path>
</svg>