<svg width="150" height="168" viewBox="0 0 150 168" fill="none" xmlns="http://www.w3.org/2000/svg">
<g clip-path="url(#clip0_15_480)">
<path d="M10 132.9V2H139V132.9L74.45 165.76L10 132.9Z" fill="white"/>
<path d="M137 4V131.67L74.45 163.51L12 131.67V4H137ZM141 0H8V134.12L74.45 168L141 134.12V0Z" fill="#DCDEDC"/>
<path d="M12.22 131.78L74.43 163.5L137 131.7V4.68005L12.22 131.78Z" fill="#F2F3F2"/>
<path d="M144.98 90H5.16966L0 101L5.16966 112H144.99L150 101L144.98 90Z" fill="#FF492C"/>
<path d="M75.0778 6.12022C75.7101 6.12022 76.3327 6.12022 76.965 6.27565L75.0778 9.87978C72.2471 9.72435 69.7374 11.9199 69.5817 14.7468C69.4261 17.5738 71.6245 20.0801 74.4553 20.2356H75.0875C76.3424 20.2356 77.5973 19.7693 78.5409 18.9824L80.5837 22.4311C79.0175 23.5288 77.1303 24.1603 75.0875 24.1603C70.0584 24.3157 65.8171 20.5562 65.6615 15.5337C65.5058 10.5112 69.2704 6.27565 74.2996 6.12022H75.0875H75.0778ZM81.5175 13.8045L83.8716 17.7292L81.5175 21.4985L79.3191 17.7292H74.7665L77.1206 13.8045H81.5175ZM77.7432 12.3959C77.7432 11.7644 77.8988 11.1427 78.2101 10.6667C78.5214 10.1906 79.1537 9.72435 79.6206 9.41348L79.9319 9.25805C80.5642 8.94718 80.7198 8.79174 80.7198 8.47116C80.7198 8.15058 80.2529 7.83971 79.9319 7.83971C79.2996 7.83971 78.8327 8.15058 78.5214 8.78203L77.7335 7.99514C77.8891 7.68427 78.2004 7.36369 78.5214 7.05282C78.9883 6.74196 79.465 6.74196 79.9319 6.74196C80.3988 6.74196 81.0311 6.89739 81.3424 7.20826C81.6537 7.51913 81.9747 7.99514 81.9747 8.46145C81.9747 9.24833 81.5078 9.87007 80.5642 10.1906L80.0973 10.5015C79.6303 10.8124 79.3093 10.9678 79.1537 11.4438H81.9844V12.5416L77.7432 12.3862V12.3959ZM75.0778 32L90 23.5288V0H60V23.3734L75.0778 32Z" fill="#FF492C"/>
<path d="M32.6299 83C32.5366 83 32.4526 82.972 32.3779 82.916C32.3219 82.8413 32.2939 82.7573 32.2939 82.664V63.736C32.2939 63.6427 32.3219 63.568 32.3779 63.512C32.4526 63.4373 32.5366 63.4 32.6299 63.4H35.9059C35.9993 63.4 36.0739 63.4373 36.1299 63.512C36.2046 63.568 36.2419 63.6427 36.2419 63.736V79.472C36.2419 79.5653 36.2886 79.612 36.3819 79.612H45.5379C45.6313 79.612 45.7059 79.6493 45.7619 79.724C45.8366 79.78 45.8739 79.8547 45.8739 79.948V82.664C45.8739 82.7573 45.8366 82.8413 45.7619 82.916C45.7059 82.972 45.6313 83 45.5379 83H32.6299ZM61.0054 74.32C61.1174 75.0293 61.1547 75.8227 61.1174 76.7C61.0987 76.924 60.9774 77.036 60.7534 77.036H52.1014C51.9894 77.036 51.952 77.0827 51.9894 77.176C52.0454 77.5493 52.148 77.9227 52.2974 78.296C52.7827 79.3413 53.772 79.864 55.2654 79.864C56.46 79.8453 57.4027 79.36 58.0934 78.408C58.168 78.296 58.252 78.24 58.3454 78.24C58.4014 78.24 58.4667 78.2773 58.5414 78.352L60.5574 80.34C60.6507 80.4333 60.6974 80.5173 60.6974 80.592C60.6974 80.6293 60.66 80.704 60.5854 80.816C59.9694 81.5813 59.176 82.1787 58.2054 82.608C57.2347 83.0187 56.1707 83.224 55.0134 83.224C53.408 83.224 52.0454 82.86 50.9254 82.132C49.824 81.404 49.0307 80.3867 48.5454 79.08C48.1534 78.1467 47.9574 76.924 47.9574 75.412C47.9574 74.3853 48.0974 73.48 48.3774 72.696C48.8067 71.3707 49.5534 70.316 50.6174 69.532C51.7 68.748 52.9787 68.356 54.4534 68.356C56.32 68.356 57.8134 68.8973 58.9334 69.98C60.072 71.0627 60.7627 72.5093 61.0054 74.32ZM54.4814 71.772C53.3054 71.772 52.5307 72.3227 52.1574 73.424C52.0827 73.6667 52.0174 73.9653 51.9614 74.32C51.9614 74.4133 52.008 74.46 52.1014 74.46H56.9454C57.0574 74.46 57.0947 74.4133 57.0574 74.32C56.964 73.7787 56.9174 73.5173 56.9174 73.536C56.7494 72.976 56.4507 72.5467 56.0214 72.248C55.6107 71.9307 55.0974 71.772 54.4814 71.772ZM69.3538 68.384C70.5671 68.384 71.6498 68.5987 72.6018 69.028C73.5538 69.4387 74.2911 70.008 74.8138 70.736C75.3551 71.464 75.6258 72.276 75.6258 73.172V82.664C75.6258 82.7573 75.5885 82.8413 75.5138 82.916C75.4578 82.972 75.3831 83 75.2898 83H72.0138C71.9205 83 71.8365 82.972 71.7618 82.916C71.7058 82.8413 71.6778 82.7573 71.6778 82.664V81.74C71.6778 81.684 71.6591 81.6467 71.6218 81.628C71.5845 81.6093 71.5471 81.628 71.5098 81.684C70.7258 82.7107 69.4658 83.224 67.7298 83.224C66.2738 83.224 65.0978 82.8693 64.2018 82.16C63.3058 81.4507 62.8578 80.4053 62.8578 79.024C62.8578 77.5867 63.3618 76.476 64.3698 75.692C65.3778 74.8893 66.8151 74.488 68.6818 74.488H71.5378C71.6311 74.488 71.6778 74.4413 71.6778 74.348V73.732C71.6778 73.116 71.4911 72.64 71.1178 72.304C70.7445 71.9493 70.1845 71.772 69.4378 71.772C68.8591 71.772 68.3738 71.8747 67.9818 72.08C67.6085 72.2853 67.3658 72.5747 67.2538 72.948C67.1978 73.1533 67.0765 73.2467 66.8898 73.228L63.5018 72.78C63.2778 72.7427 63.1751 72.6587 63.1938 72.528C63.2685 71.744 63.5765 71.0347 64.1178 70.4C64.6778 69.7653 65.4058 69.2707 66.3018 68.916C67.2165 68.5613 68.2338 68.384 69.3538 68.384ZM68.7938 80.284C69.5965 80.284 70.2778 80.0693 70.8378 79.64C71.3978 79.2107 71.6778 78.66 71.6778 77.988V76.98C71.6778 76.8867 71.6311 76.84 71.5378 76.84H69.5218C68.6818 76.84 68.0191 76.9987 67.5338 77.316C67.0671 77.6333 66.8338 78.0813 66.8338 78.66C66.8338 79.164 67.0111 79.5653 67.3658 79.864C67.7205 80.144 68.1965 80.284 68.7938 80.284ZM87.5388 63.736C87.5388 63.6427 87.5668 63.568 87.6228 63.512C87.6974 63.4373 87.7814 63.4 87.8748 63.4H91.1508C91.2441 63.4 91.3188 63.4373 91.3748 63.512C91.4494 63.568 91.4868 63.6427 91.4868 63.736V82.664C91.4868 82.7573 91.4494 82.8413 91.3748 82.916C91.3188 82.972 91.2441 83 91.1508 83H87.8748C87.7814 83 87.6974 82.972 87.6228 82.916C87.5668 82.8413 87.5388 82.7573 87.5388 82.664V81.74C87.5388 81.684 87.5201 81.656 87.4828 81.656C87.4454 81.6373 87.4081 81.6467 87.3708 81.684C86.5868 82.7107 85.5134 83.224 84.1508 83.224C82.8441 83.224 81.7148 82.86 80.7628 82.132C79.8294 81.404 79.1574 80.4053 78.7468 79.136C78.4294 78.1653 78.2708 77.036 78.2708 75.748C78.2708 74.4227 78.4388 73.2653 78.7748 72.276C79.2041 71.0813 79.8761 70.1387 80.7908 69.448C81.7241 68.7387 82.8721 68.384 84.2348 68.384C85.5788 68.384 86.6241 68.8507 87.3708 69.784C87.4081 69.84 87.4454 69.8587 87.4828 69.84C87.5201 69.8213 87.5388 69.784 87.5388 69.728V63.736ZM86.9508 78.632C87.3241 77.9413 87.5108 76.9987 87.5108 75.804C87.5108 74.5533 87.3054 73.5733 86.8948 72.864C86.4654 72.136 85.8401 71.772 85.0188 71.772C84.1414 71.772 83.4788 72.136 83.0308 72.864C82.5641 73.592 82.3308 74.5813 82.3308 75.832C82.3308 76.952 82.5268 77.8853 82.9188 78.632C83.3854 79.4347 84.0761 79.836 84.9908 79.836C85.8308 79.836 86.4841 79.4347 86.9508 78.632ZM107.406 74.32C107.518 75.0293 107.555 75.8227 107.518 76.7C107.499 76.924 107.378 77.036 107.154 77.036H98.5022C98.3902 77.036 98.3528 77.0827 98.3902 77.176C98.4462 77.5493 98.5488 77.9227 98.6982 78.296C99.1835 79.3413 100.173 79.864 101.666 79.864C102.861 79.8453 103.803 79.36 104.494 78.408C104.569 78.296 104.653 78.24 104.746 78.24C104.802 78.24 104.867 78.2773 104.942 78.352L106.958 80.34C107.051 80.4333 107.098 80.5173 107.098 80.592C107.098 80.6293 107.061 80.704 106.986 80.816C106.37 81.5813 105.577 82.1787 104.606 82.608C103.635 83.0187 102.571 83.224 101.414 83.224C99.8088 83.224 98.4462 82.86 97.3262 82.132C96.2248 81.404 95.4315 80.3867 94.9462 79.08C94.5542 78.1467 94.3582 76.924 94.3582 75.412C94.3582 74.3853 94.4982 73.48 94.7782 72.696C95.2075 71.3707 95.9542 70.316 97.0182 69.532C98.1008 68.748 99.3795 68.356 100.854 68.356C102.721 68.356 104.214 68.8973 105.334 69.98C106.473 71.0627 107.163 72.5093 107.406 74.32ZM100.882 71.772C99.7062 71.772 98.9315 72.3227 98.5582 73.424C98.4835 73.6667 98.4182 73.9653 98.3622 74.32C98.3622 74.4133 98.4088 74.46 98.5022 74.46H103.346C103.458 74.46 103.495 74.4133 103.458 74.32C103.365 73.7787 103.318 73.5173 103.318 73.536C103.15 72.976 102.851 72.5467 102.422 72.248C102.011 71.9307 101.498 71.772 100.882 71.772ZM117.319 68.412C117.991 68.412 118.523 68.5427 118.915 68.804C119.065 68.8787 119.121 69.0187 119.083 69.224L118.495 72.416C118.477 72.64 118.346 72.7053 118.103 72.612C117.823 72.5187 117.497 72.472 117.123 72.472C116.974 72.472 116.769 72.4907 116.507 72.528C115.835 72.584 115.266 72.836 114.799 73.284C114.333 73.7133 114.099 74.292 114.099 75.02V82.664C114.099 82.7573 114.062 82.8413 113.987 82.916C113.931 82.972 113.857 83 113.763 83H110.487C110.394 83 110.31 82.972 110.235 82.916C110.179 82.8413 110.151 82.7573 110.151 82.664V68.944C110.151 68.8507 110.179 68.776 110.235 68.72C110.31 68.6453 110.394 68.608 110.487 68.608H113.763C113.857 68.608 113.931 68.6453 113.987 68.72C114.062 68.776 114.099 68.8507 114.099 68.944V70.008C114.099 70.064 114.118 70.1013 114.155 70.12C114.193 70.1387 114.221 70.1293 114.239 70.092C115.005 68.972 116.031 68.412 117.319 68.412Z" fill="#252530"/>
<path d="M49.8098 107C49.6925 107 49.6178 106.947 49.5858 106.84L46.6738 96.008L46.6578 95.944C46.6578 95.848 46.7165 95.8 46.8338 95.8H48.4018C48.5191 95.8 48.5938 95.8533 48.6258 95.96L50.4498 103.256C50.4605 103.288 50.4765 103.304 50.4978 103.304C50.5191 103.304 50.5351 103.288 50.5458 103.256L52.2898 95.96C52.3218 95.8533 52.3911 95.8 52.4978 95.8H54.0338C54.1511 95.8 54.2258 95.8533 54.2578 95.96L56.1138 103.272C56.1245 103.304 56.1405 103.32 56.1618 103.32C56.1831 103.32 56.1991 103.304 56.2098 103.272L58.0018 95.96C58.0338 95.8533 58.1085 95.8 58.2258 95.8H59.7138C59.8631 95.8 59.9218 95.8693 59.8898 96.008L57.1218 106.84C57.0898 106.947 57.0151 107 56.8978 107H55.4098C55.2925 107 55.2178 106.947 55.1858 106.84L53.3138 99.208C53.3031 99.176 53.2871 99.16 53.2658 99.16C53.2445 99.1493 53.2285 99.1653 53.2178 99.208L51.4258 106.84C51.3938 106.947 51.3245 107 51.2178 107H49.8098ZM61.6647 107C61.6114 107 61.5634 106.984 61.5207 106.952C61.4887 106.909 61.4727 106.861 61.4727 106.808V95.992C61.4727 95.9387 61.4887 95.896 61.5207 95.864C61.5634 95.8213 61.6114 95.8 61.6647 95.8H63.1367C63.19 95.8 63.2327 95.8213 63.2647 95.864C63.3074 95.896 63.3287 95.9387 63.3287 95.992V106.808C63.3287 106.861 63.3074 106.909 63.2647 106.952C63.2327 106.984 63.19 107 63.1367 107H61.6647ZM72.1722 95.992C72.1722 95.9387 72.1882 95.896 72.2202 95.864C72.2629 95.8213 72.3109 95.8 72.3642 95.8H73.8362C73.8895 95.8 73.9322 95.8213 73.9642 95.864C74.0069 95.896 74.0282 95.9387 74.0282 95.992V106.808C74.0282 106.861 74.0069 106.909 73.9642 106.952C73.9322 106.984 73.8895 107 73.8362 107H72.4122C72.3055 107 72.2309 106.957 72.1882 106.872L67.5802 99.32C67.5589 99.288 67.5375 99.2773 67.5162 99.288C67.4949 99.288 67.4842 99.3093 67.4842 99.352L67.5162 106.808C67.5162 106.861 67.4949 106.909 67.4522 106.952C67.4202 106.984 67.3775 107 67.3242 107H65.8522C65.7989 107 65.7509 106.984 65.7082 106.952C65.6762 106.909 65.6602 106.861 65.6602 106.808V95.992C65.6602 95.9387 65.6762 95.896 65.7082 95.864C65.7509 95.8213 65.7989 95.8 65.8522 95.8H67.2762C67.3829 95.8 67.4575 95.8427 67.5002 95.928L72.0922 103.48C72.1135 103.512 72.1349 103.528 72.1562 103.528C72.1775 103.517 72.1882 103.491 72.1882 103.448L72.1722 95.992ZM83.7233 95.8C83.7766 95.8 83.8193 95.8213 83.8513 95.864C83.894 95.896 83.9153 95.9387 83.9153 95.992V97.224C83.9153 97.2773 83.894 97.3253 83.8513 97.368C83.8193 97.4 83.7766 97.416 83.7233 97.416H80.7793C80.726 97.416 80.6993 97.4427 80.6993 97.496V106.808C80.6993 106.861 80.678 106.909 80.6353 106.952C80.6033 106.984 80.5606 107 80.5073 107H79.0353C78.982 107 78.934 106.984 78.8913 106.952C78.8593 106.909 78.8433 106.861 78.8433 106.808V97.496C78.8433 97.4427 78.8166 97.416 78.7633 97.416H75.9313C75.878 97.416 75.83 97.4 75.7873 97.368C75.7553 97.3253 75.7393 97.2773 75.7393 97.224V95.992C75.7393 95.9387 75.7553 95.896 75.7873 95.864C75.83 95.8213 75.878 95.8 75.9313 95.8H83.7233ZM93.2129 97.208C93.2129 97.2613 93.1916 97.3093 93.1489 97.352C93.1169 97.384 93.0743 97.4 93.0209 97.4H87.5649C87.5116 97.4 87.4849 97.4267 87.4849 97.48V100.472C87.4849 100.525 87.5116 100.552 87.5649 100.552H91.2289C91.2823 100.552 91.3249 100.573 91.3569 100.616C91.3996 100.648 91.4209 100.691 91.4209 100.744V101.96C91.4209 102.013 91.3996 102.061 91.3569 102.104C91.3249 102.136 91.2823 102.152 91.2289 102.152H87.5649C87.5116 102.152 87.4849 102.179 87.4849 102.232V105.32C87.4849 105.373 87.5116 105.4 87.5649 105.4H93.0209C93.0743 105.4 93.1169 105.421 93.1489 105.464C93.1916 105.496 93.2129 105.539 93.2129 105.592V106.808C93.2129 106.861 93.1916 106.909 93.1489 106.952C93.1169 106.984 93.0743 107 93.0209 107H85.8209C85.7676 107 85.7196 106.984 85.6769 106.952C85.6449 106.909 85.6289 106.861 85.6289 106.808V95.992C85.6289 95.9387 85.6449 95.896 85.6769 95.864C85.7196 95.8213 85.7676 95.8 85.8209 95.8H93.0209C93.0743 95.8 93.1169 95.8213 93.1489 95.864C93.1916 95.896 93.2129 95.9387 93.2129 95.992V97.208ZM101.386 107C101.279 107 101.204 106.952 101.162 106.856L99.0497 102.248C99.0284 102.205 98.9964 102.184 98.9537 102.184H97.0337C96.9804 102.184 96.9537 102.211 96.9537 102.264V106.808C96.9537 106.861 96.9324 106.909 96.8897 106.952C96.8577 106.984 96.815 107 96.7617 107H95.2897C95.2364 107 95.1884 106.984 95.1457 106.952C95.1137 106.909 95.0977 106.861 95.0977 106.808V95.992C95.0977 95.9387 95.1137 95.896 95.1457 95.864C95.1884 95.8213 95.2364 95.8 95.2897 95.8H99.6897C100.34 95.8 100.916 95.9387 101.418 96.216C101.919 96.4827 102.308 96.8667 102.586 97.368C102.863 97.8587 103.002 98.424 103.002 99.064C103.002 99.8 102.81 100.429 102.426 100.952C102.052 101.464 101.53 101.821 100.858 102.024C100.836 102.024 100.82 102.035 100.81 102.056C100.799 102.077 100.799 102.099 100.81 102.12L103.066 106.776C103.087 106.819 103.098 106.851 103.098 106.872C103.098 106.957 103.039 107 102.922 107H101.386ZM97.0337 97.4C96.9804 97.4 96.9537 97.4267 96.9537 97.48V100.664C96.9537 100.717 96.9804 100.744 97.0337 100.744H99.4337C99.9457 100.744 100.356 100.595 100.666 100.296C100.986 99.9867 101.146 99.5813 101.146 99.08C101.146 98.5787 100.986 98.1733 100.666 97.864C100.356 97.5547 99.9457 97.4 99.4337 97.4H97.0337Z" fill="white"/>
<path d="M54.8771 134.079C54.8464 134.11 54.8387 134.14 54.8541 134.171C54.8694 134.202 54.9001 134.217 54.9461 134.217H61.1791C61.2557 134.217 61.3171 134.248 61.3631 134.309C61.4244 134.355 61.4551 134.416 61.4551 134.493V136.724C61.4551 136.801 61.4244 136.87 61.3631 136.931C61.3171 136.977 61.2557 137 61.1791 137H50.8291C50.7524 137 50.6834 136.977 50.6221 136.931C50.5761 136.87 50.5531 136.801 50.5531 136.724V134.608C50.5531 134.47 50.5991 134.355 50.6911 134.263C51.4424 133.527 52.2091 132.73 52.9911 131.871C53.7731 130.997 54.2637 130.453 54.4631 130.238C54.8924 129.732 55.3294 129.249 55.7741 128.789C57.1694 127.24 57.8671 126.09 57.8671 125.339C57.8671 124.802 57.6754 124.365 57.2921 124.028C56.9087 123.675 56.4104 123.499 55.7971 123.499C55.1837 123.499 54.6854 123.675 54.3021 124.028C53.9187 124.365 53.7271 124.818 53.7271 125.385V125.96C53.7271 126.037 53.6964 126.106 53.6351 126.167C53.5891 126.213 53.5277 126.236 53.4511 126.236H50.7371C50.6604 126.236 50.5914 126.213 50.5301 126.167C50.4841 126.106 50.4611 126.037 50.4611 125.96V124.879C50.5071 124.051 50.7677 123.323 51.2431 122.694C51.7184 122.05 52.3471 121.559 53.1291 121.222C53.9264 120.885 54.8157 120.716 55.7971 120.716C56.8857 120.716 57.8287 120.923 58.6261 121.337C59.4387 121.736 60.0597 122.28 60.4891 122.97C60.9337 123.66 61.1561 124.427 61.1561 125.27C61.1561 125.914 60.9951 126.573 60.6731 127.248C60.3511 127.923 59.8681 128.651 59.2241 129.433C58.7487 130.031 58.2351 130.621 57.6831 131.204C57.1311 131.787 56.3107 132.63 55.2221 133.734L54.8771 134.079ZM68.9202 137.253C67.2335 137.253 65.8995 136.785 64.9182 135.85C63.9369 134.899 63.4462 133.611 63.4462 131.986V125.914C63.4462 124.319 63.9369 123.054 64.9182 122.119C65.8995 121.184 67.2335 120.716 68.9202 120.716C70.6069 120.716 71.9409 121.184 72.9222 122.119C73.9189 123.054 74.4172 124.319 74.4172 125.914V131.986C74.4172 133.611 73.9189 134.899 72.9222 135.85C71.9409 136.785 70.6069 137.253 68.9202 137.253ZM68.9202 134.47C69.6102 134.47 70.1545 134.263 70.5532 133.849C70.9672 133.42 71.1742 132.852 71.1742 132.147V125.822C71.1742 125.117 70.9672 124.557 70.5532 124.143C70.1545 123.714 69.6102 123.499 68.9202 123.499C68.2455 123.499 67.7012 123.714 67.2872 124.143C66.8885 124.557 66.6892 125.117 66.6892 125.822V132.147C66.6892 132.852 66.8885 133.42 67.2872 133.849C67.7012 134.263 68.2455 134.47 68.9202 134.47ZM80.8644 134.079C80.8337 134.11 80.826 134.14 80.8414 134.171C80.8567 134.202 80.8874 134.217 80.9334 134.217H87.1664C87.243 134.217 87.3044 134.248 87.3504 134.309C87.4117 134.355 87.4424 134.416 87.4424 134.493V136.724C87.4424 136.801 87.4117 136.87 87.3504 136.931C87.3044 136.977 87.243 137 87.1664 137H76.8164C76.7397 137 76.6707 136.977 76.6094 136.931C76.5634 136.87 76.5404 136.801 76.5404 136.724V134.608C76.5404 134.47 76.5864 134.355 76.6784 134.263C77.4297 133.527 78.1964 132.73 78.9784 131.871C79.7604 130.997 80.251 130.453 80.4504 130.238C80.8797 129.732 81.3167 129.249 81.7614 128.789C83.1567 127.24 83.8544 126.09 83.8544 125.339C83.8544 124.802 83.6627 124.365 83.2794 124.028C82.896 123.675 82.3977 123.499 81.7844 123.499C81.171 123.499 80.6727 123.675 80.2894 124.028C79.906 124.365 79.7144 124.818 79.7144 125.385V125.96C79.7144 126.037 79.6837 126.106 79.6224 126.167C79.5764 126.213 79.515 126.236 79.4384 126.236H76.7244C76.6477 126.236 76.5787 126.213 76.5174 126.167C76.4714 126.106 76.4484 126.037 76.4484 125.96V124.879C76.4944 124.051 76.755 123.323 77.2304 122.694C77.7057 122.05 78.3344 121.559 79.1164 121.222C79.9137 120.885 80.803 120.716 81.7844 120.716C82.873 120.716 83.816 120.923 84.6134 121.337C85.426 121.736 86.047 122.28 86.4764 122.97C86.921 123.66 87.1434 124.427 87.1434 125.27C87.1434 125.914 86.9824 126.573 86.6604 127.248C86.3384 127.923 85.8554 128.651 85.2114 129.433C84.736 130.031 84.2224 130.621 83.6704 131.204C83.1184 131.787 82.298 132.63 81.2094 133.734L80.8644 134.079ZM99.032 129.318C99.3387 130.023 99.492 130.836 99.492 131.756C99.492 132.584 99.354 133.351 99.078 134.056C98.71 135.037 98.089 135.804 97.215 136.356C96.3564 136.908 95.3367 137.184 94.156 137.184C92.9907 137.184 91.9634 136.893 91.074 136.31C90.2 135.727 89.5714 134.938 89.188 133.941C88.9734 133.343 88.8507 132.699 88.82 132.009C88.82 131.825 88.912 131.733 89.096 131.733H91.81C91.994 131.733 92.086 131.825 92.086 132.009C92.1474 132.515 92.2317 132.891 92.339 133.136C92.477 133.535 92.6994 133.849 93.006 134.079C93.328 134.294 93.7037 134.401 94.133 134.401C94.9917 134.401 95.582 134.025 95.904 133.274C96.1187 132.814 96.226 132.277 96.226 131.664C96.226 130.943 96.111 130.353 95.881 129.893C95.5284 129.172 94.938 128.812 94.11 128.812C93.9414 128.812 93.765 128.866 93.581 128.973C93.397 129.065 93.1747 129.203 92.914 129.387C92.8527 129.433 92.7914 129.456 92.73 129.456C92.638 129.456 92.569 129.41 92.523 129.318L91.166 127.409C91.1354 127.363 91.12 127.309 91.12 127.248C91.12 127.156 91.1507 127.079 91.212 127.018L94.869 123.821C94.8997 123.79 94.9074 123.76 94.892 123.729C94.892 123.698 94.869 123.683 94.823 123.683H89.418C89.3414 123.683 89.2724 123.66 89.211 123.614C89.165 123.553 89.142 123.484 89.142 123.407V121.176C89.142 121.099 89.165 121.038 89.211 120.992C89.2724 120.931 89.3414 120.9 89.418 120.9H99.009C99.0857 120.9 99.147 120.931 99.193 120.992C99.2544 121.038 99.285 121.099 99.285 121.176V123.706C99.285 123.829 99.2314 123.944 99.124 124.051L96.111 126.811C96.0804 126.842 96.065 126.872 96.065 126.903C96.0804 126.934 96.1187 126.949 96.18 126.949C97.514 127.21 98.4647 127.999 99.032 129.318Z" fill="#252530"/>
</g>
<defs>
<clipPath id="clip0_15_480">
<rect width="150" height="168" fill="white"/>
</clipPath>
</defs>
</svg>
