<svg width="150" height="168" viewBox="0 0 150 168" fill="none" xmlns="http://www.w3.org/2000/svg">
<g clip-path="url(#clip0_13_363)">
<path d="M10 132.9V2H139V132.9L74.45 165.76L10 132.9Z" fill="white"/>
<path d="M137 4V131.67L74.45 163.51L12 131.67V4H137ZM141 0H8V134.12L74.45 168L141 134.12V0Z" fill="#DCDEDC"/>
<path d="M12.22 131.78L74.43 163.5L137 131.7V4.67999L12.22 131.78Z" fill="#F2F3F2"/>
<path d="M144.98 90H5.16966L0 101L5.16966 112H144.99L150 101L144.98 90Z" fill="#23CCA2"/>
<path d="M75.0778 6.12022C75.7101 6.12022 76.3327 6.12022 76.965 6.27565L75.0778 9.87978C72.2471 9.72435 69.7374 11.9199 69.5817 14.7468C69.4261 17.5738 71.6245 20.0801 74.4553 20.2356H75.0875C76.3424 20.2356 77.5973 19.7693 78.5409 18.9824L80.5837 22.4311C79.0175 23.5288 77.1303 24.1603 75.0875 24.1603C70.0584 24.3157 65.8171 20.5562 65.6615 15.5337C65.5058 10.5112 69.2704 6.27565 74.2996 6.12022H75.0875H75.0778ZM81.5175 13.8045L83.8716 17.7292L81.5175 21.4985L79.3191 17.7292H74.7665L77.1206 13.8045H81.5175ZM77.7432 12.3959C77.7432 11.7644 77.8988 11.1427 78.2101 10.6667C78.5214 10.1906 79.1537 9.72435 79.6206 9.41348L79.9319 9.25805C80.5642 8.94718 80.7198 8.79174 80.7198 8.47116C80.7198 8.15058 80.2529 7.83971 79.9319 7.83971C79.2996 7.83971 78.8327 8.15058 78.5214 8.78203L77.7335 7.99514C77.8891 7.68427 78.2004 7.36369 78.5214 7.05282C78.9883 6.74196 79.465 6.74196 79.9319 6.74196C80.3988 6.74196 81.0311 6.89739 81.3424 7.20826C81.6537 7.51913 81.9747 7.99514 81.9747 8.46145C81.9747 9.24833 81.5078 9.87007 80.5642 10.1906L80.0973 10.5015C79.6303 10.8124 79.3093 10.9678 79.1537 11.4438H81.9844V12.5416L77.7432 12.3862V12.3959ZM75.0778 32L90 23.5288V0H60V23.3734L75.0778 32Z" fill="#FF492C"/>
<path d="M49.7529 131C49.6355 131 49.5609 130.947 49.5289 130.84L46.6969 120.008L46.6809 119.944C46.6809 119.848 46.7395 119.8 46.8569 119.8H48.8409C48.9475 119.8 49.0169 119.853 49.0489 119.96L50.5689 126.472C50.5795 126.515 50.5955 126.536 50.6169 126.536C50.6382 126.536 50.6542 126.515 50.6649 126.472L52.1369 119.976C52.1689 119.859 52.2382 119.8 52.3449 119.8H54.2809C54.3982 119.8 54.4729 119.853 54.5049 119.96L56.1049 126.472C56.1155 126.504 56.1315 126.525 56.1529 126.536C56.1742 126.536 56.1902 126.515 56.2009 126.472L57.6729 119.976C57.7049 119.859 57.7742 119.8 57.8809 119.8H59.7689C59.9182 119.8 59.9769 119.869 59.9449 120.008L57.3209 130.84C57.2889 130.947 57.2142 131 57.0969 131H55.1929C55.0862 131 55.0169 130.947 54.9849 130.84L53.3529 123.912C53.3422 123.869 53.3262 123.848 53.3049 123.848C53.2835 123.848 53.2675 123.869 53.2569 123.912L51.7369 130.824C51.7155 130.941 51.6462 131 51.5289 131H49.7529ZM61.4961 131C61.4428 131 61.3948 130.984 61.3521 130.952C61.3201 130.909 61.3041 130.861 61.3041 130.808V119.992C61.3041 119.939 61.3201 119.896 61.3521 119.864C61.3948 119.821 61.4428 119.8 61.4961 119.8H63.3681C63.4215 119.8 63.4641 119.821 63.4961 119.864C63.5388 119.896 63.5601 119.939 63.5601 119.992V130.808C63.5601 130.861 63.5388 130.909 63.4961 130.952C63.4641 130.984 63.4215 131 63.3681 131H61.4961ZM71.9393 119.992C71.9393 119.939 71.9553 119.896 71.9873 119.864C72.0299 119.821 72.0779 119.8 72.1313 119.8H74.0033C74.0566 119.8 74.0993 119.821 74.1313 119.864C74.1739 119.896 74.1953 119.939 74.1953 119.992V130.808C74.1953 130.861 74.1739 130.909 74.1313 130.952C74.0993 130.984 74.0566 131 74.0033 131H72.1953C72.0886 131 72.0139 130.957 71.9713 130.872L67.8273 124.024C67.8059 123.992 67.7846 123.981 67.7633 123.992C67.7419 123.992 67.7313 124.013 67.7313 124.056L67.7633 130.808C67.7633 130.861 67.7419 130.909 67.6993 130.952C67.6673 130.984 67.6246 131 67.5713 131H65.6993C65.6459 131 65.5979 130.984 65.5553 130.952C65.5233 130.909 65.5073 130.861 65.5073 130.808V119.992C65.5073 119.939 65.5233 119.896 65.5553 119.864C65.5979 119.821 65.6459 119.8 65.6993 119.8H67.5073C67.6139 119.8 67.6886 119.843 67.7313 119.928L71.8593 126.744C71.8806 126.776 71.9019 126.792 71.9233 126.792C71.9446 126.781 71.9553 126.755 71.9553 126.712L71.9393 119.992ZM83.8759 119.8C83.9292 119.8 83.9719 119.821 84.0039 119.864C84.0465 119.896 84.0679 119.939 84.0679 119.992V121.56C84.0679 121.613 84.0465 121.661 84.0039 121.704C83.9719 121.736 83.9292 121.752 83.8759 121.752H81.0119C80.9585 121.752 80.9319 121.779 80.9319 121.832V130.808C80.9319 130.861 80.9105 130.909 80.8679 130.952C80.8359 130.984 80.7932 131 80.7399 131H78.8679C78.8145 131 78.7665 130.984 78.7239 130.952C78.6919 130.909 78.6759 130.861 78.6759 130.808V121.832C78.6759 121.779 78.6492 121.752 78.5959 121.752H75.8119C75.7585 121.752 75.7105 121.736 75.6679 121.704C75.6359 121.661 75.6199 121.613 75.6199 121.56V119.992C75.6199 119.939 75.6359 119.896 75.6679 119.864C75.7105 119.821 75.7585 119.8 75.8119 119.8H83.8759ZM93.2833 121.544C93.2833 121.597 93.2619 121.645 93.2193 121.688C93.1873 121.72 93.1446 121.736 93.0913 121.736H87.8433C87.7899 121.736 87.7633 121.763 87.7633 121.816V124.296C87.7633 124.349 87.7899 124.376 87.8433 124.376H91.2833C91.3366 124.376 91.3793 124.397 91.4113 124.44C91.4539 124.472 91.4753 124.515 91.4753 124.568V126.12C91.4753 126.173 91.4539 126.221 91.4113 126.264C91.3793 126.296 91.3366 126.312 91.2833 126.312H87.8433C87.7899 126.312 87.7633 126.339 87.7633 126.392V128.984C87.7633 129.037 87.7899 129.064 87.8433 129.064H93.0913C93.1446 129.064 93.1873 129.085 93.2193 129.128C93.2619 129.16 93.2833 129.203 93.2833 129.256V130.808C93.2833 130.861 93.2619 130.909 93.2193 130.952C93.1873 130.984 93.1446 131 93.0913 131H85.6993C85.6459 131 85.5979 130.984 85.5553 130.952C85.5233 130.909 85.5073 130.861 85.5073 130.808V119.992C85.5073 119.939 85.5233 119.896 85.5553 119.864C85.5979 119.821 85.6459 119.8 85.6993 119.8H93.0913C93.1446 119.8 93.1873 119.821 93.2193 119.864C93.2619 119.896 93.2833 119.939 93.2833 119.992V121.544ZM100.995 131C100.888 131 100.814 130.952 100.771 130.856L98.771 126.424C98.7497 126.381 98.7177 126.36 98.675 126.36H97.187C97.1337 126.36 97.107 126.387 97.107 126.44V130.808C97.107 130.861 97.0857 130.909 97.043 130.952C97.011 130.984 96.9683 131 96.915 131H95.043C94.9897 131 94.9417 130.984 94.899 130.952C94.867 130.909 94.851 130.861 94.851 130.808V119.992C94.851 119.939 94.867 119.896 94.899 119.864C94.9417 119.821 94.9897 119.8 95.043 119.8H99.619C100.302 119.8 100.899 119.939 101.411 120.216C101.934 120.493 102.334 120.888 102.611 121.4C102.899 121.912 103.043 122.504 103.043 123.176C103.043 123.901 102.862 124.525 102.499 125.048C102.136 125.56 101.63 125.923 100.979 126.136C100.926 126.157 100.91 126.195 100.931 126.248L103.107 130.776C103.128 130.819 103.139 130.851 103.139 130.872C103.139 130.957 103.08 131 102.963 131H100.995ZM97.187 121.736C97.1337 121.736 97.107 121.763 97.107 121.816V124.552C97.107 124.605 97.1337 124.632 97.187 124.632H99.283C99.731 124.632 100.094 124.499 100.371 124.232C100.659 123.965 100.803 123.619 100.803 123.192C100.803 122.765 100.659 122.419 100.371 122.152C100.094 121.875 99.731 121.736 99.283 121.736H97.187Z" fill="#252530"/>
<path d="M64.7491 57.065C64.6731 57.103 64.6731 57.141 64.7491 57.179C65.9525 57.7997 66.5541 58.832 66.5541 60.276C66.5541 61.5047 66.1361 62.4357 65.3001 63.069C64.4641 63.6897 63.3685 64 62.0131 64H57.0921C57.0288 64 56.9718 63.981 56.9211 63.943C56.8831 63.8923 56.8641 63.8353 56.8641 63.772V50.928C56.8641 50.8647 56.8831 50.814 56.9211 50.776C56.9718 50.7253 57.0288 50.7 57.0921 50.7H61.8611C64.8631 50.7 66.3641 51.916 66.3641 54.348C66.3641 55.6147 65.8258 56.5203 64.7491 57.065ZM59.6381 52.999C59.5748 52.999 59.5431 53.0307 59.5431 53.094V56.058C59.5431 56.1213 59.5748 56.153 59.6381 56.153H61.8611C62.4565 56.153 62.9188 56.0137 63.2481 55.735C63.5775 55.4563 63.7421 55.0763 63.7421 54.595C63.7421 54.101 63.5775 53.7147 63.2481 53.436C62.9188 53.1447 62.4565 52.999 61.8611 52.999H59.6381ZM62.0131 61.682C62.5958 61.682 63.0518 61.5363 63.3811 61.245C63.7105 60.941 63.8751 60.5293 63.8751 60.01C63.8751 59.4907 63.7105 59.0853 63.3811 58.794C63.0518 58.49 62.5895 58.338 61.9941 58.338H59.6381C59.5748 58.338 59.5431 58.3697 59.5431 58.433V61.587C59.5431 61.6503 59.5748 61.682 59.6381 61.682H62.0131ZM77.0634 58.11C77.1394 58.5913 77.1647 59.1297 77.1394 59.725C77.1267 59.877 77.0444 59.953 76.8924 59.953H71.0214C70.9454 59.953 70.92 59.9847 70.9454 60.048C70.9834 60.3013 71.053 60.5547 71.1544 60.808C71.4837 61.5173 72.155 61.872 73.1684 61.872C73.979 61.8593 74.6187 61.53 75.0874 60.884C75.138 60.808 75.195 60.77 75.2584 60.77C75.2964 60.77 75.3407 60.7953 75.3914 60.846L76.7594 62.195C76.8227 62.2583 76.8544 62.3153 76.8544 62.366C76.8544 62.3913 76.829 62.442 76.7784 62.518C76.3604 63.0373 75.822 63.4427 75.1634 63.734C74.5047 64.0127 73.7827 64.152 72.9974 64.152C71.908 64.152 70.9834 63.905 70.2234 63.411C69.476 62.917 68.9377 62.2267 68.6084 61.34C68.3424 60.7067 68.2094 59.877 68.2094 58.851C68.2094 58.1543 68.3044 57.54 68.4944 57.008C68.7857 56.1087 69.2924 55.393 70.0144 54.861C70.749 54.329 71.6167 54.063 72.6174 54.063C73.884 54.063 74.8974 54.4303 75.6574 55.165C76.43 55.8997 76.8987 56.8813 77.0634 58.11ZM72.6364 56.381C71.8384 56.381 71.3127 56.7547 71.0594 57.502C71.0087 57.6667 70.9644 57.8693 70.9264 58.11C70.9264 58.1733 70.958 58.205 71.0214 58.205H74.3084C74.3844 58.205 74.4097 58.1733 74.3844 58.11C74.321 57.7427 74.2894 57.5653 74.2894 57.578C74.1754 57.198 73.9727 56.9067 73.6814 56.704C73.4027 56.4887 73.0544 56.381 72.6364 56.381ZM82.4985 64.133C81.6499 64.133 80.9089 64.0127 80.2755 63.772C79.6422 63.5313 79.1482 63.1957 78.7935 62.765C78.4515 62.3343 78.2805 61.8467 78.2805 61.302V61.112C78.2805 61.0487 78.2995 60.998 78.3375 60.96C78.3882 60.9093 78.4452 60.884 78.5085 60.884H80.6175C80.6809 60.884 80.7315 60.9093 80.7695 60.96C80.8202 60.998 80.8455 61.0487 80.8455 61.112V61.131C80.8455 61.4097 80.9975 61.6503 81.3015 61.853C81.6182 62.043 82.0109 62.138 82.4795 62.138C82.9102 62.138 83.2585 62.0557 83.5245 61.891C83.7905 61.7137 83.9235 61.4983 83.9235 61.245C83.9235 61.017 83.8095 60.846 83.5815 60.732C83.3535 60.618 82.9799 60.4977 82.4605 60.371C81.8652 60.219 81.3965 60.0733 81.0545 59.934C80.2439 59.6553 79.5979 59.3133 79.1165 58.908C78.6352 58.5027 78.3945 57.92 78.3945 57.16C78.3945 56.2227 78.7555 55.4817 79.4775 54.937C80.2122 54.3797 81.1812 54.101 82.3845 54.101C83.1952 54.101 83.9045 54.234 84.5125 54.5C85.1205 54.7533 85.5892 55.1143 85.9185 55.583C86.2605 56.0517 86.4315 56.5837 86.4315 57.179C86.4315 57.2423 86.4062 57.2993 86.3555 57.35C86.3175 57.388 86.2669 57.407 86.2035 57.407H84.1705C84.1072 57.407 84.0502 57.388 83.9995 57.35C83.9615 57.2993 83.9425 57.2423 83.9425 57.179C83.9425 56.9003 83.7969 56.666 83.5055 56.476C83.2269 56.286 82.8532 56.191 82.3845 56.191C81.9665 56.191 81.6245 56.267 81.3585 56.419C81.0925 56.571 80.9595 56.78 80.9595 57.046C80.9595 57.2993 81.0862 57.4893 81.3395 57.616C81.6055 57.7427 82.0425 57.8757 82.6505 58.015C82.7899 58.053 82.9482 58.0973 83.1255 58.148C83.3029 58.186 83.4929 58.2367 83.6955 58.3C84.5949 58.566 85.3042 58.908 85.8235 59.326C86.3429 59.744 86.6025 60.352 86.6025 61.15C86.6025 62.0873 86.2289 62.822 85.4815 63.354C84.7469 63.8733 83.7525 64.133 82.4985 64.133ZM93.6701 56.153C93.6701 56.2163 93.6448 56.2733 93.5941 56.324C93.5561 56.362 93.5054 56.381 93.4421 56.381H91.6181C91.5548 56.381 91.5231 56.4127 91.5231 56.476V60.504C91.5231 60.922 91.6054 61.2323 91.7701 61.435C91.9474 61.6377 92.2261 61.739 92.6061 61.739H93.2331C93.2964 61.739 93.3471 61.7643 93.3851 61.815C93.4358 61.853 93.4611 61.9037 93.4611 61.967V63.772C93.4611 63.9113 93.3851 63.9937 93.2331 64.019C92.7011 64.0443 92.3211 64.057 92.0931 64.057C91.0418 64.057 90.2564 63.886 89.7371 63.544C89.2178 63.1893 88.9518 62.5307 88.9391 61.568V56.476C88.9391 56.4127 88.9074 56.381 88.8441 56.381H87.7611C87.6978 56.381 87.6408 56.362 87.5901 56.324C87.5521 56.2733 87.5331 56.2163 87.5331 56.153V54.462C87.5331 54.3987 87.5521 54.348 87.5901 54.31C87.6408 54.2593 87.6978 54.234 87.7611 54.234H88.8441C88.9074 54.234 88.9391 54.2023 88.9391 54.139V51.878C88.9391 51.8147 88.9581 51.764 88.9961 51.726C89.0468 51.6753 89.1038 51.65 89.1671 51.65H91.2951C91.3584 51.65 91.4091 51.6753 91.4471 51.726C91.4978 51.764 91.5231 51.8147 91.5231 51.878V54.139C91.5231 54.2023 91.5548 54.234 91.6181 54.234H93.4421C93.5054 54.234 93.5561 54.2593 93.5941 54.31C93.6448 54.348 93.6701 54.3987 93.6701 54.462V56.153ZM30.9638 83C30.8371 83 30.7485 82.943 30.6978 82.829L28.3228 77.566C28.2975 77.5153 28.2595 77.49 28.2088 77.49H26.4418C26.3785 77.49 26.3468 77.5217 26.3468 77.585V82.772C26.3468 82.8353 26.3215 82.8923 26.2708 82.943C26.2328 82.981 26.1821 83 26.1188 83H23.8958C23.8325 83 23.7755 82.981 23.7248 82.943C23.6868 82.8923 23.6678 82.8353 23.6678 82.772V69.928C23.6678 69.8647 23.6868 69.814 23.7248 69.776C23.7755 69.7253 23.8325 69.7 23.8958 69.7H29.3298C30.1405 69.7 30.8498 69.8647 31.4578 70.194C32.0785 70.5233 32.5535 70.992 32.8828 71.6C33.2248 72.208 33.3958 72.911 33.3958 73.709C33.3958 74.5703 33.1805 75.3113 32.7498 75.932C32.3191 76.54 31.7175 76.9707 30.9448 77.224C30.8815 77.2493 30.8625 77.2937 30.8878 77.357L33.4718 82.734C33.4971 82.7847 33.5098 82.8227 33.5098 82.848C33.5098 82.9493 33.4401 83 33.3008 83H30.9638ZM26.4418 71.999C26.3785 71.999 26.3468 72.0307 26.3468 72.094V75.343C26.3468 75.4063 26.3785 75.438 26.4418 75.438H28.9308C29.4628 75.438 29.8935 75.2797 30.2228 74.963C30.5648 74.6463 30.7358 74.2347 30.7358 73.728C30.7358 73.2213 30.5648 72.8097 30.2228 72.493C29.8935 72.1637 29.4628 71.999 28.9308 71.999H26.4418ZM43.6828 77.11C43.7588 77.5913 43.7841 78.1297 43.7588 78.725C43.7461 78.877 43.6638 78.953 43.5118 78.953H37.6408C37.5648 78.953 37.5395 78.9847 37.5648 79.048C37.6028 79.3013 37.6725 79.5547 37.7738 79.808C38.1031 80.5173 38.7745 80.872 39.7878 80.872C40.5985 80.8593 41.2381 80.53 41.7068 79.884C41.7575 79.808 41.8145 79.77 41.8778 79.77C41.9158 79.77 41.9601 79.7953 42.0108 79.846L43.3788 81.195C43.4421 81.2583 43.4738 81.3153 43.4738 81.366C43.4738 81.3913 43.4485 81.442 43.3978 81.518C42.9798 82.0373 42.4415 82.4427 41.7828 82.734C41.1241 83.0127 40.4021 83.152 39.6168 83.152C38.5275 83.152 37.6028 82.905 36.8428 82.411C36.0955 81.917 35.5571 81.2267 35.2278 80.34C34.9618 79.7067 34.8288 78.877 34.8288 77.851C34.8288 77.1543 34.9238 76.54 35.1138 76.008C35.4051 75.1087 35.9118 74.393 36.6338 73.861C37.3685 73.329 38.2361 73.063 39.2368 73.063C40.5035 73.063 41.5168 73.4303 42.2768 74.165C43.0495 74.8997 43.5181 75.8813 43.6828 77.11ZM39.2558 75.381C38.4578 75.381 37.9321 75.7547 37.6788 76.502C37.6281 76.6667 37.5838 76.8693 37.5458 77.11C37.5458 77.1733 37.5775 77.205 37.6408 77.205H40.9278C41.0038 77.205 41.0291 77.1733 41.0038 77.11C40.9405 76.7427 40.9088 76.5653 40.9088 76.578C40.7948 76.198 40.5921 75.9067 40.3008 75.704C40.0221 75.4887 39.6738 75.381 39.2558 75.381ZM45.6379 83C45.5745 83 45.5175 82.981 45.4669 82.943C45.4289 82.8923 45.4099 82.8353 45.4099 82.772V69.928C45.4099 69.8647 45.4289 69.814 45.4669 69.776C45.5175 69.7253 45.5745 69.7 45.6379 69.7H47.8609C47.9242 69.7 47.9749 69.7253 48.0129 69.776C48.0635 69.814 48.0889 69.8647 48.0889 69.928V82.772C48.0889 82.8353 48.0635 82.8923 48.0129 82.943C47.9749 82.981 47.9242 83 47.8609 83H45.6379ZM53.9435 73.082C54.7669 73.082 55.5015 73.2277 56.1475 73.519C56.7935 73.7977 57.2939 74.184 57.6485 74.678C58.0159 75.172 58.1995 75.723 58.1995 76.331V82.772C58.1995 82.8353 58.1742 82.8923 58.1235 82.943C58.0855 82.981 58.0349 83 57.9715 83H55.7485C55.6852 83 55.6282 82.981 55.5775 82.943C55.5395 82.8923 55.5205 82.8353 55.5205 82.772V82.145C55.5205 82.107 55.5079 82.0817 55.4825 82.069C55.4572 82.0563 55.4319 82.069 55.4065 82.107C54.8745 82.8037 54.0195 83.152 52.8415 83.152C51.8535 83.152 51.0555 82.9113 50.4475 82.43C49.8395 81.9487 49.5355 81.2393 49.5355 80.302C49.5355 79.3267 49.8775 78.573 50.5615 78.041C51.2455 77.4963 52.2209 77.224 53.4875 77.224H55.4255C55.4889 77.224 55.5205 77.1923 55.5205 77.129V76.711C55.5205 76.293 55.3939 75.97 55.1405 75.742C54.8872 75.5013 54.5072 75.381 54.0005 75.381C53.6079 75.381 53.2785 75.4507 53.0125 75.59C52.7592 75.7293 52.5945 75.9257 52.5185 76.179C52.4805 76.3183 52.3982 76.3817 52.2715 76.369L49.9725 76.065C49.8205 76.0397 49.7509 75.9827 49.7635 75.894C49.8142 75.362 50.0232 74.8807 50.3905 74.45C50.7705 74.0193 51.2645 73.6837 51.8725 73.443C52.4932 73.2023 53.1835 73.082 53.9435 73.082ZM53.5635 81.157C54.1082 81.157 54.5705 81.0113 54.9505 80.72C55.3305 80.4287 55.5205 80.055 55.5205 79.599V78.915C55.5205 78.8517 55.4889 78.82 55.4255 78.82H54.0575C53.4875 78.82 53.0379 78.9277 52.7085 79.143C52.3919 79.3583 52.2335 79.6623 52.2335 80.055C52.2335 80.397 52.3539 80.6693 52.5945 80.872C52.8352 81.062 53.1582 81.157 53.5635 81.157ZM65.4875 75.153C65.4875 75.2163 65.4622 75.2733 65.4115 75.324C65.3735 75.362 65.3229 75.381 65.2595 75.381H63.4355C63.3722 75.381 63.3405 75.4127 63.3405 75.476V79.504C63.3405 79.922 63.4229 80.2323 63.5875 80.435C63.7649 80.6377 64.0435 80.739 64.4235 80.739H65.0505C65.1139 80.739 65.1645 80.7643 65.2025 80.815C65.2532 80.853 65.2785 80.9037 65.2785 80.967V82.772C65.2785 82.9113 65.2025 82.9937 65.0505 83.019C64.5185 83.0443 64.1385 83.057 63.9105 83.057C62.8592 83.057 62.0739 82.886 61.5545 82.544C61.0352 82.1893 60.7692 81.5307 60.7565 80.568V75.476C60.7565 75.4127 60.7249 75.381 60.6615 75.381H59.5785C59.5152 75.381 59.4582 75.362 59.4075 75.324C59.3695 75.2733 59.3505 75.2163 59.3505 75.153V73.462C59.3505 73.3987 59.3695 73.348 59.4075 73.31C59.4582 73.2593 59.5152 73.234 59.5785 73.234H60.6615C60.7249 73.234 60.7565 73.2023 60.7565 73.139V70.878C60.7565 70.8147 60.7755 70.764 60.8135 70.726C60.8642 70.6753 60.9212 70.65 60.9845 70.65H63.1125C63.1759 70.65 63.2265 70.6753 63.2645 70.726C63.3152 70.764 63.3405 70.8147 63.3405 70.878V73.139C63.3405 73.2023 63.3722 73.234 63.4355 73.234H65.2595C65.3229 73.234 65.3735 73.2593 65.4115 73.31C65.4622 73.348 65.4875 73.3987 65.4875 73.462V75.153ZM68.5443 72.132C68.1136 72.132 67.7526 71.9927 67.4613 71.714C67.1826 71.4227 67.0433 71.0617 67.0433 70.631C67.0433 70.1877 67.1826 69.8267 67.4613 69.548C67.74 69.2693 68.101 69.13 68.5443 69.13C68.9876 69.13 69.3486 69.2693 69.6273 69.548C69.906 69.8267 70.0453 70.1877 70.0453 70.631C70.0453 71.0617 69.8996 71.4227 69.6083 71.714C69.3296 71.9927 68.975 72.132 68.5443 72.132ZM67.4043 83C67.341 83 67.284 82.981 67.2333 82.943C67.1953 82.8923 67.1763 82.8353 67.1763 82.772V73.443C67.1763 73.3797 67.1953 73.329 67.2333 73.291C67.284 73.2403 67.341 73.215 67.4043 73.215H69.6273C69.6906 73.215 69.7413 73.2403 69.7793 73.291C69.83 73.329 69.8553 73.3797 69.8553 73.443V82.772C69.8553 82.8353 69.83 82.8923 69.7793 82.943C69.7413 82.981 69.6906 83 69.6273 83H67.4043ZM76.2561 83.152C75.1921 83.152 74.2801 82.8733 73.5201 82.316C72.7601 81.7587 72.2407 80.9987 71.9621 80.036C71.7847 79.4407 71.6961 78.7947 71.6961 78.098C71.6961 77.3507 71.7847 76.6793 71.9621 76.084C72.2534 75.1467 72.7791 74.412 73.5391 73.88C74.2991 73.348 75.2111 73.082 76.2751 73.082C77.3137 73.082 78.2004 73.348 78.9351 73.88C79.6697 74.3993 80.1891 75.1277 80.4931 76.065C80.6957 76.6983 80.7971 77.3633 80.7971 78.06C80.7971 78.744 80.7084 79.3837 80.5311 79.979C80.2524 80.967 79.7331 81.746 78.9731 82.316C78.2257 82.8733 77.3201 83.152 76.2561 83.152ZM76.2561 80.853C76.6741 80.853 77.0287 80.7263 77.3201 80.473C77.6114 80.2197 77.8204 79.8713 77.9471 79.428C78.0484 79.0227 78.0991 78.5793 78.0991 78.098C78.0991 77.566 78.0484 77.1163 77.9471 76.749C77.8077 76.3183 77.5924 75.9827 77.3011 75.742C77.0097 75.5013 76.6551 75.381 76.2371 75.381C75.8064 75.381 75.4454 75.5013 75.1541 75.742C74.8754 75.9827 74.6727 76.3183 74.5461 76.749C74.4447 77.053 74.3941 77.5027 74.3941 78.098C74.3941 78.668 74.4384 79.1113 74.5271 79.428C74.6537 79.8713 74.8627 80.2197 75.1541 80.473C75.4581 80.7263 75.8254 80.853 76.2561 80.853ZM87.6113 73.082C88.6246 73.082 89.4416 73.3923 90.0623 74.013C90.6829 74.6337 90.9933 75.476 90.9933 76.54V82.772C90.9933 82.8353 90.9679 82.8923 90.9173 82.943C90.8793 82.981 90.8286 83 90.7653 83H88.5423C88.4789 83 88.4219 82.981 88.3713 82.943C88.3333 82.8923 88.3143 82.8353 88.3143 82.772V77.091C88.3143 76.5843 88.1686 76.1727 87.8773 75.856C87.5986 75.5393 87.2249 75.381 86.7563 75.381C86.2876 75.381 85.9076 75.5393 85.6163 75.856C85.3376 76.1727 85.1983 76.5843 85.1983 77.091V82.772C85.1983 82.8353 85.1729 82.8923 85.1223 82.943C85.0843 82.981 85.0336 83 84.9703 83H82.7473C82.6839 83 82.6269 82.981 82.5763 82.943C82.5383 82.8923 82.5193 82.8353 82.5193 82.772V73.462C82.5193 73.3987 82.5383 73.348 82.5763 73.31C82.6269 73.2593 82.6839 73.234 82.7473 73.234H84.9703C85.0336 73.234 85.0843 73.2593 85.1223 73.31C85.1729 73.348 85.1983 73.3987 85.1983 73.462V74.127C85.1983 74.165 85.2109 74.1903 85.2363 74.203C85.2616 74.2157 85.2806 74.2093 85.2933 74.184C85.8126 73.4493 86.5853 73.082 87.6113 73.082ZM96.8049 83.133C95.9562 83.133 95.2152 83.0127 94.5819 82.772C93.9485 82.5313 93.4545 82.1957 93.0999 81.765C92.7579 81.3343 92.5869 80.8467 92.5869 80.302V80.112C92.5869 80.0487 92.6059 79.998 92.6439 79.96C92.6945 79.9093 92.7515 79.884 92.8149 79.884H94.9239C94.9872 79.884 95.0379 79.9093 95.0759 79.96C95.1265 79.998 95.1519 80.0487 95.1519 80.112V80.131C95.1519 80.4097 95.3039 80.6503 95.6079 80.853C95.9245 81.043 96.3172 81.138 96.7859 81.138C97.2165 81.138 97.5649 81.0557 97.8309 80.891C98.0969 80.7137 98.2299 80.4983 98.2299 80.245C98.2299 80.017 98.1159 79.846 97.8879 79.732C97.6599 79.618 97.2862 79.4977 96.7669 79.371C96.1715 79.219 95.7029 79.0733 95.3609 78.934C94.5502 78.6553 93.9042 78.3133 93.4229 77.908C92.9415 77.5027 92.7009 76.92 92.7009 76.16C92.7009 75.2227 93.0619 74.4817 93.7839 73.937C94.5185 73.3797 95.4875 73.101 96.6909 73.101C97.5015 73.101 98.2109 73.234 98.8189 73.5C99.4269 73.7533 99.8955 74.1143 100.225 74.583C100.567 75.0517 100.738 75.5837 100.738 76.179C100.738 76.2423 100.713 76.2993 100.662 76.35C100.624 76.388 100.573 76.407 100.51 76.407H98.4769C98.4135 76.407 98.3565 76.388 98.3059 76.35C98.2679 76.2993 98.2489 76.2423 98.2489 76.179C98.2489 75.9003 98.1032 75.666 97.8119 75.476C97.5332 75.286 97.1595 75.191 96.6909 75.191C96.2729 75.191 95.9309 75.267 95.6649 75.419C95.3989 75.571 95.2659 75.78 95.2659 76.046C95.2659 76.2993 95.3925 76.4893 95.6459 76.616C95.9119 76.7427 96.3489 76.8757 96.9569 77.015C97.0962 77.053 97.2545 77.0973 97.4319 77.148C97.6092 77.186 97.7992 77.2367 98.0019 77.3C98.9012 77.566 99.6105 77.908 100.13 78.326C100.649 78.744 100.909 79.352 100.909 80.15C100.909 81.0873 100.535 81.822 99.7879 82.354C99.0532 82.8733 98.0589 83.133 96.8049 83.133ZM107.539 73.082C108.552 73.082 109.369 73.3923 109.99 74.013C110.611 74.6337 110.921 75.476 110.921 76.54V82.772C110.921 82.8353 110.896 82.8923 110.845 82.943C110.807 82.981 110.756 83 110.693 83H108.47C108.407 83 108.35 82.981 108.299 82.943C108.261 82.8923 108.242 82.8353 108.242 82.772V77.091C108.242 76.5843 108.096 76.1727 107.805 75.856C107.526 75.5393 107.153 75.381 106.684 75.381C106.215 75.381 105.835 75.5393 105.544 75.856C105.265 76.1727 105.126 76.5843 105.126 77.091V82.772C105.126 82.8353 105.101 82.8923 105.05 82.943C105.012 82.981 104.961 83 104.898 83H102.675C102.612 83 102.555 82.981 102.504 82.943C102.466 82.8923 102.447 82.8353 102.447 82.772V69.928C102.447 69.8647 102.466 69.814 102.504 69.776C102.555 69.7253 102.612 69.7 102.675 69.7H104.898C104.961 69.7 105.012 69.7253 105.05 69.776C105.101 69.814 105.126 69.8647 105.126 69.928V74.127C105.126 74.165 105.139 74.1903 105.164 74.203C105.189 74.2157 105.208 74.2093 105.221 74.184C105.74 73.4493 106.513 73.082 107.539 73.082ZM114.282 72.132C113.851 72.132 113.49 71.9927 113.199 71.714C112.92 71.4227 112.781 71.0617 112.781 70.631C112.781 70.1877 112.92 69.8267 113.199 69.548C113.477 69.2693 113.838 69.13 114.282 69.13C114.725 69.13 115.086 69.2693 115.365 69.548C115.643 69.8267 115.783 70.1877 115.783 70.631C115.783 71.0617 115.637 71.4227 115.346 71.714C115.067 71.9927 114.712 72.132 114.282 72.132ZM113.142 83C113.078 83 113.021 82.981 112.971 82.943C112.933 82.8923 112.914 82.8353 112.914 82.772V73.443C112.914 73.3797 112.933 73.329 112.971 73.291C113.021 73.2403 113.078 73.215 113.142 73.215H115.365C115.428 73.215 115.479 73.2403 115.517 73.291C115.567 73.329 115.593 73.3797 115.593 73.443V82.772C115.593 82.8353 115.567 82.8923 115.517 82.943C115.479 82.981 115.428 83 115.365 83H113.142ZM126.401 75.856C126.629 76.502 126.743 77.262 126.743 78.136C126.743 79.01 126.623 79.8017 126.382 80.511C126.091 81.3217 125.629 81.9677 124.995 82.449C124.375 82.9177 123.602 83.152 122.677 83.152C121.765 83.152 121.056 82.8353 120.549 82.202C120.524 82.164 120.499 82.1513 120.473 82.164C120.448 82.1767 120.435 82.202 120.435 82.24V86.306C120.435 86.3693 120.41 86.42 120.359 86.458C120.321 86.5087 120.271 86.534 120.207 86.534H117.984C117.921 86.534 117.864 86.5087 117.813 86.458C117.775 86.42 117.756 86.3693 117.756 86.306V73.462C117.756 73.3987 117.775 73.348 117.813 73.31C117.864 73.2593 117.921 73.234 117.984 73.234H120.207C120.271 73.234 120.321 73.2593 120.359 73.31C120.41 73.348 120.435 73.3987 120.435 73.462V74.089C120.435 74.127 120.448 74.1523 120.473 74.165C120.499 74.165 120.524 74.1523 120.549 74.127C121.081 73.4303 121.816 73.082 122.753 73.082C123.627 73.082 124.381 73.329 125.014 73.823C125.66 74.3043 126.123 74.982 126.401 75.856ZM123.494 80.112C123.811 79.618 123.969 78.9467 123.969 78.098C123.969 77.3 123.836 76.6667 123.57 76.198C123.279 75.6533 122.81 75.381 122.164 75.381C121.582 75.381 121.145 75.6533 120.853 76.198C120.587 76.654 120.454 77.2937 120.454 78.117C120.454 78.9657 120.594 79.6243 120.872 80.093C121.164 80.5997 121.594 80.853 122.164 80.853C122.734 80.853 123.178 80.606 123.494 80.112Z" fill="#252530"/>
<path d="M61.0014 143.968C60.9801 143.989 60.9748 144.011 60.9854 144.032C60.9961 144.053 61.0174 144.064 61.0494 144.064H65.3854C65.4388 144.064 65.4814 144.085 65.5134 144.128C65.5561 144.16 65.5774 144.203 65.5774 144.256V145.808C65.5774 145.861 65.5561 145.909 65.5134 145.952C65.4814 145.984 65.4388 146 65.3854 146H58.1854C58.1321 146 58.0841 145.984 58.0414 145.952C58.0094 145.909 57.9934 145.861 57.9934 145.808V144.336C57.9934 144.24 58.0254 144.16 58.0894 144.096C58.6121 143.584 59.1454 143.029 59.6894 142.432C60.2334 141.824 60.5748 141.445 60.7134 141.296C61.0121 140.944 61.3161 140.608 61.6254 140.288C62.5961 139.211 63.0814 138.411 63.0814 137.888C63.0814 137.515 62.9481 137.211 62.6814 136.976C62.4148 136.731 62.0681 136.608 61.6414 136.608C61.2148 136.608 60.8681 136.731 60.6014 136.976C60.3348 137.211 60.2014 137.525 60.2014 137.92V138.32C60.2014 138.373 60.1801 138.421 60.1374 138.464C60.1054 138.496 60.0628 138.512 60.0094 138.512H58.1214C58.0681 138.512 58.0201 138.496 57.9774 138.464C57.9454 138.421 57.9294 138.373 57.9294 138.32V137.568C57.9614 136.992 58.1428 136.485 58.4734 136.048C58.8041 135.6 59.2414 135.259 59.7854 135.024C60.3401 134.789 60.9588 134.672 61.6414 134.672C62.3988 134.672 63.0548 134.816 63.6094 135.104C64.1748 135.381 64.6068 135.76 64.9054 136.24C65.2148 136.72 65.3694 137.253 65.3694 137.84C65.3694 138.288 65.2574 138.747 65.0334 139.216C64.8094 139.685 64.4734 140.192 64.0254 140.736C63.6948 141.152 63.3374 141.563 62.9534 141.968C62.5694 142.373 61.9988 142.96 61.2414 143.728L61.0014 143.968ZM70.7706 146.176C69.5972 146.176 68.6692 145.851 67.9866 145.2C67.3039 144.539 66.9626 143.643 66.9626 142.512V138.288C66.9626 137.179 67.3039 136.299 67.9866 135.648C68.6692 134.997 69.5972 134.672 70.7706 134.672C71.9439 134.672 72.8719 134.997 73.5546 135.648C74.2479 136.299 74.5946 137.179 74.5946 138.288V142.512C74.5946 143.643 74.2479 144.539 73.5546 145.2C72.8719 145.851 71.9439 146.176 70.7706 146.176ZM70.7706 144.24C71.2506 144.24 71.6292 144.096 71.9066 143.808C72.1946 143.509 72.3386 143.115 72.3386 142.624V138.224C72.3386 137.733 72.1946 137.344 71.9066 137.056C71.6292 136.757 71.2506 136.608 70.7706 136.608C70.3012 136.608 69.9226 136.757 69.6346 137.056C69.3572 137.344 69.2186 137.733 69.2186 138.224V142.624C69.2186 143.115 69.3572 143.509 69.6346 143.808C69.9226 144.096 70.3012 144.24 70.7706 144.24ZM79.0796 143.968C79.0582 143.989 79.0529 144.011 79.0636 144.032C79.0742 144.053 79.0956 144.064 79.1276 144.064H83.4636C83.5169 144.064 83.5596 144.085 83.5916 144.128C83.6342 144.16 83.6556 144.203 83.6556 144.256V145.808C83.6556 145.861 83.6342 145.909 83.5916 145.952C83.5596 145.984 83.5169 146 83.4636 146H76.2636C76.2102 146 76.1622 145.984 76.1196 145.952C76.0876 145.909 76.0716 145.861 76.0716 145.808V144.336C76.0716 144.24 76.1036 144.16 76.1676 144.096C76.6902 143.584 77.2236 143.029 77.7676 142.432C78.3116 141.824 78.6529 141.445 78.7916 141.296C79.0902 140.944 79.3942 140.608 79.7036 140.288C80.6742 139.211 81.1596 138.411 81.1596 137.888C81.1596 137.515 81.0262 137.211 80.7596 136.976C80.4929 136.731 80.1462 136.608 79.7196 136.608C79.2929 136.608 78.9462 136.731 78.6796 136.976C78.4129 137.211 78.2796 137.525 78.2796 137.92V138.32C78.2796 138.373 78.2582 138.421 78.2156 138.464C78.1836 138.496 78.1409 138.512 78.0876 138.512H76.1996C76.1462 138.512 76.0982 138.496 76.0556 138.464C76.0236 138.421 76.0076 138.373 76.0076 138.32V137.568C76.0396 136.992 76.2209 136.485 76.5516 136.048C76.8822 135.6 77.3196 135.259 77.8636 135.024C78.4182 134.789 79.0369 134.672 79.7196 134.672C80.4769 134.672 81.1329 134.816 81.6876 135.104C82.2529 135.381 82.6849 135.76 82.9836 136.24C83.2929 136.72 83.4476 137.253 83.4476 137.84C83.4476 138.288 83.3356 138.747 83.1116 139.216C82.8876 139.685 82.5516 140.192 82.1036 140.736C81.7729 141.152 81.4156 141.563 81.0316 141.968C80.6476 142.373 80.0769 142.96 79.3196 143.728L79.0796 143.968ZM91.7179 140.656C91.9313 141.147 92.0379 141.712 92.0379 142.352C92.0379 142.928 91.9419 143.461 91.7499 143.952C91.4939 144.635 91.0619 145.168 90.4539 145.552C89.8566 145.936 89.1473 146.128 88.3259 146.128C87.5153 146.128 86.8006 145.925 86.1819 145.52C85.5739 145.115 85.1366 144.565 84.8699 143.872C84.7206 143.456 84.6353 143.008 84.6139 142.528C84.6139 142.4 84.6779 142.336 84.8059 142.336H86.6939C86.8219 142.336 86.8859 142.4 86.8859 142.528C86.9286 142.88 86.9873 143.141 87.0619 143.312C87.1579 143.589 87.3126 143.808 87.5259 143.968C87.7499 144.117 88.0113 144.192 88.3099 144.192C88.9073 144.192 89.3179 143.931 89.5419 143.408C89.6913 143.088 89.7659 142.715 89.7659 142.288C89.7659 141.787 89.6859 141.376 89.5259 141.056C89.2806 140.555 88.8699 140.304 88.2939 140.304C88.1766 140.304 88.0539 140.341 87.9259 140.416C87.7979 140.48 87.6433 140.576 87.4619 140.704C87.4193 140.736 87.3766 140.752 87.3339 140.752C87.2699 140.752 87.2219 140.72 87.1899 140.656L86.2459 139.328C86.2246 139.296 86.2139 139.259 86.2139 139.216C86.2139 139.152 86.2353 139.099 86.2779 139.056L88.8219 136.832C88.8433 136.811 88.8486 136.789 88.8379 136.768C88.8379 136.747 88.8219 136.736 88.7899 136.736H85.0299C84.9766 136.736 84.9286 136.72 84.8859 136.688C84.8539 136.645 84.8379 136.597 84.8379 136.544V134.992C84.8379 134.939 84.8539 134.896 84.8859 134.864C84.9286 134.821 84.9766 134.8 85.0299 134.8H91.7019C91.7553 134.8 91.7979 134.821 91.8299 134.864C91.8726 134.896 91.8939 134.939 91.8939 134.992V136.752C91.8939 136.837 91.8566 136.917 91.7819 136.992L89.6859 138.912C89.6646 138.933 89.6539 138.955 89.6539 138.976C89.6646 138.997 89.6913 139.008 89.7339 139.008C90.6619 139.189 91.3233 139.739 91.7179 140.656Z" fill="#252530"/>
<path d="M44.7824 94.928C44.8358 94.8427 44.9104 94.8 45.0064 94.8H46.4784C46.5318 94.8 46.5744 94.8213 46.6064 94.864C46.6491 94.896 46.6704 94.9387 46.6704 94.992V105.808C46.6704 105.861 46.6491 105.909 46.6064 105.952C46.5744 105.984 46.5318 106 46.4784 106H45.0064C44.9531 106 44.9051 105.984 44.8624 105.952C44.8304 105.909 44.8144 105.861 44.8144 105.808V98.176C44.8144 98.144 44.7984 98.1227 44.7664 98.112C44.7451 98.1013 44.7291 98.112 44.7184 98.144L42.7184 101.216C42.6651 101.301 42.5904 101.344 42.4944 101.344H41.7584C41.6624 101.344 41.5878 101.301 41.5344 101.216L39.5184 98.16C39.5078 98.128 39.4864 98.1173 39.4544 98.128C39.4331 98.1387 39.4224 98.16 39.4224 98.192V105.808C39.4224 105.861 39.4011 105.909 39.3584 105.952C39.3264 105.984 39.2838 106 39.2304 106H37.7584C37.7051 106 37.6571 105.984 37.6144 105.952C37.5824 105.909 37.5664 105.861 37.5664 105.808V94.992C37.5664 94.9387 37.5824 94.896 37.6144 94.864C37.6571 94.8213 37.7051 94.8 37.7584 94.8H39.2304C39.3264 94.8 39.4011 94.8427 39.4544 94.928L42.0624 98.88C42.0838 98.9013 42.1051 98.912 42.1264 98.912C42.1478 98.912 42.1638 98.9013 42.1744 98.88L44.7824 94.928ZM49.3839 96.704C49.0533 96.704 48.7813 96.5973 48.5679 96.384C48.3546 96.1707 48.2479 95.8987 48.2479 95.568C48.2479 95.2373 48.3546 94.9653 48.5679 94.752C48.7813 94.5387 49.0533 94.432 49.3839 94.432C49.7146 94.432 49.9866 94.5387 50.1999 94.752C50.4133 94.9653 50.5199 95.2373 50.5199 95.568C50.5199 95.8987 50.4133 96.1707 50.1999 96.384C49.9866 96.5973 49.7146 96.704 49.3839 96.704ZM48.6159 106C48.5626 106 48.5146 105.984 48.4719 105.952C48.4399 105.909 48.4239 105.861 48.4239 105.808V98C48.4239 97.9467 48.4399 97.904 48.4719 97.872C48.5146 97.8293 48.5626 97.808 48.6159 97.808H50.0879C50.1413 97.808 50.1839 97.8293 50.2159 97.872C50.2586 97.904 50.2799 97.9467 50.2799 98V105.808C50.2799 105.861 50.2586 105.909 50.2159 105.952C50.1839 105.984 50.1413 106 50.0879 106H48.6159ZM56.9781 94.992C56.9781 94.9387 56.9941 94.896 57.0261 94.864C57.0687 94.8213 57.1167 94.8 57.1701 94.8H58.6421C58.6954 94.8 58.7381 94.8213 58.7701 94.864C58.8127 94.896 58.8341 94.9387 58.8341 94.992V105.808C58.8341 105.861 58.8127 105.909 58.7701 105.952C58.7381 105.984 58.6954 106 58.6421 106H57.1701C57.1167 106 57.0687 105.984 57.0261 105.952C56.9941 105.909 56.9781 105.861 56.9781 105.808V105.328C56.9781 105.296 56.9674 105.275 56.9461 105.264C56.9247 105.253 56.9034 105.264 56.8821 105.296C56.4127 105.851 55.7994 106.128 55.0421 106.128C54.2847 106.128 53.6447 105.931 53.1221 105.536C52.5994 105.141 52.2207 104.592 51.9861 103.888C51.7941 103.291 51.6981 102.624 51.6981 101.888C51.6981 101.131 51.7887 100.48 51.9701 99.936C52.2047 99.232 52.5834 98.6827 53.1061 98.288C53.6287 97.8933 54.2847 97.696 55.0741 97.696C55.8101 97.696 56.4127 97.9627 56.8821 98.496C56.9034 98.5173 56.9247 98.528 56.9461 98.528C56.9674 98.5173 56.9781 98.496 56.9781 98.464V94.992ZM56.5941 103.76C56.8394 103.323 56.9621 102.704 56.9621 101.904C56.9621 101.072 56.8287 100.437 56.5621 100C56.2741 99.5307 55.8687 99.296 55.3461 99.296C54.8021 99.296 54.3754 99.52 54.0661 99.968C53.7461 100.437 53.5861 101.088 53.5861 101.92C53.5861 102.667 53.7141 103.28 53.9701 103.76C54.2687 104.272 54.7221 104.528 55.3301 104.528C55.8741 104.528 56.2954 104.272 56.5941 103.76ZM62.7587 101.984C62.7054 101.984 62.6574 101.968 62.6147 101.936C62.5827 101.893 62.5667 101.845 62.5667 101.792V100.576C62.5667 100.523 62.5827 100.48 62.6147 100.448C62.6574 100.405 62.7054 100.384 62.7587 100.384H67.7987C67.852 100.384 67.8947 100.405 67.9267 100.448C67.9694 100.48 67.9907 100.523 67.9907 100.576V101.792C67.9907 101.845 67.9694 101.893 67.9267 101.936C67.8947 101.968 67.852 101.984 67.7987 101.984H62.7587ZM76.4074 94.928C76.4608 94.8427 76.5354 94.8 76.6314 94.8H78.1034C78.1568 94.8 78.1994 94.8213 78.2314 94.864C78.2741 94.896 78.2954 94.9387 78.2954 94.992V105.808C78.2954 105.861 78.2741 105.909 78.2314 105.952C78.1994 105.984 78.1568 106 78.1034 106H76.6314C76.5781 106 76.5301 105.984 76.4874 105.952C76.4554 105.909 76.4394 105.861 76.4394 105.808V98.176C76.4394 98.144 76.4234 98.1227 76.3914 98.112C76.3701 98.1013 76.3541 98.112 76.3434 98.144L74.3434 101.216C74.2901 101.301 74.2154 101.344 74.1194 101.344H73.3834C73.2874 101.344 73.2128 101.301 73.1594 101.216L71.1434 98.16C71.1328 98.128 71.1114 98.1173 71.0794 98.128C71.0581 98.1387 71.0474 98.16 71.0474 98.192V105.808C71.0474 105.861 71.0261 105.909 70.9834 105.952C70.9514 105.984 70.9088 106 70.8554 106H69.3834C69.3301 106 69.2821 105.984 69.2394 105.952C69.2074 105.909 69.1914 105.861 69.1914 105.808V94.992C69.1914 94.9387 69.2074 94.896 69.2394 94.864C69.2821 94.8213 69.3301 94.8 69.3834 94.8H70.8554C70.9514 94.8 71.0261 94.8427 71.0794 94.928L73.6874 98.88C73.7088 98.9013 73.7301 98.912 73.7514 98.912C73.7728 98.912 73.7888 98.9013 73.7994 98.88L76.4074 94.928ZM83.0729 97.696C83.7449 97.696 84.3369 97.8133 84.8489 98.048C85.3609 98.2827 85.7556 98.608 86.0329 99.024C86.3103 99.4293 86.4489 99.8933 86.4489 100.416V105.808C86.4489 105.861 86.4276 105.909 86.3849 105.952C86.3529 105.984 86.3103 106 86.2569 106H84.7849C84.7316 106 84.6836 105.984 84.6409 105.952C84.6089 105.909 84.5929 105.861 84.5929 105.808V105.296C84.5929 105.264 84.5823 105.248 84.5609 105.248C84.5396 105.237 84.5183 105.243 84.4969 105.264C83.9743 105.84 83.2169 106.128 82.2249 106.128C81.4249 106.128 80.7636 105.925 80.2409 105.52C79.7289 105.115 79.4729 104.512 79.4729 103.712C79.4729 102.88 79.7609 102.235 80.3369 101.776C80.9236 101.307 81.7449 101.072 82.8009 101.072H84.5129C84.5663 101.072 84.5929 101.045 84.5929 100.992V100.608C84.5929 100.192 84.4703 99.872 84.2249 99.648C83.9796 99.4133 83.6116 99.296 83.1209 99.296C82.7156 99.296 82.3849 99.3707 82.1289 99.52C81.8836 99.6587 81.7289 99.856 81.6649 100.112C81.6329 100.24 81.5583 100.293 81.4409 100.272L79.8889 100.08C79.8356 100.069 79.7876 100.053 79.7449 100.032C79.7129 100 79.7023 99.9627 79.7129 99.92C79.7983 99.2693 80.1449 98.736 80.7529 98.32C81.3716 97.904 82.1449 97.696 83.0729 97.696ZM82.6889 104.656C83.2116 104.656 83.6596 104.517 84.0329 104.24C84.4063 103.963 84.5929 103.611 84.5929 103.184V102.432C84.5929 102.379 84.5663 102.352 84.5129 102.352H83.1689C82.6036 102.352 82.1556 102.459 81.8249 102.672C81.5049 102.885 81.3449 103.189 81.3449 103.584C81.3449 103.925 81.4676 104.192 81.7129 104.384C81.9689 104.565 82.2943 104.656 82.6889 104.656ZM91.6203 97.728C91.9616 97.728 92.2603 97.7973 92.5163 97.936C92.6016 97.9787 92.6336 98.0587 92.6123 98.176L92.3403 99.616C92.3296 99.744 92.255 99.7813 92.1163 99.728C91.9563 99.6747 91.7696 99.648 91.5563 99.648C91.4176 99.648 91.311 99.6533 91.2363 99.664C90.7883 99.6853 90.415 99.8453 90.1163 100.144C89.8176 100.432 89.6683 100.811 89.6683 101.28V105.808C89.6683 105.861 89.647 105.909 89.6043 105.952C89.5723 105.984 89.5296 106 89.4763 106H88.0043C87.951 106 87.903 105.984 87.8603 105.952C87.8283 105.909 87.8123 105.861 87.8123 105.808V98.016C87.8123 97.9627 87.8283 97.92 87.8603 97.888C87.903 97.8453 87.951 97.824 88.0043 97.824H89.4763C89.5296 97.824 89.5723 97.8453 89.6043 97.888C89.647 97.92 89.6683 97.9627 89.6683 98.016V98.736C89.6683 98.7787 89.6736 98.8053 89.6843 98.816C89.7056 98.816 89.727 98.8 89.7483 98.768C90.1963 98.0747 90.8203 97.728 91.6203 97.728ZM93.5199 106C93.4666 106 93.4186 105.984 93.3759 105.952C93.3439 105.909 93.3279 105.861 93.3279 105.808V94.992C93.3279 94.9387 93.3439 94.896 93.3759 94.864C93.4186 94.8213 93.4666 94.8 93.5199 94.8H94.9919C95.0453 94.8 95.0879 94.8213 95.1199 94.864C95.1626 94.896 95.1839 94.9387 95.1839 94.992V100.768C95.1839 100.8 95.1946 100.821 95.2159 100.832C95.2373 100.843 95.2586 100.832 95.2799 100.8L97.8719 97.936C97.9466 97.8613 98.0266 97.824 98.1119 97.824H99.8079C99.9146 97.824 99.9679 97.8613 99.9679 97.936C99.9679 97.968 99.9519 98.0107 99.9199 98.064L97.8879 100.496C97.8559 100.528 97.8506 100.565 97.8719 100.608L100.272 105.776C100.293 105.819 100.304 105.851 100.304 105.872C100.304 105.957 100.245 106 100.128 106H98.5759C98.4693 106 98.3946 105.952 98.3519 105.856L96.6079 101.792C96.5973 101.771 96.5759 101.76 96.5439 101.76C96.5226 101.749 96.5066 101.755 96.4959 101.776L95.2159 103.248C95.1946 103.291 95.1839 103.328 95.1839 103.36V105.808C95.1839 105.861 95.1626 105.909 95.1199 105.952C95.0879 105.984 95.0453 106 94.9919 106H93.5199ZM107.505 100.992C107.548 101.259 107.569 101.557 107.569 101.888L107.553 102.384C107.553 102.512 107.489 102.576 107.361 102.576H102.353C102.3 102.576 102.273 102.603 102.273 102.656C102.305 103.008 102.353 103.248 102.417 103.376C102.673 104.144 103.297 104.533 104.289 104.544C105.015 104.544 105.591 104.245 106.017 103.648C106.06 103.584 106.113 103.552 106.177 103.552C106.22 103.552 106.257 103.568 106.289 103.6L107.281 104.416C107.377 104.491 107.393 104.576 107.329 104.672C106.999 105.141 106.556 105.504 106.001 105.76C105.457 106.016 104.849 106.144 104.177 106.144C103.345 106.144 102.636 105.957 102.049 105.584C101.473 105.211 101.052 104.688 100.785 104.016C100.54 103.44 100.417 102.64 100.417 101.616C100.417 100.997 100.481 100.496 100.609 100.112C100.823 99.3653 101.223 98.7787 101.809 98.352C102.407 97.9147 103.121 97.696 103.953 97.696C106.055 97.696 107.239 98.7947 107.505 100.992ZM103.953 99.296C103.559 99.296 103.228 99.3973 102.961 99.6C102.705 99.792 102.524 100.064 102.417 100.416C102.353 100.597 102.311 100.832 102.289 101.12C102.268 101.173 102.289 101.2 102.353 101.2H105.601C105.655 101.2 105.681 101.173 105.681 101.12C105.66 100.853 105.628 100.651 105.585 100.512C105.489 100.128 105.297 99.8293 105.009 99.616C104.732 99.4027 104.38 99.296 103.953 99.296ZM112.945 99.136C112.945 99.1893 112.924 99.2373 112.881 99.28C112.849 99.312 112.807 99.328 112.753 99.328H111.121C111.068 99.328 111.041 99.3547 111.041 99.408V103.264C111.041 103.669 111.127 103.963 111.297 104.144C111.479 104.325 111.761 104.416 112.145 104.416H112.625C112.679 104.416 112.721 104.437 112.753 104.48C112.796 104.512 112.817 104.555 112.817 104.608V105.808C112.817 105.925 112.753 105.995 112.625 106.016L111.793 106.032C110.951 106.032 110.321 105.888 109.905 105.6C109.489 105.312 109.276 104.768 109.265 103.968V99.408C109.265 99.3547 109.239 99.328 109.185 99.328H108.273C108.22 99.328 108.172 99.312 108.129 99.28C108.097 99.2373 108.081 99.1893 108.081 99.136V98.016C108.081 97.9627 108.097 97.92 108.129 97.888C108.172 97.8453 108.22 97.824 108.273 97.824H109.185C109.239 97.824 109.265 97.7973 109.265 97.744V95.872C109.265 95.8187 109.281 95.776 109.313 95.744C109.356 95.7013 109.404 95.68 109.457 95.68H110.849C110.903 95.68 110.945 95.7013 110.977 95.744C111.02 95.776 111.041 95.8187 111.041 95.872V97.744C111.041 97.7973 111.068 97.824 111.121 97.824H112.753C112.807 97.824 112.849 97.8453 112.881 97.888C112.924 97.92 112.945 97.9627 112.945 98.016V99.136Z" fill="#252530"/>
</g>
<defs>
<clipPath id="clip0_13_363">
<rect width="150" height="168" fill="white"/>
</clipPath>
</defs>
</svg>
