<svg width="150" height="168" viewBox="0 0 150 168" fill="none" xmlns="http://www.w3.org/2000/svg">
<g clip-path="url(#clip0_14_219)">
<path d="M10 132.9V2H139V132.9L74.45 165.76L10 132.9Z" fill="white"/>
<path d="M137 4V131.67L74.45 163.51L12 131.67V4H137ZM141 0H8V134.12L74.45 168L141 134.12V0Z" fill="#DCDEDC"/>
<path d="M12.22 131.78L74.43 163.5L137 131.7V4.67999L12.22 131.78Z" fill="#F2F3F2"/>
<path d="M144.98 90H5.16966L0 101L5.16966 112H144.99L150 101L144.98 90Z" fill="#23CCA2"/>
<path d="M75.0778 6.12022C75.7101 6.12022 76.3327 6.12022 76.965 6.27565L75.0778 9.87978C72.2471 9.72435 69.7374 11.9199 69.5817 14.7468C69.4261 17.5738 71.6245 20.0801 74.4553 20.2356H75.0875C76.3424 20.2356 77.5973 19.7693 78.5409 18.9824L80.5837 22.4311C79.0175 23.5288 77.1303 24.1603 75.0875 24.1603C70.0584 24.3157 65.8171 20.5562 65.6615 15.5337C65.5058 10.5112 69.2704 6.27565 74.2996 6.12022H75.0875H75.0778ZM81.5175 13.8045L83.8716 17.7292L81.5175 21.4985L79.3191 17.7292H74.7665L77.1206 13.8045H81.5175ZM77.7432 12.3959C77.7432 11.7644 77.8988 11.1427 78.2101 10.6667C78.5214 10.1906 79.1537 9.72435 79.6206 9.41348L79.9319 9.25805C80.5642 8.94718 80.7198 8.79174 80.7198 8.47116C80.7198 8.15058 80.2529 7.83971 79.9319 7.83971C79.2996 7.83971 78.8327 8.15058 78.5214 8.78203L77.7335 7.99514C77.8891 7.68427 78.2004 7.36369 78.5214 7.05282C78.9883 6.74196 79.465 6.74196 79.9319 6.74196C80.3988 6.74196 81.0311 6.89739 81.3424 7.20826C81.6537 7.51913 81.9747 7.99514 81.9747 8.46145C81.9747 9.24833 81.5078 9.87007 80.5642 10.1906L80.0973 10.5015C79.6303 10.8124 79.3093 10.9678 79.1537 11.4438H81.9844V12.5416L77.7432 12.3862V12.3959ZM75.0778 32L90 23.5288V0H60V23.3734L75.0778 32Z" fill="#FF492C"/>
<path d="M49.7529 131C49.6355 131 49.5609 130.947 49.5289 130.84L46.6969 120.008L46.6809 119.944C46.6809 119.848 46.7395 119.8 46.8569 119.8H48.8409C48.9475 119.8 49.0169 119.853 49.0489 119.96L50.5689 126.472C50.5795 126.515 50.5955 126.536 50.6169 126.536C50.6382 126.536 50.6542 126.515 50.6649 126.472L52.1369 119.976C52.1689 119.859 52.2382 119.8 52.3449 119.8H54.2809C54.3982 119.8 54.4729 119.853 54.5049 119.96L56.1049 126.472C56.1155 126.504 56.1315 126.525 56.1529 126.536C56.1742 126.536 56.1902 126.515 56.2009 126.472L57.6729 119.976C57.7049 119.859 57.7742 119.8 57.8809 119.8H59.7689C59.9182 119.8 59.9769 119.869 59.9449 120.008L57.3209 130.84C57.2889 130.947 57.2142 131 57.0969 131H55.1929C55.0862 131 55.0169 130.947 54.9849 130.84L53.3529 123.912C53.3422 123.869 53.3262 123.848 53.3049 123.848C53.2835 123.848 53.2675 123.869 53.2569 123.912L51.7369 130.824C51.7155 130.941 51.6462 131 51.5289 131H49.7529ZM61.4961 131C61.4428 131 61.3948 130.984 61.3521 130.952C61.3201 130.909 61.3041 130.861 61.3041 130.808V119.992C61.3041 119.939 61.3201 119.896 61.3521 119.864C61.3948 119.821 61.4428 119.8 61.4961 119.8H63.3681C63.4215 119.8 63.4641 119.821 63.4961 119.864C63.5388 119.896 63.5601 119.939 63.5601 119.992V130.808C63.5601 130.861 63.5388 130.909 63.4961 130.952C63.4641 130.984 63.4215 131 63.3681 131H61.4961ZM71.9393 119.992C71.9393 119.939 71.9553 119.896 71.9873 119.864C72.0299 119.821 72.0779 119.8 72.1313 119.8H74.0033C74.0566 119.8 74.0993 119.821 74.1313 119.864C74.1739 119.896 74.1953 119.939 74.1953 119.992V130.808C74.1953 130.861 74.1739 130.909 74.1313 130.952C74.0993 130.984 74.0566 131 74.0033 131H72.1953C72.0886 131 72.0139 130.957 71.9713 130.872L67.8273 124.024C67.8059 123.992 67.7846 123.981 67.7633 123.992C67.7419 123.992 67.7313 124.013 67.7313 124.056L67.7633 130.808C67.7633 130.861 67.7419 130.909 67.6993 130.952C67.6673 130.984 67.6246 131 67.5713 131H65.6993C65.6459 131 65.5979 130.984 65.5553 130.952C65.5233 130.909 65.5073 130.861 65.5073 130.808V119.992C65.5073 119.939 65.5233 119.896 65.5553 119.864C65.5979 119.821 65.6459 119.8 65.6993 119.8H67.5073C67.6139 119.8 67.6886 119.843 67.7313 119.928L71.8593 126.744C71.8806 126.776 71.9019 126.792 71.9233 126.792C71.9446 126.781 71.9553 126.755 71.9553 126.712L71.9393 119.992ZM83.8759 119.8C83.9292 119.8 83.9719 119.821 84.0039 119.864C84.0465 119.896 84.0679 119.939 84.0679 119.992V121.56C84.0679 121.613 84.0465 121.661 84.0039 121.704C83.9719 121.736 83.9292 121.752 83.8759 121.752H81.0119C80.9585 121.752 80.9319 121.779 80.9319 121.832V130.808C80.9319 130.861 80.9105 130.909 80.8679 130.952C80.8359 130.984 80.7932 131 80.7399 131H78.8679C78.8145 131 78.7665 130.984 78.7239 130.952C78.6919 130.909 78.6759 130.861 78.6759 130.808V121.832C78.6759 121.779 78.6492 121.752 78.5959 121.752H75.8119C75.7585 121.752 75.7105 121.736 75.6679 121.704C75.6359 121.661 75.6199 121.613 75.6199 121.56V119.992C75.6199 119.939 75.6359 119.896 75.6679 119.864C75.7105 119.821 75.7585 119.8 75.8119 119.8H83.8759ZM93.2833 121.544C93.2833 121.597 93.2619 121.645 93.2193 121.688C93.1873 121.72 93.1446 121.736 93.0913 121.736H87.8433C87.7899 121.736 87.7633 121.763 87.7633 121.816V124.296C87.7633 124.349 87.7899 124.376 87.8433 124.376H91.2833C91.3366 124.376 91.3793 124.397 91.4113 124.44C91.4539 124.472 91.4753 124.515 91.4753 124.568V126.12C91.4753 126.173 91.4539 126.221 91.4113 126.264C91.3793 126.296 91.3366 126.312 91.2833 126.312H87.8433C87.7899 126.312 87.7633 126.339 87.7633 126.392V128.984C87.7633 129.037 87.7899 129.064 87.8433 129.064H93.0913C93.1446 129.064 93.1873 129.085 93.2193 129.128C93.2619 129.16 93.2833 129.203 93.2833 129.256V130.808C93.2833 130.861 93.2619 130.909 93.2193 130.952C93.1873 130.984 93.1446 131 93.0913 131H85.6993C85.6459 131 85.5979 130.984 85.5553 130.952C85.5233 130.909 85.5073 130.861 85.5073 130.808V119.992C85.5073 119.939 85.5233 119.896 85.5553 119.864C85.5979 119.821 85.6459 119.8 85.6993 119.8H93.0913C93.1446 119.8 93.1873 119.821 93.2193 119.864C93.2619 119.896 93.2833 119.939 93.2833 119.992V121.544ZM100.995 131C100.888 131 100.814 130.952 100.771 130.856L98.771 126.424C98.7497 126.381 98.7177 126.36 98.675 126.36H97.187C97.1337 126.36 97.107 126.387 97.107 126.44V130.808C97.107 130.861 97.0857 130.909 97.043 130.952C97.011 130.984 96.9683 131 96.915 131H95.043C94.9897 131 94.9417 130.984 94.899 130.952C94.867 130.909 94.851 130.861 94.851 130.808V119.992C94.851 119.939 94.867 119.896 94.899 119.864C94.9417 119.821 94.9897 119.8 95.043 119.8H99.619C100.302 119.8 100.899 119.939 101.411 120.216C101.934 120.493 102.334 120.888 102.611 121.4C102.899 121.912 103.043 122.504 103.043 123.176C103.043 123.901 102.862 124.525 102.499 125.048C102.136 125.56 101.63 125.923 100.979 126.136C100.926 126.157 100.91 126.195 100.931 126.248L103.107 130.776C103.128 130.819 103.139 130.851 103.139 130.872C103.139 130.957 103.08 131 102.963 131H100.995ZM97.187 121.736C97.1337 121.736 97.107 121.763 97.107 121.816V124.552C97.107 124.605 97.1337 124.632 97.187 124.632H99.283C99.731 124.632 100.094 124.499 100.371 124.232C100.659 123.965 100.803 123.619 100.803 123.192C100.803 122.765 100.659 122.419 100.371 122.152C100.094 121.875 99.731 121.736 99.283 121.736H97.187Z" fill="#252530"/>
<path d="M64.7491 57.065C64.6731 57.103 64.6731 57.141 64.7491 57.179C65.9525 57.7997 66.5541 58.832 66.5541 60.276C66.5541 61.5047 66.1361 62.4357 65.3001 63.069C64.4641 63.6897 63.3685 64 62.0131 64H57.0921C57.0288 64 56.9718 63.981 56.9211 63.943C56.8831 63.8923 56.8641 63.8353 56.8641 63.772V50.928C56.8641 50.8647 56.8831 50.814 56.9211 50.776C56.9718 50.7253 57.0288 50.7 57.0921 50.7H61.8611C64.8631 50.7 66.3641 51.916 66.3641 54.348C66.3641 55.6147 65.8258 56.5203 64.7491 57.065ZM59.6381 52.999C59.5748 52.999 59.5431 53.0307 59.5431 53.094V56.058C59.5431 56.1213 59.5748 56.153 59.6381 56.153H61.8611C62.4565 56.153 62.9188 56.0137 63.2481 55.735C63.5775 55.4563 63.7421 55.0763 63.7421 54.595C63.7421 54.101 63.5775 53.7147 63.2481 53.436C62.9188 53.1447 62.4565 52.999 61.8611 52.999H59.6381ZM62.0131 61.682C62.5958 61.682 63.0518 61.5363 63.3811 61.245C63.7105 60.941 63.8751 60.5293 63.8751 60.01C63.8751 59.4907 63.7105 59.0853 63.3811 58.794C63.0518 58.49 62.5895 58.338 61.9941 58.338H59.6381C59.5748 58.338 59.5431 58.3697 59.5431 58.433V61.587C59.5431 61.6503 59.5748 61.682 59.6381 61.682H62.0131ZM77.0634 58.11C77.1394 58.5913 77.1647 59.1297 77.1394 59.725C77.1267 59.877 77.0444 59.953 76.8924 59.953H71.0214C70.9454 59.953 70.92 59.9847 70.9454 60.048C70.9834 60.3013 71.053 60.5547 71.1544 60.808C71.4837 61.5173 72.155 61.872 73.1684 61.872C73.979 61.8593 74.6187 61.53 75.0874 60.884C75.138 60.808 75.195 60.77 75.2584 60.77C75.2964 60.77 75.3407 60.7953 75.3914 60.846L76.7594 62.195C76.8227 62.2583 76.8544 62.3153 76.8544 62.366C76.8544 62.3913 76.829 62.442 76.7784 62.518C76.3604 63.0373 75.822 63.4427 75.1634 63.734C74.5047 64.0127 73.7827 64.152 72.9974 64.152C71.908 64.152 70.9834 63.905 70.2234 63.411C69.476 62.917 68.9377 62.2267 68.6084 61.34C68.3424 60.7067 68.2094 59.877 68.2094 58.851C68.2094 58.1543 68.3044 57.54 68.4944 57.008C68.7857 56.1087 69.2924 55.393 70.0144 54.861C70.749 54.329 71.6167 54.063 72.6174 54.063C73.884 54.063 74.8974 54.4303 75.6574 55.165C76.43 55.8997 76.8987 56.8813 77.0634 58.11ZM72.6364 56.381C71.8384 56.381 71.3127 56.7547 71.0594 57.502C71.0087 57.6667 70.9644 57.8693 70.9264 58.11C70.9264 58.1733 70.958 58.205 71.0214 58.205H74.3084C74.3844 58.205 74.4097 58.1733 74.3844 58.11C74.321 57.7427 74.2894 57.5653 74.2894 57.578C74.1754 57.198 73.9727 56.9067 73.6814 56.704C73.4027 56.4887 73.0544 56.381 72.6364 56.381ZM82.4985 64.133C81.6499 64.133 80.9089 64.0127 80.2755 63.772C79.6422 63.5313 79.1482 63.1957 78.7935 62.765C78.4515 62.3343 78.2805 61.8467 78.2805 61.302V61.112C78.2805 61.0487 78.2995 60.998 78.3375 60.96C78.3882 60.9093 78.4452 60.884 78.5085 60.884H80.6175C80.6809 60.884 80.7315 60.9093 80.7695 60.96C80.8202 60.998 80.8455 61.0487 80.8455 61.112V61.131C80.8455 61.4097 80.9975 61.6503 81.3015 61.853C81.6182 62.043 82.0109 62.138 82.4795 62.138C82.9102 62.138 83.2585 62.0557 83.5245 61.891C83.7905 61.7137 83.9235 61.4983 83.9235 61.245C83.9235 61.017 83.8095 60.846 83.5815 60.732C83.3535 60.618 82.9799 60.4977 82.4605 60.371C81.8652 60.219 81.3965 60.0733 81.0545 59.934C80.2439 59.6553 79.5979 59.3133 79.1165 58.908C78.6352 58.5027 78.3945 57.92 78.3945 57.16C78.3945 56.2227 78.7555 55.4817 79.4775 54.937C80.2122 54.3797 81.1812 54.101 82.3845 54.101C83.1952 54.101 83.9045 54.234 84.5125 54.5C85.1205 54.7533 85.5892 55.1143 85.9185 55.583C86.2605 56.0517 86.4315 56.5837 86.4315 57.179C86.4315 57.2423 86.4062 57.2993 86.3555 57.35C86.3175 57.388 86.2669 57.407 86.2035 57.407H84.1705C84.1072 57.407 84.0502 57.388 83.9995 57.35C83.9615 57.2993 83.9425 57.2423 83.9425 57.179C83.9425 56.9003 83.7969 56.666 83.5055 56.476C83.2269 56.286 82.8532 56.191 82.3845 56.191C81.9665 56.191 81.6245 56.267 81.3585 56.419C81.0925 56.571 80.9595 56.78 80.9595 57.046C80.9595 57.2993 81.0862 57.4893 81.3395 57.616C81.6055 57.7427 82.0425 57.8757 82.6505 58.015C82.7899 58.053 82.9482 58.0973 83.1255 58.148C83.3029 58.186 83.4929 58.2367 83.6955 58.3C84.5949 58.566 85.3042 58.908 85.8235 59.326C86.3429 59.744 86.6025 60.352 86.6025 61.15C86.6025 62.0873 86.2289 62.822 85.4815 63.354C84.7469 63.8733 83.7525 64.133 82.4985 64.133ZM93.6701 56.153C93.6701 56.2163 93.6448 56.2733 93.5941 56.324C93.5561 56.362 93.5054 56.381 93.4421 56.381H91.6181C91.5548 56.381 91.5231 56.4127 91.5231 56.476V60.504C91.5231 60.922 91.6054 61.2323 91.7701 61.435C91.9474 61.6377 92.2261 61.739 92.6061 61.739H93.2331C93.2964 61.739 93.3471 61.7643 93.3851 61.815C93.4358 61.853 93.4611 61.9037 93.4611 61.967V63.772C93.4611 63.9113 93.3851 63.9937 93.2331 64.019C92.7011 64.0443 92.3211 64.057 92.0931 64.057C91.0418 64.057 90.2564 63.886 89.7371 63.544C89.2178 63.1893 88.9518 62.5307 88.9391 61.568V56.476C88.9391 56.4127 88.9074 56.381 88.8441 56.381H87.7611C87.6978 56.381 87.6408 56.362 87.5901 56.324C87.5521 56.2733 87.5331 56.2163 87.5331 56.153V54.462C87.5331 54.3987 87.5521 54.348 87.5901 54.31C87.6408 54.2593 87.6978 54.234 87.7611 54.234H88.8441C88.9074 54.234 88.9391 54.2023 88.9391 54.139V51.878C88.9391 51.8147 88.9581 51.764 88.9961 51.726C89.0468 51.6753 89.1038 51.65 89.1671 51.65H91.2951C91.3584 51.65 91.4091 51.6753 91.4471 51.726C91.4978 51.764 91.5231 51.8147 91.5231 51.878V54.139C91.5231 54.2023 91.5548 54.234 91.6181 54.234H93.4421C93.5054 54.234 93.5561 54.2593 93.5941 54.31C93.6448 54.348 93.6701 54.3987 93.6701 54.462V56.153ZM30.9638 83C30.8371 83 30.7485 82.943 30.6978 82.829L28.3228 77.566C28.2975 77.5153 28.2595 77.49 28.2088 77.49H26.4418C26.3785 77.49 26.3468 77.5217 26.3468 77.585V82.772C26.3468 82.8353 26.3215 82.8923 26.2708 82.943C26.2328 82.981 26.1821 83 26.1188 83H23.8958C23.8325 83 23.7755 82.981 23.7248 82.943C23.6868 82.8923 23.6678 82.8353 23.6678 82.772V69.928C23.6678 69.8647 23.6868 69.814 23.7248 69.776C23.7755 69.7253 23.8325 69.7 23.8958 69.7H29.3298C30.1405 69.7 30.8498 69.8647 31.4578 70.194C32.0785 70.5233 32.5535 70.992 32.8828 71.6C33.2248 72.208 33.3958 72.911 33.3958 73.709C33.3958 74.5703 33.1805 75.3113 32.7498 75.932C32.3191 76.54 31.7175 76.9707 30.9448 77.224C30.8815 77.2493 30.8625 77.2937 30.8878 77.357L33.4718 82.734C33.4971 82.7847 33.5098 82.8227 33.5098 82.848C33.5098 82.9493 33.4401 83 33.3008 83H30.9638ZM26.4418 71.999C26.3785 71.999 26.3468 72.0307 26.3468 72.094V75.343C26.3468 75.4063 26.3785 75.438 26.4418 75.438H28.9308C29.4628 75.438 29.8935 75.2797 30.2228 74.963C30.5648 74.6463 30.7358 74.2347 30.7358 73.728C30.7358 73.2213 30.5648 72.8097 30.2228 72.493C29.8935 72.1637 29.4628 71.999 28.9308 71.999H26.4418ZM43.6828 77.11C43.7588 77.5913 43.7841 78.1297 43.7588 78.725C43.7461 78.877 43.6638 78.953 43.5118 78.953H37.6408C37.5648 78.953 37.5395 78.9847 37.5648 79.048C37.6028 79.3013 37.6725 79.5547 37.7738 79.808C38.1031 80.5173 38.7745 80.872 39.7878 80.872C40.5985 80.8593 41.2381 80.53 41.7068 79.884C41.7575 79.808 41.8145 79.77 41.8778 79.77C41.9158 79.77 41.9601 79.7953 42.0108 79.846L43.3788 81.195C43.4421 81.2583 43.4738 81.3153 43.4738 81.366C43.4738 81.3913 43.4485 81.442 43.3978 81.518C42.9798 82.0373 42.4415 82.4427 41.7828 82.734C41.1241 83.0127 40.4021 83.152 39.6168 83.152C38.5275 83.152 37.6028 82.905 36.8428 82.411C36.0955 81.917 35.5571 81.2267 35.2278 80.34C34.9618 79.7067 34.8288 78.877 34.8288 77.851C34.8288 77.1543 34.9238 76.54 35.1138 76.008C35.4051 75.1087 35.9118 74.393 36.6338 73.861C37.3685 73.329 38.2361 73.063 39.2368 73.063C40.5035 73.063 41.5168 73.4303 42.2768 74.165C43.0495 74.8997 43.5181 75.8813 43.6828 77.11ZM39.2558 75.381C38.4578 75.381 37.9321 75.7547 37.6788 76.502C37.6281 76.6667 37.5838 76.8693 37.5458 77.11C37.5458 77.1733 37.5775 77.205 37.6408 77.205H40.9278C41.0038 77.205 41.0291 77.1733 41.0038 77.11C40.9405 76.7427 40.9088 76.5653 40.9088 76.578C40.7948 76.198 40.5921 75.9067 40.3008 75.704C40.0221 75.4887 39.6738 75.381 39.2558 75.381ZM45.6379 83C45.5745 83 45.5175 82.981 45.4669 82.943C45.4289 82.8923 45.4099 82.8353 45.4099 82.772V69.928C45.4099 69.8647 45.4289 69.814 45.4669 69.776C45.5175 69.7253 45.5745 69.7 45.6379 69.7H47.8609C47.9242 69.7 47.9749 69.7253 48.0129 69.776C48.0635 69.814 48.0889 69.8647 48.0889 69.928V82.772C48.0889 82.8353 48.0635 82.8923 48.0129 82.943C47.9749 82.981 47.9242 83 47.8609 83H45.6379ZM53.9435 73.082C54.7669 73.082 55.5015 73.2277 56.1475 73.519C56.7935 73.7977 57.2939 74.184 57.6485 74.678C58.0159 75.172 58.1995 75.723 58.1995 76.331V82.772C58.1995 82.8353 58.1742 82.8923 58.1235 82.943C58.0855 82.981 58.0349 83 57.9715 83H55.7485C55.6852 83 55.6282 82.981 55.5775 82.943C55.5395 82.8923 55.5205 82.8353 55.5205 82.772V82.145C55.5205 82.107 55.5079 82.0817 55.4825 82.069C55.4572 82.0563 55.4319 82.069 55.4065 82.107C54.8745 82.8037 54.0195 83.152 52.8415 83.152C51.8535 83.152 51.0555 82.9113 50.4475 82.43C49.8395 81.9487 49.5355 81.2393 49.5355 80.302C49.5355 79.3267 49.8775 78.573 50.5615 78.041C51.2455 77.4963 52.2209 77.224 53.4875 77.224H55.4255C55.4889 77.224 55.5205 77.1923 55.5205 77.129V76.711C55.5205 76.293 55.3939 75.97 55.1405 75.742C54.8872 75.5013 54.5072 75.381 54.0005 75.381C53.6079 75.381 53.2785 75.4507 53.0125 75.59C52.7592 75.7293 52.5945 75.9257 52.5185 76.179C52.4805 76.3183 52.3982 76.3817 52.2715 76.369L49.9725 76.065C49.8205 76.0397 49.7509 75.9827 49.7635 75.894C49.8142 75.362 50.0232 74.8807 50.3905 74.45C50.7705 74.0193 51.2645 73.6837 51.8725 73.443C52.4932 73.2023 53.1835 73.082 53.9435 73.082ZM53.5635 81.157C54.1082 81.157 54.5705 81.0113 54.9505 80.72C55.3305 80.4287 55.5205 80.055 55.5205 79.599V78.915C55.5205 78.8517 55.4889 78.82 55.4255 78.82H54.0575C53.4875 78.82 53.0379 78.9277 52.7085 79.143C52.3919 79.3583 52.2335 79.6623 52.2335 80.055C52.2335 80.397 52.3539 80.6693 52.5945 80.872C52.8352 81.062 53.1582 81.157 53.5635 81.157ZM65.4875 75.153C65.4875 75.2163 65.4622 75.2733 65.4115 75.324C65.3735 75.362 65.3229 75.381 65.2595 75.381H63.4355C63.3722 75.381 63.3405 75.4127 63.3405 75.476V79.504C63.3405 79.922 63.4229 80.2323 63.5875 80.435C63.7649 80.6377 64.0435 80.739 64.4235 80.739H65.0505C65.1139 80.739 65.1645 80.7643 65.2025 80.815C65.2532 80.853 65.2785 80.9037 65.2785 80.967V82.772C65.2785 82.9113 65.2025 82.9937 65.0505 83.019C64.5185 83.0443 64.1385 83.057 63.9105 83.057C62.8592 83.057 62.0739 82.886 61.5545 82.544C61.0352 82.1893 60.7692 81.5307 60.7565 80.568V75.476C60.7565 75.4127 60.7249 75.381 60.6615 75.381H59.5785C59.5152 75.381 59.4582 75.362 59.4075 75.324C59.3695 75.2733 59.3505 75.2163 59.3505 75.153V73.462C59.3505 73.3987 59.3695 73.348 59.4075 73.31C59.4582 73.2593 59.5152 73.234 59.5785 73.234H60.6615C60.7249 73.234 60.7565 73.2023 60.7565 73.139V70.878C60.7565 70.8147 60.7755 70.764 60.8135 70.726C60.8642 70.6753 60.9212 70.65 60.9845 70.65H63.1125C63.1759 70.65 63.2265 70.6753 63.2645 70.726C63.3152 70.764 63.3405 70.8147 63.3405 70.878V73.139C63.3405 73.2023 63.3722 73.234 63.4355 73.234H65.2595C65.3229 73.234 65.3735 73.2593 65.4115 73.31C65.4622 73.348 65.4875 73.3987 65.4875 73.462V75.153ZM68.5443 72.132C68.1136 72.132 67.7526 71.9927 67.4613 71.714C67.1826 71.4227 67.0433 71.0617 67.0433 70.631C67.0433 70.1877 67.1826 69.8267 67.4613 69.548C67.74 69.2693 68.101 69.13 68.5443 69.13C68.9876 69.13 69.3486 69.2693 69.6273 69.548C69.906 69.8267 70.0453 70.1877 70.0453 70.631C70.0453 71.0617 69.8996 71.4227 69.6083 71.714C69.3296 71.9927 68.975 72.132 68.5443 72.132ZM67.4043 83C67.341 83 67.284 82.981 67.2333 82.943C67.1953 82.8923 67.1763 82.8353 67.1763 82.772V73.443C67.1763 73.3797 67.1953 73.329 67.2333 73.291C67.284 73.2403 67.341 73.215 67.4043 73.215H69.6273C69.6906 73.215 69.7413 73.2403 69.7793 73.291C69.83 73.329 69.8553 73.3797 69.8553 73.443V82.772C69.8553 82.8353 69.83 82.8923 69.7793 82.943C69.7413 82.981 69.6906 83 69.6273 83H67.4043ZM76.2561 83.152C75.1921 83.152 74.2801 82.8733 73.5201 82.316C72.7601 81.7587 72.2407 80.9987 71.9621 80.036C71.7847 79.4407 71.6961 78.7947 71.6961 78.098C71.6961 77.3507 71.7847 76.6793 71.9621 76.084C72.2534 75.1467 72.7791 74.412 73.5391 73.88C74.2991 73.348 75.2111 73.082 76.2751 73.082C77.3137 73.082 78.2004 73.348 78.9351 73.88C79.6697 74.3993 80.1891 75.1277 80.4931 76.065C80.6957 76.6983 80.7971 77.3633 80.7971 78.06C80.7971 78.744 80.7084 79.3837 80.5311 79.979C80.2524 80.967 79.7331 81.746 78.9731 82.316C78.2257 82.8733 77.3201 83.152 76.2561 83.152ZM76.2561 80.853C76.6741 80.853 77.0287 80.7263 77.3201 80.473C77.6114 80.2197 77.8204 79.8713 77.9471 79.428C78.0484 79.0227 78.0991 78.5793 78.0991 78.098C78.0991 77.566 78.0484 77.1163 77.9471 76.749C77.8077 76.3183 77.5924 75.9827 77.3011 75.742C77.0097 75.5013 76.6551 75.381 76.2371 75.381C75.8064 75.381 75.4454 75.5013 75.1541 75.742C74.8754 75.9827 74.6727 76.3183 74.5461 76.749C74.4447 77.053 74.3941 77.5027 74.3941 78.098C74.3941 78.668 74.4384 79.1113 74.5271 79.428C74.6537 79.8713 74.8627 80.2197 75.1541 80.473C75.4581 80.7263 75.8254 80.853 76.2561 80.853ZM87.6113 73.082C88.6246 73.082 89.4416 73.3923 90.0623 74.013C90.6829 74.6337 90.9933 75.476 90.9933 76.54V82.772C90.9933 82.8353 90.9679 82.8923 90.9173 82.943C90.8793 82.981 90.8286 83 90.7653 83H88.5423C88.4789 83 88.4219 82.981 88.3713 82.943C88.3333 82.8923 88.3143 82.8353 88.3143 82.772V77.091C88.3143 76.5843 88.1686 76.1727 87.8773 75.856C87.5986 75.5393 87.2249 75.381 86.7563 75.381C86.2876 75.381 85.9076 75.5393 85.6163 75.856C85.3376 76.1727 85.1983 76.5843 85.1983 77.091V82.772C85.1983 82.8353 85.1729 82.8923 85.1223 82.943C85.0843 82.981 85.0336 83 84.9703 83H82.7473C82.6839 83 82.6269 82.981 82.5763 82.943C82.5383 82.8923 82.5193 82.8353 82.5193 82.772V73.462C82.5193 73.3987 82.5383 73.348 82.5763 73.31C82.6269 73.2593 82.6839 73.234 82.7473 73.234H84.9703C85.0336 73.234 85.0843 73.2593 85.1223 73.31C85.1729 73.348 85.1983 73.3987 85.1983 73.462V74.127C85.1983 74.165 85.2109 74.1903 85.2363 74.203C85.2616 74.2157 85.2806 74.2093 85.2933 74.184C85.8126 73.4493 86.5853 73.082 87.6113 73.082ZM96.8049 83.133C95.9562 83.133 95.2152 83.0127 94.5819 82.772C93.9485 82.5313 93.4545 82.1957 93.0999 81.765C92.7579 81.3343 92.5869 80.8467 92.5869 80.302V80.112C92.5869 80.0487 92.6059 79.998 92.6439 79.96C92.6945 79.9093 92.7515 79.884 92.8149 79.884H94.9239C94.9872 79.884 95.0379 79.9093 95.0759 79.96C95.1265 79.998 95.1519 80.0487 95.1519 80.112V80.131C95.1519 80.4097 95.3039 80.6503 95.6079 80.853C95.9245 81.043 96.3172 81.138 96.7859 81.138C97.2165 81.138 97.5649 81.0557 97.8309 80.891C98.0969 80.7137 98.2299 80.4983 98.2299 80.245C98.2299 80.017 98.1159 79.846 97.8879 79.732C97.6599 79.618 97.2862 79.4977 96.7669 79.371C96.1715 79.219 95.7029 79.0733 95.3609 78.934C94.5502 78.6553 93.9042 78.3133 93.4229 77.908C92.9415 77.5027 92.7009 76.92 92.7009 76.16C92.7009 75.2227 93.0619 74.4817 93.7839 73.937C94.5185 73.3797 95.4875 73.101 96.6909 73.101C97.5015 73.101 98.2109 73.234 98.8189 73.5C99.4269 73.7533 99.8955 74.1143 100.225 74.583C100.567 75.0517 100.738 75.5837 100.738 76.179C100.738 76.2423 100.713 76.2993 100.662 76.35C100.624 76.388 100.573 76.407 100.51 76.407H98.4769C98.4135 76.407 98.3565 76.388 98.3059 76.35C98.2679 76.2993 98.2489 76.2423 98.2489 76.179C98.2489 75.9003 98.1032 75.666 97.8119 75.476C97.5332 75.286 97.1595 75.191 96.6909 75.191C96.2729 75.191 95.9309 75.267 95.6649 75.419C95.3989 75.571 95.2659 75.78 95.2659 76.046C95.2659 76.2993 95.3925 76.4893 95.6459 76.616C95.9119 76.7427 96.3489 76.8757 96.9569 77.015C97.0962 77.053 97.2545 77.0973 97.4319 77.148C97.6092 77.186 97.7992 77.2367 98.0019 77.3C98.9012 77.566 99.6105 77.908 100.13 78.326C100.649 78.744 100.909 79.352 100.909 80.15C100.909 81.0873 100.535 81.822 99.7879 82.354C99.0532 82.8733 98.0589 83.133 96.8049 83.133ZM107.539 73.082C108.552 73.082 109.369 73.3923 109.99 74.013C110.611 74.6337 110.921 75.476 110.921 76.54V82.772C110.921 82.8353 110.896 82.8923 110.845 82.943C110.807 82.981 110.756 83 110.693 83H108.47C108.407 83 108.35 82.981 108.299 82.943C108.261 82.8923 108.242 82.8353 108.242 82.772V77.091C108.242 76.5843 108.096 76.1727 107.805 75.856C107.526 75.5393 107.153 75.381 106.684 75.381C106.215 75.381 105.835 75.5393 105.544 75.856C105.265 76.1727 105.126 76.5843 105.126 77.091V82.772C105.126 82.8353 105.101 82.8923 105.05 82.943C105.012 82.981 104.961 83 104.898 83H102.675C102.612 83 102.555 82.981 102.504 82.943C102.466 82.8923 102.447 82.8353 102.447 82.772V69.928C102.447 69.8647 102.466 69.814 102.504 69.776C102.555 69.7253 102.612 69.7 102.675 69.7H104.898C104.961 69.7 105.012 69.7253 105.05 69.776C105.101 69.814 105.126 69.8647 105.126 69.928V74.127C105.126 74.165 105.139 74.1903 105.164 74.203C105.189 74.2157 105.208 74.2093 105.221 74.184C105.74 73.4493 106.513 73.082 107.539 73.082ZM114.282 72.132C113.851 72.132 113.49 71.9927 113.199 71.714C112.92 71.4227 112.781 71.0617 112.781 70.631C112.781 70.1877 112.92 69.8267 113.199 69.548C113.477 69.2693 113.838 69.13 114.282 69.13C114.725 69.13 115.086 69.2693 115.365 69.548C115.643 69.8267 115.783 70.1877 115.783 70.631C115.783 71.0617 115.637 71.4227 115.346 71.714C115.067 71.9927 114.712 72.132 114.282 72.132ZM113.142 83C113.078 83 113.021 82.981 112.971 82.943C112.933 82.8923 112.914 82.8353 112.914 82.772V73.443C112.914 73.3797 112.933 73.329 112.971 73.291C113.021 73.2403 113.078 73.215 113.142 73.215H115.365C115.428 73.215 115.479 73.2403 115.517 73.291C115.567 73.329 115.593 73.3797 115.593 73.443V82.772C115.593 82.8353 115.567 82.8923 115.517 82.943C115.479 82.981 115.428 83 115.365 83H113.142ZM126.401 75.856C126.629 76.502 126.743 77.262 126.743 78.136C126.743 79.01 126.623 79.8017 126.382 80.511C126.091 81.3217 125.629 81.9677 124.995 82.449C124.375 82.9177 123.602 83.152 122.677 83.152C121.765 83.152 121.056 82.8353 120.549 82.202C120.524 82.164 120.499 82.1513 120.473 82.164C120.448 82.1767 120.435 82.202 120.435 82.24V86.306C120.435 86.3693 120.41 86.42 120.359 86.458C120.321 86.5087 120.271 86.534 120.207 86.534H117.984C117.921 86.534 117.864 86.5087 117.813 86.458C117.775 86.42 117.756 86.3693 117.756 86.306V73.462C117.756 73.3987 117.775 73.348 117.813 73.31C117.864 73.2593 117.921 73.234 117.984 73.234H120.207C120.271 73.234 120.321 73.2593 120.359 73.31C120.41 73.348 120.435 73.3987 120.435 73.462V74.089C120.435 74.127 120.448 74.1523 120.473 74.165C120.499 74.165 120.524 74.1523 120.549 74.127C121.081 73.4303 121.816 73.082 122.753 73.082C123.627 73.082 124.381 73.329 125.014 73.823C125.66 74.3043 126.123 74.982 126.401 75.856ZM123.494 80.112C123.811 79.618 123.969 78.9467 123.969 78.098C123.969 77.3 123.836 76.6667 123.57 76.198C123.279 75.6533 122.81 75.381 122.164 75.381C121.582 75.381 121.145 75.6533 120.853 76.198C120.587 76.654 120.454 77.2937 120.454 78.117C120.454 78.9657 120.594 79.6243 120.872 80.093C121.164 80.5997 121.594 80.853 122.164 80.853C122.734 80.853 123.178 80.606 123.494 80.112Z" fill="#252530"/>
<path d="M61.0014 143.968C60.9801 143.989 60.9748 144.011 60.9854 144.032C60.9961 144.053 61.0174 144.064 61.0494 144.064H65.3854C65.4388 144.064 65.4814 144.085 65.5134 144.128C65.5561 144.16 65.5774 144.203 65.5774 144.256V145.808C65.5774 145.861 65.5561 145.909 65.5134 145.952C65.4814 145.984 65.4388 146 65.3854 146H58.1854C58.1321 146 58.0841 145.984 58.0414 145.952C58.0094 145.909 57.9934 145.861 57.9934 145.808V144.336C57.9934 144.24 58.0254 144.16 58.0894 144.096C58.6121 143.584 59.1454 143.029 59.6894 142.432C60.2334 141.824 60.5748 141.445 60.7134 141.296C61.0121 140.944 61.3161 140.608 61.6254 140.288C62.5961 139.211 63.0814 138.411 63.0814 137.888C63.0814 137.515 62.9481 137.211 62.6814 136.976C62.4148 136.731 62.0681 136.608 61.6414 136.608C61.2148 136.608 60.8681 136.731 60.6014 136.976C60.3348 137.211 60.2014 137.525 60.2014 137.92V138.32C60.2014 138.373 60.1801 138.421 60.1374 138.464C60.1054 138.496 60.0628 138.512 60.0094 138.512H58.1214C58.0681 138.512 58.0201 138.496 57.9774 138.464C57.9454 138.421 57.9294 138.373 57.9294 138.32V137.568C57.9614 136.992 58.1428 136.485 58.4734 136.048C58.8041 135.6 59.2414 135.259 59.7854 135.024C60.3401 134.789 60.9588 134.672 61.6414 134.672C62.3988 134.672 63.0548 134.816 63.6094 135.104C64.1748 135.381 64.6068 135.76 64.9054 136.24C65.2148 136.72 65.3694 137.253 65.3694 137.84C65.3694 138.288 65.2574 138.747 65.0334 139.216C64.8094 139.685 64.4734 140.192 64.0254 140.736C63.6948 141.152 63.3374 141.563 62.9534 141.968C62.5694 142.373 61.9988 142.96 61.2414 143.728L61.0014 143.968ZM70.7706 146.176C69.5972 146.176 68.6692 145.851 67.9866 145.2C67.3039 144.539 66.9626 143.643 66.9626 142.512V138.288C66.9626 137.179 67.3039 136.299 67.9866 135.648C68.6692 134.997 69.5972 134.672 70.7706 134.672C71.9439 134.672 72.8719 134.997 73.5546 135.648C74.2479 136.299 74.5946 137.179 74.5946 138.288V142.512C74.5946 143.643 74.2479 144.539 73.5546 145.2C72.8719 145.851 71.9439 146.176 70.7706 146.176ZM70.7706 144.24C71.2506 144.24 71.6292 144.096 71.9066 143.808C72.1946 143.509 72.3386 143.115 72.3386 142.624V138.224C72.3386 137.733 72.1946 137.344 71.9066 137.056C71.6292 136.757 71.2506 136.608 70.7706 136.608C70.3012 136.608 69.9226 136.757 69.6346 137.056C69.3572 137.344 69.2186 137.733 69.2186 138.224V142.624C69.2186 143.115 69.3572 143.509 69.6346 143.808C69.9226 144.096 70.3012 144.24 70.7706 144.24ZM79.0796 143.968C79.0582 143.989 79.0529 144.011 79.0636 144.032C79.0742 144.053 79.0956 144.064 79.1276 144.064H83.4636C83.5169 144.064 83.5596 144.085 83.5916 144.128C83.6342 144.16 83.6556 144.203 83.6556 144.256V145.808C83.6556 145.861 83.6342 145.909 83.5916 145.952C83.5596 145.984 83.5169 146 83.4636 146H76.2636C76.2102 146 76.1622 145.984 76.1196 145.952C76.0876 145.909 76.0716 145.861 76.0716 145.808V144.336C76.0716 144.24 76.1036 144.16 76.1676 144.096C76.6902 143.584 77.2236 143.029 77.7676 142.432C78.3116 141.824 78.6529 141.445 78.7916 141.296C79.0902 140.944 79.3942 140.608 79.7036 140.288C80.6742 139.211 81.1596 138.411 81.1596 137.888C81.1596 137.515 81.0262 137.211 80.7596 136.976C80.4929 136.731 80.1462 136.608 79.7196 136.608C79.2929 136.608 78.9462 136.731 78.6796 136.976C78.4129 137.211 78.2796 137.525 78.2796 137.92V138.32C78.2796 138.373 78.2582 138.421 78.2156 138.464C78.1836 138.496 78.1409 138.512 78.0876 138.512H76.1996C76.1462 138.512 76.0982 138.496 76.0556 138.464C76.0236 138.421 76.0076 138.373 76.0076 138.32V137.568C76.0396 136.992 76.2209 136.485 76.5516 136.048C76.8822 135.6 77.3196 135.259 77.8636 135.024C78.4182 134.789 79.0369 134.672 79.7196 134.672C80.4769 134.672 81.1329 134.816 81.6876 135.104C82.2529 135.381 82.6849 135.76 82.9836 136.24C83.2929 136.72 83.4476 137.253 83.4476 137.84C83.4476 138.288 83.3356 138.747 83.1116 139.216C82.8876 139.685 82.5516 140.192 82.1036 140.736C81.7729 141.152 81.4156 141.563 81.0316 141.968C80.6476 142.373 80.0769 142.96 79.3196 143.728L79.0796 143.968ZM91.7179 140.656C91.9313 141.147 92.0379 141.712 92.0379 142.352C92.0379 142.928 91.9419 143.461 91.7499 143.952C91.4939 144.635 91.0619 145.168 90.4539 145.552C89.8566 145.936 89.1473 146.128 88.3259 146.128C87.5153 146.128 86.8006 145.925 86.1819 145.52C85.5739 145.115 85.1366 144.565 84.8699 143.872C84.7206 143.456 84.6353 143.008 84.6139 142.528C84.6139 142.4 84.6779 142.336 84.8059 142.336H86.6939C86.8219 142.336 86.8859 142.4 86.8859 142.528C86.9286 142.88 86.9873 143.141 87.0619 143.312C87.1579 143.589 87.3126 143.808 87.5259 143.968C87.7499 144.117 88.0113 144.192 88.3099 144.192C88.9073 144.192 89.3179 143.931 89.5419 143.408C89.6913 143.088 89.7659 142.715 89.7659 142.288C89.7659 141.787 89.6859 141.376 89.5259 141.056C89.2806 140.555 88.8699 140.304 88.2939 140.304C88.1766 140.304 88.0539 140.341 87.9259 140.416C87.7979 140.48 87.6433 140.576 87.4619 140.704C87.4193 140.736 87.3766 140.752 87.3339 140.752C87.2699 140.752 87.2219 140.72 87.1899 140.656L86.2459 139.328C86.2246 139.296 86.2139 139.259 86.2139 139.216C86.2139 139.152 86.2353 139.099 86.2779 139.056L88.8219 136.832C88.8433 136.811 88.8486 136.789 88.8379 136.768C88.8379 136.747 88.8219 136.736 88.7899 136.736H85.0299C84.9766 136.736 84.9286 136.72 84.8859 136.688C84.8539 136.645 84.8379 136.597 84.8379 136.544V134.992C84.8379 134.939 84.8539 134.896 84.8859 134.864C84.9286 134.821 84.9766 134.8 85.0299 134.8H91.7019C91.7553 134.8 91.7979 134.821 91.8299 134.864C91.8726 134.896 91.8939 134.939 91.8939 134.992V136.752C91.8939 136.837 91.8566 136.917 91.7819 136.992L89.6859 138.912C89.6646 138.933 89.6539 138.955 89.6539 138.976C89.6646 138.997 89.6913 139.008 89.7339 139.008C90.6619 139.189 91.3233 139.739 91.7179 140.656Z" fill="#252530"/>
<path d="M27.1981 106.128C26.3661 106.128 25.6407 105.995 25.0221 105.728C24.4034 105.461 23.9234 105.088 23.5821 104.608C23.2514 104.128 23.0861 103.563 23.0861 102.912V102.512C23.0861 102.459 23.1021 102.416 23.1341 102.384C23.1767 102.341 23.2247 102.32 23.2781 102.32H24.7021C24.7554 102.32 24.7981 102.341 24.8301 102.384C24.8727 102.416 24.8941 102.459 24.8941 102.512V102.816C24.8941 103.307 25.1127 103.717 25.5501 104.048C25.9874 104.368 26.5847 104.528 27.3421 104.528C27.9927 104.528 28.4834 104.389 28.8141 104.112C29.1447 103.835 29.3101 103.477 29.3101 103.04C29.3101 102.741 29.2194 102.491 29.0381 102.288C28.8567 102.075 28.5954 101.883 28.2541 101.712C27.9234 101.541 27.4221 101.328 26.7501 101.072C25.9927 100.795 25.3794 100.533 24.9101 100.288C24.4407 100.043 24.0461 99.712 23.7261 99.296C23.4167 98.8693 23.2621 98.3413 23.2621 97.712C23.2621 96.7733 23.6034 96.032 24.2861 95.488C24.9687 94.944 25.8807 94.672 27.0221 94.672C27.8221 94.672 28.5261 94.8107 29.1341 95.088C29.7527 95.3653 30.2327 95.7547 30.5741 96.256C30.9154 96.7467 31.0861 97.3173 31.0861 97.968V98.24C31.0861 98.2933 31.0647 98.3413 31.0221 98.384C30.9901 98.416 30.9474 98.432 30.8941 98.432H29.4541C29.4007 98.432 29.3527 98.416 29.3101 98.384C29.2781 98.3413 29.2621 98.2933 29.2621 98.24V98.064C29.2621 97.5627 29.0541 97.1413 28.6381 96.8C28.2327 96.448 27.6674 96.272 26.9421 96.272C26.3554 96.272 25.8967 96.3947 25.5661 96.64C25.2461 96.8853 25.0861 97.232 25.0861 97.68C25.0861 98 25.1714 98.2613 25.3421 98.464C25.5127 98.6667 25.7687 98.8533 26.1101 99.024C26.4514 99.184 26.9794 99.392 27.6941 99.648C28.4514 99.936 29.0541 100.197 29.5021 100.432C29.9607 100.667 30.3501 100.997 30.6701 101.424C31.0007 101.84 31.1661 102.363 31.1661 102.992C31.1661 103.952 30.8087 104.715 30.0941 105.28C29.3901 105.845 28.4247 106.128 27.1981 106.128ZM41.6112 97.696C42.4325 97.696 43.0725 97.9467 43.5312 98.448C44.0005 98.9387 44.2352 99.6267 44.2352 100.512V105.808C44.2352 105.861 44.2139 105.909 44.1712 105.952C44.1392 105.984 44.0965 106 44.0432 106H42.5872C42.5339 106 42.4859 105.984 42.4432 105.952C42.4112 105.909 42.3952 105.861 42.3952 105.808V100.896C42.3952 100.405 42.2619 100.016 41.9952 99.728C41.7392 99.44 41.3925 99.296 40.9552 99.296C40.5179 99.296 40.1605 99.44 39.8832 99.728C39.6059 100.016 39.4672 100.4 39.4672 100.88V105.808C39.4672 105.861 39.4459 105.909 39.4032 105.952C39.3712 105.984 39.3285 106 39.2752 106H37.8192C37.7659 106 37.7179 105.984 37.6752 105.952C37.6432 105.909 37.6272 105.861 37.6272 105.808V100.896C37.6272 100.405 37.4939 100.016 37.2272 99.728C36.9605 99.44 36.6085 99.296 36.1712 99.296C35.7659 99.296 35.4299 99.4133 35.1632 99.648C34.9072 99.8827 34.7579 100.203 34.7152 100.608V105.808C34.7152 105.861 34.6939 105.909 34.6512 105.952C34.6192 105.984 34.5765 106 34.5232 106H33.0512C32.9979 106 32.9499 105.984 32.9072 105.952C32.8752 105.909 32.8592 105.861 32.8592 105.808V98.016C32.8592 97.9627 32.8752 97.92 32.9072 97.888C32.9499 97.8453 32.9979 97.824 33.0512 97.824H34.5232C34.5765 97.824 34.6192 97.8453 34.6512 97.888C34.6939 97.92 34.7152 97.9627 34.7152 98.016V98.544C34.7152 98.576 34.7259 98.5973 34.7472 98.608C34.7685 98.6187 34.7899 98.608 34.8112 98.576C35.0459 98.2773 35.3339 98.0587 35.6752 97.92C36.0272 97.7707 36.4165 97.696 36.8432 97.696C37.3659 97.696 37.8245 97.8027 38.2192 98.016C38.6139 98.2293 38.9179 98.5387 39.1312 98.944C39.1632 98.9867 39.2005 98.9867 39.2432 98.944C39.4779 98.5173 39.8032 98.2027 40.2192 98C40.6352 97.7973 41.0992 97.696 41.6112 97.696ZM49.2448 97.696C49.9168 97.696 50.5088 97.8133 51.0208 98.048C51.5328 98.2827 51.9275 98.608 52.2048 99.024C52.4821 99.4293 52.6208 99.8933 52.6208 100.416V105.808C52.6208 105.861 52.5995 105.909 52.5568 105.952C52.5248 105.984 52.4821 106 52.4288 106H50.9568C50.9035 106 50.8555 105.984 50.8128 105.952C50.7808 105.909 50.7648 105.861 50.7648 105.808V105.296C50.7648 105.264 50.7541 105.248 50.7328 105.248C50.7115 105.237 50.6901 105.243 50.6688 105.264C50.1461 105.84 49.3888 106.128 48.3968 106.128C47.5968 106.128 46.9355 105.925 46.4128 105.52C45.9008 105.115 45.6448 104.512 45.6448 103.712C45.6448 102.88 45.9328 102.235 46.5088 101.776C47.0955 101.307 47.9168 101.072 48.9728 101.072H50.6848C50.7381 101.072 50.7648 101.045 50.7648 100.992V100.608C50.7648 100.192 50.6421 99.872 50.3968 99.648C50.1515 99.4133 49.7835 99.296 49.2928 99.296C48.8875 99.296 48.5568 99.3707 48.3008 99.52C48.0555 99.6587 47.9008 99.856 47.8368 100.112C47.8048 100.24 47.7301 100.293 47.6128 100.272L46.0608 100.08C46.0075 100.069 45.9595 100.053 45.9168 100.032C45.8848 100 45.8741 99.9627 45.8848 99.92C45.9701 99.2693 46.3168 98.736 46.9248 98.32C47.5435 97.904 48.3168 97.696 49.2448 97.696ZM48.8608 104.656C49.3835 104.656 49.8315 104.517 50.2048 104.24C50.5781 103.963 50.7648 103.611 50.7648 103.184V102.432C50.7648 102.379 50.7381 102.352 50.6848 102.352H49.3408C48.7755 102.352 48.3275 102.459 47.9968 102.672C47.6768 102.885 47.5168 103.189 47.5168 103.584C47.5168 103.925 47.6395 104.192 47.8848 104.384C48.1408 104.565 48.4661 104.656 48.8608 104.656ZM54.6762 106C54.6229 106 54.5749 105.984 54.5322 105.952C54.5002 105.909 54.4842 105.861 54.4842 105.808V94.992C54.4842 94.9387 54.5002 94.896 54.5322 94.864C54.5749 94.8213 54.6229 94.8 54.6762 94.8H56.1482C56.2015 94.8 56.2442 94.8213 56.2762 94.864C56.3189 94.896 56.3402 94.9387 56.3402 94.992V105.808C56.3402 105.861 56.3189 105.909 56.2762 105.952C56.2442 105.984 56.2015 106 56.1482 106H54.6762ZM58.5043 106C58.451 106 58.403 105.984 58.3603 105.952C58.3283 105.909 58.3123 105.861 58.3123 105.808V94.992C58.3123 94.9387 58.3283 94.896 58.3603 94.864C58.403 94.8213 58.451 94.8 58.5043 94.8H59.9763C60.0296 94.8 60.0723 94.8213 60.1043 94.864C60.147 94.896 60.1683 94.9387 60.1683 94.992V105.808C60.1683 105.861 60.147 105.909 60.1043 105.952C60.0723 105.984 60.0296 106 59.9763 106H58.5043ZM71.7756 100.16C71.7116 100.192 71.7116 100.224 71.7756 100.256C72.8636 100.768 73.4076 101.648 73.4076 102.896C73.4076 103.909 73.0662 104.683 72.3836 105.216C71.7116 105.739 70.8316 106 69.7436 106H65.7116C65.6582 106 65.6102 105.984 65.5676 105.952C65.5356 105.909 65.5196 105.861 65.5196 105.808V94.992C65.5196 94.9387 65.5356 94.896 65.5676 94.864C65.6102 94.8213 65.6582 94.8 65.7116 94.8H69.6156C70.7782 94.8 71.6742 95.0507 72.3036 95.552C72.9329 96.0533 73.2476 96.8107 73.2476 97.824C73.2476 98.944 72.7569 99.7227 71.7756 100.16ZM67.4556 96.4C67.4022 96.4 67.3756 96.4267 67.3756 96.48V99.44C67.3756 99.4933 67.4022 99.52 67.4556 99.52H69.6156C70.1809 99.52 70.6236 99.3867 70.9436 99.12C71.2742 98.8427 71.4396 98.464 71.4396 97.984C71.4396 97.4933 71.2742 97.1093 70.9436 96.832C70.6236 96.544 70.1809 96.4 69.6156 96.4H67.4556ZM69.7436 104.384C70.2982 104.384 70.7356 104.235 71.0556 103.936C71.3862 103.637 71.5516 103.232 71.5516 102.72C71.5516 102.197 71.3862 101.792 71.0556 101.504C70.7249 101.205 70.2769 101.056 69.7116 101.056H67.4556C67.4022 101.056 67.3756 101.083 67.3756 101.136V104.304C67.3756 104.357 67.4022 104.384 67.4556 104.384H69.7436ZM79.9881 98.016C79.9881 97.9627 80.0041 97.92 80.0361 97.888C80.0787 97.8453 80.1267 97.824 80.1801 97.824H81.6361C81.6894 97.824 81.7321 97.8453 81.7641 97.888C81.8067 97.92 81.8281 97.9627 81.8281 98.016V105.808C81.8281 105.861 81.8067 105.909 81.7641 105.952C81.7321 105.984 81.6894 106 81.6361 106H80.1801C80.1267 106 80.0787 105.984 80.0361 105.952C80.0041 105.909 79.9881 105.861 79.9881 105.808V105.296C79.9881 105.264 79.9774 105.243 79.9561 105.232C79.9347 105.221 79.9134 105.232 79.8921 105.264C79.4547 105.829 78.7987 106.112 77.9241 106.112C77.1134 106.112 76.4307 105.877 75.8761 105.408C75.3321 104.939 75.0601 104.272 75.0601 103.408V98.016C75.0601 97.9627 75.0761 97.92 75.1081 97.888C75.1507 97.8453 75.1987 97.824 75.2521 97.824H76.7241C76.7774 97.824 76.8201 97.8453 76.8521 97.888C76.8947 97.92 76.9161 97.9627 76.9161 98.016V102.88C76.9161 103.381 77.0441 103.781 77.3001 104.08C77.5667 104.379 77.9347 104.528 78.4041 104.528C78.8841 104.528 79.2681 104.379 79.5561 104.08C79.8441 103.781 79.9881 103.381 79.9881 102.88V98.016ZM86.8523 106.096C86.1803 106.096 85.5883 106 85.0763 105.808C84.575 105.605 84.1856 105.333 83.9083 104.992C83.631 104.64 83.4923 104.251 83.4923 103.824V103.68C83.4923 103.627 83.5083 103.584 83.5403 103.552C83.583 103.509 83.631 103.488 83.6843 103.488H85.0923C85.1456 103.488 85.1883 103.509 85.2203 103.552C85.263 103.584 85.2843 103.627 85.2843 103.68V103.712C85.2843 103.979 85.4283 104.213 85.7163 104.416C86.015 104.608 86.3883 104.704 86.8363 104.704C87.263 104.704 87.6096 104.619 87.8763 104.448C88.143 104.267 88.2763 104.043 88.2763 103.776C88.2763 103.531 88.1643 103.349 87.9403 103.232C87.727 103.104 87.375 102.971 86.8843 102.832L86.2763 102.64C85.7323 102.48 85.2736 102.309 84.9003 102.128C84.527 101.947 84.2123 101.701 83.9563 101.392C83.7003 101.072 83.5723 100.667 83.5723 100.176C83.5723 99.4293 83.8656 98.8373 84.4523 98.4C85.039 97.952 85.8123 97.728 86.7723 97.728C87.423 97.728 87.9936 97.8347 88.4843 98.048C88.975 98.2507 89.3536 98.5387 89.6203 98.912C89.887 99.2747 90.0203 99.6907 90.0203 100.16C90.0203 100.213 89.999 100.261 89.9563 100.304C89.9243 100.336 89.8816 100.352 89.8283 100.352H88.4683C88.415 100.352 88.367 100.336 88.3243 100.304C88.2923 100.261 88.2763 100.213 88.2763 100.16C88.2763 99.8827 88.1376 99.6533 87.8603 99.472C87.5936 99.28 87.2256 99.184 86.7563 99.184C86.3403 99.184 85.999 99.264 85.7323 99.424C85.4763 99.5733 85.3483 99.7867 85.3483 100.064C85.3483 100.32 85.471 100.517 85.7163 100.656C85.9723 100.784 86.3936 100.928 86.9803 101.088L87.3323 101.184C87.8976 101.355 88.3723 101.531 88.7563 101.712C89.1403 101.883 89.4656 102.128 89.7323 102.448C89.999 102.757 90.1323 103.163 90.1323 103.664C90.1323 104.421 89.8336 105.019 89.2363 105.456C88.639 105.883 87.8443 106.096 86.8523 106.096ZM92.7589 96.704C92.4283 96.704 92.1563 96.5973 91.9429 96.384C91.7296 96.1707 91.6229 95.8987 91.6229 95.568C91.6229 95.2373 91.7296 94.9653 91.9429 94.752C92.1563 94.5387 92.4283 94.432 92.7589 94.432C93.0896 94.432 93.3616 94.5387 93.5749 94.752C93.7883 94.9653 93.8949 95.2373 93.8949 95.568C93.8949 95.8987 93.7883 96.1707 93.5749 96.384C93.3616 96.5973 93.0896 96.704 92.7589 96.704ZM91.9909 106C91.9376 106 91.8896 105.984 91.8469 105.952C91.8149 105.909 91.7989 105.861 91.7989 105.808V98C91.7989 97.9467 91.8149 97.904 91.8469 97.872C91.8896 97.8293 91.9376 97.808 91.9909 97.808H93.4629C93.5163 97.808 93.5589 97.8293 93.5909 97.872C93.6336 97.904 93.6549 97.9467 93.6549 98V105.808C93.6549 105.861 93.6336 105.909 93.5909 105.952C93.5589 105.984 93.5163 106 93.4629 106H91.9909ZM99.7011 97.696C100.565 97.696 101.253 97.952 101.765 98.464C102.288 98.976 102.549 99.6747 102.549 100.56V105.808C102.549 105.861 102.528 105.909 102.485 105.952C102.453 105.984 102.41 106 102.357 106H100.885C100.832 106 100.784 105.984 100.741 105.952C100.709 105.909 100.693 105.861 100.693 105.808V100.944C100.693 100.453 100.554 100.059 100.277 99.76C99.9997 99.4507 99.6317 99.296 99.1731 99.296C98.7144 99.296 98.3411 99.4453 98.0531 99.744C97.7757 100.043 97.6371 100.437 97.6371 100.928V105.808C97.6371 105.861 97.6157 105.909 97.5731 105.952C97.5411 105.984 97.4984 106 97.4451 106H95.9731C95.9197 106 95.8717 105.984 95.8291 105.952C95.7971 105.909 95.7811 105.861 95.7811 105.808V98.016C95.7811 97.9627 95.7971 97.92 95.8291 97.888C95.8717 97.8453 95.9197 97.824 95.9731 97.824H97.4451C97.4984 97.824 97.5411 97.8453 97.5731 97.888C97.6157 97.92 97.6371 97.9627 97.6371 98.016V98.528C97.6371 98.56 97.6477 98.5813 97.6691 98.592C97.6904 98.6027 97.7064 98.592 97.7171 98.56C98.1544 97.984 98.8157 97.696 99.7011 97.696ZM111.318 100.992C111.36 101.259 111.382 101.557 111.382 101.888L111.366 102.384C111.366 102.512 111.302 102.576 111.174 102.576H106.166C106.112 102.576 106.086 102.603 106.086 102.656C106.118 103.008 106.166 103.248 106.23 103.376C106.486 104.144 107.11 104.533 108.102 104.544C108.827 104.544 109.403 104.245 109.83 103.648C109.872 103.584 109.926 103.552 109.99 103.552C110.032 103.552 110.07 103.568 110.102 103.6L111.094 104.416C111.19 104.491 111.206 104.576 111.142 104.672C110.811 105.141 110.368 105.504 109.814 105.76C109.27 106.016 108.662 106.144 107.99 106.144C107.158 106.144 106.448 105.957 105.862 105.584C105.286 105.211 104.864 104.688 104.598 104.016C104.352 103.44 104.23 102.64 104.23 101.616C104.23 100.997 104.294 100.496 104.422 100.112C104.635 99.3653 105.035 98.7787 105.622 98.352C106.219 97.9147 106.934 97.696 107.766 97.696C109.867 97.696 111.051 98.7947 111.318 100.992ZM107.766 99.296C107.371 99.296 107.04 99.3973 106.774 99.6C106.518 99.792 106.336 100.064 106.23 100.416C106.166 100.597 106.123 100.832 106.102 101.12C106.08 101.173 106.102 101.2 106.166 101.2H109.414C109.467 101.2 109.494 101.173 109.494 101.12C109.472 100.853 109.44 100.651 109.398 100.512C109.302 100.128 109.11 99.8293 108.822 99.616C108.544 99.4027 108.192 99.296 107.766 99.296ZM115.993 106.096C115.321 106.096 114.729 106 114.217 105.808C113.716 105.605 113.326 105.333 113.049 104.992C112.772 104.64 112.633 104.251 112.633 103.824V103.68C112.633 103.627 112.649 103.584 112.681 103.552C112.724 103.509 112.772 103.488 112.825 103.488H114.233C114.286 103.488 114.329 103.509 114.361 103.552C114.404 103.584 114.425 103.627 114.425 103.68V103.712C114.425 103.979 114.569 104.213 114.857 104.416C115.156 104.608 115.529 104.704 115.977 104.704C116.404 104.704 116.75 104.619 117.017 104.448C117.284 104.267 117.417 104.043 117.417 103.776C117.417 103.531 117.305 103.349 117.081 103.232C116.868 103.104 116.516 102.971 116.025 102.832L115.417 102.64C114.873 102.48 114.414 102.309 114.041 102.128C113.668 101.947 113.353 101.701 113.097 101.392C112.841 101.072 112.713 100.667 112.713 100.176C112.713 99.4293 113.006 98.8373 113.593 98.4C114.18 97.952 114.953 97.728 115.913 97.728C116.564 97.728 117.134 97.8347 117.625 98.048C118.116 98.2507 118.494 98.5387 118.761 98.912C119.028 99.2747 119.161 99.6907 119.161 100.16C119.161 100.213 119.14 100.261 119.097 100.304C119.065 100.336 119.022 100.352 118.969 100.352H117.609C117.556 100.352 117.508 100.336 117.465 100.304C117.433 100.261 117.417 100.213 117.417 100.16C117.417 99.8827 117.278 99.6533 117.001 99.472C116.734 99.28 116.366 99.184 115.897 99.184C115.481 99.184 115.14 99.264 114.873 99.424C114.617 99.5733 114.489 99.7867 114.489 100.064C114.489 100.32 114.612 100.517 114.857 100.656C115.113 100.784 115.534 100.928 116.121 101.088L116.473 101.184C117.038 101.355 117.513 101.531 117.897 101.712C118.281 101.883 118.606 102.128 118.873 102.448C119.14 102.757 119.273 103.163 119.273 103.664C119.273 104.421 118.974 105.019 118.377 105.456C117.78 105.883 116.985 106.096 115.993 106.096ZM123.727 106.096C123.055 106.096 122.463 106 121.951 105.808C121.45 105.605 121.061 105.333 120.783 104.992C120.506 104.64 120.367 104.251 120.367 103.824V103.68C120.367 103.627 120.383 103.584 120.415 103.552C120.458 103.509 120.506 103.488 120.559 103.488H121.967C122.021 103.488 122.063 103.509 122.095 103.552C122.138 103.584 122.159 103.627 122.159 103.68V103.712C122.159 103.979 122.303 104.213 122.591 104.416C122.89 104.608 123.263 104.704 123.711 104.704C124.138 104.704 124.485 104.619 124.751 104.448C125.018 104.267 125.151 104.043 125.151 103.776C125.151 103.531 125.039 103.349 124.815 103.232C124.602 103.104 124.25 102.971 123.759 102.832L123.151 102.64C122.607 102.48 122.149 102.309 121.775 102.128C121.402 101.947 121.087 101.701 120.831 101.392C120.575 101.072 120.447 100.667 120.447 100.176C120.447 99.4293 120.741 98.8373 121.327 98.4C121.914 97.952 122.687 97.728 123.647 97.728C124.298 97.728 124.869 97.8347 125.359 98.048C125.85 98.2507 126.229 98.5387 126.495 98.912C126.762 99.2747 126.895 99.6907 126.895 100.16C126.895 100.213 126.874 100.261 126.831 100.304C126.799 100.336 126.757 100.352 126.703 100.352H125.343C125.29 100.352 125.242 100.336 125.199 100.304C125.167 100.261 125.151 100.213 125.151 100.16C125.151 99.8827 125.013 99.6533 124.735 99.472C124.469 99.28 124.101 99.184 123.631 99.184C123.215 99.184 122.874 99.264 122.607 99.424C122.351 99.5733 122.223 99.7867 122.223 100.064C122.223 100.32 122.346 100.517 122.591 100.656C122.847 100.784 123.269 100.928 123.855 101.088L124.207 101.184C124.773 101.355 125.247 101.531 125.631 101.712C126.015 101.883 126.341 102.128 126.607 102.448C126.874 102.757 127.007 103.163 127.007 103.664C127.007 104.421 126.709 105.019 126.111 105.456C125.514 105.883 124.719 106.096 123.727 106.096Z" fill="#252530"/>
</g>
<defs>
<clipPath id="clip0_14_219">
<rect width="150" height="168" fill="white"/>
</clipPath>
</defs>
</svg>
