<svg width="150" height="168" viewBox="0 0 150 168" fill="none" xmlns="http://www.w3.org/2000/svg">
<g clip-path="url(#clip0_16_150)">
<path d="M10 133.2V21.46C22.59 20.73 32 10.87 32.93 1.5H117.08C118 10.87 127.42 20.72 140.01 21.46V133.21L74.96 166.32L10 133.2Z" fill="white"/>
<path d="M115.77 3C117.43 12.22 126.46 21.49 138.5 22.83V132.28L74.95 164.63L11.5 132.28V22.83C23.54 21.49 32.57 12.22 34.23 3H115.78M118.51 0H31.5C31.5 11.05 19.55 20 8.5 20V134.12L74.95 168L141.5 134.12V20C130.45 20 118.5 11.05 118.5 0H118.51Z" fill="#DCDEDC"/>
<path d="M138.5 22.8301C132.96 21.9801 130.26 20.8501 125.79 17.9301L11.52 132.29L74.81 164.55L138.49 132.41V22.8301H138.5Z" fill="#F7F8F7"/>
<path d="M144.98 90H5.16966L0 101L5.16966 112H144.99L150 101L144.98 90Z" fill="#9132A2"/>
<path d="M75.08 6.3C75.73 6.3 76.37 6.3 77.02 6.46L75.08 10.17C72.17 10.01 69.59 12.27 69.43 15.18C69.27 18.09 71.53 20.67 74.44 20.83H75.09C76.38 20.83 77.67 20.35 78.64 19.54L80.74 23.09C79.13 24.22 77.19 24.87 75.09 24.87C69.92 25.03 65.56 21.16 65.4 15.99C65.24 10.82 69.11 6.46 74.28 6.3H75.09H75.08ZM81.7 14.21L84.12 18.25L81.7 22.13L79.44 18.25H74.76L77.18 14.21H81.7ZM77.82 12.76C77.82 12.11 77.98 11.47 78.3 10.98C78.62 10.49 79.27 10.01 79.75 9.69L80.07 9.53C80.72 9.21 80.88 9.05 80.88 8.72C80.88 8.39 80.4 8.07 80.07 8.07C79.42 8.07 78.94 8.39 78.62 9.04L77.81 8.23C77.97 7.91 78.29 7.58 78.62 7.26C79.1 6.94 79.59 6.94 80.07 6.94C80.55 6.94 81.2 7.1 81.52 7.42C81.84 7.74 82.17 8.23 82.17 8.71C82.17 9.52 81.69 10.16 80.72 10.49L80.24 10.81C79.76 11.13 79.43 11.29 79.27 11.78H82.18V12.91L77.82 12.75V12.76ZM75.08 32.94L90.42 24.22V0H59.58V24.06L75.08 32.94Z" fill="#9132A2"/>
<path d="M32.6299 83C32.5366 83 32.4526 82.972 32.3779 82.916C32.3219 82.8413 32.2939 82.7573 32.2939 82.664V63.736C32.2939 63.6427 32.3219 63.568 32.3779 63.512C32.4526 63.4373 32.5366 63.4 32.6299 63.4H35.9059C35.9993 63.4 36.0739 63.4373 36.1299 63.512C36.2046 63.568 36.2419 63.6427 36.2419 63.736V79.472C36.2419 79.5653 36.2886 79.612 36.3819 79.612H45.5379C45.6313 79.612 45.7059 79.6493 45.7619 79.724C45.8366 79.78 45.8739 79.8547 45.8739 79.948V82.664C45.8739 82.7573 45.8366 82.8413 45.7619 82.916C45.7059 82.972 45.6313 83 45.5379 83H32.6299ZM61.0054 74.32C61.1174 75.0293 61.1547 75.8227 61.1174 76.7C61.0987 76.924 60.9774 77.036 60.7534 77.036H52.1014C51.9894 77.036 51.952 77.0827 51.9894 77.176C52.0454 77.5493 52.148 77.9227 52.2974 78.296C52.7827 79.3413 53.772 79.864 55.2654 79.864C56.46 79.8453 57.4027 79.36 58.0934 78.408C58.168 78.296 58.252 78.24 58.3454 78.24C58.4014 78.24 58.4667 78.2773 58.5414 78.352L60.5574 80.34C60.6507 80.4333 60.6974 80.5173 60.6974 80.592C60.6974 80.6293 60.66 80.704 60.5854 80.816C59.9694 81.5813 59.176 82.1787 58.2054 82.608C57.2347 83.0187 56.1707 83.224 55.0134 83.224C53.408 83.224 52.0454 82.86 50.9254 82.132C49.824 81.404 49.0307 80.3867 48.5454 79.08C48.1534 78.1467 47.9574 76.924 47.9574 75.412C47.9574 74.3853 48.0974 73.48 48.3774 72.696C48.8067 71.3707 49.5534 70.316 50.6174 69.532C51.7 68.748 52.9787 68.356 54.4534 68.356C56.32 68.356 57.8134 68.8973 58.9334 69.98C60.072 71.0627 60.7627 72.5093 61.0054 74.32ZM54.4814 71.772C53.3054 71.772 52.5307 72.3227 52.1574 73.424C52.0827 73.6667 52.0174 73.9653 51.9614 74.32C51.9614 74.4133 52.008 74.46 52.1014 74.46H56.9454C57.0574 74.46 57.0947 74.4133 57.0574 74.32C56.964 73.7787 56.9174 73.5173 56.9174 73.536C56.7494 72.976 56.4507 72.5467 56.0214 72.248C55.6107 71.9307 55.0974 71.772 54.4814 71.772ZM69.3538 68.384C70.5671 68.384 71.6498 68.5987 72.6018 69.028C73.5538 69.4387 74.2911 70.008 74.8138 70.736C75.3551 71.464 75.6258 72.276 75.6258 73.172V82.664C75.6258 82.7573 75.5885 82.8413 75.5138 82.916C75.4578 82.972 75.3831 83 75.2898 83H72.0138C71.9205 83 71.8365 82.972 71.7618 82.916C71.7058 82.8413 71.6778 82.7573 71.6778 82.664V81.74C71.6778 81.684 71.6591 81.6467 71.6218 81.628C71.5845 81.6093 71.5471 81.628 71.5098 81.684C70.7258 82.7107 69.4658 83.224 67.7298 83.224C66.2738 83.224 65.0978 82.8693 64.2018 82.16C63.3058 81.4507 62.8578 80.4053 62.8578 79.024C62.8578 77.5867 63.3618 76.476 64.3698 75.692C65.3778 74.8893 66.8151 74.488 68.6818 74.488H71.5378C71.6311 74.488 71.6778 74.4413 71.6778 74.348V73.732C71.6778 73.116 71.4911 72.64 71.1178 72.304C70.7445 71.9493 70.1845 71.772 69.4378 71.772C68.8591 71.772 68.3738 71.8747 67.9818 72.08C67.6085 72.2853 67.3658 72.5747 67.2538 72.948C67.1978 73.1533 67.0765 73.2467 66.8898 73.228L63.5018 72.78C63.2778 72.7427 63.1751 72.6587 63.1938 72.528C63.2685 71.744 63.5765 71.0347 64.1178 70.4C64.6778 69.7653 65.4058 69.2707 66.3018 68.916C67.2165 68.5613 68.2338 68.384 69.3538 68.384ZM68.7938 80.284C69.5965 80.284 70.2778 80.0693 70.8378 79.64C71.3978 79.2107 71.6778 78.66 71.6778 77.988V76.98C71.6778 76.8867 71.6311 76.84 71.5378 76.84H69.5218C68.6818 76.84 68.0191 76.9987 67.5338 77.316C67.0671 77.6333 66.8338 78.0813 66.8338 78.66C66.8338 79.164 67.0111 79.5653 67.3658 79.864C67.7205 80.144 68.1965 80.284 68.7938 80.284ZM87.5388 63.736C87.5388 63.6427 87.5668 63.568 87.6228 63.512C87.6974 63.4373 87.7814 63.4 87.8748 63.4H91.1508C91.2441 63.4 91.3188 63.4373 91.3748 63.512C91.4494 63.568 91.4868 63.6427 91.4868 63.736V82.664C91.4868 82.7573 91.4494 82.8413 91.3748 82.916C91.3188 82.972 91.2441 83 91.1508 83H87.8748C87.7814 83 87.6974 82.972 87.6228 82.916C87.5668 82.8413 87.5388 82.7573 87.5388 82.664V81.74C87.5388 81.684 87.5201 81.656 87.4828 81.656C87.4454 81.6373 87.4081 81.6467 87.3708 81.684C86.5868 82.7107 85.5134 83.224 84.1508 83.224C82.8441 83.224 81.7148 82.86 80.7628 82.132C79.8294 81.404 79.1574 80.4053 78.7468 79.136C78.4294 78.1653 78.2708 77.036 78.2708 75.748C78.2708 74.4227 78.4388 73.2653 78.7748 72.276C79.2041 71.0813 79.8761 70.1387 80.7908 69.448C81.7241 68.7387 82.8721 68.384 84.2348 68.384C85.5788 68.384 86.6241 68.8507 87.3708 69.784C87.4081 69.84 87.4454 69.8587 87.4828 69.84C87.5201 69.8213 87.5388 69.784 87.5388 69.728V63.736ZM86.9508 78.632C87.3241 77.9413 87.5108 76.9987 87.5108 75.804C87.5108 74.5533 87.3054 73.5733 86.8948 72.864C86.4654 72.136 85.8401 71.772 85.0188 71.772C84.1414 71.772 83.4788 72.136 83.0308 72.864C82.5641 73.592 82.3308 74.5813 82.3308 75.832C82.3308 76.952 82.5268 77.8853 82.9188 78.632C83.3854 79.4347 84.0761 79.836 84.9908 79.836C85.8308 79.836 86.4841 79.4347 86.9508 78.632ZM107.406 74.32C107.518 75.0293 107.555 75.8227 107.518 76.7C107.499 76.924 107.378 77.036 107.154 77.036H98.5022C98.3902 77.036 98.3528 77.0827 98.3902 77.176C98.4462 77.5493 98.5488 77.9227 98.6982 78.296C99.1835 79.3413 100.173 79.864 101.666 79.864C102.861 79.8453 103.803 79.36 104.494 78.408C104.569 78.296 104.653 78.24 104.746 78.24C104.802 78.24 104.867 78.2773 104.942 78.352L106.958 80.34C107.051 80.4333 107.098 80.5173 107.098 80.592C107.098 80.6293 107.061 80.704 106.986 80.816C106.37 81.5813 105.577 82.1787 104.606 82.608C103.635 83.0187 102.571 83.224 101.414 83.224C99.8088 83.224 98.4462 82.86 97.3262 82.132C96.2248 81.404 95.4315 80.3867 94.9462 79.08C94.5542 78.1467 94.3582 76.924 94.3582 75.412C94.3582 74.3853 94.4982 73.48 94.7782 72.696C95.2075 71.3707 95.9542 70.316 97.0182 69.532C98.1008 68.748 99.3795 68.356 100.854 68.356C102.721 68.356 104.214 68.8973 105.334 69.98C106.473 71.0627 107.163 72.5093 107.406 74.32ZM100.882 71.772C99.7062 71.772 98.9315 72.3227 98.5582 73.424C98.4835 73.6667 98.4182 73.9653 98.3622 74.32C98.3622 74.4133 98.4088 74.46 98.5022 74.46H103.346C103.458 74.46 103.495 74.4133 103.458 74.32C103.365 73.7787 103.318 73.5173 103.318 73.536C103.15 72.976 102.851 72.5467 102.422 72.248C102.011 71.9307 101.498 71.772 100.882 71.772ZM117.319 68.412C117.991 68.412 118.523 68.5427 118.915 68.804C119.065 68.8787 119.121 69.0187 119.083 69.224L118.495 72.416C118.477 72.64 118.346 72.7053 118.103 72.612C117.823 72.5187 117.497 72.472 117.123 72.472C116.974 72.472 116.769 72.4907 116.507 72.528C115.835 72.584 115.266 72.836 114.799 73.284C114.333 73.7133 114.099 74.292 114.099 75.02V82.664C114.099 82.7573 114.062 82.8413 113.987 82.916C113.931 82.972 113.857 83 113.763 83H110.487C110.394 83 110.31 82.972 110.235 82.916C110.179 82.8413 110.151 82.7573 110.151 82.664V68.944C110.151 68.8507 110.179 68.776 110.235 68.72C110.31 68.6453 110.394 68.608 110.487 68.608H113.763C113.857 68.608 113.931 68.6453 113.987 68.72C114.062 68.776 114.099 68.8507 114.099 68.944V70.008C114.099 70.064 114.118 70.1013 114.155 70.12C114.193 70.1387 114.221 70.1293 114.239 70.092C115.005 68.972 116.031 68.412 117.319 68.412Z" fill="#252530"/>
<path d="M58.5098 97.208C58.5098 97.2613 58.4885 97.3093 58.4458 97.352C58.4138 97.384 58.3711 97.4 58.3178 97.4H52.8618C52.8085 97.4 52.7818 97.4267 52.7818 97.48V100.472C52.7818 100.525 52.8085 100.552 52.8618 100.552H56.5258C56.5791 100.552 56.6218 100.573 56.6538 100.616C56.6965 100.648 56.7178 100.691 56.7178 100.744V101.96C56.7178 102.013 56.6965 102.061 56.6538 102.104C56.6218 102.136 56.5791 102.152 56.5258 102.152H52.8618C52.8085 102.152 52.7818 102.179 52.7818 102.232V105.32C52.7818 105.373 52.8085 105.4 52.8618 105.4H58.3178C58.3711 105.4 58.4138 105.421 58.4458 105.464C58.4885 105.496 58.5098 105.539 58.5098 105.592V106.808C58.5098 106.861 58.4885 106.909 58.4458 106.952C58.4138 106.984 58.3711 107 58.3178 107H51.1178C51.0645 107 51.0165 106.984 50.9738 106.952C50.9418 106.909 50.9258 106.861 50.9258 106.808V95.992C50.9258 95.9387 50.9418 95.896 50.9738 95.864C51.0165 95.8213 51.0645 95.8 51.1178 95.8H58.3178C58.3711 95.8 58.4138 95.8213 58.4458 95.864C58.4885 95.896 58.5098 95.9387 58.5098 95.992V97.208ZM65.0506 99.016C65.0506 98.9627 65.0666 98.92 65.0986 98.888C65.1412 98.8453 65.1892 98.824 65.2426 98.824H66.6986C66.7519 98.824 66.7946 98.8453 66.8266 98.888C66.8692 98.92 66.8906 98.9627 66.8906 99.016V106.808C66.8906 106.861 66.8692 106.909 66.8266 106.952C66.7946 106.984 66.7519 107 66.6986 107H65.2426C65.1892 107 65.1412 106.984 65.0986 106.952C65.0666 106.909 65.0506 106.861 65.0506 106.808V106.296C65.0506 106.264 65.0399 106.243 65.0186 106.232C64.9972 106.221 64.9759 106.232 64.9546 106.264C64.5172 106.829 63.8612 107.112 62.9866 107.112C62.1759 107.112 61.4932 106.877 60.9386 106.408C60.3946 105.939 60.1226 105.272 60.1226 104.408V99.016C60.1226 98.9627 60.1386 98.92 60.1706 98.888C60.2132 98.8453 60.2612 98.824 60.3146 98.824H61.7866C61.8399 98.824 61.8826 98.8453 61.9146 98.888C61.9572 98.92 61.9786 98.9627 61.9786 99.016V103.88C61.9786 104.381 62.1066 104.781 62.3626 105.08C62.6292 105.379 62.9972 105.528 63.4666 105.528C63.9466 105.528 64.3306 105.379 64.6186 105.08C64.9066 104.781 65.0506 104.381 65.0506 103.88V99.016ZM72.6828 98.728C73.0241 98.728 73.3228 98.7973 73.5788 98.936C73.6641 98.9787 73.6961 99.0587 73.6748 99.176L73.4028 100.616C73.3921 100.744 73.3175 100.781 73.1788 100.728C73.0188 100.675 72.8321 100.648 72.6188 100.648C72.4801 100.648 72.3735 100.653 72.2988 100.664C71.8508 100.685 71.4775 100.845 71.1788 101.144C70.8801 101.432 70.7308 101.811 70.7308 102.28V106.808C70.7308 106.861 70.7095 106.909 70.6668 106.952C70.6348 106.984 70.5921 107 70.5388 107H69.0668C69.0135 107 68.9655 106.984 68.9228 106.952C68.8908 106.909 68.8748 106.861 68.8748 106.808V99.016C68.8748 98.9627 68.8908 98.92 68.9228 98.888C68.9655 98.8453 69.0135 98.824 69.0668 98.824H70.5388C70.5921 98.824 70.6348 98.8453 70.6668 98.888C70.7095 98.92 70.7308 98.9627 70.7308 99.016V99.736C70.7308 99.7787 70.7361 99.8053 70.7468 99.816C70.7681 99.816 70.7895 99.8 70.8108 99.768C71.2588 99.0747 71.8828 98.728 72.6828 98.728ZM78.2062 107.128C77.3635 107.128 76.6382 106.915 76.0302 106.488C75.4329 106.061 75.0115 105.469 74.7662 104.712C74.5849 104.136 74.4942 103.528 74.4942 102.888C74.4942 102.205 74.5795 101.597 74.7502 101.064C74.9955 100.317 75.4222 99.736 76.0302 99.32C76.6382 98.904 77.3689 98.696 78.2222 98.696C79.0329 98.696 79.7315 98.904 80.3182 99.32C80.9155 99.736 81.3369 100.312 81.5822 101.048C81.7742 101.56 81.8702 102.168 81.8702 102.872C81.8702 103.544 81.7795 104.152 81.5982 104.696C81.3529 105.453 80.9315 106.051 80.3342 106.488C79.7369 106.915 79.0275 107.128 78.2062 107.128ZM78.2062 105.528C78.6009 105.528 78.9369 105.416 79.2142 105.192C79.5022 104.968 79.7102 104.653 79.8382 104.248C79.9449 103.896 79.9982 103.448 79.9982 102.904C79.9982 102.328 79.9449 101.88 79.8382 101.56C79.7209 101.155 79.5182 100.845 79.2302 100.632C78.9422 100.408 78.5902 100.296 78.1742 100.296C77.7795 100.296 77.4382 100.408 77.1502 100.632C76.8622 100.845 76.6542 101.155 76.5262 101.56C76.4195 101.933 76.3662 102.381 76.3662 102.904C76.3662 103.427 76.4195 103.875 76.5262 104.248C76.6435 104.653 76.8462 104.968 77.1342 105.192C77.4329 105.416 77.7902 105.528 78.2062 105.528ZM90.5528 100.936C90.7448 101.48 90.8408 102.147 90.8408 102.936C90.8408 103.693 90.7501 104.344 90.5688 104.888C90.3341 105.592 89.9555 106.141 89.4328 106.536C88.9208 106.931 88.2701 107.128 87.4808 107.128C86.7235 107.128 86.1155 106.856 85.6568 106.312C85.6355 106.291 85.6141 106.285 85.5928 106.296C85.5715 106.307 85.5608 106.328 85.5608 106.36V109.832C85.5608 109.885 85.5395 109.928 85.4968 109.96C85.4648 110.003 85.4221 110.024 85.3688 110.024H83.8968C83.8435 110.024 83.7955 110.003 83.7528 109.96C83.7208 109.928 83.7048 109.885 83.7048 109.832V99.016C83.7048 98.9627 83.7208 98.92 83.7528 98.888C83.7955 98.8453 83.8435 98.824 83.8968 98.824H85.3688C85.4221 98.824 85.4648 98.8453 85.4968 98.888C85.5395 98.92 85.5608 98.9627 85.5608 99.016V99.496C85.5608 99.528 85.5715 99.5493 85.5928 99.56C85.6141 99.5707 85.6355 99.56 85.6568 99.528C86.1261 98.9733 86.7395 98.696 87.4968 98.696C88.2541 98.696 88.8941 98.8933 89.4168 99.288C89.9395 99.6827 90.3181 100.232 90.5528 100.936ZM88.4728 104.856C88.7928 104.365 88.9528 103.715 88.9528 102.904C88.9528 102.125 88.8248 101.512 88.5688 101.064C88.2701 100.541 87.8168 100.28 87.2088 100.28C86.6541 100.28 86.2381 100.536 85.9608 101.048C85.7155 101.464 85.5928 102.083 85.5928 102.904C85.5928 103.747 85.7261 104.387 85.9928 104.824C86.2701 105.293 86.6701 105.528 87.1928 105.528C87.7581 105.528 88.1848 105.304 88.4728 104.856ZM99.4739 101.992C99.5166 102.259 99.5379 102.557 99.5379 102.888L99.5219 103.384C99.5219 103.512 99.4579 103.576 99.3299 103.576H94.3219C94.2686 103.576 94.2419 103.603 94.2419 103.656C94.2739 104.008 94.3219 104.248 94.3859 104.376C94.6419 105.144 95.2659 105.533 96.2579 105.544C96.9833 105.544 97.5593 105.245 97.9859 104.648C98.0286 104.584 98.0819 104.552 98.1459 104.552C98.1886 104.552 98.2259 104.568 98.2579 104.6L99.2499 105.416C99.3459 105.491 99.3619 105.576 99.2979 105.672C98.9673 106.141 98.5246 106.504 97.9699 106.76C97.4259 107.016 96.8179 107.144 96.1459 107.144C95.3139 107.144 94.6046 106.957 94.0179 106.584C93.4419 106.211 93.0206 105.688 92.7539 105.016C92.5086 104.44 92.3859 103.64 92.3859 102.616C92.3859 101.997 92.4499 101.496 92.5779 101.112C92.7913 100.365 93.1913 99.7787 93.7779 99.352C94.3753 98.9147 95.0899 98.696 95.9219 98.696C98.0233 98.696 99.2073 99.7947 99.4739 101.992ZM95.9219 100.296C95.5273 100.296 95.1966 100.397 94.9299 100.6C94.6739 100.792 94.4926 101.064 94.3859 101.416C94.3219 101.597 94.2793 101.832 94.2579 102.12C94.2366 102.173 94.2579 102.2 94.3219 102.2H97.5699C97.6233 102.2 97.6499 102.173 97.6499 102.12C97.6286 101.853 97.5966 101.651 97.5539 101.512C97.4579 101.128 97.2659 100.829 96.9779 100.616C96.7006 100.403 96.3486 100.296 95.9219 100.296Z" fill="white"/>
<path d="M49.7529 131C49.6355 131 49.5609 130.947 49.5289 130.84L46.6969 120.008L46.6809 119.944C46.6809 119.848 46.7395 119.8 46.8569 119.8H48.8409C48.9475 119.8 49.0169 119.853 49.0489 119.96L50.5689 126.472C50.5795 126.515 50.5955 126.536 50.6169 126.536C50.6382 126.536 50.6542 126.515 50.6649 126.472L52.1369 119.976C52.1689 119.859 52.2382 119.8 52.3449 119.8H54.2809C54.3982 119.8 54.4729 119.853 54.5049 119.96L56.1049 126.472C56.1155 126.504 56.1315 126.525 56.1529 126.536C56.1742 126.536 56.1902 126.515 56.2009 126.472L57.6729 119.976C57.7049 119.859 57.7742 119.8 57.8809 119.8H59.7689C59.9182 119.8 59.9769 119.869 59.9449 120.008L57.3209 130.84C57.2889 130.947 57.2142 131 57.0969 131H55.1929C55.0862 131 55.0169 130.947 54.9849 130.84L53.3529 123.912C53.3422 123.869 53.3262 123.848 53.3049 123.848C53.2835 123.848 53.2675 123.869 53.2569 123.912L51.7369 130.824C51.7155 130.941 51.6462 131 51.5289 131H49.7529ZM61.4961 131C61.4428 131 61.3948 130.984 61.3521 130.952C61.3201 130.909 61.3041 130.861 61.3041 130.808V119.992C61.3041 119.939 61.3201 119.896 61.3521 119.864C61.3948 119.821 61.4428 119.8 61.4961 119.8H63.3681C63.4215 119.8 63.4641 119.821 63.4961 119.864C63.5388 119.896 63.5601 119.939 63.5601 119.992V130.808C63.5601 130.861 63.5388 130.909 63.4961 130.952C63.4641 130.984 63.4215 131 63.3681 131H61.4961ZM71.9393 119.992C71.9393 119.939 71.9553 119.896 71.9873 119.864C72.0299 119.821 72.0779 119.8 72.1313 119.8H74.0033C74.0566 119.8 74.0993 119.821 74.1313 119.864C74.1739 119.896 74.1953 119.939 74.1953 119.992V130.808C74.1953 130.861 74.1739 130.909 74.1313 130.952C74.0993 130.984 74.0566 131 74.0033 131H72.1953C72.0886 131 72.0139 130.957 71.9713 130.872L67.8273 124.024C67.8059 123.992 67.7846 123.981 67.7633 123.992C67.7419 123.992 67.7313 124.013 67.7313 124.056L67.7633 130.808C67.7633 130.861 67.7419 130.909 67.6993 130.952C67.6673 130.984 67.6246 131 67.5713 131H65.6993C65.6459 131 65.5979 130.984 65.5553 130.952C65.5233 130.909 65.5073 130.861 65.5073 130.808V119.992C65.5073 119.939 65.5233 119.896 65.5553 119.864C65.5979 119.821 65.6459 119.8 65.6993 119.8H67.5073C67.6139 119.8 67.6886 119.843 67.7313 119.928L71.8593 126.744C71.8806 126.776 71.9019 126.792 71.9233 126.792C71.9446 126.781 71.9553 126.755 71.9553 126.712L71.9393 119.992ZM83.8759 119.8C83.9292 119.8 83.9719 119.821 84.0039 119.864C84.0465 119.896 84.0679 119.939 84.0679 119.992V121.56C84.0679 121.613 84.0465 121.661 84.0039 121.704C83.9719 121.736 83.9292 121.752 83.8759 121.752H81.0119C80.9585 121.752 80.9319 121.779 80.9319 121.832V130.808C80.9319 130.861 80.9105 130.909 80.8679 130.952C80.8359 130.984 80.7932 131 80.7399 131H78.8679C78.8145 131 78.7665 130.984 78.7239 130.952C78.6919 130.909 78.6759 130.861 78.6759 130.808V121.832C78.6759 121.779 78.6492 121.752 78.5959 121.752H75.8119C75.7585 121.752 75.7105 121.736 75.6679 121.704C75.6359 121.661 75.6199 121.613 75.6199 121.56V119.992C75.6199 119.939 75.6359 119.896 75.6679 119.864C75.7105 119.821 75.7585 119.8 75.8119 119.8H83.8759ZM93.2833 121.544C93.2833 121.597 93.2619 121.645 93.2193 121.688C93.1873 121.72 93.1446 121.736 93.0913 121.736H87.8433C87.7899 121.736 87.7633 121.763 87.7633 121.816V124.296C87.7633 124.349 87.7899 124.376 87.8433 124.376H91.2833C91.3366 124.376 91.3793 124.397 91.4113 124.44C91.4539 124.472 91.4753 124.515 91.4753 124.568V126.12C91.4753 126.173 91.4539 126.221 91.4113 126.264C91.3793 126.296 91.3366 126.312 91.2833 126.312H87.8433C87.7899 126.312 87.7633 126.339 87.7633 126.392V128.984C87.7633 129.037 87.7899 129.064 87.8433 129.064H93.0913C93.1446 129.064 93.1873 129.085 93.2193 129.128C93.2619 129.16 93.2833 129.203 93.2833 129.256V130.808C93.2833 130.861 93.2619 130.909 93.2193 130.952C93.1873 130.984 93.1446 131 93.0913 131H85.6993C85.6459 131 85.5979 130.984 85.5553 130.952C85.5233 130.909 85.5073 130.861 85.5073 130.808V119.992C85.5073 119.939 85.5233 119.896 85.5553 119.864C85.5979 119.821 85.6459 119.8 85.6993 119.8H93.0913C93.1446 119.8 93.1873 119.821 93.2193 119.864C93.2619 119.896 93.2833 119.939 93.2833 119.992V121.544ZM100.995 131C100.888 131 100.814 130.952 100.771 130.856L98.771 126.424C98.7497 126.381 98.7177 126.36 98.675 126.36H97.187C97.1337 126.36 97.107 126.387 97.107 126.44V130.808C97.107 130.861 97.0857 130.909 97.043 130.952C97.011 130.984 96.9683 131 96.915 131H95.043C94.9897 131 94.9417 130.984 94.899 130.952C94.867 130.909 94.851 130.861 94.851 130.808V119.992C94.851 119.939 94.867 119.896 94.899 119.864C94.9417 119.821 94.9897 119.8 95.043 119.8H99.619C100.302 119.8 100.899 119.939 101.411 120.216C101.934 120.493 102.334 120.888 102.611 121.4C102.899 121.912 103.043 122.504 103.043 123.176C103.043 123.901 102.862 124.525 102.499 125.048C102.136 125.56 101.63 125.923 100.979 126.136C100.926 126.157 100.91 126.195 100.931 126.248L103.107 130.776C103.128 130.819 103.139 130.851 103.139 130.872C103.139 130.957 103.08 131 102.963 131H100.995ZM97.187 121.736C97.1337 121.736 97.107 121.763 97.107 121.816V124.552C97.107 124.605 97.1337 124.632 97.187 124.632H99.283C99.731 124.632 100.094 124.499 100.371 124.232C100.659 123.965 100.803 123.619 100.803 123.192C100.803 122.765 100.659 122.419 100.371 122.152C100.094 121.875 99.731 121.736 99.283 121.736H97.187Z" fill="#252530"/>
<path d="M61.0014 144.968C60.9801 144.989 60.9748 145.011 60.9854 145.032C60.9961 145.053 61.0174 145.064 61.0494 145.064H65.3854C65.4388 145.064 65.4814 145.085 65.5134 145.128C65.5561 145.16 65.5774 145.203 65.5774 145.256V146.808C65.5774 146.861 65.5561 146.909 65.5134 146.952C65.4814 146.984 65.4388 147 65.3854 147H58.1854C58.1321 147 58.0841 146.984 58.0414 146.952C58.0094 146.909 57.9934 146.861 57.9934 146.808V145.336C57.9934 145.24 58.0254 145.16 58.0894 145.096C58.6121 144.584 59.1454 144.029 59.6894 143.432C60.2334 142.824 60.5748 142.445 60.7134 142.296C61.0121 141.944 61.3161 141.608 61.6254 141.288C62.5961 140.211 63.0814 139.411 63.0814 138.888C63.0814 138.515 62.9481 138.211 62.6814 137.976C62.4148 137.731 62.0681 137.608 61.6414 137.608C61.2148 137.608 60.8681 137.731 60.6014 137.976C60.3348 138.211 60.2014 138.525 60.2014 138.92V139.32C60.2014 139.373 60.1801 139.421 60.1374 139.464C60.1054 139.496 60.0628 139.512 60.0094 139.512H58.1214C58.0681 139.512 58.0201 139.496 57.9774 139.464C57.9454 139.421 57.9294 139.373 57.9294 139.32V138.568C57.9614 137.992 58.1428 137.485 58.4734 137.048C58.8041 136.6 59.2414 136.259 59.7854 136.024C60.3401 135.789 60.9588 135.672 61.6414 135.672C62.3988 135.672 63.0548 135.816 63.6094 136.104C64.1748 136.381 64.6068 136.76 64.9054 137.24C65.2148 137.72 65.3694 138.253 65.3694 138.84C65.3694 139.288 65.2574 139.747 65.0334 140.216C64.8094 140.685 64.4734 141.192 64.0254 141.736C63.6948 142.152 63.3374 142.563 62.9534 142.968C62.5694 143.373 61.9988 143.96 61.2414 144.728L61.0014 144.968ZM70.7706 147.176C69.5972 147.176 68.6692 146.851 67.9866 146.2C67.3039 145.539 66.9626 144.643 66.9626 143.512V139.288C66.9626 138.179 67.3039 137.299 67.9866 136.648C68.6692 135.997 69.5972 135.672 70.7706 135.672C71.9439 135.672 72.8719 135.997 73.5546 136.648C74.2479 137.299 74.5946 138.179 74.5946 139.288V143.512C74.5946 144.643 74.2479 145.539 73.5546 146.2C72.8719 146.851 71.9439 147.176 70.7706 147.176ZM70.7706 145.24C71.2506 145.24 71.6292 145.096 71.9066 144.808C72.1946 144.509 72.3386 144.115 72.3386 143.624V139.224C72.3386 138.733 72.1946 138.344 71.9066 138.056C71.6292 137.757 71.2506 137.608 70.7706 137.608C70.3012 137.608 69.9226 137.757 69.6346 138.056C69.3572 138.344 69.2186 138.733 69.2186 139.224V143.624C69.2186 144.115 69.3572 144.509 69.6346 144.808C69.9226 145.096 70.3012 145.24 70.7706 145.24ZM79.0796 144.968C79.0582 144.989 79.0529 145.011 79.0636 145.032C79.0742 145.053 79.0956 145.064 79.1276 145.064H83.4636C83.5169 145.064 83.5596 145.085 83.5916 145.128C83.6342 145.16 83.6556 145.203 83.6556 145.256V146.808C83.6556 146.861 83.6342 146.909 83.5916 146.952C83.5596 146.984 83.5169 147 83.4636 147H76.2636C76.2102 147 76.1622 146.984 76.1196 146.952C76.0876 146.909 76.0716 146.861 76.0716 146.808V145.336C76.0716 145.24 76.1036 145.16 76.1676 145.096C76.6902 144.584 77.2236 144.029 77.7676 143.432C78.3116 142.824 78.6529 142.445 78.7916 142.296C79.0902 141.944 79.3942 141.608 79.7036 141.288C80.6742 140.211 81.1596 139.411 81.1596 138.888C81.1596 138.515 81.0262 138.211 80.7596 137.976C80.4929 137.731 80.1462 137.608 79.7196 137.608C79.2929 137.608 78.9462 137.731 78.6796 137.976C78.4129 138.211 78.2796 138.525 78.2796 138.92V139.32C78.2796 139.373 78.2582 139.421 78.2156 139.464C78.1836 139.496 78.1409 139.512 78.0876 139.512H76.1996C76.1462 139.512 76.0982 139.496 76.0556 139.464C76.0236 139.421 76.0076 139.373 76.0076 139.32V138.568C76.0396 137.992 76.2209 137.485 76.5516 137.048C76.8822 136.6 77.3196 136.259 77.8636 136.024C78.4182 135.789 79.0369 135.672 79.7196 135.672C80.4769 135.672 81.1329 135.816 81.6876 136.104C82.2529 136.381 82.6849 136.76 82.9836 137.24C83.2929 137.72 83.4476 138.253 83.4476 138.84C83.4476 139.288 83.3356 139.747 83.1116 140.216C82.8876 140.685 82.5516 141.192 82.1036 141.736C81.7729 142.152 81.4156 142.563 81.0316 142.968C80.6476 143.373 80.0769 143.96 79.3196 144.728L79.0796 144.968ZM91.7179 141.656C91.9313 142.147 92.0379 142.712 92.0379 143.352C92.0379 143.928 91.9419 144.461 91.7499 144.952C91.4939 145.635 91.0619 146.168 90.4539 146.552C89.8566 146.936 89.1473 147.128 88.3259 147.128C87.5153 147.128 86.8006 146.925 86.1819 146.52C85.5739 146.115 85.1366 145.565 84.8699 144.872C84.7206 144.456 84.6353 144.008 84.6139 143.528C84.6139 143.4 84.6779 143.336 84.8059 143.336H86.6939C86.8219 143.336 86.8859 143.4 86.8859 143.528C86.9286 143.88 86.9873 144.141 87.0619 144.312C87.1579 144.589 87.3126 144.808 87.5259 144.968C87.7499 145.117 88.0113 145.192 88.3099 145.192C88.9073 145.192 89.3179 144.931 89.5419 144.408C89.6913 144.088 89.7659 143.715 89.7659 143.288C89.7659 142.787 89.6859 142.376 89.5259 142.056C89.2806 141.555 88.8699 141.304 88.2939 141.304C88.1766 141.304 88.0539 141.341 87.9259 141.416C87.7979 141.48 87.6433 141.576 87.4619 141.704C87.4193 141.736 87.3766 141.752 87.3339 141.752C87.2699 141.752 87.2219 141.72 87.1899 141.656L86.2459 140.328C86.2246 140.296 86.2139 140.259 86.2139 140.216C86.2139 140.152 86.2353 140.099 86.2779 140.056L88.8219 137.832C88.8433 137.811 88.8486 137.789 88.8379 137.768C88.8379 137.747 88.8219 137.736 88.7899 137.736H85.0299C84.9766 137.736 84.9286 137.72 84.8859 137.688C84.8539 137.645 84.8379 137.597 84.8379 137.544V135.992C84.8379 135.939 84.8539 135.896 84.8859 135.864C84.9286 135.821 84.9766 135.8 85.0299 135.8H91.7019C91.7553 135.8 91.7979 135.821 91.8299 135.864C91.8726 135.896 91.8939 135.939 91.8939 135.992V137.752C91.8939 137.837 91.8566 137.917 91.7819 137.992L89.6859 139.912C89.6646 139.933 89.6539 139.955 89.6539 139.976C89.6646 139.997 89.6913 140.008 89.7339 140.008C90.6619 140.189 91.3233 140.739 91.7179 141.656Z" fill="#252530"/>
</g>
<defs>
<clipPath id="clip0_16_150">
<rect width="150" height="168" fill="white"/>
</clipPath>
</defs>
</svg>
