<svg width="150" height="168" viewBox="0 0 150 168" fill="none" xmlns="http://www.w3.org/2000/svg">
<g clip-path="url(#clip0_16_190)">
<path d="M10 133.2V21.46C22.59 20.73 32 10.87 32.93 1.5H117.08C118 10.87 127.42 20.72 140.01 21.46V133.21L74.96 166.32L10 133.2Z" fill="white"/>
<path d="M115.77 3C117.43 12.22 126.46 21.49 138.5 22.83V132.28L74.95 164.63L11.5 132.28V22.83C23.54 21.49 32.57 12.22 34.23 3H115.78M118.51 0H31.5C31.5 11.05 19.55 20 8.5 20V134.12L74.95 168L141.5 134.12V20C130.45 20 118.5 11.05 118.5 0H118.51Z" fill="#DCDEDC"/>
<path d="M138.5 22.8301C132.96 21.9801 130.26 20.8501 125.79 17.9301L11.52 132.29L74.81 164.55L138.49 132.41V22.8301H138.5Z" fill="#F7F8F7"/>
<path d="M144.98 90H5.16966L0 101L5.16966 112H144.99L150 101L144.98 90Z" fill="#9132A2"/>
<path d="M75.08 6.3C75.73 6.3 76.37 6.3 77.02 6.46L75.08 10.17C72.17 10.01 69.59 12.27 69.43 15.18C69.27 18.09 71.53 20.67 74.44 20.83H75.09C76.38 20.83 77.67 20.35 78.64 19.54L80.74 23.09C79.13 24.22 77.19 24.87 75.09 24.87C69.92 25.03 65.56 21.16 65.4 15.99C65.24 10.82 69.11 6.46 74.28 6.3H75.09H75.08ZM81.7 14.21L84.12 18.25L81.7 22.13L79.44 18.25H74.76L77.18 14.21H81.7V14.21ZM77.82 12.76C77.82 12.11 77.98 11.47 78.3 10.98C78.62 10.49 79.27 10.01 79.75 9.69L80.07 9.53C80.72 9.21 80.88 9.05 80.88 8.72C80.88 8.39 80.4 8.07 80.07 8.07C79.42 8.07 78.94 8.39 78.62 9.04L77.81 8.23C77.97 7.91 78.29 7.58 78.62 7.26C79.1 6.94 79.59 6.94 80.07 6.94C80.55 6.94 81.2 7.1 81.52 7.42C81.84 7.74 82.17 8.23 82.17 8.71C82.17 9.52 81.69 10.16 80.72 10.49L80.24 10.81C79.76 11.13 79.43 11.29 79.27 11.78H82.18V12.91L77.82 12.75V12.76ZM75.08 32.94L90.42 24.22V0H59.58V24.06L75.08 32.94Z" fill="#9132A2"/>
<path d="M32.6299 83C32.5366 83 32.4526 82.972 32.3779 82.916C32.3219 82.8413 32.2939 82.7573 32.2939 82.664V63.736C32.2939 63.6427 32.3219 63.568 32.3779 63.512C32.4526 63.4373 32.5366 63.4 32.6299 63.4H35.9059C35.9993 63.4 36.0739 63.4373 36.1299 63.512C36.2046 63.568 36.2419 63.6427 36.2419 63.736V79.472C36.2419 79.5653 36.2886 79.612 36.3819 79.612H45.5379C45.6313 79.612 45.7059 79.6493 45.7619 79.724C45.8366 79.78 45.8739 79.8547 45.8739 79.948V82.664C45.8739 82.7573 45.8366 82.8413 45.7619 82.916C45.7059 82.972 45.6313 83 45.5379 83H32.6299ZM61.0054 74.32C61.1174 75.0293 61.1547 75.8227 61.1174 76.7C61.0987 76.924 60.9774 77.036 60.7534 77.036H52.1014C51.9894 77.036 51.952 77.0827 51.9894 77.176C52.0454 77.5493 52.148 77.9227 52.2974 78.296C52.7827 79.3413 53.772 79.864 55.2654 79.864C56.46 79.8453 57.4027 79.36 58.0934 78.408C58.168 78.296 58.252 78.24 58.3454 78.24C58.4014 78.24 58.4667 78.2773 58.5414 78.352L60.5574 80.34C60.6507 80.4333 60.6974 80.5173 60.6974 80.592C60.6974 80.6293 60.66 80.704 60.5854 80.816C59.9694 81.5813 59.176 82.1787 58.2054 82.608C57.2347 83.0187 56.1707 83.224 55.0134 83.224C53.408 83.224 52.0454 82.86 50.9254 82.132C49.824 81.404 49.0307 80.3867 48.5454 79.08C48.1534 78.1467 47.9574 76.924 47.9574 75.412C47.9574 74.3853 48.0974 73.48 48.3774 72.696C48.8067 71.3707 49.5534 70.316 50.6174 69.532C51.7 68.748 52.9787 68.356 54.4534 68.356C56.32 68.356 57.8134 68.8973 58.9334 69.98C60.072 71.0627 60.7627 72.5093 61.0054 74.32ZM54.4814 71.772C53.3054 71.772 52.5307 72.3227 52.1574 73.424C52.0827 73.6667 52.0174 73.9653 51.9614 74.32C51.9614 74.4133 52.008 74.46 52.1014 74.46H56.9454C57.0574 74.46 57.0947 74.4133 57.0574 74.32C56.964 73.7787 56.9174 73.5173 56.9174 73.536C56.7494 72.976 56.4507 72.5467 56.0214 72.248C55.6107 71.9307 55.0974 71.772 54.4814 71.772ZM69.3538 68.384C70.5671 68.384 71.6498 68.5987 72.6018 69.028C73.5538 69.4387 74.2911 70.008 74.8138 70.736C75.3551 71.464 75.6258 72.276 75.6258 73.172V82.664C75.6258 82.7573 75.5885 82.8413 75.5138 82.916C75.4578 82.972 75.3831 83 75.2898 83H72.0138C71.9205 83 71.8365 82.972 71.7618 82.916C71.7058 82.8413 71.6778 82.7573 71.6778 82.664V81.74C71.6778 81.684 71.6591 81.6467 71.6218 81.628C71.5845 81.6093 71.5471 81.628 71.5098 81.684C70.7258 82.7107 69.4658 83.224 67.7298 83.224C66.2738 83.224 65.0978 82.8693 64.2018 82.16C63.3058 81.4507 62.8578 80.4053 62.8578 79.024C62.8578 77.5867 63.3618 76.476 64.3698 75.692C65.3778 74.8893 66.8151 74.488 68.6818 74.488H71.5378C71.6311 74.488 71.6778 74.4413 71.6778 74.348V73.732C71.6778 73.116 71.4911 72.64 71.1178 72.304C70.7445 71.9493 70.1845 71.772 69.4378 71.772C68.8591 71.772 68.3738 71.8747 67.9818 72.08C67.6085 72.2853 67.3658 72.5747 67.2538 72.948C67.1978 73.1533 67.0765 73.2467 66.8898 73.228L63.5018 72.78C63.2778 72.7427 63.1751 72.6587 63.1938 72.528C63.2685 71.744 63.5765 71.0347 64.1178 70.4C64.6778 69.7653 65.4058 69.2707 66.3018 68.916C67.2165 68.5613 68.2338 68.384 69.3538 68.384ZM68.7938 80.284C69.5965 80.284 70.2778 80.0693 70.8378 79.64C71.3978 79.2107 71.6778 78.66 71.6778 77.988V76.98C71.6778 76.8867 71.6311 76.84 71.5378 76.84H69.5218C68.6818 76.84 68.0191 76.9987 67.5338 77.316C67.0671 77.6333 66.8338 78.0813 66.8338 78.66C66.8338 79.164 67.0111 79.5653 67.3658 79.864C67.7205 80.144 68.1965 80.284 68.7938 80.284ZM87.5388 63.736C87.5388 63.6427 87.5668 63.568 87.6228 63.512C87.6974 63.4373 87.7814 63.4 87.8748 63.4H91.1508C91.2441 63.4 91.3188 63.4373 91.3748 63.512C91.4494 63.568 91.4868 63.6427 91.4868 63.736V82.664C91.4868 82.7573 91.4494 82.8413 91.3748 82.916C91.3188 82.972 91.2441 83 91.1508 83H87.8748C87.7814 83 87.6974 82.972 87.6228 82.916C87.5668 82.8413 87.5388 82.7573 87.5388 82.664V81.74C87.5388 81.684 87.5201 81.656 87.4828 81.656C87.4454 81.6373 87.4081 81.6467 87.3708 81.684C86.5868 82.7107 85.5134 83.224 84.1508 83.224C82.8441 83.224 81.7148 82.86 80.7628 82.132C79.8294 81.404 79.1574 80.4053 78.7468 79.136C78.4294 78.1653 78.2708 77.036 78.2708 75.748C78.2708 74.4227 78.4388 73.2653 78.7748 72.276C79.2041 71.0813 79.8761 70.1387 80.7908 69.448C81.7241 68.7387 82.8721 68.384 84.2348 68.384C85.5788 68.384 86.6241 68.8507 87.3708 69.784C87.4081 69.84 87.4454 69.8587 87.4828 69.84C87.5201 69.8213 87.5388 69.784 87.5388 69.728V63.736ZM86.9508 78.632C87.3241 77.9413 87.5108 76.9987 87.5108 75.804C87.5108 74.5533 87.3054 73.5733 86.8948 72.864C86.4654 72.136 85.8401 71.772 85.0188 71.772C84.1414 71.772 83.4788 72.136 83.0308 72.864C82.5641 73.592 82.3308 74.5813 82.3308 75.832C82.3308 76.952 82.5268 77.8853 82.9188 78.632C83.3854 79.4347 84.0761 79.836 84.9908 79.836C85.8308 79.836 86.4841 79.4347 86.9508 78.632ZM107.406 74.32C107.518 75.0293 107.555 75.8227 107.518 76.7C107.499 76.924 107.378 77.036 107.154 77.036H98.5022C98.3902 77.036 98.3528 77.0827 98.3902 77.176C98.4462 77.5493 98.5488 77.9227 98.6982 78.296C99.1835 79.3413 100.173 79.864 101.666 79.864C102.861 79.8453 103.803 79.36 104.494 78.408C104.569 78.296 104.653 78.24 104.746 78.24C104.802 78.24 104.867 78.2773 104.942 78.352L106.958 80.34C107.051 80.4333 107.098 80.5173 107.098 80.592C107.098 80.6293 107.061 80.704 106.986 80.816C106.37 81.5813 105.577 82.1787 104.606 82.608C103.635 83.0187 102.571 83.224 101.414 83.224C99.8088 83.224 98.4462 82.86 97.3262 82.132C96.2248 81.404 95.4315 80.3867 94.9462 79.08C94.5542 78.1467 94.3582 76.924 94.3582 75.412C94.3582 74.3853 94.4982 73.48 94.7782 72.696C95.2075 71.3707 95.9542 70.316 97.0182 69.532C98.1008 68.748 99.3795 68.356 100.854 68.356C102.721 68.356 104.214 68.8973 105.334 69.98C106.473 71.0627 107.163 72.5093 107.406 74.32ZM100.882 71.772C99.7062 71.772 98.9315 72.3227 98.5582 73.424C98.4835 73.6667 98.4182 73.9653 98.3622 74.32C98.3622 74.4133 98.4088 74.46 98.5022 74.46H103.346C103.458 74.46 103.495 74.4133 103.458 74.32C103.365 73.7787 103.318 73.5173 103.318 73.536C103.15 72.976 102.851 72.5467 102.422 72.248C102.011 71.9307 101.498 71.772 100.882 71.772ZM117.319 68.412C117.991 68.412 118.523 68.5427 118.915 68.804C119.065 68.8787 119.121 69.0187 119.083 69.224L118.495 72.416C118.477 72.64 118.346 72.7053 118.103 72.612C117.823 72.5187 117.497 72.472 117.123 72.472C116.974 72.472 116.769 72.4907 116.507 72.528C115.835 72.584 115.266 72.836 114.799 73.284C114.333 73.7133 114.099 74.292 114.099 75.02V82.664C114.099 82.7573 114.062 82.8413 113.987 82.916C113.931 82.972 113.857 83 113.763 83H110.487C110.394 83 110.31 82.972 110.235 82.916C110.179 82.8413 110.151 82.7573 110.151 82.664V68.944C110.151 68.8507 110.179 68.776 110.235 68.72C110.31 68.6453 110.394 68.608 110.487 68.608H113.763C113.857 68.608 113.931 68.6453 113.987 68.72C114.062 68.776 114.099 68.8507 114.099 68.944V70.008C114.099 70.064 114.118 70.1013 114.155 70.12C114.193 70.1387 114.221 70.1293 114.239 70.092C115.005 68.972 116.031 68.412 117.319 68.412Z" fill="#252530"/>
<path d="M41.6823 107C41.5756 107 41.5063 106.947 41.4743 106.84L40.9463 105.128C40.925 105.085 40.8983 105.064 40.8663 105.064H36.6423C36.6103 105.064 36.5836 105.085 36.5623 105.128L36.0343 106.84C36.0023 106.947 35.933 107 35.8263 107H34.2263C34.1623 107 34.1143 106.984 34.0823 106.952C34.0503 106.909 34.045 106.851 34.0663 106.776L37.5383 95.96C37.5703 95.8533 37.6396 95.8 37.7463 95.8H39.7463C39.853 95.8 39.9223 95.8533 39.9543 95.96L43.4423 106.776C43.453 106.797 43.4583 106.824 43.4583 106.856C43.4583 106.952 43.3996 107 43.2823 107H41.6823ZM37.0583 103.512C37.0476 103.576 37.069 103.608 37.1223 103.608H40.3703C40.4343 103.608 40.4556 103.576 40.4343 103.512L38.7863 98.152C38.7756 98.1093 38.7596 98.088 38.7383 98.088C38.717 98.088 38.701 98.1093 38.6903 98.152L37.0583 103.512ZM47.9773 107.096C47.3053 107.096 46.7133 107 46.2013 106.808C45.7 106.605 45.3106 106.333 45.0333 105.992C44.756 105.64 44.6173 105.251 44.6173 104.824V104.68C44.6173 104.627 44.6333 104.584 44.6653 104.552C44.708 104.509 44.756 104.488 44.8093 104.488H46.2173C46.2706 104.488 46.3133 104.509 46.3453 104.552C46.388 104.584 46.4093 104.627 46.4093 104.68V104.712C46.4093 104.979 46.5533 105.213 46.8413 105.416C47.14 105.608 47.5133 105.704 47.9613 105.704C48.388 105.704 48.7346 105.619 49.0013 105.448C49.268 105.267 49.4013 105.043 49.4013 104.776C49.4013 104.531 49.2893 104.349 49.0653 104.232C48.852 104.104 48.5 103.971 48.0093 103.832L47.4013 103.64C46.8573 103.48 46.3986 103.309 46.0253 103.128C45.652 102.947 45.3373 102.701 45.0813 102.392C44.8253 102.072 44.6973 101.667 44.6973 101.176C44.6973 100.429 44.9906 99.8373 45.5773 99.4C46.164 98.952 46.9373 98.728 47.8973 98.728C48.548 98.728 49.1186 98.8347 49.6093 99.048C50.1 99.2507 50.4786 99.5387 50.7453 99.912C51.012 100.275 51.1453 100.691 51.1453 101.16C51.1453 101.213 51.124 101.261 51.0813 101.304C51.0493 101.336 51.0066 101.352 50.9533 101.352H49.5933C49.54 101.352 49.492 101.336 49.4493 101.304C49.4173 101.261 49.4013 101.213 49.4013 101.16C49.4013 100.883 49.2626 100.653 48.9853 100.472C48.7186 100.28 48.3506 100.184 47.8813 100.184C47.4653 100.184 47.124 100.264 46.8573 100.424C46.6013 100.573 46.4733 100.787 46.4733 101.064C46.4733 101.32 46.596 101.517 46.8413 101.656C47.0973 101.784 47.5186 101.928 48.1053 102.088L48.4573 102.184C49.0226 102.355 49.4973 102.531 49.8813 102.712C50.2653 102.883 50.5906 103.128 50.8573 103.448C51.124 103.757 51.2573 104.163 51.2573 104.664C51.2573 105.421 50.9586 106.019 50.3613 106.456C49.764 106.883 48.9693 107.096 47.9773 107.096ZM53.8839 97.704C53.5533 97.704 53.2813 97.5973 53.0679 97.384C52.8546 97.1707 52.7479 96.8987 52.7479 96.568C52.7479 96.2373 52.8546 95.9653 53.0679 95.752C53.2813 95.5387 53.5533 95.432 53.8839 95.432C54.2146 95.432 54.4866 95.5387 54.6999 95.752C54.9133 95.9653 55.0199 96.2373 55.0199 96.568C55.0199 96.8987 54.9133 97.1707 54.6999 97.384C54.4866 97.5973 54.2146 97.704 53.8839 97.704ZM53.1159 107C53.0626 107 53.0146 106.984 52.9719 106.952C52.9399 106.909 52.9239 106.861 52.9239 106.808V99C52.9239 98.9467 52.9399 98.904 52.9719 98.872C53.0146 98.8293 53.0626 98.808 53.1159 98.808H54.5879C54.6413 98.808 54.6839 98.8293 54.7159 98.872C54.7586 98.904 54.7799 98.9467 54.7799 99V106.808C54.7799 106.861 54.7586 106.909 54.7159 106.952C54.6839 106.984 54.6413 107 54.5879 107H53.1159ZM60.0261 98.696C60.6981 98.696 61.2901 98.8133 61.8021 99.048C62.3141 99.2827 62.7087 99.608 62.9861 100.024C63.2634 100.429 63.4021 100.893 63.4021 101.416V106.808C63.4021 106.861 63.3807 106.909 63.3381 106.952C63.3061 106.984 63.2634 107 63.2101 107H61.7381C61.6847 107 61.6367 106.984 61.5941 106.952C61.5621 106.909 61.5461 106.861 61.5461 106.808V106.296C61.5461 106.264 61.5354 106.248 61.5141 106.248C61.4927 106.237 61.4714 106.243 61.4501 106.264C60.9274 106.84 60.1701 107.128 59.1781 107.128C58.3781 107.128 57.7167 106.925 57.1941 106.52C56.6821 106.115 56.4261 105.512 56.4261 104.712C56.4261 103.88 56.7141 103.235 57.2901 102.776C57.8767 102.307 58.6981 102.072 59.7541 102.072H61.4661C61.5194 102.072 61.5461 102.045 61.5461 101.992V101.608C61.5461 101.192 61.4234 100.872 61.1781 100.648C60.9327 100.413 60.5647 100.296 60.0741 100.296C59.6687 100.296 59.3381 100.371 59.0821 100.52C58.8367 100.659 58.6821 100.856 58.6181 101.112C58.5861 101.24 58.5114 101.293 58.3941 101.272L56.8421 101.08C56.7887 101.069 56.7407 101.053 56.6981 101.032C56.6661 101 56.6554 100.963 56.6661 100.92C56.7514 100.269 57.0981 99.736 57.7061 99.32C58.3247 98.904 59.0981 98.696 60.0261 98.696ZM59.6421 105.656C60.1647 105.656 60.6127 105.517 60.9861 105.24C61.3594 104.963 61.5461 104.611 61.5461 104.184V103.432C61.5461 103.379 61.5194 103.352 61.4661 103.352H60.1221C59.5567 103.352 59.1087 103.459 58.7781 103.672C58.4581 103.885 58.2981 104.189 58.2981 104.584C58.2981 104.925 58.4207 105.192 58.6661 105.384C58.9221 105.565 59.2474 105.656 59.6421 105.656ZM73.1406 95.784C73.8126 95.784 74.4046 95.9227 74.9166 96.2C75.4286 96.4773 75.8232 96.872 76.1006 97.384C76.3886 97.8853 76.5326 98.4667 76.5326 99.128C76.5326 99.7787 76.3886 100.355 76.1006 100.856C75.8126 101.357 75.4019 101.747 74.8686 102.024C74.3459 102.291 73.7379 102.424 73.0446 102.424H70.4846C70.4312 102.424 70.4046 102.451 70.4046 102.504V106.808C70.4046 106.861 70.3832 106.909 70.3406 106.952C70.3086 106.984 70.2659 107 70.2126 107H68.7406C68.6872 107 68.6392 106.984 68.5966 106.952C68.5646 106.909 68.5486 106.861 68.5486 106.808V95.976C68.5486 95.9227 68.5646 95.88 68.5966 95.848C68.6392 95.8053 68.6872 95.784 68.7406 95.784H73.1406ZM72.8686 100.92C73.4126 100.92 73.8499 100.76 74.1806 100.44C74.5112 100.12 74.6766 99.6987 74.6766 99.176C74.6766 98.6427 74.5112 98.2107 74.1806 97.88C73.8499 97.5493 73.4126 97.384 72.8686 97.384H70.4846C70.4312 97.384 70.4046 97.4107 70.4046 97.464V100.84C70.4046 100.893 70.4312 100.92 70.4846 100.92H72.8686ZM81.0104 98.696C81.6824 98.696 82.2744 98.8133 82.7864 99.048C83.2984 99.2827 83.6931 99.608 83.9704 100.024C84.2478 100.429 84.3864 100.893 84.3864 101.416V106.808C84.3864 106.861 84.3651 106.909 84.3224 106.952C84.2904 106.984 84.2478 107 84.1944 107H82.7224C82.6691 107 82.6211 106.984 82.5784 106.952C82.5464 106.909 82.5304 106.861 82.5304 106.808V106.296C82.5304 106.264 82.5198 106.248 82.4984 106.248C82.4771 106.237 82.4558 106.243 82.4344 106.264C81.9118 106.84 81.1544 107.128 80.1624 107.128C79.3624 107.128 78.7011 106.925 78.1784 106.52C77.6664 106.115 77.4104 105.512 77.4104 104.712C77.4104 103.88 77.6984 103.235 78.2744 102.776C78.8611 102.307 79.6824 102.072 80.7384 102.072H82.4504C82.5038 102.072 82.5304 102.045 82.5304 101.992V101.608C82.5304 101.192 82.4078 100.872 82.1624 100.648C81.9171 100.413 81.5491 100.296 81.0584 100.296C80.6531 100.296 80.3224 100.371 80.0664 100.52C79.8211 100.659 79.6664 100.856 79.6024 101.112C79.5704 101.24 79.4958 101.293 79.3784 101.272L77.8264 101.08C77.7731 101.069 77.7251 101.053 77.6824 101.032C77.6504 101 77.6398 100.963 77.6504 100.92C77.7358 100.269 78.0824 99.736 78.6904 99.32C79.3091 98.904 80.0824 98.696 81.0104 98.696ZM80.6264 105.656C81.1491 105.656 81.5971 105.517 81.9704 105.24C82.3438 104.963 82.5304 104.611 82.5304 104.184V103.432C82.5304 103.379 82.5038 103.352 82.4504 103.352H81.1064C80.5411 103.352 80.0931 103.459 79.7624 103.672C79.4424 103.885 79.2824 104.189 79.2824 104.584C79.2824 104.925 79.4051 105.192 79.6504 105.384C79.9064 105.565 80.2318 105.656 80.6264 105.656ZM89.6578 107.128C88.8365 107.128 88.1271 106.92 87.5298 106.504C86.9325 106.077 86.5165 105.507 86.2818 104.792C86.1111 104.312 86.0258 103.672 86.0258 102.872C86.0258 102.104 86.1111 101.475 86.2818 100.984C86.5058 100.28 86.9165 99.7253 87.5138 99.32C88.1218 98.904 88.8365 98.696 89.6578 98.696C90.4898 98.696 91.2151 98.904 91.8338 99.32C92.4525 99.736 92.8631 100.259 93.0658 100.888C93.1191 101.059 93.1565 101.229 93.1778 101.4V101.432C93.1778 101.539 93.1191 101.603 93.0018 101.624L91.5618 101.832H91.5298C91.4338 101.832 91.3698 101.779 91.3378 101.672C91.3378 101.619 91.3325 101.576 91.3218 101.544C91.3005 101.459 91.2791 101.384 91.2578 101.32C91.1618 101.021 90.9698 100.776 90.6818 100.584C90.3938 100.392 90.0525 100.296 89.6578 100.296C89.2525 100.296 88.9058 100.403 88.6178 100.616C88.3405 100.819 88.1538 101.101 88.0578 101.464C87.9511 101.805 87.8978 102.28 87.8978 102.888C87.8978 103.475 87.9458 103.949 88.0418 104.312C88.1485 104.685 88.3405 104.984 88.6178 105.208C88.8951 105.421 89.2418 105.528 89.6578 105.528C90.0631 105.528 90.4098 105.427 90.6978 105.224C90.9965 105.011 91.1885 104.728 91.2738 104.376C91.2845 104.355 91.2898 104.328 91.2898 104.296C91.3005 104.285 91.3058 104.269 91.3058 104.248C91.3378 104.12 91.4125 104.067 91.5298 104.088L92.9698 104.312C93.0231 104.323 93.0658 104.349 93.0978 104.392C93.1405 104.424 93.1565 104.472 93.1458 104.536C93.1138 104.707 93.0871 104.829 93.0658 104.904C92.8631 105.587 92.4525 106.131 91.8338 106.536C91.2151 106.931 90.4898 107.128 89.6578 107.128ZM95.8058 97.704C95.4751 97.704 95.2031 97.5973 94.9898 97.384C94.7765 97.1707 94.6698 96.8987 94.6698 96.568C94.6698 96.2373 94.7765 95.9653 94.9898 95.752C95.2031 95.5387 95.4751 95.432 95.8058 95.432C96.1365 95.432 96.4085 95.5387 96.6218 95.752C96.8351 95.9653 96.9418 96.2373 96.9418 96.568C96.9418 96.8987 96.8351 97.1707 96.6218 97.384C96.4085 97.5973 96.1365 97.704 95.8058 97.704ZM95.0378 107C94.9845 107 94.9365 106.984 94.8938 106.952C94.8618 106.909 94.8458 106.861 94.8458 106.808V99C94.8458 98.9467 94.8618 98.904 94.8938 98.872C94.9365 98.8293 94.9845 98.808 95.0378 98.808H96.5098C96.5631 98.808 96.6058 98.8293 96.6378 98.872C96.6805 98.904 96.7018 98.9467 96.7018 99V106.808C96.7018 106.861 96.6805 106.909 96.6378 106.952C96.6058 106.984 96.5631 107 96.5098 107H95.0378ZM103.084 98.808C103.137 98.808 103.18 98.8293 103.212 98.872C103.255 98.904 103.276 98.9467 103.276 99V100.264C103.276 100.317 103.255 100.365 103.212 100.408C103.18 100.44 103.137 100.456 103.084 100.456H101.5C101.447 100.456 101.42 100.483 101.42 100.536V106.808C101.42 106.861 101.399 106.909 101.356 106.952C101.324 106.984 101.281 107 101.228 107H99.7559C99.7026 107 99.6546 106.984 99.6119 106.952C99.5799 106.909 99.5639 106.861 99.5639 106.808V100.536C99.5639 100.483 99.5373 100.456 99.4839 100.456H98.4919C98.4386 100.456 98.3906 100.44 98.3479 100.408C98.3159 100.365 98.2999 100.317 98.2999 100.264V99C98.2999 98.9467 98.3159 98.904 98.3479 98.872C98.3906 98.8293 98.4386 98.808 98.4919 98.808H99.4839C99.5373 98.808 99.5639 98.7813 99.5639 98.728V98.44C99.5639 97.7467 99.6546 97.2133 99.8359 96.84C100.017 96.456 100.316 96.184 100.732 96.024C101.148 95.864 101.735 95.7893 102.492 95.8H103.052C103.105 95.8 103.148 95.8213 103.18 95.864C103.223 95.896 103.244 95.9387 103.244 95.992V97.112C103.244 97.1653 103.223 97.2133 103.18 97.256C103.148 97.288 103.105 97.304 103.052 97.304H102.636C102.177 97.304 101.857 97.3947 101.676 97.576C101.505 97.7573 101.42 98.088 101.42 98.568V98.728C101.42 98.7813 101.447 98.808 101.5 98.808H103.084ZM105.9 97.704C105.569 97.704 105.297 97.5973 105.084 97.384C104.871 97.1707 104.764 96.8987 104.764 96.568C104.764 96.2373 104.871 95.9653 105.084 95.752C105.297 95.5387 105.569 95.432 105.9 95.432C106.231 95.432 106.503 95.5387 106.716 95.752C106.929 95.9653 107.036 96.2373 107.036 96.568C107.036 96.8987 106.929 97.1707 106.716 97.384C106.503 97.5973 106.231 97.704 105.9 97.704ZM105.132 107C105.079 107 105.031 106.984 104.988 106.952C104.956 106.909 104.94 106.861 104.94 106.808V99C104.94 98.9467 104.956 98.904 104.988 98.872C105.031 98.8293 105.079 98.808 105.132 98.808H106.604C106.657 98.808 106.7 98.8293 106.732 98.872C106.775 98.904 106.796 98.9467 106.796 99V106.808C106.796 106.861 106.775 106.909 106.732 106.952C106.7 106.984 106.657 107 106.604 107H105.132ZM112.33 107.128C111.508 107.128 110.799 106.92 110.202 106.504C109.604 106.077 109.188 105.507 108.954 104.792C108.783 104.312 108.698 103.672 108.698 102.872C108.698 102.104 108.783 101.475 108.954 100.984C109.178 100.28 109.588 99.7253 110.186 99.32C110.794 98.904 111.508 98.696 112.33 98.696C113.162 98.696 113.887 98.904 114.506 99.32C115.124 99.736 115.535 100.259 115.738 100.888C115.791 101.059 115.828 101.229 115.85 101.4V101.432C115.85 101.539 115.791 101.603 115.674 101.624L114.234 101.832H114.202C114.106 101.832 114.042 101.779 114.01 101.672C114.01 101.619 114.004 101.576 113.994 101.544C113.972 101.459 113.951 101.384 113.93 101.32C113.834 101.021 113.642 100.776 113.354 100.584C113.066 100.392 112.724 100.296 112.33 100.296C111.924 100.296 111.578 100.403 111.29 100.616C111.012 100.819 110.826 101.101 110.73 101.464C110.623 101.805 110.57 102.28 110.57 102.888C110.57 103.475 110.618 103.949 110.714 104.312C110.82 104.685 111.012 104.984 111.29 105.208C111.567 105.421 111.914 105.528 112.33 105.528C112.735 105.528 113.082 105.427 113.37 105.224C113.668 105.011 113.86 104.728 113.946 104.376C113.956 104.355 113.962 104.328 113.962 104.296C113.972 104.285 113.978 104.269 113.978 104.248C114.01 104.12 114.084 104.067 114.202 104.088L115.642 104.312C115.695 104.323 115.738 104.349 115.77 104.392C115.812 104.424 115.828 104.472 115.818 104.536C115.786 104.707 115.759 104.829 115.738 104.904C115.535 105.587 115.124 106.131 114.506 106.536C113.887 106.931 113.162 107.128 112.33 107.128Z" fill="white"/>
<path d="M49.7529 131C49.6355 131 49.5609 130.947 49.5289 130.84L46.6969 120.008L46.6809 119.944C46.6809 119.848 46.7395 119.8 46.8569 119.8H48.8409C48.9475 119.8 49.0169 119.853 49.0489 119.96L50.5689 126.472C50.5795 126.515 50.5955 126.536 50.6169 126.536C50.6382 126.536 50.6542 126.515 50.6649 126.472L52.1369 119.976C52.1689 119.859 52.2382 119.8 52.3449 119.8H54.2809C54.3982 119.8 54.4729 119.853 54.5049 119.96L56.1049 126.472C56.1155 126.504 56.1315 126.525 56.1529 126.536C56.1742 126.536 56.1902 126.515 56.2009 126.472L57.6729 119.976C57.7049 119.859 57.7742 119.8 57.8809 119.8H59.7689C59.9182 119.8 59.9769 119.869 59.9449 120.008L57.3209 130.84C57.2889 130.947 57.2142 131 57.0969 131H55.1929C55.0862 131 55.0169 130.947 54.9849 130.84L53.3529 123.912C53.3422 123.869 53.3262 123.848 53.3049 123.848C53.2835 123.848 53.2675 123.869 53.2569 123.912L51.7369 130.824C51.7155 130.941 51.6462 131 51.5289 131H49.7529ZM61.4961 131C61.4428 131 61.3948 130.984 61.3521 130.952C61.3201 130.909 61.3041 130.861 61.3041 130.808V119.992C61.3041 119.939 61.3201 119.896 61.3521 119.864C61.3948 119.821 61.4428 119.8 61.4961 119.8H63.3681C63.4215 119.8 63.4641 119.821 63.4961 119.864C63.5388 119.896 63.5601 119.939 63.5601 119.992V130.808C63.5601 130.861 63.5388 130.909 63.4961 130.952C63.4641 130.984 63.4215 131 63.3681 131H61.4961ZM71.9393 119.992C71.9393 119.939 71.9553 119.896 71.9873 119.864C72.0299 119.821 72.0779 119.8 72.1313 119.8H74.0033C74.0566 119.8 74.0993 119.821 74.1313 119.864C74.1739 119.896 74.1953 119.939 74.1953 119.992V130.808C74.1953 130.861 74.1739 130.909 74.1313 130.952C74.0993 130.984 74.0566 131 74.0033 131H72.1953C72.0886 131 72.0139 130.957 71.9713 130.872L67.8273 124.024C67.8059 123.992 67.7846 123.981 67.7633 123.992C67.7419 123.992 67.7313 124.013 67.7313 124.056L67.7633 130.808C67.7633 130.861 67.7419 130.909 67.6993 130.952C67.6673 130.984 67.6246 131 67.5713 131H65.6993C65.6459 131 65.5979 130.984 65.5553 130.952C65.5233 130.909 65.5073 130.861 65.5073 130.808V119.992C65.5073 119.939 65.5233 119.896 65.5553 119.864C65.5979 119.821 65.6459 119.8 65.6993 119.8H67.5073C67.6139 119.8 67.6886 119.843 67.7313 119.928L71.8593 126.744C71.8806 126.776 71.9019 126.792 71.9233 126.792C71.9446 126.781 71.9553 126.755 71.9553 126.712L71.9393 119.992ZM83.8759 119.8C83.9292 119.8 83.9719 119.821 84.0039 119.864C84.0465 119.896 84.0679 119.939 84.0679 119.992V121.56C84.0679 121.613 84.0465 121.661 84.0039 121.704C83.9719 121.736 83.9292 121.752 83.8759 121.752H81.0119C80.9585 121.752 80.9319 121.779 80.9319 121.832V130.808C80.9319 130.861 80.9105 130.909 80.8679 130.952C80.8359 130.984 80.7932 131 80.7399 131H78.8679C78.8145 131 78.7665 130.984 78.7239 130.952C78.6919 130.909 78.6759 130.861 78.6759 130.808V121.832C78.6759 121.779 78.6492 121.752 78.5959 121.752H75.8119C75.7585 121.752 75.7105 121.736 75.6679 121.704C75.6359 121.661 75.6199 121.613 75.6199 121.56V119.992C75.6199 119.939 75.6359 119.896 75.6679 119.864C75.7105 119.821 75.7585 119.8 75.8119 119.8H83.8759ZM93.2833 121.544C93.2833 121.597 93.2619 121.645 93.2193 121.688C93.1873 121.72 93.1446 121.736 93.0913 121.736H87.8433C87.7899 121.736 87.7633 121.763 87.7633 121.816V124.296C87.7633 124.349 87.7899 124.376 87.8433 124.376H91.2833C91.3366 124.376 91.3793 124.397 91.4113 124.44C91.4539 124.472 91.4753 124.515 91.4753 124.568V126.12C91.4753 126.173 91.4539 126.221 91.4113 126.264C91.3793 126.296 91.3366 126.312 91.2833 126.312H87.8433C87.7899 126.312 87.7633 126.339 87.7633 126.392V128.984C87.7633 129.037 87.7899 129.064 87.8433 129.064H93.0913C93.1446 129.064 93.1873 129.085 93.2193 129.128C93.2619 129.16 93.2833 129.203 93.2833 129.256V130.808C93.2833 130.861 93.2619 130.909 93.2193 130.952C93.1873 130.984 93.1446 131 93.0913 131H85.6993C85.6459 131 85.5979 130.984 85.5553 130.952C85.5233 130.909 85.5073 130.861 85.5073 130.808V119.992C85.5073 119.939 85.5233 119.896 85.5553 119.864C85.5979 119.821 85.6459 119.8 85.6993 119.8H93.0913C93.1446 119.8 93.1873 119.821 93.2193 119.864C93.2619 119.896 93.2833 119.939 93.2833 119.992V121.544ZM100.995 131C100.888 131 100.814 130.952 100.771 130.856L98.771 126.424C98.7497 126.381 98.7177 126.36 98.675 126.36H97.187C97.1337 126.36 97.107 126.387 97.107 126.44V130.808C97.107 130.861 97.0857 130.909 97.043 130.952C97.011 130.984 96.9683 131 96.915 131H95.043C94.9897 131 94.9417 130.984 94.899 130.952C94.867 130.909 94.851 130.861 94.851 130.808V119.992C94.851 119.939 94.867 119.896 94.899 119.864C94.9417 119.821 94.9897 119.8 95.043 119.8H99.619C100.302 119.8 100.899 119.939 101.411 120.216C101.934 120.493 102.334 120.888 102.611 121.4C102.899 121.912 103.043 122.504 103.043 123.176C103.043 123.901 102.862 124.525 102.499 125.048C102.136 125.56 101.63 125.923 100.979 126.136C100.926 126.157 100.91 126.195 100.931 126.248L103.107 130.776C103.128 130.819 103.139 130.851 103.139 130.872C103.139 130.957 103.08 131 102.963 131H100.995ZM97.187 121.736C97.1337 121.736 97.107 121.763 97.107 121.816V124.552C97.107 124.605 97.1337 124.632 97.187 124.632H99.283C99.731 124.632 100.094 124.499 100.371 124.232C100.659 123.965 100.803 123.619 100.803 123.192C100.803 122.765 100.659 122.419 100.371 122.152C100.094 121.875 99.731 121.736 99.283 121.736H97.187Z" fill="#252530"/>
<path d="M61.0014 144.968C60.9801 144.989 60.9748 145.011 60.9854 145.032C60.9961 145.053 61.0174 145.064 61.0494 145.064H65.3854C65.4388 145.064 65.4814 145.085 65.5134 145.128C65.5561 145.16 65.5774 145.203 65.5774 145.256V146.808C65.5774 146.861 65.5561 146.909 65.5134 146.952C65.4814 146.984 65.4388 147 65.3854 147H58.1854C58.1321 147 58.0841 146.984 58.0414 146.952C58.0094 146.909 57.9934 146.861 57.9934 146.808V145.336C57.9934 145.24 58.0254 145.16 58.0894 145.096C58.6121 144.584 59.1454 144.029 59.6894 143.432C60.2334 142.824 60.5748 142.445 60.7134 142.296C61.0121 141.944 61.3161 141.608 61.6254 141.288C62.5961 140.211 63.0814 139.411 63.0814 138.888C63.0814 138.515 62.9481 138.211 62.6814 137.976C62.4148 137.731 62.0681 137.608 61.6414 137.608C61.2148 137.608 60.8681 137.731 60.6014 137.976C60.3348 138.211 60.2014 138.525 60.2014 138.92V139.32C60.2014 139.373 60.1801 139.421 60.1374 139.464C60.1054 139.496 60.0628 139.512 60.0094 139.512H58.1214C58.0681 139.512 58.0201 139.496 57.9774 139.464C57.9454 139.421 57.9294 139.373 57.9294 139.32V138.568C57.9614 137.992 58.1428 137.485 58.4734 137.048C58.8041 136.6 59.2414 136.259 59.7854 136.024C60.3401 135.789 60.9588 135.672 61.6414 135.672C62.3988 135.672 63.0548 135.816 63.6094 136.104C64.1748 136.381 64.6068 136.76 64.9054 137.24C65.2148 137.72 65.3694 138.253 65.3694 138.84C65.3694 139.288 65.2574 139.747 65.0334 140.216C64.8094 140.685 64.4734 141.192 64.0254 141.736C63.6948 142.152 63.3374 142.563 62.9534 142.968C62.5694 143.373 61.9988 143.96 61.2414 144.728L61.0014 144.968ZM70.7706 147.176C69.5972 147.176 68.6692 146.851 67.9866 146.2C67.3039 145.539 66.9626 144.643 66.9626 143.512V139.288C66.9626 138.179 67.3039 137.299 67.9866 136.648C68.6692 135.997 69.5972 135.672 70.7706 135.672C71.9439 135.672 72.8719 135.997 73.5546 136.648C74.2479 137.299 74.5946 138.179 74.5946 139.288V143.512C74.5946 144.643 74.2479 145.539 73.5546 146.2C72.8719 146.851 71.9439 147.176 70.7706 147.176ZM70.7706 145.24C71.2506 145.24 71.6292 145.096 71.9066 144.808C72.1946 144.509 72.3386 144.115 72.3386 143.624V139.224C72.3386 138.733 72.1946 138.344 71.9066 138.056C71.6292 137.757 71.2506 137.608 70.7706 137.608C70.3012 137.608 69.9226 137.757 69.6346 138.056C69.3572 138.344 69.2186 138.733 69.2186 139.224V143.624C69.2186 144.115 69.3572 144.509 69.6346 144.808C69.9226 145.096 70.3012 145.24 70.7706 145.24ZM79.0796 144.968C79.0582 144.989 79.0529 145.011 79.0636 145.032C79.0742 145.053 79.0956 145.064 79.1276 145.064H83.4636C83.5169 145.064 83.5596 145.085 83.5916 145.128C83.6342 145.16 83.6556 145.203 83.6556 145.256V146.808C83.6556 146.861 83.6342 146.909 83.5916 146.952C83.5596 146.984 83.5169 147 83.4636 147H76.2636C76.2102 147 76.1622 146.984 76.1196 146.952C76.0876 146.909 76.0716 146.861 76.0716 146.808V145.336C76.0716 145.24 76.1036 145.16 76.1676 145.096C76.6902 144.584 77.2236 144.029 77.7676 143.432C78.3116 142.824 78.6529 142.445 78.7916 142.296C79.0902 141.944 79.3942 141.608 79.7036 141.288C80.6742 140.211 81.1596 139.411 81.1596 138.888C81.1596 138.515 81.0262 138.211 80.7596 137.976C80.4929 137.731 80.1462 137.608 79.7196 137.608C79.2929 137.608 78.9462 137.731 78.6796 137.976C78.4129 138.211 78.2796 138.525 78.2796 138.92V139.32C78.2796 139.373 78.2582 139.421 78.2156 139.464C78.1836 139.496 78.1409 139.512 78.0876 139.512H76.1996C76.1462 139.512 76.0982 139.496 76.0556 139.464C76.0236 139.421 76.0076 139.373 76.0076 139.32V138.568C76.0396 137.992 76.2209 137.485 76.5516 137.048C76.8822 136.6 77.3196 136.259 77.8636 136.024C78.4182 135.789 79.0369 135.672 79.7196 135.672C80.4769 135.672 81.1329 135.816 81.6876 136.104C82.2529 136.381 82.6849 136.76 82.9836 137.24C83.2929 137.72 83.4476 138.253 83.4476 138.84C83.4476 139.288 83.3356 139.747 83.1116 140.216C82.8876 140.685 82.5516 141.192 82.1036 141.736C81.7729 142.152 81.4156 142.563 81.0316 142.968C80.6476 143.373 80.0769 143.96 79.3196 144.728L79.0796 144.968ZM91.7179 141.656C91.9313 142.147 92.0379 142.712 92.0379 143.352C92.0379 143.928 91.9419 144.461 91.7499 144.952C91.4939 145.635 91.0619 146.168 90.4539 146.552C89.8566 146.936 89.1473 147.128 88.3259 147.128C87.5153 147.128 86.8006 146.925 86.1819 146.52C85.5739 146.115 85.1366 145.565 84.8699 144.872C84.7206 144.456 84.6353 144.008 84.6139 143.528C84.6139 143.4 84.6779 143.336 84.8059 143.336H86.6939C86.8219 143.336 86.8859 143.4 86.8859 143.528C86.9286 143.88 86.9873 144.141 87.0619 144.312C87.1579 144.589 87.3126 144.808 87.5259 144.968C87.7499 145.117 88.0113 145.192 88.3099 145.192C88.9073 145.192 89.3179 144.931 89.5419 144.408C89.6913 144.088 89.7659 143.715 89.7659 143.288C89.7659 142.787 89.6859 142.376 89.5259 142.056C89.2806 141.555 88.8699 141.304 88.2939 141.304C88.1766 141.304 88.0539 141.341 87.9259 141.416C87.7979 141.48 87.6433 141.576 87.4619 141.704C87.4193 141.736 87.3766 141.752 87.3339 141.752C87.2699 141.752 87.2219 141.72 87.1899 141.656L86.2459 140.328C86.2246 140.296 86.2139 140.259 86.2139 140.216C86.2139 140.152 86.2353 140.099 86.2779 140.056L88.8219 137.832C88.8433 137.811 88.8486 137.789 88.8379 137.768C88.8379 137.747 88.8219 137.736 88.7899 137.736H85.0299C84.9766 137.736 84.9286 137.72 84.8859 137.688C84.8539 137.645 84.8379 137.597 84.8379 137.544V135.992C84.8379 135.939 84.8539 135.896 84.8859 135.864C84.9286 135.821 84.9766 135.8 85.0299 135.8H91.7019C91.7553 135.8 91.7979 135.821 91.8299 135.864C91.8726 135.896 91.8939 135.939 91.8939 135.992V137.752C91.8939 137.837 91.8566 137.917 91.7819 137.992L89.6859 139.912C89.6646 139.933 89.6539 139.955 89.6539 139.976C89.6646 139.997 89.6913 140.008 89.7339 140.008C90.6619 140.189 91.3233 140.739 91.7179 141.656Z" fill="#252530"/>
</g>
<defs>
<clipPath id="clip0_16_190">
<rect width="150" height="168" fill="white"/>
</clipPath>
</defs>
</svg>
