<svg width="150" height="168" viewBox="0 0 150 168" fill="none" xmlns="http://www.w3.org/2000/svg">
<g clip-path="url(#clip0_15_434)">
<path d="M10 132.9V2H139V132.9L74.45 165.76L10 132.9Z" fill="white"/>
<path d="M137 4V131.67L74.45 163.51L12 131.67V4H137ZM141 0H8V134.12L74.45 168L141 134.12V0Z" fill="#DCDEDC"/>
<path d="M12.22 131.78L74.43 163.5L137 131.7V4.68005L12.22 131.78Z" fill="#F2F3F2"/>
<path d="M144.98 90H5.16966L0 101L5.16966 112H144.99L150 101L144.98 90Z" fill="#FF492C"/>
<path d="M75.0778 6.12022C75.7101 6.12022 76.3327 6.12022 76.965 6.27565L75.0778 9.87978C72.2471 9.72435 69.7374 11.9199 69.5817 14.7468C69.4261 17.5738 71.6245 20.0801 74.4553 20.2356H75.0875C76.3424 20.2356 77.5973 19.7693 78.5409 18.9824L80.5837 22.4311C79.0175 23.5288 77.1303 24.1603 75.0875 24.1603C70.0584 24.3157 65.8171 20.5562 65.6615 15.5337C65.5058 10.5112 69.2704 6.27565 74.2996 6.12022H75.0875H75.0778ZM81.5175 13.8045L83.8716 17.7292L81.5175 21.4985L79.3191 17.7292H74.7665L77.1206 13.8045H81.5175ZM77.7432 12.3959C77.7432 11.7644 77.8988 11.1427 78.2101 10.6667C78.5214 10.1906 79.1537 9.72435 79.6206 9.41348L79.9319 9.25805C80.5642 8.94718 80.7198 8.79174 80.7198 8.47116C80.7198 8.15058 80.2529 7.83971 79.9319 7.83971C79.2996 7.83971 78.8327 8.15058 78.5214 8.78203L77.7335 7.99514C77.8891 7.68427 78.2004 7.36369 78.5214 7.05282C78.9883 6.74196 79.465 6.74196 79.9319 6.74196C80.3988 6.74196 81.0311 6.89739 81.3424 7.20826C81.6537 7.51913 81.9747 7.99514 81.9747 8.46145C81.9747 9.24833 81.5078 9.87007 80.5642 10.1906L80.0973 10.5015C79.6303 10.8124 79.3093 10.9678 79.1537 11.4438H81.9844V12.5416L77.7432 12.3862V12.3959ZM75.0778 32L90 23.5288V0H60V23.3734L75.0778 32Z" fill="#FF492C"/>
<path d="M61.1678 42.488C61.1678 42.408 61.1918 42.344 61.2398 42.296C61.3038 42.232 61.3758 42.2 61.4558 42.2H64.2638C64.3438 42.2 64.4078 42.232 64.4558 42.296C64.5198 42.344 64.5518 42.408 64.5518 42.488V58.712C64.5518 58.792 64.5198 58.864 64.4558 58.928C64.4078 58.976 64.3438 59 64.2638 59H61.4558C61.3758 59 61.3038 58.976 61.2398 58.928C61.1918 58.864 61.1678 58.792 61.1678 58.712V52.088C61.1678 52.008 61.1278 51.968 61.0478 51.968H55.7438C55.6638 51.968 55.6238 52.008 55.6238 52.088V58.712C55.6238 58.792 55.5918 58.864 55.5278 58.928C55.4798 58.976 55.4158 59 55.3358 59H52.5278C52.4478 59 52.3758 58.976 52.3118 58.928C52.2638 58.864 52.2398 58.792 52.2398 58.712V42.488C52.2398 42.408 52.2638 42.344 52.3118 42.296C52.3758 42.232 52.4478 42.2 52.5278 42.2H55.3358C55.4158 42.2 55.4798 42.232 55.5278 42.296C55.5918 42.344 55.6238 42.408 55.6238 42.488V48.944C55.6238 49.024 55.6638 49.064 55.7438 49.064H61.0478C61.1278 49.064 61.1678 49.024 61.1678 48.944V42.488ZM69.1181 45.272C68.5741 45.272 68.1181 45.096 67.7501 44.744C67.3981 44.376 67.2221 43.92 67.2221 43.376C67.2221 42.816 67.3981 42.36 67.7501 42.008C68.1021 41.656 68.5581 41.48 69.1181 41.48C69.6781 41.48 70.1341 41.656 70.4861 42.008C70.8381 42.36 71.0141 42.816 71.0141 43.376C71.0141 43.92 70.8301 44.376 70.4621 44.744C70.1101 45.096 69.6621 45.272 69.1181 45.272ZM67.6781 59C67.5981 59 67.5261 58.976 67.4621 58.928C67.4141 58.864 67.3901 58.792 67.3901 58.712V46.928C67.3901 46.848 67.4141 46.784 67.4621 46.736C67.5261 46.672 67.5981 46.64 67.6781 46.64H70.4861C70.5661 46.64 70.6301 46.672 70.6781 46.736C70.7421 46.784 70.7741 46.848 70.7741 46.928V58.712C70.7741 58.792 70.7421 58.864 70.6781 58.928C70.6301 58.976 70.5661 59 70.4861 59H67.6781ZM81.1473 46.952C81.1473 46.872 81.1713 46.808 81.2193 46.76C81.2833 46.696 81.3553 46.664 81.4353 46.664H84.2433C84.3233 46.664 84.3873 46.696 84.4353 46.76C84.4993 46.808 84.5313 46.872 84.5313 46.952V57.896C84.5313 59.992 83.9233 61.488 82.7073 62.384C81.5073 63.28 79.9553 63.728 78.0513 63.728C77.4913 63.728 76.8673 63.688 76.1793 63.608C76.0193 63.592 75.9393 63.488 75.9393 63.296L76.0353 60.824C76.0353 60.616 76.1473 60.528 76.3713 60.56C76.9473 60.656 77.4753 60.704 77.9553 60.704C78.9793 60.704 79.7633 60.48 80.3073 60.032C80.8673 59.584 81.1473 58.864 81.1473 57.872C81.1473 57.824 81.1313 57.8 81.0993 57.8C81.0673 57.784 81.0353 57.792 81.0033 57.824C80.3953 58.48 79.5073 58.808 78.3393 58.808C77.2993 58.808 76.3393 58.56 75.4593 58.064C74.5953 57.552 73.9793 56.736 73.6113 55.616C73.3713 54.88 73.2513 53.928 73.2513 52.76C73.2513 51.512 73.3953 50.496 73.6833 49.712C74.0193 48.736 74.5873 47.952 75.3873 47.36C76.1873 46.768 77.1153 46.472 78.1713 46.472C79.4033 46.472 80.3473 46.84 81.0033 47.576C81.0353 47.608 81.0673 47.624 81.0993 47.624C81.1313 47.608 81.1473 47.576 81.1473 47.528V46.952ZM80.9553 54.704C81.0833 54.224 81.1473 53.568 81.1473 52.736C81.1473 52.24 81.1313 51.856 81.0993 51.584C81.0673 51.312 81.0113 51.056 80.9313 50.816C80.7873 50.384 80.5473 50.04 80.2113 49.784C79.8753 49.512 79.4593 49.376 78.9633 49.376C78.4833 49.376 78.0753 49.512 77.7393 49.784C77.4033 50.04 77.1553 50.384 76.9953 50.816C76.7713 51.296 76.6593 51.944 76.6593 52.76C76.6593 53.656 76.7553 54.296 76.9473 54.68C77.0913 55.112 77.3393 55.464 77.6913 55.736C78.0593 55.992 78.4913 56.12 78.9873 56.12C79.4993 56.12 79.9233 55.992 80.2593 55.736C80.5953 55.464 80.8273 55.12 80.9553 54.704ZM93.5792 46.472C94.8592 46.472 95.8912 46.864 96.6752 47.648C97.4592 48.432 97.8512 49.496 97.8512 50.84V58.712C97.8512 58.792 97.8192 58.864 97.7552 58.928C97.7072 58.976 97.6432 59 97.5632 59H94.7552C94.6752 59 94.6032 58.976 94.5392 58.928C94.4912 58.864 94.4672 58.792 94.4672 58.712V51.536C94.4672 50.896 94.2832 50.376 93.9152 49.976C93.5632 49.576 93.0912 49.376 92.4992 49.376C91.9072 49.376 91.4272 49.576 91.0592 49.976C90.7072 50.376 90.5312 50.896 90.5312 51.536V58.712C90.5312 58.792 90.4992 58.864 90.4352 58.928C90.3872 58.976 90.3232 59 90.2432 59H87.4352C87.3552 59 87.2832 58.976 87.2192 58.928C87.1712 58.864 87.1472 58.792 87.1472 58.712V42.488C87.1472 42.408 87.1712 42.344 87.2192 42.296C87.2832 42.232 87.3552 42.2 87.4352 42.2H90.2432C90.3232 42.2 90.3872 42.232 90.4352 42.296C90.4992 42.344 90.5312 42.408 90.5312 42.488V47.792C90.5312 47.84 90.5472 47.872 90.5792 47.888C90.6112 47.904 90.6352 47.896 90.6512 47.864C91.3072 46.936 92.2832 46.472 93.5792 46.472ZM27.9086 66.176C28.9646 66.176 29.8926 66.392 30.6926 66.824C31.4926 67.256 32.1086 67.872 32.5406 68.672C32.9886 69.456 33.2126 70.36 33.2126 71.384C33.2126 72.392 32.9806 73.28 32.5166 74.048C32.0686 74.816 31.4286 75.416 30.5966 75.848C29.7806 76.264 28.8366 76.472 27.7646 76.472H24.3566C24.2766 76.472 24.2366 76.512 24.2366 76.592V82.712C24.2366 82.792 24.2046 82.864 24.1406 82.928C24.0926 82.976 24.0286 83 23.9486 83H21.1406C21.0606 83 20.9886 82.976 20.9246 82.928C20.8766 82.864 20.8526 82.792 20.8526 82.712V66.464C20.8526 66.384 20.8766 66.32 20.9246 66.272C20.9886 66.208 21.0606 66.176 21.1406 66.176H27.9086ZM27.4046 73.76C28.1406 73.76 28.7326 73.552 29.1806 73.136C29.6286 72.704 29.8526 72.144 29.8526 71.456C29.8526 70.752 29.6286 70.184 29.1806 69.752C28.7326 69.32 28.1406 69.104 27.4046 69.104H24.3566C24.2766 69.104 24.2366 69.144 24.2366 69.224V73.64C24.2366 73.72 24.2766 73.76 24.3566 73.76H27.4046ZM45.4938 75.56C45.5898 76.168 45.6218 76.848 45.5898 77.6C45.5738 77.792 45.4698 77.888 45.2778 77.888H37.8618C37.7658 77.888 37.7338 77.928 37.7658 78.008C37.8138 78.328 37.9018 78.648 38.0298 78.968C38.4458 79.864 39.2938 80.312 40.5738 80.312C41.5978 80.296 42.4058 79.88 42.9978 79.064C43.0618 78.968 43.1338 78.92 43.2138 78.92C43.2618 78.92 43.3178 78.952 43.3818 79.016L45.1098 80.72C45.1898 80.8 45.2298 80.872 45.2298 80.936C45.2298 80.968 45.1978 81.032 45.1338 81.128C44.6058 81.784 43.9258 82.296 43.0938 82.664C42.2618 83.016 41.3498 83.192 40.3578 83.192C38.9818 83.192 37.8138 82.88 36.8538 82.256C35.9098 81.632 35.2298 80.76 34.8138 79.64C34.4778 78.84 34.3098 77.792 34.3098 76.496C34.3098 75.616 34.4298 74.84 34.6698 74.168C35.0378 73.032 35.6778 72.128 36.5898 71.456C37.5178 70.784 38.6138 70.448 39.8778 70.448C41.4778 70.448 42.7578 70.912 43.7178 71.84C44.6938 72.768 45.2858 74.008 45.4938 75.56ZM39.9018 73.376C38.8938 73.376 38.2298 73.848 37.9098 74.792C37.8458 75 37.7898 75.256 37.7418 75.56C37.7418 75.64 37.7818 75.68 37.8618 75.68H42.0138C42.1098 75.68 42.1418 75.64 42.1098 75.56C42.0298 75.096 41.9898 74.872 41.9898 74.888C41.8458 74.408 41.5898 74.04 41.2218 73.784C40.8698 73.512 40.4298 73.376 39.9018 73.376ZM54.0193 70.496C54.5953 70.496 55.0513 70.608 55.3873 70.832C55.5153 70.896 55.5633 71.016 55.5313 71.192L55.0273 73.928C55.0113 74.12 54.8993 74.176 54.6913 74.096C54.4513 74.016 54.1713 73.976 53.8513 73.976C53.7233 73.976 53.5473 73.992 53.3233 74.024C52.7473 74.072 52.2593 74.288 51.8593 74.672C51.4593 75.04 51.2593 75.536 51.2593 76.16V82.712C51.2593 82.792 51.2273 82.864 51.1633 82.928C51.1153 82.976 51.0513 83 50.9713 83H48.1633C48.0833 83 48.0113 82.976 47.9473 82.928C47.8993 82.864 47.8753 82.792 47.8753 82.712V70.952C47.8753 70.872 47.8993 70.808 47.9473 70.76C48.0113 70.696 48.0833 70.664 48.1633 70.664H50.9713C51.0513 70.664 51.1153 70.696 51.1633 70.76C51.2273 70.808 51.2593 70.872 51.2593 70.952V71.864C51.2593 71.912 51.2753 71.944 51.3073 71.96C51.3393 71.976 51.3633 71.968 51.3793 71.936C52.0353 70.976 52.9153 70.496 54.0193 70.496ZM64.4355 70.64C64.5155 70.64 64.5795 70.672 64.6275 70.736C64.6915 70.784 64.7235 70.848 64.7235 70.928V73.208C64.7235 73.288 64.6915 73.36 64.6275 73.424C64.5795 73.472 64.5155 73.496 64.4355 73.496H62.1075C62.0275 73.496 61.9875 73.536 61.9875 73.616V82.712C61.9875 82.792 61.9555 82.864 61.8915 82.928C61.8435 82.976 61.7795 83 61.6995 83H58.8915C58.8115 83 58.7395 82.976 58.6755 82.928C58.6275 82.864 58.6035 82.792 58.6035 82.712V73.616C58.6035 73.536 58.5635 73.496 58.4835 73.496H57.0675C56.9875 73.496 56.9155 73.472 56.8515 73.424C56.8035 73.36 56.7795 73.288 56.7795 73.208V70.928C56.7795 70.848 56.8035 70.784 56.8515 70.736C56.9155 70.672 56.9875 70.64 57.0675 70.64H58.4835C58.5635 70.64 58.6035 70.6 58.6035 70.52V69.992C58.6035 69 58.7555 68.232 59.0595 67.688C59.3635 67.128 59.8515 66.736 60.5235 66.512C61.2115 66.272 62.1555 66.168 63.3555 66.2H64.2675C64.3475 66.2 64.4115 66.232 64.4595 66.296C64.5235 66.344 64.5555 66.408 64.5555 66.488V68.432C64.5555 68.512 64.5235 68.584 64.4595 68.648C64.4115 68.696 64.3475 68.72 64.2675 68.72H63.4755C62.9155 68.736 62.5235 68.856 62.2995 69.08C62.0915 69.288 61.9875 69.68 61.9875 70.256V70.52C61.9875 70.6 62.0275 70.64 62.1075 70.64H64.4355ZM71.5827 83.192C70.2387 83.192 69.0867 82.84 68.1267 82.136C67.1667 81.432 66.5107 80.472 66.1587 79.256C65.9347 78.504 65.8227 77.688 65.8227 76.808C65.8227 75.864 65.9347 75.016 66.1587 74.264C66.5267 73.08 67.1907 72.152 68.1507 71.48C69.1107 70.808 70.2627 70.472 71.6067 70.472C72.9187 70.472 74.0387 70.808 74.9667 71.48C75.8947 72.136 76.5507 73.056 76.9347 74.24C77.1907 75.04 77.3187 75.88 77.3187 76.76C77.3187 77.624 77.2067 78.432 76.9827 79.184C76.6307 80.432 75.9747 81.416 75.0147 82.136C74.0707 82.84 72.9267 83.192 71.5827 83.192ZM71.5827 80.288C72.1107 80.288 72.5587 80.128 72.9267 79.808C73.2947 79.488 73.5587 79.048 73.7187 78.488C73.8467 77.976 73.9107 77.416 73.9107 76.808C73.9107 76.136 73.8467 75.568 73.7187 75.104C73.5427 74.56 73.2707 74.136 72.9027 73.832C72.5347 73.528 72.0867 73.376 71.5587 73.376C71.0147 73.376 70.5587 73.528 70.1907 73.832C69.8387 74.136 69.5827 74.56 69.4227 75.104C69.2947 75.488 69.2307 76.056 69.2307 76.808C69.2307 77.528 69.2867 78.088 69.3987 78.488C69.5587 79.048 69.8227 79.488 70.1907 79.808C70.5747 80.128 71.0387 80.288 71.5827 80.288ZM85.8381 70.496C86.4141 70.496 86.8701 70.608 87.2061 70.832C87.3341 70.896 87.3821 71.016 87.3501 71.192L86.8461 73.928C86.8301 74.12 86.7181 74.176 86.5101 74.096C86.2701 74.016 85.9901 73.976 85.6701 73.976C85.5421 73.976 85.3661 73.992 85.1421 74.024C84.5661 74.072 84.0781 74.288 83.6781 74.672C83.2781 75.04 83.0781 75.536 83.0781 76.16V82.712C83.0781 82.792 83.0461 82.864 82.9821 82.928C82.9341 82.976 82.8701 83 82.7901 83H79.9821C79.9021 83 79.8301 82.976 79.7661 82.928C79.7181 82.864 79.6941 82.792 79.6941 82.712V70.952C79.6941 70.872 79.7181 70.808 79.7661 70.76C79.8301 70.696 79.9021 70.664 79.9821 70.664H82.7901C82.8701 70.664 82.9341 70.696 82.9821 70.76C83.0461 70.808 83.0781 70.872 83.0781 70.952V71.864C83.0781 71.912 83.0941 71.944 83.1261 71.96C83.1581 71.976 83.1821 71.968 83.1981 71.936C83.8541 70.976 84.7341 70.496 85.8381 70.496ZM102.762 70.472C104.01 70.472 104.986 70.848 105.69 71.6C106.394 72.352 106.746 73.408 106.746 74.768V82.712C106.746 82.792 106.714 82.864 106.65 82.928C106.602 82.976 106.538 83 106.458 83H103.65C103.57 83 103.498 82.976 103.434 82.928C103.386 82.864 103.362 82.792 103.362 82.712V75.512C103.362 74.856 103.194 74.336 102.858 73.952C102.522 73.568 102.074 73.376 101.514 73.376C100.954 73.376 100.498 73.568 100.146 73.952C99.7936 74.336 99.6176 74.848 99.6176 75.488V82.712C99.6176 82.792 99.5856 82.864 99.5216 82.928C99.4736 82.976 99.4096 83 99.3296 83H96.5456C96.4656 83 96.3936 82.976 96.3296 82.928C96.2816 82.864 96.2576 82.792 96.2576 82.712V75.512C96.2576 74.872 96.0816 74.36 95.7296 73.976C95.3776 73.576 94.9216 73.376 94.3616 73.376C93.8496 73.376 93.4176 73.528 93.0656 73.832C92.7296 74.136 92.5296 74.56 92.4656 75.104V82.712C92.4656 82.792 92.4336 82.864 92.3696 82.928C92.3216 82.976 92.2576 83 92.1776 83H89.3696C89.2896 83 89.2176 82.976 89.1536 82.928C89.1056 82.864 89.0816 82.792 89.0816 82.712V70.952C89.0816 70.872 89.1056 70.808 89.1536 70.76C89.2176 70.696 89.2896 70.664 89.3696 70.664H92.1776C92.2576 70.664 92.3216 70.696 92.3696 70.76C92.4336 70.808 92.4656 70.872 92.4656 70.952V71.888C92.4656 71.936 92.4816 71.968 92.5136 71.984C92.5456 72 92.5776 71.984 92.6096 71.936C93.2656 70.96 94.2816 70.472 95.6576 70.472C96.4576 70.472 97.1536 70.64 97.7456 70.976C98.3536 71.312 98.8176 71.792 99.1376 72.416C99.1856 72.512 99.2416 72.512 99.3056 72.416C99.6576 71.76 100.13 71.272 100.722 70.952C101.33 70.632 102.01 70.472 102.762 70.472ZM120.17 75.56C120.266 76.168 120.298 76.848 120.266 77.6C120.25 77.792 120.146 77.888 119.954 77.888H112.538C112.442 77.888 112.41 77.928 112.442 78.008C112.49 78.328 112.578 78.648 112.706 78.968C113.122 79.864 113.97 80.312 115.25 80.312C116.274 80.296 117.082 79.88 117.674 79.064C117.738 78.968 117.81 78.92 117.89 78.92C117.938 78.92 117.994 78.952 118.058 79.016L119.786 80.72C119.866 80.8 119.906 80.872 119.906 80.936C119.906 80.968 119.874 81.032 119.81 81.128C119.282 81.784 118.602 82.296 117.77 82.664C116.938 83.016 116.026 83.192 115.034 83.192C113.658 83.192 112.49 82.88 111.53 82.256C110.586 81.632 109.906 80.76 109.49 79.64C109.154 78.84 108.986 77.792 108.986 76.496C108.986 75.616 109.106 74.84 109.346 74.168C109.714 73.032 110.354 72.128 111.266 71.456C112.194 70.784 113.29 70.448 114.554 70.448C116.154 70.448 117.434 70.912 118.394 71.84C119.37 72.768 119.962 74.008 120.17 75.56ZM114.578 73.376C113.57 73.376 112.906 73.848 112.586 74.792C112.522 75 112.466 75.256 112.418 75.56C112.418 75.64 112.458 75.68 112.538 75.68H116.69C116.786 75.68 116.818 75.64 116.786 75.56C116.706 75.096 116.666 74.872 116.666 74.888C116.522 74.408 116.266 74.04 115.898 73.784C115.546 73.512 115.106 73.376 114.578 73.376ZM128.696 70.496C129.272 70.496 129.728 70.608 130.064 70.832C130.192 70.896 130.24 71.016 130.208 71.192L129.704 73.928C129.688 74.12 129.576 74.176 129.368 74.096C129.128 74.016 128.848 73.976 128.528 73.976C128.4 73.976 128.224 73.992 128 74.024C127.424 74.072 126.936 74.288 126.536 74.672C126.136 75.04 125.936 75.536 125.936 76.16V82.712C125.936 82.792 125.904 82.864 125.84 82.928C125.792 82.976 125.728 83 125.648 83H122.84C122.76 83 122.688 82.976 122.624 82.928C122.576 82.864 122.552 82.792 122.552 82.712V70.952C122.552 70.872 122.576 70.808 122.624 70.76C122.688 70.696 122.76 70.664 122.84 70.664H125.648C125.728 70.664 125.792 70.696 125.84 70.76C125.904 70.808 125.936 70.872 125.936 70.952V71.864C125.936 71.912 125.952 71.944 125.984 71.96C126.016 71.976 126.04 71.968 126.056 71.936C126.712 70.976 127.592 70.496 128.696 70.496Z" fill="#252530"/>
<path d="M44.7824 94.928C44.8358 94.8427 44.9104 94.8 45.0064 94.8H46.4784C46.5318 94.8 46.5744 94.8213 46.6064 94.864C46.6491 94.896 46.6704 94.9387 46.6704 94.992V105.808C46.6704 105.861 46.6491 105.909 46.6064 105.952C46.5744 105.984 46.5318 106 46.4784 106H45.0064C44.9531 106 44.9051 105.984 44.8624 105.952C44.8304 105.909 44.8144 105.861 44.8144 105.808V98.176C44.8144 98.144 44.7984 98.1227 44.7664 98.112C44.7451 98.1013 44.7291 98.112 44.7184 98.144L42.7184 101.216C42.6651 101.301 42.5904 101.344 42.4944 101.344H41.7584C41.6624 101.344 41.5878 101.301 41.5344 101.216L39.5184 98.16C39.5078 98.128 39.4864 98.1173 39.4544 98.128C39.4331 98.1387 39.4224 98.16 39.4224 98.192V105.808C39.4224 105.861 39.4011 105.909 39.3584 105.952C39.3264 105.984 39.2838 106 39.2304 106H37.7584C37.7051 106 37.6571 105.984 37.6144 105.952C37.5824 105.909 37.5664 105.861 37.5664 105.808V94.992C37.5664 94.9387 37.5824 94.896 37.6144 94.864C37.6571 94.8213 37.7051 94.8 37.7584 94.8H39.2304C39.3264 94.8 39.4011 94.8427 39.4544 94.928L42.0624 98.88C42.0838 98.9013 42.1051 98.912 42.1264 98.912C42.1478 98.912 42.1638 98.9013 42.1744 98.88L44.7824 94.928ZM49.3839 96.704C49.0533 96.704 48.7813 96.5973 48.5679 96.384C48.3546 96.1707 48.2479 95.8987 48.2479 95.568C48.2479 95.2373 48.3546 94.9653 48.5679 94.752C48.7813 94.5387 49.0533 94.432 49.3839 94.432C49.7146 94.432 49.9866 94.5387 50.1999 94.752C50.4133 94.9653 50.5199 95.2373 50.5199 95.568C50.5199 95.8987 50.4133 96.1707 50.1999 96.384C49.9866 96.5973 49.7146 96.704 49.3839 96.704ZM48.6159 106C48.5626 106 48.5146 105.984 48.4719 105.952C48.4399 105.909 48.4239 105.861 48.4239 105.808V98C48.4239 97.9467 48.4399 97.904 48.4719 97.872C48.5146 97.8293 48.5626 97.808 48.6159 97.808H50.0879C50.1413 97.808 50.1839 97.8293 50.2159 97.872C50.2586 97.904 50.2799 97.9467 50.2799 98V105.808C50.2799 105.861 50.2586 105.909 50.2159 105.952C50.1839 105.984 50.1413 106 50.0879 106H48.6159ZM56.9781 94.992C56.9781 94.9387 56.9941 94.896 57.0261 94.864C57.0687 94.8213 57.1167 94.8 57.1701 94.8H58.6421C58.6954 94.8 58.7381 94.8213 58.7701 94.864C58.8127 94.896 58.8341 94.9387 58.8341 94.992V105.808C58.8341 105.861 58.8127 105.909 58.7701 105.952C58.7381 105.984 58.6954 106 58.6421 106H57.1701C57.1167 106 57.0687 105.984 57.0261 105.952C56.9941 105.909 56.9781 105.861 56.9781 105.808V105.328C56.9781 105.296 56.9674 105.275 56.9461 105.264C56.9247 105.253 56.9034 105.264 56.8821 105.296C56.4127 105.851 55.7994 106.128 55.0421 106.128C54.2847 106.128 53.6447 105.931 53.1221 105.536C52.5994 105.141 52.2207 104.592 51.9861 103.888C51.7941 103.291 51.6981 102.624 51.6981 101.888C51.6981 101.131 51.7887 100.48 51.9701 99.936C52.2047 99.232 52.5834 98.6827 53.1061 98.288C53.6287 97.8933 54.2847 97.696 55.0741 97.696C55.8101 97.696 56.4127 97.9627 56.8821 98.496C56.9034 98.5173 56.9247 98.528 56.9461 98.528C56.9674 98.5173 56.9781 98.496 56.9781 98.464V94.992ZM56.5941 103.76C56.8394 103.323 56.9621 102.704 56.9621 101.904C56.9621 101.072 56.8287 100.437 56.5621 100C56.2741 99.5307 55.8687 99.296 55.3461 99.296C54.8021 99.296 54.3754 99.52 54.0661 99.968C53.7461 100.437 53.5861 101.088 53.5861 101.92C53.5861 102.667 53.7141 103.28 53.9701 103.76C54.2687 104.272 54.7221 104.528 55.3301 104.528C55.8741 104.528 56.2954 104.272 56.5941 103.76ZM62.7587 101.984C62.7054 101.984 62.6574 101.968 62.6147 101.936C62.5827 101.893 62.5667 101.845 62.5667 101.792V100.576C62.5667 100.523 62.5827 100.48 62.6147 100.448C62.6574 100.405 62.7054 100.384 62.7587 100.384H67.7987C67.852 100.384 67.8947 100.405 67.9267 100.448C67.9694 100.48 67.9907 100.523 67.9907 100.576V101.792C67.9907 101.845 67.9694 101.893 67.9267 101.936C67.8947 101.968 67.852 101.984 67.7987 101.984H62.7587ZM76.4074 94.928C76.4608 94.8427 76.5354 94.8 76.6314 94.8H78.1034C78.1568 94.8 78.1994 94.8213 78.2314 94.864C78.2741 94.896 78.2954 94.9387 78.2954 94.992V105.808C78.2954 105.861 78.2741 105.909 78.2314 105.952C78.1994 105.984 78.1568 106 78.1034 106H76.6314C76.5781 106 76.5301 105.984 76.4874 105.952C76.4554 105.909 76.4394 105.861 76.4394 105.808V98.176C76.4394 98.144 76.4234 98.1227 76.3914 98.112C76.3701 98.1013 76.3541 98.112 76.3434 98.144L74.3434 101.216C74.2901 101.301 74.2154 101.344 74.1194 101.344H73.3834C73.2874 101.344 73.2128 101.301 73.1594 101.216L71.1434 98.16C71.1328 98.128 71.1114 98.1173 71.0794 98.128C71.0581 98.1387 71.0474 98.16 71.0474 98.192V105.808C71.0474 105.861 71.0261 105.909 70.9834 105.952C70.9514 105.984 70.9088 106 70.8554 106H69.3834C69.3301 106 69.2821 105.984 69.2394 105.952C69.2074 105.909 69.1914 105.861 69.1914 105.808V94.992C69.1914 94.9387 69.2074 94.896 69.2394 94.864C69.2821 94.8213 69.3301 94.8 69.3834 94.8H70.8554C70.9514 94.8 71.0261 94.8427 71.0794 94.928L73.6874 98.88C73.7088 98.9013 73.7301 98.912 73.7514 98.912C73.7728 98.912 73.7888 98.9013 73.7994 98.88L76.4074 94.928ZM83.0729 97.696C83.7449 97.696 84.3369 97.8133 84.8489 98.048C85.3609 98.2827 85.7556 98.608 86.0329 99.024C86.3103 99.4293 86.4489 99.8933 86.4489 100.416V105.808C86.4489 105.861 86.4276 105.909 86.3849 105.952C86.3529 105.984 86.3103 106 86.2569 106H84.7849C84.7316 106 84.6836 105.984 84.6409 105.952C84.6089 105.909 84.5929 105.861 84.5929 105.808V105.296C84.5929 105.264 84.5823 105.248 84.5609 105.248C84.5396 105.237 84.5183 105.243 84.4969 105.264C83.9743 105.84 83.2169 106.128 82.2249 106.128C81.4249 106.128 80.7636 105.925 80.2409 105.52C79.7289 105.115 79.4729 104.512 79.4729 103.712C79.4729 102.88 79.7609 102.235 80.3369 101.776C80.9236 101.307 81.7449 101.072 82.8009 101.072H84.5129C84.5663 101.072 84.5929 101.045 84.5929 100.992V100.608C84.5929 100.192 84.4703 99.872 84.2249 99.648C83.9796 99.4133 83.6116 99.296 83.1209 99.296C82.7156 99.296 82.3849 99.3707 82.1289 99.52C81.8836 99.6587 81.7289 99.856 81.6649 100.112C81.6329 100.24 81.5583 100.293 81.4409 100.272L79.8889 100.08C79.8356 100.069 79.7876 100.053 79.7449 100.032C79.7129 100 79.7023 99.9627 79.7129 99.92C79.7983 99.2693 80.1449 98.736 80.7529 98.32C81.3716 97.904 82.1449 97.696 83.0729 97.696ZM82.6889 104.656C83.2116 104.656 83.6596 104.517 84.0329 104.24C84.4063 103.963 84.5929 103.611 84.5929 103.184V102.432C84.5929 102.379 84.5663 102.352 84.5129 102.352H83.1689C82.6036 102.352 82.1556 102.459 81.8249 102.672C81.5049 102.885 81.3449 103.189 81.3449 103.584C81.3449 103.925 81.4676 104.192 81.7129 104.384C81.9689 104.565 82.2943 104.656 82.6889 104.656ZM91.6203 97.728C91.9616 97.728 92.2603 97.7973 92.5163 97.936C92.6016 97.9787 92.6336 98.0587 92.6123 98.176L92.3403 99.616C92.3296 99.744 92.255 99.7813 92.1163 99.728C91.9563 99.6747 91.7696 99.648 91.5563 99.648C91.4176 99.648 91.311 99.6533 91.2363 99.664C90.7883 99.6853 90.415 99.8453 90.1163 100.144C89.8176 100.432 89.6683 100.811 89.6683 101.28V105.808C89.6683 105.861 89.647 105.909 89.6043 105.952C89.5723 105.984 89.5296 106 89.4763 106H88.0043C87.951 106 87.903 105.984 87.8603 105.952C87.8283 105.909 87.8123 105.861 87.8123 105.808V98.016C87.8123 97.9627 87.8283 97.92 87.8603 97.888C87.903 97.8453 87.951 97.824 88.0043 97.824H89.4763C89.5296 97.824 89.5723 97.8453 89.6043 97.888C89.647 97.92 89.6683 97.9627 89.6683 98.016V98.736C89.6683 98.7787 89.6736 98.8053 89.6843 98.816C89.7056 98.816 89.727 98.8 89.7483 98.768C90.1963 98.0747 90.8203 97.728 91.6203 97.728ZM93.5199 106C93.4666 106 93.4186 105.984 93.3759 105.952C93.3439 105.909 93.3279 105.861 93.3279 105.808V94.992C93.3279 94.9387 93.3439 94.896 93.3759 94.864C93.4186 94.8213 93.4666 94.8 93.5199 94.8H94.9919C95.0453 94.8 95.0879 94.8213 95.1199 94.864C95.1626 94.896 95.1839 94.9387 95.1839 94.992V100.768C95.1839 100.8 95.1946 100.821 95.2159 100.832C95.2373 100.843 95.2586 100.832 95.2799 100.8L97.8719 97.936C97.9466 97.8613 98.0266 97.824 98.1119 97.824H99.8079C99.9146 97.824 99.9679 97.8613 99.9679 97.936C99.9679 97.968 99.9519 98.0107 99.9199 98.064L97.8879 100.496C97.8559 100.528 97.8506 100.565 97.8719 100.608L100.272 105.776C100.293 105.819 100.304 105.851 100.304 105.872C100.304 105.957 100.245 106 100.128 106H98.5759C98.4693 106 98.3946 105.952 98.3519 105.856L96.6079 101.792C96.5973 101.771 96.5759 101.76 96.5439 101.76C96.5226 101.749 96.5066 101.755 96.4959 101.776L95.2159 103.248C95.1946 103.291 95.1839 103.328 95.1839 103.36V105.808C95.1839 105.861 95.1626 105.909 95.1199 105.952C95.0879 105.984 95.0453 106 94.9919 106H93.5199ZM107.505 100.992C107.548 101.259 107.569 101.557 107.569 101.888L107.553 102.384C107.553 102.512 107.489 102.576 107.361 102.576H102.353C102.3 102.576 102.273 102.603 102.273 102.656C102.305 103.008 102.353 103.248 102.417 103.376C102.673 104.144 103.297 104.533 104.289 104.544C105.015 104.544 105.591 104.245 106.017 103.648C106.06 103.584 106.113 103.552 106.177 103.552C106.22 103.552 106.257 103.568 106.289 103.6L107.281 104.416C107.377 104.491 107.393 104.576 107.329 104.672C106.999 105.141 106.556 105.504 106.001 105.76C105.457 106.016 104.849 106.144 104.177 106.144C103.345 106.144 102.636 105.957 102.049 105.584C101.473 105.211 101.052 104.688 100.785 104.016C100.54 103.44 100.417 102.64 100.417 101.616C100.417 100.997 100.481 100.496 100.609 100.112C100.823 99.3653 101.223 98.7787 101.809 98.352C102.407 97.9147 103.121 97.696 103.953 97.696C106.055 97.696 107.239 98.7947 107.505 100.992ZM103.953 99.296C103.559 99.296 103.228 99.3973 102.961 99.6C102.705 99.792 102.524 100.064 102.417 100.416C102.353 100.597 102.311 100.832 102.289 101.12C102.268 101.173 102.289 101.2 102.353 101.2H105.601C105.655 101.2 105.681 101.173 105.681 101.12C105.66 100.853 105.628 100.651 105.585 100.512C105.489 100.128 105.297 99.8293 105.009 99.616C104.732 99.4027 104.38 99.296 103.953 99.296ZM112.945 99.136C112.945 99.1893 112.924 99.2373 112.881 99.28C112.849 99.312 112.807 99.328 112.753 99.328H111.121C111.068 99.328 111.041 99.3547 111.041 99.408V103.264C111.041 103.669 111.127 103.963 111.297 104.144C111.479 104.325 111.761 104.416 112.145 104.416H112.625C112.679 104.416 112.721 104.437 112.753 104.48C112.796 104.512 112.817 104.555 112.817 104.608V105.808C112.817 105.925 112.753 105.995 112.625 106.016L111.793 106.032C110.951 106.032 110.321 105.888 109.905 105.6C109.489 105.312 109.276 104.768 109.265 103.968V99.408C109.265 99.3547 109.239 99.328 109.185 99.328H108.273C108.22 99.328 108.172 99.312 108.129 99.28C108.097 99.2373 108.081 99.1893 108.081 99.136V98.016C108.081 97.9627 108.097 97.92 108.129 97.888C108.172 97.8453 108.22 97.824 108.273 97.824H109.185C109.239 97.824 109.265 97.7973 109.265 97.744V95.872C109.265 95.8187 109.281 95.776 109.313 95.744C109.356 95.7013 109.404 95.68 109.457 95.68H110.849C110.903 95.68 110.945 95.7013 110.977 95.744C111.02 95.776 111.041 95.8187 111.041 95.872V97.744C111.041 97.7973 111.068 97.824 111.121 97.824H112.753C112.807 97.824 112.849 97.8453 112.881 97.888C112.924 97.92 112.945 97.9627 112.945 98.016V99.136Z" fill="white"/>
<path d="M49.7529 131C49.6355 131 49.5609 130.947 49.5289 130.84L46.6969 120.008L46.6809 119.944C46.6809 119.848 46.7395 119.8 46.8569 119.8H48.8409C48.9475 119.8 49.0169 119.853 49.0489 119.96L50.5689 126.472C50.5795 126.515 50.5955 126.536 50.6169 126.536C50.6382 126.536 50.6542 126.515 50.6649 126.472L52.1369 119.976C52.1689 119.859 52.2382 119.8 52.3449 119.8H54.2809C54.3982 119.8 54.4729 119.853 54.5049 119.96L56.1049 126.472C56.1155 126.504 56.1315 126.525 56.1529 126.536C56.1742 126.536 56.1902 126.515 56.2009 126.472L57.6729 119.976C57.7049 119.859 57.7742 119.8 57.8809 119.8H59.7689C59.9182 119.8 59.9769 119.869 59.9449 120.008L57.3209 130.84C57.2889 130.947 57.2142 131 57.0969 131H55.1929C55.0862 131 55.0169 130.947 54.9849 130.84L53.3529 123.912C53.3422 123.869 53.3262 123.848 53.3049 123.848C53.2835 123.848 53.2675 123.869 53.2569 123.912L51.7369 130.824C51.7155 130.941 51.6462 131 51.5289 131H49.7529ZM61.4961 131C61.4428 131 61.3948 130.984 61.3521 130.952C61.3201 130.909 61.3041 130.861 61.3041 130.808V119.992C61.3041 119.939 61.3201 119.896 61.3521 119.864C61.3948 119.821 61.4428 119.8 61.4961 119.8H63.3681C63.4215 119.8 63.4641 119.821 63.4961 119.864C63.5388 119.896 63.5601 119.939 63.5601 119.992V130.808C63.5601 130.861 63.5388 130.909 63.4961 130.952C63.4641 130.984 63.4215 131 63.3681 131H61.4961ZM71.9393 119.992C71.9393 119.939 71.9553 119.896 71.9873 119.864C72.0299 119.821 72.0779 119.8 72.1313 119.8H74.0033C74.0566 119.8 74.0993 119.821 74.1313 119.864C74.1739 119.896 74.1953 119.939 74.1953 119.992V130.808C74.1953 130.861 74.1739 130.909 74.1313 130.952C74.0993 130.984 74.0566 131 74.0033 131H72.1953C72.0886 131 72.0139 130.957 71.9713 130.872L67.8273 124.024C67.8059 123.992 67.7846 123.981 67.7633 123.992C67.7419 123.992 67.7313 124.013 67.7313 124.056L67.7633 130.808C67.7633 130.861 67.7419 130.909 67.6993 130.952C67.6673 130.984 67.6246 131 67.5713 131H65.6993C65.6459 131 65.5979 130.984 65.5553 130.952C65.5233 130.909 65.5073 130.861 65.5073 130.808V119.992C65.5073 119.939 65.5233 119.896 65.5553 119.864C65.5979 119.821 65.6459 119.8 65.6993 119.8H67.5073C67.6139 119.8 67.6886 119.843 67.7313 119.928L71.8593 126.744C71.8806 126.776 71.9019 126.792 71.9233 126.792C71.9446 126.781 71.9553 126.755 71.9553 126.712L71.9393 119.992ZM83.8759 119.8C83.9292 119.8 83.9719 119.821 84.0039 119.864C84.0465 119.896 84.0679 119.939 84.0679 119.992V121.56C84.0679 121.613 84.0465 121.661 84.0039 121.704C83.9719 121.736 83.9292 121.752 83.8759 121.752H81.0119C80.9585 121.752 80.9319 121.779 80.9319 121.832V130.808C80.9319 130.861 80.9105 130.909 80.8679 130.952C80.8359 130.984 80.7932 131 80.7399 131H78.8679C78.8145 131 78.7665 130.984 78.7239 130.952C78.6919 130.909 78.6759 130.861 78.6759 130.808V121.832C78.6759 121.779 78.6492 121.752 78.5959 121.752H75.8119C75.7585 121.752 75.7105 121.736 75.6679 121.704C75.6359 121.661 75.6199 121.613 75.6199 121.56V119.992C75.6199 119.939 75.6359 119.896 75.6679 119.864C75.7105 119.821 75.7585 119.8 75.8119 119.8H83.8759ZM93.2833 121.544C93.2833 121.597 93.2619 121.645 93.2193 121.688C93.1873 121.72 93.1446 121.736 93.0913 121.736H87.8433C87.7899 121.736 87.7633 121.763 87.7633 121.816V124.296C87.7633 124.349 87.7899 124.376 87.8433 124.376H91.2833C91.3366 124.376 91.3793 124.397 91.4113 124.44C91.4539 124.472 91.4753 124.515 91.4753 124.568V126.12C91.4753 126.173 91.4539 126.221 91.4113 126.264C91.3793 126.296 91.3366 126.312 91.2833 126.312H87.8433C87.7899 126.312 87.7633 126.339 87.7633 126.392V128.984C87.7633 129.037 87.7899 129.064 87.8433 129.064H93.0913C93.1446 129.064 93.1873 129.085 93.2193 129.128C93.2619 129.16 93.2833 129.203 93.2833 129.256V130.808C93.2833 130.861 93.2619 130.909 93.2193 130.952C93.1873 130.984 93.1446 131 93.0913 131H85.6993C85.6459 131 85.5979 130.984 85.5553 130.952C85.5233 130.909 85.5073 130.861 85.5073 130.808V119.992C85.5073 119.939 85.5233 119.896 85.5553 119.864C85.5979 119.821 85.6459 119.8 85.6993 119.8H93.0913C93.1446 119.8 93.1873 119.821 93.2193 119.864C93.2619 119.896 93.2833 119.939 93.2833 119.992V121.544ZM100.995 131C100.888 131 100.814 130.952 100.771 130.856L98.771 126.424C98.7497 126.381 98.7177 126.36 98.675 126.36H97.187C97.1337 126.36 97.107 126.387 97.107 126.44V130.808C97.107 130.861 97.0857 130.909 97.043 130.952C97.011 130.984 96.9683 131 96.915 131H95.043C94.9897 131 94.9417 130.984 94.899 130.952C94.867 130.909 94.851 130.861 94.851 130.808V119.992C94.851 119.939 94.867 119.896 94.899 119.864C94.9417 119.821 94.9897 119.8 95.043 119.8H99.619C100.302 119.8 100.899 119.939 101.411 120.216C101.934 120.493 102.334 120.888 102.611 121.4C102.899 121.912 103.043 122.504 103.043 123.176C103.043 123.901 102.862 124.525 102.499 125.048C102.136 125.56 101.63 125.923 100.979 126.136C100.926 126.157 100.91 126.195 100.931 126.248L103.107 130.776C103.128 130.819 103.139 130.851 103.139 130.872C103.139 130.957 103.08 131 102.963 131H100.995ZM97.187 121.736C97.1337 121.736 97.107 121.763 97.107 121.816V124.552C97.107 124.605 97.1337 124.632 97.187 124.632H99.283C99.731 124.632 100.094 124.499 100.371 124.232C100.659 123.965 100.803 123.619 100.803 123.192C100.803 122.765 100.659 122.419 100.371 122.152C100.094 121.875 99.731 121.736 99.283 121.736H97.187Z" fill="#252530"/>
<path d="M61.0014 144.968C60.9801 144.989 60.9748 145.011 60.9854 145.032C60.9961 145.053 61.0174 145.064 61.0494 145.064H65.3854C65.4388 145.064 65.4814 145.085 65.5134 145.128C65.5561 145.16 65.5774 145.203 65.5774 145.256V146.808C65.5774 146.861 65.5561 146.909 65.5134 146.952C65.4814 146.984 65.4388 147 65.3854 147H58.1854C58.1321 147 58.0841 146.984 58.0414 146.952C58.0094 146.909 57.9934 146.861 57.9934 146.808V145.336C57.9934 145.24 58.0254 145.16 58.0894 145.096C58.6121 144.584 59.1454 144.029 59.6894 143.432C60.2334 142.824 60.5748 142.445 60.7134 142.296C61.0121 141.944 61.3161 141.608 61.6254 141.288C62.5961 140.211 63.0814 139.411 63.0814 138.888C63.0814 138.515 62.9481 138.211 62.6814 137.976C62.4148 137.731 62.0681 137.608 61.6414 137.608C61.2148 137.608 60.8681 137.731 60.6014 137.976C60.3348 138.211 60.2014 138.525 60.2014 138.92V139.32C60.2014 139.373 60.1801 139.421 60.1374 139.464C60.1054 139.496 60.0628 139.512 60.0094 139.512H58.1214C58.0681 139.512 58.0201 139.496 57.9774 139.464C57.9454 139.421 57.9294 139.373 57.9294 139.32V138.568C57.9614 137.992 58.1428 137.485 58.4734 137.048C58.8041 136.6 59.2414 136.259 59.7854 136.024C60.3401 135.789 60.9588 135.672 61.6414 135.672C62.3988 135.672 63.0548 135.816 63.6094 136.104C64.1748 136.381 64.6068 136.76 64.9054 137.24C65.2148 137.72 65.3694 138.253 65.3694 138.84C65.3694 139.288 65.2574 139.747 65.0334 140.216C64.8094 140.685 64.4734 141.192 64.0254 141.736C63.6948 142.152 63.3374 142.563 62.9534 142.968C62.5694 143.373 61.9988 143.96 61.2414 144.728L61.0014 144.968ZM70.7706 147.176C69.5972 147.176 68.6692 146.851 67.9866 146.2C67.3039 145.539 66.9626 144.643 66.9626 143.512V139.288C66.9626 138.179 67.3039 137.299 67.9866 136.648C68.6692 135.997 69.5972 135.672 70.7706 135.672C71.9439 135.672 72.8719 135.997 73.5546 136.648C74.2479 137.299 74.5946 138.179 74.5946 139.288V143.512C74.5946 144.643 74.2479 145.539 73.5546 146.2C72.8719 146.851 71.9439 147.176 70.7706 147.176ZM70.7706 145.24C71.2506 145.24 71.6292 145.096 71.9066 144.808C72.1946 144.509 72.3386 144.115 72.3386 143.624V139.224C72.3386 138.733 72.1946 138.344 71.9066 138.056C71.6292 137.757 71.2506 137.608 70.7706 137.608C70.3012 137.608 69.9226 137.757 69.6346 138.056C69.3572 138.344 69.2186 138.733 69.2186 139.224V143.624C69.2186 144.115 69.3572 144.509 69.6346 144.808C69.9226 145.096 70.3012 145.24 70.7706 145.24ZM79.0796 144.968C79.0582 144.989 79.0529 145.011 79.0636 145.032C79.0742 145.053 79.0956 145.064 79.1276 145.064H83.4636C83.5169 145.064 83.5596 145.085 83.5916 145.128C83.6342 145.16 83.6556 145.203 83.6556 145.256V146.808C83.6556 146.861 83.6342 146.909 83.5916 146.952C83.5596 146.984 83.5169 147 83.4636 147H76.2636C76.2102 147 76.1622 146.984 76.1196 146.952C76.0876 146.909 76.0716 146.861 76.0716 146.808V145.336C76.0716 145.24 76.1036 145.16 76.1676 145.096C76.6902 144.584 77.2236 144.029 77.7676 143.432C78.3116 142.824 78.6529 142.445 78.7916 142.296C79.0902 141.944 79.3942 141.608 79.7036 141.288C80.6742 140.211 81.1596 139.411 81.1596 138.888C81.1596 138.515 81.0262 138.211 80.7596 137.976C80.4929 137.731 80.1462 137.608 79.7196 137.608C79.2929 137.608 78.9462 137.731 78.6796 137.976C78.4129 138.211 78.2796 138.525 78.2796 138.92V139.32C78.2796 139.373 78.2582 139.421 78.2156 139.464C78.1836 139.496 78.1409 139.512 78.0876 139.512H76.1996C76.1462 139.512 76.0982 139.496 76.0556 139.464C76.0236 139.421 76.0076 139.373 76.0076 139.32V138.568C76.0396 137.992 76.2209 137.485 76.5516 137.048C76.8822 136.6 77.3196 136.259 77.8636 136.024C78.4182 135.789 79.0369 135.672 79.7196 135.672C80.4769 135.672 81.1329 135.816 81.6876 136.104C82.2529 136.381 82.6849 136.76 82.9836 137.24C83.2929 137.72 83.4476 138.253 83.4476 138.84C83.4476 139.288 83.3356 139.747 83.1116 140.216C82.8876 140.685 82.5516 141.192 82.1036 141.736C81.7729 142.152 81.4156 142.563 81.0316 142.968C80.6476 143.373 80.0769 143.96 79.3196 144.728L79.0796 144.968ZM91.7179 141.656C91.9313 142.147 92.0379 142.712 92.0379 143.352C92.0379 143.928 91.9419 144.461 91.7499 144.952C91.4939 145.635 91.0619 146.168 90.4539 146.552C89.8566 146.936 89.1473 147.128 88.3259 147.128C87.5153 147.128 86.8006 146.925 86.1819 146.52C85.5739 146.115 85.1366 145.565 84.8699 144.872C84.7206 144.456 84.6353 144.008 84.6139 143.528C84.6139 143.4 84.6779 143.336 84.8059 143.336H86.6939C86.8219 143.336 86.8859 143.4 86.8859 143.528C86.9286 143.88 86.9873 144.141 87.0619 144.312C87.1579 144.589 87.3126 144.808 87.5259 144.968C87.7499 145.117 88.0113 145.192 88.3099 145.192C88.9073 145.192 89.3179 144.931 89.5419 144.408C89.6913 144.088 89.7659 143.715 89.7659 143.288C89.7659 142.787 89.6859 142.376 89.5259 142.056C89.2806 141.555 88.8699 141.304 88.2939 141.304C88.1766 141.304 88.0539 141.341 87.9259 141.416C87.7979 141.48 87.6433 141.576 87.4619 141.704C87.4193 141.736 87.3766 141.752 87.3339 141.752C87.2699 141.752 87.2219 141.72 87.1899 141.656L86.2459 140.328C86.2246 140.296 86.2139 140.259 86.2139 140.216C86.2139 140.152 86.2353 140.099 86.2779 140.056L88.8219 137.832C88.8433 137.811 88.8486 137.789 88.8379 137.768C88.8379 137.747 88.8219 137.736 88.7899 137.736H85.0299C84.9766 137.736 84.9286 137.72 84.8859 137.688C84.8539 137.645 84.8379 137.597 84.8379 137.544V135.992C84.8379 135.939 84.8539 135.896 84.8859 135.864C84.9286 135.821 84.9766 135.8 85.0299 135.8H91.7019C91.7553 135.8 91.7979 135.821 91.8299 135.864C91.8726 135.896 91.8939 135.939 91.8939 135.992V137.752C91.8939 137.837 91.8566 137.917 91.7819 137.992L89.6859 139.912C89.6646 139.933 89.6539 139.955 89.6539 139.976C89.6646 139.997 89.6913 140.008 89.7339 140.008C90.6619 140.189 91.3233 140.739 91.7179 141.656Z" fill="#252530"/>
</g>
<defs>
<clipPath id="clip0_15_434">
<rect width="150" height="168" fill="white"/>
</clipPath>
</defs>
</svg>
