<svg width="150" height="168" viewBox="0 0 150 168" fill="none" xmlns="http://www.w3.org/2000/svg">
<g clip-path="url(#clip0_15_184)">
<path d="M10 132.9V2H139V132.9L74.45 165.76L10 132.9Z" fill="white"/>
<path d="M137 4V131.67L74.45 163.51L12 131.67V4H137ZM141 0H8V134.12L74.45 168L141 134.12V0Z" fill="#DCDEDC"/>
<path d="M12.22 131.78L74.43 163.5L137 131.7V4.67999L12.22 131.78Z" fill="#F2F3F2"/>
<path d="M144.98 90H5.16966L0 101L5.16966 112H144.99L150 101L144.98 90Z" fill="#FFD200"/>
<path d="M75.0778 6.12022C75.7101 6.12022 76.3327 6.12022 76.965 6.27565L75.0778 9.87978C72.2471 9.72435 69.7374 11.9199 69.5817 14.7468C69.4261 17.5738 71.6245 20.0801 74.4553 20.2356H75.0875C76.3424 20.2356 77.5973 19.7693 78.5409 18.9824L80.5837 22.4311C79.0175 23.5288 77.1303 24.1603 75.0875 24.1603C70.0584 24.3157 65.8171 20.5562 65.6615 15.5337C65.5058 10.5112 69.2704 6.27565 74.2996 6.12022H75.0875H75.0778ZM81.5175 13.8045L83.8716 17.7292L81.5175 21.4985L79.3191 17.7292H74.7665L77.1206 13.8045H81.5175ZM77.7432 12.3959C77.7432 11.7644 77.8988 11.1427 78.2101 10.6667C78.5214 10.1906 79.1537 9.72435 79.6206 9.41348L79.9319 9.25805C80.5642 8.94718 80.7198 8.79174 80.7198 8.47116C80.7198 8.15058 80.2529 7.83971 79.9319 7.83971C79.2996 7.83971 78.8327 8.15058 78.5214 8.78203L77.7335 7.99514C77.8891 7.68427 78.2004 7.36369 78.5214 7.05282C78.9883 6.74196 79.465 6.74196 79.9319 6.74196C80.3988 6.74196 81.0311 6.89739 81.3424 7.20826C81.6537 7.51913 81.9747 7.99514 81.9747 8.46145C81.9747 9.24833 81.5078 9.87007 80.5642 10.1906L80.0973 10.5015C79.6303 10.8124 79.3093 10.9678 79.1537 11.4438H81.9844V12.5416L77.7432 12.3862V12.3959ZM75.0778 32L90 23.5288V0H60V23.3734L75.0778 32Z" fill="#FF492C"/>
<path d="M48.0593 44.816C48.0593 44.896 48.0273 44.968 47.9633 45.032C47.9153 45.08 47.8513 45.104 47.7713 45.104H39.8993C39.8193 45.104 39.7793 45.144 39.7793 45.224V48.944C39.7793 49.024 39.8193 49.064 39.8993 49.064H45.0593C45.1393 49.064 45.2033 49.096 45.2513 49.16C45.3153 49.208 45.3473 49.272 45.3473 49.352V51.68C45.3473 51.76 45.3153 51.832 45.2513 51.896C45.2033 51.944 45.1393 51.968 45.0593 51.968H39.8993C39.8193 51.968 39.7793 52.008 39.7793 52.088V55.976C39.7793 56.056 39.8193 56.096 39.8993 56.096H47.7713C47.8513 56.096 47.9153 56.128 47.9633 56.192C48.0273 56.24 48.0593 56.304 48.0593 56.384V58.712C48.0593 58.792 48.0273 58.864 47.9633 58.928C47.9153 58.976 47.8513 59 47.7713 59H36.6833C36.6033 59 36.5313 58.976 36.4673 58.928C36.4193 58.864 36.3953 58.792 36.3953 58.712V42.488C36.3953 42.408 36.4193 42.344 36.4673 42.296C36.5313 42.232 36.6033 42.2 36.6833 42.2H47.7713C47.8513 42.2 47.9153 42.232 47.9633 42.296C48.0273 42.344 48.0593 42.408 48.0593 42.488V44.816ZM55.3149 46.472C56.3549 46.472 57.2829 46.656 58.0989 47.024C58.9149 47.376 59.5469 47.864 59.9949 48.488C60.4589 49.112 60.6909 49.808 60.6909 50.576V58.712C60.6909 58.792 60.6589 58.864 60.5949 58.928C60.5469 58.976 60.4829 59 60.4029 59H57.5949C57.5149 59 57.4429 58.976 57.3789 58.928C57.3309 58.864 57.3069 58.792 57.3069 58.712V57.92C57.3069 57.872 57.2909 57.84 57.2589 57.824C57.2269 57.808 57.1949 57.824 57.1629 57.872C56.4909 58.752 55.4109 59.192 53.9229 59.192C52.6749 59.192 51.6669 58.888 50.8989 58.28C50.1309 57.672 49.7469 56.776 49.7469 55.592C49.7469 54.36 50.1789 53.408 51.0429 52.736C51.9069 52.048 53.1389 51.704 54.7389 51.704H57.1869C57.2669 51.704 57.3069 51.664 57.3069 51.584V51.056C57.3069 50.528 57.1469 50.12 56.8269 49.832C56.5069 49.528 56.0269 49.376 55.3869 49.376C54.8909 49.376 54.4749 49.464 54.1389 49.64C53.8189 49.816 53.6109 50.064 53.5149 50.384C53.4669 50.56 53.3629 50.64 53.2029 50.624L50.2989 50.24C50.1069 50.208 50.0189 50.136 50.0349 50.024C50.0989 49.352 50.3629 48.744 50.8269 48.2C51.3069 47.656 51.9309 47.232 52.6989 46.928C53.4829 46.624 54.3549 46.472 55.3149 46.472ZM54.8349 56.672C55.5229 56.672 56.1069 56.488 56.5869 56.12C57.0669 55.752 57.3069 55.28 57.3069 54.704V53.84C57.3069 53.76 57.2669 53.72 57.1869 53.72H55.4589C54.7389 53.72 54.1709 53.856 53.7549 54.128C53.3549 54.4 53.1549 54.784 53.1549 55.28C53.1549 55.712 53.3069 56.056 53.6109 56.312C53.9149 56.552 54.3229 56.672 54.8349 56.672ZM68.1946 59.168C67.1226 59.168 66.1866 59.016 65.3866 58.712C64.5866 58.408 63.9626 57.984 63.5146 57.44C63.0826 56.896 62.8666 56.28 62.8666 55.592V55.352C62.8666 55.272 62.8906 55.208 62.9386 55.16C63.0026 55.096 63.0746 55.064 63.1546 55.064H65.8186C65.8986 55.064 65.9626 55.096 66.0106 55.16C66.0746 55.208 66.1066 55.272 66.1066 55.352V55.376C66.1066 55.728 66.2986 56.032 66.6826 56.288C67.0826 56.528 67.5786 56.648 68.1706 56.648C68.7146 56.648 69.1546 56.544 69.4906 56.336C69.8266 56.112 69.9946 55.84 69.9946 55.52C69.9946 55.232 69.8506 55.016 69.5626 54.872C69.2746 54.728 68.8026 54.576 68.1466 54.416C67.3946 54.224 66.8026 54.04 66.3706 53.864C65.3466 53.512 64.5306 53.08 63.9226 52.568C63.3146 52.056 63.0106 51.32 63.0106 50.36C63.0106 49.176 63.4666 48.24 64.3786 47.552C65.3066 46.848 66.5306 46.496 68.0506 46.496C69.0746 46.496 69.9706 46.664 70.7386 47C71.5066 47.32 72.0986 47.776 72.5146 48.368C72.9466 48.96 73.1626 49.632 73.1626 50.384C73.1626 50.464 73.1306 50.536 73.0666 50.6C73.0186 50.648 72.9546 50.672 72.8746 50.672H70.3066C70.2266 50.672 70.1546 50.648 70.0906 50.6C70.0426 50.536 70.0186 50.464 70.0186 50.384C70.0186 50.032 69.8346 49.736 69.4666 49.496C69.1146 49.256 68.6426 49.136 68.0506 49.136C67.5226 49.136 67.0906 49.232 66.7546 49.424C66.4186 49.616 66.2506 49.88 66.2506 50.216C66.2506 50.536 66.4106 50.776 66.7306 50.936C67.0666 51.096 67.6186 51.264 68.3866 51.44C68.5626 51.488 68.7626 51.544 68.9866 51.608C69.2106 51.656 69.4506 51.72 69.7066 51.8C70.8426 52.136 71.7386 52.568 72.3946 53.096C73.0506 53.624 73.3786 54.392 73.3786 55.4C73.3786 56.584 72.9066 57.512 71.9626 58.184C71.0346 58.84 69.7786 59.168 68.1946 59.168ZM77.3454 45.272C76.8014 45.272 76.3454 45.096 75.9774 44.744C75.6254 44.376 75.4494 43.92 75.4494 43.376C75.4494 42.816 75.6254 42.36 75.9774 42.008C76.3294 41.656 76.7854 41.48 77.3454 41.48C77.9054 41.48 78.3614 41.656 78.7134 42.008C79.0654 42.36 79.2414 42.816 79.2414 43.376C79.2414 43.92 79.0574 44.376 78.6894 44.744C78.3374 45.096 77.8894 45.272 77.3454 45.272ZM75.9054 59C75.8254 59 75.7534 58.976 75.6894 58.928C75.6414 58.864 75.6174 58.792 75.6174 58.712V46.928C75.6174 46.848 75.6414 46.784 75.6894 46.736C75.7534 46.672 75.8254 46.64 75.9054 46.64H78.7134C78.7934 46.64 78.8574 46.672 78.9054 46.736C78.9694 46.784 79.0014 46.848 79.0014 46.928V58.712C79.0014 58.792 78.9694 58.864 78.9054 58.928C78.8574 58.976 78.7934 59 78.7134 59H75.9054ZM92.7586 51.56C92.8546 52.168 92.8866 52.848 92.8546 53.6C92.8386 53.792 92.7346 53.888 92.5426 53.888H85.1266C85.0306 53.888 84.9986 53.928 85.0306 54.008C85.0786 54.328 85.1666 54.648 85.2946 54.968C85.7106 55.864 86.5586 56.312 87.8386 56.312C88.8626 56.296 89.6706 55.88 90.2626 55.064C90.3266 54.968 90.3986 54.92 90.4786 54.92C90.5266 54.92 90.5826 54.952 90.6466 55.016L92.3746 56.72C92.4546 56.8 92.4946 56.872 92.4946 56.936C92.4946 56.968 92.4626 57.032 92.3986 57.128C91.8706 57.784 91.1906 58.296 90.3586 58.664C89.5266 59.016 88.6146 59.192 87.6226 59.192C86.2466 59.192 85.0786 58.88 84.1186 58.256C83.1746 57.632 82.4946 56.76 82.0786 55.64C81.7426 54.84 81.5746 53.792 81.5746 52.496C81.5746 51.616 81.6946 50.84 81.9346 50.168C82.3026 49.032 82.9426 48.128 83.8546 47.456C84.7826 46.784 85.8786 46.448 87.1426 46.448C88.7426 46.448 90.0226 46.912 90.9826 47.84C91.9586 48.768 92.5506 50.008 92.7586 51.56ZM87.1666 49.376C86.1586 49.376 85.4946 49.848 85.1746 50.792C85.1106 51 85.0546 51.256 85.0066 51.56C85.0066 51.64 85.0466 51.68 85.1266 51.68H89.2786C89.3746 51.68 89.4066 51.64 89.3746 51.56C89.2946 51.096 89.2546 50.872 89.2546 50.888C89.1106 50.408 88.8546 50.04 88.4866 49.784C88.1346 49.512 87.6946 49.376 87.1666 49.376ZM99.8961 59.168C98.8241 59.168 97.8881 59.016 97.0881 58.712C96.2881 58.408 95.6641 57.984 95.2161 57.44C94.7841 56.896 94.5681 56.28 94.5681 55.592V55.352C94.5681 55.272 94.5921 55.208 94.6401 55.16C94.7041 55.096 94.7761 55.064 94.8561 55.064H97.5201C97.6001 55.064 97.6641 55.096 97.7121 55.16C97.7761 55.208 97.8081 55.272 97.8081 55.352V55.376C97.8081 55.728 98.0001 56.032 98.3841 56.288C98.7841 56.528 99.2801 56.648 99.8721 56.648C100.416 56.648 100.856 56.544 101.192 56.336C101.528 56.112 101.696 55.84 101.696 55.52C101.696 55.232 101.552 55.016 101.264 54.872C100.976 54.728 100.504 54.576 99.8481 54.416C99.0961 54.224 98.5041 54.04 98.0721 53.864C97.0481 53.512 96.2321 53.08 95.6241 52.568C95.0161 52.056 94.7121 51.32 94.7121 50.36C94.7121 49.176 95.1681 48.24 96.0801 47.552C97.0081 46.848 98.2321 46.496 99.7521 46.496C100.776 46.496 101.672 46.664 102.44 47C103.208 47.32 103.8 47.776 104.216 48.368C104.648 48.96 104.864 49.632 104.864 50.384C104.864 50.464 104.832 50.536 104.768 50.6C104.72 50.648 104.656 50.672 104.576 50.672H102.008C101.928 50.672 101.856 50.648 101.792 50.6C101.744 50.536 101.72 50.464 101.72 50.384C101.72 50.032 101.536 49.736 101.168 49.496C100.816 49.256 100.344 49.136 99.7521 49.136C99.2241 49.136 98.7921 49.232 98.4561 49.424C98.1201 49.616 97.9521 49.88 97.9521 50.216C97.9521 50.536 98.1121 50.776 98.4321 50.936C98.7681 51.096 99.3201 51.264 100.088 51.44C100.264 51.488 100.464 51.544 100.688 51.608C100.912 51.656 101.152 51.72 101.408 51.8C102.544 52.136 103.44 52.568 104.096 53.096C104.752 53.624 105.08 54.392 105.08 55.4C105.08 56.584 104.608 57.512 103.664 58.184C102.736 58.84 101.48 59.168 99.8961 59.168ZM114.28 49.088C114.28 49.168 114.248 49.24 114.184 49.304C114.136 49.352 114.072 49.376 113.992 49.376H111.688C111.608 49.376 111.568 49.416 111.568 49.496V54.584C111.568 55.112 111.672 55.504 111.88 55.76C112.104 56.016 112.456 56.144 112.936 56.144H113.728C113.808 56.144 113.872 56.176 113.92 56.24C113.984 56.288 114.016 56.352 114.016 56.432V58.712C114.016 58.888 113.92 58.992 113.728 59.024C113.056 59.056 112.576 59.072 112.288 59.072C110.96 59.072 109.968 58.856 109.312 58.424C108.656 57.976 108.32 57.144 108.304 55.928V49.496C108.304 49.416 108.264 49.376 108.184 49.376H106.816C106.736 49.376 106.664 49.352 106.6 49.304C106.552 49.24 106.528 49.168 106.528 49.088V46.952C106.528 46.872 106.552 46.808 106.6 46.76C106.664 46.696 106.736 46.664 106.816 46.664H108.184C108.264 46.664 108.304 46.624 108.304 46.544V43.688C108.304 43.608 108.328 43.544 108.376 43.496C108.44 43.432 108.512 43.4 108.592 43.4H111.28C111.36 43.4 111.424 43.432 111.472 43.496C111.536 43.544 111.568 43.608 111.568 43.688V46.544C111.568 46.624 111.608 46.664 111.688 46.664H113.992C114.072 46.664 114.136 46.696 114.184 46.76C114.248 46.808 114.28 46.872 114.28 46.952V49.088ZM52.3412 66.2C52.4212 66.2 52.4852 66.232 52.5332 66.296C52.5972 66.344 52.6292 66.408 52.6292 66.488V68.84C52.6292 68.92 52.5972 68.992 52.5332 69.056C52.4852 69.104 52.4212 69.128 52.3412 69.128H48.0452C47.9652 69.128 47.9252 69.168 47.9252 69.248V82.712C47.9252 82.792 47.8932 82.864 47.8292 82.928C47.7812 82.976 47.7172 83 47.6372 83H44.8292C44.7492 83 44.6772 82.976 44.6132 82.928C44.5652 82.864 44.5412 82.792 44.5412 82.712V69.248C44.5412 69.168 44.5012 69.128 44.4212 69.128H40.2452C40.1652 69.128 40.0932 69.104 40.0292 69.056C39.9812 68.992 39.9572 68.92 39.9572 68.84V66.488C39.9572 66.408 39.9812 66.344 40.0292 66.296C40.0932 66.232 40.1652 66.2 40.2452 66.2H52.3412ZM58.2046 83.192C56.8606 83.192 55.7086 82.84 54.7486 82.136C53.7886 81.432 53.1326 80.472 52.7806 79.256C52.5566 78.504 52.4446 77.688 52.4446 76.808C52.4446 75.864 52.5566 75.016 52.7806 74.264C53.1486 73.08 53.8126 72.152 54.7726 71.48C55.7326 70.808 56.8846 70.472 58.2286 70.472C59.5406 70.472 60.6606 70.808 61.5886 71.48C62.5166 72.136 63.1726 73.056 63.5566 74.24C63.8126 75.04 63.9406 75.88 63.9406 76.76C63.9406 77.624 63.8286 78.432 63.6046 79.184C63.2526 80.432 62.5966 81.416 61.6366 82.136C60.6926 82.84 59.5486 83.192 58.2046 83.192ZM58.2046 80.288C58.7326 80.288 59.1806 80.128 59.5486 79.808C59.9166 79.488 60.1806 79.048 60.3406 78.488C60.4686 77.976 60.5326 77.416 60.5326 76.808C60.5326 76.136 60.4686 75.568 60.3406 75.104C60.1646 74.56 59.8926 74.136 59.5246 73.832C59.1566 73.528 58.7086 73.376 58.1806 73.376C57.6366 73.376 57.1806 73.528 56.8126 73.832C56.4606 74.136 56.2046 74.56 56.0446 75.104C55.9166 75.488 55.8526 76.056 55.8526 76.808C55.8526 77.528 55.9086 78.088 56.0206 78.488C56.1806 79.048 56.4446 79.488 56.8126 79.808C57.1966 80.128 57.6606 80.288 58.2046 80.288ZM77.6327 83.192C76.4007 83.192 75.3127 82.952 74.3687 82.472C73.4407 81.992 72.7127 81.32 72.1847 80.456C71.6727 79.576 71.4167 78.568 71.4167 77.432V66.488C71.4167 66.408 71.4407 66.344 71.4887 66.296C71.5527 66.232 71.6247 66.2 71.7047 66.2H74.5127C74.5927 66.2 74.6567 66.232 74.7047 66.296C74.7687 66.344 74.8007 66.408 74.8007 66.488V77.456C74.8007 78.304 75.0567 78.992 75.5687 79.52C76.0967 80.032 76.7847 80.288 77.6327 80.288C78.4807 80.288 79.1607 80.032 79.6727 79.52C80.2007 78.992 80.4647 78.304 80.4647 77.456V66.488C80.4647 66.408 80.4887 66.344 80.5367 66.296C80.6007 66.232 80.6727 66.2 80.7527 66.2H83.5607C83.6407 66.2 83.7047 66.232 83.7527 66.296C83.8167 66.344 83.8487 66.408 83.8487 66.488V77.432C83.8487 78.568 83.5847 79.576 83.0567 80.456C82.5447 81.32 81.8167 81.992 80.8727 82.472C79.9447 82.952 78.8647 83.192 77.6327 83.192ZM91.5344 83.168C90.4624 83.168 89.5264 83.016 88.7264 82.712C87.9264 82.408 87.3024 81.984 86.8544 81.44C86.4224 80.896 86.2064 80.28 86.2064 79.592V79.352C86.2064 79.272 86.2304 79.208 86.2784 79.16C86.3424 79.096 86.4144 79.064 86.4944 79.064H89.1584C89.2384 79.064 89.3024 79.096 89.3504 79.16C89.4144 79.208 89.4464 79.272 89.4464 79.352V79.376C89.4464 79.728 89.6384 80.032 90.0224 80.288C90.4224 80.528 90.9184 80.648 91.5104 80.648C92.0544 80.648 92.4944 80.544 92.8304 80.336C93.1664 80.112 93.3344 79.84 93.3344 79.52C93.3344 79.232 93.1904 79.016 92.9024 78.872C92.6144 78.728 92.1424 78.576 91.4864 78.416C90.7344 78.224 90.1424 78.04 89.7104 77.864C88.6864 77.512 87.8704 77.08 87.2624 76.568C86.6544 76.056 86.3504 75.32 86.3504 74.36C86.3504 73.176 86.8064 72.24 87.7184 71.552C88.6464 70.848 89.8704 70.496 91.3904 70.496C92.4144 70.496 93.3104 70.664 94.0784 71C94.8464 71.32 95.4384 71.776 95.8544 72.368C96.2864 72.96 96.5024 73.632 96.5024 74.384C96.5024 74.464 96.4704 74.536 96.4064 74.6C96.3584 74.648 96.2944 74.672 96.2144 74.672H93.6464C93.5664 74.672 93.4944 74.648 93.4304 74.6C93.3824 74.536 93.3584 74.464 93.3584 74.384C93.3584 74.032 93.1744 73.736 92.8064 73.496C92.4544 73.256 91.9824 73.136 91.3904 73.136C90.8624 73.136 90.4304 73.232 90.0944 73.424C89.7584 73.616 89.5904 73.88 89.5904 74.216C89.5904 74.536 89.7504 74.776 90.0704 74.936C90.4064 75.096 90.9584 75.264 91.7264 75.44C91.9024 75.488 92.1024 75.544 92.3264 75.608C92.5504 75.656 92.7904 75.72 93.0464 75.8C94.1824 76.136 95.0784 76.568 95.7344 77.096C96.3904 77.624 96.7184 78.392 96.7184 79.4C96.7184 80.584 96.2464 81.512 95.3024 82.184C94.3744 82.84 93.1184 83.168 91.5344 83.168ZM109.781 75.56C109.877 76.168 109.909 76.848 109.877 77.6C109.861 77.792 109.757 77.888 109.565 77.888H102.149C102.053 77.888 102.021 77.928 102.053 78.008C102.101 78.328 102.189 78.648 102.317 78.968C102.733 79.864 103.581 80.312 104.861 80.312C105.885 80.296 106.693 79.88 107.285 79.064C107.349 78.968 107.421 78.92 107.501 78.92C107.549 78.92 107.605 78.952 107.669 79.016L109.397 80.72C109.477 80.8 109.517 80.872 109.517 80.936C109.517 80.968 109.485 81.032 109.421 81.128C108.893 81.784 108.213 82.296 107.381 82.664C106.549 83.016 105.637 83.192 104.645 83.192C103.269 83.192 102.101 82.88 101.141 82.256C100.197 81.632 99.5173 80.76 99.1013 79.64C98.7653 78.84 98.5973 77.792 98.5973 76.496C98.5973 75.616 98.7173 74.84 98.9573 74.168C99.3253 73.032 99.9653 72.128 100.877 71.456C101.805 70.784 102.901 70.448 104.165 70.448C105.765 70.448 107.045 70.912 108.005 71.84C108.981 72.768 109.573 74.008 109.781 75.56ZM104.189 73.376C103.181 73.376 102.517 73.848 102.197 74.792C102.133 75 102.077 75.256 102.029 75.56C102.029 75.64 102.069 75.68 102.149 75.68H106.301C106.397 75.68 106.429 75.64 106.397 75.56C106.317 75.096 106.277 74.872 106.277 74.888C106.133 74.408 105.877 74.04 105.509 73.784C105.157 73.512 104.717 73.376 104.189 73.376Z" fill="#252530"/>
<path d="M44.7824 94.928C44.8358 94.8427 44.9104 94.8 45.0064 94.8H46.4784C46.5318 94.8 46.5744 94.8213 46.6064 94.864C46.6491 94.896 46.6704 94.9387 46.6704 94.992V105.808C46.6704 105.861 46.6491 105.909 46.6064 105.952C46.5744 105.984 46.5318 106 46.4784 106H45.0064C44.9531 106 44.9051 105.984 44.8624 105.952C44.8304 105.909 44.8144 105.861 44.8144 105.808V98.176C44.8144 98.144 44.7984 98.1227 44.7664 98.112C44.7451 98.1013 44.7291 98.112 44.7184 98.144L42.7184 101.216C42.6651 101.301 42.5904 101.344 42.4944 101.344H41.7584C41.6624 101.344 41.5878 101.301 41.5344 101.216L39.5184 98.16C39.5078 98.128 39.4864 98.1173 39.4544 98.128C39.4331 98.1387 39.4224 98.16 39.4224 98.192V105.808C39.4224 105.861 39.4011 105.909 39.3584 105.952C39.3264 105.984 39.2838 106 39.2304 106H37.7584C37.7051 106 37.6571 105.984 37.6144 105.952C37.5824 105.909 37.5664 105.861 37.5664 105.808V94.992C37.5664 94.9387 37.5824 94.896 37.6144 94.864C37.6571 94.8213 37.7051 94.8 37.7584 94.8H39.2304C39.3264 94.8 39.4011 94.8427 39.4544 94.928L42.0624 98.88C42.0838 98.9013 42.1051 98.912 42.1264 98.912C42.1478 98.912 42.1638 98.9013 42.1744 98.88L44.7824 94.928ZM49.3839 96.704C49.0533 96.704 48.7813 96.5973 48.5679 96.384C48.3546 96.1707 48.2479 95.8987 48.2479 95.568C48.2479 95.2373 48.3546 94.9653 48.5679 94.752C48.7813 94.5387 49.0533 94.432 49.3839 94.432C49.7146 94.432 49.9866 94.5387 50.1999 94.752C50.4133 94.9653 50.5199 95.2373 50.5199 95.568C50.5199 95.8987 50.4133 96.1707 50.1999 96.384C49.9866 96.5973 49.7146 96.704 49.3839 96.704ZM48.6159 106C48.5626 106 48.5146 105.984 48.4719 105.952C48.4399 105.909 48.4239 105.861 48.4239 105.808V98C48.4239 97.9467 48.4399 97.904 48.4719 97.872C48.5146 97.8293 48.5626 97.808 48.6159 97.808H50.0879C50.1413 97.808 50.1839 97.8293 50.2159 97.872C50.2586 97.904 50.2799 97.9467 50.2799 98V105.808C50.2799 105.861 50.2586 105.909 50.2159 105.952C50.1839 105.984 50.1413 106 50.0879 106H48.6159ZM56.9781 94.992C56.9781 94.9387 56.9941 94.896 57.0261 94.864C57.0687 94.8213 57.1167 94.8 57.1701 94.8H58.6421C58.6954 94.8 58.7381 94.8213 58.7701 94.864C58.8127 94.896 58.8341 94.9387 58.8341 94.992V105.808C58.8341 105.861 58.8127 105.909 58.7701 105.952C58.7381 105.984 58.6954 106 58.6421 106H57.1701C57.1167 106 57.0687 105.984 57.0261 105.952C56.9941 105.909 56.9781 105.861 56.9781 105.808V105.328C56.9781 105.296 56.9674 105.275 56.9461 105.264C56.9247 105.253 56.9034 105.264 56.8821 105.296C56.4127 105.851 55.7994 106.128 55.0421 106.128C54.2847 106.128 53.6447 105.931 53.1221 105.536C52.5994 105.141 52.2207 104.592 51.9861 103.888C51.7941 103.291 51.6981 102.624 51.6981 101.888C51.6981 101.131 51.7887 100.48 51.9701 99.936C52.2047 99.232 52.5834 98.6827 53.1061 98.288C53.6287 97.8933 54.2847 97.696 55.0741 97.696C55.8101 97.696 56.4127 97.9627 56.8821 98.496C56.9034 98.5173 56.9247 98.528 56.9461 98.528C56.9674 98.5173 56.9781 98.496 56.9781 98.464V94.992ZM56.5941 103.76C56.8394 103.323 56.9621 102.704 56.9621 101.904C56.9621 101.072 56.8287 100.437 56.5621 100C56.2741 99.5307 55.8687 99.296 55.3461 99.296C54.8021 99.296 54.3754 99.52 54.0661 99.968C53.7461 100.437 53.5861 101.088 53.5861 101.92C53.5861 102.667 53.7141 103.28 53.9701 103.76C54.2687 104.272 54.7221 104.528 55.3301 104.528C55.8741 104.528 56.2954 104.272 56.5941 103.76ZM62.7587 101.984C62.7054 101.984 62.6574 101.968 62.6147 101.936C62.5827 101.893 62.5667 101.845 62.5667 101.792V100.576C62.5667 100.523 62.5827 100.48 62.6147 100.448C62.6574 100.405 62.7054 100.384 62.7587 100.384H67.7987C67.852 100.384 67.8947 100.405 67.9267 100.448C67.9694 100.48 67.9907 100.523 67.9907 100.576V101.792C67.9907 101.845 67.9694 101.893 67.9267 101.936C67.8947 101.968 67.852 101.984 67.7987 101.984H62.7587ZM76.4074 94.928C76.4608 94.8427 76.5354 94.8 76.6314 94.8H78.1034C78.1568 94.8 78.1994 94.8213 78.2314 94.864C78.2741 94.896 78.2954 94.9387 78.2954 94.992V105.808C78.2954 105.861 78.2741 105.909 78.2314 105.952C78.1994 105.984 78.1568 106 78.1034 106H76.6314C76.5781 106 76.5301 105.984 76.4874 105.952C76.4554 105.909 76.4394 105.861 76.4394 105.808V98.176C76.4394 98.144 76.4234 98.1227 76.3914 98.112C76.3701 98.1013 76.3541 98.112 76.3434 98.144L74.3434 101.216C74.2901 101.301 74.2154 101.344 74.1194 101.344H73.3834C73.2874 101.344 73.2128 101.301 73.1594 101.216L71.1434 98.16C71.1328 98.128 71.1114 98.1173 71.0794 98.128C71.0581 98.1387 71.0474 98.16 71.0474 98.192V105.808C71.0474 105.861 71.0261 105.909 70.9834 105.952C70.9514 105.984 70.9088 106 70.8554 106H69.3834C69.3301 106 69.2821 105.984 69.2394 105.952C69.2074 105.909 69.1914 105.861 69.1914 105.808V94.992C69.1914 94.9387 69.2074 94.896 69.2394 94.864C69.2821 94.8213 69.3301 94.8 69.3834 94.8H70.8554C70.9514 94.8 71.0261 94.8427 71.0794 94.928L73.6874 98.88C73.7088 98.9013 73.7301 98.912 73.7514 98.912C73.7728 98.912 73.7888 98.9013 73.7994 98.88L76.4074 94.928ZM83.0729 97.696C83.7449 97.696 84.3369 97.8133 84.8489 98.048C85.3609 98.2827 85.7556 98.608 86.0329 99.024C86.3103 99.4293 86.4489 99.8933 86.4489 100.416V105.808C86.4489 105.861 86.4276 105.909 86.3849 105.952C86.3529 105.984 86.3103 106 86.2569 106H84.7849C84.7316 106 84.6836 105.984 84.6409 105.952C84.6089 105.909 84.5929 105.861 84.5929 105.808V105.296C84.5929 105.264 84.5823 105.248 84.5609 105.248C84.5396 105.237 84.5183 105.243 84.4969 105.264C83.9743 105.84 83.2169 106.128 82.2249 106.128C81.4249 106.128 80.7636 105.925 80.2409 105.52C79.7289 105.115 79.4729 104.512 79.4729 103.712C79.4729 102.88 79.7609 102.235 80.3369 101.776C80.9236 101.307 81.7449 101.072 82.8009 101.072H84.5129C84.5663 101.072 84.5929 101.045 84.5929 100.992V100.608C84.5929 100.192 84.4703 99.872 84.2249 99.648C83.9796 99.4133 83.6116 99.296 83.1209 99.296C82.7156 99.296 82.3849 99.3707 82.1289 99.52C81.8836 99.6587 81.7289 99.856 81.6649 100.112C81.6329 100.24 81.5583 100.293 81.4409 100.272L79.8889 100.08C79.8356 100.069 79.7876 100.053 79.7449 100.032C79.7129 100 79.7023 99.9627 79.7129 99.92C79.7983 99.2693 80.1449 98.736 80.7529 98.32C81.3716 97.904 82.1449 97.696 83.0729 97.696ZM82.6889 104.656C83.2116 104.656 83.6596 104.517 84.0329 104.24C84.4063 103.963 84.5929 103.611 84.5929 103.184V102.432C84.5929 102.379 84.5663 102.352 84.5129 102.352H83.1689C82.6036 102.352 82.1556 102.459 81.8249 102.672C81.5049 102.885 81.3449 103.189 81.3449 103.584C81.3449 103.925 81.4676 104.192 81.7129 104.384C81.9689 104.565 82.2943 104.656 82.6889 104.656ZM91.6203 97.728C91.9616 97.728 92.2603 97.7973 92.5163 97.936C92.6016 97.9787 92.6336 98.0587 92.6123 98.176L92.3403 99.616C92.3296 99.744 92.255 99.7813 92.1163 99.728C91.9563 99.6747 91.7696 99.648 91.5563 99.648C91.4176 99.648 91.311 99.6533 91.2363 99.664C90.7883 99.6853 90.415 99.8453 90.1163 100.144C89.8176 100.432 89.6683 100.811 89.6683 101.28V105.808C89.6683 105.861 89.647 105.909 89.6043 105.952C89.5723 105.984 89.5296 106 89.4763 106H88.0043C87.951 106 87.903 105.984 87.8603 105.952C87.8283 105.909 87.8123 105.861 87.8123 105.808V98.016C87.8123 97.9627 87.8283 97.92 87.8603 97.888C87.903 97.8453 87.951 97.824 88.0043 97.824H89.4763C89.5296 97.824 89.5723 97.8453 89.6043 97.888C89.647 97.92 89.6683 97.9627 89.6683 98.016V98.736C89.6683 98.7787 89.6736 98.8053 89.6843 98.816C89.7056 98.816 89.727 98.8 89.7483 98.768C90.1963 98.0747 90.8203 97.728 91.6203 97.728ZM93.5199 106C93.4666 106 93.4186 105.984 93.3759 105.952C93.3439 105.909 93.3279 105.861 93.3279 105.808V94.992C93.3279 94.9387 93.3439 94.896 93.3759 94.864C93.4186 94.8213 93.4666 94.8 93.5199 94.8H94.9919C95.0453 94.8 95.0879 94.8213 95.1199 94.864C95.1626 94.896 95.1839 94.9387 95.1839 94.992V100.768C95.1839 100.8 95.1946 100.821 95.2159 100.832C95.2373 100.843 95.2586 100.832 95.2799 100.8L97.8719 97.936C97.9466 97.8613 98.0266 97.824 98.1119 97.824H99.8079C99.9146 97.824 99.9679 97.8613 99.9679 97.936C99.9679 97.968 99.9519 98.0107 99.9199 98.064L97.8879 100.496C97.8559 100.528 97.8506 100.565 97.8719 100.608L100.272 105.776C100.293 105.819 100.304 105.851 100.304 105.872C100.304 105.957 100.245 106 100.128 106H98.5759C98.4693 106 98.3946 105.952 98.3519 105.856L96.6079 101.792C96.5973 101.771 96.5759 101.76 96.5439 101.76C96.5226 101.749 96.5066 101.755 96.4959 101.776L95.2159 103.248C95.1946 103.291 95.1839 103.328 95.1839 103.36V105.808C95.1839 105.861 95.1626 105.909 95.1199 105.952C95.0879 105.984 95.0453 106 94.9919 106H93.5199ZM107.505 100.992C107.548 101.259 107.569 101.557 107.569 101.888L107.553 102.384C107.553 102.512 107.489 102.576 107.361 102.576H102.353C102.3 102.576 102.273 102.603 102.273 102.656C102.305 103.008 102.353 103.248 102.417 103.376C102.673 104.144 103.297 104.533 104.289 104.544C105.015 104.544 105.591 104.245 106.017 103.648C106.06 103.584 106.113 103.552 106.177 103.552C106.22 103.552 106.257 103.568 106.289 103.6L107.281 104.416C107.377 104.491 107.393 104.576 107.329 104.672C106.999 105.141 106.556 105.504 106.001 105.76C105.457 106.016 104.849 106.144 104.177 106.144C103.345 106.144 102.636 105.957 102.049 105.584C101.473 105.211 101.052 104.688 100.785 104.016C100.54 103.44 100.417 102.64 100.417 101.616C100.417 100.997 100.481 100.496 100.609 100.112C100.823 99.3653 101.223 98.7787 101.809 98.352C102.407 97.9147 103.121 97.696 103.953 97.696C106.055 97.696 107.239 98.7947 107.505 100.992ZM103.953 99.296C103.559 99.296 103.228 99.3973 102.961 99.6C102.705 99.792 102.524 100.064 102.417 100.416C102.353 100.597 102.311 100.832 102.289 101.12C102.268 101.173 102.289 101.2 102.353 101.2H105.601C105.655 101.2 105.681 101.173 105.681 101.12C105.66 100.853 105.628 100.651 105.585 100.512C105.489 100.128 105.297 99.8293 105.009 99.616C104.732 99.4027 104.38 99.296 103.953 99.296ZM112.945 99.136C112.945 99.1893 112.924 99.2373 112.881 99.28C112.849 99.312 112.807 99.328 112.753 99.328H111.121C111.068 99.328 111.041 99.3547 111.041 99.408V103.264C111.041 103.669 111.127 103.963 111.297 104.144C111.479 104.325 111.761 104.416 112.145 104.416H112.625C112.679 104.416 112.721 104.437 112.753 104.48C112.796 104.512 112.817 104.555 112.817 104.608V105.808C112.817 105.925 112.753 105.995 112.625 106.016L111.793 106.032C110.951 106.032 110.321 105.888 109.905 105.6C109.489 105.312 109.276 104.768 109.265 103.968V99.408C109.265 99.3547 109.239 99.328 109.185 99.328H108.273C108.22 99.328 108.172 99.312 108.129 99.28C108.097 99.2373 108.081 99.1893 108.081 99.136V98.016C108.081 97.9627 108.097 97.92 108.129 97.888C108.172 97.8453 108.22 97.824 108.273 97.824H109.185C109.239 97.824 109.265 97.7973 109.265 97.744V95.872C109.265 95.8187 109.281 95.776 109.313 95.744C109.356 95.7013 109.404 95.68 109.457 95.68H110.849C110.903 95.68 110.945 95.7013 110.977 95.744C111.02 95.776 111.041 95.8187 111.041 95.872V97.744C111.041 97.7973 111.068 97.824 111.121 97.824H112.753C112.807 97.824 112.849 97.8453 112.881 97.888C112.924 97.92 112.945 97.9627 112.945 98.016V99.136Z" fill="#252530"/>
<path d="M49.7529 131C49.6355 131 49.5609 130.947 49.5289 130.84L46.6969 120.008L46.6809 119.944C46.6809 119.848 46.7395 119.8 46.8569 119.8H48.8409C48.9475 119.8 49.0169 119.853 49.0489 119.96L50.5689 126.472C50.5795 126.515 50.5955 126.536 50.6169 126.536C50.6382 126.536 50.6542 126.515 50.6649 126.472L52.1369 119.976C52.1689 119.859 52.2382 119.8 52.3449 119.8H54.2809C54.3982 119.8 54.4729 119.853 54.5049 119.96L56.1049 126.472C56.1155 126.504 56.1315 126.525 56.1529 126.536C56.1742 126.536 56.1902 126.515 56.2009 126.472L57.6729 119.976C57.7049 119.859 57.7742 119.8 57.8809 119.8H59.7689C59.9182 119.8 59.9769 119.869 59.9449 120.008L57.3209 130.84C57.2889 130.947 57.2142 131 57.0969 131H55.1929C55.0862 131 55.0169 130.947 54.9849 130.84L53.3529 123.912C53.3422 123.869 53.3262 123.848 53.3049 123.848C53.2835 123.848 53.2675 123.869 53.2569 123.912L51.7369 130.824C51.7155 130.941 51.6462 131 51.5289 131H49.7529ZM61.4961 131C61.4428 131 61.3948 130.984 61.3521 130.952C61.3201 130.909 61.3041 130.861 61.3041 130.808V119.992C61.3041 119.939 61.3201 119.896 61.3521 119.864C61.3948 119.821 61.4428 119.8 61.4961 119.8H63.3681C63.4215 119.8 63.4641 119.821 63.4961 119.864C63.5388 119.896 63.5601 119.939 63.5601 119.992V130.808C63.5601 130.861 63.5388 130.909 63.4961 130.952C63.4641 130.984 63.4215 131 63.3681 131H61.4961ZM71.9393 119.992C71.9393 119.939 71.9553 119.896 71.9873 119.864C72.0299 119.821 72.0779 119.8 72.1313 119.8H74.0033C74.0566 119.8 74.0993 119.821 74.1313 119.864C74.1739 119.896 74.1953 119.939 74.1953 119.992V130.808C74.1953 130.861 74.1739 130.909 74.1313 130.952C74.0993 130.984 74.0566 131 74.0033 131H72.1953C72.0886 131 72.0139 130.957 71.9713 130.872L67.8273 124.024C67.8059 123.992 67.7846 123.981 67.7633 123.992C67.7419 123.992 67.7313 124.013 67.7313 124.056L67.7633 130.808C67.7633 130.861 67.7419 130.909 67.6993 130.952C67.6673 130.984 67.6246 131 67.5713 131H65.6993C65.6459 131 65.5979 130.984 65.5553 130.952C65.5233 130.909 65.5073 130.861 65.5073 130.808V119.992C65.5073 119.939 65.5233 119.896 65.5553 119.864C65.5979 119.821 65.6459 119.8 65.6993 119.8H67.5073C67.6139 119.8 67.6886 119.843 67.7313 119.928L71.8593 126.744C71.8806 126.776 71.9019 126.792 71.9233 126.792C71.9446 126.781 71.9553 126.755 71.9553 126.712L71.9393 119.992ZM83.8759 119.8C83.9292 119.8 83.9719 119.821 84.0039 119.864C84.0465 119.896 84.0679 119.939 84.0679 119.992V121.56C84.0679 121.613 84.0465 121.661 84.0039 121.704C83.9719 121.736 83.9292 121.752 83.8759 121.752H81.0119C80.9585 121.752 80.9319 121.779 80.9319 121.832V130.808C80.9319 130.861 80.9105 130.909 80.8679 130.952C80.8359 130.984 80.7932 131 80.7399 131H78.8679C78.8145 131 78.7665 130.984 78.7239 130.952C78.6919 130.909 78.6759 130.861 78.6759 130.808V121.832C78.6759 121.779 78.6492 121.752 78.5959 121.752H75.8119C75.7585 121.752 75.7105 121.736 75.6679 121.704C75.6359 121.661 75.6199 121.613 75.6199 121.56V119.992C75.6199 119.939 75.6359 119.896 75.6679 119.864C75.7105 119.821 75.7585 119.8 75.8119 119.8H83.8759ZM93.2833 121.544C93.2833 121.597 93.2619 121.645 93.2193 121.688C93.1873 121.72 93.1446 121.736 93.0913 121.736H87.8433C87.7899 121.736 87.7633 121.763 87.7633 121.816V124.296C87.7633 124.349 87.7899 124.376 87.8433 124.376H91.2833C91.3366 124.376 91.3793 124.397 91.4113 124.44C91.4539 124.472 91.4753 124.515 91.4753 124.568V126.12C91.4753 126.173 91.4539 126.221 91.4113 126.264C91.3793 126.296 91.3366 126.312 91.2833 126.312H87.8433C87.7899 126.312 87.7633 126.339 87.7633 126.392V128.984C87.7633 129.037 87.7899 129.064 87.8433 129.064H93.0913C93.1446 129.064 93.1873 129.085 93.2193 129.128C93.2619 129.16 93.2833 129.203 93.2833 129.256V130.808C93.2833 130.861 93.2619 130.909 93.2193 130.952C93.1873 130.984 93.1446 131 93.0913 131H85.6993C85.6459 131 85.5979 130.984 85.5553 130.952C85.5233 130.909 85.5073 130.861 85.5073 130.808V119.992C85.5073 119.939 85.5233 119.896 85.5553 119.864C85.5979 119.821 85.6459 119.8 85.6993 119.8H93.0913C93.1446 119.8 93.1873 119.821 93.2193 119.864C93.2619 119.896 93.2833 119.939 93.2833 119.992V121.544ZM100.995 131C100.888 131 100.814 130.952 100.771 130.856L98.771 126.424C98.7497 126.381 98.7177 126.36 98.675 126.36H97.187C97.1337 126.36 97.107 126.387 97.107 126.44V130.808C97.107 130.861 97.0857 130.909 97.043 130.952C97.011 130.984 96.9683 131 96.915 131H95.043C94.9897 131 94.9417 130.984 94.899 130.952C94.867 130.909 94.851 130.861 94.851 130.808V119.992C94.851 119.939 94.867 119.896 94.899 119.864C94.9417 119.821 94.9897 119.8 95.043 119.8H99.619C100.302 119.8 100.899 119.939 101.411 120.216C101.934 120.493 102.334 120.888 102.611 121.4C102.899 121.912 103.043 122.504 103.043 123.176C103.043 123.901 102.862 124.525 102.499 125.048C102.136 125.56 101.63 125.923 100.979 126.136C100.926 126.157 100.91 126.195 100.931 126.248L103.107 130.776C103.128 130.819 103.139 130.851 103.139 130.872C103.139 130.957 103.08 131 102.963 131H100.995ZM97.187 121.736C97.1337 121.736 97.107 121.763 97.107 121.816V124.552C97.107 124.605 97.1337 124.632 97.187 124.632H99.283C99.731 124.632 100.094 124.499 100.371 124.232C100.659 123.965 100.803 123.619 100.803 123.192C100.803 122.765 100.659 122.419 100.371 122.152C100.094 121.875 99.731 121.736 99.283 121.736H97.187Z" fill="#252530"/>
<path d="M61.0014 144.968C60.9801 144.989 60.9748 145.011 60.9854 145.032C60.9961 145.053 61.0174 145.064 61.0494 145.064H65.3854C65.4388 145.064 65.4814 145.085 65.5134 145.128C65.5561 145.16 65.5774 145.203 65.5774 145.256V146.808C65.5774 146.861 65.5561 146.909 65.5134 146.952C65.4814 146.984 65.4388 147 65.3854 147H58.1854C58.1321 147 58.0841 146.984 58.0414 146.952C58.0094 146.909 57.9934 146.861 57.9934 146.808V145.336C57.9934 145.24 58.0254 145.16 58.0894 145.096C58.6121 144.584 59.1454 144.029 59.6894 143.432C60.2334 142.824 60.5748 142.445 60.7134 142.296C61.0121 141.944 61.3161 141.608 61.6254 141.288C62.5961 140.211 63.0814 139.411 63.0814 138.888C63.0814 138.515 62.9481 138.211 62.6814 137.976C62.4148 137.731 62.0681 137.608 61.6414 137.608C61.2148 137.608 60.8681 137.731 60.6014 137.976C60.3348 138.211 60.2014 138.525 60.2014 138.92V139.32C60.2014 139.373 60.1801 139.421 60.1374 139.464C60.1054 139.496 60.0628 139.512 60.0094 139.512H58.1214C58.0681 139.512 58.0201 139.496 57.9774 139.464C57.9454 139.421 57.9294 139.373 57.9294 139.32V138.568C57.9614 137.992 58.1428 137.485 58.4734 137.048C58.8041 136.6 59.2414 136.259 59.7854 136.024C60.3401 135.789 60.9588 135.672 61.6414 135.672C62.3988 135.672 63.0548 135.816 63.6094 136.104C64.1748 136.381 64.6068 136.76 64.9054 137.24C65.2148 137.72 65.3694 138.253 65.3694 138.84C65.3694 139.288 65.2574 139.747 65.0334 140.216C64.8094 140.685 64.4734 141.192 64.0254 141.736C63.6948 142.152 63.3374 142.563 62.9534 142.968C62.5694 143.373 61.9988 143.96 61.2414 144.728L61.0014 144.968ZM70.7706 147.176C69.5972 147.176 68.6692 146.851 67.9866 146.2C67.3039 145.539 66.9626 144.643 66.9626 143.512V139.288C66.9626 138.179 67.3039 137.299 67.9866 136.648C68.6692 135.997 69.5972 135.672 70.7706 135.672C71.9439 135.672 72.8719 135.997 73.5546 136.648C74.2479 137.299 74.5946 138.179 74.5946 139.288V143.512C74.5946 144.643 74.2479 145.539 73.5546 146.2C72.8719 146.851 71.9439 147.176 70.7706 147.176ZM70.7706 145.24C71.2506 145.24 71.6292 145.096 71.9066 144.808C72.1946 144.509 72.3386 144.115 72.3386 143.624V139.224C72.3386 138.733 72.1946 138.344 71.9066 138.056C71.6292 137.757 71.2506 137.608 70.7706 137.608C70.3012 137.608 69.9226 137.757 69.6346 138.056C69.3572 138.344 69.2186 138.733 69.2186 139.224V143.624C69.2186 144.115 69.3572 144.509 69.6346 144.808C69.9226 145.096 70.3012 145.24 70.7706 145.24ZM79.0796 144.968C79.0582 144.989 79.0529 145.011 79.0636 145.032C79.0742 145.053 79.0956 145.064 79.1276 145.064H83.4636C83.5169 145.064 83.5596 145.085 83.5916 145.128C83.6342 145.16 83.6556 145.203 83.6556 145.256V146.808C83.6556 146.861 83.6342 146.909 83.5916 146.952C83.5596 146.984 83.5169 147 83.4636 147H76.2636C76.2102 147 76.1622 146.984 76.1196 146.952C76.0876 146.909 76.0716 146.861 76.0716 146.808V145.336C76.0716 145.24 76.1036 145.16 76.1676 145.096C76.6902 144.584 77.2236 144.029 77.7676 143.432C78.3116 142.824 78.6529 142.445 78.7916 142.296C79.0902 141.944 79.3942 141.608 79.7036 141.288C80.6742 140.211 81.1596 139.411 81.1596 138.888C81.1596 138.515 81.0262 138.211 80.7596 137.976C80.4929 137.731 80.1462 137.608 79.7196 137.608C79.2929 137.608 78.9462 137.731 78.6796 137.976C78.4129 138.211 78.2796 138.525 78.2796 138.92V139.32C78.2796 139.373 78.2582 139.421 78.2156 139.464C78.1836 139.496 78.1409 139.512 78.0876 139.512H76.1996C76.1462 139.512 76.0982 139.496 76.0556 139.464C76.0236 139.421 76.0076 139.373 76.0076 139.32V138.568C76.0396 137.992 76.2209 137.485 76.5516 137.048C76.8822 136.6 77.3196 136.259 77.8636 136.024C78.4182 135.789 79.0369 135.672 79.7196 135.672C80.4769 135.672 81.1329 135.816 81.6876 136.104C82.2529 136.381 82.6849 136.76 82.9836 137.24C83.2929 137.72 83.4476 138.253 83.4476 138.84C83.4476 139.288 83.3356 139.747 83.1116 140.216C82.8876 140.685 82.5516 141.192 82.1036 141.736C81.7729 142.152 81.4156 142.563 81.0316 142.968C80.6476 143.373 80.0769 143.96 79.3196 144.728L79.0796 144.968ZM91.7179 141.656C91.9313 142.147 92.0379 142.712 92.0379 143.352C92.0379 143.928 91.9419 144.461 91.7499 144.952C91.4939 145.635 91.0619 146.168 90.4539 146.552C89.8566 146.936 89.1473 147.128 88.3259 147.128C87.5153 147.128 86.8006 146.925 86.1819 146.52C85.5739 146.115 85.1366 145.565 84.8699 144.872C84.7206 144.456 84.6353 144.008 84.6139 143.528C84.6139 143.4 84.6779 143.336 84.8059 143.336H86.6939C86.8219 143.336 86.8859 143.4 86.8859 143.528C86.9286 143.88 86.9873 144.141 87.0619 144.312C87.1579 144.589 87.3126 144.808 87.5259 144.968C87.7499 145.117 88.0113 145.192 88.3099 145.192C88.9073 145.192 89.3179 144.931 89.5419 144.408C89.6913 144.088 89.7659 143.715 89.7659 143.288C89.7659 142.787 89.6859 142.376 89.5259 142.056C89.2806 141.555 88.8699 141.304 88.2939 141.304C88.1766 141.304 88.0539 141.341 87.9259 141.416C87.7979 141.48 87.6433 141.576 87.4619 141.704C87.4193 141.736 87.3766 141.752 87.3339 141.752C87.2699 141.752 87.2219 141.72 87.1899 141.656L86.2459 140.328C86.2246 140.296 86.2139 140.259 86.2139 140.216C86.2139 140.152 86.2353 140.099 86.2779 140.056L88.8219 137.832C88.8433 137.811 88.8486 137.789 88.8379 137.768C88.8379 137.747 88.8219 137.736 88.7899 137.736H85.0299C84.9766 137.736 84.9286 137.72 84.8859 137.688C84.8539 137.645 84.8379 137.597 84.8379 137.544V135.992C84.8379 135.939 84.8539 135.896 84.8859 135.864C84.9286 135.821 84.9766 135.8 85.0299 135.8H91.7019C91.7553 135.8 91.7979 135.821 91.8299 135.864C91.8726 135.896 91.8939 135.939 91.8939 135.992V137.752C91.8939 137.837 91.8566 137.917 91.7819 137.992L89.6859 139.912C89.6646 139.933 89.6539 139.955 89.6539 139.976C89.6646 139.997 89.6913 140.008 89.7339 140.008C90.6619 140.189 91.3233 140.739 91.7179 141.656Z" fill="#252530"/>
</g>
<defs>
<clipPath id="clip0_15_184">
<rect width="150" height="168" fill="white"/>
</clipPath>
</defs>
</svg>
