<svg width="150" height="168" viewBox="0 0 150 168" fill="none" xmlns="http://www.w3.org/2000/svg">
<g clip-path="url(#clip0_15_273)">
<path d="M10 132.9V2H139V132.9L74.45 165.76L10 132.9Z" fill="white"/>
<path d="M137 4V131.67L74.45 163.51L12 131.67V4H137ZM141 0H8V134.12L74.45 168L141 134.12V0Z" fill="#DCDEDC"/>
<path d="M12.22 131.78L74.43 163.5L137 131.7V4.67999L12.22 131.78Z" fill="#F2F3F2"/>
<path d="M144.98 90H5.16966L0 101L5.16966 112H144.99L150 101L144.98 90Z" fill="#FFD200"/>
<path d="M75.0778 6.12022C75.7101 6.12022 76.3327 6.12022 76.965 6.27565L75.0778 9.87978C72.2471 9.72435 69.7374 11.9199 69.5817 14.7468C69.4261 17.5738 71.6245 20.0801 74.4553 20.2356H75.0875C76.3424 20.2356 77.5973 19.7693 78.5409 18.9824L80.5837 22.4311C79.0175 23.5288 77.1303 24.1603 75.0875 24.1603C70.0584 24.3157 65.8171 20.5562 65.6615 15.5337C65.5058 10.5112 69.2704 6.27565 74.2996 6.12022H75.0875H75.0778ZM81.5175 13.8045L83.8716 17.7292L81.5175 21.4985L79.3191 17.7292H74.7665L77.1206 13.8045H81.5175ZM77.7432 12.3959C77.7432 11.7644 77.8988 11.1427 78.2101 10.6667C78.5214 10.1906 79.1537 9.72435 79.6206 9.41348L79.9319 9.25805C80.5642 8.94718 80.7198 8.79174 80.7198 8.47116C80.7198 8.15058 80.2529 7.83971 79.9319 7.83971C79.2996 7.83971 78.8327 8.15058 78.5214 8.78203L77.7335 7.99514C77.8891 7.68427 78.2004 7.36369 78.5214 7.05282C78.9883 6.74196 79.465 6.74196 79.9319 6.74196C80.3988 6.74196 81.0311 6.89739 81.3424 7.20826C81.6537 7.51913 81.9747 7.99514 81.9747 8.46145C81.9747 9.24833 81.5078 9.87007 80.5642 10.1906L80.0973 10.5015C79.6303 10.8124 79.3093 10.9678 79.1537 11.4438H81.9844V12.5416L77.7432 12.3862V12.3959ZM75.0778 32L90 23.5288V0H60V23.3734L75.0778 32Z" fill="#FF492C"/>
<path d="M40.5301 59.43C40.4581 59.466 40.4581 59.502 40.5301 59.538C41.6701 60.126 42.2401 61.104 42.2401 62.472C42.2401 63.636 41.8441 64.518 41.0521 65.118C40.2601 65.706 39.2221 66 37.9381 66H33.2761C33.2161 66 33.1621 65.982 33.1141 65.946C33.0781 65.898 33.0601 65.844 33.0601 65.784V53.616C33.0601 53.556 33.0781 53.508 33.1141 53.472C33.1621 53.424 33.2161 53.4 33.2761 53.4H37.7941C40.6381 53.4 42.0601 54.552 42.0601 56.856C42.0601 58.056 41.5501 58.914 40.5301 59.43ZM35.6881 55.578C35.6281 55.578 35.5981 55.608 35.5981 55.668V58.476C35.5981 58.536 35.6281 58.566 35.6881 58.566H37.7941C38.3581 58.566 38.7961 58.434 39.1081 58.17C39.4201 57.906 39.5761 57.546 39.5761 57.09C39.5761 56.622 39.4201 56.256 39.1081 55.992C38.7961 55.716 38.3581 55.578 37.7941 55.578H35.6881ZM37.9381 63.804C38.4901 63.804 38.9221 63.666 39.2341 63.39C39.5461 63.102 39.7021 62.712 39.7021 62.22C39.7021 61.728 39.5461 61.344 39.2341 61.068C38.9221 60.78 38.4841 60.636 37.9201 60.636H35.6881C35.6281 60.636 35.5981 60.666 35.5981 60.726V63.714C35.5981 63.774 35.6281 63.804 35.6881 63.804H37.9381ZM51.9802 60.42C52.0522 60.876 52.0762 61.386 52.0522 61.95C52.0402 62.094 51.9622 62.166 51.8182 62.166H46.2562C46.1842 62.166 46.1602 62.196 46.1842 62.256C46.2202 62.496 46.2862 62.736 46.3822 62.976C46.6942 63.648 47.3302 63.984 48.2902 63.984C49.0582 63.972 49.6642 63.66 50.1082 63.048C50.1562 62.976 50.2102 62.94 50.2702 62.94C50.3062 62.94 50.3482 62.964 50.3962 63.012L51.6922 64.29C51.7522 64.35 51.7822 64.404 51.7822 64.452C51.7822 64.476 51.7582 64.524 51.7102 64.596C51.3142 65.088 50.8042 65.472 50.1802 65.748C49.5562 66.012 48.8722 66.144 48.1282 66.144C47.0962 66.144 46.2202 65.91 45.5002 65.442C44.7922 64.974 44.2822 64.32 43.9702 63.48C43.7182 62.88 43.5922 62.094 43.5922 61.122C43.5922 60.462 43.6822 59.88 43.8622 59.376C44.1382 58.524 44.6182 57.846 45.3022 57.342C45.9982 56.838 46.8202 56.586 47.7682 56.586C48.9682 56.586 49.9282 56.934 50.6482 57.63C51.3802 58.326 51.8242 59.256 51.9802 60.42ZM47.7862 58.782C47.0302 58.782 46.5322 59.136 46.2922 59.844C46.2442 60 46.2022 60.192 46.1662 60.42C46.1662 60.48 46.1962 60.51 46.2562 60.51H49.3702C49.4422 60.51 49.4662 60.48 49.4422 60.42C49.3822 60.072 49.3522 59.904 49.3522 59.916C49.2442 59.556 49.0522 59.28 48.7762 59.088C48.5122 58.884 48.1822 58.782 47.7862 58.782ZM56.9133 66.126C56.1093 66.126 55.4073 66.012 54.8073 65.784C54.2073 65.556 53.7393 65.238 53.4033 64.83C53.0793 64.422 52.9173 63.96 52.9173 63.444V63.264C52.9173 63.204 52.9353 63.156 52.9713 63.12C53.0193 63.072 53.0733 63.048 53.1333 63.048H55.1313C55.1913 63.048 55.2393 63.072 55.2753 63.12C55.3233 63.156 55.3473 63.204 55.3473 63.264V63.282C55.3473 63.546 55.4913 63.774 55.7793 63.966C56.0793 64.146 56.4513 64.236 56.8953 64.236C57.3033 64.236 57.6333 64.158 57.8853 64.002C58.1373 63.834 58.2633 63.63 58.2633 63.39C58.2633 63.174 58.1553 63.012 57.9393 62.904C57.7233 62.796 57.3693 62.682 56.8773 62.562C56.3133 62.418 55.8693 62.28 55.5453 62.148C54.7773 61.884 54.1653 61.56 53.7093 61.176C53.2533 60.792 53.0253 60.24 53.0253 59.52C53.0253 58.632 53.3673 57.93 54.0513 57.414C54.7473 56.886 55.6653 56.622 56.8053 56.622C57.5733 56.622 58.2453 56.748 58.8213 57C59.3973 57.24 59.8413 57.582 60.1533 58.026C60.4773 58.47 60.6393 58.974 60.6393 59.538C60.6393 59.598 60.6153 59.652 60.5673 59.7C60.5313 59.736 60.4833 59.754 60.4233 59.754H58.4973C58.4373 59.754 58.3833 59.736 58.3353 59.7C58.2993 59.652 58.2813 59.598 58.2813 59.538C58.2813 59.274 58.1433 59.052 57.8673 58.872C57.6033 58.692 57.2493 58.602 56.8053 58.602C56.4093 58.602 56.0853 58.674 55.8333 58.818C55.5813 58.962 55.4553 59.16 55.4553 59.412C55.4553 59.652 55.5753 59.832 55.8153 59.952C56.0673 60.072 56.4813 60.198 57.0573 60.33C57.1893 60.366 57.3393 60.408 57.5073 60.456C57.6753 60.492 57.8553 60.54 58.0473 60.6C58.8993 60.852 59.5713 61.176 60.0633 61.572C60.5553 61.968 60.8013 62.544 60.8013 63.3C60.8013 64.188 60.4473 64.884 59.7393 65.388C59.0433 65.88 58.1013 66.126 56.9133 66.126ZM67.2809 58.566C67.2809 58.626 67.2569 58.68 67.2089 58.728C67.1729 58.764 67.1249 58.782 67.0649 58.782H65.3369C65.2769 58.782 65.2469 58.812 65.2469 58.872V62.688C65.2469 63.084 65.3249 63.378 65.4809 63.57C65.6489 63.762 65.9129 63.858 66.2729 63.858H66.8669C66.9269 63.858 66.9749 63.882 67.0109 63.93C67.0589 63.966 67.0829 64.014 67.0829 64.074V65.784C67.0829 65.916 67.0109 65.994 66.8669 66.018C66.3629 66.042 66.0029 66.054 65.7869 66.054C64.7909 66.054 64.0469 65.892 63.5549 65.568C63.0629 65.232 62.8109 64.608 62.7989 63.696V58.872C62.7989 58.812 62.7689 58.782 62.7089 58.782H61.6829C61.6229 58.782 61.5689 58.764 61.5209 58.728C61.4849 58.68 61.4669 58.626 61.4669 58.566V56.964C61.4669 56.904 61.4849 56.856 61.5209 56.82C61.5689 56.772 61.6229 56.748 61.6829 56.748H62.7089C62.7689 56.748 62.7989 56.718 62.7989 56.658V54.516C62.7989 54.456 62.8169 54.408 62.8529 54.372C62.9009 54.324 62.9549 54.3 63.0149 54.3H65.0309C65.0909 54.3 65.1389 54.324 65.1749 54.372C65.2229 54.408 65.2469 54.456 65.2469 54.516V56.658C65.2469 56.718 65.2769 56.748 65.3369 56.748H67.0649C67.1249 56.748 67.1729 56.772 67.2089 56.82C67.2569 56.856 67.2809 56.904 67.2809 56.964V58.566ZM80.1343 53.544C80.1943 53.448 80.2783 53.4 80.3863 53.4H82.4923C82.5523 53.4 82.6003 53.424 82.6363 53.472C82.6843 53.508 82.7083 53.556 82.7083 53.616V65.784C82.7083 65.844 82.6843 65.898 82.6363 65.946C82.6003 65.982 82.5523 66 82.4923 66H80.3863C80.3263 66 80.2723 65.982 80.2243 65.946C80.1883 65.898 80.1703 65.844 80.1703 65.784V57.846C80.1703 57.798 80.1583 57.774 80.1343 57.774C80.1103 57.774 80.0863 57.792 80.0623 57.828L78.1543 60.816C78.0943 60.912 78.0103 60.96 77.9023 60.96H76.8403C76.7323 60.96 76.6483 60.912 76.5883 60.816L74.6803 57.828C74.6563 57.792 74.6323 57.78 74.6083 57.792C74.5843 57.792 74.5723 57.816 74.5723 57.864V65.784C74.5723 65.844 74.5483 65.898 74.5003 65.946C74.4643 65.982 74.4163 66 74.3563 66H72.2503C72.1903 66 72.1363 65.982 72.0883 65.946C72.0523 65.898 72.0343 65.844 72.0343 65.784V53.616C72.0343 53.556 72.0523 53.508 72.0883 53.472C72.1363 53.424 72.1903 53.4 72.2503 53.4H74.3563C74.4643 53.4 74.5483 53.448 74.6083 53.544L77.3083 57.738C77.3443 57.81 77.3803 57.81 77.4163 57.738L80.1343 53.544ZM92.6595 60.42C92.7315 60.876 92.7555 61.386 92.7315 61.95C92.7195 62.094 92.6415 62.166 92.4975 62.166H86.9355C86.8635 62.166 86.8395 62.196 86.8635 62.256C86.8995 62.496 86.9655 62.736 87.0615 62.976C87.3735 63.648 88.0095 63.984 88.9695 63.984C89.7375 63.972 90.3435 63.66 90.7875 63.048C90.8355 62.976 90.8895 62.94 90.9495 62.94C90.9855 62.94 91.0275 62.964 91.0755 63.012L92.3715 64.29C92.4315 64.35 92.4615 64.404 92.4615 64.452C92.4615 64.476 92.4375 64.524 92.3895 64.596C91.9935 65.088 91.4835 65.472 90.8595 65.748C90.2355 66.012 89.5515 66.144 88.8075 66.144C87.7755 66.144 86.8995 65.91 86.1795 65.442C85.4715 64.974 84.9615 64.32 84.6495 63.48C84.3975 62.88 84.2715 62.094 84.2715 61.122C84.2715 60.462 84.3615 59.88 84.5415 59.376C84.8175 58.524 85.2975 57.846 85.9815 57.342C86.6775 56.838 87.4995 56.586 88.4475 56.586C89.6475 56.586 90.6075 56.934 91.3275 57.63C92.0595 58.326 92.5035 59.256 92.6595 60.42ZM88.4655 58.782C87.7095 58.782 87.2115 59.136 86.9715 59.844C86.9235 60 86.8815 60.192 86.8455 60.42C86.8455 60.48 86.8755 60.51 86.9355 60.51H90.0495C90.1215 60.51 90.1455 60.48 90.1215 60.42C90.0615 60.072 90.0315 59.904 90.0315 59.916C89.9235 59.556 89.7315 59.28 89.4555 59.088C89.1915 58.884 88.8615 58.782 88.4655 58.782ZM102.216 60.42C102.288 60.876 102.312 61.386 102.288 61.95C102.276 62.094 102.198 62.166 102.054 62.166H96.4916C96.4196 62.166 96.3956 62.196 96.4196 62.256C96.4556 62.496 96.5216 62.736 96.6176 62.976C96.9296 63.648 97.5656 63.984 98.5256 63.984C99.2936 63.972 99.8996 63.66 100.344 63.048C100.392 62.976 100.446 62.94 100.506 62.94C100.542 62.94 100.584 62.964 100.632 63.012L101.928 64.29C101.988 64.35 102.018 64.404 102.018 64.452C102.018 64.476 101.994 64.524 101.946 64.596C101.55 65.088 101.04 65.472 100.416 65.748C99.7916 66.012 99.1076 66.144 98.3636 66.144C97.3316 66.144 96.4556 65.91 95.7356 65.442C95.0276 64.974 94.5176 64.32 94.2056 63.48C93.9536 62.88 93.8276 62.094 93.8276 61.122C93.8276 60.462 93.9176 59.88 94.0976 59.376C94.3736 58.524 94.8536 57.846 95.5376 57.342C96.2336 56.838 97.0556 56.586 98.0036 56.586C99.2036 56.586 100.164 56.934 100.884 57.63C101.616 58.326 102.06 59.256 102.216 60.42ZM98.0216 58.782C97.2656 58.782 96.7676 59.136 96.5276 59.844C96.4796 60 96.4376 60.192 96.4016 60.42C96.4016 60.48 96.4316 60.51 96.4916 60.51H99.6056C99.6776 60.51 99.7016 60.48 99.6776 60.42C99.6176 60.072 99.5876 59.904 99.5876 59.916C99.4796 59.556 99.2876 59.28 99.0116 59.088C98.7476 58.884 98.4176 58.782 98.0216 58.782ZM108.681 58.566C108.681 58.626 108.657 58.68 108.609 58.728C108.573 58.764 108.525 58.782 108.465 58.782H106.737C106.677 58.782 106.647 58.812 106.647 58.872V62.688C106.647 63.084 106.725 63.378 106.881 63.57C107.049 63.762 107.313 63.858 107.673 63.858H108.267C108.327 63.858 108.375 63.882 108.411 63.93C108.459 63.966 108.483 64.014 108.483 64.074V65.784C108.483 65.916 108.411 65.994 108.267 66.018C107.763 66.042 107.403 66.054 107.187 66.054C106.191 66.054 105.447 65.892 104.955 65.568C104.463 65.232 104.211 64.608 104.199 63.696V58.872C104.199 58.812 104.169 58.782 104.109 58.782H103.083C103.023 58.782 102.969 58.764 102.921 58.728C102.885 58.68 102.867 58.626 102.867 58.566V56.964C102.867 56.904 102.885 56.856 102.921 56.82C102.969 56.772 103.023 56.748 103.083 56.748H104.109C104.169 56.748 104.199 56.718 104.199 56.658V54.516C104.199 54.456 104.217 54.408 104.253 54.372C104.301 54.324 104.355 54.3 104.415 54.3H106.431C106.491 54.3 106.539 54.324 106.575 54.372C106.623 54.408 106.647 54.456 106.647 54.516V56.658C106.647 56.718 106.677 56.748 106.737 56.748H108.465C108.525 56.748 108.573 56.772 108.609 56.82C108.657 56.856 108.681 56.904 108.681 56.964V58.566ZM113.629 66.126C112.825 66.126 112.123 66.012 111.523 65.784C110.923 65.556 110.455 65.238 110.119 64.83C109.795 64.422 109.633 63.96 109.633 63.444V63.264C109.633 63.204 109.651 63.156 109.687 63.12C109.735 63.072 109.789 63.048 109.849 63.048H111.847C111.907 63.048 111.955 63.072 111.991 63.12C112.039 63.156 112.063 63.204 112.063 63.264V63.282C112.063 63.546 112.207 63.774 112.495 63.966C112.795 64.146 113.167 64.236 113.611 64.236C114.019 64.236 114.349 64.158 114.601 64.002C114.853 63.834 114.979 63.63 114.979 63.39C114.979 63.174 114.871 63.012 114.655 62.904C114.439 62.796 114.085 62.682 113.593 62.562C113.029 62.418 112.585 62.28 112.261 62.148C111.493 61.884 110.881 61.56 110.425 61.176C109.969 60.792 109.741 60.24 109.741 59.52C109.741 58.632 110.083 57.93 110.767 57.414C111.463 56.886 112.381 56.622 113.521 56.622C114.289 56.622 114.961 56.748 115.537 57C116.113 57.24 116.557 57.582 116.869 58.026C117.193 58.47 117.355 58.974 117.355 59.538C117.355 59.598 117.331 59.652 117.283 59.7C117.247 59.736 117.199 59.754 117.139 59.754H115.213C115.153 59.754 115.099 59.736 115.051 59.7C115.015 59.652 114.997 59.598 114.997 59.538C114.997 59.274 114.859 59.052 114.583 58.872C114.319 58.692 113.965 58.602 113.521 58.602C113.125 58.602 112.801 58.674 112.549 58.818C112.297 58.962 112.171 59.16 112.171 59.412C112.171 59.652 112.291 59.832 112.531 59.952C112.783 60.072 113.197 60.198 113.773 60.33C113.905 60.366 114.055 60.408 114.223 60.456C114.391 60.492 114.571 60.54 114.763 60.6C115.615 60.852 116.287 61.176 116.779 61.572C117.271 61.968 117.517 62.544 117.517 63.3C117.517 64.188 117.163 64.884 116.455 65.388C115.759 65.88 114.817 66.126 113.629 66.126ZM28.2977 83C28.1777 83 28.0937 82.946 28.0457 82.838L25.7957 77.852C25.7717 77.804 25.7357 77.78 25.6877 77.78H24.0137C23.9537 77.78 23.9237 77.81 23.9237 77.87V82.784C23.9237 82.844 23.8997 82.898 23.8517 82.946C23.8157 82.982 23.7677 83 23.7077 83H21.6017C21.5417 83 21.4877 82.982 21.4397 82.946C21.4037 82.898 21.3857 82.844 21.3857 82.784V70.616C21.3857 70.556 21.4037 70.508 21.4397 70.472C21.4877 70.424 21.5417 70.4 21.6017 70.4H26.7497C27.5177 70.4 28.1897 70.556 28.7657 70.868C29.3537 71.18 29.8037 71.624 30.1157 72.2C30.4397 72.776 30.6017 73.442 30.6017 74.198C30.6017 75.014 30.3977 75.716 29.9897 76.304C29.5817 76.88 29.0117 77.288 28.2797 77.528C28.2197 77.552 28.2017 77.594 28.2257 77.654L30.6737 82.748C30.6977 82.796 30.7097 82.832 30.7097 82.856C30.7097 82.952 30.6437 83 30.5117 83H28.2977ZM24.0137 72.578C23.9537 72.578 23.9237 72.608 23.9237 72.668V75.746C23.9237 75.806 23.9537 75.836 24.0137 75.836H26.3717C26.8757 75.836 27.2837 75.686 27.5957 75.386C27.9197 75.086 28.0817 74.696 28.0817 74.216C28.0817 73.736 27.9197 73.346 27.5957 73.046C27.2837 72.734 26.8757 72.578 26.3717 72.578H24.0137ZM40.0773 77.42C40.1493 77.876 40.1733 78.386 40.1493 78.95C40.1373 79.094 40.0593 79.166 39.9153 79.166H34.3533C34.2813 79.166 34.2573 79.196 34.2813 79.256C34.3173 79.496 34.3833 79.736 34.4793 79.976C34.7913 80.648 35.4273 80.984 36.3873 80.984C37.1553 80.972 37.7613 80.66 38.2053 80.048C38.2533 79.976 38.3073 79.94 38.3673 79.94C38.4033 79.94 38.4453 79.964 38.4933 80.012L39.7893 81.29C39.8493 81.35 39.8793 81.404 39.8793 81.452C39.8793 81.476 39.8553 81.524 39.8073 81.596C39.4113 82.088 38.9013 82.472 38.2773 82.748C37.6533 83.012 36.9693 83.144 36.2253 83.144C35.1933 83.144 34.3173 82.91 33.5973 82.442C32.8893 81.974 32.3793 81.32 32.0673 80.48C31.8153 79.88 31.6893 79.094 31.6893 78.122C31.6893 77.462 31.7793 76.88 31.9593 76.376C32.2353 75.524 32.7153 74.846 33.3993 74.342C34.0953 73.838 34.9173 73.586 35.8653 73.586C37.0653 73.586 38.0253 73.934 38.7453 74.63C39.4773 75.326 39.9213 76.256 40.0773 77.42ZM35.8833 75.782C35.1273 75.782 34.6293 76.136 34.3893 76.844C34.3413 77 34.2993 77.192 34.2633 77.42C34.2633 77.48 34.2933 77.51 34.3533 77.51H37.4673C37.5393 77.51 37.5633 77.48 37.5393 77.42C37.4793 77.072 37.4493 76.904 37.4493 76.916C37.3413 76.556 37.1493 76.28 36.8733 76.088C36.6093 75.884 36.2793 75.782 35.8833 75.782ZM47.1855 73.964C47.1855 73.904 47.2035 73.856 47.2395 73.82C47.2875 73.772 47.3415 73.748 47.4015 73.748H49.5075C49.5675 73.748 49.6155 73.772 49.6515 73.82C49.6995 73.856 49.7235 73.904 49.7235 73.964V86.132C49.7235 86.192 49.6995 86.24 49.6515 86.276C49.6155 86.324 49.5675 86.348 49.5075 86.348H47.4015C47.3415 86.348 47.2875 86.324 47.2395 86.276C47.2035 86.24 47.1855 86.192 47.1855 86.132V82.28C47.1855 82.244 47.1735 82.22 47.1495 82.208C47.1255 82.196 47.1015 82.208 47.0775 82.244C46.5975 82.844 45.9255 83.144 45.0615 83.144C44.1855 83.144 43.4475 82.922 42.8475 82.478C42.2595 82.022 41.8275 81.41 41.5515 80.642C41.3355 80.006 41.2275 79.256 41.2275 78.392C41.2275 77.576 41.3295 76.856 41.5335 76.232C41.7975 75.404 42.2295 74.762 42.8295 74.306C43.4415 73.838 44.1675 73.604 45.0075 73.604C45.8835 73.604 46.5735 73.934 47.0775 74.594C47.1015 74.618 47.1255 74.63 47.1495 74.63C47.1735 74.618 47.1855 74.594 47.1855 74.558V73.964ZM46.7715 80.246C47.0355 79.802 47.1675 79.178 47.1675 78.374C47.1675 77.606 47.0475 77 46.8075 76.556C46.5075 76.04 46.0875 75.782 45.5475 75.782C44.9595 75.782 44.5155 76.04 44.2155 76.556C43.9635 77.036 43.8375 77.636 43.8375 78.356C43.8375 79.16 43.9875 79.796 44.2875 80.264C44.5875 80.732 45.0135 80.966 45.5655 80.966C46.0935 80.966 46.4955 80.726 46.7715 80.246ZM56.804 73.964C56.804 73.904 56.822 73.856 56.858 73.82C56.906 73.772 56.96 73.748 57.02 73.748H59.126C59.186 73.748 59.234 73.772 59.27 73.82C59.318 73.856 59.342 73.904 59.342 73.964V82.784C59.342 82.844 59.318 82.898 59.27 82.946C59.234 82.982 59.186 83 59.126 83H57.02C56.96 83 56.906 82.982 56.858 82.946C56.822 82.898 56.804 82.844 56.804 82.784V82.172C56.804 82.136 56.792 82.118 56.768 82.118C56.744 82.106 56.72 82.118 56.696 82.154C56.216 82.802 55.472 83.126 54.464 83.126C53.552 83.126 52.802 82.85 52.214 82.298C51.626 81.746 51.332 80.972 51.332 79.976V73.964C51.332 73.904 51.35 73.856 51.386 73.82C51.434 73.772 51.488 73.748 51.548 73.748H53.636C53.696 73.748 53.744 73.772 53.78 73.82C53.828 73.856 53.852 73.904 53.852 73.964V79.346C53.852 79.826 53.978 80.216 54.23 80.516C54.494 80.816 54.854 80.966 55.31 80.966C55.718 80.966 56.054 80.846 56.318 80.606C56.582 80.354 56.744 80.03 56.804 79.634V73.964ZM62.3106 72.704C61.9026 72.704 61.5606 72.572 61.2846 72.308C61.0206 72.032 60.8886 71.69 60.8886 71.282C60.8886 70.862 61.0206 70.52 61.2846 70.256C61.5486 69.992 61.8906 69.86 62.3106 69.86C62.7306 69.86 63.0726 69.992 63.3366 70.256C63.6006 70.52 63.7326 70.862 63.7326 71.282C63.7326 71.69 63.5946 72.032 63.3186 72.308C63.0546 72.572 62.7186 72.704 62.3106 72.704ZM61.2306 83C61.1706 83 61.1166 82.982 61.0686 82.946C61.0326 82.898 61.0146 82.844 61.0146 82.784V73.946C61.0146 73.886 61.0326 73.838 61.0686 73.802C61.1166 73.754 61.1706 73.73 61.2306 73.73H63.3366C63.3966 73.73 63.4446 73.754 63.4806 73.802C63.5286 73.838 63.5526 73.886 63.5526 73.946V82.784C63.5526 82.844 63.5286 82.898 63.4806 82.946C63.4446 82.982 63.3966 83 63.3366 83H61.2306ZM69.8685 73.622C70.3005 73.622 70.6425 73.706 70.8945 73.874C70.9905 73.922 71.0265 74.012 71.0025 74.144L70.6245 76.196C70.6125 76.34 70.5285 76.382 70.3725 76.322C70.1925 76.262 69.9825 76.232 69.7425 76.232C69.6465 76.232 69.5145 76.244 69.3465 76.268C68.9145 76.304 68.5485 76.466 68.2485 76.754C67.9485 77.03 67.7985 77.402 67.7985 77.87V82.784C67.7985 82.844 67.7745 82.898 67.7265 82.946C67.6905 82.982 67.6425 83 67.5825 83H65.4765C65.4165 83 65.3625 82.982 65.3145 82.946C65.2785 82.898 65.2605 82.844 65.2605 82.784V73.964C65.2605 73.904 65.2785 73.856 65.3145 73.82C65.3625 73.772 65.4165 73.748 65.4765 73.748H67.5825C67.6425 73.748 67.6905 73.772 67.7265 73.82C67.7745 73.856 67.7985 73.904 67.7985 73.964V74.648C67.7985 74.684 67.8105 74.708 67.8345 74.72C67.8585 74.732 67.8765 74.726 67.8885 74.702C68.3805 73.982 69.0405 73.622 69.8685 73.622ZM79.8426 77.42C79.9146 77.876 79.9386 78.386 79.9146 78.95C79.9026 79.094 79.8246 79.166 79.6806 79.166H74.1186C74.0466 79.166 74.0226 79.196 74.0466 79.256C74.0826 79.496 74.1486 79.736 74.2446 79.976C74.5566 80.648 75.1926 80.984 76.1526 80.984C76.9206 80.972 77.5266 80.66 77.9706 80.048C78.0186 79.976 78.0726 79.94 78.1326 79.94C78.1686 79.94 78.2106 79.964 78.2586 80.012L79.5546 81.29C79.6146 81.35 79.6446 81.404 79.6446 81.452C79.6446 81.476 79.6206 81.524 79.5726 81.596C79.1766 82.088 78.6666 82.472 78.0426 82.748C77.4186 83.012 76.7346 83.144 75.9906 83.144C74.9586 83.144 74.0826 82.91 73.3626 82.442C72.6546 81.974 72.1446 81.32 71.8326 80.48C71.5806 79.88 71.4546 79.094 71.4546 78.122C71.4546 77.462 71.5446 76.88 71.7246 76.376C72.0006 75.524 72.4806 74.846 73.1646 74.342C73.8606 73.838 74.6826 73.586 75.6306 73.586C76.8306 73.586 77.7906 73.934 78.5106 74.63C79.2426 75.326 79.6866 76.256 79.8426 77.42ZM75.6486 75.782C74.8926 75.782 74.3946 76.136 74.1546 76.844C74.1066 77 74.0646 77.192 74.0286 77.42C74.0286 77.48 74.0586 77.51 74.1186 77.51H77.2326C77.3046 77.51 77.3286 77.48 77.3046 77.42C77.2446 77.072 77.2146 76.904 77.2146 76.916C77.1066 76.556 76.9146 76.28 76.6386 76.088C76.3746 75.884 76.0446 75.782 75.6486 75.782ZM91.4687 73.604C92.4047 73.604 93.1367 73.886 93.6647 74.45C94.1927 75.014 94.4567 75.806 94.4567 76.826V82.784C94.4567 82.844 94.4327 82.898 94.3847 82.946C94.3487 82.982 94.3007 83 94.2407 83H92.1347C92.0747 83 92.0207 82.982 91.9727 82.946C91.9367 82.898 91.9187 82.844 91.9187 82.784V77.384C91.9187 76.892 91.7927 76.502 91.5407 76.214C91.2887 75.926 90.9527 75.782 90.5327 75.782C90.1127 75.782 89.7707 75.926 89.5067 76.214C89.2427 76.502 89.1107 76.886 89.1107 77.366V82.784C89.1107 82.844 89.0867 82.898 89.0387 82.946C89.0027 82.982 88.9547 83 88.8947 83H86.8067C86.7467 83 86.6927 82.982 86.6447 82.946C86.6087 82.898 86.5907 82.844 86.5907 82.784V77.384C86.5907 76.904 86.4587 76.52 86.1947 76.232C85.9307 75.932 85.5887 75.782 85.1687 75.782C84.7847 75.782 84.4607 75.896 84.1967 76.124C83.9447 76.352 83.7947 76.67 83.7467 77.078V82.784C83.7467 82.844 83.7227 82.898 83.6747 82.946C83.6387 82.982 83.5907 83 83.5307 83H81.4247C81.3647 83 81.3107 82.982 81.2627 82.946C81.2267 82.898 81.2087 82.844 81.2087 82.784V73.964C81.2087 73.904 81.2267 73.856 81.2627 73.82C81.3107 73.772 81.3647 73.748 81.4247 73.748H83.5307C83.5907 73.748 83.6387 73.772 83.6747 73.82C83.7227 73.856 83.7467 73.904 83.7467 73.964V74.666C83.7467 74.702 83.7587 74.726 83.7827 74.738C83.8067 74.75 83.8307 74.738 83.8547 74.702C84.3467 73.97 85.1087 73.604 86.1407 73.604C86.7407 73.604 87.2627 73.73 87.7067 73.982C88.1627 74.234 88.5107 74.594 88.7507 75.062C88.7867 75.134 88.8287 75.134 88.8767 75.062C89.1407 74.57 89.4947 74.204 89.9387 73.964C90.3947 73.724 90.9047 73.604 91.4687 73.604ZM104.105 77.42C104.177 77.876 104.201 78.386 104.177 78.95C104.165 79.094 104.087 79.166 103.943 79.166H98.3813C98.3093 79.166 98.2853 79.196 98.3093 79.256C98.3453 79.496 98.4113 79.736 98.5073 79.976C98.8193 80.648 99.4553 80.984 100.415 80.984C101.183 80.972 101.789 80.66 102.233 80.048C102.281 79.976 102.335 79.94 102.395 79.94C102.431 79.94 102.473 79.964 102.521 80.012L103.817 81.29C103.877 81.35 103.907 81.404 103.907 81.452C103.907 81.476 103.883 81.524 103.835 81.596C103.439 82.088 102.929 82.472 102.305 82.748C101.681 83.012 100.997 83.144 100.253 83.144C99.2213 83.144 98.3453 82.91 97.6253 82.442C96.9173 81.974 96.4073 81.32 96.0953 80.48C95.8433 79.88 95.7173 79.094 95.7173 78.122C95.7173 77.462 95.8073 76.88 95.9873 76.376C96.2633 75.524 96.7433 74.846 97.4273 74.342C98.1233 73.838 98.9453 73.586 99.8933 73.586C101.093 73.586 102.053 73.934 102.773 74.63C103.505 75.326 103.949 76.256 104.105 77.42ZM99.9113 75.782C99.1553 75.782 98.6573 76.136 98.4173 76.844C98.3693 77 98.3273 77.192 98.2913 77.42C98.2913 77.48 98.3213 77.51 98.3813 77.51H101.495C101.567 77.51 101.591 77.48 101.567 77.42C101.507 77.072 101.477 76.904 101.477 76.916C101.369 76.556 101.177 76.28 100.901 76.088C100.637 75.884 100.307 75.782 99.9113 75.782ZM110.295 73.604C111.255 73.604 112.029 73.898 112.617 74.486C113.205 75.074 113.499 75.872 113.499 76.88V82.784C113.499 82.844 113.475 82.898 113.427 82.946C113.391 82.982 113.343 83 113.283 83H111.177C111.117 83 111.063 82.982 111.015 82.946C110.979 82.898 110.961 82.844 110.961 82.784V77.402C110.961 76.922 110.823 76.532 110.547 76.232C110.283 75.932 109.929 75.782 109.485 75.782C109.041 75.782 108.681 75.932 108.405 76.232C108.141 76.532 108.009 76.922 108.009 77.402V82.784C108.009 82.844 107.985 82.898 107.937 82.946C107.901 82.982 107.853 83 107.793 83H105.687C105.627 83 105.573 82.982 105.525 82.946C105.489 82.898 105.471 82.844 105.471 82.784V73.964C105.471 73.904 105.489 73.856 105.525 73.82C105.573 73.772 105.627 73.748 105.687 73.748H107.793C107.853 73.748 107.901 73.772 107.937 73.82C107.985 73.856 108.009 73.904 108.009 73.964V74.594C108.009 74.63 108.021 74.654 108.045 74.666C108.069 74.678 108.087 74.672 108.099 74.648C108.591 73.952 109.323 73.604 110.295 73.604ZM120.355 75.566C120.355 75.626 120.331 75.68 120.283 75.728C120.247 75.764 120.199 75.782 120.139 75.782H118.411C118.351 75.782 118.321 75.812 118.321 75.872V79.688C118.321 80.084 118.399 80.378 118.555 80.57C118.723 80.762 118.987 80.858 119.347 80.858H119.941C120.001 80.858 120.049 80.882 120.085 80.93C120.133 80.966 120.157 81.014 120.157 81.074V82.784C120.157 82.916 120.085 82.994 119.941 83.018C119.437 83.042 119.077 83.054 118.861 83.054C117.865 83.054 117.121 82.892 116.629 82.568C116.137 82.232 115.885 81.608 115.873 80.696V75.872C115.873 75.812 115.843 75.782 115.783 75.782H114.757C114.697 75.782 114.643 75.764 114.595 75.728C114.559 75.68 114.541 75.626 114.541 75.566V73.964C114.541 73.904 114.559 73.856 114.595 73.82C114.643 73.772 114.697 73.748 114.757 73.748H115.783C115.843 73.748 115.873 73.718 115.873 73.658V71.516C115.873 71.456 115.891 71.408 115.927 71.372C115.975 71.324 116.029 71.3 116.089 71.3H118.105C118.165 71.3 118.213 71.324 118.249 71.372C118.297 71.408 118.321 71.456 118.321 71.516V73.658C118.321 73.718 118.351 73.748 118.411 73.748H120.139C120.199 73.748 120.247 73.772 120.283 73.82C120.331 73.856 120.355 73.904 120.355 73.964V75.566ZM125.303 83.126C124.499 83.126 123.797 83.012 123.197 82.784C122.597 82.556 122.129 82.238 121.793 81.83C121.469 81.422 121.307 80.96 121.307 80.444V80.264C121.307 80.204 121.325 80.156 121.361 80.12C121.409 80.072 121.463 80.048 121.523 80.048H123.521C123.581 80.048 123.629 80.072 123.665 80.12C123.713 80.156 123.737 80.204 123.737 80.264V80.282C123.737 80.546 123.881 80.774 124.169 80.966C124.469 81.146 124.841 81.236 125.285 81.236C125.693 81.236 126.023 81.158 126.275 81.002C126.527 80.834 126.653 80.63 126.653 80.39C126.653 80.174 126.545 80.012 126.329 79.904C126.113 79.796 125.759 79.682 125.267 79.562C124.703 79.418 124.259 79.28 123.935 79.148C123.167 78.884 122.555 78.56 122.099 78.176C121.643 77.792 121.415 77.24 121.415 76.52C121.415 75.632 121.757 74.93 122.441 74.414C123.137 73.886 124.055 73.622 125.195 73.622C125.963 73.622 126.635 73.748 127.211 74C127.787 74.24 128.231 74.582 128.543 75.026C128.867 75.47 129.029 75.974 129.029 76.538C129.029 76.598 129.005 76.652 128.957 76.7C128.921 76.736 128.873 76.754 128.813 76.754H126.887C126.827 76.754 126.773 76.736 126.725 76.7C126.689 76.652 126.671 76.598 126.671 76.538C126.671 76.274 126.533 76.052 126.257 75.872C125.993 75.692 125.639 75.602 125.195 75.602C124.799 75.602 124.475 75.674 124.223 75.818C123.971 75.962 123.845 76.16 123.845 76.412C123.845 76.652 123.965 76.832 124.205 76.952C124.457 77.072 124.871 77.198 125.447 77.33C125.579 77.366 125.729 77.408 125.897 77.456C126.065 77.492 126.245 77.54 126.437 77.6C127.289 77.852 127.961 78.176 128.453 78.572C128.945 78.968 129.191 79.544 129.191 80.3C129.191 81.188 128.837 81.884 128.129 82.388C127.433 82.88 126.491 83.126 125.303 83.126Z" fill="#252530"/>
<path d="M44.7824 94.928C44.8358 94.8427 44.9104 94.8 45.0064 94.8H46.4784C46.5318 94.8 46.5744 94.8213 46.6064 94.864C46.6491 94.896 46.6704 94.9387 46.6704 94.992V105.808C46.6704 105.861 46.6491 105.909 46.6064 105.952C46.5744 105.984 46.5318 106 46.4784 106H45.0064C44.9531 106 44.9051 105.984 44.8624 105.952C44.8304 105.909 44.8144 105.861 44.8144 105.808V98.176C44.8144 98.144 44.7984 98.1227 44.7664 98.112C44.7451 98.1013 44.7291 98.112 44.7184 98.144L42.7184 101.216C42.6651 101.301 42.5904 101.344 42.4944 101.344H41.7584C41.6624 101.344 41.5878 101.301 41.5344 101.216L39.5184 98.16C39.5078 98.128 39.4864 98.1173 39.4544 98.128C39.4331 98.1387 39.4224 98.16 39.4224 98.192V105.808C39.4224 105.861 39.4011 105.909 39.3584 105.952C39.3264 105.984 39.2838 106 39.2304 106H37.7584C37.7051 106 37.6571 105.984 37.6144 105.952C37.5824 105.909 37.5664 105.861 37.5664 105.808V94.992C37.5664 94.9387 37.5824 94.896 37.6144 94.864C37.6571 94.8213 37.7051 94.8 37.7584 94.8H39.2304C39.3264 94.8 39.4011 94.8427 39.4544 94.928L42.0624 98.88C42.0838 98.9013 42.1051 98.912 42.1264 98.912C42.1478 98.912 42.1638 98.9013 42.1744 98.88L44.7824 94.928ZM49.3839 96.704C49.0533 96.704 48.7813 96.5973 48.5679 96.384C48.3546 96.1707 48.2479 95.8987 48.2479 95.568C48.2479 95.2373 48.3546 94.9653 48.5679 94.752C48.7813 94.5387 49.0533 94.432 49.3839 94.432C49.7146 94.432 49.9866 94.5387 50.1999 94.752C50.4133 94.9653 50.5199 95.2373 50.5199 95.568C50.5199 95.8987 50.4133 96.1707 50.1999 96.384C49.9866 96.5973 49.7146 96.704 49.3839 96.704ZM48.6159 106C48.5626 106 48.5146 105.984 48.4719 105.952C48.4399 105.909 48.4239 105.861 48.4239 105.808V98C48.4239 97.9467 48.4399 97.904 48.4719 97.872C48.5146 97.8293 48.5626 97.808 48.6159 97.808H50.0879C50.1413 97.808 50.1839 97.8293 50.2159 97.872C50.2586 97.904 50.2799 97.9467 50.2799 98V105.808C50.2799 105.861 50.2586 105.909 50.2159 105.952C50.1839 105.984 50.1413 106 50.0879 106H48.6159ZM56.9781 94.992C56.9781 94.9387 56.9941 94.896 57.0261 94.864C57.0687 94.8213 57.1167 94.8 57.1701 94.8H58.6421C58.6954 94.8 58.7381 94.8213 58.7701 94.864C58.8127 94.896 58.8341 94.9387 58.8341 94.992V105.808C58.8341 105.861 58.8127 105.909 58.7701 105.952C58.7381 105.984 58.6954 106 58.6421 106H57.1701C57.1167 106 57.0687 105.984 57.0261 105.952C56.9941 105.909 56.9781 105.861 56.9781 105.808V105.328C56.9781 105.296 56.9674 105.275 56.9461 105.264C56.9247 105.253 56.9034 105.264 56.8821 105.296C56.4127 105.851 55.7994 106.128 55.0421 106.128C54.2847 106.128 53.6447 105.931 53.1221 105.536C52.5994 105.141 52.2207 104.592 51.9861 103.888C51.7941 103.291 51.6981 102.624 51.6981 101.888C51.6981 101.131 51.7887 100.48 51.9701 99.936C52.2047 99.232 52.5834 98.6827 53.1061 98.288C53.6287 97.8933 54.2847 97.696 55.0741 97.696C55.8101 97.696 56.4127 97.9627 56.8821 98.496C56.9034 98.5173 56.9247 98.528 56.9461 98.528C56.9674 98.5173 56.9781 98.496 56.9781 98.464V94.992ZM56.5941 103.76C56.8394 103.323 56.9621 102.704 56.9621 101.904C56.9621 101.072 56.8287 100.437 56.5621 100C56.2741 99.5307 55.8687 99.296 55.3461 99.296C54.8021 99.296 54.3754 99.52 54.0661 99.968C53.7461 100.437 53.5861 101.088 53.5861 101.92C53.5861 102.667 53.7141 103.28 53.9701 103.76C54.2687 104.272 54.7221 104.528 55.3301 104.528C55.8741 104.528 56.2954 104.272 56.5941 103.76ZM62.7587 101.984C62.7054 101.984 62.6574 101.968 62.6147 101.936C62.5827 101.893 62.5667 101.845 62.5667 101.792V100.576C62.5667 100.523 62.5827 100.48 62.6147 100.448C62.6574 100.405 62.7054 100.384 62.7587 100.384H67.7987C67.852 100.384 67.8947 100.405 67.9267 100.448C67.9694 100.48 67.9907 100.523 67.9907 100.576V101.792C67.9907 101.845 67.9694 101.893 67.9267 101.936C67.8947 101.968 67.852 101.984 67.7987 101.984H62.7587ZM76.4074 94.928C76.4608 94.8427 76.5354 94.8 76.6314 94.8H78.1034C78.1568 94.8 78.1994 94.8213 78.2314 94.864C78.2741 94.896 78.2954 94.9387 78.2954 94.992V105.808C78.2954 105.861 78.2741 105.909 78.2314 105.952C78.1994 105.984 78.1568 106 78.1034 106H76.6314C76.5781 106 76.5301 105.984 76.4874 105.952C76.4554 105.909 76.4394 105.861 76.4394 105.808V98.176C76.4394 98.144 76.4234 98.1227 76.3914 98.112C76.3701 98.1013 76.3541 98.112 76.3434 98.144L74.3434 101.216C74.2901 101.301 74.2154 101.344 74.1194 101.344H73.3834C73.2874 101.344 73.2128 101.301 73.1594 101.216L71.1434 98.16C71.1328 98.128 71.1114 98.1173 71.0794 98.128C71.0581 98.1387 71.0474 98.16 71.0474 98.192V105.808C71.0474 105.861 71.0261 105.909 70.9834 105.952C70.9514 105.984 70.9088 106 70.8554 106H69.3834C69.3301 106 69.2821 105.984 69.2394 105.952C69.2074 105.909 69.1914 105.861 69.1914 105.808V94.992C69.1914 94.9387 69.2074 94.896 69.2394 94.864C69.2821 94.8213 69.3301 94.8 69.3834 94.8H70.8554C70.9514 94.8 71.0261 94.8427 71.0794 94.928L73.6874 98.88C73.7088 98.9013 73.7301 98.912 73.7514 98.912C73.7728 98.912 73.7888 98.9013 73.7994 98.88L76.4074 94.928ZM83.0729 97.696C83.7449 97.696 84.3369 97.8133 84.8489 98.048C85.3609 98.2827 85.7556 98.608 86.0329 99.024C86.3103 99.4293 86.4489 99.8933 86.4489 100.416V105.808C86.4489 105.861 86.4276 105.909 86.3849 105.952C86.3529 105.984 86.3103 106 86.2569 106H84.7849C84.7316 106 84.6836 105.984 84.6409 105.952C84.6089 105.909 84.5929 105.861 84.5929 105.808V105.296C84.5929 105.264 84.5823 105.248 84.5609 105.248C84.5396 105.237 84.5183 105.243 84.4969 105.264C83.9743 105.84 83.2169 106.128 82.2249 106.128C81.4249 106.128 80.7636 105.925 80.2409 105.52C79.7289 105.115 79.4729 104.512 79.4729 103.712C79.4729 102.88 79.7609 102.235 80.3369 101.776C80.9236 101.307 81.7449 101.072 82.8009 101.072H84.5129C84.5663 101.072 84.5929 101.045 84.5929 100.992V100.608C84.5929 100.192 84.4703 99.872 84.2249 99.648C83.9796 99.4133 83.6116 99.296 83.1209 99.296C82.7156 99.296 82.3849 99.3707 82.1289 99.52C81.8836 99.6587 81.7289 99.856 81.6649 100.112C81.6329 100.24 81.5583 100.293 81.4409 100.272L79.8889 100.08C79.8356 100.069 79.7876 100.053 79.7449 100.032C79.7129 100 79.7023 99.9627 79.7129 99.92C79.7983 99.2693 80.1449 98.736 80.7529 98.32C81.3716 97.904 82.1449 97.696 83.0729 97.696ZM82.6889 104.656C83.2116 104.656 83.6596 104.517 84.0329 104.24C84.4063 103.963 84.5929 103.611 84.5929 103.184V102.432C84.5929 102.379 84.5663 102.352 84.5129 102.352H83.1689C82.6036 102.352 82.1556 102.459 81.8249 102.672C81.5049 102.885 81.3449 103.189 81.3449 103.584C81.3449 103.925 81.4676 104.192 81.7129 104.384C81.9689 104.565 82.2943 104.656 82.6889 104.656ZM91.6203 97.728C91.9616 97.728 92.2603 97.7973 92.5163 97.936C92.6016 97.9787 92.6336 98.0587 92.6123 98.176L92.3403 99.616C92.3296 99.744 92.255 99.7813 92.1163 99.728C91.9563 99.6747 91.7696 99.648 91.5563 99.648C91.4176 99.648 91.311 99.6533 91.2363 99.664C90.7883 99.6853 90.415 99.8453 90.1163 100.144C89.8176 100.432 89.6683 100.811 89.6683 101.28V105.808C89.6683 105.861 89.647 105.909 89.6043 105.952C89.5723 105.984 89.5296 106 89.4763 106H88.0043C87.951 106 87.903 105.984 87.8603 105.952C87.8283 105.909 87.8123 105.861 87.8123 105.808V98.016C87.8123 97.9627 87.8283 97.92 87.8603 97.888C87.903 97.8453 87.951 97.824 88.0043 97.824H89.4763C89.5296 97.824 89.5723 97.8453 89.6043 97.888C89.647 97.92 89.6683 97.9627 89.6683 98.016V98.736C89.6683 98.7787 89.6736 98.8053 89.6843 98.816C89.7056 98.816 89.727 98.8 89.7483 98.768C90.1963 98.0747 90.8203 97.728 91.6203 97.728ZM93.5199 106C93.4666 106 93.4186 105.984 93.3759 105.952C93.3439 105.909 93.3279 105.861 93.3279 105.808V94.992C93.3279 94.9387 93.3439 94.896 93.3759 94.864C93.4186 94.8213 93.4666 94.8 93.5199 94.8H94.9919C95.0453 94.8 95.0879 94.8213 95.1199 94.864C95.1626 94.896 95.1839 94.9387 95.1839 94.992V100.768C95.1839 100.8 95.1946 100.821 95.2159 100.832C95.2373 100.843 95.2586 100.832 95.2799 100.8L97.8719 97.936C97.9466 97.8613 98.0266 97.824 98.1119 97.824H99.8079C99.9146 97.824 99.9679 97.8613 99.9679 97.936C99.9679 97.968 99.9519 98.0107 99.9199 98.064L97.8879 100.496C97.8559 100.528 97.8506 100.565 97.8719 100.608L100.272 105.776C100.293 105.819 100.304 105.851 100.304 105.872C100.304 105.957 100.245 106 100.128 106H98.5759C98.4693 106 98.3946 105.952 98.3519 105.856L96.6079 101.792C96.5973 101.771 96.5759 101.76 96.5439 101.76C96.5226 101.749 96.5066 101.755 96.4959 101.776L95.2159 103.248C95.1946 103.291 95.1839 103.328 95.1839 103.36V105.808C95.1839 105.861 95.1626 105.909 95.1199 105.952C95.0879 105.984 95.0453 106 94.9919 106H93.5199ZM107.505 100.992C107.548 101.259 107.569 101.557 107.569 101.888L107.553 102.384C107.553 102.512 107.489 102.576 107.361 102.576H102.353C102.3 102.576 102.273 102.603 102.273 102.656C102.305 103.008 102.353 103.248 102.417 103.376C102.673 104.144 103.297 104.533 104.289 104.544C105.015 104.544 105.591 104.245 106.017 103.648C106.06 103.584 106.113 103.552 106.177 103.552C106.22 103.552 106.257 103.568 106.289 103.6L107.281 104.416C107.377 104.491 107.393 104.576 107.329 104.672C106.999 105.141 106.556 105.504 106.001 105.76C105.457 106.016 104.849 106.144 104.177 106.144C103.345 106.144 102.636 105.957 102.049 105.584C101.473 105.211 101.052 104.688 100.785 104.016C100.54 103.44 100.417 102.64 100.417 101.616C100.417 100.997 100.481 100.496 100.609 100.112C100.823 99.3653 101.223 98.7787 101.809 98.352C102.407 97.9147 103.121 97.696 103.953 97.696C106.055 97.696 107.239 98.7947 107.505 100.992ZM103.953 99.296C103.559 99.296 103.228 99.3973 102.961 99.6C102.705 99.792 102.524 100.064 102.417 100.416C102.353 100.597 102.311 100.832 102.289 101.12C102.268 101.173 102.289 101.2 102.353 101.2H105.601C105.655 101.2 105.681 101.173 105.681 101.12C105.66 100.853 105.628 100.651 105.585 100.512C105.489 100.128 105.297 99.8293 105.009 99.616C104.732 99.4027 104.38 99.296 103.953 99.296ZM112.945 99.136C112.945 99.1893 112.924 99.2373 112.881 99.28C112.849 99.312 112.807 99.328 112.753 99.328H111.121C111.068 99.328 111.041 99.3547 111.041 99.408V103.264C111.041 103.669 111.127 103.963 111.297 104.144C111.479 104.325 111.761 104.416 112.145 104.416H112.625C112.679 104.416 112.721 104.437 112.753 104.48C112.796 104.512 112.817 104.555 112.817 104.608V105.808C112.817 105.925 112.753 105.995 112.625 106.016L111.793 106.032C110.951 106.032 110.321 105.888 109.905 105.6C109.489 105.312 109.276 104.768 109.265 103.968V99.408C109.265 99.3547 109.239 99.328 109.185 99.328H108.273C108.22 99.328 108.172 99.312 108.129 99.28C108.097 99.2373 108.081 99.1893 108.081 99.136V98.016C108.081 97.9627 108.097 97.92 108.129 97.888C108.172 97.8453 108.22 97.824 108.273 97.824H109.185C109.239 97.824 109.265 97.7973 109.265 97.744V95.872C109.265 95.8187 109.281 95.776 109.313 95.744C109.356 95.7013 109.404 95.68 109.457 95.68H110.849C110.903 95.68 110.945 95.7013 110.977 95.744C111.02 95.776 111.041 95.8187 111.041 95.872V97.744C111.041 97.7973 111.068 97.824 111.121 97.824H112.753C112.807 97.824 112.849 97.8453 112.881 97.888C112.924 97.92 112.945 97.9627 112.945 98.016V99.136Z" fill="#252530"/>
<path d="M49.7529 131C49.6355 131 49.5609 130.947 49.5289 130.84L46.6969 120.008L46.6809 119.944C46.6809 119.848 46.7395 119.8 46.8569 119.8H48.8409C48.9475 119.8 49.0169 119.853 49.0489 119.96L50.5689 126.472C50.5795 126.515 50.5955 126.536 50.6169 126.536C50.6382 126.536 50.6542 126.515 50.6649 126.472L52.1369 119.976C52.1689 119.859 52.2382 119.8 52.3449 119.8H54.2809C54.3982 119.8 54.4729 119.853 54.5049 119.96L56.1049 126.472C56.1155 126.504 56.1315 126.525 56.1529 126.536C56.1742 126.536 56.1902 126.515 56.2009 126.472L57.6729 119.976C57.7049 119.859 57.7742 119.8 57.8809 119.8H59.7689C59.9182 119.8 59.9769 119.869 59.9449 120.008L57.3209 130.84C57.2889 130.947 57.2142 131 57.0969 131H55.1929C55.0862 131 55.0169 130.947 54.9849 130.84L53.3529 123.912C53.3422 123.869 53.3262 123.848 53.3049 123.848C53.2835 123.848 53.2675 123.869 53.2569 123.912L51.7369 130.824C51.7155 130.941 51.6462 131 51.5289 131H49.7529ZM61.4961 131C61.4428 131 61.3948 130.984 61.3521 130.952C61.3201 130.909 61.3041 130.861 61.3041 130.808V119.992C61.3041 119.939 61.3201 119.896 61.3521 119.864C61.3948 119.821 61.4428 119.8 61.4961 119.8H63.3681C63.4215 119.8 63.4641 119.821 63.4961 119.864C63.5388 119.896 63.5601 119.939 63.5601 119.992V130.808C63.5601 130.861 63.5388 130.909 63.4961 130.952C63.4641 130.984 63.4215 131 63.3681 131H61.4961ZM71.9393 119.992C71.9393 119.939 71.9553 119.896 71.9873 119.864C72.0299 119.821 72.0779 119.8 72.1313 119.8H74.0033C74.0566 119.8 74.0993 119.821 74.1313 119.864C74.1739 119.896 74.1953 119.939 74.1953 119.992V130.808C74.1953 130.861 74.1739 130.909 74.1313 130.952C74.0993 130.984 74.0566 131 74.0033 131H72.1953C72.0886 131 72.0139 130.957 71.9713 130.872L67.8273 124.024C67.8059 123.992 67.7846 123.981 67.7633 123.992C67.7419 123.992 67.7313 124.013 67.7313 124.056L67.7633 130.808C67.7633 130.861 67.7419 130.909 67.6993 130.952C67.6673 130.984 67.6246 131 67.5713 131H65.6993C65.6459 131 65.5979 130.984 65.5553 130.952C65.5233 130.909 65.5073 130.861 65.5073 130.808V119.992C65.5073 119.939 65.5233 119.896 65.5553 119.864C65.5979 119.821 65.6459 119.8 65.6993 119.8H67.5073C67.6139 119.8 67.6886 119.843 67.7313 119.928L71.8593 126.744C71.8806 126.776 71.9019 126.792 71.9233 126.792C71.9446 126.781 71.9553 126.755 71.9553 126.712L71.9393 119.992ZM83.8759 119.8C83.9292 119.8 83.9719 119.821 84.0039 119.864C84.0465 119.896 84.0679 119.939 84.0679 119.992V121.56C84.0679 121.613 84.0465 121.661 84.0039 121.704C83.9719 121.736 83.9292 121.752 83.8759 121.752H81.0119C80.9585 121.752 80.9319 121.779 80.9319 121.832V130.808C80.9319 130.861 80.9105 130.909 80.8679 130.952C80.8359 130.984 80.7932 131 80.7399 131H78.8679C78.8145 131 78.7665 130.984 78.7239 130.952C78.6919 130.909 78.6759 130.861 78.6759 130.808V121.832C78.6759 121.779 78.6492 121.752 78.5959 121.752H75.8119C75.7585 121.752 75.7105 121.736 75.6679 121.704C75.6359 121.661 75.6199 121.613 75.6199 121.56V119.992C75.6199 119.939 75.6359 119.896 75.6679 119.864C75.7105 119.821 75.7585 119.8 75.8119 119.8H83.8759ZM93.2833 121.544C93.2833 121.597 93.2619 121.645 93.2193 121.688C93.1873 121.72 93.1446 121.736 93.0913 121.736H87.8433C87.7899 121.736 87.7633 121.763 87.7633 121.816V124.296C87.7633 124.349 87.7899 124.376 87.8433 124.376H91.2833C91.3366 124.376 91.3793 124.397 91.4113 124.44C91.4539 124.472 91.4753 124.515 91.4753 124.568V126.12C91.4753 126.173 91.4539 126.221 91.4113 126.264C91.3793 126.296 91.3366 126.312 91.2833 126.312H87.8433C87.7899 126.312 87.7633 126.339 87.7633 126.392V128.984C87.7633 129.037 87.7899 129.064 87.8433 129.064H93.0913C93.1446 129.064 93.1873 129.085 93.2193 129.128C93.2619 129.16 93.2833 129.203 93.2833 129.256V130.808C93.2833 130.861 93.2619 130.909 93.2193 130.952C93.1873 130.984 93.1446 131 93.0913 131H85.6993C85.6459 131 85.5979 130.984 85.5553 130.952C85.5233 130.909 85.5073 130.861 85.5073 130.808V119.992C85.5073 119.939 85.5233 119.896 85.5553 119.864C85.5979 119.821 85.6459 119.8 85.6993 119.8H93.0913C93.1446 119.8 93.1873 119.821 93.2193 119.864C93.2619 119.896 93.2833 119.939 93.2833 119.992V121.544ZM100.995 131C100.888 131 100.814 130.952 100.771 130.856L98.771 126.424C98.7497 126.381 98.7177 126.36 98.675 126.36H97.187C97.1337 126.36 97.107 126.387 97.107 126.44V130.808C97.107 130.861 97.0857 130.909 97.043 130.952C97.011 130.984 96.9683 131 96.915 131H95.043C94.9897 131 94.9417 130.984 94.899 130.952C94.867 130.909 94.851 130.861 94.851 130.808V119.992C94.851 119.939 94.867 119.896 94.899 119.864C94.9417 119.821 94.9897 119.8 95.043 119.8H99.619C100.302 119.8 100.899 119.939 101.411 120.216C101.934 120.493 102.334 120.888 102.611 121.4C102.899 121.912 103.043 122.504 103.043 123.176C103.043 123.901 102.862 124.525 102.499 125.048C102.136 125.56 101.63 125.923 100.979 126.136C100.926 126.157 100.91 126.195 100.931 126.248L103.107 130.776C103.128 130.819 103.139 130.851 103.139 130.872C103.139 130.957 103.08 131 102.963 131H100.995ZM97.187 121.736C97.1337 121.736 97.107 121.763 97.107 121.816V124.552C97.107 124.605 97.1337 124.632 97.187 124.632H99.283C99.731 124.632 100.094 124.499 100.371 124.232C100.659 123.965 100.803 123.619 100.803 123.192C100.803 122.765 100.659 122.419 100.371 122.152C100.094 121.875 99.731 121.736 99.283 121.736H97.187Z" fill="#252530"/>
<path d="M61.0014 144.968C60.9801 144.989 60.9748 145.011 60.9854 145.032C60.9961 145.053 61.0174 145.064 61.0494 145.064H65.3854C65.4388 145.064 65.4814 145.085 65.5134 145.128C65.5561 145.16 65.5774 145.203 65.5774 145.256V146.808C65.5774 146.861 65.5561 146.909 65.5134 146.952C65.4814 146.984 65.4388 147 65.3854 147H58.1854C58.1321 147 58.0841 146.984 58.0414 146.952C58.0094 146.909 57.9934 146.861 57.9934 146.808V145.336C57.9934 145.24 58.0254 145.16 58.0894 145.096C58.6121 144.584 59.1454 144.029 59.6894 143.432C60.2334 142.824 60.5748 142.445 60.7134 142.296C61.0121 141.944 61.3161 141.608 61.6254 141.288C62.5961 140.211 63.0814 139.411 63.0814 138.888C63.0814 138.515 62.9481 138.211 62.6814 137.976C62.4148 137.731 62.0681 137.608 61.6414 137.608C61.2148 137.608 60.8681 137.731 60.6014 137.976C60.3348 138.211 60.2014 138.525 60.2014 138.92V139.32C60.2014 139.373 60.1801 139.421 60.1374 139.464C60.1054 139.496 60.0628 139.512 60.0094 139.512H58.1214C58.0681 139.512 58.0201 139.496 57.9774 139.464C57.9454 139.421 57.9294 139.373 57.9294 139.32V138.568C57.9614 137.992 58.1428 137.485 58.4734 137.048C58.8041 136.6 59.2414 136.259 59.7854 136.024C60.3401 135.789 60.9588 135.672 61.6414 135.672C62.3988 135.672 63.0548 135.816 63.6094 136.104C64.1748 136.381 64.6068 136.76 64.9054 137.24C65.2148 137.72 65.3694 138.253 65.3694 138.84C65.3694 139.288 65.2574 139.747 65.0334 140.216C64.8094 140.685 64.4734 141.192 64.0254 141.736C63.6948 142.152 63.3374 142.563 62.9534 142.968C62.5694 143.373 61.9988 143.96 61.2414 144.728L61.0014 144.968ZM70.7706 147.176C69.5972 147.176 68.6692 146.851 67.9866 146.2C67.3039 145.539 66.9626 144.643 66.9626 143.512V139.288C66.9626 138.179 67.3039 137.299 67.9866 136.648C68.6692 135.997 69.5972 135.672 70.7706 135.672C71.9439 135.672 72.8719 135.997 73.5546 136.648C74.2479 137.299 74.5946 138.179 74.5946 139.288V143.512C74.5946 144.643 74.2479 145.539 73.5546 146.2C72.8719 146.851 71.9439 147.176 70.7706 147.176ZM70.7706 145.24C71.2506 145.24 71.6292 145.096 71.9066 144.808C72.1946 144.509 72.3386 144.115 72.3386 143.624V139.224C72.3386 138.733 72.1946 138.344 71.9066 138.056C71.6292 137.757 71.2506 137.608 70.7706 137.608C70.3012 137.608 69.9226 137.757 69.6346 138.056C69.3572 138.344 69.2186 138.733 69.2186 139.224V143.624C69.2186 144.115 69.3572 144.509 69.6346 144.808C69.9226 145.096 70.3012 145.24 70.7706 145.24ZM79.0796 144.968C79.0582 144.989 79.0529 145.011 79.0636 145.032C79.0742 145.053 79.0956 145.064 79.1276 145.064H83.4636C83.5169 145.064 83.5596 145.085 83.5916 145.128C83.6342 145.16 83.6556 145.203 83.6556 145.256V146.808C83.6556 146.861 83.6342 146.909 83.5916 146.952C83.5596 146.984 83.5169 147 83.4636 147H76.2636C76.2102 147 76.1622 146.984 76.1196 146.952C76.0876 146.909 76.0716 146.861 76.0716 146.808V145.336C76.0716 145.24 76.1036 145.16 76.1676 145.096C76.6902 144.584 77.2236 144.029 77.7676 143.432C78.3116 142.824 78.6529 142.445 78.7916 142.296C79.0902 141.944 79.3942 141.608 79.7036 141.288C80.6742 140.211 81.1596 139.411 81.1596 138.888C81.1596 138.515 81.0262 138.211 80.7596 137.976C80.4929 137.731 80.1462 137.608 79.7196 137.608C79.2929 137.608 78.9462 137.731 78.6796 137.976C78.4129 138.211 78.2796 138.525 78.2796 138.92V139.32C78.2796 139.373 78.2582 139.421 78.2156 139.464C78.1836 139.496 78.1409 139.512 78.0876 139.512H76.1996C76.1462 139.512 76.0982 139.496 76.0556 139.464C76.0236 139.421 76.0076 139.373 76.0076 139.32V138.568C76.0396 137.992 76.2209 137.485 76.5516 137.048C76.8822 136.6 77.3196 136.259 77.8636 136.024C78.4182 135.789 79.0369 135.672 79.7196 135.672C80.4769 135.672 81.1329 135.816 81.6876 136.104C82.2529 136.381 82.6849 136.76 82.9836 137.24C83.2929 137.72 83.4476 138.253 83.4476 138.84C83.4476 139.288 83.3356 139.747 83.1116 140.216C82.8876 140.685 82.5516 141.192 82.1036 141.736C81.7729 142.152 81.4156 142.563 81.0316 142.968C80.6476 143.373 80.0769 143.96 79.3196 144.728L79.0796 144.968ZM91.7179 141.656C91.9313 142.147 92.0379 142.712 92.0379 143.352C92.0379 143.928 91.9419 144.461 91.7499 144.952C91.4939 145.635 91.0619 146.168 90.4539 146.552C89.8566 146.936 89.1473 147.128 88.3259 147.128C87.5153 147.128 86.8006 146.925 86.1819 146.52C85.5739 146.115 85.1366 145.565 84.8699 144.872C84.7206 144.456 84.6353 144.008 84.6139 143.528C84.6139 143.4 84.6779 143.336 84.8059 143.336H86.6939C86.8219 143.336 86.8859 143.4 86.8859 143.528C86.9286 143.88 86.9873 144.141 87.0619 144.312C87.1579 144.589 87.3126 144.808 87.5259 144.968C87.7499 145.117 88.0113 145.192 88.3099 145.192C88.9073 145.192 89.3179 144.931 89.5419 144.408C89.6913 144.088 89.7659 143.715 89.7659 143.288C89.7659 142.787 89.6859 142.376 89.5259 142.056C89.2806 141.555 88.8699 141.304 88.2939 141.304C88.1766 141.304 88.0539 141.341 87.9259 141.416C87.7979 141.48 87.6433 141.576 87.4619 141.704C87.4193 141.736 87.3766 141.752 87.3339 141.752C87.2699 141.752 87.2219 141.72 87.1899 141.656L86.2459 140.328C86.2246 140.296 86.2139 140.259 86.2139 140.216C86.2139 140.152 86.2353 140.099 86.2779 140.056L88.8219 137.832C88.8433 137.811 88.8486 137.789 88.8379 137.768C88.8379 137.747 88.8219 137.736 88.7899 137.736H85.0299C84.9766 137.736 84.9286 137.72 84.8859 137.688C84.8539 137.645 84.8379 137.597 84.8379 137.544V135.992C84.8379 135.939 84.8539 135.896 84.8859 135.864C84.9286 135.821 84.9766 135.8 85.0299 135.8H91.7019C91.7553 135.8 91.7979 135.821 91.8299 135.864C91.8726 135.896 91.8939 135.939 91.8939 135.992V137.752C91.8939 137.837 91.8566 137.917 91.7819 137.992L89.6859 139.912C89.6646 139.933 89.6539 139.955 89.6539 139.976C89.6646 139.997 89.6913 140.008 89.7339 140.008C90.6619 140.189 91.3233 140.739 91.7179 141.656Z" fill="#252530"/>
</g>
<defs>
<clipPath id="clip0_15_273">
<rect width="150" height="168" fill="white"/>
</clipPath>
</defs>
</svg>
