<svg width="150" height="168" viewBox="0 0 150 168" fill="none" xmlns="http://www.w3.org/2000/svg">
<g clip-path="url(#clip0_15_324)">
<path d="M10 132.9V2H139V132.9L74.45 165.76L10 132.9Z" fill="white"/>
<path d="M137 4V131.67L74.45 163.51L12 131.67V4H137ZM141 0H8V134.12L74.45 168L141 134.12V0Z" fill="#DCDEDC"/>
<path d="M12.22 131.78L74.43 163.5L137 131.7V4.67999L12.22 131.78Z" fill="#F2F3F2"/>
<path d="M144.98 90H5.16966L0 101L5.16966 112H144.99L150 101L144.98 90Z" fill="#5A39A2"/>
<path d="M75.0778 6.12022C75.7101 6.12022 76.3327 6.12022 76.965 6.27565L75.0778 9.87978C72.2471 9.72435 69.7374 11.9199 69.5817 14.7468C69.4261 17.5738 71.6245 20.0801 74.4553 20.2356H75.0875C76.3424 20.2356 77.5973 19.7693 78.5409 18.9824L80.5837 22.4311C79.0175 23.5288 77.1303 24.1603 75.0875 24.1603C70.0584 24.3157 65.8171 20.5562 65.6615 15.5337C65.5058 10.5112 69.2704 6.27565 74.2996 6.12022H75.0875H75.0778ZM81.5175 13.8045L83.8716 17.7292L81.5175 21.4985L79.3191 17.7292H74.7665L77.1206 13.8045H81.5175V13.8045ZM77.7432 12.3959C77.7432 11.7644 77.8988 11.1427 78.2101 10.6667C78.5214 10.1906 79.1537 9.72435 79.6206 9.41348L79.9319 9.25805C80.5642 8.94718 80.7198 8.79174 80.7198 8.47116C80.7198 8.15058 80.2529 7.83971 79.9319 7.83971C79.2996 7.83971 78.8327 8.15058 78.5214 8.78203L77.7335 7.99514C77.8891 7.68427 78.2004 7.36369 78.5214 7.05282C78.9883 6.74196 79.465 6.74196 79.9319 6.74196C80.3988 6.74196 81.0311 6.89739 81.3424 7.20826C81.6537 7.51913 81.9747 7.99514 81.9747 8.46145C81.9747 9.24833 81.5078 9.87007 80.5642 10.1907L80.0973 10.5015C79.6303 10.8124 79.3093 10.9678 79.1537 11.4438H81.9844V12.5416L77.7432 12.3862V12.3959ZM75.0778 32L90 23.5288V0H60V23.3734L75.0778 32Z" fill="#FF492C"/>
<path d="M49.7529 131C49.6355 131 49.5609 130.947 49.5289 130.84L46.6969 120.008L46.6809 119.944C46.6809 119.848 46.7395 119.8 46.8569 119.8H48.8409C48.9475 119.8 49.0169 119.853 49.0489 119.96L50.5689 126.472C50.5795 126.515 50.5955 126.536 50.6169 126.536C50.6382 126.536 50.6542 126.515 50.6649 126.472L52.1369 119.976C52.1689 119.859 52.2382 119.8 52.3449 119.8H54.2809C54.3982 119.8 54.4729 119.853 54.5049 119.96L56.1049 126.472C56.1155 126.504 56.1315 126.525 56.1529 126.536C56.1742 126.536 56.1902 126.515 56.2009 126.472L57.6729 119.976C57.7049 119.859 57.7742 119.8 57.8809 119.8H59.7689C59.9182 119.8 59.9769 119.869 59.9449 120.008L57.3209 130.84C57.2889 130.947 57.2142 131 57.0969 131H55.1929C55.0862 131 55.0169 130.947 54.9849 130.84L53.3529 123.912C53.3422 123.869 53.3262 123.848 53.3049 123.848C53.2835 123.848 53.2675 123.869 53.2569 123.912L51.7369 130.824C51.7155 130.941 51.6462 131 51.5289 131H49.7529ZM61.4961 131C61.4428 131 61.3948 130.984 61.3521 130.952C61.3201 130.909 61.3041 130.861 61.3041 130.808V119.992C61.3041 119.939 61.3201 119.896 61.3521 119.864C61.3948 119.821 61.4428 119.8 61.4961 119.8H63.3681C63.4215 119.8 63.4641 119.821 63.4961 119.864C63.5388 119.896 63.5601 119.939 63.5601 119.992V130.808C63.5601 130.861 63.5388 130.909 63.4961 130.952C63.4641 130.984 63.4215 131 63.3681 131H61.4961ZM71.9393 119.992C71.9393 119.939 71.9553 119.896 71.9873 119.864C72.0299 119.821 72.0779 119.8 72.1313 119.8H74.0033C74.0566 119.8 74.0993 119.821 74.1313 119.864C74.1739 119.896 74.1953 119.939 74.1953 119.992V130.808C74.1953 130.861 74.1739 130.909 74.1313 130.952C74.0993 130.984 74.0566 131 74.0033 131H72.1953C72.0886 131 72.0139 130.957 71.9713 130.872L67.8273 124.024C67.8059 123.992 67.7846 123.981 67.7633 123.992C67.7419 123.992 67.7313 124.013 67.7313 124.056L67.7633 130.808C67.7633 130.861 67.7419 130.909 67.6993 130.952C67.6673 130.984 67.6246 131 67.5713 131H65.6993C65.6459 131 65.5979 130.984 65.5553 130.952C65.5233 130.909 65.5073 130.861 65.5073 130.808V119.992C65.5073 119.939 65.5233 119.896 65.5553 119.864C65.5979 119.821 65.6459 119.8 65.6993 119.8H67.5073C67.6139 119.8 67.6886 119.843 67.7313 119.928L71.8593 126.744C71.8806 126.776 71.9019 126.792 71.9233 126.792C71.9446 126.781 71.9553 126.755 71.9553 126.712L71.9393 119.992ZM83.8759 119.8C83.9292 119.8 83.9719 119.821 84.0039 119.864C84.0465 119.896 84.0679 119.939 84.0679 119.992V121.56C84.0679 121.613 84.0465 121.661 84.0039 121.704C83.9719 121.736 83.9292 121.752 83.8759 121.752H81.0119C80.9585 121.752 80.9319 121.779 80.9319 121.832V130.808C80.9319 130.861 80.9105 130.909 80.8679 130.952C80.8359 130.984 80.7932 131 80.7399 131H78.8679C78.8145 131 78.7665 130.984 78.7239 130.952C78.6919 130.909 78.6759 130.861 78.6759 130.808V121.832C78.6759 121.779 78.6492 121.752 78.5959 121.752H75.8119C75.7585 121.752 75.7105 121.736 75.6679 121.704C75.6359 121.661 75.6199 121.613 75.6199 121.56V119.992C75.6199 119.939 75.6359 119.896 75.6679 119.864C75.7105 119.821 75.7585 119.8 75.8119 119.8H83.8759ZM93.2833 121.544C93.2833 121.597 93.2619 121.645 93.2193 121.688C93.1873 121.72 93.1446 121.736 93.0913 121.736H87.8433C87.7899 121.736 87.7633 121.763 87.7633 121.816V124.296C87.7633 124.349 87.7899 124.376 87.8433 124.376H91.2833C91.3366 124.376 91.3793 124.397 91.4113 124.44C91.4539 124.472 91.4753 124.515 91.4753 124.568V126.12C91.4753 126.173 91.4539 126.221 91.4113 126.264C91.3793 126.296 91.3366 126.312 91.2833 126.312H87.8433C87.7899 126.312 87.7633 126.339 87.7633 126.392V128.984C87.7633 129.037 87.7899 129.064 87.8433 129.064H93.0913C93.1446 129.064 93.1873 129.085 93.2193 129.128C93.2619 129.16 93.2833 129.203 93.2833 129.256V130.808C93.2833 130.861 93.2619 130.909 93.2193 130.952C93.1873 130.984 93.1446 131 93.0913 131H85.6993C85.6459 131 85.5979 130.984 85.5553 130.952C85.5233 130.909 85.5073 130.861 85.5073 130.808V119.992C85.5073 119.939 85.5233 119.896 85.5553 119.864C85.5979 119.821 85.6459 119.8 85.6993 119.8H93.0913C93.1446 119.8 93.1873 119.821 93.2193 119.864C93.2619 119.896 93.2833 119.939 93.2833 119.992V121.544ZM100.995 131C100.888 131 100.814 130.952 100.771 130.856L98.771 126.424C98.7497 126.381 98.7177 126.36 98.675 126.36H97.187C97.1337 126.36 97.107 126.387 97.107 126.44V130.808C97.107 130.861 97.0857 130.909 97.043 130.952C97.011 130.984 96.9683 131 96.915 131H95.043C94.9897 131 94.9417 130.984 94.899 130.952C94.867 130.909 94.851 130.861 94.851 130.808V119.992C94.851 119.939 94.867 119.896 94.899 119.864C94.9417 119.821 94.9897 119.8 95.043 119.8H99.619C100.302 119.8 100.899 119.939 101.411 120.216C101.934 120.493 102.334 120.888 102.611 121.4C102.899 121.912 103.043 122.504 103.043 123.176C103.043 123.901 102.862 124.525 102.499 125.048C102.136 125.56 101.63 125.923 100.979 126.136C100.926 126.157 100.91 126.195 100.931 126.248L103.107 130.776C103.128 130.819 103.139 130.851 103.139 130.872C103.139 130.957 103.08 131 102.963 131H100.995ZM97.187 121.736C97.1337 121.736 97.107 121.763 97.107 121.816V124.552C97.107 124.605 97.1337 124.632 97.187 124.632H99.283C99.731 124.632 100.094 124.499 100.371 124.232C100.659 123.965 100.803 123.619 100.803 123.192C100.803 122.765 100.659 122.419 100.371 122.152C100.094 121.875 99.731 121.736 99.283 121.736H97.187Z" fill="#252530"/>
<path d="M61.0014 144.968C60.9801 144.989 60.9748 145.011 60.9854 145.032C60.9961 145.053 61.0174 145.064 61.0494 145.064H65.3854C65.4388 145.064 65.4814 145.085 65.5134 145.128C65.5561 145.16 65.5774 145.203 65.5774 145.256V146.808C65.5774 146.861 65.5561 146.909 65.5134 146.952C65.4814 146.984 65.4388 147 65.3854 147H58.1854C58.1321 147 58.0841 146.984 58.0414 146.952C58.0094 146.909 57.9934 146.861 57.9934 146.808V145.336C57.9934 145.24 58.0254 145.16 58.0894 145.096C58.6121 144.584 59.1454 144.029 59.6894 143.432C60.2334 142.824 60.5748 142.445 60.7134 142.296C61.0121 141.944 61.3161 141.608 61.6254 141.288C62.5961 140.211 63.0814 139.411 63.0814 138.888C63.0814 138.515 62.9481 138.211 62.6814 137.976C62.4148 137.731 62.0681 137.608 61.6414 137.608C61.2148 137.608 60.8681 137.731 60.6014 137.976C60.3348 138.211 60.2014 138.525 60.2014 138.92V139.32C60.2014 139.373 60.1801 139.421 60.1374 139.464C60.1054 139.496 60.0628 139.512 60.0094 139.512H58.1214C58.0681 139.512 58.0201 139.496 57.9774 139.464C57.9454 139.421 57.9294 139.373 57.9294 139.32V138.568C57.9614 137.992 58.1428 137.485 58.4734 137.048C58.8041 136.6 59.2414 136.259 59.7854 136.024C60.3401 135.789 60.9588 135.672 61.6414 135.672C62.3988 135.672 63.0548 135.816 63.6094 136.104C64.1748 136.381 64.6068 136.76 64.9054 137.24C65.2148 137.72 65.3694 138.253 65.3694 138.84C65.3694 139.288 65.2574 139.747 65.0334 140.216C64.8094 140.685 64.4734 141.192 64.0254 141.736C63.6948 142.152 63.3374 142.563 62.9534 142.968C62.5694 143.373 61.9988 143.96 61.2414 144.728L61.0014 144.968ZM70.7706 147.176C69.5972 147.176 68.6692 146.851 67.9866 146.2C67.3039 145.539 66.9626 144.643 66.9626 143.512V139.288C66.9626 138.179 67.3039 137.299 67.9866 136.648C68.6692 135.997 69.5972 135.672 70.7706 135.672C71.9439 135.672 72.8719 135.997 73.5546 136.648C74.2479 137.299 74.5946 138.179 74.5946 139.288V143.512C74.5946 144.643 74.2479 145.539 73.5546 146.2C72.8719 146.851 71.9439 147.176 70.7706 147.176ZM70.7706 145.24C71.2506 145.24 71.6292 145.096 71.9066 144.808C72.1946 144.509 72.3386 144.115 72.3386 143.624V139.224C72.3386 138.733 72.1946 138.344 71.9066 138.056C71.6292 137.757 71.2506 137.608 70.7706 137.608C70.3012 137.608 69.9226 137.757 69.6346 138.056C69.3572 138.344 69.2186 138.733 69.2186 139.224V143.624C69.2186 144.115 69.3572 144.509 69.6346 144.808C69.9226 145.096 70.3012 145.24 70.7706 145.24ZM79.0796 144.968C79.0582 144.989 79.0529 145.011 79.0636 145.032C79.0742 145.053 79.0956 145.064 79.1276 145.064H83.4636C83.5169 145.064 83.5596 145.085 83.5916 145.128C83.6342 145.16 83.6556 145.203 83.6556 145.256V146.808C83.6556 146.861 83.6342 146.909 83.5916 146.952C83.5596 146.984 83.5169 147 83.4636 147H76.2636C76.2102 147 76.1622 146.984 76.1196 146.952C76.0876 146.909 76.0716 146.861 76.0716 146.808V145.336C76.0716 145.24 76.1036 145.16 76.1676 145.096C76.6902 144.584 77.2236 144.029 77.7676 143.432C78.3116 142.824 78.6529 142.445 78.7916 142.296C79.0902 141.944 79.3942 141.608 79.7036 141.288C80.6742 140.211 81.1596 139.411 81.1596 138.888C81.1596 138.515 81.0262 138.211 80.7596 137.976C80.4929 137.731 80.1462 137.608 79.7196 137.608C79.2929 137.608 78.9462 137.731 78.6796 137.976C78.4129 138.211 78.2796 138.525 78.2796 138.92V139.32C78.2796 139.373 78.2582 139.421 78.2156 139.464C78.1836 139.496 78.1409 139.512 78.0876 139.512H76.1996C76.1462 139.512 76.0982 139.496 76.0556 139.464C76.0236 139.421 76.0076 139.373 76.0076 139.32V138.568C76.0396 137.992 76.2209 137.485 76.5516 137.048C76.8822 136.6 77.3196 136.259 77.8636 136.024C78.4182 135.789 79.0369 135.672 79.7196 135.672C80.4769 135.672 81.1329 135.816 81.6876 136.104C82.2529 136.381 82.6849 136.76 82.9836 137.24C83.2929 137.72 83.4476 138.253 83.4476 138.84C83.4476 139.288 83.3356 139.747 83.1116 140.216C82.8876 140.685 82.5516 141.192 82.1036 141.736C81.7729 142.152 81.4156 142.563 81.0316 142.968C80.6476 143.373 80.0769 143.96 79.3196 144.728L79.0796 144.968ZM91.7179 141.656C91.9313 142.147 92.0379 142.712 92.0379 143.352C92.0379 143.928 91.9419 144.461 91.7499 144.952C91.4939 145.635 91.0619 146.168 90.4539 146.552C89.8566 146.936 89.1473 147.128 88.3259 147.128C87.5153 147.128 86.8006 146.925 86.1819 146.52C85.5739 146.115 85.1366 145.565 84.8699 144.872C84.7206 144.456 84.6353 144.008 84.6139 143.528C84.6139 143.4 84.6779 143.336 84.8059 143.336H86.6939C86.8219 143.336 86.8859 143.4 86.8859 143.528C86.9286 143.88 86.9873 144.141 87.0619 144.312C87.1579 144.589 87.3126 144.808 87.5259 144.968C87.7499 145.117 88.0113 145.192 88.3099 145.192C88.9073 145.192 89.3179 144.931 89.5419 144.408C89.6913 144.088 89.7659 143.715 89.7659 143.288C89.7659 142.787 89.6859 142.376 89.5259 142.056C89.2806 141.555 88.8699 141.304 88.2939 141.304C88.1766 141.304 88.0539 141.341 87.9259 141.416C87.7979 141.48 87.6433 141.576 87.4619 141.704C87.4193 141.736 87.3766 141.752 87.3339 141.752C87.2699 141.752 87.2219 141.72 87.1899 141.656L86.2459 140.328C86.2246 140.296 86.2139 140.259 86.2139 140.216C86.2139 140.152 86.2353 140.099 86.2779 140.056L88.8219 137.832C88.8433 137.811 88.8486 137.789 88.8379 137.768C88.8379 137.747 88.8219 137.736 88.7899 137.736H85.0299C84.9766 137.736 84.9286 137.72 84.8859 137.688C84.8539 137.645 84.8379 137.597 84.8379 137.544V135.992C84.8379 135.939 84.8539 135.896 84.8859 135.864C84.9286 135.821 84.9766 135.8 85.0299 135.8H91.7019C91.7553 135.8 91.7979 135.821 91.8299 135.864C91.8726 135.896 91.8939 135.939 91.8939 135.992V137.752C91.8939 137.837 91.8566 137.917 91.7819 137.992L89.6859 139.912C89.6646 139.933 89.6539 139.955 89.6539 139.976C89.6646 139.997 89.6913 140.008 89.7339 140.008C90.6619 140.189 91.3233 140.739 91.7179 141.656Z" fill="#252530"/>
<path d="M61.6435 50.24C61.5475 50.288 61.5475 50.336 61.6435 50.384C63.1635 51.168 63.9235 52.472 63.9235 54.296C63.9235 55.848 63.3955 57.024 62.3395 57.824C61.2835 58.608 59.8995 59 58.1875 59H51.9715C51.8915 59 51.8195 58.976 51.7555 58.928C51.7075 58.864 51.6835 58.792 51.6835 58.712V42.488C51.6835 42.408 51.7075 42.344 51.7555 42.296C51.8195 42.232 51.8915 42.2 51.9715 42.2H57.9955C61.7875 42.2 63.6835 43.736 63.6835 46.808C63.6835 48.408 63.0035 49.552 61.6435 50.24ZM55.1875 45.104C55.1075 45.104 55.0675 45.144 55.0675 45.224V48.968C55.0675 49.048 55.1075 49.088 55.1875 49.088H57.9955C58.7475 49.088 59.3315 48.912 59.7475 48.56C60.1635 48.208 60.3715 47.728 60.3715 47.12C60.3715 46.496 60.1635 46.008 59.7475 45.656C59.3315 45.288 58.7475 45.104 57.9955 45.104H55.1875ZM58.1875 56.072C58.9235 56.072 59.4995 55.888 59.9155 55.52C60.3315 55.136 60.5395 54.616 60.5395 53.96C60.5395 53.304 60.3315 52.792 59.9155 52.424C59.4995 52.04 58.9155 51.848 58.1635 51.848H55.1875C55.1075 51.848 55.0675 51.888 55.0675 51.968V55.952C55.0675 56.032 55.1075 56.072 55.1875 56.072H58.1875ZM77.4703 51.56C77.5663 52.168 77.5983 52.848 77.5663 53.6C77.5503 53.792 77.4463 53.888 77.2543 53.888H69.8383C69.7423 53.888 69.7103 53.928 69.7423 54.008C69.7903 54.328 69.8783 54.648 70.0063 54.968C70.4223 55.864 71.2703 56.312 72.5503 56.312C73.5743 56.296 74.3823 55.88 74.9743 55.064C75.0383 54.968 75.1103 54.92 75.1903 54.92C75.2383 54.92 75.2943 54.952 75.3583 55.016L77.0863 56.72C77.1663 56.8 77.2063 56.872 77.2063 56.936C77.2063 56.968 77.1743 57.032 77.1103 57.128C76.5823 57.784 75.9023 58.296 75.0703 58.664C74.2383 59.016 73.3263 59.192 72.3343 59.192C70.9583 59.192 69.7903 58.88 68.8303 58.256C67.8863 57.632 67.2063 56.76 66.7903 55.64C66.4543 54.84 66.2863 53.792 66.2863 52.496C66.2863 51.616 66.4063 50.84 66.6463 50.168C67.0143 49.032 67.6543 48.128 68.5663 47.456C69.4943 46.784 70.5903 46.448 71.8543 46.448C73.4543 46.448 74.7343 46.912 75.6943 47.84C76.6703 48.768 77.2623 50.008 77.4703 51.56ZM71.8783 49.376C70.8703 49.376 70.2063 49.848 69.8863 50.792C69.8223 51 69.7663 51.256 69.7183 51.56C69.7183 51.64 69.7583 51.68 69.8383 51.68H73.9903C74.0863 51.68 74.1183 51.64 74.0863 51.56C74.0063 51.096 73.9663 50.872 73.9663 50.888C73.8223 50.408 73.5663 50.04 73.1983 49.784C72.8463 49.512 72.4063 49.376 71.8783 49.376ZM84.6078 59.168C83.5358 59.168 82.5998 59.016 81.7998 58.712C80.9998 58.408 80.3758 57.984 79.9278 57.44C79.4958 56.896 79.2798 56.28 79.2798 55.592V55.352C79.2798 55.272 79.3038 55.208 79.3518 55.16C79.4158 55.096 79.4878 55.064 79.5678 55.064H82.2318C82.3118 55.064 82.3758 55.096 82.4238 55.16C82.4878 55.208 82.5198 55.272 82.5198 55.352V55.376C82.5198 55.728 82.7118 56.032 83.0958 56.288C83.4958 56.528 83.9918 56.648 84.5838 56.648C85.1278 56.648 85.5678 56.544 85.9038 56.336C86.2398 56.112 86.4078 55.84 86.4078 55.52C86.4078 55.232 86.2638 55.016 85.9758 54.872C85.6878 54.728 85.2158 54.576 84.5598 54.416C83.8078 54.224 83.2158 54.04 82.7838 53.864C81.7598 53.512 80.9438 53.08 80.3358 52.568C79.7278 52.056 79.4238 51.32 79.4238 50.36C79.4238 49.176 79.8798 48.24 80.7918 47.552C81.7198 46.848 82.9438 46.496 84.4638 46.496C85.4878 46.496 86.3838 46.664 87.1518 47C87.9198 47.32 88.5118 47.776 88.9278 48.368C89.3598 48.96 89.5758 49.632 89.5758 50.384C89.5758 50.464 89.5438 50.536 89.4798 50.6C89.4318 50.648 89.3678 50.672 89.2878 50.672H86.7198C86.6398 50.672 86.5678 50.648 86.5038 50.6C86.4558 50.536 86.4318 50.464 86.4318 50.384C86.4318 50.032 86.2478 49.736 85.8798 49.496C85.5278 49.256 85.0558 49.136 84.4638 49.136C83.9358 49.136 83.5038 49.232 83.1678 49.424C82.8318 49.616 82.6638 49.88 82.6638 50.216C82.6638 50.536 82.8238 50.776 83.1438 50.936C83.4798 51.096 84.0318 51.264 84.7998 51.44C84.9758 51.488 85.1758 51.544 85.3998 51.608C85.6238 51.656 85.8638 51.72 86.1198 51.8C87.2558 52.136 88.1518 52.568 88.8078 53.096C89.4638 53.624 89.7918 54.392 89.7918 55.4C89.7918 56.584 89.3198 57.512 88.3758 58.184C87.4478 58.84 86.1918 59.168 84.6078 59.168ZM98.9913 49.088C98.9913 49.168 98.9593 49.24 98.8953 49.304C98.8473 49.352 98.7833 49.376 98.7033 49.376H96.3993C96.3193 49.376 96.2793 49.416 96.2793 49.496V54.584C96.2793 55.112 96.3833 55.504 96.5913 55.76C96.8153 56.016 97.1673 56.144 97.6473 56.144H98.4393C98.5193 56.144 98.5833 56.176 98.6313 56.24C98.6953 56.288 98.7273 56.352 98.7273 56.432V58.712C98.7273 58.888 98.6313 58.992 98.4393 59.024C97.7673 59.056 97.2873 59.072 96.9993 59.072C95.6713 59.072 94.6793 58.856 94.0233 58.424C93.3673 57.976 93.0313 57.144 93.0153 55.928V49.496C93.0153 49.416 92.9753 49.376 92.8953 49.376H91.5273C91.4473 49.376 91.3753 49.352 91.3113 49.304C91.2633 49.24 91.2393 49.168 91.2393 49.088V46.952C91.2393 46.872 91.2633 46.808 91.3113 46.76C91.3753 46.696 91.4473 46.664 91.5273 46.664H92.8953C92.9753 46.664 93.0153 46.624 93.0153 46.544V43.688C93.0153 43.608 93.0393 43.544 93.0873 43.496C93.1513 43.432 93.2233 43.4 93.3033 43.4H95.9913C96.0713 43.4 96.1353 43.432 96.1833 43.496C96.2473 43.544 96.2793 43.608 96.2793 43.688V46.544C96.2793 46.624 96.3193 46.664 96.3993 46.664H98.7033C98.7833 46.664 98.8473 46.696 98.8953 46.76C98.9593 46.808 98.9913 46.872 98.9913 46.952V49.088ZM47.2866 68.816C47.2866 68.896 47.2546 68.968 47.1906 69.032C47.1426 69.08 47.0786 69.104 46.9986 69.104H39.1266C39.0466 69.104 39.0066 69.144 39.0066 69.224V72.944C39.0066 73.024 39.0466 73.064 39.1266 73.064H44.2866C44.3666 73.064 44.4306 73.096 44.4786 73.16C44.5426 73.208 44.5746 73.272 44.5746 73.352V75.68C44.5746 75.76 44.5426 75.832 44.4786 75.896C44.4306 75.944 44.3666 75.968 44.2866 75.968H39.1266C39.0466 75.968 39.0066 76.008 39.0066 76.088V79.976C39.0066 80.056 39.0466 80.096 39.1266 80.096H46.9986C47.0786 80.096 47.1426 80.128 47.1906 80.192C47.2546 80.24 47.2866 80.304 47.2866 80.384V82.712C47.2866 82.792 47.2546 82.864 47.1906 82.928C47.1426 82.976 47.0786 83 46.9986 83H35.9106C35.8306 83 35.7586 82.976 35.6946 82.928C35.6466 82.864 35.6226 82.792 35.6226 82.712V66.488C35.6226 66.408 35.6466 66.344 35.6946 66.296C35.7586 66.232 35.8306 66.2 35.9106 66.2H46.9986C47.0786 66.2 47.1426 66.232 47.1906 66.296C47.2546 66.344 47.2866 66.408 47.2866 66.488V68.816ZM54.2422 83.168C53.1702 83.168 52.2342 83.016 51.4342 82.712C50.6342 82.408 50.0102 81.984 49.5622 81.44C49.1302 80.896 48.9142 80.28 48.9142 79.592V79.352C48.9142 79.272 48.9382 79.208 48.9862 79.16C49.0502 79.096 49.1222 79.064 49.2022 79.064H51.8662C51.9462 79.064 52.0102 79.096 52.0582 79.16C52.1222 79.208 52.1542 79.272 52.1542 79.352V79.376C52.1542 79.728 52.3462 80.032 52.7302 80.288C53.1302 80.528 53.6262 80.648 54.2182 80.648C54.7622 80.648 55.2022 80.544 55.5382 80.336C55.8742 80.112 56.0422 79.84 56.0422 79.52C56.0422 79.232 55.8982 79.016 55.6102 78.872C55.3222 78.728 54.8502 78.576 54.1942 78.416C53.4422 78.224 52.8502 78.04 52.4182 77.864C51.3942 77.512 50.5782 77.08 49.9702 76.568C49.3622 76.056 49.0582 75.32 49.0582 74.36C49.0582 73.176 49.5142 72.24 50.4262 71.552C51.3542 70.848 52.5782 70.496 54.0982 70.496C55.1222 70.496 56.0182 70.664 56.7862 71C57.5542 71.32 58.1462 71.776 58.5622 72.368C58.9942 72.96 59.2102 73.632 59.2102 74.384C59.2102 74.464 59.1782 74.536 59.1142 74.6C59.0662 74.648 59.0022 74.672 58.9222 74.672H56.3542C56.2742 74.672 56.2022 74.648 56.1382 74.6C56.0902 74.536 56.0662 74.464 56.0662 74.384C56.0662 74.032 55.8822 73.736 55.5142 73.496C55.1622 73.256 54.6902 73.136 54.0982 73.136C53.5702 73.136 53.1382 73.232 52.8022 73.424C52.4662 73.616 52.2982 73.88 52.2982 74.216C52.2982 74.536 52.4582 74.776 52.7782 74.936C53.1142 75.096 53.6662 75.264 54.4342 75.44C54.6102 75.488 54.8102 75.544 55.0342 75.608C55.2582 75.656 55.4982 75.72 55.7542 75.8C56.8902 76.136 57.7862 76.568 58.4422 77.096C59.0982 77.624 59.4262 78.392 59.4262 79.4C59.4262 80.584 58.9542 81.512 58.0102 82.184C57.0822 82.84 55.8262 83.168 54.2422 83.168ZM68.3257 73.088C68.3257 73.168 68.2937 73.24 68.2297 73.304C68.1817 73.352 68.1177 73.376 68.0377 73.376H65.7337C65.6537 73.376 65.6137 73.416 65.6137 73.496V78.584C65.6137 79.112 65.7177 79.504 65.9257 79.76C66.1497 80.016 66.5017 80.144 66.9817 80.144H67.7737C67.8537 80.144 67.9177 80.176 67.9657 80.24C68.0297 80.288 68.0617 80.352 68.0617 80.432V82.712C68.0617 82.888 67.9657 82.992 67.7737 83.024C67.1017 83.056 66.6217 83.072 66.3337 83.072C65.0057 83.072 64.0137 82.856 63.3577 82.424C62.7017 81.976 62.3657 81.144 62.3497 79.928V73.496C62.3497 73.416 62.3097 73.376 62.2297 73.376H60.8617C60.7817 73.376 60.7097 73.352 60.6457 73.304C60.5977 73.24 60.5737 73.168 60.5737 73.088V70.952C60.5737 70.872 60.5977 70.808 60.6457 70.76C60.7097 70.696 60.7817 70.664 60.8617 70.664H62.2297C62.3097 70.664 62.3497 70.624 62.3497 70.544V67.688C62.3497 67.608 62.3737 67.544 62.4217 67.496C62.4857 67.432 62.5577 67.4 62.6377 67.4H65.3257C65.4057 67.4 65.4697 67.432 65.5177 67.496C65.5817 67.544 65.6137 67.608 65.6137 67.688V70.544C65.6137 70.624 65.6537 70.664 65.7337 70.664H68.0377C68.1177 70.664 68.1817 70.696 68.2297 70.76C68.2937 70.808 68.3257 70.872 68.3257 70.952V73.088ZM72.1348 83.096C71.5908 83.096 71.1348 82.92 70.7668 82.568C70.4148 82.2 70.2388 81.744 70.2388 81.2C70.2388 80.64 70.4148 80.184 70.7668 79.832C71.1188 79.48 71.5748 79.304 72.1348 79.304C72.6948 79.304 73.1508 79.48 73.5028 79.832C73.8548 80.184 74.0308 80.64 74.0308 81.2C74.0308 81.744 73.8468 82.2 73.4788 82.568C73.1268 82.92 72.6788 83.096 72.1348 83.096ZM90.7683 83C90.6083 83 90.4963 82.928 90.4323 82.784L87.4323 76.136C87.4003 76.072 87.3523 76.04 87.2883 76.04H85.0563C84.9763 76.04 84.9363 76.08 84.9363 76.16V82.712C84.9363 82.792 84.9043 82.864 84.8403 82.928C84.7923 82.976 84.7283 83 84.6483 83H81.8403C81.7603 83 81.6883 82.976 81.6243 82.928C81.5763 82.864 81.5523 82.792 81.5523 82.712V66.488C81.5523 66.408 81.5763 66.344 81.6243 66.296C81.6883 66.232 81.7603 66.2 81.8403 66.2H88.7043C89.7283 66.2 90.6243 66.408 91.3923 66.824C92.1763 67.24 92.7763 67.832 93.1923 68.6C93.6243 69.368 93.8403 70.256 93.8403 71.264C93.8403 72.352 93.5683 73.288 93.0243 74.072C92.4803 74.84 91.7203 75.384 90.7443 75.704C90.6643 75.736 90.6403 75.792 90.6723 75.872L93.9363 82.664C93.9683 82.728 93.9843 82.776 93.9843 82.808C93.9843 82.936 93.8963 83 93.7203 83H90.7683ZM85.0563 69.104C84.9763 69.104 84.9363 69.144 84.9363 69.224V73.328C84.9363 73.408 84.9763 73.448 85.0563 73.448H88.2003C88.8723 73.448 89.4163 73.248 89.8323 72.848C90.2643 72.448 90.4803 71.928 90.4803 71.288C90.4803 70.648 90.2643 70.128 89.8323 69.728C89.4163 69.312 88.8723 69.104 88.2003 69.104H85.0563ZM102.17 83.264C100.922 83.264 99.8185 83.008 98.8585 82.496C97.9145 81.984 97.1785 81.272 96.6505 80.36C96.1225 79.432 95.8585 78.368 95.8585 77.168V72.032C95.8585 70.848 96.1225 69.8 96.6505 68.888C97.1785 67.976 97.9145 67.272 98.8585 66.776C99.8185 66.264 100.922 66.008 102.17 66.008C103.434 66.008 104.538 66.264 105.482 66.776C106.442 67.272 107.186 67.976 107.714 68.888C108.242 69.8 108.506 70.848 108.506 72.032V77.168C108.506 78.368 108.242 79.432 107.714 80.36C107.186 81.288 106.442 82.008 105.482 82.52C104.538 83.016 103.434 83.264 102.17 83.264ZM102.17 80.36C103.05 80.36 103.762 80.08 104.306 79.52C104.85 78.96 105.122 78.216 105.122 77.288V72.008C105.122 71.08 104.85 70.336 104.306 69.776C103.778 69.2 103.066 68.912 102.17 68.912C101.29 68.912 100.578 69.2 100.034 69.776C99.5065 70.336 99.2425 71.08 99.2425 72.008V77.288C99.2425 78.216 99.5065 78.96 100.034 79.52C100.578 80.08 101.29 80.36 102.17 80.36ZM111.289 83C111.209 83 111.137 82.976 111.073 82.928C111.025 82.864 111.001 82.792 111.001 82.712V66.488C111.001 66.408 111.025 66.344 111.073 66.296C111.137 66.232 111.209 66.2 111.289 66.2H114.097C114.177 66.2 114.241 66.232 114.289 66.296C114.353 66.344 114.385 66.408 114.385 66.488V82.712C114.385 82.792 114.353 82.864 114.289 82.928C114.241 82.976 114.177 83 114.097 83H111.289Z" fill="#252530"/>
<path d="M44.7824 94.928C44.8358 94.8427 44.9104 94.8 45.0064 94.8H46.4784C46.5318 94.8 46.5744 94.8213 46.6064 94.864C46.6491 94.896 46.6704 94.9387 46.6704 94.992V105.808C46.6704 105.861 46.6491 105.909 46.6064 105.952C46.5744 105.984 46.5318 106 46.4784 106H45.0064C44.9531 106 44.9051 105.984 44.8624 105.952C44.8304 105.909 44.8144 105.861 44.8144 105.808V98.176C44.8144 98.144 44.7984 98.1227 44.7664 98.112C44.7451 98.1013 44.7291 98.112 44.7184 98.144L42.7184 101.216C42.6651 101.301 42.5904 101.344 42.4944 101.344H41.7584C41.6624 101.344 41.5878 101.301 41.5344 101.216L39.5184 98.16C39.5078 98.128 39.4864 98.1173 39.4544 98.128C39.4331 98.1387 39.4224 98.16 39.4224 98.192V105.808C39.4224 105.861 39.4011 105.909 39.3584 105.952C39.3264 105.984 39.2838 106 39.2304 106H37.7584C37.7051 106 37.6571 105.984 37.6144 105.952C37.5824 105.909 37.5664 105.861 37.5664 105.808V94.992C37.5664 94.9387 37.5824 94.896 37.6144 94.864C37.6571 94.8213 37.7051 94.8 37.7584 94.8H39.2304C39.3264 94.8 39.4011 94.8427 39.4544 94.928L42.0624 98.88C42.0838 98.9013 42.1051 98.912 42.1264 98.912C42.1478 98.912 42.1638 98.9013 42.1744 98.88L44.7824 94.928ZM49.3839 96.704C49.0533 96.704 48.7813 96.5973 48.5679 96.384C48.3546 96.1707 48.2479 95.8987 48.2479 95.568C48.2479 95.2373 48.3546 94.9653 48.5679 94.752C48.7813 94.5387 49.0533 94.432 49.3839 94.432C49.7146 94.432 49.9866 94.5387 50.1999 94.752C50.4133 94.9653 50.5199 95.2373 50.5199 95.568C50.5199 95.8987 50.4133 96.1707 50.1999 96.384C49.9866 96.5973 49.7146 96.704 49.3839 96.704ZM48.6159 106C48.5626 106 48.5146 105.984 48.4719 105.952C48.4399 105.909 48.4239 105.861 48.4239 105.808V98C48.4239 97.9467 48.4399 97.904 48.4719 97.872C48.5146 97.8293 48.5626 97.808 48.6159 97.808H50.0879C50.1413 97.808 50.1839 97.8293 50.2159 97.872C50.2586 97.904 50.2799 97.9467 50.2799 98V105.808C50.2799 105.861 50.2586 105.909 50.2159 105.952C50.1839 105.984 50.1413 106 50.0879 106H48.6159ZM56.9781 94.992C56.9781 94.9387 56.9941 94.896 57.0261 94.864C57.0687 94.8213 57.1167 94.8 57.1701 94.8H58.6421C58.6954 94.8 58.7381 94.8213 58.7701 94.864C58.8127 94.896 58.8341 94.9387 58.8341 94.992V105.808C58.8341 105.861 58.8127 105.909 58.7701 105.952C58.7381 105.984 58.6954 106 58.6421 106H57.1701C57.1167 106 57.0687 105.984 57.0261 105.952C56.9941 105.909 56.9781 105.861 56.9781 105.808V105.328C56.9781 105.296 56.9674 105.275 56.9461 105.264C56.9247 105.253 56.9034 105.264 56.8821 105.296C56.4127 105.851 55.7994 106.128 55.0421 106.128C54.2847 106.128 53.6447 105.931 53.1221 105.536C52.5994 105.141 52.2207 104.592 51.9861 103.888C51.7941 103.291 51.6981 102.624 51.6981 101.888C51.6981 101.131 51.7887 100.48 51.9701 99.936C52.2047 99.232 52.5834 98.6827 53.1061 98.288C53.6287 97.8933 54.2847 97.696 55.0741 97.696C55.8101 97.696 56.4127 97.9627 56.8821 98.496C56.9034 98.5173 56.9247 98.528 56.9461 98.528C56.9674 98.5173 56.9781 98.496 56.9781 98.464V94.992ZM56.5941 103.76C56.8394 103.323 56.9621 102.704 56.9621 101.904C56.9621 101.072 56.8287 100.437 56.5621 100C56.2741 99.5307 55.8687 99.296 55.3461 99.296C54.8021 99.296 54.3754 99.52 54.0661 99.968C53.7461 100.437 53.5861 101.088 53.5861 101.92C53.5861 102.667 53.7141 103.28 53.9701 103.76C54.2687 104.272 54.7221 104.528 55.3301 104.528C55.8741 104.528 56.2954 104.272 56.5941 103.76ZM62.7587 101.984C62.7054 101.984 62.6574 101.968 62.6147 101.936C62.5827 101.893 62.5667 101.845 62.5667 101.792V100.576C62.5667 100.523 62.5827 100.48 62.6147 100.448C62.6574 100.405 62.7054 100.384 62.7587 100.384H67.7987C67.852 100.384 67.8947 100.405 67.9267 100.448C67.9694 100.48 67.9907 100.523 67.9907 100.576V101.792C67.9907 101.845 67.9694 101.893 67.9267 101.936C67.8947 101.968 67.852 101.984 67.7987 101.984H62.7587ZM76.4074 94.928C76.4608 94.8427 76.5354 94.8 76.6314 94.8H78.1034C78.1568 94.8 78.1994 94.8213 78.2314 94.864C78.2741 94.896 78.2954 94.9387 78.2954 94.992V105.808C78.2954 105.861 78.2741 105.909 78.2314 105.952C78.1994 105.984 78.1568 106 78.1034 106H76.6314C76.5781 106 76.5301 105.984 76.4874 105.952C76.4554 105.909 76.4394 105.861 76.4394 105.808V98.176C76.4394 98.144 76.4234 98.1227 76.3914 98.112C76.3701 98.1013 76.3541 98.112 76.3434 98.144L74.3434 101.216C74.2901 101.301 74.2154 101.344 74.1194 101.344H73.3834C73.2874 101.344 73.2128 101.301 73.1594 101.216L71.1434 98.16C71.1328 98.128 71.1114 98.1173 71.0794 98.128C71.0581 98.1387 71.0474 98.16 71.0474 98.192V105.808C71.0474 105.861 71.0261 105.909 70.9834 105.952C70.9514 105.984 70.9088 106 70.8554 106H69.3834C69.3301 106 69.2821 105.984 69.2394 105.952C69.2074 105.909 69.1914 105.861 69.1914 105.808V94.992C69.1914 94.9387 69.2074 94.896 69.2394 94.864C69.2821 94.8213 69.3301 94.8 69.3834 94.8H70.8554C70.9514 94.8 71.0261 94.8427 71.0794 94.928L73.6874 98.88C73.7088 98.9013 73.7301 98.912 73.7514 98.912C73.7728 98.912 73.7888 98.9013 73.7994 98.88L76.4074 94.928ZM83.0729 97.696C83.7449 97.696 84.3369 97.8133 84.8489 98.048C85.3609 98.2827 85.7556 98.608 86.0329 99.024C86.3103 99.4293 86.4489 99.8933 86.4489 100.416V105.808C86.4489 105.861 86.4276 105.909 86.3849 105.952C86.3529 105.984 86.3103 106 86.2569 106H84.7849C84.7316 106 84.6836 105.984 84.6409 105.952C84.6089 105.909 84.5929 105.861 84.5929 105.808V105.296C84.5929 105.264 84.5823 105.248 84.5609 105.248C84.5396 105.237 84.5183 105.243 84.4969 105.264C83.9743 105.84 83.2169 106.128 82.2249 106.128C81.4249 106.128 80.7636 105.925 80.2409 105.52C79.7289 105.115 79.4729 104.512 79.4729 103.712C79.4729 102.88 79.7609 102.235 80.3369 101.776C80.9236 101.307 81.7449 101.072 82.8009 101.072H84.5129C84.5663 101.072 84.5929 101.045 84.5929 100.992V100.608C84.5929 100.192 84.4703 99.872 84.2249 99.648C83.9796 99.4133 83.6116 99.296 83.1209 99.296C82.7156 99.296 82.3849 99.3707 82.1289 99.52C81.8836 99.6587 81.7289 99.856 81.6649 100.112C81.6329 100.24 81.5583 100.293 81.4409 100.272L79.8889 100.08C79.8356 100.069 79.7876 100.053 79.7449 100.032C79.7129 100 79.7023 99.9627 79.7129 99.92C79.7983 99.2693 80.1449 98.736 80.7529 98.32C81.3716 97.904 82.1449 97.696 83.0729 97.696ZM82.6889 104.656C83.2116 104.656 83.6596 104.517 84.0329 104.24C84.4063 103.963 84.5929 103.611 84.5929 103.184V102.432C84.5929 102.379 84.5663 102.352 84.5129 102.352H83.1689C82.6036 102.352 82.1556 102.459 81.8249 102.672C81.5049 102.885 81.3449 103.189 81.3449 103.584C81.3449 103.925 81.4676 104.192 81.7129 104.384C81.9689 104.565 82.2943 104.656 82.6889 104.656ZM91.6203 97.728C91.9616 97.728 92.2603 97.7973 92.5163 97.936C92.6016 97.9787 92.6336 98.0587 92.6123 98.176L92.3403 99.616C92.3296 99.744 92.255 99.7813 92.1163 99.728C91.9563 99.6747 91.7696 99.648 91.5563 99.648C91.4176 99.648 91.311 99.6533 91.2363 99.664C90.7883 99.6853 90.415 99.8453 90.1163 100.144C89.8176 100.432 89.6683 100.811 89.6683 101.28V105.808C89.6683 105.861 89.647 105.909 89.6043 105.952C89.5723 105.984 89.5296 106 89.4763 106H88.0043C87.951 106 87.903 105.984 87.8603 105.952C87.8283 105.909 87.8123 105.861 87.8123 105.808V98.016C87.8123 97.9627 87.8283 97.92 87.8603 97.888C87.903 97.8453 87.951 97.824 88.0043 97.824H89.4763C89.5296 97.824 89.5723 97.8453 89.6043 97.888C89.647 97.92 89.6683 97.9627 89.6683 98.016V98.736C89.6683 98.7787 89.6736 98.8053 89.6843 98.816C89.7056 98.816 89.727 98.8 89.7483 98.768C90.1963 98.0747 90.8203 97.728 91.6203 97.728ZM93.5199 106C93.4666 106 93.4186 105.984 93.3759 105.952C93.3439 105.909 93.3279 105.861 93.3279 105.808V94.992C93.3279 94.9387 93.3439 94.896 93.3759 94.864C93.4186 94.8213 93.4666 94.8 93.5199 94.8H94.9919C95.0453 94.8 95.0879 94.8213 95.1199 94.864C95.1626 94.896 95.1839 94.9387 95.1839 94.992V100.768C95.1839 100.8 95.1946 100.821 95.2159 100.832C95.2373 100.843 95.2586 100.832 95.2799 100.8L97.8719 97.936C97.9466 97.8613 98.0266 97.824 98.1119 97.824H99.8079C99.9146 97.824 99.9679 97.8613 99.9679 97.936C99.9679 97.968 99.9519 98.0107 99.9199 98.064L97.8879 100.496C97.8559 100.528 97.8506 100.565 97.8719 100.608L100.272 105.776C100.293 105.819 100.304 105.851 100.304 105.872C100.304 105.957 100.245 106 100.128 106H98.5759C98.4693 106 98.3946 105.952 98.3519 105.856L96.6079 101.792C96.5973 101.771 96.5759 101.76 96.5439 101.76C96.5226 101.749 96.5066 101.755 96.4959 101.776L95.2159 103.248C95.1946 103.291 95.1839 103.328 95.1839 103.36V105.808C95.1839 105.861 95.1626 105.909 95.1199 105.952C95.0879 105.984 95.0453 106 94.9919 106H93.5199ZM107.505 100.992C107.548 101.259 107.569 101.557 107.569 101.888L107.553 102.384C107.553 102.512 107.489 102.576 107.361 102.576H102.353C102.3 102.576 102.273 102.603 102.273 102.656C102.305 103.008 102.353 103.248 102.417 103.376C102.673 104.144 103.297 104.533 104.289 104.544C105.015 104.544 105.591 104.245 106.017 103.648C106.06 103.584 106.113 103.552 106.177 103.552C106.22 103.552 106.257 103.568 106.289 103.6L107.281 104.416C107.377 104.491 107.393 104.576 107.329 104.672C106.999 105.141 106.556 105.504 106.001 105.76C105.457 106.016 104.849 106.144 104.177 106.144C103.345 106.144 102.636 105.957 102.049 105.584C101.473 105.211 101.052 104.688 100.785 104.016C100.54 103.44 100.417 102.64 100.417 101.616C100.417 100.997 100.481 100.496 100.609 100.112C100.823 99.3653 101.223 98.7787 101.809 98.352C102.407 97.9147 103.121 97.696 103.953 97.696C106.055 97.696 107.239 98.7947 107.505 100.992ZM103.953 99.296C103.559 99.296 103.228 99.3973 102.961 99.6C102.705 99.792 102.524 100.064 102.417 100.416C102.353 100.597 102.311 100.832 102.289 101.12C102.268 101.173 102.289 101.2 102.353 101.2H105.601C105.655 101.2 105.681 101.173 105.681 101.12C105.66 100.853 105.628 100.651 105.585 100.512C105.489 100.128 105.297 99.8293 105.009 99.616C104.732 99.4027 104.38 99.296 103.953 99.296ZM112.945 99.136C112.945 99.1893 112.924 99.2373 112.881 99.28C112.849 99.312 112.807 99.328 112.753 99.328H111.121C111.068 99.328 111.041 99.3547 111.041 99.408V103.264C111.041 103.669 111.127 103.963 111.297 104.144C111.479 104.325 111.761 104.416 112.145 104.416H112.625C112.679 104.416 112.721 104.437 112.753 104.48C112.796 104.512 112.817 104.555 112.817 104.608V105.808C112.817 105.925 112.753 105.995 112.625 106.016L111.793 106.032C110.951 106.032 110.321 105.888 109.905 105.6C109.489 105.312 109.276 104.768 109.265 103.968V99.408C109.265 99.3547 109.239 99.328 109.185 99.328H108.273C108.22 99.328 108.172 99.312 108.129 99.28C108.097 99.2373 108.081 99.1893 108.081 99.136V98.016C108.081 97.9627 108.097 97.92 108.129 97.888C108.172 97.8453 108.22 97.824 108.273 97.824H109.185C109.239 97.824 109.265 97.7973 109.265 97.744V95.872C109.265 95.8187 109.281 95.776 109.313 95.744C109.356 95.7013 109.404 95.68 109.457 95.68H110.849C110.903 95.68 110.945 95.7013 110.977 95.744C111.02 95.776 111.041 95.8187 111.041 95.872V97.744C111.041 97.7973 111.068 97.824 111.121 97.824H112.753C112.807 97.824 112.849 97.8453 112.881 97.888C112.924 97.92 112.945 97.9627 112.945 98.016V99.136Z" fill="white"/>
</g>
<defs>
<clipPath id="clip0_15_324">
<rect width="150" height="168" fill="white"/>
</clipPath>
</defs>
</svg>
