<svg width="150" height="168" viewBox="0 0 150 168" fill="none" xmlns="http://www.w3.org/2000/svg">
<g clip-path="url(#clip0_15_616)">
<path d="M10 132.9V2H139V132.9L74.45 165.76L10 132.9Z" fill="white"/>
<path d="M137 4V131.67L74.45 163.51L12 131.67V4H137ZM141 0H8V134.12L74.45 168L141 134.12V0Z" fill="#DCDEDC"/>
<path d="M12.22 131.78L74.43 163.5L137 131.7V4.68005L12.22 131.78Z" fill="#F2F3F2"/>
<path d="M144.98 90H5.16966L0 101L5.16966 112H144.99L150 101L144.98 90Z" fill="#5A39A2"/>
<path d="M75.0778 6.12022C75.7101 6.12022 76.3327 6.12022 76.965 6.27565L75.0778 9.87978C72.2471 9.72435 69.7374 11.9199 69.5817 14.7468C69.4261 17.5738 71.6245 20.0801 74.4553 20.2356H75.0875C76.3424 20.2356 77.5973 19.7693 78.5409 18.9824L80.5837 22.4311C79.0175 23.5288 77.1303 24.1603 75.0875 24.1603C70.0584 24.3157 65.8171 20.5562 65.6615 15.5337C65.5058 10.5112 69.2704 6.27565 74.2996 6.12022H75.0875H75.0778ZM81.5175 13.8045L83.8716 17.7292L81.5175 21.4985L79.3191 17.7292H74.7665L77.1206 13.8045H81.5175ZM77.7432 12.3959C77.7432 11.7644 77.8988 11.1427 78.2101 10.6667C78.5214 10.1906 79.1537 9.72435 79.6206 9.41348L79.9319 9.25805C80.5642 8.94718 80.7198 8.79174 80.7198 8.47116C80.7198 8.15058 80.2529 7.83971 79.9319 7.83971C79.2996 7.83971 78.8327 8.15058 78.5214 8.78203L77.7335 7.99514C77.8891 7.68427 78.2004 7.36369 78.5214 7.05282C78.9883 6.74196 79.465 6.74196 79.9319 6.74196C80.3988 6.74196 81.0311 6.89739 81.3424 7.20826C81.6537 7.51913 81.9747 7.99514 81.9747 8.46145C81.9747 9.24833 81.5078 9.87007 80.5642 10.1906L80.0973 10.5015C79.6303 10.8124 79.3093 10.9678 79.1537 11.4438H81.9844V12.5416L77.7432 12.3862V12.3959ZM75.0778 32L90 23.5288V0H60V23.3734L75.0778 32Z" fill="#FF492C"/>
<path d="M37.7288 49.144C36.8048 49.144 35.9888 48.964 35.2808 48.604C34.5848 48.244 34.0388 47.74 33.6428 47.092C33.2588 46.432 33.0668 45.676 33.0668 44.824V36.616C33.0668 36.556 33.0848 36.508 33.1208 36.472C33.1688 36.424 33.2228 36.4 33.2828 36.4H35.3888C35.4488 36.4 35.4968 36.424 35.5328 36.472C35.5808 36.508 35.6048 36.556 35.6048 36.616V44.842C35.6048 45.478 35.7968 45.994 36.1808 46.39C36.5768 46.774 37.0928 46.966 37.7288 46.966C38.3648 46.966 38.8748 46.774 39.2588 46.39C39.6548 45.994 39.8528 45.478 39.8528 44.842V36.616C39.8528 36.556 39.8708 36.508 39.9068 36.472C39.9548 36.424 40.0088 36.4 40.0688 36.4H42.1748C42.2348 36.4 42.2828 36.424 42.3188 36.472C42.3668 36.508 42.3908 36.556 42.3908 36.616V44.824C42.3908 45.676 42.1928 46.432 41.7968 47.092C41.4128 47.74 40.8668 48.244 40.1588 48.604C39.4628 48.964 38.6528 49.144 37.7288 49.144ZM47.7351 49.126C46.9311 49.126 46.2291 49.012 45.6291 48.784C45.0291 48.556 44.5611 48.238 44.2251 47.83C43.9011 47.422 43.7391 46.96 43.7391 46.444V46.264C43.7391 46.204 43.7571 46.156 43.7931 46.12C43.8411 46.072 43.8951 46.048 43.9551 46.048H45.9531C46.0131 46.048 46.0611 46.072 46.0971 46.12C46.1451 46.156 46.1691 46.204 46.1691 46.264V46.282C46.1691 46.546 46.3131 46.774 46.6011 46.966C46.9011 47.146 47.2731 47.236 47.7171 47.236C48.1251 47.236 48.4551 47.158 48.7071 47.002C48.9591 46.834 49.0851 46.63 49.0851 46.39C49.0851 46.174 48.9771 46.012 48.7611 45.904C48.5451 45.796 48.1911 45.682 47.6991 45.562C47.1351 45.418 46.6911 45.28 46.3671 45.148C45.5991 44.884 44.9871 44.56 44.5311 44.176C44.0751 43.792 43.8471 43.24 43.8471 42.52C43.8471 41.632 44.1891 40.93 44.8731 40.414C45.5691 39.886 46.4871 39.622 47.6271 39.622C48.3951 39.622 49.0671 39.748 49.6431 40C50.2191 40.24 50.6631 40.582 50.9751 41.026C51.2991 41.47 51.4611 41.974 51.4611 42.538C51.4611 42.598 51.4371 42.652 51.3891 42.7C51.3531 42.736 51.3051 42.754 51.2451 42.754H49.3191C49.2591 42.754 49.2051 42.736 49.1571 42.7C49.1211 42.652 49.1031 42.598 49.1031 42.538C49.1031 42.274 48.9651 42.052 48.6891 41.872C48.4251 41.692 48.0711 41.602 47.6271 41.602C47.2311 41.602 46.9071 41.674 46.6551 41.818C46.4031 41.962 46.2771 42.16 46.2771 42.412C46.2771 42.652 46.3971 42.832 46.6371 42.952C46.8891 43.072 47.3031 43.198 47.8791 43.33C48.0111 43.366 48.1611 43.408 48.3291 43.456C48.4971 43.492 48.6771 43.54 48.8691 43.6C49.7211 43.852 50.3931 44.176 50.8851 44.572C51.3771 44.968 51.6231 45.544 51.6231 46.3C51.6231 47.188 51.2691 47.884 50.5611 48.388C49.8651 48.88 48.9231 49.126 47.7351 49.126ZM61.0002 43.42C61.0722 43.876 61.0962 44.386 61.0722 44.95C61.0602 45.094 60.9822 45.166 60.8382 45.166H55.2762C55.2042 45.166 55.1802 45.196 55.2042 45.256C55.2402 45.496 55.3062 45.736 55.4022 45.976C55.7142 46.648 56.3502 46.984 57.3102 46.984C58.0782 46.972 58.6842 46.66 59.1282 46.048C59.1762 45.976 59.2302 45.94 59.2902 45.94C59.3262 45.94 59.3682 45.964 59.4162 46.012L60.7122 47.29C60.7722 47.35 60.8022 47.404 60.8022 47.452C60.8022 47.476 60.7782 47.524 60.7302 47.596C60.3342 48.088 59.8242 48.472 59.2002 48.748C58.5762 49.012 57.8922 49.144 57.1482 49.144C56.1162 49.144 55.2402 48.91 54.5202 48.442C53.8122 47.974 53.3022 47.32 52.9902 46.48C52.7382 45.88 52.6122 45.094 52.6122 44.122C52.6122 43.462 52.7022 42.88 52.8822 42.376C53.1582 41.524 53.6382 40.846 54.3222 40.342C55.0182 39.838 55.8402 39.586 56.7882 39.586C57.9882 39.586 58.9482 39.934 59.6682 40.63C60.4002 41.326 60.8442 42.256 61.0002 43.42ZM56.8062 41.782C56.0502 41.782 55.5522 42.136 55.3122 42.844C55.2642 43 55.2222 43.192 55.1862 43.42C55.1862 43.48 55.2162 43.51 55.2762 43.51H58.3902C58.4622 43.51 58.4862 43.48 58.4622 43.42C58.4022 43.072 58.3722 42.904 58.3722 42.916C58.2642 42.556 58.0722 42.28 57.7962 42.088C57.5322 41.884 57.2022 41.782 56.8062 41.782ZM66.9744 39.622C67.4064 39.622 67.7484 39.706 68.0004 39.874C68.0964 39.922 68.1324 40.012 68.1084 40.144L67.7304 42.196C67.7184 42.34 67.6344 42.382 67.4784 42.322C67.2984 42.262 67.0884 42.232 66.8484 42.232C66.7524 42.232 66.6204 42.244 66.4524 42.268C66.0204 42.304 65.6544 42.466 65.3544 42.754C65.0544 43.03 64.9044 43.402 64.9044 43.87V48.784C64.9044 48.844 64.8804 48.898 64.8324 48.946C64.7964 48.982 64.7484 49 64.6884 49H62.5824C62.5224 49 62.4684 48.982 62.4204 48.946C62.3844 48.898 62.3664 48.844 62.3664 48.784V39.964C62.3664 39.904 62.3844 39.856 62.4204 39.82C62.4684 39.772 62.5224 39.748 62.5824 39.748H64.6884C64.7484 39.748 64.7964 39.772 64.8324 39.82C64.8804 39.856 64.9044 39.904 64.9044 39.964V40.648C64.9044 40.684 64.9164 40.708 64.9404 40.72C64.9644 40.732 64.9824 40.726 64.9944 40.702C65.4864 39.982 66.1464 39.622 66.9744 39.622ZM72.5364 49.126C71.7324 49.126 71.0304 49.012 70.4304 48.784C69.8304 48.556 69.3624 48.238 69.0264 47.83C68.7024 47.422 68.5404 46.96 68.5404 46.444V46.264C68.5404 46.204 68.5584 46.156 68.5944 46.12C68.6424 46.072 68.6964 46.048 68.7564 46.048H70.7544C70.8144 46.048 70.8624 46.072 70.8984 46.12C70.9464 46.156 70.9704 46.204 70.9704 46.264V46.282C70.9704 46.546 71.1144 46.774 71.4024 46.966C71.7024 47.146 72.0744 47.236 72.5184 47.236C72.9264 47.236 73.2564 47.158 73.5084 47.002C73.7604 46.834 73.8864 46.63 73.8864 46.39C73.8864 46.174 73.7784 46.012 73.5624 45.904C73.3464 45.796 72.9924 45.682 72.5004 45.562C71.9364 45.418 71.4924 45.28 71.1684 45.148C70.4004 44.884 69.7884 44.56 69.3324 44.176C68.8764 43.792 68.6484 43.24 68.6484 42.52C68.6484 41.632 68.9904 40.93 69.6744 40.414C70.3704 39.886 71.2884 39.622 72.4284 39.622C73.1964 39.622 73.8684 39.748 74.4444 40C75.0204 40.24 75.4644 40.582 75.7764 41.026C76.1004 41.47 76.2624 41.974 76.2624 42.538C76.2624 42.598 76.2384 42.652 76.1904 42.7C76.1544 42.736 76.1064 42.754 76.0464 42.754H74.1204C74.0604 42.754 74.0064 42.736 73.9584 42.7C73.9224 42.652 73.9044 42.598 73.9044 42.538C73.9044 42.274 73.7664 42.052 73.4904 41.872C73.2264 41.692 72.8724 41.602 72.4284 41.602C72.0324 41.602 71.7084 41.674 71.4564 41.818C71.2044 41.962 71.0784 42.16 71.0784 42.412C71.0784 42.652 71.1984 42.832 71.4384 42.952C71.6904 43.072 72.1044 43.198 72.6804 43.33C72.8124 43.366 72.9624 43.408 73.1304 43.456C73.2984 43.492 73.4784 43.54 73.6704 43.6C74.5224 43.852 75.1944 44.176 75.6864 44.572C76.1784 44.968 76.4244 45.544 76.4244 46.3C76.4244 47.188 76.0704 47.884 75.3624 48.388C74.6664 48.88 73.7244 49.126 72.5364 49.126ZM89.2071 36.544C89.2671 36.448 89.3511 36.4 89.4591 36.4H91.5651C91.6251 36.4 91.6731 36.424 91.7091 36.472C91.7571 36.508 91.7811 36.556 91.7811 36.616V48.784C91.7811 48.844 91.7571 48.898 91.7091 48.946C91.6731 48.982 91.6251 49 91.5651 49H89.4591C89.3991 49 89.3451 48.982 89.2971 48.946C89.2611 48.898 89.2431 48.844 89.2431 48.784V40.846C89.2431 40.798 89.2311 40.774 89.2071 40.774C89.1831 40.774 89.1591 40.792 89.1351 40.828L87.2271 43.816C87.1671 43.912 87.0831 43.96 86.9751 43.96H85.9131C85.8051 43.96 85.7211 43.912 85.6611 43.816L83.7531 40.828C83.7291 40.792 83.7051 40.78 83.6811 40.792C83.6571 40.792 83.6451 40.816 83.6451 40.864V48.784C83.6451 48.844 83.6211 48.898 83.5731 48.946C83.5371 48.982 83.4891 49 83.4291 49H81.3231C81.2631 49 81.2091 48.982 81.1611 48.946C81.1251 48.898 81.1071 48.844 81.1071 48.784V36.616C81.1071 36.556 81.1251 36.508 81.1611 36.472C81.2091 36.424 81.2631 36.4 81.3231 36.4H83.4291C83.5371 36.4 83.6211 36.448 83.6811 36.544L86.3811 40.738C86.4171 40.81 86.4531 40.81 86.4891 40.738L89.2071 36.544ZM97.6282 49.144C96.6202 49.144 95.7562 48.88 95.0362 48.352C94.3162 47.824 93.8242 47.104 93.5602 46.192C93.3922 45.628 93.3082 45.016 93.3082 44.356C93.3082 43.648 93.3922 43.012 93.5602 42.448C93.8362 41.56 94.3342 40.864 95.0542 40.36C95.7742 39.856 96.6382 39.604 97.6462 39.604C98.6302 39.604 99.4702 39.856 100.166 40.36C100.862 40.852 101.354 41.542 101.642 42.43C101.834 43.03 101.93 43.66 101.93 44.32C101.93 44.968 101.846 45.574 101.678 46.138C101.414 47.074 100.922 47.812 100.202 48.352C99.4942 48.88 98.6362 49.144 97.6282 49.144ZM97.6282 46.966C98.0242 46.966 98.3602 46.846 98.6362 46.606C98.9122 46.366 99.1102 46.036 99.2302 45.616C99.3262 45.232 99.3742 44.812 99.3742 44.356C99.3742 43.852 99.3262 43.426 99.2302 43.078C99.0982 42.67 98.8942 42.352 98.6182 42.124C98.3422 41.896 98.0062 41.782 97.6102 41.782C97.2022 41.782 96.8602 41.896 96.5842 42.124C96.3202 42.352 96.1282 42.67 96.0082 43.078C95.9122 43.366 95.8642 43.792 95.8642 44.356C95.8642 44.896 95.9062 45.316 95.9902 45.616C96.1102 46.036 96.3082 46.366 96.5842 46.606C96.8722 46.846 97.2202 46.966 97.6282 46.966ZM106.982 49.126C106.178 49.126 105.476 49.012 104.876 48.784C104.276 48.556 103.808 48.238 103.472 47.83C103.148 47.422 102.986 46.96 102.986 46.444V46.264C102.986 46.204 103.004 46.156 103.04 46.12C103.088 46.072 103.142 46.048 103.202 46.048H105.2C105.26 46.048 105.308 46.072 105.344 46.12C105.392 46.156 105.416 46.204 105.416 46.264V46.282C105.416 46.546 105.56 46.774 105.848 46.966C106.148 47.146 106.52 47.236 106.964 47.236C107.372 47.236 107.702 47.158 107.954 47.002C108.206 46.834 108.332 46.63 108.332 46.39C108.332 46.174 108.224 46.012 108.008 45.904C107.792 45.796 107.438 45.682 106.946 45.562C106.382 45.418 105.938 45.28 105.614 45.148C104.846 44.884 104.234 44.56 103.778 44.176C103.322 43.792 103.094 43.24 103.094 42.52C103.094 41.632 103.436 40.93 104.12 40.414C104.816 39.886 105.734 39.622 106.874 39.622C107.642 39.622 108.314 39.748 108.89 40C109.466 40.24 109.91 40.582 110.222 41.026C110.546 41.47 110.708 41.974 110.708 42.538C110.708 42.598 110.684 42.652 110.636 42.7C110.6 42.736 110.552 42.754 110.492 42.754H108.566C108.506 42.754 108.452 42.736 108.404 42.7C108.368 42.652 108.35 42.598 108.35 42.538C108.35 42.274 108.212 42.052 107.936 41.872C107.672 41.692 107.318 41.602 106.874 41.602C106.478 41.602 106.154 41.674 105.902 41.818C105.65 41.962 105.524 42.16 105.524 42.412C105.524 42.652 105.644 42.832 105.884 42.952C106.136 43.072 106.55 43.198 107.126 43.33C107.258 43.366 107.408 43.408 107.576 43.456C107.744 43.492 107.924 43.54 108.116 43.6C108.968 43.852 109.64 44.176 110.132 44.572C110.624 44.968 110.87 45.544 110.87 46.3C110.87 47.188 110.516 47.884 109.808 48.388C109.112 48.88 108.17 49.126 106.982 49.126ZM117.349 41.566C117.349 41.626 117.325 41.68 117.277 41.728C117.241 41.764 117.193 41.782 117.133 41.782H115.405C115.345 41.782 115.315 41.812 115.315 41.872V45.688C115.315 46.084 115.393 46.378 115.549 46.57C115.717 46.762 115.981 46.858 116.341 46.858H116.935C116.995 46.858 117.043 46.882 117.079 46.93C117.127 46.966 117.151 47.014 117.151 47.074V48.784C117.151 48.916 117.079 48.994 116.935 49.018C116.431 49.042 116.071 49.054 115.855 49.054C114.859 49.054 114.115 48.892 113.623 48.568C113.131 48.232 112.879 47.608 112.867 46.696V41.872C112.867 41.812 112.837 41.782 112.777 41.782H111.751C111.691 41.782 111.637 41.764 111.589 41.728C111.553 41.68 111.535 41.626 111.535 41.566V39.964C111.535 39.904 111.553 39.856 111.589 39.82C111.637 39.772 111.691 39.748 111.751 39.748H112.777C112.837 39.748 112.867 39.718 112.867 39.658V37.516C112.867 37.456 112.885 37.408 112.921 37.372C112.969 37.324 113.023 37.3 113.083 37.3H115.099C115.159 37.3 115.207 37.324 115.243 37.372C115.291 37.408 115.315 37.456 115.315 37.516V39.658C115.315 39.718 115.345 39.748 115.405 39.748H117.133C117.193 39.748 117.241 39.772 117.277 39.82C117.325 39.856 117.349 39.904 117.349 39.964V41.566ZM42.5981 66C42.5381 66 42.4841 65.982 42.4361 65.946C42.4001 65.898 42.3821 65.844 42.3821 65.784V53.616C42.3821 53.556 42.4001 53.508 42.4361 53.472C42.4841 53.424 42.5381 53.4 42.5981 53.4H44.7041C44.7641 53.4 44.8121 53.424 44.8481 53.472C44.8961 53.508 44.9201 53.556 44.9201 53.616V63.732C44.9201 63.792 44.9501 63.822 45.0101 63.822H50.8961C50.9561 63.822 51.0041 63.846 51.0401 63.894C51.0881 63.93 51.1121 63.978 51.1121 64.038V65.784C51.1121 65.844 51.0881 65.898 51.0401 65.946C51.0041 65.982 50.9561 66 50.8961 66H42.5981ZM53.6189 55.704C53.2109 55.704 52.8689 55.572 52.5929 55.308C52.3289 55.032 52.1969 54.69 52.1969 54.282C52.1969 53.862 52.3289 53.52 52.5929 53.256C52.8569 52.992 53.1989 52.86 53.6189 52.86C54.0389 52.86 54.3809 52.992 54.6449 53.256C54.9089 53.52 55.0409 53.862 55.0409 54.282C55.0409 54.69 54.9029 55.032 54.6269 55.308C54.3629 55.572 54.0269 55.704 53.6189 55.704ZM52.5389 66C52.4789 66 52.4249 65.982 52.3769 65.946C52.3409 65.898 52.3229 65.844 52.3229 65.784V56.946C52.3229 56.886 52.3409 56.838 52.3769 56.802C52.4249 56.754 52.4789 56.73 52.5389 56.73H54.6449C54.7049 56.73 54.7529 56.754 54.7889 56.802C54.8369 56.838 54.8609 56.886 54.8609 56.946V65.784C54.8609 65.844 54.8369 65.898 54.7889 65.946C54.7529 65.982 54.7049 66 54.6449 66H52.5389ZM56.7848 66C56.7248 66 56.6708 65.982 56.6228 65.946C56.5868 65.898 56.5688 65.844 56.5688 65.784V53.616C56.5688 53.556 56.5868 53.508 56.6228 53.472C56.6708 53.424 56.7248 53.4 56.7848 53.4H58.8908C58.9508 53.4 58.9988 53.424 59.0348 53.472C59.0828 53.508 59.1068 53.556 59.1068 53.616V59.682C59.1068 59.718 59.1188 59.742 59.1428 59.754C59.1668 59.754 59.1908 59.742 59.2148 59.718L61.6628 56.874C61.7468 56.79 61.8368 56.748 61.9328 56.748H64.3268C64.4468 56.748 64.5068 56.79 64.5068 56.874C64.5068 56.91 64.4888 56.958 64.4528 57.018L62.1668 59.916C62.1428 59.964 62.1368 60.006 62.1488 60.042L64.8308 65.748C64.8548 65.796 64.8668 65.832 64.8668 65.856C64.8668 65.952 64.8008 66 64.6688 66H62.4548C62.3348 66 62.2508 65.946 62.2028 65.838L60.4208 61.626C60.4088 61.602 60.3848 61.59 60.3488 61.59C60.3248 61.578 60.3068 61.584 60.2948 61.608L59.1428 63.048C59.1188 63.096 59.1068 63.132 59.1068 63.156V65.784C59.1068 65.844 59.0828 65.898 59.0348 65.946C58.9988 65.982 58.9508 66 58.8908 66H56.7848ZM73.2603 60.42C73.3323 60.876 73.3563 61.386 73.3323 61.95C73.3203 62.094 73.2423 62.166 73.0983 62.166H67.5363C67.4643 62.166 67.4403 62.196 67.4643 62.256C67.5003 62.496 67.5663 62.736 67.6623 62.976C67.9743 63.648 68.6103 63.984 69.5703 63.984C70.3383 63.972 70.9443 63.66 71.3883 63.048C71.4363 62.976 71.4903 62.94 71.5503 62.94C71.5863 62.94 71.6283 62.964 71.6763 63.012L72.9723 64.29C73.0323 64.35 73.0623 64.404 73.0623 64.452C73.0623 64.476 73.0383 64.524 72.9903 64.596C72.5943 65.088 72.0843 65.472 71.4603 65.748C70.8363 66.012 70.1523 66.144 69.4083 66.144C68.3763 66.144 67.5003 65.91 66.7803 65.442C66.0723 64.974 65.5623 64.32 65.2503 63.48C64.9983 62.88 64.8723 62.094 64.8723 61.122C64.8723 60.462 64.9623 59.88 65.1423 59.376C65.4183 58.524 65.8983 57.846 66.5823 57.342C67.2783 56.838 68.1003 56.586 69.0483 56.586C70.2483 56.586 71.2083 56.934 71.9283 57.63C72.6603 58.326 73.1043 59.256 73.2603 60.42ZM69.0663 58.782C68.3103 58.782 67.8123 59.136 67.5723 59.844C67.5243 60 67.4823 60.192 67.4463 60.42C67.4463 60.48 67.4763 60.51 67.5363 60.51H70.6503C70.7223 60.51 70.7463 60.48 70.7223 60.42C70.6623 60.072 70.6323 59.904 70.6323 59.916C70.5243 59.556 70.3323 59.28 70.0563 59.088C69.7923 58.884 69.4623 58.782 69.0663 58.782ZM74.8424 66C74.7824 66 74.7284 65.982 74.6804 65.946C74.6444 65.898 74.6264 65.844 74.6264 65.784V53.616C74.6264 53.556 74.6444 53.508 74.6804 53.472C74.7284 53.424 74.7824 53.4 74.8424 53.4H76.9484C77.0084 53.4 77.0564 53.424 77.0924 53.472C77.1404 53.508 77.1644 53.556 77.1644 53.616V65.784C77.1644 65.844 77.1404 65.898 77.0924 65.946C77.0564 65.982 77.0084 66 76.9484 66H74.8424ZM78.697 69.582C78.661 69.582 78.631 69.558 78.607 69.51C78.583 69.474 78.571 69.426 78.571 69.366V67.71C78.571 67.65 78.589 67.596 78.625 67.548C78.673 67.512 78.727 67.494 78.787 67.494C79.291 67.482 79.687 67.44 79.975 67.368C80.275 67.296 80.509 67.158 80.677 66.954C80.857 66.75 80.995 66.45 81.091 66.054C81.103 66.03 81.103 65.994 81.091 65.946L78.139 56.982C78.127 56.958 78.121 56.928 78.121 56.892C78.121 56.784 78.187 56.73 78.319 56.73H80.569C80.701 56.73 80.785 56.79 80.821 56.91L82.333 62.742C82.345 62.778 82.363 62.796 82.387 62.796C82.411 62.796 82.429 62.778 82.441 62.742L83.953 56.91C83.989 56.79 84.073 56.73 84.205 56.73H86.401C86.473 56.73 86.521 56.754 86.545 56.802C86.581 56.838 86.587 56.898 86.563 56.982L83.449 66.342C83.149 67.218 82.843 67.872 82.531 68.304C82.219 68.748 81.781 69.072 81.217 69.276C80.653 69.48 79.855 69.582 78.823 69.582H78.697ZM99.7408 53.4C99.8008 53.4 99.8488 53.424 99.8848 53.472C99.9328 53.508 99.9568 53.556 99.9568 53.616V55.38C99.9568 55.44 99.9328 55.494 99.8848 55.542C99.8488 55.578 99.8008 55.596 99.7408 55.596H96.5188C96.4588 55.596 96.4288 55.626 96.4288 55.686V65.784C96.4288 65.844 96.4048 65.898 96.3568 65.946C96.3208 65.982 96.2728 66 96.2128 66H94.1068C94.0468 66 93.9928 65.982 93.9448 65.946C93.9088 65.898 93.8908 65.844 93.8908 65.784V55.686C93.8908 55.626 93.8608 55.596 93.8008 55.596H90.6688C90.6088 55.596 90.5548 55.578 90.5068 55.542C90.4708 55.494 90.4528 55.44 90.4528 55.38V53.616C90.4528 53.556 90.4708 53.508 90.5068 53.472C90.5548 53.424 90.6088 53.4 90.6688 53.4H99.7408ZM103.718 66.144C102.71 66.144 101.846 65.88 101.126 65.352C100.406 64.824 99.9144 64.104 99.6504 63.192C99.4824 62.628 99.3984 62.016 99.3984 61.356C99.3984 60.648 99.4824 60.012 99.6504 59.448C99.9264 58.56 100.424 57.864 101.144 57.36C101.864 56.856 102.728 56.604 103.736 56.604C104.72 56.604 105.56 56.856 106.256 57.36C106.952 57.852 107.444 58.542 107.732 59.43C107.924 60.03 108.02 60.66 108.02 61.32C108.02 61.968 107.936 62.574 107.768 63.138C107.504 64.074 107.012 64.812 106.292 65.352C105.584 65.88 104.726 66.144 103.718 66.144ZM103.718 63.966C104.114 63.966 104.45 63.846 104.726 63.606C105.002 63.366 105.2 63.036 105.32 62.616C105.416 62.232 105.464 61.812 105.464 61.356C105.464 60.852 105.416 60.426 105.32 60.078C105.188 59.67 104.984 59.352 104.708 59.124C104.432 58.896 104.096 58.782 103.7 58.782C103.292 58.782 102.95 58.896 102.674 59.124C102.41 59.352 102.218 59.67 102.098 60.078C102.002 60.366 101.954 60.792 101.954 61.356C101.954 61.896 101.996 62.316 102.08 62.616C102.2 63.036 102.398 63.366 102.674 63.606C102.962 63.846 103.31 63.966 103.718 63.966ZM34.0099 83C33.8899 83 33.8059 82.946 33.7579 82.838L31.5079 77.852C31.4839 77.804 31.4479 77.78 31.3999 77.78H29.7259C29.6659 77.78 29.6359 77.81 29.6359 77.87V82.784C29.6359 82.844 29.6119 82.898 29.5639 82.946C29.5279 82.982 29.4799 83 29.4199 83H27.3139C27.2539 83 27.1999 82.982 27.1519 82.946C27.1159 82.898 27.0979 82.844 27.0979 82.784V70.616C27.0979 70.556 27.1159 70.508 27.1519 70.472C27.1999 70.424 27.2539 70.4 27.3139 70.4H32.4619C33.2299 70.4 33.9019 70.556 34.4779 70.868C35.0659 71.18 35.5159 71.624 35.8279 72.2C36.1519 72.776 36.3139 73.442 36.3139 74.198C36.3139 75.014 36.1099 75.716 35.7019 76.304C35.2939 76.88 34.7239 77.288 33.9919 77.528C33.9319 77.552 33.9139 77.594 33.9379 77.654L36.3859 82.748C36.4099 82.796 36.4219 82.832 36.4219 82.856C36.4219 82.952 36.3559 83 36.2239 83H34.0099ZM29.7259 72.578C29.6659 72.578 29.6359 72.608 29.6359 72.668V75.746C29.6359 75.806 29.6659 75.836 29.7259 75.836H32.0839C32.5879 75.836 32.9959 75.686 33.3079 75.386C33.6319 75.086 33.7939 74.696 33.7939 74.216C33.7939 73.736 33.6319 73.346 33.3079 73.046C32.9959 72.734 32.5879 72.578 32.0839 72.578H29.7259ZM45.7895 77.42C45.8615 77.876 45.8855 78.386 45.8615 78.95C45.8495 79.094 45.7715 79.166 45.6275 79.166H40.0655C39.9935 79.166 39.9695 79.196 39.9935 79.256C40.0295 79.496 40.0955 79.736 40.1915 79.976C40.5035 80.648 41.1395 80.984 42.0995 80.984C42.8675 80.972 43.4735 80.66 43.9175 80.048C43.9655 79.976 44.0195 79.94 44.0795 79.94C44.1155 79.94 44.1575 79.964 44.2055 80.012L45.5015 81.29C45.5615 81.35 45.5915 81.404 45.5915 81.452C45.5915 81.476 45.5675 81.524 45.5195 81.596C45.1235 82.088 44.6135 82.472 43.9895 82.748C43.3655 83.012 42.6815 83.144 41.9375 83.144C40.9055 83.144 40.0295 82.91 39.3095 82.442C38.6015 81.974 38.0915 81.32 37.7795 80.48C37.5275 79.88 37.4015 79.094 37.4015 78.122C37.4015 77.462 37.4915 76.88 37.6715 76.376C37.9475 75.524 38.4275 74.846 39.1115 74.342C39.8075 73.838 40.6295 73.586 41.5775 73.586C42.7775 73.586 43.7375 73.934 44.4575 74.63C45.1895 75.326 45.6335 76.256 45.7895 77.42ZM41.5955 75.782C40.8395 75.782 40.3415 76.136 40.1015 76.844C40.0535 77 40.0115 77.192 39.9755 77.42C39.9755 77.48 40.0055 77.51 40.0655 77.51H43.1795C43.2515 77.51 43.2755 77.48 43.2515 77.42C43.1915 77.072 43.1615 76.904 43.1615 76.916C43.0535 76.556 42.8615 76.28 42.5855 76.088C42.3215 75.884 41.9915 75.782 41.5955 75.782ZM51.2237 83.144C50.2637 83.144 49.4297 82.904 48.7217 82.424C48.0257 81.944 47.5277 81.284 47.2277 80.444C47.0237 79.844 46.9217 79.136 46.9217 78.32C46.9217 77.516 47.0237 76.82 47.2277 76.232C47.5157 75.416 48.0137 74.774 48.7217 74.306C49.4297 73.838 50.2637 73.604 51.2237 73.604C52.1837 73.604 53.0237 73.844 53.7437 74.324C54.4757 74.804 54.9617 75.41 55.2017 76.142C55.2977 76.43 55.3457 76.646 55.3457 76.79V76.826C55.3457 76.934 55.2857 77 55.1657 77.024L53.0957 77.33H53.0597C52.9517 77.33 52.8797 77.27 52.8437 77.15L52.7897 76.862C52.7057 76.55 52.5197 76.292 52.2317 76.088C51.9437 75.884 51.6017 75.782 51.2057 75.782C50.8217 75.782 50.4977 75.878 50.2337 76.07C49.9697 76.262 49.7837 76.526 49.6757 76.862C49.5437 77.222 49.4777 77.714 49.4777 78.338C49.4777 78.962 49.5377 79.454 49.6577 79.814C49.7657 80.174 49.9517 80.456 50.2157 80.66C50.4917 80.864 50.8217 80.966 51.2057 80.966C51.5777 80.966 51.9017 80.87 52.1777 80.678C52.4657 80.474 52.6637 80.198 52.7717 79.85C52.7837 79.826 52.7897 79.79 52.7897 79.742C52.8017 79.73 52.8077 79.712 52.8077 79.688C52.8197 79.544 52.9037 79.484 53.0597 79.508L55.1297 79.832C55.2497 79.856 55.3097 79.922 55.3097 80.03C55.3097 80.126 55.2737 80.306 55.2017 80.57C54.9497 81.374 54.4577 82.004 53.7257 82.46C53.0057 82.916 52.1717 83.144 51.2237 83.144ZM60.5342 83.144C59.5262 83.144 58.6622 82.88 57.9422 82.352C57.2222 81.824 56.7302 81.104 56.4662 80.192C56.2982 79.628 56.2142 79.016 56.2142 78.356C56.2142 77.648 56.2982 77.012 56.4662 76.448C56.7422 75.56 57.2402 74.864 57.9602 74.36C58.6802 73.856 59.5442 73.604 60.5522 73.604C61.5362 73.604 62.3762 73.856 63.0722 74.36C63.7682 74.852 64.2602 75.542 64.5482 76.43C64.7402 77.03 64.8362 77.66 64.8362 78.32C64.8362 78.968 64.7522 79.574 64.5842 80.138C64.3202 81.074 63.8282 81.812 63.1082 82.352C62.4002 82.88 61.5422 83.144 60.5342 83.144ZM60.5342 80.966C60.9302 80.966 61.2662 80.846 61.5422 80.606C61.8182 80.366 62.0162 80.036 62.1362 79.616C62.2322 79.232 62.2802 78.812 62.2802 78.356C62.2802 77.852 62.2322 77.426 62.1362 77.078C62.0042 76.67 61.8002 76.352 61.5242 76.124C61.2482 75.896 60.9122 75.782 60.5162 75.782C60.1082 75.782 59.7662 75.896 59.4902 76.124C59.2262 76.352 59.0342 76.67 58.9142 77.078C58.8182 77.366 58.7702 77.792 58.7702 78.356C58.7702 78.896 58.8122 79.316 58.8962 79.616C59.0162 80.036 59.2142 80.366 59.4902 80.606C59.7782 80.846 60.1262 80.966 60.5342 80.966ZM76.4577 73.604C77.3937 73.604 78.1257 73.886 78.6537 74.45C79.1817 75.014 79.4457 75.806 79.4457 76.826V82.784C79.4457 82.844 79.4217 82.898 79.3737 82.946C79.3377 82.982 79.2897 83 79.2297 83H77.1237C77.0637 83 77.0097 82.982 76.9617 82.946C76.9257 82.898 76.9077 82.844 76.9077 82.784V77.384C76.9077 76.892 76.7817 76.502 76.5297 76.214C76.2777 75.926 75.9417 75.782 75.5217 75.782C75.1017 75.782 74.7597 75.926 74.4957 76.214C74.2317 76.502 74.0997 76.886 74.0997 77.366V82.784C74.0997 82.844 74.0757 82.898 74.0277 82.946C73.9917 82.982 73.9437 83 73.8837 83H71.7957C71.7357 83 71.6817 82.982 71.6337 82.946C71.5977 82.898 71.5797 82.844 71.5797 82.784V77.384C71.5797 76.904 71.4477 76.52 71.1837 76.232C70.9197 75.932 70.5777 75.782 70.1577 75.782C69.7737 75.782 69.4497 75.896 69.1857 76.124C68.9337 76.352 68.7837 76.67 68.7357 77.078V82.784C68.7357 82.844 68.7117 82.898 68.6637 82.946C68.6277 82.982 68.5797 83 68.5197 83H66.4137C66.3537 83 66.2997 82.982 66.2517 82.946C66.2157 82.898 66.1977 82.844 66.1977 82.784V73.964C66.1977 73.904 66.2157 73.856 66.2517 73.82C66.2997 73.772 66.3537 73.748 66.4137 73.748H68.5197C68.5797 73.748 68.6277 73.772 68.6637 73.82C68.7117 73.856 68.7357 73.904 68.7357 73.964V74.666C68.7357 74.702 68.7477 74.726 68.7717 74.738C68.7957 74.75 68.8197 74.738 68.8437 74.702C69.3357 73.97 70.0977 73.604 71.1297 73.604C71.7297 73.604 72.2517 73.73 72.6957 73.982C73.1517 74.234 73.4997 74.594 73.7397 75.062C73.7757 75.134 73.8177 75.134 73.8657 75.062C74.1297 74.57 74.4837 74.204 74.9277 73.964C75.3837 73.724 75.8937 73.604 76.4577 73.604ZM91.217 73.604C92.153 73.604 92.885 73.886 93.413 74.45C93.941 75.014 94.205 75.806 94.205 76.826V82.784C94.205 82.844 94.181 82.898 94.133 82.946C94.097 82.982 94.049 83 93.989 83H91.883C91.823 83 91.769 82.982 91.721 82.946C91.685 82.898 91.667 82.844 91.667 82.784V77.384C91.667 76.892 91.541 76.502 91.289 76.214C91.037 75.926 90.701 75.782 90.281 75.782C89.861 75.782 89.519 75.926 89.255 76.214C88.991 76.502 88.859 76.886 88.859 77.366V82.784C88.859 82.844 88.835 82.898 88.787 82.946C88.751 82.982 88.703 83 88.643 83H86.555C86.495 83 86.441 82.982 86.393 82.946C86.357 82.898 86.339 82.844 86.339 82.784V77.384C86.339 76.904 86.207 76.52 85.943 76.232C85.679 75.932 85.337 75.782 84.917 75.782C84.533 75.782 84.209 75.896 83.945 76.124C83.693 76.352 83.543 76.67 83.495 77.078V82.784C83.495 82.844 83.471 82.898 83.423 82.946C83.387 82.982 83.339 83 83.279 83H81.173C81.113 83 81.059 82.982 81.011 82.946C80.975 82.898 80.957 82.844 80.957 82.784V73.964C80.957 73.904 80.975 73.856 81.011 73.82C81.059 73.772 81.113 73.748 81.173 73.748H83.279C83.339 73.748 83.387 73.772 83.423 73.82C83.471 73.856 83.495 73.904 83.495 73.964V74.666C83.495 74.702 83.507 74.726 83.531 74.738C83.555 74.75 83.579 74.738 83.603 74.702C84.095 73.97 84.857 73.604 85.889 73.604C86.489 73.604 87.011 73.73 87.455 73.982C87.911 74.234 88.259 74.594 88.499 75.062C88.535 75.134 88.577 75.134 88.625 75.062C88.889 74.57 89.243 74.204 89.687 73.964C90.143 73.724 90.653 73.604 91.217 73.604ZM103.854 77.42C103.926 77.876 103.95 78.386 103.926 78.95C103.914 79.094 103.836 79.166 103.692 79.166H98.1296C98.0576 79.166 98.0336 79.196 98.0576 79.256C98.0936 79.496 98.1596 79.736 98.2556 79.976C98.5676 80.648 99.2036 80.984 100.164 80.984C100.932 80.972 101.538 80.66 101.982 80.048C102.03 79.976 102.084 79.94 102.144 79.94C102.18 79.94 102.222 79.964 102.27 80.012L103.566 81.29C103.626 81.35 103.656 81.404 103.656 81.452C103.656 81.476 103.632 81.524 103.584 81.596C103.188 82.088 102.678 82.472 102.054 82.748C101.43 83.012 100.746 83.144 100.002 83.144C98.9696 83.144 98.0936 82.91 97.3736 82.442C96.6656 81.974 96.1556 81.32 95.8436 80.48C95.5916 79.88 95.4656 79.094 95.4656 78.122C95.4656 77.462 95.5556 76.88 95.7356 76.376C96.0116 75.524 96.4916 74.846 97.1756 74.342C97.8716 73.838 98.6936 73.586 99.6416 73.586C100.842 73.586 101.802 73.934 102.522 74.63C103.254 75.326 103.698 76.256 103.854 77.42ZM99.6596 75.782C98.9036 75.782 98.4056 76.136 98.1656 76.844C98.1176 77 98.0756 77.192 98.0396 77.42C98.0396 77.48 98.0696 77.51 98.1296 77.51H101.244C101.316 77.51 101.34 77.48 101.316 77.42C101.256 77.072 101.226 76.904 101.226 76.916C101.118 76.556 100.926 76.28 100.65 76.088C100.386 75.884 100.056 75.782 99.6596 75.782ZM110.044 73.604C111.004 73.604 111.778 73.898 112.366 74.486C112.954 75.074 113.248 75.872 113.248 76.88V82.784C113.248 82.844 113.224 82.898 113.176 82.946C113.14 82.982 113.092 83 113.032 83H110.926C110.866 83 110.812 82.982 110.764 82.946C110.728 82.898 110.71 82.844 110.71 82.784V77.402C110.71 76.922 110.572 76.532 110.296 76.232C110.032 75.932 109.678 75.782 109.234 75.782C108.79 75.782 108.43 75.932 108.154 76.232C107.89 76.532 107.758 76.922 107.758 77.402V82.784C107.758 82.844 107.734 82.898 107.686 82.946C107.65 82.982 107.602 83 107.542 83H105.436C105.376 83 105.322 82.982 105.274 82.946C105.238 82.898 105.22 82.844 105.22 82.784V73.964C105.22 73.904 105.238 73.856 105.274 73.82C105.322 73.772 105.376 73.748 105.436 73.748H107.542C107.602 73.748 107.65 73.772 107.686 73.82C107.734 73.856 107.758 73.904 107.758 73.964V74.594C107.758 74.63 107.77 74.654 107.794 74.666C107.818 74.678 107.836 74.672 107.848 74.648C108.34 73.952 109.072 73.604 110.044 73.604ZM120.483 70.616C120.483 70.556 120.501 70.508 120.537 70.472C120.585 70.424 120.639 70.4 120.699 70.4H122.805C122.865 70.4 122.913 70.424 122.949 70.472C122.997 70.508 123.021 70.556 123.021 70.616V82.784C123.021 82.844 122.997 82.898 122.949 82.946C122.913 82.982 122.865 83 122.805 83H120.699C120.639 83 120.585 82.982 120.537 82.946C120.501 82.898 120.483 82.844 120.483 82.784V82.19C120.483 82.154 120.471 82.136 120.447 82.136C120.423 82.124 120.399 82.13 120.375 82.154C119.871 82.814 119.181 83.144 118.305 83.144C117.465 83.144 116.739 82.91 116.127 82.442C115.527 81.974 115.095 81.332 114.831 80.516C114.627 79.892 114.525 79.166 114.525 78.338C114.525 77.486 114.633 76.742 114.849 76.106C115.125 75.338 115.557 74.732 116.145 74.288C116.745 73.832 117.483 73.604 118.359 73.604C119.223 73.604 119.895 73.904 120.375 74.504C120.399 74.54 120.423 74.552 120.447 74.54C120.471 74.528 120.483 74.504 120.483 74.468V70.616ZM120.105 80.192C120.345 79.748 120.465 79.142 120.465 78.374C120.465 77.57 120.333 76.94 120.069 76.484C119.793 76.016 119.391 75.782 118.863 75.782C118.299 75.782 117.873 76.016 117.585 76.484C117.285 76.952 117.135 77.588 117.135 78.392C117.135 79.112 117.261 79.712 117.513 80.192C117.813 80.708 118.257 80.966 118.845 80.966C119.385 80.966 119.805 80.708 120.105 80.192Z" fill="#252530"/>
<path d="M44.7824 94.928C44.8358 94.8427 44.9104 94.8 45.0064 94.8H46.4784C46.5318 94.8 46.5744 94.8213 46.6064 94.864C46.6491 94.896 46.6704 94.9387 46.6704 94.992V105.808C46.6704 105.861 46.6491 105.909 46.6064 105.952C46.5744 105.984 46.5318 106 46.4784 106H45.0064C44.9531 106 44.9051 105.984 44.8624 105.952C44.8304 105.909 44.8144 105.861 44.8144 105.808V98.176C44.8144 98.144 44.7984 98.1227 44.7664 98.112C44.7451 98.1013 44.7291 98.112 44.7184 98.144L42.7184 101.216C42.6651 101.301 42.5904 101.344 42.4944 101.344H41.7584C41.6624 101.344 41.5878 101.301 41.5344 101.216L39.5184 98.16C39.5078 98.128 39.4864 98.1173 39.4544 98.128C39.4331 98.1387 39.4224 98.16 39.4224 98.192V105.808C39.4224 105.861 39.4011 105.909 39.3584 105.952C39.3264 105.984 39.2838 106 39.2304 106H37.7584C37.7051 106 37.6571 105.984 37.6144 105.952C37.5824 105.909 37.5664 105.861 37.5664 105.808V94.992C37.5664 94.9387 37.5824 94.896 37.6144 94.864C37.6571 94.8213 37.7051 94.8 37.7584 94.8H39.2304C39.3264 94.8 39.4011 94.8427 39.4544 94.928L42.0624 98.88C42.0838 98.9013 42.1051 98.912 42.1264 98.912C42.1478 98.912 42.1638 98.9013 42.1744 98.88L44.7824 94.928ZM49.3839 96.704C49.0533 96.704 48.7813 96.5973 48.5679 96.384C48.3546 96.1707 48.2479 95.8987 48.2479 95.568C48.2479 95.2373 48.3546 94.9653 48.5679 94.752C48.7813 94.5387 49.0533 94.432 49.3839 94.432C49.7146 94.432 49.9866 94.5387 50.1999 94.752C50.4133 94.9653 50.5199 95.2373 50.5199 95.568C50.5199 95.8987 50.4133 96.1707 50.1999 96.384C49.9866 96.5973 49.7146 96.704 49.3839 96.704ZM48.6159 106C48.5626 106 48.5146 105.984 48.4719 105.952C48.4399 105.909 48.4239 105.861 48.4239 105.808V98C48.4239 97.9467 48.4399 97.904 48.4719 97.872C48.5146 97.8293 48.5626 97.808 48.6159 97.808H50.0879C50.1413 97.808 50.1839 97.8293 50.2159 97.872C50.2586 97.904 50.2799 97.9467 50.2799 98V105.808C50.2799 105.861 50.2586 105.909 50.2159 105.952C50.1839 105.984 50.1413 106 50.0879 106H48.6159ZM56.9781 94.992C56.9781 94.9387 56.9941 94.896 57.0261 94.864C57.0687 94.8213 57.1167 94.8 57.1701 94.8H58.6421C58.6954 94.8 58.7381 94.8213 58.7701 94.864C58.8127 94.896 58.8341 94.9387 58.8341 94.992V105.808C58.8341 105.861 58.8127 105.909 58.7701 105.952C58.7381 105.984 58.6954 106 58.6421 106H57.1701C57.1167 106 57.0687 105.984 57.0261 105.952C56.9941 105.909 56.9781 105.861 56.9781 105.808V105.328C56.9781 105.296 56.9674 105.275 56.9461 105.264C56.9247 105.253 56.9034 105.264 56.8821 105.296C56.4127 105.851 55.7994 106.128 55.0421 106.128C54.2847 106.128 53.6447 105.931 53.1221 105.536C52.5994 105.141 52.2207 104.592 51.9861 103.888C51.7941 103.291 51.6981 102.624 51.6981 101.888C51.6981 101.131 51.7887 100.48 51.9701 99.936C52.2047 99.232 52.5834 98.6827 53.1061 98.288C53.6287 97.8933 54.2847 97.696 55.0741 97.696C55.8101 97.696 56.4127 97.9627 56.8821 98.496C56.9034 98.5173 56.9247 98.528 56.9461 98.528C56.9674 98.5173 56.9781 98.496 56.9781 98.464V94.992ZM56.5941 103.76C56.8394 103.323 56.9621 102.704 56.9621 101.904C56.9621 101.072 56.8287 100.437 56.5621 100C56.2741 99.5307 55.8687 99.296 55.3461 99.296C54.8021 99.296 54.3754 99.52 54.0661 99.968C53.7461 100.437 53.5861 101.088 53.5861 101.92C53.5861 102.667 53.7141 103.28 53.9701 103.76C54.2687 104.272 54.7221 104.528 55.3301 104.528C55.8741 104.528 56.2954 104.272 56.5941 103.76ZM62.7587 101.984C62.7054 101.984 62.6574 101.968 62.6147 101.936C62.5827 101.893 62.5667 101.845 62.5667 101.792V100.576C62.5667 100.523 62.5827 100.48 62.6147 100.448C62.6574 100.405 62.7054 100.384 62.7587 100.384H67.7987C67.852 100.384 67.8947 100.405 67.9267 100.448C67.9694 100.48 67.9907 100.523 67.9907 100.576V101.792C67.9907 101.845 67.9694 101.893 67.9267 101.936C67.8947 101.968 67.852 101.984 67.7987 101.984H62.7587ZM76.4074 94.928C76.4608 94.8427 76.5354 94.8 76.6314 94.8H78.1034C78.1568 94.8 78.1994 94.8213 78.2314 94.864C78.2741 94.896 78.2954 94.9387 78.2954 94.992V105.808C78.2954 105.861 78.2741 105.909 78.2314 105.952C78.1994 105.984 78.1568 106 78.1034 106H76.6314C76.5781 106 76.5301 105.984 76.4874 105.952C76.4554 105.909 76.4394 105.861 76.4394 105.808V98.176C76.4394 98.144 76.4234 98.1227 76.3914 98.112C76.3701 98.1013 76.3541 98.112 76.3434 98.144L74.3434 101.216C74.2901 101.301 74.2154 101.344 74.1194 101.344H73.3834C73.2874 101.344 73.2128 101.301 73.1594 101.216L71.1434 98.16C71.1328 98.128 71.1114 98.1173 71.0794 98.128C71.0581 98.1387 71.0474 98.16 71.0474 98.192V105.808C71.0474 105.861 71.0261 105.909 70.9834 105.952C70.9514 105.984 70.9088 106 70.8554 106H69.3834C69.3301 106 69.2821 105.984 69.2394 105.952C69.2074 105.909 69.1914 105.861 69.1914 105.808V94.992C69.1914 94.9387 69.2074 94.896 69.2394 94.864C69.2821 94.8213 69.3301 94.8 69.3834 94.8H70.8554C70.9514 94.8 71.0261 94.8427 71.0794 94.928L73.6874 98.88C73.7088 98.9013 73.7301 98.912 73.7514 98.912C73.7728 98.912 73.7888 98.9013 73.7994 98.88L76.4074 94.928ZM83.0729 97.696C83.7449 97.696 84.3369 97.8133 84.8489 98.048C85.3609 98.2827 85.7556 98.608 86.0329 99.024C86.3103 99.4293 86.4489 99.8933 86.4489 100.416V105.808C86.4489 105.861 86.4276 105.909 86.3849 105.952C86.3529 105.984 86.3103 106 86.2569 106H84.7849C84.7316 106 84.6836 105.984 84.6409 105.952C84.6089 105.909 84.5929 105.861 84.5929 105.808V105.296C84.5929 105.264 84.5823 105.248 84.5609 105.248C84.5396 105.237 84.5183 105.243 84.4969 105.264C83.9743 105.84 83.2169 106.128 82.2249 106.128C81.4249 106.128 80.7636 105.925 80.2409 105.52C79.7289 105.115 79.4729 104.512 79.4729 103.712C79.4729 102.88 79.7609 102.235 80.3369 101.776C80.9236 101.307 81.7449 101.072 82.8009 101.072H84.5129C84.5663 101.072 84.5929 101.045 84.5929 100.992V100.608C84.5929 100.192 84.4703 99.872 84.2249 99.648C83.9796 99.4133 83.6116 99.296 83.1209 99.296C82.7156 99.296 82.3849 99.3707 82.1289 99.52C81.8836 99.6587 81.7289 99.856 81.6649 100.112C81.6329 100.24 81.5583 100.293 81.4409 100.272L79.8889 100.08C79.8356 100.069 79.7876 100.053 79.7449 100.032C79.7129 100 79.7023 99.9627 79.7129 99.92C79.7983 99.2693 80.1449 98.736 80.7529 98.32C81.3716 97.904 82.1449 97.696 83.0729 97.696ZM82.6889 104.656C83.2116 104.656 83.6596 104.517 84.0329 104.24C84.4063 103.963 84.5929 103.611 84.5929 103.184V102.432C84.5929 102.379 84.5663 102.352 84.5129 102.352H83.1689C82.6036 102.352 82.1556 102.459 81.8249 102.672C81.5049 102.885 81.3449 103.189 81.3449 103.584C81.3449 103.925 81.4676 104.192 81.7129 104.384C81.9689 104.565 82.2943 104.656 82.6889 104.656ZM91.6203 97.728C91.9616 97.728 92.2603 97.7973 92.5163 97.936C92.6016 97.9787 92.6336 98.0587 92.6123 98.176L92.3403 99.616C92.3296 99.744 92.255 99.7813 92.1163 99.728C91.9563 99.6747 91.7696 99.648 91.5563 99.648C91.4176 99.648 91.311 99.6533 91.2363 99.664C90.7883 99.6853 90.415 99.8453 90.1163 100.144C89.8176 100.432 89.6683 100.811 89.6683 101.28V105.808C89.6683 105.861 89.647 105.909 89.6043 105.952C89.5723 105.984 89.5296 106 89.4763 106H88.0043C87.951 106 87.903 105.984 87.8603 105.952C87.8283 105.909 87.8123 105.861 87.8123 105.808V98.016C87.8123 97.9627 87.8283 97.92 87.8603 97.888C87.903 97.8453 87.951 97.824 88.0043 97.824H89.4763C89.5296 97.824 89.5723 97.8453 89.6043 97.888C89.647 97.92 89.6683 97.9627 89.6683 98.016V98.736C89.6683 98.7787 89.6736 98.8053 89.6843 98.816C89.7056 98.816 89.727 98.8 89.7483 98.768C90.1963 98.0747 90.8203 97.728 91.6203 97.728ZM93.5199 106C93.4666 106 93.4186 105.984 93.3759 105.952C93.3439 105.909 93.3279 105.861 93.3279 105.808V94.992C93.3279 94.9387 93.3439 94.896 93.3759 94.864C93.4186 94.8213 93.4666 94.8 93.5199 94.8H94.9919C95.0453 94.8 95.0879 94.8213 95.1199 94.864C95.1626 94.896 95.1839 94.9387 95.1839 94.992V100.768C95.1839 100.8 95.1946 100.821 95.2159 100.832C95.2373 100.843 95.2586 100.832 95.2799 100.8L97.8719 97.936C97.9466 97.8613 98.0266 97.824 98.1119 97.824H99.8079C99.9146 97.824 99.9679 97.8613 99.9679 97.936C99.9679 97.968 99.9519 98.0107 99.9199 98.064L97.8879 100.496C97.8559 100.528 97.8506 100.565 97.8719 100.608L100.272 105.776C100.293 105.819 100.304 105.851 100.304 105.872C100.304 105.957 100.245 106 100.128 106H98.5759C98.4693 106 98.3946 105.952 98.3519 105.856L96.6079 101.792C96.5973 101.771 96.5759 101.76 96.5439 101.76C96.5226 101.749 96.5066 101.755 96.4959 101.776L95.2159 103.248C95.1946 103.291 95.1839 103.328 95.1839 103.36V105.808C95.1839 105.861 95.1626 105.909 95.1199 105.952C95.0879 105.984 95.0453 106 94.9919 106H93.5199ZM107.505 100.992C107.548 101.259 107.569 101.557 107.569 101.888L107.553 102.384C107.553 102.512 107.489 102.576 107.361 102.576H102.353C102.3 102.576 102.273 102.603 102.273 102.656C102.305 103.008 102.353 103.248 102.417 103.376C102.673 104.144 103.297 104.533 104.289 104.544C105.015 104.544 105.591 104.245 106.017 103.648C106.06 103.584 106.113 103.552 106.177 103.552C106.22 103.552 106.257 103.568 106.289 103.6L107.281 104.416C107.377 104.491 107.393 104.576 107.329 104.672C106.999 105.141 106.556 105.504 106.001 105.76C105.457 106.016 104.849 106.144 104.177 106.144C103.345 106.144 102.636 105.957 102.049 105.584C101.473 105.211 101.052 104.688 100.785 104.016C100.54 103.44 100.417 102.64 100.417 101.616C100.417 100.997 100.481 100.496 100.609 100.112C100.823 99.3653 101.223 98.7787 101.809 98.352C102.407 97.9147 103.121 97.696 103.953 97.696C106.055 97.696 107.239 98.7947 107.505 100.992ZM103.953 99.296C103.559 99.296 103.228 99.3973 102.961 99.6C102.705 99.792 102.524 100.064 102.417 100.416C102.353 100.597 102.311 100.832 102.289 101.12C102.268 101.173 102.289 101.2 102.353 101.2H105.601C105.655 101.2 105.681 101.173 105.681 101.12C105.66 100.853 105.628 100.651 105.585 100.512C105.489 100.128 105.297 99.8293 105.009 99.616C104.732 99.4027 104.38 99.296 103.953 99.296ZM112.945 99.136C112.945 99.1893 112.924 99.2373 112.881 99.28C112.849 99.312 112.807 99.328 112.753 99.328H111.121C111.068 99.328 111.041 99.3547 111.041 99.408V103.264C111.041 103.669 111.127 103.963 111.297 104.144C111.479 104.325 111.761 104.416 112.145 104.416H112.625C112.679 104.416 112.721 104.437 112.753 104.48C112.796 104.512 112.817 104.555 112.817 104.608V105.808C112.817 105.925 112.753 105.995 112.625 106.016L111.793 106.032C110.951 106.032 110.321 105.888 109.905 105.6C109.489 105.312 109.276 104.768 109.265 103.968V99.408C109.265 99.3547 109.239 99.328 109.185 99.328H108.273C108.22 99.328 108.172 99.312 108.129 99.28C108.097 99.2373 108.081 99.1893 108.081 99.136V98.016C108.081 97.9627 108.097 97.92 108.129 97.888C108.172 97.8453 108.22 97.824 108.273 97.824H109.185C109.239 97.824 109.265 97.7973 109.265 97.744V95.872C109.265 95.8187 109.281 95.776 109.313 95.744C109.356 95.7013 109.404 95.68 109.457 95.68H110.849C110.903 95.68 110.945 95.7013 110.977 95.744C111.02 95.776 111.041 95.8187 111.041 95.872V97.744C111.041 97.7973 111.068 97.824 111.121 97.824H112.753C112.807 97.824 112.849 97.8453 112.881 97.888C112.924 97.92 112.945 97.9627 112.945 98.016V99.136Z" fill="white"/>
<path d="M49.7529 131C49.6355 131 49.5609 130.947 49.5289 130.84L46.6969 120.008L46.6809 119.944C46.6809 119.848 46.7395 119.8 46.8569 119.8H48.8409C48.9475 119.8 49.0169 119.853 49.0489 119.96L50.5689 126.472C50.5795 126.515 50.5955 126.536 50.6169 126.536C50.6382 126.536 50.6542 126.515 50.6649 126.472L52.1369 119.976C52.1689 119.859 52.2382 119.8 52.3449 119.8H54.2809C54.3982 119.8 54.4729 119.853 54.5049 119.96L56.1049 126.472C56.1155 126.504 56.1315 126.525 56.1529 126.536C56.1742 126.536 56.1902 126.515 56.2009 126.472L57.6729 119.976C57.7049 119.859 57.7742 119.8 57.8809 119.8H59.7689C59.9182 119.8 59.9769 119.869 59.9449 120.008L57.3209 130.84C57.2889 130.947 57.2142 131 57.0969 131H55.1929C55.0862 131 55.0169 130.947 54.9849 130.84L53.3529 123.912C53.3422 123.869 53.3262 123.848 53.3049 123.848C53.2835 123.848 53.2675 123.869 53.2569 123.912L51.7369 130.824C51.7155 130.941 51.6462 131 51.5289 131H49.7529ZM61.4961 131C61.4428 131 61.3948 130.984 61.3521 130.952C61.3201 130.909 61.3041 130.861 61.3041 130.808V119.992C61.3041 119.939 61.3201 119.896 61.3521 119.864C61.3948 119.821 61.4428 119.8 61.4961 119.8H63.3681C63.4215 119.8 63.4641 119.821 63.4961 119.864C63.5388 119.896 63.5601 119.939 63.5601 119.992V130.808C63.5601 130.861 63.5388 130.909 63.4961 130.952C63.4641 130.984 63.4215 131 63.3681 131H61.4961ZM71.9393 119.992C71.9393 119.939 71.9553 119.896 71.9873 119.864C72.0299 119.821 72.0779 119.8 72.1313 119.8H74.0033C74.0566 119.8 74.0993 119.821 74.1313 119.864C74.1739 119.896 74.1953 119.939 74.1953 119.992V130.808C74.1953 130.861 74.1739 130.909 74.1313 130.952C74.0993 130.984 74.0566 131 74.0033 131H72.1953C72.0886 131 72.0139 130.957 71.9713 130.872L67.8273 124.024C67.8059 123.992 67.7846 123.981 67.7633 123.992C67.7419 123.992 67.7313 124.013 67.7313 124.056L67.7633 130.808C67.7633 130.861 67.7419 130.909 67.6993 130.952C67.6673 130.984 67.6246 131 67.5713 131H65.6993C65.6459 131 65.5979 130.984 65.5553 130.952C65.5233 130.909 65.5073 130.861 65.5073 130.808V119.992C65.5073 119.939 65.5233 119.896 65.5553 119.864C65.5979 119.821 65.6459 119.8 65.6993 119.8H67.5073C67.6139 119.8 67.6886 119.843 67.7313 119.928L71.8593 126.744C71.8806 126.776 71.9019 126.792 71.9233 126.792C71.9446 126.781 71.9553 126.755 71.9553 126.712L71.9393 119.992ZM83.8759 119.8C83.9292 119.8 83.9719 119.821 84.0039 119.864C84.0465 119.896 84.0679 119.939 84.0679 119.992V121.56C84.0679 121.613 84.0465 121.661 84.0039 121.704C83.9719 121.736 83.9292 121.752 83.8759 121.752H81.0119C80.9585 121.752 80.9319 121.779 80.9319 121.832V130.808C80.9319 130.861 80.9105 130.909 80.8679 130.952C80.8359 130.984 80.7932 131 80.7399 131H78.8679C78.8145 131 78.7665 130.984 78.7239 130.952C78.6919 130.909 78.6759 130.861 78.6759 130.808V121.832C78.6759 121.779 78.6492 121.752 78.5959 121.752H75.8119C75.7585 121.752 75.7105 121.736 75.6679 121.704C75.6359 121.661 75.6199 121.613 75.6199 121.56V119.992C75.6199 119.939 75.6359 119.896 75.6679 119.864C75.7105 119.821 75.7585 119.8 75.8119 119.8H83.8759ZM93.2833 121.544C93.2833 121.597 93.2619 121.645 93.2193 121.688C93.1873 121.72 93.1446 121.736 93.0913 121.736H87.8433C87.7899 121.736 87.7633 121.763 87.7633 121.816V124.296C87.7633 124.349 87.7899 124.376 87.8433 124.376H91.2833C91.3366 124.376 91.3793 124.397 91.4113 124.44C91.4539 124.472 91.4753 124.515 91.4753 124.568V126.12C91.4753 126.173 91.4539 126.221 91.4113 126.264C91.3793 126.296 91.3366 126.312 91.2833 126.312H87.8433C87.7899 126.312 87.7633 126.339 87.7633 126.392V128.984C87.7633 129.037 87.7899 129.064 87.8433 129.064H93.0913C93.1446 129.064 93.1873 129.085 93.2193 129.128C93.2619 129.16 93.2833 129.203 93.2833 129.256V130.808C93.2833 130.861 93.2619 130.909 93.2193 130.952C93.1873 130.984 93.1446 131 93.0913 131H85.6993C85.6459 131 85.5979 130.984 85.5553 130.952C85.5233 130.909 85.5073 130.861 85.5073 130.808V119.992C85.5073 119.939 85.5233 119.896 85.5553 119.864C85.5979 119.821 85.6459 119.8 85.6993 119.8H93.0913C93.1446 119.8 93.1873 119.821 93.2193 119.864C93.2619 119.896 93.2833 119.939 93.2833 119.992V121.544ZM100.995 131C100.888 131 100.814 130.952 100.771 130.856L98.771 126.424C98.7497 126.381 98.7177 126.36 98.675 126.36H97.187C97.1337 126.36 97.107 126.387 97.107 126.44V130.808C97.107 130.861 97.0857 130.909 97.043 130.952C97.011 130.984 96.9683 131 96.915 131H95.043C94.9897 131 94.9417 130.984 94.899 130.952C94.867 130.909 94.851 130.861 94.851 130.808V119.992C94.851 119.939 94.867 119.896 94.899 119.864C94.9417 119.821 94.9897 119.8 95.043 119.8H99.619C100.302 119.8 100.899 119.939 101.411 120.216C101.934 120.493 102.334 120.888 102.611 121.4C102.899 121.912 103.043 122.504 103.043 123.176C103.043 123.901 102.862 124.525 102.499 125.048C102.136 125.56 101.63 125.923 100.979 126.136C100.926 126.157 100.91 126.195 100.931 126.248L103.107 130.776C103.128 130.819 103.139 130.851 103.139 130.872C103.139 130.957 103.08 131 102.963 131H100.995ZM97.187 121.736C97.1337 121.736 97.107 121.763 97.107 121.816V124.552C97.107 124.605 97.1337 124.632 97.187 124.632H99.283C99.731 124.632 100.094 124.499 100.371 124.232C100.659 123.965 100.803 123.619 100.803 123.192C100.803 122.765 100.659 122.419 100.371 122.152C100.094 121.875 99.731 121.736 99.283 121.736H97.187Z" fill="#252530"/>
<path d="M61.0014 144.968C60.9801 144.989 60.9748 145.011 60.9854 145.032C60.9961 145.053 61.0174 145.064 61.0494 145.064H65.3854C65.4388 145.064 65.4814 145.085 65.5134 145.128C65.5561 145.16 65.5774 145.203 65.5774 145.256V146.808C65.5774 146.861 65.5561 146.909 65.5134 146.952C65.4814 146.984 65.4388 147 65.3854 147H58.1854C58.1321 147 58.0841 146.984 58.0414 146.952C58.0094 146.909 57.9934 146.861 57.9934 146.808V145.336C57.9934 145.24 58.0254 145.16 58.0894 145.096C58.6121 144.584 59.1454 144.029 59.6894 143.432C60.2334 142.824 60.5748 142.445 60.7134 142.296C61.0121 141.944 61.3161 141.608 61.6254 141.288C62.5961 140.211 63.0814 139.411 63.0814 138.888C63.0814 138.515 62.9481 138.211 62.6814 137.976C62.4148 137.731 62.0681 137.608 61.6414 137.608C61.2148 137.608 60.8681 137.731 60.6014 137.976C60.3348 138.211 60.2014 138.525 60.2014 138.92V139.32C60.2014 139.373 60.1801 139.421 60.1374 139.464C60.1054 139.496 60.0628 139.512 60.0094 139.512H58.1214C58.0681 139.512 58.0201 139.496 57.9774 139.464C57.9454 139.421 57.9294 139.373 57.9294 139.32V138.568C57.9614 137.992 58.1428 137.485 58.4734 137.048C58.8041 136.6 59.2414 136.259 59.7854 136.024C60.3401 135.789 60.9588 135.672 61.6414 135.672C62.3988 135.672 63.0548 135.816 63.6094 136.104C64.1748 136.381 64.6068 136.76 64.9054 137.24C65.2148 137.72 65.3694 138.253 65.3694 138.84C65.3694 139.288 65.2574 139.747 65.0334 140.216C64.8094 140.685 64.4734 141.192 64.0254 141.736C63.6948 142.152 63.3374 142.563 62.9534 142.968C62.5694 143.373 61.9988 143.96 61.2414 144.728L61.0014 144.968ZM70.7706 147.176C69.5972 147.176 68.6692 146.851 67.9866 146.2C67.3039 145.539 66.9626 144.643 66.9626 143.512V139.288C66.9626 138.179 67.3039 137.299 67.9866 136.648C68.6692 135.997 69.5972 135.672 70.7706 135.672C71.9439 135.672 72.8719 135.997 73.5546 136.648C74.2479 137.299 74.5946 138.179 74.5946 139.288V143.512C74.5946 144.643 74.2479 145.539 73.5546 146.2C72.8719 146.851 71.9439 147.176 70.7706 147.176ZM70.7706 145.24C71.2506 145.24 71.6292 145.096 71.9066 144.808C72.1946 144.509 72.3386 144.115 72.3386 143.624V139.224C72.3386 138.733 72.1946 138.344 71.9066 138.056C71.6292 137.757 71.2506 137.608 70.7706 137.608C70.3012 137.608 69.9226 137.757 69.6346 138.056C69.3572 138.344 69.2186 138.733 69.2186 139.224V143.624C69.2186 144.115 69.3572 144.509 69.6346 144.808C69.9226 145.096 70.3012 145.24 70.7706 145.24ZM79.0796 144.968C79.0582 144.989 79.0529 145.011 79.0636 145.032C79.0742 145.053 79.0956 145.064 79.1276 145.064H83.4636C83.5169 145.064 83.5596 145.085 83.5916 145.128C83.6342 145.16 83.6556 145.203 83.6556 145.256V146.808C83.6556 146.861 83.6342 146.909 83.5916 146.952C83.5596 146.984 83.5169 147 83.4636 147H76.2636C76.2102 147 76.1622 146.984 76.1196 146.952C76.0876 146.909 76.0716 146.861 76.0716 146.808V145.336C76.0716 145.24 76.1036 145.16 76.1676 145.096C76.6902 144.584 77.2236 144.029 77.7676 143.432C78.3116 142.824 78.6529 142.445 78.7916 142.296C79.0902 141.944 79.3942 141.608 79.7036 141.288C80.6742 140.211 81.1596 139.411 81.1596 138.888C81.1596 138.515 81.0262 138.211 80.7596 137.976C80.4929 137.731 80.1462 137.608 79.7196 137.608C79.2929 137.608 78.9462 137.731 78.6796 137.976C78.4129 138.211 78.2796 138.525 78.2796 138.92V139.32C78.2796 139.373 78.2582 139.421 78.2156 139.464C78.1836 139.496 78.1409 139.512 78.0876 139.512H76.1996C76.1462 139.512 76.0982 139.496 76.0556 139.464C76.0236 139.421 76.0076 139.373 76.0076 139.32V138.568C76.0396 137.992 76.2209 137.485 76.5516 137.048C76.8822 136.6 77.3196 136.259 77.8636 136.024C78.4182 135.789 79.0369 135.672 79.7196 135.672C80.4769 135.672 81.1329 135.816 81.6876 136.104C82.2529 136.381 82.6849 136.76 82.9836 137.24C83.2929 137.72 83.4476 138.253 83.4476 138.84C83.4476 139.288 83.3356 139.747 83.1116 140.216C82.8876 140.685 82.5516 141.192 82.1036 141.736C81.7729 142.152 81.4156 142.563 81.0316 142.968C80.6476 143.373 80.0769 143.96 79.3196 144.728L79.0796 144.968ZM91.7179 141.656C91.9313 142.147 92.0379 142.712 92.0379 143.352C92.0379 143.928 91.9419 144.461 91.7499 144.952C91.4939 145.635 91.0619 146.168 90.4539 146.552C89.8566 146.936 89.1473 147.128 88.3259 147.128C87.5153 147.128 86.8006 146.925 86.1819 146.52C85.5739 146.115 85.1366 145.565 84.8699 144.872C84.7206 144.456 84.6353 144.008 84.6139 143.528C84.6139 143.4 84.6779 143.336 84.8059 143.336H86.6939C86.8219 143.336 86.8859 143.4 86.8859 143.528C86.9286 143.88 86.9873 144.141 87.0619 144.312C87.1579 144.589 87.3126 144.808 87.5259 144.968C87.7499 145.117 88.0113 145.192 88.3099 145.192C88.9073 145.192 89.3179 144.931 89.5419 144.408C89.6913 144.088 89.7659 143.715 89.7659 143.288C89.7659 142.787 89.6859 142.376 89.5259 142.056C89.2806 141.555 88.8699 141.304 88.2939 141.304C88.1766 141.304 88.0539 141.341 87.9259 141.416C87.7979 141.48 87.6433 141.576 87.4619 141.704C87.4193 141.736 87.3766 141.752 87.3339 141.752C87.2699 141.752 87.2219 141.72 87.1899 141.656L86.2459 140.328C86.2246 140.296 86.2139 140.259 86.2139 140.216C86.2139 140.152 86.2353 140.099 86.2779 140.056L88.8219 137.832C88.8433 137.811 88.8486 137.789 88.8379 137.768C88.8379 137.747 88.8219 137.736 88.7899 137.736H85.0299C84.9766 137.736 84.9286 137.72 84.8859 137.688C84.8539 137.645 84.8379 137.597 84.8379 137.544V135.992C84.8379 135.939 84.8539 135.896 84.8859 135.864C84.9286 135.821 84.9766 135.8 85.0299 135.8H91.7019C91.7553 135.8 91.7979 135.821 91.8299 135.864C91.8726 135.896 91.8939 135.939 91.8939 135.992V137.752C91.8939 137.837 91.8566 137.917 91.7819 137.992L89.6859 139.912C89.6646 139.933 89.6539 139.955 89.6539 139.976C89.6646 139.997 89.6913 140.008 89.7339 140.008C90.6619 140.189 91.3233 140.739 91.7179 141.656Z" fill="#252530"/>
</g>
<defs>
<clipPath id="clip0_15_616">
<rect width="150" height="168" fill="white"/>
</clipPath>
</defs>
</svg>
