<svg width="150" height="168" viewBox="0 0 150 168" fill="none" xmlns="http://www.w3.org/2000/svg">
<g clip-path="url(#clip0_15_171)">
<path d="M10 132.9V2H139V132.9L74.45 165.76L10 132.9Z" fill="white"/>
<path d="M137 4V131.67L74.45 163.51L12 131.67V4H137ZM141 0H8V134.12L74.45 168L141 134.12V0Z" fill="#DCDEDC"/>
<path d="M12.22 131.78L74.43 163.5L137 131.7V4.67999L12.22 131.78Z" fill="#F2F3F2"/>
<path d="M144.98 90H5.16966L0 101L5.16966 112H144.99L150 101L144.98 90Z" fill="#FFD200"/>
<path d="M75.0778 6.12022C75.7101 6.12022 76.3327 6.12022 76.965 6.27565L75.0778 9.87978C72.2471 9.72435 69.7374 11.9199 69.5817 14.7468C69.4261 17.5738 71.6245 20.0801 74.4553 20.2356H75.0875C76.3424 20.2356 77.5973 19.7693 78.5409 18.9824L80.5837 22.4311C79.0175 23.5288 77.1303 24.1603 75.0875 24.1603C70.0584 24.3157 65.8171 20.5562 65.6615 15.5337C65.5058 10.5112 69.2704 6.27565 74.2996 6.12022H75.0875H75.0778ZM81.5175 13.8045L83.8716 17.7292L81.5175 21.4985L79.3191 17.7292H74.7665L77.1206 13.8045H81.5175ZM77.7432 12.3959C77.7432 11.7644 77.8988 11.1427 78.2101 10.6667C78.5214 10.1906 79.1537 9.72435 79.6206 9.41348L79.9319 9.25805C80.5642 8.94718 80.7198 8.79174 80.7198 8.47116C80.7198 8.15058 80.2529 7.83971 79.9319 7.83971C79.2996 7.83971 78.8327 8.15058 78.5214 8.78203L77.7335 7.99514C77.8891 7.68427 78.2004 7.36369 78.5214 7.05282C78.9883 6.74196 79.465 6.74196 79.9319 6.74196C80.3988 6.74196 81.0311 6.89739 81.3424 7.20826C81.6537 7.51913 81.9747 7.99514 81.9747 8.46145C81.9747 9.24833 81.5078 9.87007 80.5642 10.1906L80.0973 10.5015C79.6303 10.8124 79.3093 10.9678 79.1537 11.4438H81.9844V12.5416L77.7432 12.3862V12.3959ZM75.0778 32L90 23.5288V0H60V23.3734L75.0778 32Z" fill="#FF492C"/>
<path d="M61.6435 50.24C61.5475 50.288 61.5475 50.336 61.6435 50.384C63.1635 51.168 63.9235 52.472 63.9235 54.296C63.9235 55.848 63.3955 57.024 62.3395 57.824C61.2835 58.608 59.8995 59 58.1875 59H51.9715C51.8915 59 51.8195 58.976 51.7555 58.928C51.7075 58.864 51.6835 58.792 51.6835 58.712V42.488C51.6835 42.408 51.7075 42.344 51.7555 42.296C51.8195 42.232 51.8915 42.2 51.9715 42.2H57.9955C61.7875 42.2 63.6835 43.736 63.6835 46.808C63.6835 48.408 63.0035 49.552 61.6435 50.24ZM55.1875 45.104C55.1075 45.104 55.0675 45.144 55.0675 45.224V48.968C55.0675 49.048 55.1075 49.088 55.1875 49.088H57.9955C58.7475 49.088 59.3315 48.912 59.7475 48.56C60.1635 48.208 60.3715 47.728 60.3715 47.12C60.3715 46.496 60.1635 46.008 59.7475 45.656C59.3315 45.288 58.7475 45.104 57.9955 45.104H55.1875ZM58.1875 56.072C58.9235 56.072 59.4995 55.888 59.9155 55.52C60.3315 55.136 60.5395 54.616 60.5395 53.96C60.5395 53.304 60.3315 52.792 59.9155 52.424C59.4995 52.04 58.9155 51.848 58.1635 51.848H55.1875C55.1075 51.848 55.0675 51.888 55.0675 51.968V55.952C55.0675 56.032 55.1075 56.072 55.1875 56.072H58.1875ZM77.4703 51.56C77.5663 52.168 77.5983 52.848 77.5663 53.6C77.5503 53.792 77.4463 53.888 77.2543 53.888H69.8383C69.7423 53.888 69.7103 53.928 69.7423 54.008C69.7903 54.328 69.8783 54.648 70.0063 54.968C70.4223 55.864 71.2703 56.312 72.5503 56.312C73.5743 56.296 74.3823 55.88 74.9743 55.064C75.0383 54.968 75.1103 54.92 75.1903 54.92C75.2383 54.92 75.2943 54.952 75.3583 55.016L77.0863 56.72C77.1663 56.8 77.2063 56.872 77.2063 56.936C77.2063 56.968 77.1743 57.032 77.1103 57.128C76.5823 57.784 75.9023 58.296 75.0703 58.664C74.2383 59.016 73.3263 59.192 72.3343 59.192C70.9583 59.192 69.7903 58.88 68.8303 58.256C67.8863 57.632 67.2063 56.76 66.7903 55.64C66.4543 54.84 66.2863 53.792 66.2863 52.496C66.2863 51.616 66.4063 50.84 66.6463 50.168C67.0143 49.032 67.6543 48.128 68.5663 47.456C69.4943 46.784 70.5903 46.448 71.8543 46.448C73.4543 46.448 74.7343 46.912 75.6943 47.84C76.6703 48.768 77.2623 50.008 77.4703 51.56ZM71.8783 49.376C70.8703 49.376 70.2063 49.848 69.8863 50.792C69.8223 51 69.7663 51.256 69.7183 51.56C69.7183 51.64 69.7583 51.68 69.8383 51.68H73.9903C74.0863 51.68 74.1183 51.64 74.0863 51.56C74.0063 51.096 73.9663 50.872 73.9663 50.888C73.8223 50.408 73.5663 50.04 73.1983 49.784C72.8463 49.512 72.4063 49.376 71.8783 49.376ZM84.6078 59.168C83.5358 59.168 82.5998 59.016 81.7998 58.712C80.9998 58.408 80.3758 57.984 79.9278 57.44C79.4958 56.896 79.2798 56.28 79.2798 55.592V55.352C79.2798 55.272 79.3038 55.208 79.3518 55.16C79.4158 55.096 79.4878 55.064 79.5678 55.064H82.2318C82.3118 55.064 82.3758 55.096 82.4238 55.16C82.4878 55.208 82.5198 55.272 82.5198 55.352V55.376C82.5198 55.728 82.7118 56.032 83.0958 56.288C83.4958 56.528 83.9918 56.648 84.5838 56.648C85.1278 56.648 85.5678 56.544 85.9038 56.336C86.2398 56.112 86.4078 55.84 86.4078 55.52C86.4078 55.232 86.2638 55.016 85.9758 54.872C85.6878 54.728 85.2158 54.576 84.5598 54.416C83.8078 54.224 83.2158 54.04 82.7838 53.864C81.7598 53.512 80.9438 53.08 80.3358 52.568C79.7278 52.056 79.4238 51.32 79.4238 50.36C79.4238 49.176 79.8798 48.24 80.7918 47.552C81.7198 46.848 82.9438 46.496 84.4638 46.496C85.4878 46.496 86.3838 46.664 87.1518 47C87.9198 47.32 88.5118 47.776 88.9278 48.368C89.3598 48.96 89.5758 49.632 89.5758 50.384C89.5758 50.464 89.5438 50.536 89.4798 50.6C89.4318 50.648 89.3678 50.672 89.2878 50.672H86.7198C86.6398 50.672 86.5678 50.648 86.5038 50.6C86.4558 50.536 86.4318 50.464 86.4318 50.384C86.4318 50.032 86.2478 49.736 85.8798 49.496C85.5278 49.256 85.0558 49.136 84.4638 49.136C83.9358 49.136 83.5038 49.232 83.1678 49.424C82.8318 49.616 82.6638 49.88 82.6638 50.216C82.6638 50.536 82.8238 50.776 83.1438 50.936C83.4798 51.096 84.0318 51.264 84.7998 51.44C84.9758 51.488 85.1758 51.544 85.3998 51.608C85.6238 51.656 85.8638 51.72 86.1198 51.8C87.2558 52.136 88.1518 52.568 88.8078 53.096C89.4638 53.624 89.7918 54.392 89.7918 55.4C89.7918 56.584 89.3198 57.512 88.3758 58.184C87.4478 58.84 86.1918 59.168 84.6078 59.168ZM98.9913 49.088C98.9913 49.168 98.9593 49.24 98.8953 49.304C98.8473 49.352 98.7833 49.376 98.7033 49.376H96.3993C96.3193 49.376 96.2793 49.416 96.2793 49.496V54.584C96.2793 55.112 96.3833 55.504 96.5913 55.76C96.8153 56.016 97.1673 56.144 97.6473 56.144H98.4393C98.5193 56.144 98.5833 56.176 98.6313 56.24C98.6953 56.288 98.7273 56.352 98.7273 56.432V58.712C98.7273 58.888 98.6313 58.992 98.4393 59.024C97.7673 59.056 97.2873 59.072 96.9993 59.072C95.6713 59.072 94.6793 58.856 94.0233 58.424C93.3673 57.976 93.0313 57.144 93.0153 55.928V49.496C93.0153 49.416 92.9753 49.376 92.8953 49.376H91.5273C91.4473 49.376 91.3753 49.352 91.3113 49.304C91.2633 49.24 91.2393 49.168 91.2393 49.088V46.952C91.2393 46.872 91.2633 46.808 91.3113 46.76C91.3753 46.696 91.4473 46.664 91.5273 46.664H92.8953C92.9753 46.664 93.0153 46.624 93.0153 46.544V43.688C93.0153 43.608 93.0393 43.544 93.0873 43.496C93.1513 43.432 93.2233 43.4 93.3033 43.4H95.9913C96.0713 43.4 96.1353 43.432 96.1833 43.496C96.2473 43.544 96.2793 43.608 96.2793 43.688V46.544C96.2793 46.624 96.3193 46.664 96.3993 46.664H98.7033C98.7833 46.664 98.8473 46.696 98.8953 46.76C98.9593 46.808 98.9913 46.872 98.9913 46.952V49.088ZM36.6006 83.192C35.3686 83.192 34.2806 82.952 33.3366 82.472C32.4086 81.992 31.6806 81.32 31.1526 80.456C30.6406 79.576 30.3846 78.568 30.3846 77.432V66.488C30.3846 66.408 30.4086 66.344 30.4566 66.296C30.5206 66.232 30.5926 66.2 30.6726 66.2H33.4806C33.5606 66.2 33.6246 66.232 33.6726 66.296C33.7366 66.344 33.7686 66.408 33.7686 66.488V77.456C33.7686 78.304 34.0246 78.992 34.5366 79.52C35.0646 80.032 35.7526 80.288 36.6006 80.288C37.4486 80.288 38.1286 80.032 38.6406 79.52C39.1686 78.992 39.4326 78.304 39.4326 77.456V66.488C39.4326 66.408 39.4566 66.344 39.5046 66.296C39.5686 66.232 39.6406 66.2 39.7206 66.2H42.5286C42.6086 66.2 42.6726 66.232 42.7206 66.296C42.7846 66.344 42.8166 66.408 42.8166 66.488V77.432C42.8166 78.568 42.5526 79.576 42.0246 80.456C41.5126 81.32 40.7846 81.992 39.8406 82.472C38.9126 82.952 37.8326 83.192 36.6006 83.192ZM50.2024 83.168C49.1304 83.168 48.1944 83.016 47.3944 82.712C46.5944 82.408 45.9704 81.984 45.5224 81.44C45.0904 80.896 44.8744 80.28 44.8744 79.592V79.352C44.8744 79.272 44.8984 79.208 44.9464 79.16C45.0104 79.096 45.0824 79.064 45.1624 79.064H47.8264C47.9064 79.064 47.9704 79.096 48.0184 79.16C48.0824 79.208 48.1144 79.272 48.1144 79.352V79.376C48.1144 79.728 48.3064 80.032 48.6904 80.288C49.0904 80.528 49.5864 80.648 50.1784 80.648C50.7224 80.648 51.1624 80.544 51.4984 80.336C51.8344 80.112 52.0024 79.84 52.0024 79.52C52.0024 79.232 51.8584 79.016 51.5704 78.872C51.2824 78.728 50.8104 78.576 50.1544 78.416C49.4024 78.224 48.8104 78.04 48.3784 77.864C47.3544 77.512 46.5384 77.08 45.9304 76.568C45.3224 76.056 45.0184 75.32 45.0184 74.36C45.0184 73.176 45.4744 72.24 46.3864 71.552C47.3144 70.848 48.5384 70.496 50.0584 70.496C51.0824 70.496 51.9784 70.664 52.7464 71C53.5144 71.32 54.1064 71.776 54.5224 72.368C54.9544 72.96 55.1704 73.632 55.1704 74.384C55.1704 74.464 55.1384 74.536 55.0744 74.6C55.0264 74.648 54.9624 74.672 54.8824 74.672H52.3144C52.2344 74.672 52.1624 74.648 52.0984 74.6C52.0504 74.536 52.0264 74.464 52.0264 74.384C52.0264 74.032 51.8424 73.736 51.4744 73.496C51.1224 73.256 50.6504 73.136 50.0584 73.136C49.5304 73.136 49.0984 73.232 48.7624 73.424C48.4264 73.616 48.2584 73.88 48.2584 74.216C48.2584 74.536 48.4184 74.776 48.7384 74.936C49.0744 75.096 49.6264 75.264 50.3944 75.44C50.5704 75.488 50.7704 75.544 50.9944 75.608C51.2184 75.656 51.4584 75.72 51.7144 75.8C52.8504 76.136 53.7464 76.568 54.4024 77.096C55.0584 77.624 55.3864 78.392 55.3864 79.4C55.3864 80.584 54.9144 81.512 53.9704 82.184C53.0424 82.84 51.7864 83.168 50.2024 83.168ZM62.1493 70.472C63.1893 70.472 64.1173 70.656 64.9333 71.024C65.7493 71.376 66.3813 71.864 66.8293 72.488C67.2933 73.112 67.5253 73.808 67.5253 74.576V82.712C67.5253 82.792 67.4933 82.864 67.4293 82.928C67.3813 82.976 67.3173 83 67.2373 83H64.4293C64.3493 83 64.2773 82.976 64.2133 82.928C64.1653 82.864 64.1413 82.792 64.1413 82.712V81.92C64.1413 81.872 64.1253 81.84 64.0933 81.824C64.0613 81.808 64.0293 81.824 63.9973 81.872C63.3253 82.752 62.2453 83.192 60.7573 83.192C59.5093 83.192 58.5013 82.888 57.7333 82.28C56.9653 81.672 56.5813 80.776 56.5813 79.592C56.5813 78.36 57.0133 77.408 57.8773 76.736C58.7413 76.048 59.9733 75.704 61.5733 75.704H64.0213C64.1013 75.704 64.1413 75.664 64.1413 75.584V75.056C64.1413 74.528 63.9813 74.12 63.6613 73.832C63.3413 73.528 62.8613 73.376 62.2213 73.376C61.7253 73.376 61.3093 73.464 60.9733 73.64C60.6533 73.816 60.4453 74.064 60.3493 74.384C60.3013 74.56 60.1973 74.64 60.0373 74.624L57.1333 74.24C56.9413 74.208 56.8533 74.136 56.8693 74.024C56.9333 73.352 57.1973 72.744 57.6613 72.2C58.1413 71.656 58.7653 71.232 59.5333 70.928C60.3173 70.624 61.1893 70.472 62.1493 70.472ZM61.6693 80.672C62.3573 80.672 62.9413 80.488 63.4213 80.12C63.9013 79.752 64.1413 79.28 64.1413 78.704V77.84C64.1413 77.76 64.1013 77.72 64.0213 77.72H62.2933C61.5733 77.72 61.0053 77.856 60.5893 78.128C60.1893 78.4 59.9893 78.784 59.9893 79.28C59.9893 79.712 60.1413 80.056 60.4453 80.312C60.7493 80.552 61.1573 80.672 61.6693 80.672ZM80.7289 73.808C81.0329 74.64 81.1849 75.632 81.1849 76.784C81.1849 77.888 81.0489 78.856 80.7769 79.688C80.4089 80.776 79.8169 81.632 79.0009 82.256C78.2009 82.88 77.2489 83.192 76.1449 83.192C74.9769 83.192 74.0569 82.752 73.3849 81.872C73.3529 81.84 73.3209 81.832 73.2889 81.848C73.2569 81.848 73.2409 81.872 73.2409 81.92V82.712C73.2409 82.792 73.2089 82.864 73.1449 82.928C73.0969 82.976 73.0329 83 72.9529 83H70.1449C70.0649 83 69.9929 82.976 69.9289 82.928C69.8809 82.864 69.8569 82.792 69.8569 82.712V66.488C69.8569 66.408 69.8809 66.344 69.9289 66.296C69.9929 66.232 70.0649 66.2 70.1449 66.2H72.9529C73.0329 66.2 73.0969 66.232 73.1449 66.296C73.2089 66.344 73.2409 66.408 73.2409 66.488V71.624C73.2409 71.672 73.2569 71.704 73.2889 71.72C73.3209 71.736 73.3529 71.72 73.3849 71.672C74.0089 70.872 74.8969 70.472 76.0489 70.472C77.2169 70.472 78.1929 70.776 78.9769 71.384C79.7769 71.976 80.3609 72.784 80.7289 73.808ZM77.1769 79.256C77.5129 78.648 77.6809 77.848 77.6809 76.856C77.6809 75.752 77.4889 74.904 77.1049 74.312C76.7209 73.688 76.1529 73.376 75.4009 73.376C74.6969 73.376 74.1609 73.688 73.7929 74.312C73.4409 74.92 73.2649 75.76 73.2649 76.832C73.2649 77.904 73.4249 78.712 73.7449 79.256C74.1289 79.944 74.6889 80.288 75.4249 80.288C76.2089 80.288 76.7929 79.944 77.1769 79.256ZM85.1267 69.272C84.5827 69.272 84.1267 69.096 83.7587 68.744C83.4067 68.376 83.2307 67.92 83.2307 67.376C83.2307 66.816 83.4067 66.36 83.7587 66.008C84.1107 65.656 84.5667 65.48 85.1267 65.48C85.6867 65.48 86.1427 65.656 86.4947 66.008C86.8467 66.36 87.0227 66.816 87.0227 67.376C87.0227 67.92 86.8387 68.376 86.4707 68.744C86.1187 69.096 85.6707 69.272 85.1267 69.272ZM83.6867 83C83.6067 83 83.5347 82.976 83.4707 82.928C83.4227 82.864 83.3987 82.792 83.3987 82.712V70.928C83.3987 70.848 83.4227 70.784 83.4707 70.736C83.5347 70.672 83.6067 70.64 83.6867 70.64H86.4947C86.5747 70.64 86.6387 70.672 86.6867 70.736C86.7507 70.784 86.7827 70.848 86.7827 70.928V82.712C86.7827 82.792 86.7507 82.864 86.6867 82.928C86.6387 82.976 86.5747 83 86.4947 83H83.6867ZM89.6079 83C89.5279 83 89.4559 82.976 89.3919 82.928C89.3439 82.864 89.3199 82.792 89.3199 82.712V66.488C89.3199 66.408 89.3439 66.344 89.3919 66.296C89.4559 66.232 89.5279 66.2 89.6079 66.2H92.4159C92.4959 66.2 92.5599 66.232 92.6079 66.296C92.6719 66.344 92.7039 66.408 92.7039 66.488V82.712C92.7039 82.792 92.6719 82.864 92.6079 82.928C92.5599 82.976 92.4959 83 92.4159 83H89.6079ZM96.9033 69.272C96.3593 69.272 95.9033 69.096 95.5353 68.744C95.1833 68.376 95.0073 67.92 95.0073 67.376C95.0073 66.816 95.1833 66.36 95.5353 66.008C95.8873 65.656 96.3433 65.48 96.9033 65.48C97.4633 65.48 97.9193 65.656 98.2713 66.008C98.6233 66.36 98.7993 66.816 98.7993 67.376C98.7993 67.92 98.6153 68.376 98.2473 68.744C97.8953 69.096 97.4473 69.272 96.9033 69.272ZM95.4633 83C95.3833 83 95.3113 82.976 95.2473 82.928C95.1993 82.864 95.1753 82.792 95.1753 82.712V70.928C95.1753 70.848 95.1993 70.784 95.2473 70.736C95.3113 70.672 95.3833 70.64 95.4633 70.64H98.2713C98.3513 70.64 98.4153 70.672 98.4633 70.736C98.5273 70.784 98.5593 70.848 98.5593 70.928V82.712C98.5593 82.792 98.5273 82.864 98.4633 82.928C98.4153 82.976 98.3513 83 98.2713 83H95.4633ZM108.176 73.088C108.176 73.168 108.144 73.24 108.08 73.304C108.032 73.352 107.968 73.376 107.888 73.376H105.584C105.504 73.376 105.464 73.416 105.464 73.496V78.584C105.464 79.112 105.568 79.504 105.776 79.76C106 80.016 106.352 80.144 106.832 80.144H107.624C107.704 80.144 107.768 80.176 107.816 80.24C107.88 80.288 107.912 80.352 107.912 80.432V82.712C107.912 82.888 107.816 82.992 107.624 83.024C106.952 83.056 106.472 83.072 106.184 83.072C104.856 83.072 103.864 82.856 103.208 82.424C102.552 81.976 102.216 81.144 102.2 79.928V73.496C102.2 73.416 102.16 73.376 102.08 73.376H100.712C100.632 73.376 100.56 73.352 100.496 73.304C100.448 73.24 100.424 73.168 100.424 73.088V70.952C100.424 70.872 100.448 70.808 100.496 70.76C100.56 70.696 100.632 70.664 100.712 70.664H102.08C102.16 70.664 102.2 70.624 102.2 70.544V67.688C102.2 67.608 102.224 67.544 102.272 67.496C102.336 67.432 102.408 67.4 102.488 67.4H105.176C105.256 67.4 105.32 67.432 105.368 67.496C105.432 67.544 105.464 67.608 105.464 67.688V70.544C105.464 70.624 105.504 70.664 105.584 70.664H107.888C107.968 70.664 108.032 70.696 108.08 70.76C108.144 70.808 108.176 70.872 108.176 70.952V73.088ZM110.042 87.776C109.994 87.776 109.954 87.744 109.922 87.68C109.89 87.632 109.874 87.568 109.874 87.488V85.28C109.874 85.2 109.898 85.128 109.946 85.064C110.01 85.016 110.082 84.992 110.162 84.992C110.834 84.976 111.362 84.92 111.746 84.824C112.146 84.728 112.458 84.544 112.682 84.272C112.922 84 113.106 83.6 113.234 83.072C113.25 83.04 113.25 82.992 113.234 82.928L109.298 70.976C109.282 70.944 109.274 70.904 109.274 70.856C109.274 70.712 109.362 70.64 109.538 70.64H112.538C112.714 70.64 112.826 70.72 112.874 70.88L114.89 78.656C114.906 78.704 114.93 78.728 114.962 78.728C114.994 78.728 115.018 78.704 115.034 78.656L117.05 70.88C117.098 70.72 117.21 70.64 117.386 70.64H120.314C120.41 70.64 120.474 70.672 120.506 70.736C120.554 70.784 120.562 70.864 120.53 70.976L116.378 83.456C115.978 84.624 115.57 85.496 115.154 86.072C114.738 86.664 114.154 87.096 113.402 87.368C112.65 87.64 111.586 87.776 110.21 87.776H110.042Z" fill="#252530"/>
<path d="M49.8098 107C49.6925 107 49.6178 106.947 49.5858 106.84L46.6738 96.008L46.6578 95.944C46.6578 95.848 46.7165 95.8 46.8338 95.8H48.4018C48.5191 95.8 48.5938 95.8533 48.6258 95.96L50.4498 103.256C50.4605 103.288 50.4765 103.304 50.4978 103.304C50.5191 103.304 50.5351 103.288 50.5458 103.256L52.2898 95.96C52.3218 95.8533 52.3911 95.8 52.4978 95.8H54.0338C54.1511 95.8 54.2258 95.8533 54.2578 95.96L56.1138 103.272C56.1245 103.304 56.1405 103.32 56.1618 103.32C56.1831 103.32 56.1991 103.304 56.2098 103.272L58.0018 95.96C58.0338 95.8533 58.1085 95.8 58.2258 95.8H59.7138C59.8631 95.8 59.9218 95.8693 59.8898 96.008L57.1218 106.84C57.0898 106.947 57.0151 107 56.8978 107H55.4098C55.2925 107 55.2178 106.947 55.1858 106.84L53.3138 99.208C53.3031 99.176 53.2871 99.16 53.2658 99.16C53.2445 99.1493 53.2285 99.1653 53.2178 99.208L51.4258 106.84C51.3938 106.947 51.3245 107 51.2178 107H49.8098ZM61.6647 107C61.6114 107 61.5634 106.984 61.5207 106.952C61.4887 106.909 61.4727 106.861 61.4727 106.808V95.992C61.4727 95.9387 61.4887 95.896 61.5207 95.864C61.5634 95.8213 61.6114 95.8 61.6647 95.8H63.1367C63.19 95.8 63.2327 95.8213 63.2647 95.864C63.3074 95.896 63.3287 95.9387 63.3287 95.992V106.808C63.3287 106.861 63.3074 106.909 63.2647 106.952C63.2327 106.984 63.19 107 63.1367 107H61.6647ZM72.1722 95.992C72.1722 95.9387 72.1882 95.896 72.2202 95.864C72.2629 95.8213 72.3109 95.8 72.3642 95.8H73.8362C73.8895 95.8 73.9322 95.8213 73.9642 95.864C74.0069 95.896 74.0282 95.9387 74.0282 95.992V106.808C74.0282 106.861 74.0069 106.909 73.9642 106.952C73.9322 106.984 73.8895 107 73.8362 107H72.4122C72.3055 107 72.2309 106.957 72.1882 106.872L67.5802 99.32C67.5589 99.288 67.5375 99.2773 67.5162 99.288C67.4949 99.288 67.4842 99.3093 67.4842 99.352L67.5162 106.808C67.5162 106.861 67.4949 106.909 67.4522 106.952C67.4202 106.984 67.3775 107 67.3242 107H65.8522C65.7989 107 65.7509 106.984 65.7082 106.952C65.6762 106.909 65.6602 106.861 65.6602 106.808V95.992C65.6602 95.9387 65.6762 95.896 65.7082 95.864C65.7509 95.8213 65.7989 95.8 65.8522 95.8H67.2762C67.3829 95.8 67.4575 95.8427 67.5002 95.928L72.0922 103.48C72.1135 103.512 72.1349 103.528 72.1562 103.528C72.1775 103.517 72.1882 103.491 72.1882 103.448L72.1722 95.992ZM83.7233 95.8C83.7766 95.8 83.8193 95.8213 83.8513 95.864C83.894 95.896 83.9153 95.9387 83.9153 95.992V97.224C83.9153 97.2773 83.894 97.3253 83.8513 97.368C83.8193 97.4 83.7766 97.416 83.7233 97.416H80.7793C80.726 97.416 80.6993 97.4427 80.6993 97.496V106.808C80.6993 106.861 80.678 106.909 80.6353 106.952C80.6033 106.984 80.5606 107 80.5073 107H79.0353C78.982 107 78.934 106.984 78.8913 106.952C78.8593 106.909 78.8433 106.861 78.8433 106.808V97.496C78.8433 97.4427 78.8166 97.416 78.7633 97.416H75.9313C75.878 97.416 75.83 97.4 75.7873 97.368C75.7553 97.3253 75.7393 97.2773 75.7393 97.224V95.992C75.7393 95.9387 75.7553 95.896 75.7873 95.864C75.83 95.8213 75.878 95.8 75.9313 95.8H83.7233ZM93.2129 97.208C93.2129 97.2613 93.1916 97.3093 93.1489 97.352C93.1169 97.384 93.0743 97.4 93.0209 97.4H87.5649C87.5116 97.4 87.4849 97.4267 87.4849 97.48V100.472C87.4849 100.525 87.5116 100.552 87.5649 100.552H91.2289C91.2823 100.552 91.3249 100.573 91.3569 100.616C91.3996 100.648 91.4209 100.691 91.4209 100.744V101.96C91.4209 102.013 91.3996 102.061 91.3569 102.104C91.3249 102.136 91.2823 102.152 91.2289 102.152H87.5649C87.5116 102.152 87.4849 102.179 87.4849 102.232V105.32C87.4849 105.373 87.5116 105.4 87.5649 105.4H93.0209C93.0743 105.4 93.1169 105.421 93.1489 105.464C93.1916 105.496 93.2129 105.539 93.2129 105.592V106.808C93.2129 106.861 93.1916 106.909 93.1489 106.952C93.1169 106.984 93.0743 107 93.0209 107H85.8209C85.7676 107 85.7196 106.984 85.6769 106.952C85.6449 106.909 85.6289 106.861 85.6289 106.808V95.992C85.6289 95.9387 85.6449 95.896 85.6769 95.864C85.7196 95.8213 85.7676 95.8 85.8209 95.8H93.0209C93.0743 95.8 93.1169 95.8213 93.1489 95.864C93.1916 95.896 93.2129 95.9387 93.2129 95.992V97.208ZM101.386 107C101.279 107 101.204 106.952 101.162 106.856L99.0497 102.248C99.0284 102.205 98.9964 102.184 98.9537 102.184H97.0337C96.9804 102.184 96.9537 102.211 96.9537 102.264V106.808C96.9537 106.861 96.9324 106.909 96.8897 106.952C96.8577 106.984 96.815 107 96.7617 107H95.2897C95.2364 107 95.1884 106.984 95.1457 106.952C95.1137 106.909 95.0977 106.861 95.0977 106.808V95.992C95.0977 95.9387 95.1137 95.896 95.1457 95.864C95.1884 95.8213 95.2364 95.8 95.2897 95.8H99.6897C100.34 95.8 100.916 95.9387 101.418 96.216C101.919 96.4827 102.308 96.8667 102.586 97.368C102.863 97.8587 103.002 98.424 103.002 99.064C103.002 99.8 102.81 100.429 102.426 100.952C102.052 101.464 101.53 101.821 100.858 102.024C100.836 102.024 100.82 102.035 100.81 102.056C100.799 102.077 100.799 102.099 100.81 102.12L103.066 106.776C103.087 106.819 103.098 106.851 103.098 106.872C103.098 106.957 103.039 107 102.922 107H101.386ZM97.0337 97.4C96.9804 97.4 96.9537 97.4267 96.9537 97.48V100.664C96.9537 100.717 96.9804 100.744 97.0337 100.744H99.4337C99.9457 100.744 100.356 100.595 100.666 100.296C100.986 99.9867 101.146 99.5813 101.146 99.08C101.146 98.5787 100.986 98.1733 100.666 97.864C100.356 97.5547 99.9457 97.4 99.4337 97.4H97.0337Z" fill="#252530"/>
<path d="M54.8771 134.079C54.8464 134.11 54.8387 134.14 54.8541 134.171C54.8694 134.202 54.9001 134.217 54.9461 134.217H61.1791C61.2557 134.217 61.3171 134.248 61.3631 134.309C61.4244 134.355 61.4551 134.416 61.4551 134.493V136.724C61.4551 136.801 61.4244 136.87 61.3631 136.931C61.3171 136.977 61.2557 137 61.1791 137H50.8291C50.7524 137 50.6834 136.977 50.6221 136.931C50.5761 136.87 50.5531 136.801 50.5531 136.724V134.608C50.5531 134.47 50.5991 134.355 50.6911 134.263C51.4424 133.527 52.2091 132.73 52.9911 131.871C53.7731 130.997 54.2637 130.453 54.4631 130.238C54.8924 129.732 55.3294 129.249 55.7741 128.789C57.1694 127.24 57.8671 126.09 57.8671 125.339C57.8671 124.802 57.6754 124.365 57.2921 124.028C56.9087 123.675 56.4104 123.499 55.7971 123.499C55.1837 123.499 54.6854 123.675 54.3021 124.028C53.9187 124.365 53.7271 124.818 53.7271 125.385V125.96C53.7271 126.037 53.6964 126.106 53.6351 126.167C53.5891 126.213 53.5277 126.236 53.4511 126.236H50.7371C50.6604 126.236 50.5914 126.213 50.5301 126.167C50.4841 126.106 50.4611 126.037 50.4611 125.96V124.879C50.5071 124.051 50.7677 123.323 51.2431 122.694C51.7184 122.05 52.3471 121.559 53.1291 121.222C53.9264 120.885 54.8157 120.716 55.7971 120.716C56.8857 120.716 57.8287 120.923 58.6261 121.337C59.4387 121.736 60.0597 122.28 60.4891 122.97C60.9337 123.66 61.1561 124.427 61.1561 125.27C61.1561 125.914 60.9951 126.573 60.6731 127.248C60.3511 127.923 59.8681 128.651 59.2241 129.433C58.7487 130.031 58.2351 130.621 57.6831 131.204C57.1311 131.787 56.3107 132.63 55.2221 133.734L54.8771 134.079ZM68.9202 137.253C67.2335 137.253 65.8995 136.785 64.9182 135.85C63.9369 134.899 63.4462 133.611 63.4462 131.986V125.914C63.4462 124.319 63.9369 123.054 64.9182 122.119C65.8995 121.184 67.2335 120.716 68.9202 120.716C70.6069 120.716 71.9409 121.184 72.9222 122.119C73.9189 123.054 74.4172 124.319 74.4172 125.914V131.986C74.4172 133.611 73.9189 134.899 72.9222 135.85C71.9409 136.785 70.6069 137.253 68.9202 137.253ZM68.9202 134.47C69.6102 134.47 70.1545 134.263 70.5532 133.849C70.9672 133.42 71.1742 132.852 71.1742 132.147V125.822C71.1742 125.117 70.9672 124.557 70.5532 124.143C70.1545 123.714 69.6102 123.499 68.9202 123.499C68.2455 123.499 67.7012 123.714 67.2872 124.143C66.8885 124.557 66.6892 125.117 66.6892 125.822V132.147C66.6892 132.852 66.8885 133.42 67.2872 133.849C67.7012 134.263 68.2455 134.47 68.9202 134.47ZM80.8644 134.079C80.8337 134.11 80.826 134.14 80.8414 134.171C80.8567 134.202 80.8874 134.217 80.9334 134.217H87.1664C87.243 134.217 87.3044 134.248 87.3504 134.309C87.4117 134.355 87.4424 134.416 87.4424 134.493V136.724C87.4424 136.801 87.4117 136.87 87.3504 136.931C87.3044 136.977 87.243 137 87.1664 137H76.8164C76.7397 137 76.6707 136.977 76.6094 136.931C76.5634 136.87 76.5404 136.801 76.5404 136.724V134.608C76.5404 134.47 76.5864 134.355 76.6784 134.263C77.4297 133.527 78.1964 132.73 78.9784 131.871C79.7604 130.997 80.251 130.453 80.4504 130.238C80.8797 129.732 81.3167 129.249 81.7614 128.789C83.1567 127.24 83.8544 126.09 83.8544 125.339C83.8544 124.802 83.6627 124.365 83.2794 124.028C82.896 123.675 82.3977 123.499 81.7844 123.499C81.171 123.499 80.6727 123.675 80.2894 124.028C79.906 124.365 79.7144 124.818 79.7144 125.385V125.96C79.7144 126.037 79.6837 126.106 79.6224 126.167C79.5764 126.213 79.515 126.236 79.4384 126.236H76.7244C76.6477 126.236 76.5787 126.213 76.5174 126.167C76.4714 126.106 76.4484 126.037 76.4484 125.96V124.879C76.4944 124.051 76.755 123.323 77.2304 122.694C77.7057 122.05 78.3344 121.559 79.1164 121.222C79.9137 120.885 80.803 120.716 81.7844 120.716C82.873 120.716 83.816 120.923 84.6134 121.337C85.426 121.736 86.047 122.28 86.4764 122.97C86.921 123.66 87.1434 124.427 87.1434 125.27C87.1434 125.914 86.9824 126.573 86.6604 127.248C86.3384 127.923 85.8554 128.651 85.2114 129.433C84.736 130.031 84.2224 130.621 83.6704 131.204C83.1184 131.787 82.298 132.63 81.2094 133.734L80.8644 134.079ZM99.032 129.318C99.3387 130.023 99.492 130.836 99.492 131.756C99.492 132.584 99.354 133.351 99.078 134.056C98.71 135.037 98.089 135.804 97.215 136.356C96.3564 136.908 95.3367 137.184 94.156 137.184C92.9907 137.184 91.9634 136.893 91.074 136.31C90.2 135.727 89.5714 134.938 89.188 133.941C88.9734 133.343 88.8507 132.699 88.82 132.009C88.82 131.825 88.912 131.733 89.096 131.733H91.81C91.994 131.733 92.086 131.825 92.086 132.009C92.1474 132.515 92.2317 132.891 92.339 133.136C92.477 133.535 92.6994 133.849 93.006 134.079C93.328 134.294 93.7037 134.401 94.133 134.401C94.9917 134.401 95.582 134.025 95.904 133.274C96.1187 132.814 96.226 132.277 96.226 131.664C96.226 130.943 96.111 130.353 95.881 129.893C95.5284 129.172 94.938 128.812 94.11 128.812C93.9414 128.812 93.765 128.866 93.581 128.973C93.397 129.065 93.1747 129.203 92.914 129.387C92.8527 129.433 92.7914 129.456 92.73 129.456C92.638 129.456 92.569 129.41 92.523 129.318L91.166 127.409C91.1354 127.363 91.12 127.309 91.12 127.248C91.12 127.156 91.1507 127.079 91.212 127.018L94.869 123.821C94.8997 123.79 94.9074 123.76 94.892 123.729C94.892 123.698 94.869 123.683 94.823 123.683H89.418C89.3414 123.683 89.2724 123.66 89.211 123.614C89.165 123.553 89.142 123.484 89.142 123.407V121.176C89.142 121.099 89.165 121.038 89.211 120.992C89.2724 120.931 89.3414 120.9 89.418 120.9H99.009C99.0857 120.9 99.147 120.931 99.193 120.992C99.2544 121.038 99.285 121.099 99.285 121.176V123.706C99.285 123.829 99.2314 123.944 99.124 124.051L96.111 126.811C96.0804 126.842 96.065 126.872 96.065 126.903C96.0804 126.934 96.1187 126.949 96.18 126.949C97.514 127.21 98.4647 127.999 99.032 129.318Z" fill="#252530"/>
</g>
<defs>
<clipPath id="clip0_15_171">
<rect width="150" height="168" fill="white"/>
</clipPath>
</defs>
</svg>
