<svg width="150" height="168" viewBox="0 0 150 168" fill="none" xmlns="http://www.w3.org/2000/svg">
<g clip-path="url(#clip0_15_559)">
<path d="M10 132.9V2H139V132.9L74.45 165.76L10 132.9Z" fill="white"/>
<path d="M137 4V131.67L74.45 163.51L12 131.67V4H137ZM141 0H8V134.12L74.45 168L141 134.12V0Z" fill="#DCDEDC"/>
<path d="M12.22 131.78L74.43 163.5L137 131.7V4.68005L12.22 131.78Z" fill="#F2F3F2"/>
<path d="M144.98 90H5.16966L0 101L5.16966 112H144.99L150 101L144.98 90Z" fill="#2690CE"/>
<path d="M75.0778 6.12022C75.7101 6.12022 76.3327 6.12022 76.965 6.27565L75.0778 9.87978C72.2471 9.72435 69.7374 11.9199 69.5817 14.7468C69.4261 17.5738 71.6245 20.0801 74.4553 20.2356H75.0875C76.3424 20.2356 77.5973 19.7693 78.5409 18.9824L80.5837 22.4311C79.0175 23.5288 77.1303 24.1603 75.0875 24.1603C70.0584 24.3157 65.8171 20.5562 65.6615 15.5337C65.5058 10.5112 69.2704 6.27565 74.2996 6.12022H75.0875H75.0778ZM81.5175 13.8045L83.8716 17.7292L81.5175 21.4985L79.3191 17.7292H74.7665L77.1206 13.8045H81.5175ZM77.7432 12.3959C77.7432 11.7644 77.8988 11.1427 78.2101 10.6667C78.5214 10.1906 79.1537 9.72435 79.6206 9.41348L79.9319 9.25805C80.5642 8.94718 80.7198 8.79174 80.7198 8.47116C80.7198 8.15058 80.2529 7.83971 79.9319 7.83971C79.2996 7.83971 78.8327 8.15058 78.5214 8.78203L77.7335 7.99514C77.8891 7.68427 78.2004 7.36369 78.5214 7.05282C78.9883 6.74196 79.465 6.74196 79.9319 6.74196C80.3988 6.74196 81.0311 6.89739 81.3424 7.20826C81.6537 7.51913 81.9747 7.99514 81.9747 8.46145C81.9747 9.24833 81.5078 9.87007 80.5642 10.1906L80.0973 10.5015C79.6303 10.8124 79.3093 10.9678 79.1537 11.4438H81.9844V12.5416L77.7432 12.3862V12.3959ZM75.0778 32L90 23.5288V0H60V23.3734L75.0778 32Z" fill="#FF492C"/>
<path d="M65.2319 53.544C65.2919 53.448 65.3759 53.4 65.4839 53.4H67.5899C67.6499 53.4 67.6979 53.424 67.7339 53.472C67.7819 53.508 67.8059 53.556 67.8059 53.616V65.784C67.8059 65.844 67.7819 65.898 67.7339 65.946C67.6979 65.982 67.6499 66 67.5899 66H65.4839C65.4239 66 65.3699 65.982 65.3219 65.946C65.2859 65.898 65.2679 65.844 65.2679 65.784V57.846C65.2679 57.798 65.2559 57.774 65.2319 57.774C65.2079 57.774 65.1839 57.792 65.1599 57.828L63.2519 60.816C63.1919 60.912 63.1079 60.96 62.9999 60.96H61.9379C61.8299 60.96 61.7459 60.912 61.6859 60.816L59.7779 57.828C59.7539 57.792 59.7299 57.78 59.7059 57.792C59.6819 57.792 59.6699 57.816 59.6699 57.864V65.784C59.6699 65.844 59.6459 65.898 59.5979 65.946C59.5619 65.982 59.5139 66 59.4539 66H57.3479C57.2879 66 57.2339 65.982 57.1859 65.946C57.1499 65.898 57.1319 65.844 57.1319 65.784V53.616C57.1319 53.556 57.1499 53.508 57.1859 53.472C57.2339 53.424 57.2879 53.4 57.3479 53.4H59.4539C59.5619 53.4 59.6459 53.448 59.7059 53.544L62.4059 57.738C62.4419 57.81 62.4779 57.81 62.5139 57.738L65.2319 53.544ZM73.6531 66.144C72.6451 66.144 71.7811 65.88 71.0611 65.352C70.3411 64.824 69.8491 64.104 69.5851 63.192C69.4171 62.628 69.3331 62.016 69.3331 61.356C69.3331 60.648 69.4171 60.012 69.5851 59.448C69.8611 58.56 70.3591 57.864 71.0791 57.36C71.7991 56.856 72.6631 56.604 73.6711 56.604C74.6551 56.604 75.4951 56.856 76.1911 57.36C76.8871 57.852 77.3791 58.542 77.6671 59.43C77.8591 60.03 77.9551 60.66 77.9551 61.32C77.9551 61.968 77.8711 62.574 77.7031 63.138C77.4391 64.074 76.9471 64.812 76.2271 65.352C75.5191 65.88 74.6611 66.144 73.6531 66.144ZM73.6531 63.966C74.0491 63.966 74.3851 63.846 74.6611 63.606C74.9371 63.366 75.1351 63.036 75.2551 62.616C75.3511 62.232 75.3991 61.812 75.3991 61.356C75.3991 60.852 75.3511 60.426 75.2551 60.078C75.1231 59.67 74.9191 59.352 74.6431 59.124C74.3671 58.896 74.0311 58.782 73.6351 58.782C73.2271 58.782 72.8851 58.896 72.6091 59.124C72.3451 59.352 72.1531 59.67 72.0331 60.078C71.9371 60.366 71.8891 60.792 71.8891 61.356C71.8891 61.896 71.9311 62.316 72.0151 62.616C72.1351 63.036 72.3331 63.366 72.6091 63.606C72.8971 63.846 73.2451 63.966 73.6531 63.966ZM83.0066 66.126C82.2026 66.126 81.5006 66.012 80.9006 65.784C80.3006 65.556 79.8326 65.238 79.4966 64.83C79.1726 64.422 79.0106 63.96 79.0106 63.444V63.264C79.0106 63.204 79.0286 63.156 79.0646 63.12C79.1126 63.072 79.1666 63.048 79.2266 63.048H81.2246C81.2846 63.048 81.3326 63.072 81.3686 63.12C81.4166 63.156 81.4406 63.204 81.4406 63.264V63.282C81.4406 63.546 81.5846 63.774 81.8726 63.966C82.1726 64.146 82.5446 64.236 82.9886 64.236C83.3966 64.236 83.7266 64.158 83.9786 64.002C84.2306 63.834 84.3566 63.63 84.3566 63.39C84.3566 63.174 84.2486 63.012 84.0326 62.904C83.8166 62.796 83.4626 62.682 82.9706 62.562C82.4066 62.418 81.9626 62.28 81.6386 62.148C80.8706 61.884 80.2586 61.56 79.8026 61.176C79.3466 60.792 79.1186 60.24 79.1186 59.52C79.1186 58.632 79.4606 57.93 80.1446 57.414C80.8406 56.886 81.7586 56.622 82.8986 56.622C83.6666 56.622 84.3386 56.748 84.9146 57C85.4906 57.24 85.9346 57.582 86.2466 58.026C86.5706 58.47 86.7326 58.974 86.7326 59.538C86.7326 59.598 86.7086 59.652 86.6606 59.7C86.6246 59.736 86.5766 59.754 86.5166 59.754H84.5906C84.5306 59.754 84.4766 59.736 84.4286 59.7C84.3926 59.652 84.3746 59.598 84.3746 59.538C84.3746 59.274 84.2366 59.052 83.9606 58.872C83.6966 58.692 83.3426 58.602 82.8986 58.602C82.5026 58.602 82.1786 58.674 81.9266 58.818C81.6746 58.962 81.5486 59.16 81.5486 59.412C81.5486 59.652 81.6686 59.832 81.9086 59.952C82.1606 60.072 82.5746 60.198 83.1506 60.33C83.2826 60.366 83.4326 60.408 83.6006 60.456C83.7686 60.492 83.9486 60.54 84.1406 60.6C84.9926 60.852 85.6646 61.176 86.1566 61.572C86.6486 61.968 86.8946 62.544 86.8946 63.3C86.8946 64.188 86.5406 64.884 85.8326 65.388C85.1366 65.88 84.1946 66.126 83.0066 66.126ZM93.3742 58.566C93.3742 58.626 93.3502 58.68 93.3022 58.728C93.2662 58.764 93.2182 58.782 93.1582 58.782H91.4302C91.3702 58.782 91.3402 58.812 91.3402 58.872V62.688C91.3402 63.084 91.4182 63.378 91.5742 63.57C91.7422 63.762 92.0062 63.858 92.3662 63.858H92.9602C93.0202 63.858 93.0682 63.882 93.1042 63.93C93.1522 63.966 93.1762 64.014 93.1762 64.074V65.784C93.1762 65.916 93.1042 65.994 92.9602 66.018C92.4562 66.042 92.0962 66.054 91.8802 66.054C90.8842 66.054 90.1402 65.892 89.6482 65.568C89.1562 65.232 88.9042 64.608 88.8922 63.696V58.872C88.8922 58.812 88.8622 58.782 88.8022 58.782H87.7762C87.7162 58.782 87.6622 58.764 87.6142 58.728C87.5782 58.68 87.5602 58.626 87.5602 58.566V56.964C87.5602 56.904 87.5782 56.856 87.6142 56.82C87.6622 56.772 87.7162 56.748 87.7762 56.748H88.8022C88.8622 56.748 88.8922 56.718 88.8922 56.658V54.516C88.8922 54.456 88.9102 54.408 88.9462 54.372C88.9942 54.324 89.0482 54.3 89.1082 54.3H91.1242C91.1842 54.3 91.2322 54.324 91.2682 54.372C91.3162 54.408 91.3402 54.456 91.3402 54.516V56.658C91.3402 56.718 91.3702 56.748 91.4302 56.748H93.1582C93.2182 56.748 93.2662 56.772 93.3022 56.82C93.3502 56.856 93.3742 56.904 93.3742 56.964V58.566ZM18.1244 83C18.0644 83 18.0104 82.982 17.9624 82.946C17.9264 82.898 17.9084 82.844 17.9084 82.784V70.616C17.9084 70.556 17.9264 70.508 17.9624 70.472C18.0104 70.424 18.0644 70.4 18.1244 70.4H20.2304C20.2904 70.4 20.3384 70.424 20.3744 70.472C20.4224 70.508 20.4464 70.556 20.4464 70.616V82.784C20.4464 82.844 20.4224 82.898 20.3744 82.946C20.3384 82.982 20.2904 83 20.2304 83H18.1244ZM32.4649 73.604C33.4009 73.604 34.1329 73.886 34.6609 74.45C35.1889 75.014 35.4529 75.806 35.4529 76.826V82.784C35.4529 82.844 35.4289 82.898 35.3809 82.946C35.3449 82.982 35.2969 83 35.2369 83H33.1309C33.0709 83 33.0169 82.982 32.9689 82.946C32.9329 82.898 32.9149 82.844 32.9149 82.784V77.384C32.9149 76.892 32.7889 76.502 32.5369 76.214C32.2849 75.926 31.9489 75.782 31.5289 75.782C31.1089 75.782 30.7669 75.926 30.5029 76.214C30.2389 76.502 30.1069 76.886 30.1069 77.366V82.784C30.1069 82.844 30.0829 82.898 30.0349 82.946C29.9989 82.982 29.9509 83 29.8909 83H27.8029C27.7429 83 27.6889 82.982 27.6409 82.946C27.6049 82.898 27.5869 82.844 27.5869 82.784V77.384C27.5869 76.904 27.4549 76.52 27.1909 76.232C26.9269 75.932 26.5849 75.782 26.1649 75.782C25.7809 75.782 25.4569 75.896 25.1929 76.124C24.9409 76.352 24.7909 76.67 24.7429 77.078V82.784C24.7429 82.844 24.7189 82.898 24.6709 82.946C24.6349 82.982 24.5869 83 24.5269 83H22.4209C22.3609 83 22.3069 82.982 22.2589 82.946C22.2229 82.898 22.2049 82.844 22.2049 82.784V73.964C22.2049 73.904 22.2229 73.856 22.2589 73.82C22.3069 73.772 22.3609 73.748 22.4209 73.748H24.5269C24.5869 73.748 24.6349 73.772 24.6709 73.82C24.7189 73.856 24.7429 73.904 24.7429 73.964V74.666C24.7429 74.702 24.7549 74.726 24.7789 74.738C24.8029 74.75 24.8269 74.738 24.8509 74.702C25.3429 73.97 26.1049 73.604 27.1369 73.604C27.7369 73.604 28.2589 73.73 28.7029 73.982C29.1589 74.234 29.5069 74.594 29.7469 75.062C29.7829 75.134 29.8249 75.134 29.8729 75.062C30.1369 74.57 30.4909 74.204 30.9349 73.964C31.3909 73.724 31.9009 73.604 32.4649 73.604ZM45.2262 76.232C45.4422 76.844 45.5502 77.564 45.5502 78.392C45.5502 79.22 45.4362 79.97 45.2082 80.642C44.9322 81.41 44.4942 82.022 43.8942 82.478C43.3062 82.922 42.5742 83.144 41.6982 83.144C40.8342 83.144 40.1622 82.844 39.6822 82.244C39.6582 82.208 39.6342 82.196 39.6102 82.208C39.5862 82.22 39.5742 82.244 39.5742 82.28V86.132C39.5742 86.192 39.5502 86.24 39.5022 86.276C39.4662 86.324 39.4182 86.348 39.3582 86.348H37.2522C37.1922 86.348 37.1382 86.324 37.0902 86.276C37.0542 86.24 37.0362 86.192 37.0362 86.132V73.964C37.0362 73.904 37.0542 73.856 37.0902 73.82C37.1382 73.772 37.1922 73.748 37.2522 73.748H39.3582C39.4182 73.748 39.4662 73.772 39.5022 73.82C39.5502 73.856 39.5742 73.904 39.5742 73.964V74.558C39.5742 74.594 39.5862 74.618 39.6102 74.63C39.6342 74.63 39.6582 74.618 39.6822 74.594C40.1862 73.934 40.8822 73.604 41.7702 73.604C42.5982 73.604 43.3122 73.838 43.9122 74.306C44.5242 74.762 44.9622 75.404 45.2262 76.232ZM42.4722 80.264C42.7722 79.796 42.9222 79.16 42.9222 78.356C42.9222 77.6 42.7962 77 42.5442 76.556C42.2682 76.04 41.8242 75.782 41.2122 75.782C40.6602 75.782 40.2462 76.04 39.9702 76.556C39.7182 76.988 39.5922 77.594 39.5922 78.374C39.5922 79.178 39.7242 79.802 39.9882 80.246C40.2642 80.726 40.6722 80.966 41.2122 80.966C41.7522 80.966 42.1722 80.732 42.4722 80.264ZM47.1407 83C47.0807 83 47.0267 82.982 46.9787 82.946C46.9427 82.898 46.9247 82.844 46.9247 82.784V70.616C46.9247 70.556 46.9427 70.508 46.9787 70.472C47.0267 70.424 47.0807 70.4 47.1407 70.4H49.2467C49.3067 70.4 49.3547 70.424 49.3907 70.472C49.4387 70.508 49.4627 70.556 49.4627 70.616V82.784C49.4627 82.844 49.4387 82.898 49.3907 82.946C49.3547 82.982 49.3067 83 49.2467 83H47.1407ZM59.2392 77.42C59.3112 77.876 59.3352 78.386 59.3112 78.95C59.2992 79.094 59.2212 79.166 59.0772 79.166H53.5152C53.4432 79.166 53.4192 79.196 53.4432 79.256C53.4792 79.496 53.5452 79.736 53.6412 79.976C53.9532 80.648 54.5892 80.984 55.5492 80.984C56.3172 80.972 56.9232 80.66 57.3672 80.048C57.4152 79.976 57.4692 79.94 57.5292 79.94C57.5652 79.94 57.6072 79.964 57.6552 80.012L58.9512 81.29C59.0112 81.35 59.0412 81.404 59.0412 81.452C59.0412 81.476 59.0172 81.524 58.9692 81.596C58.5732 82.088 58.0632 82.472 57.4392 82.748C56.8152 83.012 56.1312 83.144 55.3872 83.144C54.3552 83.144 53.4792 82.91 52.7592 82.442C52.0512 81.974 51.5412 81.32 51.2292 80.48C50.9772 79.88 50.8512 79.094 50.8512 78.122C50.8512 77.462 50.9412 76.88 51.1212 76.376C51.3972 75.524 51.8772 74.846 52.5612 74.342C53.2572 73.838 54.0792 73.586 55.0272 73.586C56.2272 73.586 57.1872 73.934 57.9072 74.63C58.6392 75.326 59.0832 76.256 59.2392 77.42ZM55.0452 75.782C54.2892 75.782 53.7912 76.136 53.5512 76.844C53.5032 77 53.4612 77.192 53.4252 77.42C53.4252 77.48 53.4552 77.51 53.5152 77.51H56.6292C56.7012 77.51 56.7252 77.48 56.7012 77.42C56.6412 77.072 56.6112 76.904 56.6112 76.916C56.5032 76.556 56.3112 76.28 56.0352 76.088C55.7712 75.884 55.4412 75.782 55.0452 75.782ZM70.8654 73.604C71.8014 73.604 72.5334 73.886 73.0614 74.45C73.5894 75.014 73.8534 75.806 73.8534 76.826V82.784C73.8534 82.844 73.8294 82.898 73.7814 82.946C73.7454 82.982 73.6974 83 73.6374 83H71.5314C71.4714 83 71.4174 82.982 71.3694 82.946C71.3334 82.898 71.3154 82.844 71.3154 82.784V77.384C71.3154 76.892 71.1894 76.502 70.9374 76.214C70.6854 75.926 70.3494 75.782 69.9294 75.782C69.5094 75.782 69.1674 75.926 68.9034 76.214C68.6394 76.502 68.5074 76.886 68.5074 77.366V82.784C68.5074 82.844 68.4834 82.898 68.4354 82.946C68.3994 82.982 68.3514 83 68.2914 83H66.2034C66.1434 83 66.0894 82.982 66.0414 82.946C66.0054 82.898 65.9874 82.844 65.9874 82.784V77.384C65.9874 76.904 65.8554 76.52 65.5914 76.232C65.3274 75.932 64.9854 75.782 64.5654 75.782C64.1814 75.782 63.8574 75.896 63.5934 76.124C63.3414 76.352 63.1914 76.67 63.1434 77.078V82.784C63.1434 82.844 63.1194 82.898 63.0714 82.946C63.0354 82.982 62.9874 83 62.9274 83H60.8214C60.7614 83 60.7074 82.982 60.6594 82.946C60.6234 82.898 60.6054 82.844 60.6054 82.784V73.964C60.6054 73.904 60.6234 73.856 60.6594 73.82C60.7074 73.772 60.7614 73.748 60.8214 73.748H62.9274C62.9874 73.748 63.0354 73.772 63.0714 73.82C63.1194 73.856 63.1434 73.904 63.1434 73.964V74.666C63.1434 74.702 63.1554 74.726 63.1794 74.738C63.2034 74.75 63.2274 74.738 63.2514 74.702C63.7434 73.97 64.5054 73.604 65.5374 73.604C66.1374 73.604 66.6594 73.73 67.1034 73.982C67.5594 74.234 67.9074 74.594 68.1474 75.062C68.1834 75.134 68.2254 75.134 68.2734 75.062C68.5374 74.57 68.8914 74.204 69.3354 73.964C69.7914 73.724 70.3014 73.604 70.8654 73.604ZM83.502 77.42C83.574 77.876 83.598 78.386 83.574 78.95C83.562 79.094 83.484 79.166 83.34 79.166H77.778C77.706 79.166 77.682 79.196 77.706 79.256C77.742 79.496 77.808 79.736 77.904 79.976C78.216 80.648 78.852 80.984 79.812 80.984C80.58 80.972 81.186 80.66 81.63 80.048C81.678 79.976 81.732 79.94 81.792 79.94C81.828 79.94 81.87 79.964 81.918 80.012L83.214 81.29C83.274 81.35 83.304 81.404 83.304 81.452C83.304 81.476 83.28 81.524 83.232 81.596C82.836 82.088 82.326 82.472 81.702 82.748C81.078 83.012 80.394 83.144 79.65 83.144C78.618 83.144 77.742 82.91 77.022 82.442C76.314 81.974 75.804 81.32 75.492 80.48C75.24 79.88 75.114 79.094 75.114 78.122C75.114 77.462 75.204 76.88 75.384 76.376C75.66 75.524 76.14 74.846 76.824 74.342C77.52 73.838 78.342 73.586 79.29 73.586C80.49 73.586 81.45 73.934 82.17 74.63C82.902 75.326 83.346 76.256 83.502 77.42ZM79.308 75.782C78.552 75.782 78.054 76.136 77.814 76.844C77.766 77 77.724 77.192 77.688 77.42C77.688 77.48 77.718 77.51 77.778 77.51H80.892C80.964 77.51 80.988 77.48 80.964 77.42C80.904 77.072 80.874 76.904 80.874 76.916C80.766 76.556 80.574 76.28 80.298 76.088C80.034 75.884 79.704 75.782 79.308 75.782ZM89.6921 73.604C90.6521 73.604 91.4261 73.898 92.0141 74.486C92.6021 75.074 92.8961 75.872 92.8961 76.88V82.784C92.8961 82.844 92.8721 82.898 92.8241 82.946C92.7881 82.982 92.7401 83 92.6801 83H90.5741C90.5141 83 90.4601 82.982 90.4121 82.946C90.3761 82.898 90.3581 82.844 90.3581 82.784V77.402C90.3581 76.922 90.2201 76.532 89.9441 76.232C89.6801 75.932 89.3261 75.782 88.8821 75.782C88.4381 75.782 88.0781 75.932 87.8021 76.232C87.5381 76.532 87.4061 76.922 87.4061 77.402V82.784C87.4061 82.844 87.3821 82.898 87.3341 82.946C87.2981 82.982 87.2501 83 87.1901 83H85.0841C85.0241 83 84.9701 82.982 84.9221 82.946C84.8861 82.898 84.8681 82.844 84.8681 82.784V73.964C84.8681 73.904 84.8861 73.856 84.9221 73.82C84.9701 73.772 85.0241 73.748 85.0841 73.748H87.1901C87.2501 73.748 87.2981 73.772 87.3341 73.82C87.3821 73.856 87.4061 73.904 87.4061 73.964V74.594C87.4061 74.63 87.4181 74.654 87.4421 74.666C87.4661 74.678 87.4841 74.672 87.4961 74.648C87.9881 73.952 88.7201 73.604 89.6921 73.604ZM99.7519 75.566C99.7519 75.626 99.7279 75.68 99.6799 75.728C99.6439 75.764 99.5959 75.782 99.5359 75.782H97.8079C97.7479 75.782 97.7179 75.812 97.7179 75.872V79.688C97.7179 80.084 97.7959 80.378 97.9519 80.57C98.1199 80.762 98.3839 80.858 98.7439 80.858H99.3379C99.3979 80.858 99.4459 80.882 99.4819 80.93C99.5299 80.966 99.5539 81.014 99.5539 81.074V82.784C99.5539 82.916 99.4819 82.994 99.3379 83.018C98.8339 83.042 98.4739 83.054 98.2579 83.054C97.2619 83.054 96.5179 82.892 96.0259 82.568C95.5339 82.232 95.2819 81.608 95.2699 80.696V75.872C95.2699 75.812 95.2399 75.782 95.1799 75.782H94.1539C94.0939 75.782 94.0399 75.764 93.9919 75.728C93.9559 75.68 93.9379 75.626 93.9379 75.566V73.964C93.9379 73.904 93.9559 73.856 93.9919 73.82C94.0399 73.772 94.0939 73.748 94.1539 73.748H95.1799C95.2399 73.748 95.2699 73.718 95.2699 73.658V71.516C95.2699 71.456 95.2879 71.408 95.3239 71.372C95.3719 71.324 95.4259 71.3 95.4859 71.3H97.5019C97.5619 71.3 97.6099 71.324 97.6459 71.372C97.6939 71.408 97.7179 71.456 97.7179 71.516V73.658C97.7179 73.718 97.7479 73.748 97.8079 73.748H99.5359C99.5959 73.748 99.6439 73.772 99.6799 73.82C99.7279 73.856 99.7519 73.904 99.7519 73.964V75.566ZM104.7 73.604C105.48 73.604 106.176 73.742 106.788 74.018C107.4 74.282 107.874 74.648 108.21 75.116C108.558 75.584 108.732 76.106 108.732 76.682V82.784C108.732 82.844 108.708 82.898 108.66 82.946C108.624 82.982 108.576 83 108.516 83H106.41C106.35 83 106.296 82.982 106.248 82.946C106.212 82.898 106.194 82.844 106.194 82.784V82.19C106.194 82.154 106.182 82.13 106.158 82.118C106.134 82.106 106.11 82.118 106.086 82.154C105.582 82.814 104.772 83.144 103.656 83.144C102.72 83.144 101.964 82.916 101.388 82.46C100.812 82.004 100.524 81.332 100.524 80.444C100.524 79.52 100.848 78.806 101.496 78.302C102.144 77.786 103.068 77.528 104.268 77.528H106.104C106.164 77.528 106.194 77.498 106.194 77.438V77.042C106.194 76.646 106.074 76.34 105.834 76.124C105.594 75.896 105.234 75.782 104.754 75.782C104.382 75.782 104.07 75.848 103.818 75.98C103.578 76.112 103.422 76.298 103.35 76.538C103.314 76.67 103.236 76.73 103.116 76.718L100.938 76.43C100.794 76.406 100.728 76.352 100.74 76.268C100.788 75.764 100.986 75.308 101.334 74.9C101.694 74.492 102.162 74.174 102.738 73.946C103.326 73.718 103.98 73.604 104.7 73.604ZM104.34 81.254C104.856 81.254 105.294 81.116 105.654 80.84C106.014 80.564 106.194 80.21 106.194 79.778V79.13C106.194 79.07 106.164 79.04 106.104 79.04H104.808C104.268 79.04 103.842 79.142 103.53 79.346C103.23 79.55 103.08 79.838 103.08 80.21C103.08 80.534 103.194 80.792 103.422 80.984C103.65 81.164 103.956 81.254 104.34 81.254ZM118.44 76.106C118.668 76.73 118.782 77.474 118.782 78.338C118.782 79.166 118.68 79.892 118.476 80.516C118.2 81.332 117.756 81.974 117.144 82.442C116.544 82.91 115.83 83.144 115.002 83.144C114.126 83.144 113.436 82.814 112.932 82.154C112.908 82.13 112.884 82.124 112.86 82.136C112.836 82.136 112.824 82.154 112.824 82.19V82.784C112.824 82.844 112.8 82.898 112.752 82.946C112.716 82.982 112.668 83 112.608 83H110.502C110.442 83 110.388 82.982 110.34 82.946C110.304 82.898 110.286 82.844 110.286 82.784V70.616C110.286 70.556 110.304 70.508 110.34 70.472C110.388 70.424 110.442 70.4 110.502 70.4H112.608C112.668 70.4 112.716 70.424 112.752 70.472C112.8 70.508 112.824 70.556 112.824 70.616V74.468C112.824 74.504 112.836 74.528 112.86 74.54C112.884 74.552 112.908 74.54 112.932 74.504C113.4 73.904 114.066 73.604 114.93 73.604C115.806 73.604 116.538 73.832 117.126 74.288C117.726 74.732 118.164 75.338 118.44 76.106ZM115.776 80.192C116.028 79.736 116.154 79.136 116.154 78.392C116.154 77.564 116.01 76.928 115.722 76.484C115.434 76.016 115.008 75.782 114.444 75.782C113.916 75.782 113.514 76.016 113.238 76.484C112.974 76.94 112.842 77.57 112.842 78.374C112.842 79.178 112.962 79.784 113.202 80.192C113.49 80.708 113.91 80.966 114.462 80.966C115.05 80.966 115.488 80.708 115.776 80.192ZM120.391 83C120.331 83 120.277 82.982 120.229 82.946C120.193 82.898 120.175 82.844 120.175 82.784V70.616C120.175 70.556 120.193 70.508 120.229 70.472C120.277 70.424 120.331 70.4 120.391 70.4H122.497C122.557 70.4 122.605 70.424 122.641 70.472C122.689 70.508 122.713 70.556 122.713 70.616V82.784C122.713 82.844 122.689 82.898 122.641 82.946C122.605 82.982 122.557 83 122.497 83H120.391ZM132.489 77.42C132.561 77.876 132.585 78.386 132.561 78.95C132.549 79.094 132.471 79.166 132.327 79.166H126.765C126.693 79.166 126.669 79.196 126.693 79.256C126.729 79.496 126.795 79.736 126.891 79.976C127.203 80.648 127.839 80.984 128.799 80.984C129.567 80.972 130.173 80.66 130.617 80.048C130.665 79.976 130.719 79.94 130.779 79.94C130.815 79.94 130.857 79.964 130.905 80.012L132.201 81.29C132.261 81.35 132.291 81.404 132.291 81.452C132.291 81.476 132.267 81.524 132.219 81.596C131.823 82.088 131.313 82.472 130.689 82.748C130.065 83.012 129.381 83.144 128.637 83.144C127.605 83.144 126.729 82.91 126.009 82.442C125.301 81.974 124.791 81.32 124.479 80.48C124.227 79.88 124.101 79.094 124.101 78.122C124.101 77.462 124.191 76.88 124.371 76.376C124.647 75.524 125.127 74.846 125.811 74.342C126.507 73.838 127.329 73.586 128.277 73.586C129.477 73.586 130.437 73.934 131.157 74.63C131.889 75.326 132.333 76.256 132.489 77.42ZM128.295 75.782C127.539 75.782 127.041 76.136 126.801 76.844C126.753 77 126.711 77.192 126.675 77.42C126.675 77.48 126.705 77.51 126.765 77.51H129.879C129.951 77.51 129.975 77.48 129.951 77.42C129.891 77.072 129.861 76.904 129.861 76.916C129.753 76.556 129.561 76.28 129.285 76.088C129.021 75.884 128.691 75.782 128.295 75.782Z" fill="#252530"/>
<path d="M44.7824 94.928C44.8358 94.8427 44.9104 94.8 45.0064 94.8H46.4784C46.5318 94.8 46.5744 94.8213 46.6064 94.864C46.6491 94.896 46.6704 94.9387 46.6704 94.992V105.808C46.6704 105.861 46.6491 105.909 46.6064 105.952C46.5744 105.984 46.5318 106 46.4784 106H45.0064C44.9531 106 44.9051 105.984 44.8624 105.952C44.8304 105.909 44.8144 105.861 44.8144 105.808V98.176C44.8144 98.144 44.7984 98.1227 44.7664 98.112C44.7451 98.1013 44.7291 98.112 44.7184 98.144L42.7184 101.216C42.6651 101.301 42.5904 101.344 42.4944 101.344H41.7584C41.6624 101.344 41.5878 101.301 41.5344 101.216L39.5184 98.16C39.5078 98.128 39.4864 98.1173 39.4544 98.128C39.4331 98.1387 39.4224 98.16 39.4224 98.192V105.808C39.4224 105.861 39.4011 105.909 39.3584 105.952C39.3264 105.984 39.2838 106 39.2304 106H37.7584C37.7051 106 37.6571 105.984 37.6144 105.952C37.5824 105.909 37.5664 105.861 37.5664 105.808V94.992C37.5664 94.9387 37.5824 94.896 37.6144 94.864C37.6571 94.8213 37.7051 94.8 37.7584 94.8H39.2304C39.3264 94.8 39.4011 94.8427 39.4544 94.928L42.0624 98.88C42.0838 98.9013 42.1051 98.912 42.1264 98.912C42.1478 98.912 42.1638 98.9013 42.1744 98.88L44.7824 94.928ZM49.3839 96.704C49.0533 96.704 48.7813 96.5973 48.5679 96.384C48.3546 96.1707 48.2479 95.8987 48.2479 95.568C48.2479 95.2373 48.3546 94.9653 48.5679 94.752C48.7813 94.5387 49.0533 94.432 49.3839 94.432C49.7146 94.432 49.9866 94.5387 50.1999 94.752C50.4133 94.9653 50.5199 95.2373 50.5199 95.568C50.5199 95.8987 50.4133 96.1707 50.1999 96.384C49.9866 96.5973 49.7146 96.704 49.3839 96.704ZM48.6159 106C48.5626 106 48.5146 105.984 48.4719 105.952C48.4399 105.909 48.4239 105.861 48.4239 105.808V98C48.4239 97.9467 48.4399 97.904 48.4719 97.872C48.5146 97.8293 48.5626 97.808 48.6159 97.808H50.0879C50.1413 97.808 50.1839 97.8293 50.2159 97.872C50.2586 97.904 50.2799 97.9467 50.2799 98V105.808C50.2799 105.861 50.2586 105.909 50.2159 105.952C50.1839 105.984 50.1413 106 50.0879 106H48.6159ZM56.9781 94.992C56.9781 94.9387 56.9941 94.896 57.0261 94.864C57.0687 94.8213 57.1167 94.8 57.1701 94.8H58.6421C58.6954 94.8 58.7381 94.8213 58.7701 94.864C58.8127 94.896 58.8341 94.9387 58.8341 94.992V105.808C58.8341 105.861 58.8127 105.909 58.7701 105.952C58.7381 105.984 58.6954 106 58.6421 106H57.1701C57.1167 106 57.0687 105.984 57.0261 105.952C56.9941 105.909 56.9781 105.861 56.9781 105.808V105.328C56.9781 105.296 56.9674 105.275 56.9461 105.264C56.9247 105.253 56.9034 105.264 56.8821 105.296C56.4127 105.851 55.7994 106.128 55.0421 106.128C54.2847 106.128 53.6447 105.931 53.1221 105.536C52.5994 105.141 52.2207 104.592 51.9861 103.888C51.7941 103.291 51.6981 102.624 51.6981 101.888C51.6981 101.131 51.7887 100.48 51.9701 99.936C52.2047 99.232 52.5834 98.6827 53.1061 98.288C53.6287 97.8933 54.2847 97.696 55.0741 97.696C55.8101 97.696 56.4127 97.9627 56.8821 98.496C56.9034 98.5173 56.9247 98.528 56.9461 98.528C56.9674 98.5173 56.9781 98.496 56.9781 98.464V94.992ZM56.5941 103.76C56.8394 103.323 56.9621 102.704 56.9621 101.904C56.9621 101.072 56.8287 100.437 56.5621 100C56.2741 99.5307 55.8687 99.296 55.3461 99.296C54.8021 99.296 54.3754 99.52 54.0661 99.968C53.7461 100.437 53.5861 101.088 53.5861 101.92C53.5861 102.667 53.7141 103.28 53.9701 103.76C54.2687 104.272 54.7221 104.528 55.3301 104.528C55.8741 104.528 56.2954 104.272 56.5941 103.76ZM62.7587 101.984C62.7054 101.984 62.6574 101.968 62.6147 101.936C62.5827 101.893 62.5667 101.845 62.5667 101.792V100.576C62.5667 100.523 62.5827 100.48 62.6147 100.448C62.6574 100.405 62.7054 100.384 62.7587 100.384H67.7987C67.852 100.384 67.8947 100.405 67.9267 100.448C67.9694 100.48 67.9907 100.523 67.9907 100.576V101.792C67.9907 101.845 67.9694 101.893 67.9267 101.936C67.8947 101.968 67.852 101.984 67.7987 101.984H62.7587ZM76.4074 94.928C76.4608 94.8427 76.5354 94.8 76.6314 94.8H78.1034C78.1568 94.8 78.1994 94.8213 78.2314 94.864C78.2741 94.896 78.2954 94.9387 78.2954 94.992V105.808C78.2954 105.861 78.2741 105.909 78.2314 105.952C78.1994 105.984 78.1568 106 78.1034 106H76.6314C76.5781 106 76.5301 105.984 76.4874 105.952C76.4554 105.909 76.4394 105.861 76.4394 105.808V98.176C76.4394 98.144 76.4234 98.1227 76.3914 98.112C76.3701 98.1013 76.3541 98.112 76.3434 98.144L74.3434 101.216C74.2901 101.301 74.2154 101.344 74.1194 101.344H73.3834C73.2874 101.344 73.2128 101.301 73.1594 101.216L71.1434 98.16C71.1328 98.128 71.1114 98.1173 71.0794 98.128C71.0581 98.1387 71.0474 98.16 71.0474 98.192V105.808C71.0474 105.861 71.0261 105.909 70.9834 105.952C70.9514 105.984 70.9088 106 70.8554 106H69.3834C69.3301 106 69.2821 105.984 69.2394 105.952C69.2074 105.909 69.1914 105.861 69.1914 105.808V94.992C69.1914 94.9387 69.2074 94.896 69.2394 94.864C69.2821 94.8213 69.3301 94.8 69.3834 94.8H70.8554C70.9514 94.8 71.0261 94.8427 71.0794 94.928L73.6874 98.88C73.7088 98.9013 73.7301 98.912 73.7514 98.912C73.7728 98.912 73.7888 98.9013 73.7994 98.88L76.4074 94.928ZM83.0729 97.696C83.7449 97.696 84.3369 97.8133 84.8489 98.048C85.3609 98.2827 85.7556 98.608 86.0329 99.024C86.3103 99.4293 86.4489 99.8933 86.4489 100.416V105.808C86.4489 105.861 86.4276 105.909 86.3849 105.952C86.3529 105.984 86.3103 106 86.2569 106H84.7849C84.7316 106 84.6836 105.984 84.6409 105.952C84.6089 105.909 84.5929 105.861 84.5929 105.808V105.296C84.5929 105.264 84.5823 105.248 84.5609 105.248C84.5396 105.237 84.5183 105.243 84.4969 105.264C83.9743 105.84 83.2169 106.128 82.2249 106.128C81.4249 106.128 80.7636 105.925 80.2409 105.52C79.7289 105.115 79.4729 104.512 79.4729 103.712C79.4729 102.88 79.7609 102.235 80.3369 101.776C80.9236 101.307 81.7449 101.072 82.8009 101.072H84.5129C84.5663 101.072 84.5929 101.045 84.5929 100.992V100.608C84.5929 100.192 84.4703 99.872 84.2249 99.648C83.9796 99.4133 83.6116 99.296 83.1209 99.296C82.7156 99.296 82.3849 99.3707 82.1289 99.52C81.8836 99.6587 81.7289 99.856 81.6649 100.112C81.6329 100.24 81.5583 100.293 81.4409 100.272L79.8889 100.08C79.8356 100.069 79.7876 100.053 79.7449 100.032C79.7129 100 79.7023 99.9627 79.7129 99.92C79.7983 99.2693 80.1449 98.736 80.7529 98.32C81.3716 97.904 82.1449 97.696 83.0729 97.696ZM82.6889 104.656C83.2116 104.656 83.6596 104.517 84.0329 104.24C84.4063 103.963 84.5929 103.611 84.5929 103.184V102.432C84.5929 102.379 84.5663 102.352 84.5129 102.352H83.1689C82.6036 102.352 82.1556 102.459 81.8249 102.672C81.5049 102.885 81.3449 103.189 81.3449 103.584C81.3449 103.925 81.4676 104.192 81.7129 104.384C81.9689 104.565 82.2943 104.656 82.6889 104.656ZM91.6203 97.728C91.9616 97.728 92.2603 97.7973 92.5163 97.936C92.6016 97.9787 92.6336 98.0587 92.6123 98.176L92.3403 99.616C92.3296 99.744 92.255 99.7813 92.1163 99.728C91.9563 99.6747 91.7696 99.648 91.5563 99.648C91.4176 99.648 91.311 99.6533 91.2363 99.664C90.7883 99.6853 90.415 99.8453 90.1163 100.144C89.8176 100.432 89.6683 100.811 89.6683 101.28V105.808C89.6683 105.861 89.647 105.909 89.6043 105.952C89.5723 105.984 89.5296 106 89.4763 106H88.0043C87.951 106 87.903 105.984 87.8603 105.952C87.8283 105.909 87.8123 105.861 87.8123 105.808V98.016C87.8123 97.9627 87.8283 97.92 87.8603 97.888C87.903 97.8453 87.951 97.824 88.0043 97.824H89.4763C89.5296 97.824 89.5723 97.8453 89.6043 97.888C89.647 97.92 89.6683 97.9627 89.6683 98.016V98.736C89.6683 98.7787 89.6736 98.8053 89.6843 98.816C89.7056 98.816 89.727 98.8 89.7483 98.768C90.1963 98.0747 90.8203 97.728 91.6203 97.728ZM93.5199 106C93.4666 106 93.4186 105.984 93.3759 105.952C93.3439 105.909 93.3279 105.861 93.3279 105.808V94.992C93.3279 94.9387 93.3439 94.896 93.3759 94.864C93.4186 94.8213 93.4666 94.8 93.5199 94.8H94.9919C95.0453 94.8 95.0879 94.8213 95.1199 94.864C95.1626 94.896 95.1839 94.9387 95.1839 94.992V100.768C95.1839 100.8 95.1946 100.821 95.2159 100.832C95.2373 100.843 95.2586 100.832 95.2799 100.8L97.8719 97.936C97.9466 97.8613 98.0266 97.824 98.1119 97.824H99.8079C99.9146 97.824 99.9679 97.8613 99.9679 97.936C99.9679 97.968 99.9519 98.0107 99.9199 98.064L97.8879 100.496C97.8559 100.528 97.8506 100.565 97.8719 100.608L100.272 105.776C100.293 105.819 100.304 105.851 100.304 105.872C100.304 105.957 100.245 106 100.128 106H98.5759C98.4693 106 98.3946 105.952 98.3519 105.856L96.6079 101.792C96.5973 101.771 96.5759 101.76 96.5439 101.76C96.5226 101.749 96.5066 101.755 96.4959 101.776L95.2159 103.248C95.1946 103.291 95.1839 103.328 95.1839 103.36V105.808C95.1839 105.861 95.1626 105.909 95.1199 105.952C95.0879 105.984 95.0453 106 94.9919 106H93.5199ZM107.505 100.992C107.548 101.259 107.569 101.557 107.569 101.888L107.553 102.384C107.553 102.512 107.489 102.576 107.361 102.576H102.353C102.3 102.576 102.273 102.603 102.273 102.656C102.305 103.008 102.353 103.248 102.417 103.376C102.673 104.144 103.297 104.533 104.289 104.544C105.015 104.544 105.591 104.245 106.017 103.648C106.06 103.584 106.113 103.552 106.177 103.552C106.22 103.552 106.257 103.568 106.289 103.6L107.281 104.416C107.377 104.491 107.393 104.576 107.329 104.672C106.999 105.141 106.556 105.504 106.001 105.76C105.457 106.016 104.849 106.144 104.177 106.144C103.345 106.144 102.636 105.957 102.049 105.584C101.473 105.211 101.052 104.688 100.785 104.016C100.54 103.44 100.417 102.64 100.417 101.616C100.417 100.997 100.481 100.496 100.609 100.112C100.823 99.3653 101.223 98.7787 101.809 98.352C102.407 97.9147 103.121 97.696 103.953 97.696C106.055 97.696 107.239 98.7947 107.505 100.992ZM103.953 99.296C103.559 99.296 103.228 99.3973 102.961 99.6C102.705 99.792 102.524 100.064 102.417 100.416C102.353 100.597 102.311 100.832 102.289 101.12C102.268 101.173 102.289 101.2 102.353 101.2H105.601C105.655 101.2 105.681 101.173 105.681 101.12C105.66 100.853 105.628 100.651 105.585 100.512C105.489 100.128 105.297 99.8293 105.009 99.616C104.732 99.4027 104.38 99.296 103.953 99.296ZM112.945 99.136C112.945 99.1893 112.924 99.2373 112.881 99.28C112.849 99.312 112.807 99.328 112.753 99.328H111.121C111.068 99.328 111.041 99.3547 111.041 99.408V103.264C111.041 103.669 111.127 103.963 111.297 104.144C111.479 104.325 111.761 104.416 112.145 104.416H112.625C112.679 104.416 112.721 104.437 112.753 104.48C112.796 104.512 112.817 104.555 112.817 104.608V105.808C112.817 105.925 112.753 105.995 112.625 106.016L111.793 106.032C110.951 106.032 110.321 105.888 109.905 105.6C109.489 105.312 109.276 104.768 109.265 103.968V99.408C109.265 99.3547 109.239 99.328 109.185 99.328H108.273C108.22 99.328 108.172 99.312 108.129 99.28C108.097 99.2373 108.081 99.1893 108.081 99.136V98.016C108.081 97.9627 108.097 97.92 108.129 97.888C108.172 97.8453 108.22 97.824 108.273 97.824H109.185C109.239 97.824 109.265 97.7973 109.265 97.744V95.872C109.265 95.8187 109.281 95.776 109.313 95.744C109.356 95.7013 109.404 95.68 109.457 95.68H110.849C110.903 95.68 110.945 95.7013 110.977 95.744C111.02 95.776 111.041 95.8187 111.041 95.872V97.744C111.041 97.7973 111.068 97.824 111.121 97.824H112.753C112.807 97.824 112.849 97.8453 112.881 97.888C112.924 97.92 112.945 97.9627 112.945 98.016V99.136Z" fill="white"/>
<path d="M49.7529 131C49.6355 131 49.5609 130.947 49.5289 130.84L46.6969 120.008L46.6809 119.944C46.6809 119.848 46.7395 119.8 46.8569 119.8H48.8409C48.9475 119.8 49.0169 119.853 49.0489 119.96L50.5689 126.472C50.5795 126.515 50.5955 126.536 50.6169 126.536C50.6382 126.536 50.6542 126.515 50.6649 126.472L52.1369 119.976C52.1689 119.859 52.2382 119.8 52.3449 119.8H54.2809C54.3982 119.8 54.4729 119.853 54.5049 119.96L56.1049 126.472C56.1155 126.504 56.1315 126.525 56.1529 126.536C56.1742 126.536 56.1902 126.515 56.2009 126.472L57.6729 119.976C57.7049 119.859 57.7742 119.8 57.8809 119.8H59.7689C59.9182 119.8 59.9769 119.869 59.9449 120.008L57.3209 130.84C57.2889 130.947 57.2142 131 57.0969 131H55.1929C55.0862 131 55.0169 130.947 54.9849 130.84L53.3529 123.912C53.3422 123.869 53.3262 123.848 53.3049 123.848C53.2835 123.848 53.2675 123.869 53.2569 123.912L51.7369 130.824C51.7155 130.941 51.6462 131 51.5289 131H49.7529ZM61.4961 131C61.4428 131 61.3948 130.984 61.3521 130.952C61.3201 130.909 61.3041 130.861 61.3041 130.808V119.992C61.3041 119.939 61.3201 119.896 61.3521 119.864C61.3948 119.821 61.4428 119.8 61.4961 119.8H63.3681C63.4215 119.8 63.4641 119.821 63.4961 119.864C63.5388 119.896 63.5601 119.939 63.5601 119.992V130.808C63.5601 130.861 63.5388 130.909 63.4961 130.952C63.4641 130.984 63.4215 131 63.3681 131H61.4961ZM71.9393 119.992C71.9393 119.939 71.9553 119.896 71.9873 119.864C72.0299 119.821 72.0779 119.8 72.1313 119.8H74.0033C74.0566 119.8 74.0993 119.821 74.1313 119.864C74.1739 119.896 74.1953 119.939 74.1953 119.992V130.808C74.1953 130.861 74.1739 130.909 74.1313 130.952C74.0993 130.984 74.0566 131 74.0033 131H72.1953C72.0886 131 72.0139 130.957 71.9713 130.872L67.8273 124.024C67.8059 123.992 67.7846 123.981 67.7633 123.992C67.7419 123.992 67.7313 124.013 67.7313 124.056L67.7633 130.808C67.7633 130.861 67.7419 130.909 67.6993 130.952C67.6673 130.984 67.6246 131 67.5713 131H65.6993C65.6459 131 65.5979 130.984 65.5553 130.952C65.5233 130.909 65.5073 130.861 65.5073 130.808V119.992C65.5073 119.939 65.5233 119.896 65.5553 119.864C65.5979 119.821 65.6459 119.8 65.6993 119.8H67.5073C67.6139 119.8 67.6886 119.843 67.7313 119.928L71.8593 126.744C71.8806 126.776 71.9019 126.792 71.9233 126.792C71.9446 126.781 71.9553 126.755 71.9553 126.712L71.9393 119.992ZM83.8759 119.8C83.9292 119.8 83.9719 119.821 84.0039 119.864C84.0465 119.896 84.0679 119.939 84.0679 119.992V121.56C84.0679 121.613 84.0465 121.661 84.0039 121.704C83.9719 121.736 83.9292 121.752 83.8759 121.752H81.0119C80.9585 121.752 80.9319 121.779 80.9319 121.832V130.808C80.9319 130.861 80.9105 130.909 80.8679 130.952C80.8359 130.984 80.7932 131 80.7399 131H78.8679C78.8145 131 78.7665 130.984 78.7239 130.952C78.6919 130.909 78.6759 130.861 78.6759 130.808V121.832C78.6759 121.779 78.6492 121.752 78.5959 121.752H75.8119C75.7585 121.752 75.7105 121.736 75.6679 121.704C75.6359 121.661 75.6199 121.613 75.6199 121.56V119.992C75.6199 119.939 75.6359 119.896 75.6679 119.864C75.7105 119.821 75.7585 119.8 75.8119 119.8H83.8759ZM93.2833 121.544C93.2833 121.597 93.2619 121.645 93.2193 121.688C93.1873 121.72 93.1446 121.736 93.0913 121.736H87.8433C87.7899 121.736 87.7633 121.763 87.7633 121.816V124.296C87.7633 124.349 87.7899 124.376 87.8433 124.376H91.2833C91.3366 124.376 91.3793 124.397 91.4113 124.44C91.4539 124.472 91.4753 124.515 91.4753 124.568V126.12C91.4753 126.173 91.4539 126.221 91.4113 126.264C91.3793 126.296 91.3366 126.312 91.2833 126.312H87.8433C87.7899 126.312 87.7633 126.339 87.7633 126.392V128.984C87.7633 129.037 87.7899 129.064 87.8433 129.064H93.0913C93.1446 129.064 93.1873 129.085 93.2193 129.128C93.2619 129.16 93.2833 129.203 93.2833 129.256V130.808C93.2833 130.861 93.2619 130.909 93.2193 130.952C93.1873 130.984 93.1446 131 93.0913 131H85.6993C85.6459 131 85.5979 130.984 85.5553 130.952C85.5233 130.909 85.5073 130.861 85.5073 130.808V119.992C85.5073 119.939 85.5233 119.896 85.5553 119.864C85.5979 119.821 85.6459 119.8 85.6993 119.8H93.0913C93.1446 119.8 93.1873 119.821 93.2193 119.864C93.2619 119.896 93.2833 119.939 93.2833 119.992V121.544ZM100.995 131C100.888 131 100.814 130.952 100.771 130.856L98.771 126.424C98.7497 126.381 98.7177 126.36 98.675 126.36H97.187C97.1337 126.36 97.107 126.387 97.107 126.44V130.808C97.107 130.861 97.0857 130.909 97.043 130.952C97.011 130.984 96.9683 131 96.915 131H95.043C94.9897 131 94.9417 130.984 94.899 130.952C94.867 130.909 94.851 130.861 94.851 130.808V119.992C94.851 119.939 94.867 119.896 94.899 119.864C94.9417 119.821 94.9897 119.8 95.043 119.8H99.619C100.302 119.8 100.899 119.939 101.411 120.216C101.934 120.493 102.334 120.888 102.611 121.4C102.899 121.912 103.043 122.504 103.043 123.176C103.043 123.901 102.862 124.525 102.499 125.048C102.136 125.56 101.63 125.923 100.979 126.136C100.926 126.157 100.91 126.195 100.931 126.248L103.107 130.776C103.128 130.819 103.139 130.851 103.139 130.872C103.139 130.957 103.08 131 102.963 131H100.995ZM97.187 121.736C97.1337 121.736 97.107 121.763 97.107 121.816V124.552C97.107 124.605 97.1337 124.632 97.187 124.632H99.283C99.731 124.632 100.094 124.499 100.371 124.232C100.659 123.965 100.803 123.619 100.803 123.192C100.803 122.765 100.659 122.419 100.371 122.152C100.094 121.875 99.731 121.736 99.283 121.736H97.187Z" fill="#252530"/>
<path d="M61.0014 144.968C60.9801 144.989 60.9748 145.011 60.9854 145.032C60.9961 145.053 61.0174 145.064 61.0494 145.064H65.3854C65.4388 145.064 65.4814 145.085 65.5134 145.128C65.5561 145.16 65.5774 145.203 65.5774 145.256V146.808C65.5774 146.861 65.5561 146.909 65.5134 146.952C65.4814 146.984 65.4388 147 65.3854 147H58.1854C58.1321 147 58.0841 146.984 58.0414 146.952C58.0094 146.909 57.9934 146.861 57.9934 146.808V145.336C57.9934 145.24 58.0254 145.16 58.0894 145.096C58.6121 144.584 59.1454 144.029 59.6894 143.432C60.2334 142.824 60.5748 142.445 60.7134 142.296C61.0121 141.944 61.3161 141.608 61.6254 141.288C62.5961 140.211 63.0814 139.411 63.0814 138.888C63.0814 138.515 62.9481 138.211 62.6814 137.976C62.4148 137.731 62.0681 137.608 61.6414 137.608C61.2148 137.608 60.8681 137.731 60.6014 137.976C60.3348 138.211 60.2014 138.525 60.2014 138.92V139.32C60.2014 139.373 60.1801 139.421 60.1374 139.464C60.1054 139.496 60.0628 139.512 60.0094 139.512H58.1214C58.0681 139.512 58.0201 139.496 57.9774 139.464C57.9454 139.421 57.9294 139.373 57.9294 139.32V138.568C57.9614 137.992 58.1428 137.485 58.4734 137.048C58.8041 136.6 59.2414 136.259 59.7854 136.024C60.3401 135.789 60.9588 135.672 61.6414 135.672C62.3988 135.672 63.0548 135.816 63.6094 136.104C64.1748 136.381 64.6068 136.76 64.9054 137.24C65.2148 137.72 65.3694 138.253 65.3694 138.84C65.3694 139.288 65.2574 139.747 65.0334 140.216C64.8094 140.685 64.4734 141.192 64.0254 141.736C63.6948 142.152 63.3374 142.563 62.9534 142.968C62.5694 143.373 61.9988 143.96 61.2414 144.728L61.0014 144.968ZM70.7706 147.176C69.5972 147.176 68.6692 146.851 67.9866 146.2C67.3039 145.539 66.9626 144.643 66.9626 143.512V139.288C66.9626 138.179 67.3039 137.299 67.9866 136.648C68.6692 135.997 69.5972 135.672 70.7706 135.672C71.9439 135.672 72.8719 135.997 73.5546 136.648C74.2479 137.299 74.5946 138.179 74.5946 139.288V143.512C74.5946 144.643 74.2479 145.539 73.5546 146.2C72.8719 146.851 71.9439 147.176 70.7706 147.176ZM70.7706 145.24C71.2506 145.24 71.6292 145.096 71.9066 144.808C72.1946 144.509 72.3386 144.115 72.3386 143.624V139.224C72.3386 138.733 72.1946 138.344 71.9066 138.056C71.6292 137.757 71.2506 137.608 70.7706 137.608C70.3012 137.608 69.9226 137.757 69.6346 138.056C69.3572 138.344 69.2186 138.733 69.2186 139.224V143.624C69.2186 144.115 69.3572 144.509 69.6346 144.808C69.9226 145.096 70.3012 145.24 70.7706 145.24ZM79.0796 144.968C79.0582 144.989 79.0529 145.011 79.0636 145.032C79.0742 145.053 79.0956 145.064 79.1276 145.064H83.4636C83.5169 145.064 83.5596 145.085 83.5916 145.128C83.6342 145.16 83.6556 145.203 83.6556 145.256V146.808C83.6556 146.861 83.6342 146.909 83.5916 146.952C83.5596 146.984 83.5169 147 83.4636 147H76.2636C76.2102 147 76.1622 146.984 76.1196 146.952C76.0876 146.909 76.0716 146.861 76.0716 146.808V145.336C76.0716 145.24 76.1036 145.16 76.1676 145.096C76.6902 144.584 77.2236 144.029 77.7676 143.432C78.3116 142.824 78.6529 142.445 78.7916 142.296C79.0902 141.944 79.3942 141.608 79.7036 141.288C80.6742 140.211 81.1596 139.411 81.1596 138.888C81.1596 138.515 81.0262 138.211 80.7596 137.976C80.4929 137.731 80.1462 137.608 79.7196 137.608C79.2929 137.608 78.9462 137.731 78.6796 137.976C78.4129 138.211 78.2796 138.525 78.2796 138.92V139.32C78.2796 139.373 78.2582 139.421 78.2156 139.464C78.1836 139.496 78.1409 139.512 78.0876 139.512H76.1996C76.1462 139.512 76.0982 139.496 76.0556 139.464C76.0236 139.421 76.0076 139.373 76.0076 139.32V138.568C76.0396 137.992 76.2209 137.485 76.5516 137.048C76.8822 136.6 77.3196 136.259 77.8636 136.024C78.4182 135.789 79.0369 135.672 79.7196 135.672C80.4769 135.672 81.1329 135.816 81.6876 136.104C82.2529 136.381 82.6849 136.76 82.9836 137.24C83.2929 137.72 83.4476 138.253 83.4476 138.84C83.4476 139.288 83.3356 139.747 83.1116 140.216C82.8876 140.685 82.5516 141.192 82.1036 141.736C81.7729 142.152 81.4156 142.563 81.0316 142.968C80.6476 143.373 80.0769 143.96 79.3196 144.728L79.0796 144.968ZM91.7179 141.656C91.9313 142.147 92.0379 142.712 92.0379 143.352C92.0379 143.928 91.9419 144.461 91.7499 144.952C91.4939 145.635 91.0619 146.168 90.4539 146.552C89.8566 146.936 89.1473 147.128 88.3259 147.128C87.5153 147.128 86.8006 146.925 86.1819 146.52C85.5739 146.115 85.1366 145.565 84.8699 144.872C84.7206 144.456 84.6353 144.008 84.6139 143.528C84.6139 143.4 84.6779 143.336 84.8059 143.336H86.6939C86.8219 143.336 86.8859 143.4 86.8859 143.528C86.9286 143.88 86.9873 144.141 87.0619 144.312C87.1579 144.589 87.3126 144.808 87.5259 144.968C87.7499 145.117 88.0113 145.192 88.3099 145.192C88.9073 145.192 89.3179 144.931 89.5419 144.408C89.6913 144.088 89.7659 143.715 89.7659 143.288C89.7659 142.787 89.6859 142.376 89.5259 142.056C89.2806 141.555 88.8699 141.304 88.2939 141.304C88.1766 141.304 88.0539 141.341 87.9259 141.416C87.7979 141.48 87.6433 141.576 87.4619 141.704C87.4193 141.736 87.3766 141.752 87.3339 141.752C87.2699 141.752 87.2219 141.72 87.1899 141.656L86.2459 140.328C86.2246 140.296 86.2139 140.259 86.2139 140.216C86.2139 140.152 86.2353 140.099 86.2779 140.056L88.8219 137.832C88.8433 137.811 88.8486 137.789 88.8379 137.768C88.8379 137.747 88.8219 137.736 88.7899 137.736H85.0299C84.9766 137.736 84.9286 137.72 84.8859 137.688C84.8539 137.645 84.8379 137.597 84.8379 137.544V135.992C84.8379 135.939 84.8539 135.896 84.8859 135.864C84.9286 135.821 84.9766 135.8 85.0299 135.8H91.7019C91.7553 135.8 91.7979 135.821 91.8299 135.864C91.8726 135.896 91.8939 135.939 91.8939 135.992V137.752C91.8939 137.837 91.8566 137.917 91.7819 137.992L89.6859 139.912C89.6646 139.933 89.6539 139.955 89.6539 139.976C89.6646 139.997 89.6913 140.008 89.7339 140.008C90.6619 140.189 91.3233 140.739 91.7179 141.656Z" fill="#252530"/>
</g>
<defs>
<clipPath id="clip0_15_559">
<rect width="150" height="168" fill="white"/>
</clipPath>
</defs>
</svg>
