<svg width="150" height="168" viewBox="0 0 150 168" fill="none" xmlns="http://www.w3.org/2000/svg">
<g clip-path="url(#clip0_15_359)">
<path d="M10 132.9V2H139V132.9L74.45 165.76L10 132.9Z" fill="white"/>
<path d="M137 4V131.67L74.45 163.51L12 131.67V4H137ZM141 0H8V134.12L74.45 168L141 134.12V0Z" fill="#DCDEDC"/>
<path d="M12.22 131.78L74.43 163.5L137 131.7V4.68005L12.22 131.78Z" fill="#F2F3F2"/>
<path d="M144.98 90H5.16966L0 101L5.16966 112H144.99L150 101L144.98 90Z" fill="#2690CE"/>
<path d="M75.0778 6.12022C75.7101 6.12022 76.3327 6.12022 76.965 6.27565L75.0778 9.87978C72.2471 9.72435 69.7374 11.9199 69.5817 14.7468C69.4261 17.5738 71.6245 20.0801 74.4553 20.2356H75.0875C76.3424 20.2356 77.5973 19.7693 78.5409 18.9824L80.5837 22.4311C79.0175 23.5288 77.1303 24.1603 75.0875 24.1603C70.0584 24.3157 65.8171 20.5562 65.6615 15.5337C65.5058 10.5112 69.2704 6.27565 74.2996 6.12022H75.0875H75.0778ZM81.5175 13.8045L83.8716 17.7292L81.5175 21.4985L79.3191 17.7292H74.7665L77.1206 13.8045H81.5175ZM77.7432 12.3959C77.7432 11.7644 77.8988 11.1427 78.2101 10.6667C78.5214 10.1906 79.1537 9.72435 79.6206 9.41348L79.9319 9.25805C80.5642 8.94718 80.7198 8.79174 80.7198 8.47116C80.7198 8.15058 80.2529 7.83971 79.9319 7.83971C79.2996 7.83971 78.8327 8.15058 78.5214 8.78203L77.7335 7.99514C77.8891 7.68427 78.2004 7.36369 78.5214 7.05282C78.9883 6.74196 79.465 6.74196 79.9319 6.74196C80.3988 6.74196 81.0311 6.89739 81.3424 7.20826C81.6537 7.51913 81.9747 7.99514 81.9747 8.46145C81.9747 9.24833 81.5078 9.87007 80.5642 10.1906L80.0973 10.5015C79.6303 10.8124 79.3093 10.9678 79.1537 11.4438H81.9844V12.5416L77.7432 12.3862V12.3959ZM75.0778 32L90 23.5288V0H60V23.3734L75.0778 32Z" fill="#FF492C"/>
<path d="M28.981 50.928C28.981 50.8647 29 50.814 29.038 50.776C29.0886 50.7253 29.1456 50.7 29.209 50.7H31.432C31.4953 50.7 31.546 50.7253 31.584 50.776C31.6346 50.814 31.66 50.8647 31.66 50.928V63.772C31.66 63.8353 31.6346 63.8923 31.584 63.943C31.546 63.981 31.4953 64 31.432 64H29.209C29.1456 64 29.0886 63.981 29.038 63.943C29 63.8923 28.981 63.8353 28.981 63.772V58.528C28.981 58.4647 28.9493 58.433 28.886 58.433H24.687C24.6236 58.433 24.592 58.4647 24.592 58.528V63.772C24.592 63.8353 24.5666 63.8923 24.516 63.943C24.478 63.981 24.4273 64 24.364 64H22.141C22.0776 64 22.0206 63.981 21.97 63.943C21.932 63.8923 21.913 63.8353 21.913 63.772V50.928C21.913 50.8647 21.932 50.814 21.97 50.776C22.0206 50.7253 22.0776 50.7 22.141 50.7H24.364C24.4273 50.7 24.478 50.7253 24.516 50.776C24.5666 50.814 24.592 50.8647 24.592 50.928V56.039C24.592 56.1023 24.6236 56.134 24.687 56.134H28.886C28.9493 56.134 28.981 56.1023 28.981 56.039V50.928ZM35.1926 53.132C34.762 53.132 34.401 52.9927 34.1096 52.714C33.831 52.4227 33.6916 52.0617 33.6916 51.631C33.6916 51.1877 33.831 50.8267 34.1096 50.548C34.3883 50.2693 34.7493 50.13 35.1926 50.13C35.636 50.13 35.997 50.2693 36.2756 50.548C36.5543 50.8267 36.6936 51.1877 36.6936 51.631C36.6936 52.0617 36.548 52.4227 36.2566 52.714C35.978 52.9927 35.6233 53.132 35.1926 53.132ZM34.0526 64C33.9893 64 33.9323 63.981 33.8816 63.943C33.8436 63.8923 33.8246 63.8353 33.8246 63.772V54.443C33.8246 54.3797 33.8436 54.329 33.8816 54.291C33.9323 54.2403 33.9893 54.215 34.0526 54.215H36.2756C36.339 54.215 36.3896 54.2403 36.4276 54.291C36.4783 54.329 36.5036 54.3797 36.5036 54.443V63.772C36.5036 63.8353 36.4783 63.8923 36.4276 63.943C36.3896 63.981 36.339 64 36.2756 64H34.0526ZM44.6334 54.462C44.6334 54.3987 44.6524 54.348 44.6904 54.31C44.7411 54.2593 44.7981 54.234 44.8614 54.234H47.0844C47.1477 54.234 47.1984 54.2593 47.2364 54.31C47.2871 54.348 47.3124 54.3987 47.3124 54.462V63.126C47.3124 64.7853 46.8311 65.9697 45.8684 66.679C44.9184 67.3883 43.6897 67.743 42.1824 67.743C41.7391 67.743 41.2451 67.7113 40.7004 67.648C40.5737 67.6353 40.5104 67.553 40.5104 67.401L40.5864 65.444C40.5864 65.2793 40.6751 65.2097 40.8524 65.235C41.3084 65.311 41.7264 65.349 42.1064 65.349C42.9171 65.349 43.5377 65.1717 43.9684 64.817C44.4117 64.4623 44.6334 63.8923 44.6334 63.107C44.6334 63.069 44.6207 63.05 44.5954 63.05C44.5701 63.0373 44.5447 63.0437 44.5194 63.069C44.0381 63.5883 43.3351 63.848 42.4104 63.848C41.5871 63.848 40.8271 63.6517 40.1304 63.259C39.4464 62.8537 38.9587 62.2077 38.6674 61.321C38.4774 60.7383 38.3824 59.9847 38.3824 59.06C38.3824 58.072 38.4964 57.2677 38.7244 56.647C38.9904 55.8743 39.4401 55.2537 40.0734 54.785C40.7067 54.3163 41.4414 54.082 42.2774 54.082C43.2527 54.082 44.0001 54.3733 44.5194 54.956C44.5447 54.9813 44.5701 54.994 44.5954 54.994C44.6207 54.9813 44.6334 54.956 44.6334 54.918V54.462ZM44.4814 60.599C44.5827 60.219 44.6334 59.6997 44.6334 59.041C44.6334 58.6483 44.6207 58.3443 44.5954 58.129C44.5701 57.9137 44.5257 57.711 44.4624 57.521C44.3484 57.179 44.1584 56.9067 43.8924 56.704C43.6264 56.4887 43.2971 56.381 42.9044 56.381C42.5244 56.381 42.2014 56.4887 41.9354 56.704C41.6694 56.9067 41.4731 57.179 41.3464 57.521C41.1691 57.901 41.0804 58.414 41.0804 59.06C41.0804 59.7693 41.1564 60.276 41.3084 60.58C41.4224 60.922 41.6187 61.2007 41.8974 61.416C42.1887 61.6187 42.5307 61.72 42.9234 61.72C43.3287 61.72 43.6644 61.6187 43.9304 61.416C44.1964 61.2007 44.3801 60.9283 44.4814 60.599ZM54.393 54.082C55.4063 54.082 56.2233 54.3923 56.844 55.013C57.4647 55.6337 57.775 56.476 57.775 57.54V63.772C57.775 63.8353 57.7497 63.8923 57.699 63.943C57.661 63.981 57.6103 64 57.547 64H55.324C55.2607 64 55.2037 63.981 55.153 63.943C55.115 63.8923 55.096 63.8353 55.096 63.772V58.091C55.096 57.5843 54.9503 57.1727 54.659 56.856C54.3803 56.5393 54.0067 56.381 53.538 56.381C53.0693 56.381 52.6893 56.5393 52.398 56.856C52.1193 57.1727 51.98 57.5843 51.98 58.091V63.772C51.98 63.8353 51.9547 63.8923 51.904 63.943C51.866 63.981 51.8153 64 51.752 64H49.529C49.4657 64 49.4087 63.981 49.358 63.943C49.32 63.8923 49.301 63.8353 49.301 63.772V50.928C49.301 50.8647 49.32 50.814 49.358 50.776C49.4087 50.7253 49.4657 50.7 49.529 50.7H51.752C51.8153 50.7 51.866 50.7253 51.904 50.776C51.9547 50.814 51.98 50.8647 51.98 50.928V55.127C51.98 55.165 51.9927 55.1903 52.018 55.203C52.0433 55.2157 52.0623 55.2093 52.075 55.184C52.5943 54.4493 53.367 54.082 54.393 54.082ZM68.357 58.11C68.433 58.5913 68.4583 59.1297 68.433 59.725C68.4203 59.877 68.338 59.953 68.186 59.953H62.315C62.239 59.953 62.2136 59.9847 62.239 60.048C62.277 60.3013 62.3466 60.5547 62.448 60.808C62.7773 61.5173 63.4486 61.872 64.462 61.872C65.2726 61.8593 65.9123 61.53 66.381 60.884C66.4316 60.808 66.4886 60.77 66.552 60.77C66.59 60.77 66.6343 60.7953 66.685 60.846L68.053 62.195C68.1163 62.2583 68.148 62.3153 68.148 62.366C68.148 62.3913 68.1226 62.442 68.072 62.518C67.654 63.0373 67.1156 63.4427 66.457 63.734C65.7983 64.0127 65.0763 64.152 64.291 64.152C63.2016 64.152 62.277 63.905 61.517 63.411C60.7696 62.917 60.2313 62.2267 59.902 61.34C59.636 60.7067 59.503 59.877 59.503 58.851C59.503 58.1543 59.598 57.54 59.788 57.008C60.0793 56.1087 60.586 55.393 61.308 54.861C62.0426 54.329 62.9103 54.063 63.911 54.063C65.1776 54.063 66.191 54.4303 66.951 55.165C67.7236 55.8997 68.1923 56.8813 68.357 58.11ZM63.93 56.381C63.132 56.381 62.6063 56.7547 62.353 57.502C62.3023 57.6667 62.258 57.8693 62.22 58.11C62.22 58.1733 62.2516 58.205 62.315 58.205H65.602C65.678 58.205 65.7033 58.1733 65.678 58.11C65.6146 57.7427 65.583 57.5653 65.583 57.578C65.469 57.198 65.2663 56.9067 64.975 56.704C64.6963 56.4887 64.348 56.381 63.93 56.381ZM73.9252 64.133C73.0765 64.133 72.3355 64.0127 71.7022 63.772C71.0688 63.5313 70.5748 63.1957 70.2202 62.765C69.8782 62.3343 69.7072 61.8467 69.7072 61.302V61.112C69.7072 61.0487 69.7262 60.998 69.7642 60.96C69.8148 60.9093 69.8718 60.884 69.9352 60.884H72.0442C72.1075 60.884 72.1582 60.9093 72.1962 60.96C72.2468 60.998 72.2722 61.0487 72.2722 61.112V61.131C72.2722 61.4097 72.4242 61.6503 72.7282 61.853C73.0448 62.043 73.4375 62.138 73.9062 62.138C74.3368 62.138 74.6852 62.0557 74.9512 61.891C75.2172 61.7137 75.3502 61.4983 75.3502 61.245C75.3502 61.017 75.2362 60.846 75.0082 60.732C74.7802 60.618 74.4065 60.4977 73.8872 60.371C73.2918 60.219 72.8232 60.0733 72.4812 59.934C71.6705 59.6553 71.0245 59.3133 70.5432 58.908C70.0618 58.5027 69.8212 57.92 69.8212 57.16C69.8212 56.2227 70.1822 55.4817 70.9042 54.937C71.6388 54.3797 72.6078 54.101 73.8112 54.101C74.6218 54.101 75.3312 54.234 75.9392 54.5C76.5472 54.7533 77.0158 55.1143 77.3452 55.583C77.6872 56.0517 77.8582 56.5837 77.8582 57.179C77.8582 57.2423 77.8328 57.2993 77.7822 57.35C77.7442 57.388 77.6935 57.407 77.6302 57.407H75.5972C75.5338 57.407 75.4768 57.388 75.4262 57.35C75.3882 57.2993 75.3692 57.2423 75.3692 57.179C75.3692 56.9003 75.2235 56.666 74.9322 56.476C74.6535 56.286 74.2798 56.191 73.8112 56.191C73.3932 56.191 73.0512 56.267 72.7852 56.419C72.5192 56.571 72.3862 56.78 72.3862 57.046C72.3862 57.2993 72.5128 57.4893 72.7662 57.616C73.0322 57.7427 73.4692 57.8757 74.0772 58.015C74.2165 58.053 74.3748 58.0973 74.5522 58.148C74.7295 58.186 74.9195 58.2367 75.1222 58.3C76.0215 58.566 76.7308 58.908 77.2502 59.326C77.7695 59.744 78.0292 60.352 78.0292 61.15C78.0292 62.0873 77.6555 62.822 76.9082 63.354C76.1735 63.8733 75.1792 64.133 73.9252 64.133ZM85.2297 56.153C85.2297 56.2163 85.2044 56.2733 85.1537 56.324C85.1157 56.362 85.0651 56.381 85.0017 56.381H83.1777C83.1144 56.381 83.0827 56.4127 83.0827 56.476V60.504C83.0827 60.922 83.1651 61.2323 83.3297 61.435C83.5071 61.6377 83.7857 61.739 84.1657 61.739H84.7927C84.8561 61.739 84.9067 61.7643 84.9447 61.815C84.9954 61.853 85.0207 61.9037 85.0207 61.967V63.772C85.0207 63.9113 84.9447 63.9937 84.7927 64.019C84.2607 64.0443 83.8807 64.057 83.6527 64.057C82.6014 64.057 81.8161 63.886 81.2967 63.544C80.7774 63.1893 80.5114 62.5307 80.4987 61.568V56.476C80.4987 56.4127 80.4671 56.381 80.4037 56.381H79.3207C79.2574 56.381 79.2004 56.362 79.1497 56.324C79.1117 56.2733 79.0927 56.2163 79.0927 56.153V54.462C79.0927 54.3987 79.1117 54.348 79.1497 54.31C79.2004 54.2593 79.2574 54.234 79.3207 54.234H80.4037C80.4671 54.234 80.4987 54.2023 80.4987 54.139V51.878C80.4987 51.8147 80.5177 51.764 80.5557 51.726C80.6064 51.6753 80.6634 51.65 80.7267 51.65H82.8547C82.9181 51.65 82.9687 51.6753 83.0067 51.726C83.0574 51.764 83.0827 51.8147 83.0827 51.878V54.139C83.0827 54.2023 83.1144 54.234 83.1777 54.234H85.0017C85.0651 54.234 85.1157 54.2593 85.1537 54.31C85.2044 54.348 85.2297 54.3987 85.2297 54.462V56.153ZM95.7952 64.152C94.8199 64.152 93.9585 63.962 93.2112 63.582C92.4765 63.202 91.9002 62.67 91.4822 61.986C91.0769 61.2893 90.8742 60.4913 90.8742 59.592V50.928C90.8742 50.8647 90.8932 50.814 90.9312 50.776C90.9819 50.7253 91.0389 50.7 91.1022 50.7H93.3252C93.3885 50.7 93.4392 50.7253 93.4772 50.776C93.5279 50.814 93.5532 50.8647 93.5532 50.928V59.611C93.5532 60.2823 93.7559 60.827 94.1612 61.245C94.5792 61.6503 95.1239 61.853 95.7952 61.853C96.4665 61.853 97.0049 61.6503 97.4102 61.245C97.8282 60.827 98.0372 60.2823 98.0372 59.611V50.928C98.0372 50.8647 98.0562 50.814 98.0942 50.776C98.1449 50.7253 98.2019 50.7 98.2652 50.7H100.488C100.552 50.7 100.602 50.7253 100.64 50.776C100.691 50.814 100.716 50.8647 100.716 50.928V59.592C100.716 60.4913 100.507 61.2893 100.089 61.986C99.6839 62.67 99.1075 63.202 98.3602 63.582C97.6255 63.962 96.7705 64.152 95.7952 64.152ZM106.718 64.133C105.87 64.133 105.129 64.0127 104.495 63.772C103.862 63.5313 103.368 63.1957 103.013 62.765C102.671 62.3343 102.5 61.8467 102.5 61.302V61.112C102.5 61.0487 102.519 60.998 102.557 60.96C102.608 60.9093 102.665 60.884 102.728 60.884H104.837C104.901 60.884 104.951 60.9093 104.989 60.96C105.04 60.998 105.065 61.0487 105.065 61.112V61.131C105.065 61.4097 105.217 61.6503 105.521 61.853C105.838 62.043 106.231 62.138 106.699 62.138C107.13 62.138 107.478 62.0557 107.744 61.891C108.01 61.7137 108.143 61.4983 108.143 61.245C108.143 61.017 108.029 60.846 107.801 60.732C107.573 60.618 107.2 60.4977 106.68 60.371C106.085 60.219 105.616 60.0733 105.274 59.934C104.464 59.6553 103.818 59.3133 103.336 58.908C102.855 58.5027 102.614 57.92 102.614 57.16C102.614 56.2227 102.975 55.4817 103.697 54.937C104.432 54.3797 105.401 54.101 106.604 54.101C107.415 54.101 108.124 54.234 108.732 54.5C109.34 54.7533 109.809 55.1143 110.138 55.583C110.48 56.0517 110.651 56.5837 110.651 57.179C110.651 57.2423 110.626 57.2993 110.575 57.35C110.537 57.388 110.487 57.407 110.423 57.407H108.39C108.327 57.407 108.27 57.388 108.219 57.35C108.181 57.2993 108.162 57.2423 108.162 57.179C108.162 56.9003 108.017 56.666 107.725 56.476C107.447 56.286 107.073 56.191 106.604 56.191C106.186 56.191 105.844 56.267 105.578 56.419C105.312 56.571 105.179 56.78 105.179 57.046C105.179 57.2993 105.306 57.4893 105.559 57.616C105.825 57.7427 106.262 57.8757 106.87 58.015C107.01 58.053 107.168 58.0973 107.345 58.148C107.523 58.186 107.713 58.2367 107.915 58.3C108.815 58.566 109.524 58.908 110.043 59.326C110.563 59.744 110.822 60.352 110.822 61.15C110.822 62.0873 110.449 62.822 109.701 63.354C108.967 63.8733 107.972 64.133 106.718 64.133ZM121.082 58.11C121.158 58.5913 121.183 59.1297 121.158 59.725C121.145 59.877 121.063 59.953 120.911 59.953H115.04C114.964 59.953 114.938 59.9847 114.964 60.048C115.002 60.3013 115.071 60.5547 115.173 60.808C115.502 61.5173 116.173 61.872 117.187 61.872C117.997 61.8593 118.637 61.53 119.106 60.884C119.156 60.808 119.213 60.77 119.277 60.77C119.315 60.77 119.359 60.7953 119.41 60.846L120.778 62.195C120.841 62.2583 120.873 62.3153 120.873 62.366C120.873 62.3913 120.847 62.442 120.797 62.518C120.379 63.0373 119.84 63.4427 119.182 63.734C118.523 64.0127 117.801 64.152 117.016 64.152C115.926 64.152 115.002 63.905 114.242 63.411C113.494 62.917 112.956 62.2267 112.627 61.34C112.361 60.7067 112.228 59.877 112.228 58.851C112.228 58.1543 112.323 57.54 112.513 57.008C112.804 56.1087 113.311 55.393 114.033 54.861C114.767 54.329 115.635 54.063 116.636 54.063C117.902 54.063 118.916 54.4303 119.676 55.165C120.448 55.8997 120.917 56.8813 121.082 58.11ZM116.655 56.381C115.857 56.381 115.331 56.7547 115.078 57.502C115.027 57.6667 114.983 57.8693 114.945 58.11C114.945 58.1733 114.976 58.205 115.04 58.205H118.327C118.403 58.205 118.428 58.1733 118.403 58.11C118.339 57.7427 118.308 57.5653 118.308 57.578C118.194 57.198 117.991 56.9067 117.7 56.704C117.421 56.4887 117.073 56.381 116.655 56.381ZM127.749 54.101C128.205 54.101 128.566 54.1897 128.832 54.367C128.933 54.4177 128.971 54.5127 128.946 54.652L128.547 56.818C128.534 56.97 128.445 57.0143 128.281 56.951C128.091 56.8877 127.869 56.856 127.616 56.856C127.514 56.856 127.375 56.8687 127.198 56.894C126.742 56.932 126.355 57.103 126.039 57.407C125.722 57.6983 125.564 58.091 125.564 58.585V63.772C125.564 63.8353 125.538 63.8923 125.488 63.943C125.45 63.981 125.399 64 125.336 64H123.113C123.049 64 122.992 63.981 122.942 63.943C122.904 63.8923 122.885 63.8353 122.885 63.772V54.462C122.885 54.3987 122.904 54.348 122.942 54.31C122.992 54.2593 123.049 54.234 123.113 54.234H125.336C125.399 54.234 125.45 54.2593 125.488 54.31C125.538 54.348 125.564 54.3987 125.564 54.462V55.184C125.564 55.222 125.576 55.2473 125.602 55.26C125.627 55.2727 125.646 55.2663 125.659 55.241C126.178 54.481 126.875 54.101 127.749 54.101ZM45.8161 83C45.6895 83 45.6071 82.9367 45.5691 82.81L44.9991 80.948C44.9738 80.8973 44.9421 80.872 44.9041 80.872H40.2301C40.1921 80.872 40.1605 80.8973 40.1351 80.948L39.5841 82.81C39.5461 82.9367 39.4638 83 39.3371 83H36.9241C36.8481 83 36.7911 82.981 36.7531 82.943C36.7151 82.8923 36.7088 82.8227 36.7341 82.734L40.8381 69.89C40.8761 69.7633 40.9585 69.7 41.0851 69.7H44.0681C44.1948 69.7 44.2771 69.7633 44.3151 69.89L48.4191 82.734C48.4318 82.7593 48.4381 82.791 48.4381 82.829C48.4381 82.943 48.3685 83 48.2291 83H45.8161ZM40.8191 78.687C40.8065 78.763 40.8318 78.801 40.8951 78.801H44.2391C44.3151 78.801 44.3405 78.763 44.3151 78.687L42.6051 73.044C42.5925 72.9933 42.5735 72.9743 42.5481 72.987C42.5228 72.987 42.5038 73.006 42.4911 73.044L40.8191 78.687ZM55.6828 69.928C55.6828 69.8647 55.7018 69.814 55.7398 69.776C55.7905 69.7253 55.8475 69.7 55.9108 69.7H58.1338C58.1971 69.7 58.2478 69.7253 58.2858 69.776C58.3365 69.814 58.3618 69.8647 58.3618 69.928V82.772C58.3618 82.8353 58.3365 82.8923 58.2858 82.943C58.2478 82.981 58.1971 83 58.1338 83H55.9108C55.8475 83 55.7905 82.981 55.7398 82.943C55.7018 82.8923 55.6828 82.8353 55.6828 82.772V82.145C55.6828 82.107 55.6701 82.088 55.6448 82.088C55.6195 82.0753 55.5941 82.0817 55.5688 82.107C55.0368 82.8037 54.3085 83.152 53.3838 83.152C52.4971 83.152 51.7308 82.905 51.0848 82.411C50.4515 81.917 49.9955 81.2393 49.7168 80.378C49.5015 79.7193 49.3938 78.953 49.3938 78.079C49.3938 77.1797 49.5078 76.3943 49.7358 75.723C50.0271 74.9123 50.4831 74.2727 51.1038 73.804C51.7371 73.3227 52.5161 73.082 53.4408 73.082C54.3528 73.082 55.0621 73.3987 55.5688 74.032C55.5941 74.07 55.6195 74.0827 55.6448 74.07C55.6701 74.0573 55.6828 74.032 55.6828 73.994V69.928ZM55.2838 80.036C55.5371 79.5673 55.6638 78.9277 55.6638 78.117C55.6638 77.2683 55.5245 76.6033 55.2458 76.122C54.9545 75.628 54.5301 75.381 53.9728 75.381C53.3775 75.381 52.9278 75.628 52.6238 76.122C52.3071 76.616 52.1488 77.2873 52.1488 78.136C52.1488 78.896 52.2818 79.5293 52.5478 80.036C52.8645 80.5807 53.3331 80.853 53.9538 80.853C54.5238 80.853 54.9671 80.5807 55.2838 80.036ZM64.6965 83.152C63.6325 83.152 62.7205 82.8733 61.9605 82.316C61.2005 81.7587 60.6812 80.9987 60.4025 80.036C60.2252 79.4407 60.1365 78.7947 60.1365 78.098C60.1365 77.3507 60.2252 76.6793 60.4025 76.084C60.6938 75.1467 61.2195 74.412 61.9795 73.88C62.7395 73.348 63.6515 73.082 64.7155 73.082C65.7542 73.082 66.6408 73.348 67.3755 73.88C68.1102 74.3993 68.6295 75.1277 68.9335 76.065C69.1362 76.6983 69.2375 77.3633 69.2375 78.06C69.2375 78.744 69.1488 79.3837 68.9715 79.979C68.6928 80.967 68.1735 81.746 67.4135 82.316C66.6662 82.8733 65.7605 83.152 64.6965 83.152ZM64.6965 80.853C65.1145 80.853 65.4692 80.7263 65.7605 80.473C66.0518 80.2197 66.2608 79.8713 66.3875 79.428C66.4888 79.0227 66.5395 78.5793 66.5395 78.098C66.5395 77.566 66.4888 77.1163 66.3875 76.749C66.2482 76.3183 66.0328 75.9827 65.7415 75.742C65.4502 75.5013 65.0955 75.381 64.6775 75.381C64.2468 75.381 63.8858 75.5013 63.5945 75.742C63.3158 75.9827 63.1132 76.3183 62.9865 76.749C62.8852 77.053 62.8345 77.5027 62.8345 78.098C62.8345 78.668 62.8788 79.1113 62.9675 79.428C63.0942 79.8713 63.3032 80.2197 63.5945 80.473C63.8985 80.7263 64.2658 80.853 64.6965 80.853ZM79.6807 75.856C79.9087 76.502 80.0227 77.262 80.0227 78.136C80.0227 79.01 79.9023 79.8017 79.6617 80.511C79.3703 81.3217 78.908 81.9677 78.2747 82.449C77.654 82.9177 76.8813 83.152 75.9567 83.152C75.0447 83.152 74.3353 82.8353 73.8287 82.202C73.8033 82.164 73.778 82.1513 73.7527 82.164C73.7273 82.1767 73.7147 82.202 73.7147 82.24V86.306C73.7147 86.3693 73.6893 86.42 73.6387 86.458C73.6007 86.5087 73.55 86.534 73.4867 86.534H71.2637C71.2003 86.534 71.1433 86.5087 71.0927 86.458C71.0547 86.42 71.0357 86.3693 71.0357 86.306V73.462C71.0357 73.3987 71.0547 73.348 71.0927 73.31C71.1433 73.2593 71.2003 73.234 71.2637 73.234H73.4867C73.55 73.234 73.6007 73.2593 73.6387 73.31C73.6893 73.348 73.7147 73.3987 73.7147 73.462V74.089C73.7147 74.127 73.7273 74.1523 73.7527 74.165C73.778 74.165 73.8033 74.1523 73.8287 74.127C74.3607 73.4303 75.0953 73.082 76.0327 73.082C76.9067 73.082 77.6603 73.329 78.2937 73.823C78.9397 74.3043 79.402 74.982 79.6807 75.856ZM76.7737 80.112C77.0903 79.618 77.2487 78.9467 77.2487 78.098C77.2487 77.3 77.1157 76.6667 76.8497 76.198C76.5583 75.6533 76.0897 75.381 75.4437 75.381C74.861 75.381 74.424 75.6533 74.1327 76.198C73.8667 76.654 73.7337 77.2937 73.7337 78.117C73.7337 78.9657 73.873 79.6243 74.1517 80.093C74.443 80.5997 74.8737 80.853 75.4437 80.853C76.0137 80.853 76.457 80.606 76.7737 80.112ZM87.3635 75.153C87.3635 75.2163 87.3382 75.2733 87.2875 75.324C87.2495 75.362 87.1988 75.381 87.1355 75.381H85.3115C85.2482 75.381 85.2165 75.4127 85.2165 75.476V79.504C85.2165 79.922 85.2988 80.2323 85.4635 80.435C85.6408 80.6377 85.9195 80.739 86.2995 80.739H86.9265C86.9898 80.739 87.0405 80.7643 87.0785 80.815C87.1292 80.853 87.1545 80.9037 87.1545 80.967V82.772C87.1545 82.9113 87.0785 82.9937 86.9265 83.019C86.3945 83.0443 86.0145 83.057 85.7865 83.057C84.7352 83.057 83.9498 82.886 83.4305 82.544C82.9112 82.1893 82.6452 81.5307 82.6325 80.568V75.476C82.6325 75.4127 82.6008 75.381 82.5375 75.381H81.4545C81.3912 75.381 81.3342 75.362 81.2835 75.324C81.2455 75.2733 81.2265 75.2163 81.2265 75.153V73.462C81.2265 73.3987 81.2455 73.348 81.2835 73.31C81.3342 73.2593 81.3912 73.234 81.4545 73.234H82.5375C82.6008 73.234 82.6325 73.2023 82.6325 73.139V70.878C82.6325 70.8147 82.6515 70.764 82.6895 70.726C82.7402 70.6753 82.7972 70.65 82.8605 70.65H84.9885C85.0518 70.65 85.1025 70.6753 85.1405 70.726C85.1912 70.764 85.2165 70.8147 85.2165 70.878V73.139C85.2165 73.2023 85.2482 73.234 85.3115 73.234H87.1355C87.1988 73.234 87.2495 73.2593 87.2875 73.31C87.3382 73.348 87.3635 73.3987 87.3635 73.462V75.153ZM90.4203 72.132C89.9896 72.132 89.6286 71.9927 89.3373 71.714C89.0586 71.4227 88.9193 71.0617 88.9193 70.631C88.9193 70.1877 89.0586 69.8267 89.3373 69.548C89.6159 69.2693 89.9769 69.13 90.4203 69.13C90.8636 69.13 91.2246 69.2693 91.5033 69.548C91.7819 69.8267 91.9213 70.1877 91.9213 70.631C91.9213 71.0617 91.7756 71.4227 91.4843 71.714C91.2056 71.9927 90.8509 72.132 90.4203 72.132ZM89.2803 83C89.2169 83 89.1599 82.981 89.1093 82.943C89.0713 82.8923 89.0523 82.8353 89.0523 82.772V73.443C89.0523 73.3797 89.0713 73.329 89.1093 73.291C89.1599 73.2403 89.2169 73.215 89.2803 73.215H91.5033C91.5666 73.215 91.6173 73.2403 91.6553 73.291C91.7059 73.329 91.7313 73.3797 91.7313 73.443V82.772C91.7313 82.8353 91.7059 82.8923 91.6553 82.943C91.6173 82.981 91.5666 83 91.5033 83H89.2803ZM98.1321 83.152C97.0681 83.152 96.1561 82.8733 95.3961 82.316C94.6361 81.7587 94.1167 80.9987 93.8381 80.036C93.6607 79.4407 93.5721 78.7947 93.5721 78.098C93.5721 77.3507 93.6607 76.6793 93.8381 76.084C94.1294 75.1467 94.6551 74.412 95.4151 73.88C96.1751 73.348 97.0871 73.082 98.1511 73.082C99.1897 73.082 100.076 73.348 100.811 73.88C101.546 74.3993 102.065 75.1277 102.369 76.065C102.572 76.6983 102.673 77.3633 102.673 78.06C102.673 78.744 102.584 79.3837 102.407 79.979C102.128 80.967 101.609 81.746 100.849 82.316C100.102 82.8733 99.1961 83.152 98.1321 83.152ZM98.1321 80.853C98.5501 80.853 98.9047 80.7263 99.1961 80.473C99.4874 80.2197 99.6964 79.8713 99.8231 79.428C99.9244 79.0227 99.9751 78.5793 99.9751 78.098C99.9751 77.566 99.9244 77.1163 99.8231 76.749C99.6837 76.3183 99.4684 75.9827 99.1771 75.742C98.8857 75.5013 98.5311 75.381 98.1131 75.381C97.6824 75.381 97.3214 75.5013 97.0301 75.742C96.7514 75.9827 96.5487 76.3183 96.4221 76.749C96.3207 77.053 96.2701 77.5027 96.2701 78.098C96.2701 78.668 96.3144 79.1113 96.4031 79.428C96.5297 79.8713 96.7387 80.2197 97.0301 80.473C97.3341 80.7263 97.7014 80.853 98.1321 80.853ZM109.487 73.082C110.501 73.082 111.318 73.3923 111.938 74.013C112.559 74.6337 112.869 75.476 112.869 76.54V82.772C112.869 82.8353 112.844 82.8923 112.793 82.943C112.755 82.981 112.705 83 112.641 83H110.418C110.355 83 110.298 82.981 110.247 82.943C110.209 82.8923 110.19 82.8353 110.19 82.772V77.091C110.19 76.5843 110.045 76.1727 109.753 75.856C109.475 75.5393 109.101 75.381 108.632 75.381C108.164 75.381 107.784 75.5393 107.492 75.856C107.214 76.1727 107.074 76.5843 107.074 77.091V82.772C107.074 82.8353 107.049 82.8923 106.998 82.943C106.96 82.981 106.91 83 106.846 83H104.623C104.56 83 104.503 82.981 104.452 82.943C104.414 82.8923 104.395 82.8353 104.395 82.772V73.462C104.395 73.3987 104.414 73.348 104.452 73.31C104.503 73.2593 104.56 73.234 104.623 73.234H106.846C106.91 73.234 106.96 73.2593 106.998 73.31C107.049 73.348 107.074 73.3987 107.074 73.462V74.127C107.074 74.165 107.087 74.1903 107.112 74.203C107.138 74.2157 107.157 74.2093 107.169 74.184C107.689 73.4493 108.461 73.082 109.487 73.082Z" fill="#252530"/>
<path d="M44.7824 94.928C44.8358 94.8427 44.9104 94.8 45.0064 94.8H46.4784C46.5318 94.8 46.5744 94.8213 46.6064 94.864C46.6491 94.896 46.6704 94.9387 46.6704 94.992V105.808C46.6704 105.861 46.6491 105.909 46.6064 105.952C46.5744 105.984 46.5318 106 46.4784 106H45.0064C44.9531 106 44.9051 105.984 44.8624 105.952C44.8304 105.909 44.8144 105.861 44.8144 105.808V98.176C44.8144 98.144 44.7984 98.1227 44.7664 98.112C44.7451 98.1013 44.7291 98.112 44.7184 98.144L42.7184 101.216C42.6651 101.301 42.5904 101.344 42.4944 101.344H41.7584C41.6624 101.344 41.5878 101.301 41.5344 101.216L39.5184 98.16C39.5078 98.128 39.4864 98.1173 39.4544 98.128C39.4331 98.1387 39.4224 98.16 39.4224 98.192V105.808C39.4224 105.861 39.4011 105.909 39.3584 105.952C39.3264 105.984 39.2838 106 39.2304 106H37.7584C37.7051 106 37.6571 105.984 37.6144 105.952C37.5824 105.909 37.5664 105.861 37.5664 105.808V94.992C37.5664 94.9387 37.5824 94.896 37.6144 94.864C37.6571 94.8213 37.7051 94.8 37.7584 94.8H39.2304C39.3264 94.8 39.4011 94.8427 39.4544 94.928L42.0624 98.88C42.0838 98.9013 42.1051 98.912 42.1264 98.912C42.1478 98.912 42.1638 98.9013 42.1744 98.88L44.7824 94.928ZM49.3839 96.704C49.0533 96.704 48.7813 96.5973 48.5679 96.384C48.3546 96.1707 48.2479 95.8987 48.2479 95.568C48.2479 95.2373 48.3546 94.9653 48.5679 94.752C48.7813 94.5387 49.0533 94.432 49.3839 94.432C49.7146 94.432 49.9866 94.5387 50.1999 94.752C50.4133 94.9653 50.5199 95.2373 50.5199 95.568C50.5199 95.8987 50.4133 96.1707 50.1999 96.384C49.9866 96.5973 49.7146 96.704 49.3839 96.704ZM48.6159 106C48.5626 106 48.5146 105.984 48.4719 105.952C48.4399 105.909 48.4239 105.861 48.4239 105.808V98C48.4239 97.9467 48.4399 97.904 48.4719 97.872C48.5146 97.8293 48.5626 97.808 48.6159 97.808H50.0879C50.1413 97.808 50.1839 97.8293 50.2159 97.872C50.2586 97.904 50.2799 97.9467 50.2799 98V105.808C50.2799 105.861 50.2586 105.909 50.2159 105.952C50.1839 105.984 50.1413 106 50.0879 106H48.6159ZM56.9781 94.992C56.9781 94.9387 56.9941 94.896 57.0261 94.864C57.0687 94.8213 57.1167 94.8 57.1701 94.8H58.6421C58.6954 94.8 58.7381 94.8213 58.7701 94.864C58.8127 94.896 58.8341 94.9387 58.8341 94.992V105.808C58.8341 105.861 58.8127 105.909 58.7701 105.952C58.7381 105.984 58.6954 106 58.6421 106H57.1701C57.1167 106 57.0687 105.984 57.0261 105.952C56.9941 105.909 56.9781 105.861 56.9781 105.808V105.328C56.9781 105.296 56.9674 105.275 56.9461 105.264C56.9247 105.253 56.9034 105.264 56.8821 105.296C56.4127 105.851 55.7994 106.128 55.0421 106.128C54.2847 106.128 53.6447 105.931 53.1221 105.536C52.5994 105.141 52.2207 104.592 51.9861 103.888C51.7941 103.291 51.6981 102.624 51.6981 101.888C51.6981 101.131 51.7887 100.48 51.9701 99.936C52.2047 99.232 52.5834 98.6827 53.1061 98.288C53.6287 97.8933 54.2847 97.696 55.0741 97.696C55.8101 97.696 56.4127 97.9627 56.8821 98.496C56.9034 98.5173 56.9247 98.528 56.9461 98.528C56.9674 98.5173 56.9781 98.496 56.9781 98.464V94.992ZM56.5941 103.76C56.8394 103.323 56.9621 102.704 56.9621 101.904C56.9621 101.072 56.8287 100.437 56.5621 100C56.2741 99.5307 55.8687 99.296 55.3461 99.296C54.8021 99.296 54.3754 99.52 54.0661 99.968C53.7461 100.437 53.5861 101.088 53.5861 101.92C53.5861 102.667 53.7141 103.28 53.9701 103.76C54.2687 104.272 54.7221 104.528 55.3301 104.528C55.8741 104.528 56.2954 104.272 56.5941 103.76ZM62.7587 101.984C62.7054 101.984 62.6574 101.968 62.6147 101.936C62.5827 101.893 62.5667 101.845 62.5667 101.792V100.576C62.5667 100.523 62.5827 100.48 62.6147 100.448C62.6574 100.405 62.7054 100.384 62.7587 100.384H67.7987C67.852 100.384 67.8947 100.405 67.9267 100.448C67.9694 100.48 67.9907 100.523 67.9907 100.576V101.792C67.9907 101.845 67.9694 101.893 67.9267 101.936C67.8947 101.968 67.852 101.984 67.7987 101.984H62.7587ZM76.4074 94.928C76.4608 94.8427 76.5354 94.8 76.6314 94.8H78.1034C78.1568 94.8 78.1994 94.8213 78.2314 94.864C78.2741 94.896 78.2954 94.9387 78.2954 94.992V105.808C78.2954 105.861 78.2741 105.909 78.2314 105.952C78.1994 105.984 78.1568 106 78.1034 106H76.6314C76.5781 106 76.5301 105.984 76.4874 105.952C76.4554 105.909 76.4394 105.861 76.4394 105.808V98.176C76.4394 98.144 76.4234 98.1227 76.3914 98.112C76.3701 98.1013 76.3541 98.112 76.3434 98.144L74.3434 101.216C74.2901 101.301 74.2154 101.344 74.1194 101.344H73.3834C73.2874 101.344 73.2128 101.301 73.1594 101.216L71.1434 98.16C71.1328 98.128 71.1114 98.1173 71.0794 98.128C71.0581 98.1387 71.0474 98.16 71.0474 98.192V105.808C71.0474 105.861 71.0261 105.909 70.9834 105.952C70.9514 105.984 70.9088 106 70.8554 106H69.3834C69.3301 106 69.2821 105.984 69.2394 105.952C69.2074 105.909 69.1914 105.861 69.1914 105.808V94.992C69.1914 94.9387 69.2074 94.896 69.2394 94.864C69.2821 94.8213 69.3301 94.8 69.3834 94.8H70.8554C70.9514 94.8 71.0261 94.8427 71.0794 94.928L73.6874 98.88C73.7088 98.9013 73.7301 98.912 73.7514 98.912C73.7728 98.912 73.7888 98.9013 73.7994 98.88L76.4074 94.928ZM83.0729 97.696C83.7449 97.696 84.3369 97.8133 84.8489 98.048C85.3609 98.2827 85.7556 98.608 86.0329 99.024C86.3103 99.4293 86.4489 99.8933 86.4489 100.416V105.808C86.4489 105.861 86.4276 105.909 86.3849 105.952C86.3529 105.984 86.3103 106 86.2569 106H84.7849C84.7316 106 84.6836 105.984 84.6409 105.952C84.6089 105.909 84.5929 105.861 84.5929 105.808V105.296C84.5929 105.264 84.5823 105.248 84.5609 105.248C84.5396 105.237 84.5183 105.243 84.4969 105.264C83.9743 105.84 83.2169 106.128 82.2249 106.128C81.4249 106.128 80.7636 105.925 80.2409 105.52C79.7289 105.115 79.4729 104.512 79.4729 103.712C79.4729 102.88 79.7609 102.235 80.3369 101.776C80.9236 101.307 81.7449 101.072 82.8009 101.072H84.5129C84.5663 101.072 84.5929 101.045 84.5929 100.992V100.608C84.5929 100.192 84.4703 99.872 84.2249 99.648C83.9796 99.4133 83.6116 99.296 83.1209 99.296C82.7156 99.296 82.3849 99.3707 82.1289 99.52C81.8836 99.6587 81.7289 99.856 81.6649 100.112C81.6329 100.24 81.5583 100.293 81.4409 100.272L79.8889 100.08C79.8356 100.069 79.7876 100.053 79.7449 100.032C79.7129 100 79.7023 99.9627 79.7129 99.92C79.7983 99.2693 80.1449 98.736 80.7529 98.32C81.3716 97.904 82.1449 97.696 83.0729 97.696ZM82.6889 104.656C83.2116 104.656 83.6596 104.517 84.0329 104.24C84.4063 103.963 84.5929 103.611 84.5929 103.184V102.432C84.5929 102.379 84.5663 102.352 84.5129 102.352H83.1689C82.6036 102.352 82.1556 102.459 81.8249 102.672C81.5049 102.885 81.3449 103.189 81.3449 103.584C81.3449 103.925 81.4676 104.192 81.7129 104.384C81.9689 104.565 82.2943 104.656 82.6889 104.656ZM91.6203 97.728C91.9616 97.728 92.2603 97.7973 92.5163 97.936C92.6016 97.9787 92.6336 98.0587 92.6123 98.176L92.3403 99.616C92.3296 99.744 92.255 99.7813 92.1163 99.728C91.9563 99.6747 91.7696 99.648 91.5563 99.648C91.4176 99.648 91.311 99.6533 91.2363 99.664C90.7883 99.6853 90.415 99.8453 90.1163 100.144C89.8176 100.432 89.6683 100.811 89.6683 101.28V105.808C89.6683 105.861 89.647 105.909 89.6043 105.952C89.5723 105.984 89.5296 106 89.4763 106H88.0043C87.951 106 87.903 105.984 87.8603 105.952C87.8283 105.909 87.8123 105.861 87.8123 105.808V98.016C87.8123 97.9627 87.8283 97.92 87.8603 97.888C87.903 97.8453 87.951 97.824 88.0043 97.824H89.4763C89.5296 97.824 89.5723 97.8453 89.6043 97.888C89.647 97.92 89.6683 97.9627 89.6683 98.016V98.736C89.6683 98.7787 89.6736 98.8053 89.6843 98.816C89.7056 98.816 89.727 98.8 89.7483 98.768C90.1963 98.0747 90.8203 97.728 91.6203 97.728ZM93.5199 106C93.4666 106 93.4186 105.984 93.3759 105.952C93.3439 105.909 93.3279 105.861 93.3279 105.808V94.992C93.3279 94.9387 93.3439 94.896 93.3759 94.864C93.4186 94.8213 93.4666 94.8 93.5199 94.8H94.9919C95.0453 94.8 95.0879 94.8213 95.1199 94.864C95.1626 94.896 95.1839 94.9387 95.1839 94.992V100.768C95.1839 100.8 95.1946 100.821 95.2159 100.832C95.2373 100.843 95.2586 100.832 95.2799 100.8L97.8719 97.936C97.9466 97.8613 98.0266 97.824 98.1119 97.824H99.8079C99.9146 97.824 99.9679 97.8613 99.9679 97.936C99.9679 97.968 99.9519 98.0107 99.9199 98.064L97.8879 100.496C97.8559 100.528 97.8506 100.565 97.8719 100.608L100.272 105.776C100.293 105.819 100.304 105.851 100.304 105.872C100.304 105.957 100.245 106 100.128 106H98.5759C98.4693 106 98.3946 105.952 98.3519 105.856L96.6079 101.792C96.5973 101.771 96.5759 101.76 96.5439 101.76C96.5226 101.749 96.5066 101.755 96.4959 101.776L95.2159 103.248C95.1946 103.291 95.1839 103.328 95.1839 103.36V105.808C95.1839 105.861 95.1626 105.909 95.1199 105.952C95.0879 105.984 95.0453 106 94.9919 106H93.5199ZM107.505 100.992C107.548 101.259 107.569 101.557 107.569 101.888L107.553 102.384C107.553 102.512 107.489 102.576 107.361 102.576H102.353C102.3 102.576 102.273 102.603 102.273 102.656C102.305 103.008 102.353 103.248 102.417 103.376C102.673 104.144 103.297 104.533 104.289 104.544C105.015 104.544 105.591 104.245 106.017 103.648C106.06 103.584 106.113 103.552 106.177 103.552C106.22 103.552 106.257 103.568 106.289 103.6L107.281 104.416C107.377 104.491 107.393 104.576 107.329 104.672C106.999 105.141 106.556 105.504 106.001 105.76C105.457 106.016 104.849 106.144 104.177 106.144C103.345 106.144 102.636 105.957 102.049 105.584C101.473 105.211 101.052 104.688 100.785 104.016C100.54 103.44 100.417 102.64 100.417 101.616C100.417 100.997 100.481 100.496 100.609 100.112C100.823 99.3653 101.223 98.7787 101.809 98.352C102.407 97.9147 103.121 97.696 103.953 97.696C106.055 97.696 107.239 98.7947 107.505 100.992ZM103.953 99.296C103.559 99.296 103.228 99.3973 102.961 99.6C102.705 99.792 102.524 100.064 102.417 100.416C102.353 100.597 102.311 100.832 102.289 101.12C102.268 101.173 102.289 101.2 102.353 101.2H105.601C105.655 101.2 105.681 101.173 105.681 101.12C105.66 100.853 105.628 100.651 105.585 100.512C105.489 100.128 105.297 99.8293 105.009 99.616C104.732 99.4027 104.38 99.296 103.953 99.296ZM112.945 99.136C112.945 99.1893 112.924 99.2373 112.881 99.28C112.849 99.312 112.807 99.328 112.753 99.328H111.121C111.068 99.328 111.041 99.3547 111.041 99.408V103.264C111.041 103.669 111.127 103.963 111.297 104.144C111.479 104.325 111.761 104.416 112.145 104.416H112.625C112.679 104.416 112.721 104.437 112.753 104.48C112.796 104.512 112.817 104.555 112.817 104.608V105.808C112.817 105.925 112.753 105.995 112.625 106.016L111.793 106.032C110.951 106.032 110.321 105.888 109.905 105.6C109.489 105.312 109.276 104.768 109.265 103.968V99.408C109.265 99.3547 109.239 99.328 109.185 99.328H108.273C108.22 99.328 108.172 99.312 108.129 99.28C108.097 99.2373 108.081 99.1893 108.081 99.136V98.016C108.081 97.9627 108.097 97.92 108.129 97.888C108.172 97.8453 108.22 97.824 108.273 97.824H109.185C109.239 97.824 109.265 97.7973 109.265 97.744V95.872C109.265 95.8187 109.281 95.776 109.313 95.744C109.356 95.7013 109.404 95.68 109.457 95.68H110.849C110.903 95.68 110.945 95.7013 110.977 95.744C111.02 95.776 111.041 95.8187 111.041 95.872V97.744C111.041 97.7973 111.068 97.824 111.121 97.824H112.753C112.807 97.824 112.849 97.8453 112.881 97.888C112.924 97.92 112.945 97.9627 112.945 98.016V99.136Z" fill="white"/>
<path d="M49.7529 131C49.6355 131 49.5609 130.947 49.5289 130.84L46.6969 120.008L46.6809 119.944C46.6809 119.848 46.7395 119.8 46.8569 119.8H48.8409C48.9475 119.8 49.0169 119.853 49.0489 119.96L50.5689 126.472C50.5795 126.515 50.5955 126.536 50.6169 126.536C50.6382 126.536 50.6542 126.515 50.6649 126.472L52.1369 119.976C52.1689 119.859 52.2382 119.8 52.3449 119.8H54.2809C54.3982 119.8 54.4729 119.853 54.5049 119.96L56.1049 126.472C56.1155 126.504 56.1315 126.525 56.1529 126.536C56.1742 126.536 56.1902 126.515 56.2009 126.472L57.6729 119.976C57.7049 119.859 57.7742 119.8 57.8809 119.8H59.7689C59.9182 119.8 59.9769 119.869 59.9449 120.008L57.3209 130.84C57.2889 130.947 57.2142 131 57.0969 131H55.1929C55.0862 131 55.0169 130.947 54.9849 130.84L53.3529 123.912C53.3422 123.869 53.3262 123.848 53.3049 123.848C53.2835 123.848 53.2675 123.869 53.2569 123.912L51.7369 130.824C51.7155 130.941 51.6462 131 51.5289 131H49.7529ZM61.4961 131C61.4428 131 61.3948 130.984 61.3521 130.952C61.3201 130.909 61.3041 130.861 61.3041 130.808V119.992C61.3041 119.939 61.3201 119.896 61.3521 119.864C61.3948 119.821 61.4428 119.8 61.4961 119.8H63.3681C63.4215 119.8 63.4641 119.821 63.4961 119.864C63.5388 119.896 63.5601 119.939 63.5601 119.992V130.808C63.5601 130.861 63.5388 130.909 63.4961 130.952C63.4641 130.984 63.4215 131 63.3681 131H61.4961ZM71.9393 119.992C71.9393 119.939 71.9553 119.896 71.9873 119.864C72.0299 119.821 72.0779 119.8 72.1313 119.8H74.0033C74.0566 119.8 74.0993 119.821 74.1313 119.864C74.1739 119.896 74.1953 119.939 74.1953 119.992V130.808C74.1953 130.861 74.1739 130.909 74.1313 130.952C74.0993 130.984 74.0566 131 74.0033 131H72.1953C72.0886 131 72.0139 130.957 71.9713 130.872L67.8273 124.024C67.8059 123.992 67.7846 123.981 67.7633 123.992C67.7419 123.992 67.7313 124.013 67.7313 124.056L67.7633 130.808C67.7633 130.861 67.7419 130.909 67.6993 130.952C67.6673 130.984 67.6246 131 67.5713 131H65.6993C65.6459 131 65.5979 130.984 65.5553 130.952C65.5233 130.909 65.5073 130.861 65.5073 130.808V119.992C65.5073 119.939 65.5233 119.896 65.5553 119.864C65.5979 119.821 65.6459 119.8 65.6993 119.8H67.5073C67.6139 119.8 67.6886 119.843 67.7313 119.928L71.8593 126.744C71.8806 126.776 71.9019 126.792 71.9233 126.792C71.9446 126.781 71.9553 126.755 71.9553 126.712L71.9393 119.992ZM83.8759 119.8C83.9292 119.8 83.9719 119.821 84.0039 119.864C84.0465 119.896 84.0679 119.939 84.0679 119.992V121.56C84.0679 121.613 84.0465 121.661 84.0039 121.704C83.9719 121.736 83.9292 121.752 83.8759 121.752H81.0119C80.9585 121.752 80.9319 121.779 80.9319 121.832V130.808C80.9319 130.861 80.9105 130.909 80.8679 130.952C80.8359 130.984 80.7932 131 80.7399 131H78.8679C78.8145 131 78.7665 130.984 78.7239 130.952C78.6919 130.909 78.6759 130.861 78.6759 130.808V121.832C78.6759 121.779 78.6492 121.752 78.5959 121.752H75.8119C75.7585 121.752 75.7105 121.736 75.6679 121.704C75.6359 121.661 75.6199 121.613 75.6199 121.56V119.992C75.6199 119.939 75.6359 119.896 75.6679 119.864C75.7105 119.821 75.7585 119.8 75.8119 119.8H83.8759ZM93.2833 121.544C93.2833 121.597 93.2619 121.645 93.2193 121.688C93.1873 121.72 93.1446 121.736 93.0913 121.736H87.8433C87.7899 121.736 87.7633 121.763 87.7633 121.816V124.296C87.7633 124.349 87.7899 124.376 87.8433 124.376H91.2833C91.3366 124.376 91.3793 124.397 91.4113 124.44C91.4539 124.472 91.4753 124.515 91.4753 124.568V126.12C91.4753 126.173 91.4539 126.221 91.4113 126.264C91.3793 126.296 91.3366 126.312 91.2833 126.312H87.8433C87.7899 126.312 87.7633 126.339 87.7633 126.392V128.984C87.7633 129.037 87.7899 129.064 87.8433 129.064H93.0913C93.1446 129.064 93.1873 129.085 93.2193 129.128C93.2619 129.16 93.2833 129.203 93.2833 129.256V130.808C93.2833 130.861 93.2619 130.909 93.2193 130.952C93.1873 130.984 93.1446 131 93.0913 131H85.6993C85.6459 131 85.5979 130.984 85.5553 130.952C85.5233 130.909 85.5073 130.861 85.5073 130.808V119.992C85.5073 119.939 85.5233 119.896 85.5553 119.864C85.5979 119.821 85.6459 119.8 85.6993 119.8H93.0913C93.1446 119.8 93.1873 119.821 93.2193 119.864C93.2619 119.896 93.2833 119.939 93.2833 119.992V121.544ZM100.995 131C100.888 131 100.814 130.952 100.771 130.856L98.771 126.424C98.7497 126.381 98.7177 126.36 98.675 126.36H97.187C97.1337 126.36 97.107 126.387 97.107 126.44V130.808C97.107 130.861 97.0857 130.909 97.043 130.952C97.011 130.984 96.9683 131 96.915 131H95.043C94.9897 131 94.9417 130.984 94.899 130.952C94.867 130.909 94.851 130.861 94.851 130.808V119.992C94.851 119.939 94.867 119.896 94.899 119.864C94.9417 119.821 94.9897 119.8 95.043 119.8H99.619C100.302 119.8 100.899 119.939 101.411 120.216C101.934 120.493 102.334 120.888 102.611 121.4C102.899 121.912 103.043 122.504 103.043 123.176C103.043 123.901 102.862 124.525 102.499 125.048C102.136 125.56 101.63 125.923 100.979 126.136C100.926 126.157 100.91 126.195 100.931 126.248L103.107 130.776C103.128 130.819 103.139 130.851 103.139 130.872C103.139 130.957 103.08 131 102.963 131H100.995ZM97.187 121.736C97.1337 121.736 97.107 121.763 97.107 121.816V124.552C97.107 124.605 97.1337 124.632 97.187 124.632H99.283C99.731 124.632 100.094 124.499 100.371 124.232C100.659 123.965 100.803 123.619 100.803 123.192C100.803 122.765 100.659 122.419 100.371 122.152C100.094 121.875 99.731 121.736 99.283 121.736H97.187Z" fill="#252530"/>
<path d="M61.0014 144.968C60.9801 144.989 60.9748 145.011 60.9854 145.032C60.9961 145.053 61.0174 145.064 61.0494 145.064H65.3854C65.4388 145.064 65.4814 145.085 65.5134 145.128C65.5561 145.16 65.5774 145.203 65.5774 145.256V146.808C65.5774 146.861 65.5561 146.909 65.5134 146.952C65.4814 146.984 65.4388 147 65.3854 147H58.1854C58.1321 147 58.0841 146.984 58.0414 146.952C58.0094 146.909 57.9934 146.861 57.9934 146.808V145.336C57.9934 145.24 58.0254 145.16 58.0894 145.096C58.6121 144.584 59.1454 144.029 59.6894 143.432C60.2334 142.824 60.5748 142.445 60.7134 142.296C61.0121 141.944 61.3161 141.608 61.6254 141.288C62.5961 140.211 63.0814 139.411 63.0814 138.888C63.0814 138.515 62.9481 138.211 62.6814 137.976C62.4148 137.731 62.0681 137.608 61.6414 137.608C61.2148 137.608 60.8681 137.731 60.6014 137.976C60.3348 138.211 60.2014 138.525 60.2014 138.92V139.32C60.2014 139.373 60.1801 139.421 60.1374 139.464C60.1054 139.496 60.0628 139.512 60.0094 139.512H58.1214C58.0681 139.512 58.0201 139.496 57.9774 139.464C57.9454 139.421 57.9294 139.373 57.9294 139.32V138.568C57.9614 137.992 58.1428 137.485 58.4734 137.048C58.8041 136.6 59.2414 136.259 59.7854 136.024C60.3401 135.789 60.9588 135.672 61.6414 135.672C62.3988 135.672 63.0548 135.816 63.6094 136.104C64.1748 136.381 64.6068 136.76 64.9054 137.24C65.2148 137.72 65.3694 138.253 65.3694 138.84C65.3694 139.288 65.2574 139.747 65.0334 140.216C64.8094 140.685 64.4734 141.192 64.0254 141.736C63.6948 142.152 63.3374 142.563 62.9534 142.968C62.5694 143.373 61.9988 143.96 61.2414 144.728L61.0014 144.968ZM70.7706 147.176C69.5972 147.176 68.6692 146.851 67.9866 146.2C67.3039 145.539 66.9626 144.643 66.9626 143.512V139.288C66.9626 138.179 67.3039 137.299 67.9866 136.648C68.6692 135.997 69.5972 135.672 70.7706 135.672C71.9439 135.672 72.8719 135.997 73.5546 136.648C74.2479 137.299 74.5946 138.179 74.5946 139.288V143.512C74.5946 144.643 74.2479 145.539 73.5546 146.2C72.8719 146.851 71.9439 147.176 70.7706 147.176ZM70.7706 145.24C71.2506 145.24 71.6292 145.096 71.9066 144.808C72.1946 144.509 72.3386 144.115 72.3386 143.624V139.224C72.3386 138.733 72.1946 138.344 71.9066 138.056C71.6292 137.757 71.2506 137.608 70.7706 137.608C70.3012 137.608 69.9226 137.757 69.6346 138.056C69.3572 138.344 69.2186 138.733 69.2186 139.224V143.624C69.2186 144.115 69.3572 144.509 69.6346 144.808C69.9226 145.096 70.3012 145.24 70.7706 145.24ZM79.0796 144.968C79.0582 144.989 79.0529 145.011 79.0636 145.032C79.0742 145.053 79.0956 145.064 79.1276 145.064H83.4636C83.5169 145.064 83.5596 145.085 83.5916 145.128C83.6342 145.16 83.6556 145.203 83.6556 145.256V146.808C83.6556 146.861 83.6342 146.909 83.5916 146.952C83.5596 146.984 83.5169 147 83.4636 147H76.2636C76.2102 147 76.1622 146.984 76.1196 146.952C76.0876 146.909 76.0716 146.861 76.0716 146.808V145.336C76.0716 145.24 76.1036 145.16 76.1676 145.096C76.6902 144.584 77.2236 144.029 77.7676 143.432C78.3116 142.824 78.6529 142.445 78.7916 142.296C79.0902 141.944 79.3942 141.608 79.7036 141.288C80.6742 140.211 81.1596 139.411 81.1596 138.888C81.1596 138.515 81.0262 138.211 80.7596 137.976C80.4929 137.731 80.1462 137.608 79.7196 137.608C79.2929 137.608 78.9462 137.731 78.6796 137.976C78.4129 138.211 78.2796 138.525 78.2796 138.92V139.32C78.2796 139.373 78.2582 139.421 78.2156 139.464C78.1836 139.496 78.1409 139.512 78.0876 139.512H76.1996C76.1462 139.512 76.0982 139.496 76.0556 139.464C76.0236 139.421 76.0076 139.373 76.0076 139.32V138.568C76.0396 137.992 76.2209 137.485 76.5516 137.048C76.8822 136.6 77.3196 136.259 77.8636 136.024C78.4182 135.789 79.0369 135.672 79.7196 135.672C80.4769 135.672 81.1329 135.816 81.6876 136.104C82.2529 136.381 82.6849 136.76 82.9836 137.24C83.2929 137.72 83.4476 138.253 83.4476 138.84C83.4476 139.288 83.3356 139.747 83.1116 140.216C82.8876 140.685 82.5516 141.192 82.1036 141.736C81.7729 142.152 81.4156 142.563 81.0316 142.968C80.6476 143.373 80.0769 143.96 79.3196 144.728L79.0796 144.968ZM91.7179 141.656C91.9313 142.147 92.0379 142.712 92.0379 143.352C92.0379 143.928 91.9419 144.461 91.7499 144.952C91.4939 145.635 91.0619 146.168 90.4539 146.552C89.8566 146.936 89.1473 147.128 88.3259 147.128C87.5153 147.128 86.8006 146.925 86.1819 146.52C85.5739 146.115 85.1366 145.565 84.8699 144.872C84.7206 144.456 84.6353 144.008 84.6139 143.528C84.6139 143.4 84.6779 143.336 84.8059 143.336H86.6939C86.8219 143.336 86.8859 143.4 86.8859 143.528C86.9286 143.88 86.9873 144.141 87.0619 144.312C87.1579 144.589 87.3126 144.808 87.5259 144.968C87.7499 145.117 88.0113 145.192 88.3099 145.192C88.9073 145.192 89.3179 144.931 89.5419 144.408C89.6913 144.088 89.7659 143.715 89.7659 143.288C89.7659 142.787 89.6859 142.376 89.5259 142.056C89.2806 141.555 88.8699 141.304 88.2939 141.304C88.1766 141.304 88.0539 141.341 87.9259 141.416C87.7979 141.48 87.6433 141.576 87.4619 141.704C87.4193 141.736 87.3766 141.752 87.3339 141.752C87.2699 141.752 87.2219 141.72 87.1899 141.656L86.2459 140.328C86.2246 140.296 86.2139 140.259 86.2139 140.216C86.2139 140.152 86.2353 140.099 86.2779 140.056L88.8219 137.832C88.8433 137.811 88.8486 137.789 88.8379 137.768C88.8379 137.747 88.8219 137.736 88.7899 137.736H85.0299C84.9766 137.736 84.9286 137.72 84.8859 137.688C84.8539 137.645 84.8379 137.597 84.8379 137.544V135.992C84.8379 135.939 84.8539 135.896 84.8859 135.864C84.9286 135.821 84.9766 135.8 85.0299 135.8H91.7019C91.7553 135.8 91.7979 135.821 91.8299 135.864C91.8726 135.896 91.8939 135.939 91.8939 135.992V137.752C91.8939 137.837 91.8566 137.917 91.7819 137.992L89.6859 139.912C89.6646 139.933 89.6539 139.955 89.6539 139.976C89.6646 139.997 89.6913 140.008 89.7339 140.008C90.6619 140.189 91.3233 140.739 91.7179 141.656Z" fill="#252530"/>
</g>
<defs>
<clipPath id="clip0_15_359">
<rect width="150" height="168" fill="white"/>
</clipPath>
</defs>
</svg>
