<svg width="150" height="168" viewBox="0 0 150 168" fill="none" xmlns="http://www.w3.org/2000/svg">
<g clip-path="url(#clip0_15_599)">
<path d="M10 132.9V2H139V132.9L74.45 165.76L10 132.9Z" fill="white"/>
<path d="M137 4V131.67L74.45 163.51L12 131.67V4H137ZM141 0H8V134.12L74.45 168L141 134.12V0Z" fill="#DCDEDC"/>
<path d="M12.22 131.78L74.43 163.5L137 131.7V4.68005L12.22 131.78Z" fill="#F2F3F2"/>
<path d="M144.98 90H5.16966L0 101L5.16966 112H144.99L150 101L144.98 90Z" fill="#2690CE"/>
<path d="M75.0778 6.12022C75.7101 6.12022 76.3327 6.12022 76.965 6.27565L75.0778 9.87978C72.2471 9.72435 69.7374 11.9199 69.5817 14.7468C69.4261 17.5738 71.6245 20.0801 74.4553 20.2356H75.0875C76.3424 20.2356 77.5973 19.7693 78.5409 18.9824L80.5837 22.4311C79.0175 23.5288 77.1303 24.1603 75.0875 24.1603C70.0584 24.3157 65.8171 20.5562 65.6615 15.5337C65.5058 10.5112 69.2704 6.27565 74.2996 6.12022H75.0875H75.0778ZM81.5175 13.8045L83.8716 17.7292L81.5175 21.4985L79.3191 17.7292H74.7665L77.1206 13.8045H81.5175ZM77.7432 12.3959C77.7432 11.7644 77.8988 11.1427 78.2101 10.6667C78.5214 10.1906 79.1537 9.72435 79.6206 9.41348L79.9319 9.25805C80.5642 8.94718 80.7198 8.79174 80.7198 8.47116C80.7198 8.15058 80.2529 7.83971 79.9319 7.83971C79.2996 7.83971 78.8327 8.15058 78.5214 8.78203L77.7335 7.99514C77.8891 7.68427 78.2004 7.36369 78.5214 7.05282C78.9883 6.74196 79.465 6.74196 79.9319 6.74196C80.3988 6.74196 81.0311 6.89739 81.3424 7.20826C81.6537 7.51913 81.9747 7.99514 81.9747 8.46145C81.9747 9.24833 81.5078 9.87007 80.5642 10.1906L80.0973 10.5015C79.6303 10.8124 79.3093 10.9678 79.1537 11.4438H81.9844V12.5416L77.7432 12.3862V12.3959ZM75.0778 32L90 23.5288V0H60V23.3734L75.0778 32Z" fill="#FF492C"/>
<path d="M65.2319 53.544C65.2919 53.448 65.3759 53.4 65.4839 53.4H67.5899C67.6499 53.4 67.6979 53.424 67.7339 53.472C67.7819 53.508 67.8059 53.556 67.8059 53.616V65.784C67.8059 65.844 67.7819 65.898 67.7339 65.946C67.6979 65.982 67.6499 66 67.5899 66H65.4839C65.4239 66 65.3699 65.982 65.3219 65.946C65.2859 65.898 65.2679 65.844 65.2679 65.784V57.846C65.2679 57.798 65.2559 57.774 65.2319 57.774C65.2079 57.774 65.1839 57.792 65.1599 57.828L63.2519 60.816C63.1919 60.912 63.1079 60.96 62.9999 60.96H61.9379C61.8299 60.96 61.7459 60.912 61.6859 60.816L59.7779 57.828C59.7539 57.792 59.7299 57.78 59.7059 57.792C59.6819 57.792 59.6699 57.816 59.6699 57.864V65.784C59.6699 65.844 59.6459 65.898 59.5979 65.946C59.5619 65.982 59.5139 66 59.4539 66H57.3479C57.2879 66 57.2339 65.982 57.1859 65.946C57.1499 65.898 57.1319 65.844 57.1319 65.784V53.616C57.1319 53.556 57.1499 53.508 57.1859 53.472C57.2339 53.424 57.2879 53.4 57.3479 53.4H59.4539C59.5619 53.4 59.6459 53.448 59.7059 53.544L62.4059 57.738C62.4419 57.81 62.4779 57.81 62.5139 57.738L65.2319 53.544ZM73.6531 66.144C72.6451 66.144 71.7811 65.88 71.0611 65.352C70.3411 64.824 69.8491 64.104 69.5851 63.192C69.4171 62.628 69.3331 62.016 69.3331 61.356C69.3331 60.648 69.4171 60.012 69.5851 59.448C69.8611 58.56 70.3591 57.864 71.0791 57.36C71.7991 56.856 72.6631 56.604 73.6711 56.604C74.6551 56.604 75.4951 56.856 76.1911 57.36C76.8871 57.852 77.3791 58.542 77.6671 59.43C77.8591 60.03 77.9551 60.66 77.9551 61.32C77.9551 61.968 77.8711 62.574 77.7031 63.138C77.4391 64.074 76.9471 64.812 76.2271 65.352C75.5191 65.88 74.6611 66.144 73.6531 66.144ZM73.6531 63.966C74.0491 63.966 74.3851 63.846 74.6611 63.606C74.9371 63.366 75.1351 63.036 75.2551 62.616C75.3511 62.232 75.3991 61.812 75.3991 61.356C75.3991 60.852 75.3511 60.426 75.2551 60.078C75.1231 59.67 74.9191 59.352 74.6431 59.124C74.3671 58.896 74.0311 58.782 73.6351 58.782C73.2271 58.782 72.8851 58.896 72.6091 59.124C72.3451 59.352 72.1531 59.67 72.0331 60.078C71.9371 60.366 71.8891 60.792 71.8891 61.356C71.8891 61.896 71.9311 62.316 72.0151 62.616C72.1351 63.036 72.3331 63.366 72.6091 63.606C72.8971 63.846 73.2451 63.966 73.6531 63.966ZM83.0066 66.126C82.2026 66.126 81.5006 66.012 80.9006 65.784C80.3006 65.556 79.8326 65.238 79.4966 64.83C79.1726 64.422 79.0106 63.96 79.0106 63.444V63.264C79.0106 63.204 79.0286 63.156 79.0646 63.12C79.1126 63.072 79.1666 63.048 79.2266 63.048H81.2246C81.2846 63.048 81.3326 63.072 81.3686 63.12C81.4166 63.156 81.4406 63.204 81.4406 63.264V63.282C81.4406 63.546 81.5846 63.774 81.8726 63.966C82.1726 64.146 82.5446 64.236 82.9886 64.236C83.3966 64.236 83.7266 64.158 83.9786 64.002C84.2306 63.834 84.3566 63.63 84.3566 63.39C84.3566 63.174 84.2486 63.012 84.0326 62.904C83.8166 62.796 83.4626 62.682 82.9706 62.562C82.4066 62.418 81.9626 62.28 81.6386 62.148C80.8706 61.884 80.2586 61.56 79.8026 61.176C79.3466 60.792 79.1186 60.24 79.1186 59.52C79.1186 58.632 79.4606 57.93 80.1446 57.414C80.8406 56.886 81.7586 56.622 82.8986 56.622C83.6666 56.622 84.3386 56.748 84.9146 57C85.4906 57.24 85.9346 57.582 86.2466 58.026C86.5706 58.47 86.7326 58.974 86.7326 59.538C86.7326 59.598 86.7086 59.652 86.6606 59.7C86.6246 59.736 86.5766 59.754 86.5166 59.754H84.5906C84.5306 59.754 84.4766 59.736 84.4286 59.7C84.3926 59.652 84.3746 59.598 84.3746 59.538C84.3746 59.274 84.2366 59.052 83.9606 58.872C83.6966 58.692 83.3426 58.602 82.8986 58.602C82.5026 58.602 82.1786 58.674 81.9266 58.818C81.6746 58.962 81.5486 59.16 81.5486 59.412C81.5486 59.652 81.6686 59.832 81.9086 59.952C82.1606 60.072 82.5746 60.198 83.1506 60.33C83.2826 60.366 83.4326 60.408 83.6006 60.456C83.7686 60.492 83.9486 60.54 84.1406 60.6C84.9926 60.852 85.6646 61.176 86.1566 61.572C86.6486 61.968 86.8946 62.544 86.8946 63.3C86.8946 64.188 86.5406 64.884 85.8326 65.388C85.1366 65.88 84.1946 66.126 83.0066 66.126ZM93.3742 58.566C93.3742 58.626 93.3502 58.68 93.3022 58.728C93.2662 58.764 93.2182 58.782 93.1582 58.782H91.4302C91.3702 58.782 91.3402 58.812 91.3402 58.872V62.688C91.3402 63.084 91.4182 63.378 91.5742 63.57C91.7422 63.762 92.0062 63.858 92.3662 63.858H92.9602C93.0202 63.858 93.0682 63.882 93.1042 63.93C93.1522 63.966 93.1762 64.014 93.1762 64.074V65.784C93.1762 65.916 93.1042 65.994 92.9602 66.018C92.4562 66.042 92.0962 66.054 91.8802 66.054C90.8842 66.054 90.1402 65.892 89.6482 65.568C89.1562 65.232 88.9042 64.608 88.8922 63.696V58.872C88.8922 58.812 88.8622 58.782 88.8022 58.782H87.7762C87.7162 58.782 87.6622 58.764 87.6142 58.728C87.5782 58.68 87.5602 58.626 87.5602 58.566V56.964C87.5602 56.904 87.5782 56.856 87.6142 56.82C87.6622 56.772 87.7162 56.748 87.7762 56.748H88.8022C88.8622 56.748 88.8922 56.718 88.8922 56.658V54.516C88.8922 54.456 88.9102 54.408 88.9462 54.372C88.9942 54.324 89.0482 54.3 89.1082 54.3H91.1242C91.1842 54.3 91.2322 54.324 91.2682 54.372C91.3162 54.408 91.3402 54.456 91.3402 54.516V56.658C91.3402 56.718 91.3702 56.748 91.4302 56.748H93.1582C93.2182 56.748 93.2662 56.772 93.3022 56.82C93.3502 56.856 93.3742 56.904 93.3742 56.964V58.566ZM18.1244 83C18.0644 83 18.0104 82.982 17.9624 82.946C17.9264 82.898 17.9084 82.844 17.9084 82.784V70.616C17.9084 70.556 17.9264 70.508 17.9624 70.472C18.0104 70.424 18.0644 70.4 18.1244 70.4H20.2304C20.2904 70.4 20.3384 70.424 20.3744 70.472C20.4224 70.508 20.4464 70.556 20.4464 70.616V82.784C20.4464 82.844 20.4224 82.898 20.3744 82.946C20.3384 82.982 20.2904 83 20.2304 83H18.1244ZM32.4649 73.604C33.4009 73.604 34.1329 73.886 34.6609 74.45C35.1889 75.014 35.4529 75.806 35.4529 76.826V82.784C35.4529 82.844 35.4289 82.898 35.3809 82.946C35.3449 82.982 35.2969 83 35.2369 83H33.1309C33.0709 83 33.0169 82.982 32.9689 82.946C32.9329 82.898 32.9149 82.844 32.9149 82.784V77.384C32.9149 76.892 32.7889 76.502 32.5369 76.214C32.2849 75.926 31.9489 75.782 31.5289 75.782C31.1089 75.782 30.7669 75.926 30.5029 76.214C30.2389 76.502 30.1069 76.886 30.1069 77.366V82.784C30.1069 82.844 30.0829 82.898 30.0349 82.946C29.9989 82.982 29.9509 83 29.8909 83H27.8029C27.7429 83 27.6889 82.982 27.6409 82.946C27.6049 82.898 27.5869 82.844 27.5869 82.784V77.384C27.5869 76.904 27.4549 76.52 27.1909 76.232C26.9269 75.932 26.5849 75.782 26.1649 75.782C25.7809 75.782 25.4569 75.896 25.1929 76.124C24.9409 76.352 24.7909 76.67 24.7429 77.078V82.784C24.7429 82.844 24.7189 82.898 24.6709 82.946C24.6349 82.982 24.5869 83 24.5269 83H22.4209C22.3609 83 22.3069 82.982 22.2589 82.946C22.2229 82.898 22.2049 82.844 22.2049 82.784V73.964C22.2049 73.904 22.2229 73.856 22.2589 73.82C22.3069 73.772 22.3609 73.748 22.4209 73.748H24.5269C24.5869 73.748 24.6349 73.772 24.6709 73.82C24.7189 73.856 24.7429 73.904 24.7429 73.964V74.666C24.7429 74.702 24.7549 74.726 24.7789 74.738C24.8029 74.75 24.8269 74.738 24.8509 74.702C25.3429 73.97 26.1049 73.604 27.1369 73.604C27.7369 73.604 28.2589 73.73 28.7029 73.982C29.1589 74.234 29.5069 74.594 29.7469 75.062C29.7829 75.134 29.8249 75.134 29.8729 75.062C30.1369 74.57 30.4909 74.204 30.9349 73.964C31.3909 73.724 31.9009 73.604 32.4649 73.604ZM45.2262 76.232C45.4422 76.844 45.5502 77.564 45.5502 78.392C45.5502 79.22 45.4362 79.97 45.2082 80.642C44.9322 81.41 44.4942 82.022 43.8942 82.478C43.3062 82.922 42.5742 83.144 41.6982 83.144C40.8342 83.144 40.1622 82.844 39.6822 82.244C39.6582 82.208 39.6342 82.196 39.6102 82.208C39.5862 82.22 39.5742 82.244 39.5742 82.28V86.132C39.5742 86.192 39.5502 86.24 39.5022 86.276C39.4662 86.324 39.4182 86.348 39.3582 86.348H37.2522C37.1922 86.348 37.1382 86.324 37.0902 86.276C37.0542 86.24 37.0362 86.192 37.0362 86.132V73.964C37.0362 73.904 37.0542 73.856 37.0902 73.82C37.1382 73.772 37.1922 73.748 37.2522 73.748H39.3582C39.4182 73.748 39.4662 73.772 39.5022 73.82C39.5502 73.856 39.5742 73.904 39.5742 73.964V74.558C39.5742 74.594 39.5862 74.618 39.6102 74.63C39.6342 74.63 39.6582 74.618 39.6822 74.594C40.1862 73.934 40.8822 73.604 41.7702 73.604C42.5982 73.604 43.3122 73.838 43.9122 74.306C44.5242 74.762 44.9622 75.404 45.2262 76.232ZM42.4722 80.264C42.7722 79.796 42.9222 79.16 42.9222 78.356C42.9222 77.6 42.7962 77 42.5442 76.556C42.2682 76.04 41.8242 75.782 41.2122 75.782C40.6602 75.782 40.2462 76.04 39.9702 76.556C39.7182 76.988 39.5922 77.594 39.5922 78.374C39.5922 79.178 39.7242 79.802 39.9882 80.246C40.2642 80.726 40.6722 80.966 41.2122 80.966C41.7522 80.966 42.1722 80.732 42.4722 80.264ZM47.1407 83C47.0807 83 47.0267 82.982 46.9787 82.946C46.9427 82.898 46.9247 82.844 46.9247 82.784V70.616C46.9247 70.556 46.9427 70.508 46.9787 70.472C47.0267 70.424 47.0807 70.4 47.1407 70.4H49.2467C49.3067 70.4 49.3547 70.424 49.3907 70.472C49.4387 70.508 49.4627 70.556 49.4627 70.616V82.784C49.4627 82.844 49.4387 82.898 49.3907 82.946C49.3547 82.982 49.3067 83 49.2467 83H47.1407ZM59.2392 77.42C59.3112 77.876 59.3352 78.386 59.3112 78.95C59.2992 79.094 59.2212 79.166 59.0772 79.166H53.5152C53.4432 79.166 53.4192 79.196 53.4432 79.256C53.4792 79.496 53.5452 79.736 53.6412 79.976C53.9532 80.648 54.5892 80.984 55.5492 80.984C56.3172 80.972 56.9232 80.66 57.3672 80.048C57.4152 79.976 57.4692 79.94 57.5292 79.94C57.5652 79.94 57.6072 79.964 57.6552 80.012L58.9512 81.29C59.0112 81.35 59.0412 81.404 59.0412 81.452C59.0412 81.476 59.0172 81.524 58.9692 81.596C58.5732 82.088 58.0632 82.472 57.4392 82.748C56.8152 83.012 56.1312 83.144 55.3872 83.144C54.3552 83.144 53.4792 82.91 52.7592 82.442C52.0512 81.974 51.5412 81.32 51.2292 80.48C50.9772 79.88 50.8512 79.094 50.8512 78.122C50.8512 77.462 50.9412 76.88 51.1212 76.376C51.3972 75.524 51.8772 74.846 52.5612 74.342C53.2572 73.838 54.0792 73.586 55.0272 73.586C56.2272 73.586 57.1872 73.934 57.9072 74.63C58.6392 75.326 59.0832 76.256 59.2392 77.42ZM55.0452 75.782C54.2892 75.782 53.7912 76.136 53.5512 76.844C53.5032 77 53.4612 77.192 53.4252 77.42C53.4252 77.48 53.4552 77.51 53.5152 77.51H56.6292C56.7012 77.51 56.7252 77.48 56.7012 77.42C56.6412 77.072 56.6112 76.904 56.6112 76.916C56.5032 76.556 56.3112 76.28 56.0352 76.088C55.7712 75.884 55.4412 75.782 55.0452 75.782ZM70.8654 73.604C71.8014 73.604 72.5334 73.886 73.0614 74.45C73.5894 75.014 73.8534 75.806 73.8534 76.826V82.784C73.8534 82.844 73.8294 82.898 73.7814 82.946C73.7454 82.982 73.6974 83 73.6374 83H71.5314C71.4714 83 71.4174 82.982 71.3694 82.946C71.3334 82.898 71.3154 82.844 71.3154 82.784V77.384C71.3154 76.892 71.1894 76.502 70.9374 76.214C70.6854 75.926 70.3494 75.782 69.9294 75.782C69.5094 75.782 69.1674 75.926 68.9034 76.214C68.6394 76.502 68.5074 76.886 68.5074 77.366V82.784C68.5074 82.844 68.4834 82.898 68.4354 82.946C68.3994 82.982 68.3514 83 68.2914 83H66.2034C66.1434 83 66.0894 82.982 66.0414 82.946C66.0054 82.898 65.9874 82.844 65.9874 82.784V77.384C65.9874 76.904 65.8554 76.52 65.5914 76.232C65.3274 75.932 64.9854 75.782 64.5654 75.782C64.1814 75.782 63.8574 75.896 63.5934 76.124C63.3414 76.352 63.1914 76.67 63.1434 77.078V82.784C63.1434 82.844 63.1194 82.898 63.0714 82.946C63.0354 82.982 62.9874 83 62.9274 83H60.8214C60.7614 83 60.7074 82.982 60.6594 82.946C60.6234 82.898 60.6054 82.844 60.6054 82.784V73.964C60.6054 73.904 60.6234 73.856 60.6594 73.82C60.7074 73.772 60.7614 73.748 60.8214 73.748H62.9274C62.9874 73.748 63.0354 73.772 63.0714 73.82C63.1194 73.856 63.1434 73.904 63.1434 73.964V74.666C63.1434 74.702 63.1554 74.726 63.1794 74.738C63.2034 74.75 63.2274 74.738 63.2514 74.702C63.7434 73.97 64.5054 73.604 65.5374 73.604C66.1374 73.604 66.6594 73.73 67.1034 73.982C67.5594 74.234 67.9074 74.594 68.1474 75.062C68.1834 75.134 68.2254 75.134 68.2734 75.062C68.5374 74.57 68.8914 74.204 69.3354 73.964C69.7914 73.724 70.3014 73.604 70.8654 73.604ZM83.502 77.42C83.574 77.876 83.598 78.386 83.574 78.95C83.562 79.094 83.484 79.166 83.34 79.166H77.778C77.706 79.166 77.682 79.196 77.706 79.256C77.742 79.496 77.808 79.736 77.904 79.976C78.216 80.648 78.852 80.984 79.812 80.984C80.58 80.972 81.186 80.66 81.63 80.048C81.678 79.976 81.732 79.94 81.792 79.94C81.828 79.94 81.87 79.964 81.918 80.012L83.214 81.29C83.274 81.35 83.304 81.404 83.304 81.452C83.304 81.476 83.28 81.524 83.232 81.596C82.836 82.088 82.326 82.472 81.702 82.748C81.078 83.012 80.394 83.144 79.65 83.144C78.618 83.144 77.742 82.91 77.022 82.442C76.314 81.974 75.804 81.32 75.492 80.48C75.24 79.88 75.114 79.094 75.114 78.122C75.114 77.462 75.204 76.88 75.384 76.376C75.66 75.524 76.14 74.846 76.824 74.342C77.52 73.838 78.342 73.586 79.29 73.586C80.49 73.586 81.45 73.934 82.17 74.63C82.902 75.326 83.346 76.256 83.502 77.42ZM79.308 75.782C78.552 75.782 78.054 76.136 77.814 76.844C77.766 77 77.724 77.192 77.688 77.42C77.688 77.48 77.718 77.51 77.778 77.51H80.892C80.964 77.51 80.988 77.48 80.964 77.42C80.904 77.072 80.874 76.904 80.874 76.916C80.766 76.556 80.574 76.28 80.298 76.088C80.034 75.884 79.704 75.782 79.308 75.782ZM89.6921 73.604C90.6521 73.604 91.4261 73.898 92.0141 74.486C92.6021 75.074 92.8961 75.872 92.8961 76.88V82.784C92.8961 82.844 92.8721 82.898 92.8241 82.946C92.7881 82.982 92.7401 83 92.6801 83H90.5741C90.5141 83 90.4601 82.982 90.4121 82.946C90.3761 82.898 90.3581 82.844 90.3581 82.784V77.402C90.3581 76.922 90.2201 76.532 89.9441 76.232C89.6801 75.932 89.3261 75.782 88.8821 75.782C88.4381 75.782 88.0781 75.932 87.8021 76.232C87.5381 76.532 87.4061 76.922 87.4061 77.402V82.784C87.4061 82.844 87.3821 82.898 87.3341 82.946C87.2981 82.982 87.2501 83 87.1901 83H85.0841C85.0241 83 84.9701 82.982 84.9221 82.946C84.8861 82.898 84.8681 82.844 84.8681 82.784V73.964C84.8681 73.904 84.8861 73.856 84.9221 73.82C84.9701 73.772 85.0241 73.748 85.0841 73.748H87.1901C87.2501 73.748 87.2981 73.772 87.3341 73.82C87.3821 73.856 87.4061 73.904 87.4061 73.964V74.594C87.4061 74.63 87.4181 74.654 87.4421 74.666C87.4661 74.678 87.4841 74.672 87.4961 74.648C87.9881 73.952 88.7201 73.604 89.6921 73.604ZM99.7519 75.566C99.7519 75.626 99.7279 75.68 99.6799 75.728C99.6439 75.764 99.5959 75.782 99.5359 75.782H97.8079C97.7479 75.782 97.7179 75.812 97.7179 75.872V79.688C97.7179 80.084 97.7959 80.378 97.9519 80.57C98.1199 80.762 98.3839 80.858 98.7439 80.858H99.3379C99.3979 80.858 99.4459 80.882 99.4819 80.93C99.5299 80.966 99.5539 81.014 99.5539 81.074V82.784C99.5539 82.916 99.4819 82.994 99.3379 83.018C98.8339 83.042 98.4739 83.054 98.2579 83.054C97.2619 83.054 96.5179 82.892 96.0259 82.568C95.5339 82.232 95.2819 81.608 95.2699 80.696V75.872C95.2699 75.812 95.2399 75.782 95.1799 75.782H94.1539C94.0939 75.782 94.0399 75.764 93.9919 75.728C93.9559 75.68 93.9379 75.626 93.9379 75.566V73.964C93.9379 73.904 93.9559 73.856 93.9919 73.82C94.0399 73.772 94.0939 73.748 94.1539 73.748H95.1799C95.2399 73.748 95.2699 73.718 95.2699 73.658V71.516C95.2699 71.456 95.2879 71.408 95.3239 71.372C95.3719 71.324 95.4259 71.3 95.4859 71.3H97.5019C97.5619 71.3 97.6099 71.324 97.6459 71.372C97.6939 71.408 97.7179 71.456 97.7179 71.516V73.658C97.7179 73.718 97.7479 73.748 97.8079 73.748H99.5359C99.5959 73.748 99.6439 73.772 99.6799 73.82C99.7279 73.856 99.7519 73.904 99.7519 73.964V75.566ZM104.7 73.604C105.48 73.604 106.176 73.742 106.788 74.018C107.4 74.282 107.874 74.648 108.21 75.116C108.558 75.584 108.732 76.106 108.732 76.682V82.784C108.732 82.844 108.708 82.898 108.66 82.946C108.624 82.982 108.576 83 108.516 83H106.41C106.35 83 106.296 82.982 106.248 82.946C106.212 82.898 106.194 82.844 106.194 82.784V82.19C106.194 82.154 106.182 82.13 106.158 82.118C106.134 82.106 106.11 82.118 106.086 82.154C105.582 82.814 104.772 83.144 103.656 83.144C102.72 83.144 101.964 82.916 101.388 82.46C100.812 82.004 100.524 81.332 100.524 80.444C100.524 79.52 100.848 78.806 101.496 78.302C102.144 77.786 103.068 77.528 104.268 77.528H106.104C106.164 77.528 106.194 77.498 106.194 77.438V77.042C106.194 76.646 106.074 76.34 105.834 76.124C105.594 75.896 105.234 75.782 104.754 75.782C104.382 75.782 104.07 75.848 103.818 75.98C103.578 76.112 103.422 76.298 103.35 76.538C103.314 76.67 103.236 76.73 103.116 76.718L100.938 76.43C100.794 76.406 100.728 76.352 100.74 76.268C100.788 75.764 100.986 75.308 101.334 74.9C101.694 74.492 102.162 74.174 102.738 73.946C103.326 73.718 103.98 73.604 104.7 73.604ZM104.34 81.254C104.856 81.254 105.294 81.116 105.654 80.84C106.014 80.564 106.194 80.21 106.194 79.778V79.13C106.194 79.07 106.164 79.04 106.104 79.04H104.808C104.268 79.04 103.842 79.142 103.53 79.346C103.23 79.55 103.08 79.838 103.08 80.21C103.08 80.534 103.194 80.792 103.422 80.984C103.65 81.164 103.956 81.254 104.34 81.254ZM118.44 76.106C118.668 76.73 118.782 77.474 118.782 78.338C118.782 79.166 118.68 79.892 118.476 80.516C118.2 81.332 117.756 81.974 117.144 82.442C116.544 82.91 115.83 83.144 115.002 83.144C114.126 83.144 113.436 82.814 112.932 82.154C112.908 82.13 112.884 82.124 112.86 82.136C112.836 82.136 112.824 82.154 112.824 82.19V82.784C112.824 82.844 112.8 82.898 112.752 82.946C112.716 82.982 112.668 83 112.608 83H110.502C110.442 83 110.388 82.982 110.34 82.946C110.304 82.898 110.286 82.844 110.286 82.784V70.616C110.286 70.556 110.304 70.508 110.34 70.472C110.388 70.424 110.442 70.4 110.502 70.4H112.608C112.668 70.4 112.716 70.424 112.752 70.472C112.8 70.508 112.824 70.556 112.824 70.616V74.468C112.824 74.504 112.836 74.528 112.86 74.54C112.884 74.552 112.908 74.54 112.932 74.504C113.4 73.904 114.066 73.604 114.93 73.604C115.806 73.604 116.538 73.832 117.126 74.288C117.726 74.732 118.164 75.338 118.44 76.106ZM115.776 80.192C116.028 79.736 116.154 79.136 116.154 78.392C116.154 77.564 116.01 76.928 115.722 76.484C115.434 76.016 115.008 75.782 114.444 75.782C113.916 75.782 113.514 76.016 113.238 76.484C112.974 76.94 112.842 77.57 112.842 78.374C112.842 79.178 112.962 79.784 113.202 80.192C113.49 80.708 113.91 80.966 114.462 80.966C115.05 80.966 115.488 80.708 115.776 80.192ZM120.391 83C120.331 83 120.277 82.982 120.229 82.946C120.193 82.898 120.175 82.844 120.175 82.784V70.616C120.175 70.556 120.193 70.508 120.229 70.472C120.277 70.424 120.331 70.4 120.391 70.4H122.497C122.557 70.4 122.605 70.424 122.641 70.472C122.689 70.508 122.713 70.556 122.713 70.616V82.784C122.713 82.844 122.689 82.898 122.641 82.946C122.605 82.982 122.557 83 122.497 83H120.391ZM132.489 77.42C132.561 77.876 132.585 78.386 132.561 78.95C132.549 79.094 132.471 79.166 132.327 79.166H126.765C126.693 79.166 126.669 79.196 126.693 79.256C126.729 79.496 126.795 79.736 126.891 79.976C127.203 80.648 127.839 80.984 128.799 80.984C129.567 80.972 130.173 80.66 130.617 80.048C130.665 79.976 130.719 79.94 130.779 79.94C130.815 79.94 130.857 79.964 130.905 80.012L132.201 81.29C132.261 81.35 132.291 81.404 132.291 81.452C132.291 81.476 132.267 81.524 132.219 81.596C131.823 82.088 131.313 82.472 130.689 82.748C130.065 83.012 129.381 83.144 128.637 83.144C127.605 83.144 126.729 82.91 126.009 82.442C125.301 81.974 124.791 81.32 124.479 80.48C124.227 79.88 124.101 79.094 124.101 78.122C124.101 77.462 124.191 76.88 124.371 76.376C124.647 75.524 125.127 74.846 125.811 74.342C126.507 73.838 127.329 73.586 128.277 73.586C129.477 73.586 130.437 73.934 131.157 74.63C131.889 75.326 132.333 76.256 132.489 77.42ZM128.295 75.782C127.539 75.782 127.041 76.136 126.801 76.844C126.753 77 126.711 77.192 126.675 77.42C126.675 77.48 126.705 77.51 126.765 77.51H129.879C129.951 77.51 129.975 77.48 129.951 77.42C129.891 77.072 129.861 76.904 129.861 76.916C129.753 76.556 129.561 76.28 129.285 76.088C129.021 75.884 128.691 75.782 128.295 75.782Z" fill="#252530"/>
<path d="M49.8098 107C49.6925 107 49.6178 106.947 49.5858 106.84L46.6738 96.008L46.6578 95.944C46.6578 95.848 46.7165 95.8 46.8338 95.8H48.4018C48.5191 95.8 48.5938 95.8533 48.6258 95.96L50.4498 103.256C50.4605 103.288 50.4765 103.304 50.4978 103.304C50.5191 103.304 50.5351 103.288 50.5458 103.256L52.2898 95.96C52.3218 95.8533 52.3911 95.8 52.4978 95.8H54.0338C54.1511 95.8 54.2258 95.8533 54.2578 95.96L56.1138 103.272C56.1245 103.304 56.1405 103.32 56.1618 103.32C56.1831 103.32 56.1991 103.304 56.2098 103.272L58.0018 95.96C58.0338 95.8533 58.1085 95.8 58.2258 95.8H59.7138C59.8631 95.8 59.9218 95.8693 59.8898 96.008L57.1218 106.84C57.0898 106.947 57.0151 107 56.8978 107H55.4098C55.2925 107 55.2178 106.947 55.1858 106.84L53.3138 99.208C53.3031 99.176 53.2871 99.16 53.2658 99.16C53.2445 99.1493 53.2285 99.1653 53.2178 99.208L51.4258 106.84C51.3938 106.947 51.3245 107 51.2178 107H49.8098ZM61.6647 107C61.6114 107 61.5634 106.984 61.5207 106.952C61.4887 106.909 61.4727 106.861 61.4727 106.808V95.992C61.4727 95.9387 61.4887 95.896 61.5207 95.864C61.5634 95.8213 61.6114 95.8 61.6647 95.8H63.1367C63.19 95.8 63.2327 95.8213 63.2647 95.864C63.3074 95.896 63.3287 95.9387 63.3287 95.992V106.808C63.3287 106.861 63.3074 106.909 63.2647 106.952C63.2327 106.984 63.19 107 63.1367 107H61.6647ZM72.1722 95.992C72.1722 95.9387 72.1882 95.896 72.2202 95.864C72.2629 95.8213 72.3109 95.8 72.3642 95.8H73.8362C73.8895 95.8 73.9322 95.8213 73.9642 95.864C74.0069 95.896 74.0282 95.9387 74.0282 95.992V106.808C74.0282 106.861 74.0069 106.909 73.9642 106.952C73.9322 106.984 73.8895 107 73.8362 107H72.4122C72.3055 107 72.2309 106.957 72.1882 106.872L67.5802 99.32C67.5589 99.288 67.5375 99.2773 67.5162 99.288C67.4949 99.288 67.4842 99.3093 67.4842 99.352L67.5162 106.808C67.5162 106.861 67.4949 106.909 67.4522 106.952C67.4202 106.984 67.3775 107 67.3242 107H65.8522C65.7989 107 65.7509 106.984 65.7082 106.952C65.6762 106.909 65.6602 106.861 65.6602 106.808V95.992C65.6602 95.9387 65.6762 95.896 65.7082 95.864C65.7509 95.8213 65.7989 95.8 65.8522 95.8H67.2762C67.3829 95.8 67.4575 95.8427 67.5002 95.928L72.0922 103.48C72.1135 103.512 72.1349 103.528 72.1562 103.528C72.1775 103.517 72.1882 103.491 72.1882 103.448L72.1722 95.992ZM83.7233 95.8C83.7766 95.8 83.8193 95.8213 83.8513 95.864C83.894 95.896 83.9153 95.9387 83.9153 95.992V97.224C83.9153 97.2773 83.894 97.3253 83.8513 97.368C83.8193 97.4 83.7766 97.416 83.7233 97.416H80.7793C80.726 97.416 80.6993 97.4427 80.6993 97.496V106.808C80.6993 106.861 80.678 106.909 80.6353 106.952C80.6033 106.984 80.5606 107 80.5073 107H79.0353C78.982 107 78.934 106.984 78.8913 106.952C78.8593 106.909 78.8433 106.861 78.8433 106.808V97.496C78.8433 97.4427 78.8166 97.416 78.7633 97.416H75.9313C75.878 97.416 75.83 97.4 75.7873 97.368C75.7553 97.3253 75.7393 97.2773 75.7393 97.224V95.992C75.7393 95.9387 75.7553 95.896 75.7873 95.864C75.83 95.8213 75.878 95.8 75.9313 95.8H83.7233ZM93.2129 97.208C93.2129 97.2613 93.1916 97.3093 93.1489 97.352C93.1169 97.384 93.0743 97.4 93.0209 97.4H87.5649C87.5116 97.4 87.4849 97.4267 87.4849 97.48V100.472C87.4849 100.525 87.5116 100.552 87.5649 100.552H91.2289C91.2823 100.552 91.3249 100.573 91.3569 100.616C91.3996 100.648 91.4209 100.691 91.4209 100.744V101.96C91.4209 102.013 91.3996 102.061 91.3569 102.104C91.3249 102.136 91.2823 102.152 91.2289 102.152H87.5649C87.5116 102.152 87.4849 102.179 87.4849 102.232V105.32C87.4849 105.373 87.5116 105.4 87.5649 105.4H93.0209C93.0743 105.4 93.1169 105.421 93.1489 105.464C93.1916 105.496 93.2129 105.539 93.2129 105.592V106.808C93.2129 106.861 93.1916 106.909 93.1489 106.952C93.1169 106.984 93.0743 107 93.0209 107H85.8209C85.7676 107 85.7196 106.984 85.6769 106.952C85.6449 106.909 85.6289 106.861 85.6289 106.808V95.992C85.6289 95.9387 85.6449 95.896 85.6769 95.864C85.7196 95.8213 85.7676 95.8 85.8209 95.8H93.0209C93.0743 95.8 93.1169 95.8213 93.1489 95.864C93.1916 95.896 93.2129 95.9387 93.2129 95.992V97.208ZM101.386 107C101.279 107 101.204 106.952 101.162 106.856L99.0497 102.248C99.0284 102.205 98.9964 102.184 98.9537 102.184H97.0337C96.9804 102.184 96.9537 102.211 96.9537 102.264V106.808C96.9537 106.861 96.9324 106.909 96.8897 106.952C96.8577 106.984 96.815 107 96.7617 107H95.2897C95.2364 107 95.1884 106.984 95.1457 106.952C95.1137 106.909 95.0977 106.861 95.0977 106.808V95.992C95.0977 95.9387 95.1137 95.896 95.1457 95.864C95.1884 95.8213 95.2364 95.8 95.2897 95.8H99.6897C100.34 95.8 100.916 95.9387 101.418 96.216C101.919 96.4827 102.308 96.8667 102.586 97.368C102.863 97.8587 103.002 98.424 103.002 99.064C103.002 99.8 102.81 100.429 102.426 100.952C102.052 101.464 101.53 101.821 100.858 102.024C100.836 102.024 100.82 102.035 100.81 102.056C100.799 102.077 100.799 102.099 100.81 102.12L103.066 106.776C103.087 106.819 103.098 106.851 103.098 106.872C103.098 106.957 103.039 107 102.922 107H101.386ZM97.0337 97.4C96.9804 97.4 96.9537 97.4267 96.9537 97.48V100.664C96.9537 100.717 96.9804 100.744 97.0337 100.744H99.4337C99.9457 100.744 100.356 100.595 100.666 100.296C100.986 99.9867 101.146 99.5813 101.146 99.08C101.146 98.5787 100.986 98.1733 100.666 97.864C100.356 97.5547 99.9457 97.4 99.4337 97.4H97.0337Z" fill="white"/>
<path d="M54.8771 134.079C54.8464 134.11 54.8387 134.14 54.8541 134.171C54.8694 134.202 54.9001 134.217 54.9461 134.217H61.1791C61.2557 134.217 61.3171 134.248 61.3631 134.309C61.4244 134.355 61.4551 134.416 61.4551 134.493V136.724C61.4551 136.801 61.4244 136.87 61.3631 136.931C61.3171 136.977 61.2557 137 61.1791 137H50.8291C50.7524 137 50.6834 136.977 50.6221 136.931C50.5761 136.87 50.5531 136.801 50.5531 136.724V134.608C50.5531 134.47 50.5991 134.355 50.6911 134.263C51.4424 133.527 52.2091 132.73 52.9911 131.871C53.7731 130.997 54.2637 130.453 54.4631 130.238C54.8924 129.732 55.3294 129.249 55.7741 128.789C57.1694 127.24 57.8671 126.09 57.8671 125.339C57.8671 124.802 57.6754 124.365 57.2921 124.028C56.9087 123.675 56.4104 123.499 55.7971 123.499C55.1837 123.499 54.6854 123.675 54.3021 124.028C53.9187 124.365 53.7271 124.818 53.7271 125.385V125.96C53.7271 126.037 53.6964 126.106 53.6351 126.167C53.5891 126.213 53.5277 126.236 53.4511 126.236H50.7371C50.6604 126.236 50.5914 126.213 50.5301 126.167C50.4841 126.106 50.4611 126.037 50.4611 125.96V124.879C50.5071 124.051 50.7677 123.323 51.2431 122.694C51.7184 122.05 52.3471 121.559 53.1291 121.222C53.9264 120.885 54.8157 120.716 55.7971 120.716C56.8857 120.716 57.8287 120.923 58.6261 121.337C59.4387 121.736 60.0597 122.28 60.4891 122.97C60.9337 123.66 61.1561 124.427 61.1561 125.27C61.1561 125.914 60.9951 126.573 60.6731 127.248C60.3511 127.923 59.8681 128.651 59.2241 129.433C58.7487 130.031 58.2351 130.621 57.6831 131.204C57.1311 131.787 56.3107 132.63 55.2221 133.734L54.8771 134.079ZM68.9202 137.253C67.2335 137.253 65.8995 136.785 64.9182 135.85C63.9369 134.899 63.4462 133.611 63.4462 131.986V125.914C63.4462 124.319 63.9369 123.054 64.9182 122.119C65.8995 121.184 67.2335 120.716 68.9202 120.716C70.6069 120.716 71.9409 121.184 72.9222 122.119C73.9189 123.054 74.4172 124.319 74.4172 125.914V131.986C74.4172 133.611 73.9189 134.899 72.9222 135.85C71.9409 136.785 70.6069 137.253 68.9202 137.253ZM68.9202 134.47C69.6102 134.47 70.1545 134.263 70.5532 133.849C70.9672 133.42 71.1742 132.852 71.1742 132.147V125.822C71.1742 125.117 70.9672 124.557 70.5532 124.143C70.1545 123.714 69.6102 123.499 68.9202 123.499C68.2455 123.499 67.7012 123.714 67.2872 124.143C66.8885 124.557 66.6892 125.117 66.6892 125.822V132.147C66.6892 132.852 66.8885 133.42 67.2872 133.849C67.7012 134.263 68.2455 134.47 68.9202 134.47ZM80.8644 134.079C80.8337 134.11 80.826 134.14 80.8414 134.171C80.8567 134.202 80.8874 134.217 80.9334 134.217H87.1664C87.243 134.217 87.3044 134.248 87.3504 134.309C87.4117 134.355 87.4424 134.416 87.4424 134.493V136.724C87.4424 136.801 87.4117 136.87 87.3504 136.931C87.3044 136.977 87.243 137 87.1664 137H76.8164C76.7397 137 76.6707 136.977 76.6094 136.931C76.5634 136.87 76.5404 136.801 76.5404 136.724V134.608C76.5404 134.47 76.5864 134.355 76.6784 134.263C77.4297 133.527 78.1964 132.73 78.9784 131.871C79.7604 130.997 80.251 130.453 80.4504 130.238C80.8797 129.732 81.3167 129.249 81.7614 128.789C83.1567 127.24 83.8544 126.09 83.8544 125.339C83.8544 124.802 83.6627 124.365 83.2794 124.028C82.896 123.675 82.3977 123.499 81.7844 123.499C81.171 123.499 80.6727 123.675 80.2894 124.028C79.906 124.365 79.7144 124.818 79.7144 125.385V125.96C79.7144 126.037 79.6837 126.106 79.6224 126.167C79.5764 126.213 79.515 126.236 79.4384 126.236H76.7244C76.6477 126.236 76.5787 126.213 76.5174 126.167C76.4714 126.106 76.4484 126.037 76.4484 125.96V124.879C76.4944 124.051 76.755 123.323 77.2304 122.694C77.7057 122.05 78.3344 121.559 79.1164 121.222C79.9137 120.885 80.803 120.716 81.7844 120.716C82.873 120.716 83.816 120.923 84.6134 121.337C85.426 121.736 86.047 122.28 86.4764 122.97C86.921 123.66 87.1434 124.427 87.1434 125.27C87.1434 125.914 86.9824 126.573 86.6604 127.248C86.3384 127.923 85.8554 128.651 85.2114 129.433C84.736 130.031 84.2224 130.621 83.6704 131.204C83.1184 131.787 82.298 132.63 81.2094 133.734L80.8644 134.079ZM99.032 129.318C99.3387 130.023 99.492 130.836 99.492 131.756C99.492 132.584 99.354 133.351 99.078 134.056C98.71 135.037 98.089 135.804 97.215 136.356C96.3564 136.908 95.3367 137.184 94.156 137.184C92.9907 137.184 91.9634 136.893 91.074 136.31C90.2 135.727 89.5714 134.938 89.188 133.941C88.9734 133.343 88.8507 132.699 88.82 132.009C88.82 131.825 88.912 131.733 89.096 131.733H91.81C91.994 131.733 92.086 131.825 92.086 132.009C92.1474 132.515 92.2317 132.891 92.339 133.136C92.477 133.535 92.6994 133.849 93.006 134.079C93.328 134.294 93.7037 134.401 94.133 134.401C94.9917 134.401 95.582 134.025 95.904 133.274C96.1187 132.814 96.226 132.277 96.226 131.664C96.226 130.943 96.111 130.353 95.881 129.893C95.5284 129.172 94.938 128.812 94.11 128.812C93.9414 128.812 93.765 128.866 93.581 128.973C93.397 129.065 93.1747 129.203 92.914 129.387C92.8527 129.433 92.7914 129.456 92.73 129.456C92.638 129.456 92.569 129.41 92.523 129.318L91.166 127.409C91.1354 127.363 91.12 127.309 91.12 127.248C91.12 127.156 91.1507 127.079 91.212 127.018L94.869 123.821C94.8997 123.79 94.9074 123.76 94.892 123.729C94.892 123.698 94.869 123.683 94.823 123.683H89.418C89.3414 123.683 89.2724 123.66 89.211 123.614C89.165 123.553 89.142 123.484 89.142 123.407V121.176C89.142 121.099 89.165 121.038 89.211 120.992C89.2724 120.931 89.3414 120.9 89.418 120.9H99.009C99.0857 120.9 99.147 120.931 99.193 120.992C99.2544 121.038 99.285 121.099 99.285 121.176V123.706C99.285 123.829 99.2314 123.944 99.124 124.051L96.111 126.811C96.0804 126.842 96.065 126.872 96.065 126.903C96.0804 126.934 96.1187 126.949 96.18 126.949C97.514 127.21 98.4647 127.999 99.032 129.318Z" fill="#252530"/>
</g>
<defs>
<clipPath id="clip0_15_599">
<rect width="150" height="168" fill="white"/>
</clipPath>
</defs>
</svg>
