<svg width="150" height="168" viewBox="0 0 150 168" fill="none" xmlns="http://www.w3.org/2000/svg">
<g clip-path="url(#clip0_13_333)">
<path d="M10 132.9V2H139V132.9L74.45 165.76L10 132.9Z" fill="white"/>
<path d="M137 4V131.67L74.45 163.51L12 131.67V4H137ZM141 0H8V134.12L74.45 168L141 134.12V0Z" fill="#DCDEDC"/>
<path d="M12.22 131.78L74.43 163.5L137 131.7V4.67999L12.22 131.78Z" fill="#F2F3F2"/>
<path d="M144.98 90H5.16966L0 101L5.16966 112H144.99L150 101L144.98 90Z" fill="#23CCA2"/>
<path d="M75.0778 6.12022C75.7101 6.12022 76.3327 6.12022 76.965 6.27565L75.0778 9.87978C72.2471 9.72435 69.7374 11.9199 69.5817 14.7468C69.4261 17.5738 71.6245 20.0801 74.4553 20.2356H75.0875C76.3424 20.2356 77.5973 19.7693 78.5409 18.9824L80.5837 22.4311C79.0175 23.5288 77.1303 24.1603 75.0875 24.1603C70.0584 24.3157 65.8171 20.5562 65.6615 15.5337C65.5058 10.5112 69.2704 6.27565 74.2996 6.12022H75.0875H75.0778ZM81.5175 13.8045L83.8716 17.7292L81.5175 21.4985L79.3191 17.7292H74.7665L77.1206 13.8045H81.5175ZM77.7432 12.3959C77.7432 11.7644 77.8988 11.1427 78.2101 10.6667C78.5214 10.1906 79.1537 9.72435 79.6206 9.41348L79.9319 9.25805C80.5642 8.94718 80.7198 8.79174 80.7198 8.47116C80.7198 8.15058 80.2529 7.83971 79.9319 7.83971C79.2996 7.83971 78.8327 8.15058 78.5214 8.78203L77.7335 7.99514C77.8891 7.68427 78.2004 7.36369 78.5214 7.05282C78.9883 6.74196 79.465 6.74196 79.9319 6.74196C80.3988 6.74196 81.0311 6.89739 81.3424 7.20826C81.6537 7.51913 81.9747 7.99514 81.9747 8.46145C81.9747 9.24833 81.5078 9.87007 80.5642 10.1906L80.0973 10.5015C79.6303 10.8124 79.3093 10.9678 79.1537 11.4438H81.9844V12.5416L77.7432 12.3862V12.3959ZM75.0778 32L90 23.5288V0H60V23.3734L75.0778 32Z" fill="#FF492C"/>
<path d="M49.8098 107C49.6925 107 49.6178 106.947 49.5858 106.84L46.6738 96.008L46.6578 95.944C46.6578 95.848 46.7165 95.8 46.8338 95.8H48.4018C48.5191 95.8 48.5938 95.8533 48.6258 95.96L50.4498 103.256C50.4605 103.288 50.4765 103.304 50.4978 103.304C50.5191 103.304 50.5351 103.288 50.5458 103.256L52.2898 95.96C52.3218 95.8533 52.3911 95.8 52.4978 95.8H54.0338C54.1511 95.8 54.2258 95.8533 54.2578 95.96L56.1138 103.272C56.1245 103.304 56.1405 103.32 56.1618 103.32C56.1831 103.32 56.1991 103.304 56.2098 103.272L58.0018 95.96C58.0338 95.8533 58.1085 95.8 58.2258 95.8H59.7138C59.8631 95.8 59.9218 95.8693 59.8898 96.008L57.1218 106.84C57.0898 106.947 57.0151 107 56.8978 107H55.4098C55.2925 107 55.2178 106.947 55.1858 106.84L53.3138 99.208C53.3031 99.176 53.2871 99.16 53.2658 99.16C53.2445 99.1493 53.2285 99.1653 53.2178 99.208L51.4258 106.84C51.3938 106.947 51.3245 107 51.2178 107H49.8098ZM61.6647 107C61.6114 107 61.5634 106.984 61.5207 106.952C61.4887 106.909 61.4727 106.861 61.4727 106.808V95.992C61.4727 95.9387 61.4887 95.896 61.5207 95.864C61.5634 95.8213 61.6114 95.8 61.6647 95.8H63.1367C63.19 95.8 63.2327 95.8213 63.2647 95.864C63.3074 95.896 63.3287 95.9387 63.3287 95.992V106.808C63.3287 106.861 63.3074 106.909 63.2647 106.952C63.2327 106.984 63.19 107 63.1367 107H61.6647ZM72.1722 95.992C72.1722 95.9387 72.1882 95.896 72.2202 95.864C72.2629 95.8213 72.3109 95.8 72.3642 95.8H73.8362C73.8895 95.8 73.9322 95.8213 73.9642 95.864C74.0069 95.896 74.0282 95.9387 74.0282 95.992V106.808C74.0282 106.861 74.0069 106.909 73.9642 106.952C73.9322 106.984 73.8895 107 73.8362 107H72.4122C72.3055 107 72.2309 106.957 72.1882 106.872L67.5802 99.32C67.5589 99.288 67.5375 99.2773 67.5162 99.288C67.4949 99.288 67.4842 99.3093 67.4842 99.352L67.5162 106.808C67.5162 106.861 67.4949 106.909 67.4522 106.952C67.4202 106.984 67.3775 107 67.3242 107H65.8522C65.7989 107 65.7509 106.984 65.7082 106.952C65.6762 106.909 65.6602 106.861 65.6602 106.808V95.992C65.6602 95.9387 65.6762 95.896 65.7082 95.864C65.7509 95.8213 65.7989 95.8 65.8522 95.8H67.2762C67.3829 95.8 67.4575 95.8427 67.5002 95.928L72.0922 103.48C72.1135 103.512 72.1349 103.528 72.1562 103.528C72.1775 103.517 72.1882 103.491 72.1882 103.448L72.1722 95.992ZM83.7233 95.8C83.7766 95.8 83.8193 95.8213 83.8513 95.864C83.894 95.896 83.9153 95.9387 83.9153 95.992V97.224C83.9153 97.2773 83.894 97.3253 83.8513 97.368C83.8193 97.4 83.7766 97.416 83.7233 97.416H80.7793C80.726 97.416 80.6993 97.4427 80.6993 97.496V106.808C80.6993 106.861 80.678 106.909 80.6353 106.952C80.6033 106.984 80.5606 107 80.5073 107H79.0353C78.982 107 78.934 106.984 78.8913 106.952C78.8593 106.909 78.8433 106.861 78.8433 106.808V97.496C78.8433 97.4427 78.8166 97.416 78.7633 97.416H75.9313C75.878 97.416 75.83 97.4 75.7873 97.368C75.7553 97.3253 75.7393 97.2773 75.7393 97.224V95.992C75.7393 95.9387 75.7553 95.896 75.7873 95.864C75.83 95.8213 75.878 95.8 75.9313 95.8H83.7233ZM93.2129 97.208C93.2129 97.2613 93.1916 97.3093 93.1489 97.352C93.1169 97.384 93.0743 97.4 93.0209 97.4H87.5649C87.5116 97.4 87.4849 97.4267 87.4849 97.48V100.472C87.4849 100.525 87.5116 100.552 87.5649 100.552H91.2289C91.2823 100.552 91.3249 100.573 91.3569 100.616C91.3996 100.648 91.4209 100.691 91.4209 100.744V101.96C91.4209 102.013 91.3996 102.061 91.3569 102.104C91.3249 102.136 91.2823 102.152 91.2289 102.152H87.5649C87.5116 102.152 87.4849 102.179 87.4849 102.232V105.32C87.4849 105.373 87.5116 105.4 87.5649 105.4H93.0209C93.0743 105.4 93.1169 105.421 93.1489 105.464C93.1916 105.496 93.2129 105.539 93.2129 105.592V106.808C93.2129 106.861 93.1916 106.909 93.1489 106.952C93.1169 106.984 93.0743 107 93.0209 107H85.8209C85.7676 107 85.7196 106.984 85.6769 106.952C85.6449 106.909 85.6289 106.861 85.6289 106.808V95.992C85.6289 95.9387 85.6449 95.896 85.6769 95.864C85.7196 95.8213 85.7676 95.8 85.8209 95.8H93.0209C93.0743 95.8 93.1169 95.8213 93.1489 95.864C93.1916 95.896 93.2129 95.9387 93.2129 95.992V97.208ZM101.386 107C101.279 107 101.204 106.952 101.162 106.856L99.0497 102.248C99.0284 102.205 98.9964 102.184 98.9537 102.184H97.0337C96.9804 102.184 96.9537 102.211 96.9537 102.264V106.808C96.9537 106.861 96.9324 106.909 96.8897 106.952C96.8577 106.984 96.815 107 96.7617 107H95.2897C95.2364 107 95.1884 106.984 95.1457 106.952C95.1137 106.909 95.0977 106.861 95.0977 106.808V95.992C95.0977 95.9387 95.1137 95.896 95.1457 95.864C95.1884 95.8213 95.2364 95.8 95.2897 95.8H99.6897C100.34 95.8 100.916 95.9387 101.418 96.216C101.919 96.4827 102.308 96.8667 102.586 97.368C102.863 97.8587 103.002 98.424 103.002 99.064C103.002 99.8 102.81 100.429 102.426 100.952C102.052 101.464 101.53 101.821 100.858 102.024C100.836 102.024 100.82 102.035 100.81 102.056C100.799 102.077 100.799 102.099 100.81 102.12L103.066 106.776C103.087 106.819 103.098 106.851 103.098 106.872C103.098 106.957 103.039 107 102.922 107H101.386ZM97.0337 97.4C96.9804 97.4 96.9537 97.4267 96.9537 97.48V100.664C96.9537 100.717 96.9804 100.744 97.0337 100.744H99.4337C99.9457 100.744 100.356 100.595 100.666 100.296C100.986 99.9867 101.146 99.5813 101.146 99.08C101.146 98.5787 100.986 98.1733 100.666 97.864C100.356 97.5547 99.9457 97.4 99.4337 97.4H97.0337Z" fill="#252530"/>
<path d="M64.7491 57.065C64.6731 57.103 64.6731 57.141 64.7491 57.179C65.9525 57.7997 66.5541 58.832 66.5541 60.276C66.5541 61.5047 66.1361 62.4357 65.3001 63.069C64.4641 63.6897 63.3685 64 62.0131 64H57.0921C57.0288 64 56.9718 63.981 56.9211 63.943C56.8831 63.8923 56.8641 63.8353 56.8641 63.772V50.928C56.8641 50.8647 56.8831 50.814 56.9211 50.776C56.9718 50.7253 57.0288 50.7 57.0921 50.7H61.8611C64.8631 50.7 66.3641 51.916 66.3641 54.348C66.3641 55.6147 65.8258 56.5203 64.7491 57.065ZM59.6381 52.999C59.5748 52.999 59.5431 53.0307 59.5431 53.094V56.058C59.5431 56.1213 59.5748 56.153 59.6381 56.153H61.8611C62.4565 56.153 62.9188 56.0137 63.2481 55.735C63.5775 55.4563 63.7421 55.0763 63.7421 54.595C63.7421 54.101 63.5775 53.7147 63.2481 53.436C62.9188 53.1447 62.4565 52.999 61.8611 52.999H59.6381ZM62.0131 61.682C62.5958 61.682 63.0518 61.5363 63.3811 61.245C63.7105 60.941 63.8751 60.5293 63.8751 60.01C63.8751 59.4907 63.7105 59.0853 63.3811 58.794C63.0518 58.49 62.5895 58.338 61.9941 58.338H59.6381C59.5748 58.338 59.5431 58.3697 59.5431 58.433V61.587C59.5431 61.6503 59.5748 61.682 59.6381 61.682H62.0131ZM77.0634 58.11C77.1394 58.5913 77.1647 59.1297 77.1394 59.725C77.1267 59.877 77.0444 59.953 76.8924 59.953H71.0214C70.9454 59.953 70.92 59.9847 70.9454 60.048C70.9834 60.3013 71.053 60.5547 71.1544 60.808C71.4837 61.5173 72.155 61.872 73.1684 61.872C73.979 61.8593 74.6187 61.53 75.0874 60.884C75.138 60.808 75.195 60.77 75.2584 60.77C75.2964 60.77 75.3407 60.7953 75.3914 60.846L76.7594 62.195C76.8227 62.2583 76.8544 62.3153 76.8544 62.366C76.8544 62.3913 76.829 62.442 76.7784 62.518C76.3604 63.0373 75.822 63.4427 75.1634 63.734C74.5047 64.0127 73.7827 64.152 72.9974 64.152C71.908 64.152 70.9834 63.905 70.2234 63.411C69.476 62.917 68.9377 62.2267 68.6084 61.34C68.3424 60.7067 68.2094 59.877 68.2094 58.851C68.2094 58.1543 68.3044 57.54 68.4944 57.008C68.7857 56.1087 69.2924 55.393 70.0144 54.861C70.749 54.329 71.6167 54.063 72.6174 54.063C73.884 54.063 74.8974 54.4303 75.6574 55.165C76.43 55.8997 76.8987 56.8813 77.0634 58.11ZM72.6364 56.381C71.8384 56.381 71.3127 56.7547 71.0594 57.502C71.0087 57.6667 70.9644 57.8693 70.9264 58.11C70.9264 58.1733 70.958 58.205 71.0214 58.205H74.3084C74.3844 58.205 74.4097 58.1733 74.3844 58.11C74.321 57.7427 74.2894 57.5653 74.2894 57.578C74.1754 57.198 73.9727 56.9067 73.6814 56.704C73.4027 56.4887 73.0544 56.381 72.6364 56.381ZM82.4985 64.133C81.6499 64.133 80.9089 64.0127 80.2755 63.772C79.6422 63.5313 79.1482 63.1957 78.7935 62.765C78.4515 62.3343 78.2805 61.8467 78.2805 61.302V61.112C78.2805 61.0487 78.2995 60.998 78.3375 60.96C78.3882 60.9093 78.4452 60.884 78.5085 60.884H80.6175C80.6809 60.884 80.7315 60.9093 80.7695 60.96C80.8202 60.998 80.8455 61.0487 80.8455 61.112V61.131C80.8455 61.4097 80.9975 61.6503 81.3015 61.853C81.6182 62.043 82.0109 62.138 82.4795 62.138C82.9102 62.138 83.2585 62.0557 83.5245 61.891C83.7905 61.7137 83.9235 61.4983 83.9235 61.245C83.9235 61.017 83.8095 60.846 83.5815 60.732C83.3535 60.618 82.9799 60.4977 82.4605 60.371C81.8652 60.219 81.3965 60.0733 81.0545 59.934C80.2439 59.6553 79.5979 59.3133 79.1165 58.908C78.6352 58.5027 78.3945 57.92 78.3945 57.16C78.3945 56.2227 78.7555 55.4817 79.4775 54.937C80.2122 54.3797 81.1812 54.101 82.3845 54.101C83.1952 54.101 83.9045 54.234 84.5125 54.5C85.1205 54.7533 85.5892 55.1143 85.9185 55.583C86.2605 56.0517 86.4315 56.5837 86.4315 57.179C86.4315 57.2423 86.4062 57.2993 86.3555 57.35C86.3175 57.388 86.2669 57.407 86.2035 57.407H84.1705C84.1072 57.407 84.0502 57.388 83.9995 57.35C83.9615 57.2993 83.9425 57.2423 83.9425 57.179C83.9425 56.9003 83.7969 56.666 83.5055 56.476C83.2269 56.286 82.8532 56.191 82.3845 56.191C81.9665 56.191 81.6245 56.267 81.3585 56.419C81.0925 56.571 80.9595 56.78 80.9595 57.046C80.9595 57.2993 81.0862 57.4893 81.3395 57.616C81.6055 57.7427 82.0425 57.8757 82.6505 58.015C82.7899 58.053 82.9482 58.0973 83.1255 58.148C83.3029 58.186 83.4929 58.2367 83.6955 58.3C84.5949 58.566 85.3042 58.908 85.8235 59.326C86.3429 59.744 86.6025 60.352 86.6025 61.15C86.6025 62.0873 86.2289 62.822 85.4815 63.354C84.7469 63.8733 83.7525 64.133 82.4985 64.133ZM93.6701 56.153C93.6701 56.2163 93.6448 56.2733 93.5941 56.324C93.5561 56.362 93.5054 56.381 93.4421 56.381H91.6181C91.5548 56.381 91.5231 56.4127 91.5231 56.476V60.504C91.5231 60.922 91.6054 61.2323 91.7701 61.435C91.9474 61.6377 92.2261 61.739 92.6061 61.739H93.2331C93.2964 61.739 93.3471 61.7643 93.3851 61.815C93.4358 61.853 93.4611 61.9037 93.4611 61.967V63.772C93.4611 63.9113 93.3851 63.9937 93.2331 64.019C92.7011 64.0443 92.3211 64.057 92.0931 64.057C91.0418 64.057 90.2564 63.886 89.7371 63.544C89.2178 63.1893 88.9518 62.5307 88.9391 61.568V56.476C88.9391 56.4127 88.9074 56.381 88.8441 56.381H87.7611C87.6978 56.381 87.6408 56.362 87.5901 56.324C87.5521 56.2733 87.5331 56.2163 87.5331 56.153V54.462C87.5331 54.3987 87.5521 54.348 87.5901 54.31C87.6408 54.2593 87.6978 54.234 87.7611 54.234H88.8441C88.9074 54.234 88.9391 54.2023 88.9391 54.139V51.878C88.9391 51.8147 88.9581 51.764 88.9961 51.726C89.0468 51.6753 89.1038 51.65 89.1671 51.65H91.2951C91.3584 51.65 91.4091 51.6753 91.4471 51.726C91.4978 51.764 91.5231 51.8147 91.5231 51.878V54.139C91.5231 54.2023 91.5548 54.234 91.6181 54.234H93.4421C93.5054 54.234 93.5561 54.2593 93.5941 54.31C93.6448 54.348 93.6701 54.3987 93.6701 54.462V56.153ZM30.9638 83C30.8371 83 30.7485 82.943 30.6978 82.829L28.3228 77.566C28.2975 77.5153 28.2595 77.49 28.2088 77.49H26.4418C26.3785 77.49 26.3468 77.5217 26.3468 77.585V82.772C26.3468 82.8353 26.3215 82.8923 26.2708 82.943C26.2328 82.981 26.1821 83 26.1188 83H23.8958C23.8325 83 23.7755 82.981 23.7248 82.943C23.6868 82.8923 23.6678 82.8353 23.6678 82.772V69.928C23.6678 69.8647 23.6868 69.814 23.7248 69.776C23.7755 69.7253 23.8325 69.7 23.8958 69.7H29.3298C30.1405 69.7 30.8498 69.8647 31.4578 70.194C32.0785 70.5233 32.5535 70.992 32.8828 71.6C33.2248 72.208 33.3958 72.911 33.3958 73.709C33.3958 74.5703 33.1805 75.3113 32.7498 75.932C32.3191 76.54 31.7175 76.9707 30.9448 77.224C30.8815 77.2493 30.8625 77.2937 30.8878 77.357L33.4718 82.734C33.4971 82.7847 33.5098 82.8227 33.5098 82.848C33.5098 82.9493 33.4401 83 33.3008 83H30.9638ZM26.4418 71.999C26.3785 71.999 26.3468 72.0307 26.3468 72.094V75.343C26.3468 75.4063 26.3785 75.438 26.4418 75.438H28.9308C29.4628 75.438 29.8935 75.2797 30.2228 74.963C30.5648 74.6463 30.7358 74.2347 30.7358 73.728C30.7358 73.2213 30.5648 72.8097 30.2228 72.493C29.8935 72.1637 29.4628 71.999 28.9308 71.999H26.4418ZM43.6828 77.11C43.7588 77.5913 43.7841 78.1297 43.7588 78.725C43.7461 78.877 43.6638 78.953 43.5118 78.953H37.6408C37.5648 78.953 37.5395 78.9847 37.5648 79.048C37.6028 79.3013 37.6725 79.5547 37.7738 79.808C38.1031 80.5173 38.7745 80.872 39.7878 80.872C40.5985 80.8593 41.2381 80.53 41.7068 79.884C41.7575 79.808 41.8145 79.77 41.8778 79.77C41.9158 79.77 41.9601 79.7953 42.0108 79.846L43.3788 81.195C43.4421 81.2583 43.4738 81.3153 43.4738 81.366C43.4738 81.3913 43.4485 81.442 43.3978 81.518C42.9798 82.0373 42.4415 82.4427 41.7828 82.734C41.1241 83.0127 40.4021 83.152 39.6168 83.152C38.5275 83.152 37.6028 82.905 36.8428 82.411C36.0955 81.917 35.5571 81.2267 35.2278 80.34C34.9618 79.7067 34.8288 78.877 34.8288 77.851C34.8288 77.1543 34.9238 76.54 35.1138 76.008C35.4051 75.1087 35.9118 74.393 36.6338 73.861C37.3685 73.329 38.2361 73.063 39.2368 73.063C40.5035 73.063 41.5168 73.4303 42.2768 74.165C43.0495 74.8997 43.5181 75.8813 43.6828 77.11ZM39.2558 75.381C38.4578 75.381 37.9321 75.7547 37.6788 76.502C37.6281 76.6667 37.5838 76.8693 37.5458 77.11C37.5458 77.1733 37.5775 77.205 37.6408 77.205H40.9278C41.0038 77.205 41.0291 77.1733 41.0038 77.11C40.9405 76.7427 40.9088 76.5653 40.9088 76.578C40.7948 76.198 40.5921 75.9067 40.3008 75.704C40.0221 75.4887 39.6738 75.381 39.2558 75.381ZM45.6379 83C45.5745 83 45.5175 82.981 45.4669 82.943C45.4289 82.8923 45.4099 82.8353 45.4099 82.772V69.928C45.4099 69.8647 45.4289 69.814 45.4669 69.776C45.5175 69.7253 45.5745 69.7 45.6379 69.7H47.8609C47.9242 69.7 47.9749 69.7253 48.0129 69.776C48.0635 69.814 48.0889 69.8647 48.0889 69.928V82.772C48.0889 82.8353 48.0635 82.8923 48.0129 82.943C47.9749 82.981 47.9242 83 47.8609 83H45.6379ZM53.9435 73.082C54.7669 73.082 55.5015 73.2277 56.1475 73.519C56.7935 73.7977 57.2939 74.184 57.6485 74.678C58.0159 75.172 58.1995 75.723 58.1995 76.331V82.772C58.1995 82.8353 58.1742 82.8923 58.1235 82.943C58.0855 82.981 58.0349 83 57.9715 83H55.7485C55.6852 83 55.6282 82.981 55.5775 82.943C55.5395 82.8923 55.5205 82.8353 55.5205 82.772V82.145C55.5205 82.107 55.5079 82.0817 55.4825 82.069C55.4572 82.0563 55.4319 82.069 55.4065 82.107C54.8745 82.8037 54.0195 83.152 52.8415 83.152C51.8535 83.152 51.0555 82.9113 50.4475 82.43C49.8395 81.9487 49.5355 81.2393 49.5355 80.302C49.5355 79.3267 49.8775 78.573 50.5615 78.041C51.2455 77.4963 52.2209 77.224 53.4875 77.224H55.4255C55.4889 77.224 55.5205 77.1923 55.5205 77.129V76.711C55.5205 76.293 55.3939 75.97 55.1405 75.742C54.8872 75.5013 54.5072 75.381 54.0005 75.381C53.6079 75.381 53.2785 75.4507 53.0125 75.59C52.7592 75.7293 52.5945 75.9257 52.5185 76.179C52.4805 76.3183 52.3982 76.3817 52.2715 76.369L49.9725 76.065C49.8205 76.0397 49.7509 75.9827 49.7635 75.894C49.8142 75.362 50.0232 74.8807 50.3905 74.45C50.7705 74.0193 51.2645 73.6837 51.8725 73.443C52.4932 73.2023 53.1835 73.082 53.9435 73.082ZM53.5635 81.157C54.1082 81.157 54.5705 81.0113 54.9505 80.72C55.3305 80.4287 55.5205 80.055 55.5205 79.599V78.915C55.5205 78.8517 55.4889 78.82 55.4255 78.82H54.0575C53.4875 78.82 53.0379 78.9277 52.7085 79.143C52.3919 79.3583 52.2335 79.6623 52.2335 80.055C52.2335 80.397 52.3539 80.6693 52.5945 80.872C52.8352 81.062 53.1582 81.157 53.5635 81.157ZM65.4875 75.153C65.4875 75.2163 65.4622 75.2733 65.4115 75.324C65.3735 75.362 65.3229 75.381 65.2595 75.381H63.4355C63.3722 75.381 63.3405 75.4127 63.3405 75.476V79.504C63.3405 79.922 63.4229 80.2323 63.5875 80.435C63.7649 80.6377 64.0435 80.739 64.4235 80.739H65.0505C65.1139 80.739 65.1645 80.7643 65.2025 80.815C65.2532 80.853 65.2785 80.9037 65.2785 80.967V82.772C65.2785 82.9113 65.2025 82.9937 65.0505 83.019C64.5185 83.0443 64.1385 83.057 63.9105 83.057C62.8592 83.057 62.0739 82.886 61.5545 82.544C61.0352 82.1893 60.7692 81.5307 60.7565 80.568V75.476C60.7565 75.4127 60.7249 75.381 60.6615 75.381H59.5785C59.5152 75.381 59.4582 75.362 59.4075 75.324C59.3695 75.2733 59.3505 75.2163 59.3505 75.153V73.462C59.3505 73.3987 59.3695 73.348 59.4075 73.31C59.4582 73.2593 59.5152 73.234 59.5785 73.234H60.6615C60.7249 73.234 60.7565 73.2023 60.7565 73.139V70.878C60.7565 70.8147 60.7755 70.764 60.8135 70.726C60.8642 70.6753 60.9212 70.65 60.9845 70.65H63.1125C63.1759 70.65 63.2265 70.6753 63.2645 70.726C63.3152 70.764 63.3405 70.8147 63.3405 70.878V73.139C63.3405 73.2023 63.3722 73.234 63.4355 73.234H65.2595C65.3229 73.234 65.3735 73.2593 65.4115 73.31C65.4622 73.348 65.4875 73.3987 65.4875 73.462V75.153ZM68.5443 72.132C68.1136 72.132 67.7526 71.9927 67.4613 71.714C67.1826 71.4227 67.0433 71.0617 67.0433 70.631C67.0433 70.1877 67.1826 69.8267 67.4613 69.548C67.74 69.2693 68.101 69.13 68.5443 69.13C68.9876 69.13 69.3486 69.2693 69.6273 69.548C69.906 69.8267 70.0453 70.1877 70.0453 70.631C70.0453 71.0617 69.8996 71.4227 69.6083 71.714C69.3296 71.9927 68.975 72.132 68.5443 72.132ZM67.4043 83C67.341 83 67.284 82.981 67.2333 82.943C67.1953 82.8923 67.1763 82.8353 67.1763 82.772V73.443C67.1763 73.3797 67.1953 73.329 67.2333 73.291C67.284 73.2403 67.341 73.215 67.4043 73.215H69.6273C69.6906 73.215 69.7413 73.2403 69.7793 73.291C69.83 73.329 69.8553 73.3797 69.8553 73.443V82.772C69.8553 82.8353 69.83 82.8923 69.7793 82.943C69.7413 82.981 69.6906 83 69.6273 83H67.4043ZM76.2561 83.152C75.1921 83.152 74.2801 82.8733 73.5201 82.316C72.7601 81.7587 72.2407 80.9987 71.9621 80.036C71.7847 79.4407 71.6961 78.7947 71.6961 78.098C71.6961 77.3507 71.7847 76.6793 71.9621 76.084C72.2534 75.1467 72.7791 74.412 73.5391 73.88C74.2991 73.348 75.2111 73.082 76.2751 73.082C77.3137 73.082 78.2004 73.348 78.9351 73.88C79.6697 74.3993 80.1891 75.1277 80.4931 76.065C80.6957 76.6983 80.7971 77.3633 80.7971 78.06C80.7971 78.744 80.7084 79.3837 80.5311 79.979C80.2524 80.967 79.7331 81.746 78.9731 82.316C78.2257 82.8733 77.3201 83.152 76.2561 83.152ZM76.2561 80.853C76.6741 80.853 77.0287 80.7263 77.3201 80.473C77.6114 80.2197 77.8204 79.8713 77.9471 79.428C78.0484 79.0227 78.0991 78.5793 78.0991 78.098C78.0991 77.566 78.0484 77.1163 77.9471 76.749C77.8077 76.3183 77.5924 75.9827 77.3011 75.742C77.0097 75.5013 76.6551 75.381 76.2371 75.381C75.8064 75.381 75.4454 75.5013 75.1541 75.742C74.8754 75.9827 74.6727 76.3183 74.5461 76.749C74.4447 77.053 74.3941 77.5027 74.3941 78.098C74.3941 78.668 74.4384 79.1113 74.5271 79.428C74.6537 79.8713 74.8627 80.2197 75.1541 80.473C75.4581 80.7263 75.8254 80.853 76.2561 80.853ZM87.6113 73.082C88.6246 73.082 89.4416 73.3923 90.0623 74.013C90.6829 74.6337 90.9933 75.476 90.9933 76.54V82.772C90.9933 82.8353 90.9679 82.8923 90.9173 82.943C90.8793 82.981 90.8286 83 90.7653 83H88.5423C88.4789 83 88.4219 82.981 88.3713 82.943C88.3333 82.8923 88.3143 82.8353 88.3143 82.772V77.091C88.3143 76.5843 88.1686 76.1727 87.8773 75.856C87.5986 75.5393 87.2249 75.381 86.7563 75.381C86.2876 75.381 85.9076 75.5393 85.6163 75.856C85.3376 76.1727 85.1983 76.5843 85.1983 77.091V82.772C85.1983 82.8353 85.1729 82.8923 85.1223 82.943C85.0843 82.981 85.0336 83 84.9703 83H82.7473C82.6839 83 82.6269 82.981 82.5763 82.943C82.5383 82.8923 82.5193 82.8353 82.5193 82.772V73.462C82.5193 73.3987 82.5383 73.348 82.5763 73.31C82.6269 73.2593 82.6839 73.234 82.7473 73.234H84.9703C85.0336 73.234 85.0843 73.2593 85.1223 73.31C85.1729 73.348 85.1983 73.3987 85.1983 73.462V74.127C85.1983 74.165 85.2109 74.1903 85.2363 74.203C85.2616 74.2157 85.2806 74.2093 85.2933 74.184C85.8126 73.4493 86.5853 73.082 87.6113 73.082ZM96.8049 83.133C95.9562 83.133 95.2152 83.0127 94.5819 82.772C93.9485 82.5313 93.4545 82.1957 93.0999 81.765C92.7579 81.3343 92.5869 80.8467 92.5869 80.302V80.112C92.5869 80.0487 92.6059 79.998 92.6439 79.96C92.6945 79.9093 92.7515 79.884 92.8149 79.884H94.9239C94.9872 79.884 95.0379 79.9093 95.0759 79.96C95.1265 79.998 95.1519 80.0487 95.1519 80.112V80.131C95.1519 80.4097 95.3039 80.6503 95.6079 80.853C95.9245 81.043 96.3172 81.138 96.7859 81.138C97.2165 81.138 97.5649 81.0557 97.8309 80.891C98.0969 80.7137 98.2299 80.4983 98.2299 80.245C98.2299 80.017 98.1159 79.846 97.8879 79.732C97.6599 79.618 97.2862 79.4977 96.7669 79.371C96.1715 79.219 95.7029 79.0733 95.3609 78.934C94.5502 78.6553 93.9042 78.3133 93.4229 77.908C92.9415 77.5027 92.7009 76.92 92.7009 76.16C92.7009 75.2227 93.0619 74.4817 93.7839 73.937C94.5185 73.3797 95.4875 73.101 96.6909 73.101C97.5015 73.101 98.2109 73.234 98.8189 73.5C99.4269 73.7533 99.8955 74.1143 100.225 74.583C100.567 75.0517 100.738 75.5837 100.738 76.179C100.738 76.2423 100.713 76.2993 100.662 76.35C100.624 76.388 100.573 76.407 100.51 76.407H98.4769C98.4135 76.407 98.3565 76.388 98.3059 76.35C98.2679 76.2993 98.2489 76.2423 98.2489 76.179C98.2489 75.9003 98.1032 75.666 97.8119 75.476C97.5332 75.286 97.1595 75.191 96.6909 75.191C96.2729 75.191 95.9309 75.267 95.6649 75.419C95.3989 75.571 95.2659 75.78 95.2659 76.046C95.2659 76.2993 95.3925 76.4893 95.6459 76.616C95.9119 76.7427 96.3489 76.8757 96.9569 77.015C97.0962 77.053 97.2545 77.0973 97.4319 77.148C97.6092 77.186 97.7992 77.2367 98.0019 77.3C98.9012 77.566 99.6105 77.908 100.13 78.326C100.649 78.744 100.909 79.352 100.909 80.15C100.909 81.0873 100.535 81.822 99.7879 82.354C99.0532 82.8733 98.0589 83.133 96.8049 83.133ZM107.539 73.082C108.552 73.082 109.369 73.3923 109.99 74.013C110.611 74.6337 110.921 75.476 110.921 76.54V82.772C110.921 82.8353 110.896 82.8923 110.845 82.943C110.807 82.981 110.756 83 110.693 83H108.47C108.407 83 108.35 82.981 108.299 82.943C108.261 82.8923 108.242 82.8353 108.242 82.772V77.091C108.242 76.5843 108.096 76.1727 107.805 75.856C107.526 75.5393 107.153 75.381 106.684 75.381C106.215 75.381 105.835 75.5393 105.544 75.856C105.265 76.1727 105.126 76.5843 105.126 77.091V82.772C105.126 82.8353 105.101 82.8923 105.05 82.943C105.012 82.981 104.961 83 104.898 83H102.675C102.612 83 102.555 82.981 102.504 82.943C102.466 82.8923 102.447 82.8353 102.447 82.772V69.928C102.447 69.8647 102.466 69.814 102.504 69.776C102.555 69.7253 102.612 69.7 102.675 69.7H104.898C104.961 69.7 105.012 69.7253 105.05 69.776C105.101 69.814 105.126 69.8647 105.126 69.928V74.127C105.126 74.165 105.139 74.1903 105.164 74.203C105.189 74.2157 105.208 74.2093 105.221 74.184C105.74 73.4493 106.513 73.082 107.539 73.082ZM114.282 72.132C113.851 72.132 113.49 71.9927 113.199 71.714C112.92 71.4227 112.781 71.0617 112.781 70.631C112.781 70.1877 112.92 69.8267 113.199 69.548C113.477 69.2693 113.838 69.13 114.282 69.13C114.725 69.13 115.086 69.2693 115.365 69.548C115.643 69.8267 115.783 70.1877 115.783 70.631C115.783 71.0617 115.637 71.4227 115.346 71.714C115.067 71.9927 114.712 72.132 114.282 72.132ZM113.142 83C113.078 83 113.021 82.981 112.971 82.943C112.933 82.8923 112.914 82.8353 112.914 82.772V73.443C112.914 73.3797 112.933 73.329 112.971 73.291C113.021 73.2403 113.078 73.215 113.142 73.215H115.365C115.428 73.215 115.479 73.2403 115.517 73.291C115.567 73.329 115.593 73.3797 115.593 73.443V82.772C115.593 82.8353 115.567 82.8923 115.517 82.943C115.479 82.981 115.428 83 115.365 83H113.142ZM126.401 75.856C126.629 76.502 126.743 77.262 126.743 78.136C126.743 79.01 126.623 79.8017 126.382 80.511C126.091 81.3217 125.629 81.9677 124.995 82.449C124.375 82.9177 123.602 83.152 122.677 83.152C121.765 83.152 121.056 82.8353 120.549 82.202C120.524 82.164 120.499 82.1513 120.473 82.164C120.448 82.1767 120.435 82.202 120.435 82.24V86.306C120.435 86.3693 120.41 86.42 120.359 86.458C120.321 86.5087 120.271 86.534 120.207 86.534H117.984C117.921 86.534 117.864 86.5087 117.813 86.458C117.775 86.42 117.756 86.3693 117.756 86.306V73.462C117.756 73.3987 117.775 73.348 117.813 73.31C117.864 73.2593 117.921 73.234 117.984 73.234H120.207C120.271 73.234 120.321 73.2593 120.359 73.31C120.41 73.348 120.435 73.3987 120.435 73.462V74.089C120.435 74.127 120.448 74.1523 120.473 74.165C120.499 74.165 120.524 74.1523 120.549 74.127C121.081 73.4303 121.816 73.082 122.753 73.082C123.627 73.082 124.381 73.329 125.014 73.823C125.66 74.3043 126.123 74.982 126.401 75.856ZM123.494 80.112C123.811 79.618 123.969 78.9467 123.969 78.098C123.969 77.3 123.836 76.6667 123.57 76.198C123.279 75.6533 122.81 75.381 122.164 75.381C121.582 75.381 121.145 75.6533 120.853 76.198C120.587 76.654 120.454 77.2937 120.454 78.117C120.454 78.9657 120.594 79.6243 120.872 80.093C121.164 80.5997 121.594 80.853 122.164 80.853C122.734 80.853 123.178 80.606 123.494 80.112Z" fill="#252530"/>
<path d="M54.8771 134.079C54.8464 134.11 54.8387 134.14 54.8541 134.171C54.8694 134.202 54.9001 134.217 54.9461 134.217H61.1791C61.2557 134.217 61.3171 134.248 61.3631 134.309C61.4244 134.355 61.4551 134.416 61.4551 134.493V136.724C61.4551 136.801 61.4244 136.87 61.3631 136.931C61.3171 136.977 61.2557 137 61.1791 137H50.8291C50.7524 137 50.6834 136.977 50.6221 136.931C50.5761 136.87 50.5531 136.801 50.5531 136.724V134.608C50.5531 134.47 50.5991 134.355 50.6911 134.263C51.4424 133.527 52.2091 132.73 52.9911 131.871C53.7731 130.997 54.2637 130.453 54.4631 130.238C54.8924 129.732 55.3294 129.249 55.7741 128.789C57.1694 127.24 57.8671 126.09 57.8671 125.339C57.8671 124.802 57.6754 124.365 57.2921 124.028C56.9087 123.675 56.4104 123.499 55.7971 123.499C55.1837 123.499 54.6854 123.675 54.3021 124.028C53.9187 124.365 53.7271 124.818 53.7271 125.385V125.96C53.7271 126.037 53.6964 126.106 53.6351 126.167C53.5891 126.213 53.5277 126.236 53.4511 126.236H50.7371C50.6604 126.236 50.5914 126.213 50.5301 126.167C50.4841 126.106 50.4611 126.037 50.4611 125.96V124.879C50.5071 124.051 50.7677 123.323 51.2431 122.694C51.7184 122.05 52.3471 121.559 53.1291 121.222C53.9264 120.885 54.8157 120.716 55.7971 120.716C56.8857 120.716 57.8287 120.923 58.6261 121.337C59.4387 121.736 60.0597 122.28 60.4891 122.97C60.9337 123.66 61.1561 124.427 61.1561 125.27C61.1561 125.914 60.9951 126.573 60.6731 127.248C60.3511 127.923 59.8681 128.651 59.2241 129.433C58.7487 130.031 58.2351 130.621 57.6831 131.204C57.1311 131.787 56.3107 132.63 55.2221 133.734L54.8771 134.079ZM68.9202 137.253C67.2335 137.253 65.8995 136.785 64.9182 135.85C63.9369 134.899 63.4462 133.611 63.4462 131.986V125.914C63.4462 124.319 63.9369 123.054 64.9182 122.119C65.8995 121.184 67.2335 120.716 68.9202 120.716C70.6069 120.716 71.9409 121.184 72.9222 122.119C73.9189 123.054 74.4172 124.319 74.4172 125.914V131.986C74.4172 133.611 73.9189 134.899 72.9222 135.85C71.9409 136.785 70.6069 137.253 68.9202 137.253ZM68.9202 134.47C69.6102 134.47 70.1545 134.263 70.5532 133.849C70.9672 133.42 71.1742 132.852 71.1742 132.147V125.822C71.1742 125.117 70.9672 124.557 70.5532 124.143C70.1545 123.714 69.6102 123.499 68.9202 123.499C68.2455 123.499 67.7012 123.714 67.2872 124.143C66.8885 124.557 66.6892 125.117 66.6892 125.822V132.147C66.6892 132.852 66.8885 133.42 67.2872 133.849C67.7012 134.263 68.2455 134.47 68.9202 134.47ZM80.8644 134.079C80.8337 134.11 80.826 134.14 80.8414 134.171C80.8567 134.202 80.8874 134.217 80.9334 134.217H87.1664C87.243 134.217 87.3044 134.248 87.3504 134.309C87.4117 134.355 87.4424 134.416 87.4424 134.493V136.724C87.4424 136.801 87.4117 136.87 87.3504 136.931C87.3044 136.977 87.243 137 87.1664 137H76.8164C76.7397 137 76.6707 136.977 76.6094 136.931C76.5634 136.87 76.5404 136.801 76.5404 136.724V134.608C76.5404 134.47 76.5864 134.355 76.6784 134.263C77.4297 133.527 78.1964 132.73 78.9784 131.871C79.7604 130.997 80.251 130.453 80.4504 130.238C80.8797 129.732 81.3167 129.249 81.7614 128.789C83.1567 127.24 83.8544 126.09 83.8544 125.339C83.8544 124.802 83.6627 124.365 83.2794 124.028C82.896 123.675 82.3977 123.499 81.7844 123.499C81.171 123.499 80.6727 123.675 80.2894 124.028C79.906 124.365 79.7144 124.818 79.7144 125.385V125.96C79.7144 126.037 79.6837 126.106 79.6224 126.167C79.5764 126.213 79.515 126.236 79.4384 126.236H76.7244C76.6477 126.236 76.5787 126.213 76.5174 126.167C76.4714 126.106 76.4484 126.037 76.4484 125.96V124.879C76.4944 124.051 76.755 123.323 77.2304 122.694C77.7057 122.05 78.3344 121.559 79.1164 121.222C79.9137 120.885 80.803 120.716 81.7844 120.716C82.873 120.716 83.816 120.923 84.6134 121.337C85.426 121.736 86.047 122.28 86.4764 122.97C86.921 123.66 87.1434 124.427 87.1434 125.27C87.1434 125.914 86.9824 126.573 86.6604 127.248C86.3384 127.923 85.8554 128.651 85.2114 129.433C84.736 130.031 84.2224 130.621 83.6704 131.204C83.1184 131.787 82.298 132.63 81.2094 133.734L80.8644 134.079ZM99.032 129.318C99.3387 130.023 99.492 130.836 99.492 131.756C99.492 132.584 99.354 133.351 99.078 134.056C98.71 135.037 98.089 135.804 97.215 136.356C96.3564 136.908 95.3367 137.184 94.156 137.184C92.9907 137.184 91.9634 136.893 91.074 136.31C90.2 135.727 89.5714 134.938 89.188 133.941C88.9734 133.343 88.8507 132.699 88.82 132.009C88.82 131.825 88.912 131.733 89.096 131.733H91.81C91.994 131.733 92.086 131.825 92.086 132.009C92.1474 132.515 92.2317 132.891 92.339 133.136C92.477 133.535 92.6994 133.849 93.006 134.079C93.328 134.294 93.7037 134.401 94.133 134.401C94.9917 134.401 95.582 134.025 95.904 133.274C96.1187 132.814 96.226 132.277 96.226 131.664C96.226 130.943 96.111 130.353 95.881 129.893C95.5284 129.172 94.938 128.812 94.11 128.812C93.9414 128.812 93.765 128.866 93.581 128.973C93.397 129.065 93.1747 129.203 92.914 129.387C92.8527 129.433 92.7914 129.456 92.73 129.456C92.638 129.456 92.569 129.41 92.523 129.318L91.166 127.409C91.1354 127.363 91.12 127.309 91.12 127.248C91.12 127.156 91.1507 127.079 91.212 127.018L94.869 123.821C94.8997 123.79 94.9074 123.76 94.892 123.729C94.892 123.698 94.869 123.683 94.823 123.683H89.418C89.3414 123.683 89.2724 123.66 89.211 123.614C89.165 123.553 89.142 123.484 89.142 123.407V121.176C89.142 121.099 89.165 121.038 89.211 120.992C89.2724 120.931 89.3414 120.9 89.418 120.9H99.009C99.0857 120.9 99.147 120.931 99.193 120.992C99.2544 121.038 99.285 121.099 99.285 121.176V123.706C99.285 123.829 99.2314 123.944 99.124 124.051L96.111 126.811C96.0804 126.842 96.065 126.872 96.065 126.903C96.0804 126.934 96.1187 126.949 96.18 126.949C97.514 127.21 98.4647 127.999 99.032 129.318Z" fill="#252530"/>
</g>
<defs>
<clipPath id="clip0_13_333">
<rect width="150" height="168" fill="white"/>
</clipPath>
</defs>
</svg>
