<svg width="720" height="312" viewBox="0 0 720 312" fill="none" xmlns="http://www.w3.org/2000/svg">
<g clip-path="url(#clip0_2434_68891)">
<path d="M701.871 153.257C688.325 156.511 672.013 158.464 651.866 158.464C531.021 158.464 540.157 55.018 393.291 83.1977C246.426 111.377 287.92 177.149 107.98 205.509" stroke="url(#paint0_linear_2434_68891)" stroke-opacity="0.7" stroke-width="3.59933" stroke-miterlimit="3.99933" stroke-linecap="round"/>
<path d="M103.181 261.899C262.451 261.899 228.62 174.315 387.89 174.315C511.144 174.315 548.896 237.904 703.07 237.904" stroke="url(#paint1_linear_2434_68891)" stroke-width="5.99889" stroke-linecap="round" stroke-linejoin="round"/>
<g clip-path="url(#clip1_2434_68891)" filter="url(#filter0_d_2434_68891)">
<rect x="468.047" y="35.9932" width="215.96" height="215.96" rx="9.81637" fill="white"/>
<path d="M533.655 67.7959C533.655 67.5965 533.624 67.4175 533.563 67.259C533.506 67.0954 533.399 66.9472 533.241 66.8142C533.082 66.6762 532.86 66.5407 532.573 66.4078C532.287 66.2748 531.916 66.1368 531.461 65.9936C530.955 65.83 530.475 65.646 530.02 65.4415C529.57 65.237 529.171 64.9992 528.823 64.7283C528.481 64.4522 528.21 64.1326 528.01 63.7696C527.816 63.4066 527.719 62.9848 527.719 62.5042C527.719 62.039 527.821 61.6172 528.026 61.2388C528.23 60.8554 528.516 60.5282 528.884 60.2572C529.253 59.9811 529.687 59.7689 530.188 59.6207C530.694 59.4724 531.249 59.3983 531.852 59.3983C532.676 59.3983 533.394 59.5465 534.007 59.8431C534.621 60.1396 535.096 60.5461 535.434 61.0625C535.776 61.5788 535.948 62.1694 535.948 62.834H533.662C533.662 62.5068 533.593 62.2205 533.455 61.9751C533.322 61.7246 533.118 61.5277 532.842 61.3846C532.571 61.2414 532.228 61.1698 531.814 61.1698C531.415 61.1698 531.083 61.2312 530.817 61.3539C530.551 61.4715 530.352 61.6325 530.219 61.837C530.086 62.0364 530.02 62.2614 530.02 62.5119C530.02 62.7011 530.066 62.8724 530.158 63.0257C530.255 63.1791 530.398 63.3223 530.587 63.4552C530.776 63.5881 531.009 63.7134 531.285 63.831C531.561 63.9486 531.881 64.0636 532.244 64.1761C532.852 64.3601 533.386 64.5672 533.846 64.7973C534.312 65.0273 534.7 65.2855 535.012 65.5719C535.324 65.8582 535.559 66.1828 535.718 66.5458C535.876 66.9088 535.955 67.3204 535.955 67.7805C535.955 68.2662 535.861 68.7008 535.672 69.0843C535.482 69.4677 535.209 69.7924 534.851 70.0582C534.493 70.3241 534.066 70.526 533.57 70.6641C533.074 70.8021 532.52 70.8712 531.906 70.8712C531.354 70.8712 530.809 70.7996 530.273 70.6564C529.736 70.5082 529.247 70.2858 528.808 69.9892C528.373 69.6927 528.026 69.3143 527.765 68.8542C527.504 68.3941 527.374 67.8496 527.374 67.2207H529.682C529.682 67.5684 529.736 67.8623 529.843 68.1026C529.95 68.3429 530.101 68.5372 530.296 68.6855C530.495 68.8337 530.73 68.9411 531.001 69.0076C531.277 69.074 531.579 69.1073 531.906 69.1073C532.305 69.1073 532.632 69.051 532.888 68.9386C533.148 68.8261 533.34 68.6701 533.463 68.4707C533.591 68.2714 533.655 68.0464 533.655 67.7959ZM540.564 69.1456C540.835 69.1456 541.076 69.0945 541.285 68.9922C541.495 68.8849 541.659 68.7366 541.776 68.5474C541.899 68.3532 541.963 68.1256 541.968 67.8649H544.046C544.041 68.4477 543.885 68.9667 543.578 69.4217C543.272 69.8716 542.86 70.227 542.344 70.4877C541.827 70.7433 541.25 70.8712 540.61 70.8712C539.966 70.8712 539.404 70.7638 538.923 70.5491C538.448 70.3343 538.052 70.0378 537.735 69.6594C537.418 69.276 537.18 68.8312 537.021 68.325C536.863 67.8138 536.784 67.2667 536.784 66.6839V66.4615C536.784 65.8735 536.863 65.3264 537.021 64.8203C537.18 64.309 537.418 63.8642 537.735 63.4859C538.052 63.1024 538.448 62.8033 538.923 62.5886C539.399 62.3739 539.956 62.2665 540.595 62.2665C541.275 62.2665 541.871 62.3969 542.382 62.6576C542.898 62.9184 543.302 63.2916 543.594 63.7773C543.89 64.2579 544.041 64.828 544.046 65.4875H541.968C541.963 65.2114 541.904 64.9609 541.791 64.7359C541.684 64.511 541.526 64.332 541.316 64.1991C541.111 64.0611 540.858 63.992 540.557 63.992C540.235 63.992 539.971 64.0611 539.767 64.1991C539.562 64.332 539.404 64.5161 539.291 64.7513C539.179 64.9813 539.1 65.2446 539.054 65.5412C539.013 65.8326 538.992 66.1394 538.992 66.4615V66.6839C538.992 67.006 539.013 67.3153 539.054 67.6118C539.095 67.9084 539.171 68.1717 539.284 68.4017C539.401 68.6318 539.562 68.8133 539.767 68.9462C539.971 69.0792 540.237 69.1456 540.564 69.1456ZM544.729 66.6532V66.4921C544.729 65.8837 544.816 65.3239 544.989 64.8126C545.163 64.2962 545.416 63.8489 545.749 63.4705C546.081 63.0922 546.49 62.7982 546.976 62.5886C547.461 62.3739 548.019 62.2665 548.648 62.2665C549.276 62.2665 549.836 62.3739 550.327 62.5886C550.818 62.7982 551.23 63.0922 551.562 63.4705C551.899 63.8489 552.155 64.2962 552.329 64.8126C552.503 65.3239 552.589 65.8837 552.589 66.4921V66.6532C552.589 67.2565 552.503 67.8163 552.329 68.3327C552.155 68.844 551.899 69.2913 551.562 69.6748C551.23 70.0531 550.82 70.3471 550.335 70.5567C549.849 70.7663 549.292 70.8712 548.663 70.8712C548.034 70.8712 547.474 70.7663 546.983 70.5567C546.498 70.3471 546.086 70.0531 545.749 69.6748C545.416 69.2913 545.163 68.844 544.989 68.3327C544.816 67.8163 544.729 67.2565 544.729 66.6532ZM546.937 66.4921V66.6532C546.937 67.0008 546.968 67.3255 547.029 67.6272C547.091 67.9288 547.188 68.1947 547.321 68.4247C547.459 68.6497 547.638 68.8261 547.858 68.9539C548.078 69.0817 548.346 69.1456 548.663 69.1456C548.97 69.1456 549.233 69.0817 549.453 68.9539C549.673 68.8261 549.849 68.6497 549.982 68.4247C550.115 68.1947 550.212 67.9288 550.273 67.6272C550.34 67.3255 550.373 67.0008 550.373 66.6532V66.4921C550.373 66.1547 550.34 65.8377 550.273 65.5412C550.212 65.2395 550.112 64.9737 549.974 64.7436C549.841 64.5084 549.665 64.3244 549.445 64.1914C549.225 64.0585 548.959 63.992 548.648 63.992C548.336 63.992 548.07 64.0585 547.85 64.1914C547.635 64.3244 547.459 64.5084 547.321 64.7436C547.188 64.9737 547.091 65.2395 547.029 65.5412C546.968 65.8377 546.937 66.1547 546.937 66.4921ZM555.91 64.2298V70.7178H553.701V62.4199H555.78L555.91 64.2298ZM558.41 62.3662L558.372 64.4138C558.265 64.3985 558.134 64.3857 557.981 64.3755C557.833 64.3601 557.697 64.3525 557.574 64.3525C557.262 64.3525 556.992 64.3934 556.761 64.4752C556.536 64.5519 556.347 64.6669 556.194 64.8203C556.046 64.9737 555.933 65.1603 555.856 65.3801C555.785 65.6 555.744 65.8505 555.734 66.1317L555.289 65.9936C555.289 65.4568 555.343 64.9634 555.45 64.5135C555.557 64.0585 555.713 63.6623 555.918 63.3248C556.127 62.9874 556.383 62.7266 556.685 62.5426C556.986 62.3585 557.331 62.2665 557.72 62.2665C557.843 62.2665 557.968 62.2767 558.096 62.2972C558.224 62.3125 558.328 62.3355 558.41 62.3662ZM562.874 70.8712C562.229 70.8712 561.652 70.7689 561.14 70.5644C560.629 70.3548 560.195 70.0659 559.837 69.6978C559.484 69.3297 559.213 68.9028 559.024 68.4171C558.835 67.9262 558.74 67.4048 558.74 66.8526V66.5458C558.74 65.917 558.83 65.3418 559.008 64.8203C559.187 64.2988 559.443 63.8463 559.775 63.4629C560.113 63.0794 560.522 62.7854 561.002 62.5809C561.483 62.3713 562.025 62.2665 562.628 62.2665C563.216 62.2665 563.738 62.3636 564.193 62.5579C564.648 62.7522 565.029 63.0283 565.335 63.3862C565.647 63.7441 565.882 64.1735 566.041 64.6746C566.199 65.1705 566.279 65.7227 566.279 66.3311V67.2514H559.683V65.7789H564.108V65.6102C564.108 65.3034 564.052 65.0299 563.94 64.7896C563.832 64.5442 563.669 64.3499 563.449 64.2068C563.229 64.0636 562.948 63.992 562.605 63.992C562.314 63.992 562.063 64.0559 561.854 64.1838C561.644 64.3116 561.473 64.4905 561.34 64.7206C561.212 64.9507 561.115 65.2216 561.048 65.5335C560.987 65.8403 560.956 66.1777 560.956 66.5458V66.8526C560.956 67.1849 561.002 67.4917 561.094 67.7729C561.192 68.0541 561.327 68.2969 561.501 68.5014C561.68 68.7059 561.895 68.8644 562.145 68.9769C562.401 69.0894 562.69 69.1456 563.012 69.1456C563.41 69.1456 563.781 69.0689 564.124 68.9156C564.471 68.7571 564.77 68.5193 565.021 68.2023L566.095 69.368C565.921 69.6185 565.683 69.8588 565.381 70.0889C565.085 70.319 564.727 70.5082 564.308 70.6564C563.889 70.7996 563.41 70.8712 562.874 70.8712ZM572.146 59.5517H574.093L576.962 67.7499L579.83 59.5517H581.778L577.744 70.7178H576.179L572.146 59.5517ZM571.095 59.5517H573.035L573.388 67.5428V70.7178H571.095V59.5517ZM580.888 59.5517H582.836V70.7178H580.535V67.5428L580.888 59.5517ZM588.289 70.8712C587.645 70.8712 587.067 70.7689 586.556 70.5644C586.044 70.3548 585.61 70.0659 585.252 69.6978C584.899 69.3297 584.628 68.9028 584.439 68.4171C584.25 67.9262 584.155 67.4048 584.155 66.8526V66.5458C584.155 65.917 584.245 65.3418 584.424 64.8203C584.603 64.2988 584.858 63.8463 585.191 63.4629C585.528 63.0794 585.937 62.7854 586.418 62.5809C586.898 62.3713 587.44 62.2665 588.043 62.2665C588.631 62.2665 589.153 62.3636 589.608 62.5579C590.063 62.7522 590.444 63.0283 590.751 63.3862C591.062 63.7441 591.298 64.1735 591.456 64.6746C591.615 65.1705 591.694 65.7227 591.694 66.3311V67.2514H585.099V65.7789H589.524V65.6102C589.524 65.3034 589.467 65.0299 589.355 64.7896C589.247 64.5442 589.084 64.3499 588.864 64.2068C588.644 64.0636 588.363 63.992 588.02 63.992C587.729 63.992 587.478 64.0559 587.269 64.1838C587.059 64.3116 586.888 64.4905 586.755 64.7206C586.627 64.9507 586.53 65.2216 586.464 65.5335C586.402 65.8403 586.372 66.1777 586.372 66.5458V66.8526C586.372 67.1849 586.418 67.4917 586.51 67.7729C586.607 68.0541 586.742 68.2969 586.916 68.5014C587.095 68.7059 587.31 68.8644 587.56 68.9769C587.816 69.0894 588.105 69.1456 588.427 69.1456C588.826 69.1456 589.196 69.0689 589.539 68.9156C589.887 68.7571 590.186 68.5193 590.436 68.2023L591.51 69.368C591.336 69.6185 591.098 69.8588 590.797 70.0889C590.5 70.319 590.142 70.5082 589.723 70.6564C589.304 70.7996 588.826 70.8712 588.289 70.8712ZM596.771 62.4199V63.9844H591.939V62.4199H596.771ZM593.136 60.3722H595.344V68.2177C595.344 68.458 595.375 68.642 595.436 68.7698C595.503 68.8977 595.6 68.9871 595.728 69.0383C595.856 69.0843 596.017 69.1073 596.211 69.1073C596.349 69.1073 596.472 69.1022 596.579 69.0919C596.692 69.0766 596.786 69.0613 596.863 69.0459L596.87 70.6718C596.681 70.7331 596.477 70.7817 596.257 70.8175C596.037 70.8533 595.794 70.8712 595.528 70.8712C595.043 70.8712 594.618 70.7919 594.255 70.6334C593.897 70.4698 593.621 70.2091 593.427 69.8512C593.233 69.4933 593.136 69.0229 593.136 68.4401V60.3722ZM599.992 64.2298V70.7178H597.783V62.4199H599.861L599.992 64.2298ZM602.492 62.3662L602.454 64.4138C602.346 64.3985 602.216 64.3857 602.062 64.3755C601.914 64.3601 601.779 64.3525 601.656 64.3525C601.344 64.3525 601.073 64.3934 600.843 64.4752C600.618 64.5519 600.429 64.6669 600.276 64.8203C600.127 64.9737 600.015 65.1603 599.938 65.3801C599.867 65.6 599.826 65.8505 599.815 66.1317L599.371 65.9936C599.371 65.4568 599.424 64.9634 599.532 64.5135C599.639 64.0585 599.795 63.6623 599.999 63.3248C600.209 62.9874 600.465 62.7266 600.766 62.5426C601.068 62.3585 601.413 62.2665 601.802 62.2665C601.924 62.2665 602.05 62.2767 602.177 62.2972C602.305 62.3125 602.41 62.3355 602.492 62.3662ZM605.621 62.4199V70.7178H603.405V62.4199H605.621ZM603.266 60.2572C603.266 59.9351 603.379 59.6692 603.604 59.4596C603.829 59.25 604.131 59.1452 604.509 59.1452C604.882 59.1452 605.181 59.25 605.406 59.4596C605.636 59.6692 605.751 59.9351 605.751 60.2572C605.751 60.5793 605.636 60.8452 605.406 61.0548C605.181 61.2644 604.882 61.3692 604.509 61.3692C604.131 61.3692 603.829 61.2644 603.604 61.0548C603.379 60.8452 603.266 60.5793 603.266 60.2572ZM610.629 69.1456C610.9 69.1456 611.14 69.0945 611.35 68.9922C611.559 68.8849 611.723 68.7366 611.84 68.5474C611.963 68.3532 612.027 68.1256 612.032 67.8649H614.11C614.105 68.4477 613.949 68.9667 613.643 69.4217C613.336 69.8716 612.924 70.227 612.408 70.4877C611.892 70.7433 611.314 70.8712 610.675 70.8712C610.031 70.8712 609.468 70.7638 608.988 70.5491C608.512 70.3343 608.116 70.0378 607.799 69.6594C607.482 69.276 607.244 68.8312 607.086 68.325C606.927 67.8138 606.848 67.2667 606.848 66.6839V66.4615C606.848 65.8735 606.927 65.3264 607.086 64.8203C607.244 64.309 607.482 63.8642 607.799 63.4859C608.116 63.1024 608.512 62.8033 608.988 62.5886C609.463 62.3739 610.02 62.2665 610.659 62.2665C611.339 62.2665 611.935 62.3969 612.446 62.6576C612.963 62.9184 613.367 63.2916 613.658 63.7773C613.955 64.2579 614.105 64.828 614.11 65.4875H612.032C612.027 65.2114 611.968 64.9609 611.856 64.7359C611.748 64.511 611.59 64.332 611.38 64.1991C611.176 64.0611 610.923 63.992 610.621 63.992C610.299 63.992 610.036 64.0611 609.831 64.1991C609.627 64.332 609.468 64.5161 609.356 64.7513C609.243 64.9813 609.164 65.2446 609.118 65.5412C609.077 65.8326 609.057 66.1394 609.057 66.4615V66.6839C609.057 67.006 609.077 67.3153 609.118 67.6118C609.159 67.9084 609.236 68.1717 609.348 68.4017C609.466 68.6318 609.627 68.8133 609.831 68.9462C610.036 69.0792 610.302 69.1456 610.629 69.1456ZM619.632 68.4247C619.632 68.2662 619.586 68.1231 619.494 67.9953C619.402 67.8674 619.231 67.7499 618.98 67.6425C618.735 67.53 618.38 67.4278 617.914 67.3357C617.495 67.2437 617.104 67.1287 616.741 66.9906C616.383 66.8475 616.071 66.6762 615.805 66.4768C615.545 66.2774 615.34 66.0422 615.192 65.7712C615.044 65.4952 614.969 65.1807 614.969 64.828C614.969 64.4803 615.044 64.1531 615.192 63.8463C615.345 63.5396 615.562 63.2686 615.844 63.0334C616.13 62.7931 616.478 62.6065 616.887 62.4736C617.301 62.3355 617.766 62.2665 618.282 62.2665C619.003 62.2665 619.622 62.3815 620.138 62.6116C620.66 62.8417 621.059 63.1587 621.335 63.5626C621.616 63.9614 621.757 64.4164 621.757 64.9277H619.548C619.548 64.7129 619.502 64.5212 619.41 64.3525C619.323 64.1786 619.185 64.0432 618.996 63.946C618.812 63.8438 618.571 63.7926 618.275 63.7926C618.029 63.7926 617.817 63.8361 617.638 63.923C617.459 64.0048 617.321 64.1173 617.224 64.2604C617.132 64.3985 617.086 64.5519 617.086 64.7206C617.086 64.8484 617.112 64.9634 617.163 65.0657C617.219 65.1628 617.308 65.2523 617.431 65.3341C617.554 65.4159 617.712 65.4926 617.907 65.5642C618.106 65.6306 618.351 65.692 618.643 65.7482C619.241 65.8709 619.775 66.032 620.246 66.2314C620.716 66.4257 621.089 66.6915 621.365 67.029C621.641 67.3613 621.78 67.7984 621.78 68.3404C621.78 68.7085 621.698 69.0459 621.534 69.3527C621.37 69.6594 621.135 69.9279 620.829 70.1579C620.522 70.3829 620.154 70.5593 619.724 70.6871C619.3 70.8098 618.822 70.8712 618.29 70.8712C617.518 70.8712 616.864 70.7331 616.327 70.457C615.795 70.1809 615.391 69.8307 615.115 69.4064C614.844 68.9769 614.709 68.5372 614.709 68.0873H616.802C616.813 68.3889 616.889 68.6318 617.032 68.8159C617.181 68.9999 617.367 69.1328 617.592 69.2146C617.822 69.2964 618.07 69.3373 618.336 69.3373C618.622 69.3373 618.86 69.299 619.049 69.2223C619.239 69.1405 619.382 69.0331 619.479 68.9002C619.581 68.7622 619.632 68.6037 619.632 68.4247Z" fill="black"/>
<line x1="507.313" y1="215.633" x2="507.313" y2="221.522" stroke="#1A1A1A" stroke-width="1.96327" stroke-linecap="round"/>
<line x1="534.799" y1="215.633" x2="534.799" y2="221.522" stroke="#1A1A1A" stroke-width="1.96327" stroke-linecap="round"/>
<line x1="590.752" y1="215.633" x2="590.752" y2="221.522" stroke="#1A1A1A" stroke-width="1.96327" stroke-linecap="round"/>
<line x1="619.219" y1="215.633" x2="619.219" y2="221.522" stroke="#1A1A1A" stroke-width="1.96327" stroke-linecap="round"/>
<line x1="563.267" y1="215.633" x2="563.267" y2="221.522" stroke="#1A1A1A" stroke-width="1.96327" stroke-linecap="round"/>
<line x1="646.705" y1="215.633" x2="646.705" y2="221.522" stroke="#1A1A1A" stroke-width="1.96327" stroke-linecap="round"/>
<g clip-path="url(#clip2_2434_68891)">
<line opacity="0.4" x1="487.679" y1="114.034" x2="664.373" y2="114.034" stroke="#F8F8F8" stroke-width="0.981637"/>
<path opacity="0.4" d="M487.679 163.606H664.373" stroke="#F8F8F8" stroke-width="0.981637"/>
<line opacity="0.4" x1="487.679" y1="138.574" x2="664.373" y2="138.574" stroke="#F8F8F8" stroke-width="0.981637"/>
<path opacity="0.4" d="M487.679 188.147H664.373" stroke="#F8F8F8" stroke-width="0.981637"/>
<path d="M663.465 155.881C659.626 158.121 655.004 159.465 649.295 159.465C615.053 159.465 616.764 107.653 576.026 107.653C535.288 107.653 539.309 177.656 488.322 197.179" stroke="#FF8E3C" stroke-width="2.94491" stroke-miterlimit="3.99933" stroke-linecap="round"/>
<path d="M488.17 211.358H663.392" stroke="#F8F8F8" stroke-width="2.94491"/>
<path d="M488.047 211.358C532.444 211.358 531.629 173.503 576.026 173.503C610.383 173.503 620.907 211.358 663.883 211.358" stroke="#36C956" stroke-width="2.94491" stroke-linejoin="round"/>
<rect x="488.17" y="90.4742" width="175.713" height="146.264" rx="9.32555" stroke="#F8F8F8" stroke-width="0.981637"/>
</g>
</g>
<g filter="url(#filter1_d_2434_68891)">
<path d="M305.943 65.9879C305.943 56.0486 314.001 47.9912 323.94 47.9912H425.921C435.86 47.9912 443.918 56.0486 443.918 65.9879V173.968C443.918 183.907 435.86 191.965 425.921 191.965H323.94C314.001 191.965 305.943 183.907 305.943 173.968V65.9879Z" fill="white"/>
<path d="M367.23 165.237C367.23 165.122 367.213 165.02 367.177 164.929C367.145 164.835 367.084 164.75 366.993 164.674C366.902 164.595 366.775 164.518 366.611 164.441C366.447 164.365 366.234 164.286 365.974 164.204C365.684 164.11 365.408 164.005 365.148 163.888C364.89 163.771 364.661 163.634 364.462 163.479C364.266 163.321 364.111 163.138 363.996 162.93C363.885 162.722 363.829 162.48 363.829 162.205C363.829 161.938 363.888 161.697 364.005 161.48C364.122 161.26 364.286 161.073 364.497 160.918C364.708 160.759 364.957 160.638 365.244 160.553C365.534 160.468 365.852 160.426 366.198 160.426C366.669 160.426 367.081 160.51 367.432 160.68C367.784 160.85 368.056 161.083 368.25 161.379C368.446 161.675 368.544 162.013 368.544 162.394H367.235C367.235 162.206 367.195 162.042 367.116 161.902C367.04 161.758 366.923 161.646 366.764 161.563C366.609 161.481 366.413 161.44 366.176 161.44C365.947 161.44 365.757 161.476 365.605 161.546C365.452 161.613 365.338 161.706 365.262 161.823C365.186 161.937 365.148 162.066 365.148 162.209C365.148 162.318 365.174 162.416 365.227 162.504C365.282 162.592 365.364 162.674 365.473 162.75C365.581 162.826 365.714 162.898 365.873 162.965C366.031 163.032 366.214 163.098 366.422 163.163C366.77 163.268 367.076 163.387 367.34 163.519C367.607 163.651 367.829 163.798 368.008 163.962C368.187 164.126 368.321 164.312 368.412 164.52C368.503 164.728 368.548 164.964 368.548 165.228C368.548 165.506 368.494 165.755 368.386 165.975C368.277 166.194 368.121 166.38 367.916 166.533C367.711 166.685 367.466 166.801 367.182 166.88C366.898 166.959 366.58 166.999 366.228 166.999C365.912 166.999 365.6 166.958 365.293 166.875C364.985 166.791 364.705 166.663 364.453 166.493C364.204 166.323 364.005 166.107 363.856 165.843C363.706 165.579 363.632 165.267 363.632 164.907H364.954C364.954 165.106 364.985 165.275 365.046 165.412C365.108 165.55 365.194 165.661 365.306 165.746C365.42 165.831 365.555 165.893 365.71 165.931C365.868 165.969 366.041 165.988 366.228 165.988C366.457 165.988 366.644 165.956 366.791 165.891C366.94 165.827 367.05 165.738 367.12 165.623C367.194 165.509 367.23 165.38 367.23 165.237ZM371.509 166.01C371.665 166.01 371.802 165.981 371.922 165.922C372.043 165.861 372.136 165.776 372.204 165.667C372.274 165.556 372.311 165.426 372.314 165.276H373.504C373.501 165.61 373.412 165.907 373.236 166.168C373.06 166.426 372.825 166.629 372.529 166.779C372.233 166.925 371.902 166.999 371.536 166.999C371.167 166.999 370.845 166.937 370.569 166.814C370.297 166.691 370.07 166.521 369.888 166.304C369.707 166.085 369.57 165.83 369.48 165.54C369.389 165.247 369.343 164.933 369.343 164.6V164.472C369.343 164.135 369.389 163.822 369.48 163.532C369.57 163.239 369.707 162.984 369.888 162.767C370.07 162.548 370.297 162.376 370.569 162.253C370.842 162.13 371.161 162.069 371.527 162.069C371.917 162.069 372.258 162.143 372.551 162.293C372.847 162.442 373.078 162.656 373.245 162.934C373.415 163.21 373.501 163.536 373.504 163.914H372.314C372.311 163.756 372.277 163.612 372.212 163.484C372.151 163.355 372.06 163.252 371.94 163.176C371.823 163.097 371.678 163.057 371.505 163.057C371.321 163.057 371.17 163.097 371.053 163.176C370.935 163.252 370.845 163.358 370.78 163.492C370.716 163.624 370.67 163.775 370.644 163.945C370.62 164.112 370.609 164.288 370.609 164.472V164.6C370.609 164.784 370.62 164.961 370.644 165.131C370.667 165.301 370.711 165.452 370.776 165.584C370.843 165.716 370.935 165.82 371.053 165.896C371.17 165.972 371.322 166.01 371.509 166.01ZM374.216 164.582V164.49C374.216 164.141 374.266 163.82 374.365 163.527C374.465 163.232 374.61 162.975 374.8 162.759C374.991 162.542 375.225 162.373 375.503 162.253C375.781 162.13 376.101 162.069 376.461 162.069C376.821 162.069 377.142 162.13 377.423 162.253C377.704 162.373 377.94 162.542 378.131 162.759C378.324 162.975 378.47 163.232 378.57 163.527C378.67 163.82 378.719 164.141 378.719 164.49V164.582C378.719 164.928 378.67 165.248 378.57 165.544C378.47 165.837 378.324 166.093 378.131 166.313C377.94 166.53 377.706 166.698 377.428 166.818C377.149 166.938 376.83 166.999 376.47 166.999C376.11 166.999 375.789 166.938 375.508 166.818C375.229 166.698 374.994 166.53 374.8 166.313C374.61 166.093 374.465 165.837 374.365 165.544C374.266 165.248 374.216 164.928 374.216 164.582ZM375.481 164.49V164.582C375.481 164.781 375.499 164.967 375.534 165.14C375.569 165.313 375.625 165.465 375.701 165.597C375.78 165.726 375.883 165.827 376.008 165.9C376.134 165.973 376.288 166.01 376.47 166.01C376.646 166.01 376.796 165.973 376.922 165.9C377.048 165.827 377.149 165.726 377.226 165.597C377.302 165.465 377.357 165.313 377.392 165.14C377.431 164.967 377.45 164.781 377.45 164.582V164.49C377.45 164.296 377.431 164.115 377.392 163.945C377.357 163.772 377.3 163.62 377.221 163.488C377.145 163.353 377.044 163.248 376.918 163.172C376.792 163.095 376.64 163.057 376.461 163.057C376.282 163.057 376.13 163.095 376.004 163.172C375.881 163.248 375.78 163.353 375.701 163.488C375.625 163.62 375.569 163.772 375.534 163.945C375.499 164.115 375.481 164.296 375.481 164.49ZM380.942 163.194V166.911H379.677V162.157H380.868L380.942 163.194ZM382.375 162.126L382.353 163.299C382.291 163.29 382.217 163.283 382.129 163.277C382.044 163.268 381.966 163.264 381.896 163.264C381.717 163.264 381.562 163.287 381.43 163.334C381.301 163.378 381.193 163.444 381.105 163.532C381.02 163.62 380.956 163.727 380.912 163.853C380.871 163.979 380.847 164.122 380.841 164.283L380.587 164.204C380.587 163.897 380.617 163.614 380.679 163.356C380.74 163.095 380.83 162.868 380.947 162.675C381.067 162.482 381.213 162.332 381.386 162.227C381.559 162.121 381.757 162.069 381.979 162.069C382.05 162.069 382.121 162.075 382.195 162.086C382.268 162.095 382.328 162.108 382.375 162.126ZM385.253 166.999C384.883 166.999 384.552 166.94 384.26 166.823C383.967 166.703 383.718 166.537 383.513 166.326C383.31 166.115 383.155 165.871 383.047 165.593C382.938 165.311 382.884 165.013 382.884 164.696V164.52C382.884 164.16 382.936 163.831 383.038 163.532C383.141 163.233 383.287 162.974 383.477 162.754C383.671 162.535 383.905 162.366 384.18 162.249C384.456 162.129 384.766 162.069 385.112 162.069C385.449 162.069 385.748 162.124 386.008 162.236C386.269 162.347 386.487 162.505 386.663 162.71C386.842 162.915 386.976 163.161 387.067 163.448C387.158 163.733 387.203 164.049 387.203 164.397V164.925H383.425V164.081H385.96V163.984C385.96 163.809 385.928 163.652 385.863 163.514C385.802 163.374 385.708 163.262 385.582 163.18C385.456 163.098 385.295 163.057 385.099 163.057C384.932 163.057 384.788 163.094 384.668 163.167C384.548 163.24 384.45 163.343 384.374 163.475C384.301 163.607 384.245 163.762 384.207 163.94C384.172 164.116 384.154 164.31 384.154 164.52V164.696C384.154 164.887 384.18 165.062 384.233 165.223C384.289 165.385 384.366 165.524 384.466 165.641C384.569 165.758 384.692 165.849 384.835 165.913C384.982 165.978 385.147 166.01 385.332 166.01C385.56 166.01 385.772 165.966 385.969 165.878C386.168 165.787 386.339 165.651 386.483 165.47L387.098 166.137C386.998 166.281 386.862 166.419 386.689 166.55C386.519 166.682 386.314 166.791 386.074 166.875C385.834 166.958 385.56 166.999 385.253 166.999Z" fill="#505050"/>
<path d="M363.796 128.433H364.046C365.101 128.433 366.006 128.306 366.762 128.051C367.526 127.787 368.155 127.409 368.647 126.917C369.139 126.425 369.503 125.823 369.741 125.112C369.978 124.391 370.097 123.574 370.097 122.66V119.022C370.097 118.328 370.026 117.717 369.886 117.19C369.754 116.662 369.561 116.227 369.306 115.885C369.06 115.533 368.77 115.27 368.436 115.094C368.111 114.918 367.75 114.83 367.355 114.83C366.933 114.83 366.56 114.936 366.234 115.147C365.909 115.349 365.633 115.625 365.404 115.977C365.184 116.328 365.013 116.733 364.89 117.19C364.776 117.638 364.719 118.108 364.719 118.6C364.719 119.092 364.776 119.562 364.89 120.01C365.004 120.45 365.176 120.841 365.404 121.184C365.633 121.517 365.918 121.785 366.261 121.988C366.604 122.181 367.008 122.278 367.473 122.278C367.922 122.278 368.321 122.194 368.673 122.027C369.033 121.851 369.336 121.623 369.582 121.342C369.837 121.06 370.031 120.749 370.162 120.406C370.303 120.063 370.373 119.716 370.373 119.365L371.626 120.05C371.626 120.665 371.494 121.271 371.23 121.869C370.966 122.466 370.597 123.011 370.123 123.503C369.657 123.987 369.117 124.373 368.502 124.663C367.887 124.953 367.227 125.098 366.524 125.098C365.628 125.098 364.833 124.936 364.139 124.611C363.444 124.277 362.856 123.82 362.372 123.24C361.898 122.651 361.538 121.966 361.292 121.184C361.045 120.401 360.922 119.553 360.922 118.64C360.922 117.708 361.072 116.834 361.371 116.017C361.678 115.199 362.113 114.479 362.676 113.855C363.247 113.231 363.928 112.743 364.719 112.392C365.518 112.031 366.406 111.851 367.381 111.851C368.357 111.851 369.244 112.04 370.044 112.418C370.843 112.796 371.529 113.332 372.1 114.026C372.671 114.712 373.111 115.533 373.418 116.491C373.735 117.449 373.893 118.512 373.893 119.681V120.999C373.893 122.247 373.757 123.407 373.484 124.479C373.22 125.551 372.821 126.522 372.285 127.392C371.757 128.253 371.098 128.991 370.307 129.606C369.525 130.221 368.616 130.692 367.579 131.017C366.542 131.342 365.382 131.504 364.099 131.504H363.796V128.433ZM379.477 128.433H379.727C380.782 128.433 381.687 128.306 382.443 128.051C383.207 127.787 383.836 127.409 384.328 126.917C384.82 126.425 385.184 125.823 385.422 125.112C385.659 124.391 385.778 123.574 385.778 122.66V119.022C385.778 118.328 385.707 117.717 385.567 117.19C385.435 116.662 385.242 116.227 384.987 115.885C384.741 115.533 384.451 115.27 384.117 115.094C383.792 114.918 383.431 114.83 383.036 114.83C382.614 114.83 382.241 114.936 381.915 115.147C381.59 115.349 381.314 115.625 381.085 115.977C380.865 116.328 380.694 116.733 380.571 117.19C380.457 117.638 380.4 118.108 380.4 118.6C380.4 119.092 380.457 119.562 380.571 120.01C380.685 120.45 380.857 120.841 381.085 121.184C381.314 121.517 381.599 121.785 381.942 121.988C382.285 122.181 382.689 122.278 383.154 122.278C383.603 122.278 384.002 122.194 384.354 122.027C384.714 121.851 385.017 121.623 385.263 121.342C385.518 121.06 385.712 120.749 385.843 120.406C385.984 120.063 386.054 119.716 386.054 119.365L387.307 120.05C387.307 120.665 387.175 121.271 386.911 121.869C386.648 122.466 386.278 123.011 385.804 123.503C385.338 123.987 384.798 124.373 384.183 124.663C383.568 124.953 382.908 125.098 382.205 125.098C381.309 125.098 380.514 124.936 379.82 124.611C379.125 124.277 378.537 123.82 378.053 123.24C377.579 122.651 377.219 121.966 376.973 121.184C376.726 120.401 376.603 119.553 376.603 118.64C376.603 117.708 376.753 116.834 377.052 116.017C377.359 115.199 377.794 114.479 378.357 113.855C378.928 113.231 379.609 112.743 380.4 112.392C381.199 112.031 382.087 111.851 383.062 111.851C384.038 111.851 384.925 112.04 385.725 112.418C386.524 112.796 387.21 113.332 387.781 114.026C388.352 114.712 388.792 115.533 389.099 116.491C389.416 117.449 389.574 118.512 389.574 119.681V120.999C389.574 122.247 389.438 123.407 389.165 124.479C388.901 125.551 388.502 126.522 387.966 127.392C387.438 128.253 386.779 128.991 385.988 129.606C385.206 130.221 384.297 130.692 383.26 131.017C382.223 131.342 381.063 131.504 379.78 131.504H379.477V128.433Z" fill="#1A1A1A"/>
<path d="M343.116 154.051C336.824 147.759 332.539 139.742 330.803 131.015C329.067 122.287 329.958 113.241 333.363 105.02C336.769 96.7986 342.535 89.7718 349.934 84.8281C357.333 79.8843 366.032 77.2456 374.93 77.2456C383.829 77.2456 392.527 79.8843 399.926 84.8281C407.325 89.7718 413.092 96.7986 416.497 105.02C419.902 113.241 420.793 122.287 419.057 131.015C417.321 139.742 413.036 147.759 406.744 154.051" stroke="#E6E6E6" stroke-width="13.4975" stroke-linecap="round"/>
<path d="M343.116 154.051C337.079 148.014 332.884 140.384 331.022 132.052C329.16 123.72 329.706 115.03 332.598 106.997C335.49 98.9639 340.608 91.9197 347.354 86.6869C354.101 81.4541 362.196 78.2487 370.696 77.4453C379.196 76.6418 387.749 78.2734 395.356 82.1494C402.963 86.0254 409.31 91.9859 413.656 99.3347C418.002 106.683 420.168 115.117 419.9 123.65C419.631 132.184 416.941 140.465 412.142 147.526" stroke="#27B951" stroke-width="13.4975" stroke-linecap="round"/>
</g>
<path d="M182.366 141.921C182.366 135.295 187.738 129.923 194.364 129.923H270.362C276.988 129.923 282.36 135.295 282.36 141.921V153.926C282.36 160.552 276.988 165.923 270.362 165.923H194.364C187.738 165.923 182.366 160.552 182.366 153.926V141.921Z" fill="#1B6169"/>
<path d="M201.7 141.835H205.835C206.683 141.835 207.412 141.962 208.021 142.216C208.635 142.469 209.108 142.845 209.438 143.343C209.768 143.84 209.933 144.452 209.933 145.178C209.933 145.772 209.831 146.282 209.628 146.709C209.43 147.13 209.148 147.483 208.783 147.767C208.422 148.047 207.998 148.27 207.511 148.438L206.787 148.818H203.193L203.178 147.036H205.851C206.252 147.036 206.584 146.965 206.848 146.823C207.112 146.681 207.31 146.483 207.442 146.229C207.579 145.975 207.648 145.681 207.648 145.346C207.648 144.99 207.582 144.683 207.45 144.424C207.318 144.165 207.117 143.967 206.848 143.83C206.579 143.693 206.242 143.624 205.835 143.624H203.985V152.923H201.7V141.835ZM207.899 152.923L205.371 147.981L207.785 147.965L210.344 152.817V152.923H207.899ZM216.669 150.951V144.683H218.862V152.923H216.798L216.669 150.951ZM216.913 149.26L217.56 149.245C217.56 149.793 217.497 150.304 217.37 150.776C217.243 151.243 217.052 151.649 216.798 151.994C216.545 152.334 216.225 152.601 215.839 152.794C215.453 152.982 214.999 153.076 214.476 153.076C214.074 153.076 213.704 153.02 213.364 152.908C213.029 152.791 212.739 152.611 212.495 152.367C212.257 152.119 212.069 151.801 211.932 151.415C211.8 151.024 211.734 150.555 211.734 150.006V144.683H213.927V150.022C213.927 150.265 213.955 150.471 214.011 150.639C214.072 150.806 214.156 150.943 214.262 151.05C214.369 151.156 214.493 151.233 214.636 151.278C214.783 151.324 214.945 151.347 215.123 151.347C215.575 151.347 215.93 151.255 216.189 151.073C216.453 150.89 216.638 150.641 216.745 150.326C216.857 150.006 216.913 149.651 216.913 149.26ZM222.925 146.442V152.923H220.732V144.683H222.788L222.925 146.442ZM222.605 148.514H222.011C222.011 147.905 222.09 147.356 222.248 146.869C222.405 146.376 222.626 145.957 222.91 145.612C223.194 145.262 223.532 144.995 223.923 144.813C224.319 144.625 224.761 144.531 225.248 144.531C225.634 144.531 225.987 144.587 226.307 144.698C226.627 144.81 226.901 144.988 227.129 145.231C227.363 145.475 227.541 145.798 227.662 146.199C227.789 146.6 227.853 147.09 227.853 147.668V152.923H225.644V147.661C225.644 147.295 225.593 147.011 225.492 146.808C225.39 146.605 225.241 146.463 225.043 146.381C224.85 146.295 224.611 146.252 224.327 146.252C224.032 146.252 223.776 146.31 223.557 146.427C223.344 146.544 223.167 146.706 223.024 146.914C222.887 147.118 222.783 147.356 222.712 147.63C222.641 147.905 222.605 148.199 222.605 148.514ZM238.568 141.835V152.923H236.291V141.835H238.568ZM241.98 141.835V143.624H232.933V141.835H241.98ZM246.462 153.076C245.822 153.076 245.249 152.974 244.741 152.771C244.233 152.563 243.802 152.276 243.446 151.91C243.096 151.545 242.827 151.121 242.639 150.639C242.451 150.151 242.357 149.633 242.357 149.085V148.78C242.357 148.156 242.446 147.585 242.624 147.067C242.801 146.549 243.055 146.1 243.385 145.719C243.72 145.338 244.127 145.046 244.604 144.843C245.081 144.635 245.619 144.531 246.218 144.531C246.802 144.531 247.32 144.627 247.772 144.82C248.224 145.013 248.602 145.287 248.907 145.643C249.216 145.998 249.45 146.425 249.607 146.922C249.765 147.415 249.843 147.963 249.843 148.567V149.481H243.294V148.019H247.688V147.851C247.688 147.547 247.632 147.275 247.521 147.036C247.414 146.793 247.252 146.6 247.033 146.458C246.815 146.315 246.536 146.244 246.196 146.244C245.906 146.244 245.657 146.308 245.449 146.435C245.241 146.562 245.071 146.739 244.939 146.968C244.812 147.196 244.716 147.465 244.65 147.775C244.589 148.08 244.558 148.415 244.558 148.78V149.085C244.558 149.415 244.604 149.72 244.695 149.999C244.792 150.278 244.926 150.519 245.099 150.722C245.277 150.925 245.49 151.083 245.739 151.195C245.992 151.306 246.279 151.362 246.599 151.362C246.995 151.362 247.363 151.286 247.703 151.134C248.049 150.976 248.346 150.74 248.594 150.425L249.661 151.583C249.488 151.832 249.252 152.07 248.952 152.299C248.658 152.527 248.303 152.715 247.886 152.862C247.47 153.005 246.995 153.076 246.462 153.076ZM255.788 150.646C255.788 150.489 255.742 150.347 255.651 150.22C255.559 150.093 255.389 149.976 255.14 149.869C254.897 149.758 254.544 149.656 254.082 149.565C253.665 149.473 253.277 149.359 252.917 149.222C252.561 149.08 252.251 148.91 251.987 148.712C251.728 148.514 251.525 148.28 251.378 148.011C251.231 147.737 251.157 147.425 251.157 147.074C251.157 146.729 251.231 146.404 251.378 146.1C251.53 145.795 251.746 145.526 252.025 145.292C252.31 145.054 252.655 144.868 253.061 144.736C253.472 144.599 253.934 144.531 254.447 144.531C255.163 144.531 255.778 144.645 256.29 144.873C256.808 145.102 257.204 145.417 257.478 145.818C257.758 146.214 257.897 146.666 257.897 147.173H255.704C255.704 146.96 255.658 146.77 255.567 146.602C255.48 146.43 255.343 146.295 255.156 146.199C254.973 146.097 254.734 146.046 254.44 146.046C254.196 146.046 253.985 146.089 253.808 146.176C253.63 146.257 253.493 146.369 253.396 146.511C253.305 146.648 253.259 146.8 253.259 146.968C253.259 147.095 253.285 147.209 253.335 147.311C253.391 147.407 253.48 147.496 253.602 147.577C253.724 147.658 253.881 147.734 254.074 147.806C254.272 147.872 254.516 147.932 254.805 147.988C255.399 148.11 255.93 148.27 256.397 148.468C256.864 148.661 257.235 148.925 257.509 149.26C257.783 149.59 257.92 150.024 257.92 150.562C257.92 150.928 257.839 151.263 257.676 151.568C257.514 151.872 257.28 152.139 256.976 152.367C256.671 152.591 256.306 152.766 255.879 152.893C255.458 153.015 254.983 153.076 254.455 153.076C253.688 153.076 253.038 152.939 252.505 152.664C251.977 152.39 251.576 152.042 251.302 151.621C251.033 151.195 250.898 150.758 250.898 150.311H252.977C252.988 150.611 253.064 150.852 253.206 151.035C253.353 151.217 253.538 151.349 253.762 151.431C253.99 151.512 254.237 151.552 254.501 151.552C254.785 151.552 255.021 151.514 255.209 151.438C255.397 151.357 255.539 151.25 255.635 151.118C255.737 150.981 255.788 150.824 255.788 150.646ZM263.621 144.683V146.237H258.823V144.683H263.621ZM260.011 142.65H262.204V150.441C262.204 150.679 262.234 150.862 262.295 150.989C262.361 151.116 262.458 151.205 262.585 151.255C262.712 151.301 262.872 151.324 263.065 151.324C263.202 151.324 263.324 151.319 263.43 151.309C263.542 151.294 263.636 151.278 263.712 151.263L263.72 152.878C263.532 152.939 263.329 152.987 263.11 153.022C262.892 153.058 262.651 153.076 262.387 153.076C261.904 153.076 261.483 152.997 261.123 152.84C260.767 152.677 260.493 152.418 260.3 152.063C260.107 151.707 260.011 151.24 260.011 150.661V142.65Z" fill="white"/>
<path d="M194.364 132.323H270.362V127.524H194.364V132.323ZM279.96 141.921V153.926H284.759V141.921H279.96ZM270.362 163.524H194.364V168.323H270.362V163.524ZM184.766 153.926V141.921H179.967V153.926H184.766ZM194.364 163.524C189.063 163.524 184.766 159.227 184.766 153.926H179.967C179.967 161.877 186.413 168.323 194.364 168.323V163.524ZM279.96 153.926C279.96 159.227 275.663 163.524 270.362 163.524V168.323C278.313 168.323 284.759 161.877 284.759 153.926H279.96ZM270.362 132.323C275.663 132.323 279.96 136.62 279.96 141.921H284.759C284.759 133.97 278.313 127.524 270.362 127.524V132.323ZM194.364 127.524C186.413 127.524 179.967 133.97 179.967 141.921H184.766C184.766 136.62 189.063 132.323 194.364 132.323V127.524Z" fill="white"/>
<g filter="url(#filter2_d_2434_68891)">
<rect x="161.97" y="215.96" width="250.754" height="65.5197" rx="11.9978" fill="white"/>
<path d="M179.17 236.727C179.17 236.575 179.147 236.438 179.1 236.317C179.057 236.192 178.975 236.079 178.854 235.977C178.733 235.872 178.563 235.768 178.344 235.667C178.125 235.565 177.842 235.46 177.494 235.35C177.108 235.225 176.741 235.085 176.393 234.928C176.049 234.772 175.745 234.591 175.479 234.384C175.218 234.173 175.011 233.929 174.858 233.651C174.71 233.374 174.636 233.052 174.636 232.685C174.636 232.329 174.714 232.007 174.87 231.718C175.026 231.425 175.245 231.175 175.526 230.968C175.807 230.757 176.139 230.595 176.522 230.482C176.909 230.369 177.332 230.312 177.793 230.312C178.422 230.312 178.971 230.425 179.439 230.652C179.908 230.878 180.271 231.189 180.529 231.583C180.791 231.978 180.922 232.429 180.922 232.937H179.176C179.176 232.687 179.123 232.468 179.018 232.281C178.916 232.089 178.76 231.939 178.549 231.829C178.342 231.72 178.08 231.665 177.764 231.665C177.459 231.665 177.205 231.712 177.002 231.806C176.799 231.896 176.647 232.019 176.545 232.175C176.444 232.327 176.393 232.499 176.393 232.691C176.393 232.835 176.428 232.966 176.499 233.083C176.573 233.2 176.682 233.31 176.827 233.411C176.971 233.513 177.149 233.608 177.36 233.698C177.571 233.788 177.815 233.876 178.092 233.962C178.557 234.102 178.965 234.261 179.316 234.436C179.672 234.612 179.969 234.809 180.207 235.028C180.445 235.247 180.625 235.495 180.746 235.772C180.867 236.049 180.927 236.364 180.927 236.715C180.927 237.086 180.855 237.418 180.711 237.711C180.566 238.004 180.357 238.252 180.084 238.455C179.81 238.658 179.484 238.813 179.105 238.918C178.727 239.023 178.303 239.076 177.834 239.076C177.412 239.076 176.997 239.021 176.586 238.912C176.176 238.799 175.803 238.629 175.467 238.402C175.136 238.176 174.87 237.887 174.671 237.535C174.472 237.184 174.372 236.768 174.372 236.288H176.135C176.135 236.553 176.176 236.778 176.258 236.961C176.34 237.145 176.456 237.293 176.604 237.407C176.756 237.52 176.936 237.602 177.143 237.653C177.354 237.703 177.584 237.729 177.834 237.729C178.139 237.729 178.389 237.686 178.584 237.6C178.783 237.514 178.93 237.395 179.023 237.243C179.121 237.09 179.17 236.918 179.17 236.727ZM183.944 233.839V241.396H182.257V232.62H183.821L183.944 233.839ZM187.957 235.719V235.842C187.957 236.303 187.902 236.731 187.793 237.125C187.688 237.52 187.531 237.863 187.324 238.156C187.117 238.445 186.86 238.672 186.551 238.836C186.247 238.996 185.895 239.076 185.497 239.076C185.11 239.076 184.774 238.998 184.489 238.842C184.204 238.686 183.964 238.467 183.768 238.186C183.577 237.901 183.423 237.571 183.306 237.196C183.188 236.821 183.099 236.418 183.036 235.989V235.667C183.099 235.206 183.188 234.784 183.306 234.401C183.423 234.015 183.577 233.681 183.768 233.399C183.964 233.114 184.202 232.894 184.483 232.737C184.768 232.581 185.102 232.503 185.485 232.503C185.887 232.503 186.241 232.579 186.545 232.732C186.854 232.884 187.112 233.103 187.319 233.388C187.529 233.673 187.688 234.013 187.793 234.407C187.902 234.802 187.957 235.239 187.957 235.719ZM186.264 235.842V235.719C186.264 235.45 186.241 235.202 186.194 234.975C186.151 234.745 186.081 234.544 185.983 234.372C185.889 234.2 185.764 234.067 185.608 233.974C185.456 233.876 185.27 233.827 185.051 233.827C184.821 233.827 184.624 233.864 184.46 233.938C184.3 234.013 184.169 234.12 184.067 234.261C183.966 234.401 183.89 234.569 183.839 234.764C183.788 234.96 183.757 235.18 183.745 235.426V236.241C183.765 236.53 183.819 236.789 183.909 237.02C183.999 237.246 184.138 237.426 184.325 237.559C184.512 237.692 184.759 237.758 185.063 237.758C185.286 237.758 185.473 237.709 185.626 237.612C185.778 237.51 185.901 237.371 185.995 237.196C186.092 237.02 186.161 236.817 186.2 236.586C186.243 236.356 186.264 236.108 186.264 235.842ZM192.163 239.076C191.671 239.076 191.23 238.998 190.839 238.842C190.449 238.682 190.117 238.461 189.843 238.18C189.574 237.899 189.367 237.573 189.222 237.201C189.078 236.827 189.006 236.428 189.006 236.006V235.772C189.006 235.292 189.074 234.852 189.211 234.454C189.347 234.056 189.543 233.71 189.796 233.417C190.054 233.124 190.367 232.9 190.734 232.743C191.101 232.583 191.515 232.503 191.976 232.503C192.425 232.503 192.823 232.577 193.171 232.726C193.518 232.874 193.809 233.085 194.044 233.358C194.282 233.632 194.462 233.96 194.583 234.343C194.704 234.721 194.764 235.143 194.764 235.608V236.311H189.726V235.186H193.106V235.057C193.106 234.823 193.063 234.614 192.977 234.431C192.895 234.243 192.77 234.095 192.603 233.985C192.435 233.876 192.22 233.821 191.958 233.821C191.736 233.821 191.544 233.87 191.384 233.968C191.224 234.065 191.093 234.202 190.991 234.378C190.894 234.554 190.82 234.761 190.769 234.999C190.722 235.233 190.699 235.491 190.699 235.772V236.006C190.699 236.26 190.734 236.495 190.804 236.709C190.878 236.924 190.982 237.11 191.115 237.266C191.251 237.422 191.415 237.543 191.607 237.629C191.802 237.715 192.023 237.758 192.269 237.758C192.573 237.758 192.856 237.699 193.118 237.582C193.384 237.461 193.612 237.28 193.803 237.037L194.624 237.928C194.491 238.119 194.309 238.303 194.079 238.479C193.852 238.654 193.579 238.799 193.259 238.912C192.938 239.021 192.573 239.076 192.163 239.076ZM198.882 239.076C198.39 239.076 197.949 238.998 197.558 238.842C197.168 238.682 196.836 238.461 196.562 238.18C196.293 237.899 196.086 237.573 195.942 237.201C195.797 236.827 195.725 236.428 195.725 236.006V235.772C195.725 235.292 195.793 234.852 195.93 234.454C196.066 234.056 196.262 233.71 196.516 233.417C196.773 233.124 197.086 232.9 197.453 232.743C197.82 232.583 198.234 232.503 198.695 232.503C199.144 232.503 199.542 232.577 199.89 232.726C200.238 232.874 200.529 233.085 200.763 233.358C201.001 233.632 201.181 233.96 201.302 234.343C201.423 234.721 201.483 235.143 201.483 235.608V236.311H196.445V235.186H199.826V235.057C199.826 234.823 199.783 234.614 199.697 234.431C199.615 234.243 199.49 234.095 199.322 233.985C199.154 233.876 198.939 233.821 198.677 233.821C198.455 233.821 198.263 233.87 198.103 233.968C197.943 234.065 197.812 234.202 197.711 234.378C197.613 234.554 197.539 234.761 197.488 234.999C197.441 235.233 197.418 235.491 197.418 235.772V236.006C197.418 236.26 197.453 236.495 197.523 236.709C197.597 236.924 197.701 237.11 197.834 237.266C197.97 237.422 198.134 237.543 198.326 237.629C198.521 237.715 198.742 237.758 198.988 237.758C199.292 237.758 199.576 237.699 199.837 237.582C200.103 237.461 200.331 237.28 200.523 237.037L201.343 237.928C201.21 238.119 201.028 238.303 200.798 238.479C200.572 238.654 200.298 238.799 199.978 238.912C199.658 239.021 199.292 239.076 198.882 239.076ZM206.428 237.576V229.961H208.127V238.959H206.598L206.428 237.576ZM202.421 235.866V235.743C202.421 235.258 202.475 234.819 202.585 234.425C202.694 234.026 202.854 233.685 203.065 233.399C203.276 233.114 203.536 232.894 203.844 232.737C204.153 232.581 204.504 232.503 204.899 232.503C205.27 232.503 205.594 232.581 205.871 232.737C206.152 232.894 206.391 233.116 206.586 233.405C206.785 233.69 206.945 234.028 207.066 234.419C207.187 234.805 207.275 235.229 207.33 235.69V235.96C207.275 236.401 207.187 236.811 207.066 237.19C206.945 237.569 206.785 237.901 206.586 238.186C206.391 238.467 206.152 238.686 205.871 238.842C205.59 238.998 205.262 239.076 204.887 239.076C204.492 239.076 204.141 238.996 203.832 238.836C203.528 238.676 203.27 238.451 203.059 238.162C202.852 237.873 202.694 237.533 202.585 237.143C202.475 236.752 202.421 236.327 202.421 235.866ZM204.108 235.743V235.866C204.108 236.127 204.127 236.372 204.166 236.598C204.209 236.825 204.278 237.026 204.371 237.201C204.469 237.373 204.594 237.508 204.746 237.606C204.903 237.699 205.092 237.746 205.315 237.746C205.604 237.746 205.842 237.682 206.029 237.553C206.217 237.42 206.359 237.239 206.457 237.008C206.558 236.778 206.617 236.512 206.633 236.211V235.444C206.621 235.198 206.586 234.977 206.527 234.782C206.473 234.583 206.391 234.413 206.281 234.272C206.176 234.132 206.043 234.022 205.883 233.944C205.727 233.866 205.541 233.827 205.326 233.827C205.108 233.827 204.92 233.878 204.764 233.979C204.608 234.077 204.481 234.212 204.383 234.384C204.289 234.556 204.219 234.759 204.172 234.993C204.129 235.223 204.108 235.473 204.108 235.743ZM214.887 230.429V238.959H213.135V230.429H214.887ZM218.319 233.974V238.959H216.632V232.62H218.214L218.319 233.974ZM218.073 235.567H217.616C217.616 235.098 217.677 234.677 217.798 234.302C217.919 233.923 218.089 233.601 218.308 233.335C218.526 233.066 218.786 232.861 219.087 232.72C219.391 232.575 219.731 232.503 220.106 232.503C220.403 232.503 220.674 232.546 220.92 232.632C221.166 232.718 221.377 232.855 221.553 233.042C221.733 233.23 221.869 233.478 221.963 233.786C222.061 234.095 222.11 234.472 222.11 234.917V238.959H220.411V234.911C220.411 234.63 220.372 234.411 220.293 234.255C220.215 234.099 220.1 233.989 219.948 233.927C219.799 233.86 219.616 233.827 219.397 233.827C219.171 233.827 218.973 233.872 218.805 233.962C218.641 234.052 218.505 234.177 218.395 234.337C218.29 234.493 218.21 234.677 218.155 234.887C218.101 235.098 218.073 235.325 218.073 235.567ZM227.376 237.576V229.961H229.075V238.959H227.546L227.376 237.576ZM223.369 235.866V235.743C223.369 235.258 223.424 234.819 223.533 234.425C223.642 234.026 223.802 233.685 224.013 233.399C224.224 233.114 224.484 232.894 224.792 232.737C225.101 232.581 225.452 232.503 225.847 232.503C226.218 232.503 226.542 232.581 226.819 232.737C227.101 232.894 227.339 233.116 227.534 233.405C227.733 233.69 227.893 234.028 228.014 234.419C228.136 234.805 228.223 235.229 228.278 235.69V235.96C228.223 236.401 228.136 236.811 228.014 237.19C227.893 237.569 227.733 237.901 227.534 238.186C227.339 238.467 227.101 238.686 226.819 238.842C226.538 238.998 226.21 239.076 225.835 239.076C225.441 239.076 225.089 238.996 224.781 238.836C224.476 238.676 224.218 238.451 224.007 238.162C223.8 237.873 223.642 237.533 223.533 237.143C223.424 236.752 223.369 236.327 223.369 235.866ZM225.056 235.743V235.866C225.056 236.127 225.076 236.372 225.115 236.598C225.158 236.825 225.226 237.026 225.32 237.201C225.417 237.373 225.542 237.508 225.695 237.606C225.851 237.699 226.04 237.746 226.263 237.746C226.552 237.746 226.79 237.682 226.978 237.553C227.165 237.42 227.308 237.239 227.405 237.008C227.507 236.778 227.565 236.512 227.581 236.211V235.444C227.569 235.198 227.534 234.977 227.476 234.782C227.421 234.583 227.339 234.413 227.229 234.272C227.124 234.132 226.991 234.022 226.831 233.944C226.675 233.866 226.489 233.827 226.275 233.827C226.056 233.827 225.868 233.878 225.712 233.979C225.556 234.077 225.429 234.212 225.331 234.384C225.238 234.556 225.167 234.759 225.12 234.993C225.078 235.223 225.056 235.473 225.056 235.743ZM233.55 239.076C233.058 239.076 232.617 238.998 232.226 238.842C231.836 238.682 231.504 238.461 231.23 238.18C230.961 237.899 230.754 237.573 230.609 237.201C230.465 236.827 230.393 236.428 230.393 236.006V235.772C230.393 235.292 230.461 234.852 230.598 234.454C230.734 234.056 230.93 233.71 231.184 233.417C231.441 233.124 231.754 232.9 232.121 232.743C232.488 232.583 232.902 232.503 233.363 232.503C233.812 232.503 234.21 232.577 234.558 232.726C234.906 232.874 235.197 233.085 235.431 233.358C235.669 233.632 235.849 233.96 235.97 234.343C236.091 234.721 236.151 235.143 236.151 235.608V236.311H231.113V235.186H234.494V235.057C234.494 234.823 234.451 234.614 234.365 234.431C234.283 234.243 234.158 234.095 233.99 233.985C233.822 233.876 233.607 233.821 233.345 233.821C233.123 233.821 232.931 233.87 232.771 233.968C232.611 234.065 232.48 234.202 232.379 234.378C232.281 234.554 232.207 234.761 232.156 234.999C232.109 235.233 232.086 235.491 232.086 235.772V236.006C232.086 236.26 232.121 236.495 232.191 236.709C232.265 236.924 232.369 237.11 232.502 237.266C232.638 237.422 232.802 237.543 232.994 237.629C233.189 237.715 233.41 237.758 233.656 237.758C233.96 237.758 234.244 237.699 234.505 237.582C234.771 237.461 234.999 237.28 235.191 237.037L236.011 237.928C235.878 238.119 235.696 238.303 235.466 238.479C235.239 238.654 234.966 238.799 234.646 238.912C234.326 239.021 233.96 239.076 233.55 239.076ZM238.711 232.62L239.76 234.548L240.838 232.62H242.636L240.844 235.719L242.718 238.959H240.914L239.772 236.92L238.629 238.959H236.825L238.7 235.719L236.907 232.62H238.711Z" fill="#1A1A1A"/>
<rect x="173.968" y="257.082" width="167.964" height="9.59822" rx="4.79911" fill="#27B951"/>
<path d="M355.711 264.598H355.822C356.291 264.598 356.693 264.542 357.029 264.428C357.369 264.311 357.648 264.143 357.866 263.925C358.085 263.706 358.247 263.438 358.353 263.122C358.458 262.802 358.511 262.439 358.511 262.032V260.416C358.511 260.107 358.48 259.836 358.417 259.601C358.359 259.367 358.273 259.174 358.159 259.021C358.05 258.865 357.921 258.748 357.773 258.67C357.628 258.592 357.468 258.553 357.292 258.553C357.105 258.553 356.939 258.599 356.794 258.693C356.65 258.783 356.527 258.906 356.425 259.062C356.328 259.219 356.252 259.398 356.197 259.601C356.146 259.8 356.121 260.009 356.121 260.228C356.121 260.447 356.146 260.656 356.197 260.855C356.248 261.05 356.324 261.224 356.425 261.376C356.527 261.525 356.654 261.644 356.806 261.734C356.958 261.82 357.138 261.863 357.345 261.863C357.544 261.863 357.722 261.825 357.878 261.751C358.038 261.673 358.173 261.572 358.282 261.447C358.396 261.322 358.482 261.183 358.54 261.031C358.603 260.878 358.634 260.724 358.634 260.568L359.19 260.873C359.19 261.146 359.132 261.415 359.015 261.681C358.898 261.947 358.733 262.189 358.523 262.407C358.316 262.622 358.075 262.794 357.802 262.923C357.529 263.052 357.236 263.116 356.923 263.116C356.525 263.116 356.171 263.044 355.863 262.899C355.554 262.751 355.293 262.548 355.078 262.29C354.867 262.029 354.707 261.724 354.598 261.376C354.488 261.029 354.434 260.652 354.434 260.246C354.434 259.832 354.5 259.443 354.633 259.08C354.769 258.717 354.963 258.396 355.213 258.119C355.467 257.842 355.769 257.625 356.121 257.469C356.476 257.309 356.871 257.229 357.304 257.229C357.738 257.229 358.132 257.313 358.487 257.481C358.843 257.648 359.147 257.887 359.401 258.195C359.655 258.5 359.85 258.865 359.987 259.291C360.128 259.716 360.198 260.189 360.198 260.708V261.294C360.198 261.849 360.138 262.364 360.016 262.841C359.899 263.317 359.722 263.749 359.483 264.136C359.249 264.518 358.956 264.846 358.605 265.12C358.257 265.393 357.853 265.602 357.392 265.747C356.931 265.891 356.416 265.963 355.845 265.963H355.711V264.598ZM365.998 257.264H366.244V258.611H366.144C365.699 258.611 365.302 258.678 364.955 258.81C364.607 258.943 364.312 259.133 364.07 259.379C363.832 259.621 363.648 259.914 363.519 260.257C363.394 260.601 363.332 260.986 363.332 261.411V262.829C363.332 263.134 363.361 263.403 363.42 263.638C363.482 263.868 363.57 264.061 363.684 264.218C363.801 264.37 363.937 264.485 364.094 264.563C364.25 264.637 364.426 264.675 364.621 264.675C364.804 264.675 364.97 264.635 365.119 264.557C365.271 264.479 365.4 264.37 365.505 264.229C365.615 264.085 365.697 263.917 365.751 263.725C365.81 263.53 365.839 263.317 365.839 263.087C365.839 262.857 365.81 262.644 365.751 262.448C365.697 262.253 365.615 262.085 365.505 261.945C365.396 261.8 365.263 261.689 365.107 261.611C364.951 261.533 364.775 261.493 364.58 261.493C364.314 261.493 364.08 261.556 363.877 261.681C363.678 261.802 363.521 261.958 363.408 262.15C363.295 262.341 363.234 262.542 363.227 262.753L362.717 262.425C362.729 262.124 362.791 261.839 362.904 261.57C363.022 261.3 363.182 261.062 363.385 260.855C363.592 260.644 363.84 260.48 364.129 260.363C364.418 260.242 364.744 260.181 365.107 260.181C365.505 260.181 365.855 260.257 366.156 260.41C366.46 260.562 366.714 260.771 366.917 261.037C367.12 261.302 367.273 261.609 367.374 261.956C367.476 262.304 367.527 262.675 367.527 263.069C367.527 263.483 367.458 263.868 367.322 264.223C367.189 264.579 366.995 264.889 366.742 265.155C366.492 265.42 366.191 265.627 365.839 265.776C365.488 265.924 365.093 265.999 364.656 265.999C364.203 265.999 363.791 265.916 363.42 265.752C363.053 265.585 362.736 265.35 362.471 265.049C362.205 264.749 362 264.391 361.856 263.977C361.715 263.563 361.645 263.11 361.645 262.618V261.962C361.645 261.275 361.744 260.646 361.944 260.076C362.147 259.502 362.438 259.006 362.816 258.588C363.195 258.166 363.652 257.84 364.187 257.609C364.722 257.379 365.326 257.264 365.998 257.264ZM368.751 259.443V258.992C368.751 258.668 368.821 258.373 368.962 258.107C369.102 257.842 369.309 257.629 369.583 257.469C369.856 257.309 370.192 257.229 370.59 257.229C371 257.229 371.342 257.309 371.615 257.469C371.893 257.629 372.1 257.842 372.236 258.107C372.377 258.373 372.447 258.668 372.447 258.992V259.443C372.447 259.759 372.377 260.05 372.236 260.316C372.1 260.582 371.895 260.794 371.621 260.955C371.348 261.115 371.01 261.195 370.608 261.195C370.202 261.195 369.86 261.115 369.583 260.955C369.309 260.794 369.102 260.582 368.962 260.316C368.821 260.05 368.751 259.759 368.751 259.443ZM369.87 258.992V259.443C369.87 259.58 369.895 259.711 369.946 259.836C370 259.957 370.082 260.056 370.192 260.134C370.305 260.209 370.442 260.246 370.602 260.246C370.77 260.246 370.907 260.209 371.012 260.134C371.117 260.056 371.196 259.957 371.246 259.836C371.297 259.711 371.322 259.58 371.322 259.443V258.992C371.322 258.847 371.295 258.715 371.24 258.594C371.19 258.469 371.11 258.369 371 258.295C370.895 258.217 370.758 258.178 370.59 258.178C370.434 258.178 370.301 258.217 370.192 258.295C370.082 258.369 370 258.469 369.946 258.594C369.895 258.715 369.87 258.847 369.87 258.992ZM372.828 264.241V263.79C372.828 263.47 372.898 263.177 373.039 262.911C373.183 262.646 373.392 262.433 373.666 262.273C373.943 262.113 374.283 262.032 374.685 262.032C375.091 262.032 375.431 262.113 375.704 262.273C375.978 262.433 376.185 262.646 376.325 262.911C376.466 263.177 376.536 263.47 376.536 263.79V264.241C376.536 264.561 376.466 264.854 376.325 265.12C376.189 265.385 375.984 265.598 375.71 265.758C375.437 265.918 375.099 265.999 374.697 265.999C374.291 265.999 373.949 265.918 373.672 265.758C373.394 265.598 373.183 265.385 373.039 265.12C372.898 264.854 372.828 264.561 372.828 264.241ZM373.953 263.79V264.241C373.953 264.382 373.984 264.514 374.047 264.639C374.109 264.764 374.195 264.864 374.304 264.938C374.418 265.012 374.548 265.049 374.697 265.049C374.884 265.049 375.031 265.012 375.136 264.938C375.242 264.864 375.314 264.764 375.353 264.639C375.396 264.514 375.417 264.382 375.417 264.241V263.79C375.417 263.649 375.39 263.519 375.335 263.397C375.281 263.272 375.199 263.173 375.089 263.099C374.984 263.021 374.849 262.981 374.685 262.981C374.521 262.981 374.384 263.021 374.275 263.099C374.17 263.173 374.09 263.272 374.035 263.397C373.98 263.519 373.953 263.649 373.953 263.79ZM375.101 258.57L370.936 265.237L370.116 264.803L374.281 258.137L375.101 258.57Z" fill="#1A1A1A"/>
</g>
</g>
<defs>
<filter id="filter0_d_2434_68891" x="448.414" y="21.2686" width="255.226" height="255.225" filterUnits="userSpaceOnUse" color-interpolation-filters="sRGB">
<feFlood flood-opacity="0" result="BackgroundImageFix"/>
<feColorMatrix in="SourceAlpha" type="matrix" values="0 0 0 0 0 0 0 0 0 0 0 0 0 0 0 0 0 0 127 0" result="hardAlpha"/>
<feOffset dy="4.90818"/>
<feGaussianBlur stdDeviation="9.81637"/>
<feComposite in2="hardAlpha" operator="out"/>
<feColorMatrix type="matrix" values="0 0 0 0 0 0 0 0 0 0 0 0 0 0 0 0 0 0 0.1 0"/>
<feBlend mode="normal" in2="BackgroundImageFix" result="effect1_dropShadow_2434_68891"/>
<feBlend mode="normal" in="SourceGraphic" in2="effect1_dropShadow_2434_68891" result="shape"/>
</filter>
<filter id="filter1_d_2434_68891" x="281.948" y="29.9945" width="185.966" height="191.964" filterUnits="userSpaceOnUse" color-interpolation-filters="sRGB">
<feFlood flood-opacity="0" result="BackgroundImageFix"/>
<feColorMatrix in="SourceAlpha" type="matrix" values="0 0 0 0 0 0 0 0 0 0 0 0 0 0 0 0 0 0 127 0" result="hardAlpha"/>
<feOffset dy="5.99889"/>
<feGaussianBlur stdDeviation="11.9978"/>
<feComposite in2="hardAlpha" operator="out"/>
<feColorMatrix type="matrix" values="0 0 0 0 0 0 0 0 0 0 0 0 0 0 0 0 0 0 0.1 0"/>
<feBlend mode="normal" in2="BackgroundImageFix" result="effect1_dropShadow_2434_68891"/>
<feBlend mode="normal" in="SourceGraphic" in2="effect1_dropShadow_2434_68891" result="shape"/>
</filter>
<filter id="filter2_d_2434_68891" x="137.974" y="197.963" width="298.745" height="113.511" filterUnits="userSpaceOnUse" color-interpolation-filters="sRGB">
<feFlood flood-opacity="0" result="BackgroundImageFix"/>
<feColorMatrix in="SourceAlpha" type="matrix" values="0 0 0 0 0 0 0 0 0 0 0 0 0 0 0 0 0 0 127 0" result="hardAlpha"/>
<feOffset dy="5.99889"/>
<feGaussianBlur stdDeviation="11.9978"/>
<feComposite in2="hardAlpha" operator="out"/>
<feColorMatrix type="matrix" values="0 0 0 0 0 0 0 0 0 0 0 0 0 0 0 0 0 0 0.1 0"/>
<feBlend mode="normal" in2="BackgroundImageFix" result="effect1_dropShadow_2434_68891"/>
<feBlend mode="normal" in="SourceGraphic" in2="effect1_dropShadow_2434_68891" result="shape"/>
</filter>
<linearGradient id="paint0_linear_2434_68891" x1="121.778" y1="205.509" x2="710.869" y2="205.509" gradientUnits="userSpaceOnUse">
<stop offset="0.00520833" stop-color="white" stop-opacity="0"/>
<stop offset="0.479167" stop-color="white"/>
<stop offset="1" stop-color="white" stop-opacity="0"/>
</linearGradient>
<linearGradient id="paint1_linear_2434_68891" x1="153.571" y1="261.899" x2="703.07" y2="261.899" gradientUnits="userSpaceOnUse">
<stop offset="0.104167" stop-color="#FF8E3C" stop-opacity="0"/>
<stop offset="0.520833" stop-color="#FF8E3C"/>
<stop offset="1" stop-color="#FF8E3C" stop-opacity="0"/>
</linearGradient>
<clipPath id="clip0_2434_68891">
<path d="M0 11.9978C0 5.37158 5.37159 0 11.9978 0H707.869C714.495 0 719.867 5.37159 719.867 11.9978V299.944C719.867 306.571 714.495 311.942 707.869 311.942H11.9978C5.37162 311.942 0 306.571 0 299.944V11.9978Z" fill="white"/>
</clipPath>
<clipPath id="clip1_2434_68891">
<rect width="215.96" height="215.96" fill="white" transform="translate(468.047 35.9932)"/>
</clipPath>
<clipPath id="clip2_2434_68891">
<rect width="176.695" height="147.245" fill="white" transform="translate(487.68 89.9834)"/>
</clipPath>
</defs>
</svg>
